<?xml version="1.0" encoding="UTF-8" standalone="no"?><svg xmlns="http://www.w3.org/2000/svg" xmlns:xlink="http://www.w3.org/1999/xlink" contentScriptType="application/ecmascript" contentStyleType="text/css" height="702px" preserveAspectRatio="none" style="width:1762px;height:702px;" version="1.1" viewBox="0 0 1762 702" width="1762px" zoomAndPan="magnify"><defs><filter height="300%" id="f1vf9k2vx505hk" width="300%" x="-1" y="-1"><feGaussianBlur result="blurOut" stdDeviation="2.0"/><feColorMatrix in="blurOut" result="blurOut2" type="matrix" values="0 0 0 0 0 0 0 0 0 0 0 0 0 0 0 0 0 0 .4 0"/><feOffset dx="4.0" dy="4.0" in="blurOut2" result="blurOut3"/><feBlend in="SourceGraphic" in2="blurOut3" mode="normal"/></filter></defs><g><!--MD5=[613e7361a79b7411d4447decc78dccf9]
cluster tracing--><polygon fill="#F2F2F2" filter="url(#f1vf9k2vx505hk)" points="573,24,634,24,641,46.2969,1740,46.2969,1740,690,573,690,573,24" style="stroke: #000000; stroke-width: 1.5;"/><line style="stroke: #000000; stroke-width: 1.5;" x1="573" x2="641" y1="46.2969" y2="46.2969"/><text fill="#000000" font-family="sans-serif" font-size="14" font-weight="bold" lengthAdjust="spacingAndGlyphs" textLength="55" x="577" y="38.9951">tracing</text><!--MD5=[66fb17d46ab839ac150654603c5bde1b]
class tracing::run_event--><rect fill="#CCFFE6" filter="url(#f1vf9k2vx505hk)" height="130.7656" id="tracing::run_event" style="stroke: #A80036; stroke-width: 1.5;" width="245" x="589.5" y="59"/><rect fill="#CCFFE6" height="37.9375" style="stroke: #A80036; stroke-width: 1.5;" width="245" x="589.5" y="59"/><ellipse cx="604.5" cy="77.9688" fill="#ADD1B2" rx="11" ry="11" style="stroke: #A80036; stroke-width: 1.0;"/><path d="M607.4688,83.6094 Q606.8906,83.9063 606.25,84.0547 Q605.6094,84.2031 604.9063,84.2031 Q602.4063,84.2031 601.0859,82.5547 Q599.7656,80.9063 599.7656,77.7813 Q599.7656,74.6563 601.0859,73 Q602.4063,71.3438 604.9063,71.3438 Q605.6094,71.3438 606.2578,71.5 Q606.9063,71.6563 607.4688,71.9531 L607.4688,74.6719 Q606.8438,74.0938 606.25,73.8203 Q605.6563,73.5469 605.0313,73.5469 Q603.6875,73.5469 603,74.6172 Q602.3125,75.6875 602.3125,77.7813 Q602.3125,79.875 603,80.9453 Q603.6875,82.0156 605.0313,82.0156 Q605.6563,82.0156 606.25,81.7422 Q606.8438,81.4688 607.4688,80.8906 L607.4688,83.6094 Z "/><text fill="#000000" font-family="sans-serif" font-size="12" font-style="italic" lengthAdjust="spacingAndGlyphs" textLength="217" x="616.5" y="75.1387">«masd::orm::object, Timestamped»</text><text fill="#000000" font-family="sans-serif" font-size="12" lengthAdjust="spacingAndGlyphs" textLength="62" x="694" y="89.1074">run_event</text><line style="stroke: #A80036; stroke-width: 1.5;" x1="590.5" x2="833.5" y1="96.9375" y2="96.9375"/><ellipse cx="600.5" cy="107.9375" fill="none" rx="3" ry="3" style="stroke: #038048; stroke-width: 1.0;"/><text fill="#000000" font-family="sans-serif" font-size="11" lengthAdjust="spacingAndGlyphs" textLength="166" x="609.5" y="111.1479">run_event_key run_event_key</text><ellipse cx="600.5" cy="120.7422" fill="none" rx="3" ry="3" style="stroke: #038048; stroke-width: 1.0;"/><text fill="#000000" font-family="sans-serif" font-size="11" lengthAdjust="spacingAndGlyphs" textLength="105" x="609.5" y="123.9526">version std::string</text><ellipse cx="600.5" cy="133.5469" fill="none" rx="3" ry="3" style="stroke: #038048; stroke-width: 1.0;"/><text fill="#000000" font-family="sans-serif" font-size="11" lengthAdjust="spacingAndGlyphs" textLength="72" x="609.5" y="136.7573">payload json</text><ellipse cx="600.5" cy="146.3516" fill="none" rx="3" ry="3" style="stroke: #038048; stroke-width: 1.0;"/><text fill="#000000" font-family="sans-serif" font-size="11" lengthAdjust="spacingAndGlyphs" textLength="102" x="609.5" y="149.562">activity std::string</text><ellipse cx="600.5" cy="159.1563" fill="none" rx="3" ry="3" style="stroke: #038048; stroke-width: 1.0;"/><text fill="#000000" font-family="sans-serif" font-size="11" lengthAdjust="spacingAndGlyphs" textLength="148" x="609.5" y="162.3667">logging_impact std::string</text><ellipse cx="600.5" cy="171.9609" fill="none" rx="3" ry="3" style="stroke: #038048; stroke-width: 1.0;"/><text fill="#000000" font-family="sans-serif" font-size="11" lengthAdjust="spacingAndGlyphs" textLength="146" x="609.5" y="175.1714">tracing_impact std::string</text><line style="stroke: #A80036; stroke-width: 1.5;" x1="590.5" x2="833.5" y1="181.7656" y2="181.7656"/><!--MD5=[267a2ba9be85422d71494af376acfb14]
class tracing::run_id--><rect fill="#B3FFD9" filter="url(#f1vf9k2vx505hk)" height="53.9375" id="tracing::run_id" style="stroke: #A80036; stroke-width: 1.5;" width="249" x="869.5" y="97.5"/><rect fill="#B3FFD9" height="37.9375" style="stroke: #A80036; stroke-width: 1.5;" width="249" x="869.5" y="97.5"/><ellipse cx="884.5" cy="116.4688" fill="#ADD1B2" rx="11" ry="11" style="stroke: #A80036; stroke-width: 1.0;"/><path d="M887.4688,122.1094 Q886.8906,122.4063 886.25,122.5547 Q885.6094,122.7031 884.9063,122.7031 Q882.4063,122.7031 881.0859,121.0547 Q879.7656,119.4063 879.7656,116.2813 Q879.7656,113.1563 881.0859,111.5 Q882.4063,109.8438 884.9063,109.8438 Q885.6094,109.8438 886.2578,110 Q886.9063,110.1563 887.4688,110.4531 L887.4688,113.1719 Q886.8438,112.5938 886.25,112.3203 Q885.6563,112.0469 885.0313,112.0469 Q883.6875,112.0469 883,113.1172 Q882.3125,114.1875 882.3125,116.2813 Q882.3125,118.375 883,119.4453 Q883.6875,120.5156 885.0313,120.5156 Q885.6563,120.5156 886.25,120.2422 Q886.8438,119.9688 887.4688,119.3906 L887.4688,122.1094 Z "/><text fill="#000000" font-family="sans-serif" font-size="12" font-style="italic" lengthAdjust="spacingAndGlyphs" textLength="221" x="896.5" y="113.6387">«masd::orm::value, masd::primitive»</text><text fill="#000000" font-family="sans-serif" font-size="12" lengthAdjust="spacingAndGlyphs" textLength="38" x="988" y="127.6074">run_id</text><line style="stroke: #A80036; stroke-width: 1.5;" x1="870.5" x2="1117.5" y1="135.4375" y2="135.4375"/><line style="stroke: #A80036; stroke-width: 1.5;" x1="870.5" x2="1117.5" y1="143.4375" y2="143.4375"/><!--MD5=[7426ec06f799adf717dae9b17895ee98]
class tracing::json--><rect fill="#B3FFD9" filter="url(#f1vf9k2vx505hk)" height="53.9375" id="tracing::json" style="stroke: #A80036; stroke-width: 1.5;" width="249" x="1153.5" y="97.5"/><rect fill="#B3FFD9" height="37.9375" style="stroke: #A80036; stroke-width: 1.5;" width="249" x="1153.5" y="97.5"/><ellipse cx="1168.5" cy="116.4688" fill="#ADD1B2" rx="11" ry="11" style="stroke: #A80036; stroke-width: 1.0;"/><path d="M1171.4688,122.1094 Q1170.8906,122.4063 1170.25,122.5547 Q1169.6094,122.7031 1168.9063,122.7031 Q1166.4063,122.7031 1165.0859,121.0547 Q1163.7656,119.4063 1163.7656,116.2813 Q1163.7656,113.1563 1165.0859,111.5 Q1166.4063,109.8438 1168.9063,109.8438 Q1169.6094,109.8438 1170.2578,110 Q1170.9063,110.1563 1171.4688,110.4531 L1171.4688,113.1719 Q1170.8438,112.5938 1170.25,112.3203 Q1169.6563,112.0469 1169.0313,112.0469 Q1167.6875,112.0469 1167,113.1172 Q1166.3125,114.1875 1166.3125,116.2813 Q1166.3125,118.375 1167,119.4453 Q1167.6875,120.5156 1169.0313,120.5156 Q1169.6563,120.5156 1170.25,120.2422 Q1170.8438,119.9688 1171.4688,119.3906 L1171.4688,122.1094 Z "/><text fill="#000000" font-family="sans-serif" font-size="12" font-style="italic" lengthAdjust="spacingAndGlyphs" textLength="221" x="1180.5" y="113.6387">«masd::orm::value, masd::primitive»</text><text fill="#000000" font-family="sans-serif" font-size="12" lengthAdjust="spacingAndGlyphs" textLength="26" x="1278" y="127.6074">json</text><line style="stroke: #A80036; stroke-width: 1.5;" x1="1154.5" x2="1401.5" y1="135.4375" y2="135.4375"/><line style="stroke: #A80036; stroke-width: 1.5;" x1="1154.5" x2="1401.5" y1="143.4375" y2="143.4375"/><!--MD5=[fea5d04f6e783af96ecedd9779d8c0c6]
class tracing::transform_id--><rect fill="#B3FFD9" filter="url(#f1vf9k2vx505hk)" height="53.9375" id="tracing::transform_id" style="stroke: #A80036; stroke-width: 1.5;" width="249" x="1437.5" y="97.5"/><rect fill="#B3FFD9" height="37.9375" style="stroke: #A80036; stroke-width: 1.5;" width="249" x="1437.5" y="97.5"/><ellipse cx="1452.5" cy="116.4688" fill="#ADD1B2" rx="11" ry="11" style="stroke: #A80036; stroke-width: 1.0;"/><path d="M1455.4688,122.1094 Q1454.8906,122.4063 1454.25,122.5547 Q1453.6094,122.7031 1452.9063,122.7031 Q1450.4063,122.7031 1449.0859,121.0547 Q1447.7656,119.4063 1447.7656,116.2813 Q1447.7656,113.1563 1449.0859,111.5 Q1450.4063,109.8438 1452.9063,109.8438 Q1453.6094,109.8438 1454.2578,110 Q1454.9063,110.1563 1455.4688,110.4531 L1455.4688,113.1719 Q1454.8438,112.5938 1454.25,112.3203 Q1453.6563,112.0469 1453.0313,112.0469 Q1451.6875,112.0469 1451,113.1172 Q1450.3125,114.1875 1450.3125,116.2813 Q1450.3125,118.375 1451,119.4453 Q1451.6875,120.5156 1453.0313,120.5156 Q1453.6563,120.5156 1454.25,120.2422 Q1454.8438,119.9688 1455.4688,119.3906 L1455.4688,122.1094 Z "/><text fill="#000000" font-family="sans-serif" font-size="12" font-style="italic" lengthAdjust="spacingAndGlyphs" textLength="221" x="1464.5" y="113.6387">«masd::orm::value, masd::primitive»</text><text fill="#000000" font-family="sans-serif" font-size="12" lengthAdjust="spacingAndGlyphs" textLength="78" x="1536" y="127.6074">transform_id</text><line style="stroke: #A80036; stroke-width: 1.5;" x1="1438.5" x2="1685.5" y1="135.4375" y2="135.4375"/><line style="stroke: #A80036; stroke-width: 1.5;" x1="1438.5" x2="1685.5" y1="143.4375" y2="143.4375"/><!--MD5=[2ec1adfa963ca8b8c10457d5b6ae4a98]
class tracing::Timestamped--><rect fill="#E3B6F6" filter="url(#f1vf9k2vx505hk)" height="66.7422" id="tracing::Timestamped" style="stroke: #A80036; stroke-width: 1.5;" width="232" x="592" y="288.5"/><rect fill="#E3B6F6" height="37.9375" style="stroke: #A80036; stroke-width: 1.5;" width="232" x="592" y="288.5"/><ellipse cx="628.6" cy="307.4688" fill="#ADD1B2" rx="11" ry="11" style="stroke: #A80036; stroke-width: 1.0;"/><path d="M631.5688,313.1094 Q630.9906,313.4063 630.35,313.5547 Q629.7094,313.7031 629.0063,313.7031 Q626.5063,313.7031 625.1859,312.0547 Q623.8656,310.4063 623.8656,307.2813 Q623.8656,304.1563 625.1859,302.5 Q626.5063,300.8438 629.0063,300.8438 Q629.7094,300.8438 630.3578,301 Q631.0063,301.1563 631.5688,301.4531 L631.5688,304.1719 Q630.9438,303.5938 630.35,303.3203 Q629.7563,303.0469 629.1313,303.0469 Q627.7875,303.0469 627.1,304.1172 Q626.4125,305.1875 626.4125,307.2813 Q626.4125,309.375 627.1,310.4453 Q627.7875,311.5156 629.1313,311.5156 Q629.7563,311.5156 630.35,311.2422 Q630.9438,310.9688 631.5688,310.3906 L631.5688,313.1094 Z "/><text fill="#000000" font-family="sans-serif" font-size="12" font-style="italic" lengthAdjust="spacingAndGlyphs" textLength="156" x="645.4" y="304.6387">«masd::object_template»</text><text fill="#000000" font-family="sans-serif" font-size="12" lengthAdjust="spacingAndGlyphs" textLength="84" x="681.4" y="318.6074">Timestamped</text><line style="stroke: #A80036; stroke-width: 1.5;" x1="593" x2="823" y1="326.4375" y2="326.4375"/><ellipse cx="603" cy="337.4375" fill="none" rx="3" ry="3" style="stroke: #038048; stroke-width: 1.0;"/><text fill="#000000" font-family="sans-serif" font-size="11" lengthAdjust="spacingAndGlyphs" textLength="206" x="612" y="340.6479">timestamp boost::posix_time::ptime</text><line style="stroke: #A80036; stroke-width: 1.5;" x1="593" x2="823" y1="347.2422" y2="347.2422"/><!--MD5=[5198eeec1792b92347bc1a7e0affe678]
class tracing::transform_event--><rect fill="#CCFFE6" filter="url(#f1vf9k2vx505hk)" height="143.5703" id="tracing::transform_event" style="stroke: #A80036; stroke-width: 1.5;" width="268" x="859" y="250"/><rect fill="#CCFFE6" height="37.9375" style="stroke: #A80036; stroke-width: 1.5;" width="268" x="859" y="250"/><ellipse cx="884.35" cy="268.9688" fill="#ADD1B2" rx="11" ry="11" style="stroke: #A80036; stroke-width: 1.0;"/><path d="M887.3188,274.6094 Q886.7406,274.9063 886.1,275.0547 Q885.4594,275.2031 884.7563,275.2031 Q882.2563,275.2031 880.9359,273.5547 Q879.6156,271.9063 879.6156,268.7813 Q879.6156,265.6563 880.9359,264 Q882.2563,262.3438 884.7563,262.3438 Q885.4594,262.3438 886.1078,262.5 Q886.7563,262.6563 887.3188,262.9531 L887.3188,265.6719 Q886.6938,265.0938 886.1,264.8203 Q885.5063,264.5469 884.8813,264.5469 Q883.5375,264.5469 882.85,265.6172 Q882.1625,266.6875 882.1625,268.7813 Q882.1625,270.875 882.85,271.9453 Q883.5375,273.0156 884.8813,273.0156 Q885.5063,273.0156 886.1,272.7422 Q886.6938,272.4688 887.3188,271.8906 L887.3188,274.6094 Z "/><text fill="#000000" font-family="sans-serif" font-size="12" font-style="italic" lengthAdjust="spacingAndGlyphs" textLength="217" x="898.65" y="266.1387">«masd::orm::object, Timestamped»</text><text fill="#000000" font-family="sans-serif" font-size="12" lengthAdjust="spacingAndGlyphs" textLength="102" x="956.15" y="280.1074">transform_event</text><line style="stroke: #A80036; stroke-width: 1.5;" x1="860" x2="1126" y1="287.9375" y2="287.9375"/><ellipse cx="870" cy="298.9375" fill="none" rx="3" ry="3" style="stroke: #038048; stroke-width: 1.0;"/><text fill="#000000" font-family="sans-serif" font-size="11" lengthAdjust="spacingAndGlyphs" textLength="242" x="879" y="302.1479">transform_event_key transform_event_key</text><ellipse cx="870" cy="311.7422" fill="none" rx="3" ry="3" style="stroke: #038048; stroke-width: 1.0;"/><text fill="#000000" font-family="sans-serif" font-size="11" lengthAdjust="spacingAndGlyphs" textLength="74" x="879" y="314.9526">run_id run_id</text><ellipse cx="870" cy="324.5469" fill="none" rx="3" ry="3" style="stroke: #038048; stroke-width: 1.0;"/><text fill="#000000" font-family="sans-serif" font-size="11" lengthAdjust="spacingAndGlyphs" textLength="178" x="879" y="327.7573">transform_type transform_type</text><ellipse cx="870" cy="337.3516" fill="none" rx="3" ry="3" style="stroke: #038048; stroke-width: 1.0;"/><text fill="#000000" font-family="sans-serif" font-size="11" lengthAdjust="spacingAndGlyphs" textLength="150" x="879" y="340.562">transform_id transform_id</text><ellipse cx="870" cy="350.1563" fill="none" rx="3" ry="3" style="stroke: #038048; stroke-width: 1.0;"/><text fill="#000000" font-family="sans-serif" font-size="11" lengthAdjust="spacingAndGlyphs" textLength="72" x="879" y="353.3667">payload json</text><ellipse cx="870" cy="362.9609" fill="none" rx="3" ry="3" style="stroke: #038048; stroke-width: 1.0;"/><text fill="#000000" font-family="sans-serif" font-size="11" lengthAdjust="spacingAndGlyphs" textLength="114" x="879" y="366.1714">model_id std::string</text><ellipse cx="870" cy="375.7656" fill="none" rx="3" ry="3" style="stroke: #038048; stroke-width: 1.0;"/><text fill="#000000" font-family="sans-serif" font-size="11" lengthAdjust="spacingAndGlyphs" textLength="231" x="879" y="378.9761">parent_transform transform_instance_id</text><line style="stroke: #A80036; stroke-width: 1.5;" x1="860" x2="1126" y1="385.5703" y2="385.5703"/><!--MD5=[c22a3cf38efc1ba9f733c9630b6c20ab]
class tracing::JsonContent--><rect fill="#E3B6F6" filter="url(#f1vf9k2vx505hk)" height="66.7422" id="tracing::JsonContent" style="stroke: #A80036; stroke-width: 1.5;" width="184" x="1162" y="288.5"/><rect fill="#E3B6F6" height="37.9375" style="stroke: #A80036; stroke-width: 1.5;" width="184" x="1162" y="288.5"/><ellipse cx="1177" cy="307.4688" fill="#ADD1B2" rx="11" ry="11" style="stroke: #A80036; stroke-width: 1.0;"/><path d="M1179.9688,313.1094 Q1179.3906,313.4063 1178.75,313.5547 Q1178.1094,313.7031 1177.4063,313.7031 Q1174.9063,313.7031 1173.5859,312.0547 Q1172.2656,310.4063 1172.2656,307.2813 Q1172.2656,304.1563 1173.5859,302.5 Q1174.9063,300.8438 1177.4063,300.8438 Q1178.1094,300.8438 1178.7578,301 Q1179.4063,301.1563 1179.9688,301.4531 L1179.9688,304.1719 Q1179.3438,303.5938 1178.75,303.3203 Q1178.1563,303.0469 1177.5313,303.0469 Q1176.1875,303.0469 1175.5,304.1172 Q1174.8125,305.1875 1174.8125,307.2813 Q1174.8125,309.375 1175.5,310.4453 Q1176.1875,311.5156 1177.5313,311.5156 Q1178.1563,311.5156 1178.75,311.2422 Q1179.3438,310.9688 1179.9688,310.3906 L1179.9688,313.1094 Z "/><text fill="#000000" font-family="sans-serif" font-size="12" font-style="italic" lengthAdjust="spacingAndGlyphs" textLength="156" x="1189" y="304.6387">«masd::object_template»</text><text fill="#000000" font-family="sans-serif" font-size="12" lengthAdjust="spacingAndGlyphs" textLength="76" x="1229" y="318.6074">JsonContent</text><line style="stroke: #A80036; stroke-width: 1.5;" x1="1163" x2="1345" y1="326.4375" y2="326.4375"/><ellipse cx="1173" cy="337.4375" fill="none" rx="3" ry="3" style="stroke: #038048; stroke-width: 1.0;"/><text fill="#000000" font-family="sans-serif" font-size="11" lengthAdjust="spacingAndGlyphs" textLength="100" x="1182" y="340.6479">json_content json</text><line style="stroke: #A80036; stroke-width: 1.5;" x1="1163" x2="1345" y1="347.2422" y2="347.2422"/><!--MD5=[eda82e0a3a151602023f5398607a074d]
class tracing::log_event--><rect fill="#CCFFE6" filter="url(#f1vf9k2vx505hk)" height="105.1563" id="tracing::log_event" style="stroke: #A80036; stroke-width: 1.5;" width="245" x="1381.5" y="269.5"/><rect fill="#CCFFE6" height="37.9375" style="stroke: #A80036; stroke-width: 1.5;" width="245" x="1381.5" y="269.5"/><ellipse cx="1396.5" cy="288.4688" fill="#ADD1B2" rx="11" ry="11" style="stroke: #A80036; stroke-width: 1.0;"/><path d="M1399.4688,294.1094 Q1398.8906,294.4063 1398.25,294.5547 Q1397.6094,294.7031 1396.9063,294.7031 Q1394.4063,294.7031 1393.0859,293.0547 Q1391.7656,291.4063 1391.7656,288.2813 Q1391.7656,285.1563 1393.0859,283.5 Q1394.4063,281.8438 1396.9063,281.8438 Q1397.6094,281.8438 1398.2578,282 Q1398.9063,282.1563 1399.4688,282.4531 L1399.4688,285.1719 Q1398.8438,284.5938 1398.25,284.3203 Q1397.6563,284.0469 1397.0313,284.0469 Q1395.6875,284.0469 1395,285.1172 Q1394.3125,286.1875 1394.3125,288.2813 Q1394.3125,290.375 1395,291.4453 Q1395.6875,292.5156 1397.0313,292.5156 Q1397.6563,292.5156 1398.25,292.2422 Q1398.8438,291.9688 1399.4688,291.3906 L1399.4688,294.1094 Z "/><text fill="#000000" font-family="sans-serif" font-size="12" font-style="italic" lengthAdjust="spacingAndGlyphs" textLength="217" x="1408.5" y="285.6387">«masd::orm::object, Timestamped»</text><text fill="#000000" font-family="sans-serif" font-size="12" lengthAdjust="spacingAndGlyphs" textLength="60" x="1487" y="299.6074">log_event</text><line style="stroke: #A80036; stroke-width: 1.5;" x1="1382.5" x2="1625.5" y1="307.4375" y2="307.4375"/><ellipse cx="1392.5" cy="318.4375" fill="none" rx="3" ry="3" style="stroke: #038048; stroke-width: 1.0;"/><text fill="#000000" font-family="sans-serif" font-size="11" lengthAdjust="spacingAndGlyphs" textLength="74" x="1401.5" y="321.6479">run_id run_id</text><ellipse cx="1392.5" cy="331.2422" fill="none" rx="3" ry="3" style="stroke: #038048; stroke-width: 1.0;"/><text fill="#000000" font-family="sans-serif" font-size="11" lengthAdjust="spacingAndGlyphs" textLength="126" x="1401.5" y="334.4526">component std::string</text><ellipse cx="1392.5" cy="344.0469" fill="none" rx="3" ry="3" style="stroke: #038048; stroke-width: 1.0;"/><text fill="#000000" font-family="sans-serif" font-size="11" lengthAdjust="spacingAndGlyphs" textLength="108" x="1401.5" y="347.2573">severity std::string</text><ellipse cx="1392.5" cy="356.8516" fill="none" rx="3" ry="3" style="stroke: #038048; stroke-width: 1.0;"/><text fill="#000000" font-family="sans-serif" font-size="11" lengthAdjust="spacingAndGlyphs" textLength="116" x="1401.5" y="360.062">message std::string</text><line style="stroke: #A80036; stroke-width: 1.5;" x1="1382.5" x2="1625.5" y1="366.6563" y2="366.6563"/><!--MD5=[cc08f847bcb52185af24843b2b0db011]
class tracing::transform_type--><rect fill="#F2DAFD" filter="url(#f1vf9k2vx505hk)" height="79.5469" id="tracing::transform_type" style="stroke: #A80036; stroke-width: 1.5;" width="163" x="589.5" y="454"/><rect fill="#F2DAFD" height="37.9375" style="stroke: #A80036; stroke-width: 1.5;" width="163" x="589.5" y="454"/><ellipse cx="604.5" cy="472.9688" fill="#EB937F" rx="11" ry="11" style="stroke: #A80036; stroke-width: 1.0;"/><path d="M608.6094,478.9688 L600.8906,478.9688 L600.8906,466.5781 L608.6094,466.5781 L608.6094,468.7344 L603.3438,468.7344 L603.3438,471.4063 L608.1094,471.4063 L608.1094,473.5625 L603.3438,473.5625 L603.3438,476.8125 L608.6094,476.8125 L608.6094,478.9688 Z "/><text fill="#000000" font-family="sans-serif" font-size="12" font-style="italic" lengthAdjust="spacingAndGlyphs" textLength="135" x="616.5" y="470.1387">«masd::enumeration»</text><text fill="#000000" font-family="sans-serif" font-size="12" lengthAdjust="spacingAndGlyphs" textLength="94" x="637" y="484.1074">transform_type</text><line style="stroke: #A80036; stroke-width: 1.5;" x1="590.5" x2="751.5" y1="491.9375" y2="491.9375"/><ellipse cx="600.5" cy="502.9375" fill="none" rx="3" ry="3" style="stroke: #038048; stroke-width: 1.0;"/><text fill="#000000" font-family="sans-serif" font-size="11" lengthAdjust="spacingAndGlyphs" textLength="30" x="609.5" y="506.1479">chain</text><ellipse cx="600.5" cy="515.7422" fill="none" rx="3" ry="3" style="stroke: #038048; stroke-width: 1.0;"/><text fill="#000000" font-family="sans-serif" font-size="11" lengthAdjust="spacingAndGlyphs" textLength="21" x="609.5" y="518.9526">leaf</text><line style="stroke: #A80036; stroke-width: 1.5;" x1="590.5" x2="751.5" y1="525.5469" y2="525.5469"/><!--MD5=[998cfe381c39fbbf091361229522e442]
class tracing::relational_backend--><rect fill="#FFFACD" filter="url(#f1vf9k2vx505hk)" height="53.9375" id="tracing::relational_backend" style="stroke: #A80036; stroke-width: 1.5;" width="386" x="788" y="467"/><rect fill="#FFFACD" height="37.9375" style="stroke: #A80036; stroke-width: 1.5;" width="386" x="788" y="467"/><ellipse cx="803" cy="485.9688" fill="#ADD1B2" rx="11" ry="11" style="stroke: #A80036; stroke-width: 1.0;"/><path d="M805.9688,491.6094 Q805.3906,491.9063 804.75,492.0547 Q804.1094,492.2031 803.4063,492.2031 Q800.9063,492.2031 799.5859,490.5547 Q798.2656,488.9063 798.2656,485.7813 Q798.2656,482.6563 799.5859,481 Q800.9063,479.3438 803.4063,479.3438 Q804.1094,479.3438 804.7578,479.5 Q805.4063,479.6563 805.9688,479.9531 L805.9688,482.6719 Q805.3438,482.0938 804.75,481.8203 Q804.1563,481.5469 803.5313,481.5469 Q802.1875,481.5469 801.5,482.6172 Q800.8125,483.6875 800.8125,485.7813 Q800.8125,487.875 801.5,488.9453 Q802.1875,490.0156 803.5313,490.0156 Q804.1563,490.0156 804.75,489.7422 Q805.3438,489.4688 805.9688,488.8906 L805.9688,491.6094 Z "/><text fill="#000000" font-family="sans-serif" font-size="12" font-style="italic" lengthAdjust="spacingAndGlyphs" textLength="358" x="815" y="483.1387">«dogen::handcrafted::typeable, dogen::pretty_printable»</text><text fill="#000000" font-family="sans-serif" font-size="12" lengthAdjust="spacingAndGlyphs" textLength="119" x="934.5" y="497.1074">relational_backend</text><line style="stroke: #A80036; stroke-width: 1.5;" x1="789" x2="1173" y1="504.9375" y2="504.9375"/><line style="stroke: #A80036; stroke-width: 1.5;" x1="789" x2="1173" y1="512.9375" y2="512.9375"/><!--MD5=[48ba9f941981239e9e633917ebcf73c9]
class tracing::relational_backend_factory--><rect fill="#FFFACD" filter="url(#f1vf9k2vx505hk)" height="53.9375" id="tracing::relational_backend_factory" style="stroke: #A80036; stroke-width: 1.5;" width="230" x="1209" y="467"/><rect fill="#FFFACD" height="37.9375" style="stroke: #A80036; stroke-width: 1.5;" width="230" x="1209" y="467"/><ellipse cx="1224" cy="485.9688" fill="#ADD1B2" rx="11" ry="11" style="stroke: #A80036; stroke-width: 1.0;"/><path d="M1226.9688,491.6094 Q1226.3906,491.9063 1225.75,492.0547 Q1225.1094,492.2031 1224.4063,492.2031 Q1221.9063,492.2031 1220.5859,490.5547 Q1219.2656,488.9063 1219.2656,485.7813 Q1219.2656,482.6563 1220.5859,481 Q1221.9063,479.3438 1224.4063,479.3438 Q1225.1094,479.3438 1225.7578,479.5 Q1226.4063,479.6563 1226.9688,479.9531 L1226.9688,482.6719 Q1226.3438,482.0938 1225.75,481.8203 Q1225.1563,481.5469 1224.5313,481.5469 Q1223.1875,481.5469 1222.5,482.6172 Q1221.8125,483.6875 1221.8125,485.7813 Q1221.8125,487.875 1222.5,488.9453 Q1223.1875,490.0156 1224.5313,490.0156 Q1225.1563,490.0156 1225.75,489.7422 Q1226.3438,489.4688 1226.9688,488.8906 L1226.9688,491.6094 Z "/><text fill="#000000" font-family="sans-serif" font-size="12" font-style="italic" lengthAdjust="spacingAndGlyphs" textLength="202" x="1236" y="483.1387">«dogen::handcrafted::typeable»</text><text fill="#000000" font-family="sans-serif" font-size="12" lengthAdjust="spacingAndGlyphs" textLength="168" x="1253" y="497.1074">relational_backend_factory</text><line style="stroke: #A80036; stroke-width: 1.5;" x1="1210" x2="1438" y1="504.9375" y2="504.9375"/><line style="stroke: #A80036; stroke-width: 1.5;" x1="1210" x2="1438" y1="512.9375" y2="512.9375"/><!--MD5=[fd76acd57805d97cb8a148c6dddaeb89]
class tracing::transform_instance_id--><rect fill="#B3FFD9" filter="url(#f1vf9k2vx505hk)" height="53.9375" id="tracing::transform_instance_id" style="stroke: #A80036; stroke-width: 1.5;" width="249" x="1474.5" y="467"/><rect fill="#B3FFD9" height="37.9375" style="stroke: #A80036; stroke-width: 1.5;" width="249" x="1474.5" y="467"/><ellipse cx="1489.5" cy="485.9688" fill="#ADD1B2" rx="11" ry="11" style="stroke: #A80036; stroke-width: 1.0;"/><path d="M1492.4688,491.6094 Q1491.8906,491.9063 1491.25,492.0547 Q1490.6094,492.2031 1489.9063,492.2031 Q1487.4063,492.2031 1486.0859,490.5547 Q1484.7656,488.9063 1484.7656,485.7813 Q1484.7656,482.6563 1486.0859,481 Q1487.4063,479.3438 1489.9063,479.3438 Q1490.6094,479.3438 1491.2578,479.5 Q1491.9063,479.6563 1492.4688,479.9531 L1492.4688,482.6719 Q1491.8438,482.0938 1491.25,481.8203 Q1490.6563,481.5469 1490.0313,481.5469 Q1488.6875,481.5469 1488,482.6172 Q1487.3125,483.6875 1487.3125,485.7813 Q1487.3125,487.875 1488,488.9453 Q1488.6875,490.0156 1490.0313,490.0156 Q1490.6563,490.0156 1491.25,489.7422 Q1491.8438,489.4688 1492.4688,488.8906 L1492.4688,491.6094 Z "/><text fill="#000000" font-family="sans-serif" font-size="12" font-style="italic" lengthAdjust="spacingAndGlyphs" textLength="221" x="1501.5" y="483.1387">«masd::orm::value, masd::primitive»</text><text fill="#000000" font-family="sans-serif" font-size="12" lengthAdjust="spacingAndGlyphs" textLength="138" x="1543" y="497.1074">transform_instance_id</text><line style="stroke: #A80036; stroke-width: 1.5;" x1="1475.5" x2="1722.5" y1="504.9375" y2="504.9375"/><line style="stroke: #A80036; stroke-width: 1.5;" x1="1475.5" x2="1722.5" y1="512.9375" y2="512.9375"/><!--MD5=[3c910fa6d6d666bce73332833a752882]
class tracing::event_type--><rect fill="#F2DAFD" filter="url(#f1vf9k2vx505hk)" height="79.5469" id="tracing::event_type" style="stroke: #A80036; stroke-width: 1.5;" width="163" x="589.5" y="594"/><rect fill="#F2DAFD" height="37.9375" style="stroke: #A80036; stroke-width: 1.5;" width="163" x="589.5" y="594"/><ellipse cx="604.5" cy="612.9688" fill="#EB937F" rx="11" ry="11" style="stroke: #A80036; stroke-width: 1.0;"/><path d="M608.6094,618.9688 L600.8906,618.9688 L600.8906,606.5781 L608.6094,606.5781 L608.6094,608.7344 L603.3438,608.7344 L603.3438,611.4063 L608.1094,611.4063 L608.1094,613.5625 L603.3438,613.5625 L603.3438,616.8125 L608.6094,616.8125 L608.6094,618.9688 Z "/><text fill="#000000" font-family="sans-serif" font-size="12" font-style="italic" lengthAdjust="spacingAndGlyphs" textLength="135" x="616.5" y="610.1387">«masd::enumeration»</text><text fill="#000000" font-family="sans-serif" font-size="12" lengthAdjust="spacingAndGlyphs" textLength="68" x="650" y="624.1074">event_type</text><line style="stroke: #A80036; stroke-width: 1.5;" x1="590.5" x2="751.5" y1="631.9375" y2="631.9375"/><ellipse cx="600.5" cy="642.9375" fill="none" rx="3" ry="3" style="stroke: #038048; stroke-width: 1.0;"/><text fill="#000000" font-family="sans-serif" font-size="11" lengthAdjust="spacingAndGlyphs" textLength="27" x="609.5" y="646.1479">start</text><ellipse cx="600.5" cy="655.7422" fill="none" rx="3" ry="3" style="stroke: #038048; stroke-width: 1.0;"/><text fill="#000000" font-family="sans-serif" font-size="11" lengthAdjust="spacingAndGlyphs" textLength="21" x="609.5" y="658.9526">end</text><line style="stroke: #A80036; stroke-width: 1.5;" x1="590.5" x2="751.5" y1="665.5469" y2="665.5469"/><!--MD5=[3a2c8fbd3c212733106576ede5596646]
class tracing::run_event_key--><rect fill="#B3FFD9" filter="url(#f1vf9k2vx505hk)" height="79.5469" id="tracing::run_event_key" style="stroke: #A80036; stroke-width: 1.5;" width="152" x="788" y="594"/><rect fill="#B3FFD9" height="37.9375" style="stroke: #A80036; stroke-width: 1.5;" width="152" x="788" y="594"/><ellipse cx="804.8" cy="612.9688" fill="#ADD1B2" rx="11" ry="11" style="stroke: #A80036; stroke-width: 1.0;"/><path d="M807.7688,618.6094 Q807.1906,618.9063 806.55,619.0547 Q805.9094,619.2031 805.2063,619.2031 Q802.7063,619.2031 801.3859,617.5547 Q800.0656,615.9063 800.0656,612.7813 Q800.0656,609.6563 801.3859,608 Q802.7063,606.3438 805.2063,606.3438 Q805.9094,606.3438 806.5578,606.5 Q807.2063,606.6563 807.7688,606.9531 L807.7688,609.6719 Q807.1438,609.0938 806.55,608.8203 Q805.9563,608.5469 805.3313,608.5469 Q803.9875,608.5469 803.3,609.6172 Q802.6125,610.6875 802.6125,612.7813 Q802.6125,614.875 803.3,615.9453 Q803.9875,617.0156 805.3313,617.0156 Q805.9563,617.0156 806.55,616.7422 Q807.1438,616.4688 807.7688,615.8906 L807.7688,618.6094 Z "/><text fill="#000000" font-family="sans-serif" font-size="12" font-style="italic" lengthAdjust="spacingAndGlyphs" textLength="120" x="817.2" y="610.1387">«masd::orm::value»</text><text fill="#000000" font-family="sans-serif" font-size="12" lengthAdjust="spacingAndGlyphs" textLength="89" x="832.7" y="624.1074">run_event_key</text><line style="stroke: #A80036; stroke-width: 1.5;" x1="789" x2="939" y1="631.9375" y2="631.9375"/><ellipse cx="799" cy="642.9375" fill="none" rx="3" ry="3" style="stroke: #038048; stroke-width: 1.0;"/><text fill="#000000" font-family="sans-serif" font-size="11" lengthAdjust="spacingAndGlyphs" textLength="74" x="808" y="646.1479">run_id run_id</text><ellipse cx="799" cy="655.7422" fill="none" rx="3" ry="3" style="stroke: #038048; stroke-width: 1.0;"/><text fill="#000000" font-family="sans-serif" font-size="11" lengthAdjust="spacingAndGlyphs" textLength="126" x="808" y="658.9526">event_type event_type</text><line style="stroke: #A80036; stroke-width: 1.5;" x1="789" x2="939" y1="665.5469" y2="665.5469"/><!--MD5=[0953f7447f4afd6a1c149dbd5ab4392a]
class tracing::transform_event_key--><rect fill="#B3FFD9" filter="url(#f1vf9k2vx505hk)" height="79.5469" id="tracing::transform_event_key" style="stroke: #A80036; stroke-width: 1.5;" width="284" x="975" y="594"/><rect fill="#B3FFD9" height="37.9375" style="stroke: #A80036; stroke-width: 1.5;" width="284" x="975" y="594"/><ellipse cx="1048.25" cy="612.9688" fill="#ADD1B2" rx="11" ry="11" style="stroke: #A80036; stroke-width: 1.0;"/><path d="M1051.2188,618.6094 Q1050.6406,618.9063 1050,619.0547 Q1049.3594,619.2031 1048.6563,619.2031 Q1046.1563,619.2031 1044.8359,617.5547 Q1043.5156,615.9063 1043.5156,612.7813 Q1043.5156,609.6563 1044.8359,608 Q1046.1563,606.3438 1048.6563,606.3438 Q1049.3594,606.3438 1050.0078,606.5 Q1050.6563,606.6563 1051.2188,606.9531 L1051.2188,609.6719 Q1050.5938,609.0938 1050,608.8203 Q1049.4063,608.5469 1048.7813,608.5469 Q1047.4375,608.5469 1046.75,609.6172 Q1046.0625,610.6875 1046.0625,612.7813 Q1046.0625,614.875 1046.75,615.9453 Q1047.4375,617.0156 1048.7813,617.0156 Q1049.4063,617.0156 1050,616.7422 Q1050.5938,616.4688 1051.2188,615.8906 L1051.2188,618.6094 Z "/><text fill="#000000" font-family="sans-serif" font-size="12" font-style="italic" lengthAdjust="spacingAndGlyphs" textLength="120" x="1073.25" y="610.1387">«masd::orm::value»</text><text fill="#000000" font-family="sans-serif" font-size="12" lengthAdjust="spacingAndGlyphs" textLength="129" x="1068.75" y="624.1074">transform_event_key</text><line style="stroke: #A80036; stroke-width: 1.5;" x1="976" x2="1258" y1="631.9375" y2="631.9375"/><ellipse cx="986" cy="642.9375" fill="none" rx="3" ry="3" style="stroke: #038048; stroke-width: 1.0;"/><text fill="#000000" font-family="sans-serif" font-size="11" lengthAdjust="spacingAndGlyphs" textLength="258" x="995" y="646.1479">transform_instance_id transform_instance_id</text><ellipse cx="986" cy="655.7422" fill="none" rx="3" ry="3" style="stroke: #038048; stroke-width: 1.0;"/><text fill="#000000" font-family="sans-serif" font-size="11" lengthAdjust="spacingAndGlyphs" textLength="126" x="995" y="658.9526">event_type event_type</text><line style="stroke: #A80036; stroke-width: 1.5;" x1="976" x2="1258" y1="665.5469" y2="665.5469"/><!--MD5=[a79e23a479d73d4adee318db61dffcc4]
class tracing::log_backend--><rect fill="#FFFACD" filter="url(#f1vf9k2vx505hk)" height="53.9375" id="tracing::log_backend" style="stroke: #A80036; stroke-width: 1.5;" width="230" x="1294" y="607"/><rect fill="#FFFACD" height="37.9375" style="stroke: #A80036; stroke-width: 1.5;" width="230" x="1294" y="607"/><ellipse cx="1309" cy="625.9688" fill="#ADD1B2" rx="11" ry="11" style="stroke: #A80036; stroke-width: 1.0;"/><path d="M1311.9688,631.6094 Q1311.3906,631.9063 1310.75,632.0547 Q1310.1094,632.2031 1309.4063,632.2031 Q1306.9063,632.2031 1305.5859,630.5547 Q1304.2656,628.9063 1304.2656,625.7813 Q1304.2656,622.6563 1305.5859,621 Q1306.9063,619.3438 1309.4063,619.3438 Q1310.1094,619.3438 1310.7578,619.5 Q1311.4063,619.6563 1311.9688,619.9531 L1311.9688,622.6719 Q1311.3438,622.0938 1310.75,621.8203 Q1310.1563,621.5469 1309.5313,621.5469 Q1308.1875,621.5469 1307.5,622.6172 Q1306.8125,623.6875 1306.8125,625.7813 Q1306.8125,627.875 1307.5,628.9453 Q1308.1875,630.0156 1309.5313,630.0156 Q1310.1563,630.0156 1310.75,629.7422 Q1311.3438,629.4688 1311.9688,628.8906 L1311.9688,631.6094 Z "/><text fill="#000000" font-family="sans-serif" font-size="12" font-style="italic" lengthAdjust="spacingAndGlyphs" textLength="202" x="1321" y="623.1387">«dogen::handcrafted::typeable»</text><text fill="#000000" font-family="sans-serif" font-size="12" lengthAdjust="spacingAndGlyphs" textLength="79" x="1382.5" y="637.1074">log_backend</text><line style="stroke: #A80036; stroke-width: 1.5;" x1="1295" x2="1523" y1="644.9375" y2="644.9375"/><line style="stroke: #A80036; stroke-width: 1.5;" x1="1295" x2="1523" y1="652.9375" y2="652.9375"/><!--MD5=[d54e5852ecfe164bbba509d3a9352ed8]
class initializer--><rect fill="#FFFACD" filter="url(#f1vf9k2vx505hk)" height="53.9375" id="initializer" style="stroke: #A80036; stroke-width: 1.5;" width="230" x="16" y="97.5"/><rect fill="#FFFACD" height="37.9375" style="stroke: #A80036; stroke-width: 1.5;" width="230" x="16" y="97.5"/><ellipse cx="31" cy="116.4688" fill="#ADD1B2" rx="11" ry="11" style="stroke: #A80036; stroke-width: 1.0;"/><path d="M33.9688,122.1094 Q33.3906,122.4063 32.75,122.5547 Q32.1094,122.7031 31.4063,122.7031 Q28.9063,122.7031 27.5859,121.0547 Q26.2656,119.4063 26.2656,116.2813 Q26.2656,113.1563 27.5859,111.5 Q28.9063,109.8438 31.4063,109.8438 Q32.1094,109.8438 32.7578,110 Q33.4063,110.1563 33.9688,110.4531 L33.9688,113.1719 Q33.3438,112.5938 32.75,112.3203 Q32.1563,112.0469 31.5313,112.0469 Q30.1875,112.0469 29.5,113.1172 Q28.8125,114.1875 28.8125,116.2813 Q28.8125,118.375 29.5,119.4453 Q30.1875,120.5156 31.5313,120.5156 Q32.1563,120.5156 32.75,120.2422 Q33.3438,119.9688 33.9688,119.3906 L33.9688,122.1094 Z "/><text fill="#000000" font-family="sans-serif" font-size="12" font-style="italic" lengthAdjust="spacingAndGlyphs" textLength="202" x="43" y="113.6387">«dogen::handcrafted::typeable»</text><text fill="#000000" font-family="sans-serif" font-size="12" lengthAdjust="spacingAndGlyphs" textLength="54" x="117" y="127.6074">initializer</text><line style="stroke: #A80036; stroke-width: 1.5;" x1="17" x2="245" y1="135.4375" y2="135.4375"/><line style="stroke: #A80036; stroke-width: 1.5;" x1="17" x2="245" y1="143.4375" y2="143.4375"/><!--MD5=[4520fda4e10d4d791ce48fe025810cd4]
class main--><rect fill="#DDA9F3" filter="url(#f1vf9k2vx505hk)" height="53.9375" id="main" style="stroke: #A80036; stroke-width: 1.5;" width="273" x="281.5" y="97.5"/><rect fill="#DDA9F3" height="37.9375" style="stroke: #A80036; stroke-width: 1.5;" width="273" x="281.5" y="97.5"/><ellipse cx="296.5" cy="116.4688" fill="#ADD1B2" rx="11" ry="11" style="stroke: #A80036; stroke-width: 1.0;"/><path d="M299.4688,122.1094 Q298.8906,122.4063 298.25,122.5547 Q297.6094,122.7031 296.9063,122.7031 Q294.4063,122.7031 293.0859,121.0547 Q291.7656,119.4063 291.7656,116.2813 Q291.7656,113.1563 293.0859,111.5 Q294.4063,109.8438 296.9063,109.8438 Q297.6094,109.8438 298.2578,110 Q298.9063,110.1563 299.4688,110.4531 L299.4688,113.1719 Q298.8438,112.5938 298.25,112.3203 Q297.6563,112.0469 297.0313,112.0469 Q295.6875,112.0469 295,113.1172 Q294.3125,114.1875 294.3125,116.2813 Q294.3125,118.375 295,119.4453 Q295.6875,120.5156 297.0313,120.5156 Q297.6563,120.5156 298.25,120.2422 Q298.8438,119.9688 299.4688,119.3906 L299.4688,122.1094 Z "/><text fill="#000000" font-family="sans-serif" font-size="12" font-style="italic" lengthAdjust="spacingAndGlyphs" textLength="245" x="308.5" y="113.6387">«masd::entry_point, dogen::untypable»</text><text fill="#000000" font-family="sans-serif" font-size="12" lengthAdjust="spacingAndGlyphs" textLength="30" x="416" y="127.6074">main</text><line style="stroke: #A80036; stroke-width: 1.5;" x1="282.5" x2="553.5" y1="135.4375" y2="135.4375"/><line style="stroke: #A80036; stroke-width: 1.5;" x1="282.5" x2="553.5" y1="143.4375" y2="143.4375"/><!--MD5=[307bf395be6ddcf552367f8e4d14c618]
class common--><rect fill="#80FFBF" filter="url(#f1vf9k2vx505hk)" height="53.9375" id="common" style="stroke: #A80036; stroke-width: 1.5;" width="250" x="6" y="295"/><rect fill="#80FFBF" height="37.9375" style="stroke: #A80036; stroke-width: 1.5;" width="250" x="6" y="295"/><ellipse cx="21" cy="313.9688" fill="#ADD1B2" rx="11" ry="11" style="stroke: #A80036; stroke-width: 1.0;"/><path d="M23.9688,319.6094 Q23.3906,319.9063 22.75,320.0547 Q22.1094,320.2031 21.4063,320.2031 Q18.9063,320.2031 17.5859,318.5547 Q16.2656,316.9063 16.2656,313.7813 Q16.2656,310.6563 17.5859,309 Q18.9063,307.3438 21.4063,307.3438 Q22.1094,307.3438 22.7578,307.5 Q23.4063,307.6563 23.9688,307.9531 L23.9688,310.6719 Q23.3438,310.0938 22.75,309.8203 Q22.1563,309.5469 21.5313,309.5469 Q20.1875,309.5469 19.5,310.6172 Q18.8125,311.6875 18.8125,313.7813 Q18.8125,315.875 19.5,316.9453 Q20.1875,318.0156 21.5313,318.0156 Q22.1563,318.0156 22.75,317.7422 Q23.3438,317.4688 23.9688,316.8906 L23.9688,319.6094 Z "/><text fill="#000000" font-family="sans-serif" font-size="12" font-style="italic" lengthAdjust="spacingAndGlyphs" textLength="222" x="33" y="311.1387">«masd::orm::common_odb_options»</text><text fill="#000000" font-family="sans-serif" font-size="12" lengthAdjust="spacingAndGlyphs" textLength="53" x="117.5" y="325.1074">common</text><line style="stroke: #A80036; stroke-width: 1.5;" x1="7" x2="255" y1="332.9375" y2="332.9375"/><line style="stroke: #A80036; stroke-width: 1.5;" x1="7" x2="255" y1="340.9375" y2="340.9375"/><!--MD5=[ba83386d426114557685538e96aa6f68]
class CMakeLists--><rect fill="#99CB99" filter="url(#f1vf9k2vx505hk)" height="53.9375" id="CMakeLists" style="stroke: #A80036; stroke-width: 1.5;" width="185" x="291.5" y="295"/><rect fill="#99CB99" height="37.9375" style="stroke: #A80036; stroke-width: 1.5;" width="185" x="291.5" y="295"/><ellipse cx="306.5" cy="313.9688" fill="#ADD1B2" rx="11" ry="11" style="stroke: #A80036; stroke-width: 1.0;"/><path d="M309.4688,319.6094 Q308.8906,319.9063 308.25,320.0547 Q307.6094,320.2031 306.9063,320.2031 Q304.4063,320.2031 303.0859,318.5547 Q301.7656,316.9063 301.7656,313.7813 Q301.7656,310.6563 303.0859,309 Q304.4063,307.3438 306.9063,307.3438 Q307.6094,307.3438 308.2578,307.5 Q308.9063,307.6563 309.4688,307.9531 L309.4688,310.6719 Q308.8438,310.0938 308.25,309.8203 Q307.6563,309.5469 307.0313,309.5469 Q305.6875,309.5469 305,310.6172 Q304.3125,311.6875 304.3125,313.7813 Q304.3125,315.875 305,316.9453 Q305.6875,318.0156 307.0313,318.0156 Q307.6563,318.0156 308.25,317.7422 Q308.8438,317.4688 309.4688,316.8906 L309.4688,319.6094 Z "/><text fill="#000000" font-family="sans-serif" font-size="12" font-style="italic" lengthAdjust="spacingAndGlyphs" textLength="157" x="318.5" y="311.1387">«masd::build::cmakelists»</text><text fill="#000000" font-family="sans-serif" font-size="12" lengthAdjust="spacingAndGlyphs" textLength="69" x="362.5" y="325.1074">CMakeLists</text><line style="stroke: #A80036; stroke-width: 1.5;" x1="292.5" x2="475.5" y1="332.9375" y2="332.9375"/><line style="stroke: #A80036; stroke-width: 1.5;" x1="292.5" x2="475.5" y1="340.9375" y2="340.9375"/><!--MD5=[5653eca4263751759b7327e12ef7a0aa]
link initializer to main--><!--MD5=[2751611b1146a6b0eb4b6bdec64ed03e]
link initializer to common--><!--MD5=[94b1f6d5d24c4324bea4263dc7701f9d]
link common to CMakeLists--><!--MD5=[932837353da6da89304ddca35723c27c]
link tracing::run_event to tracing::run_id--><!--MD5=[4c2711e3aa3d758f84dfb09d84551396]
link tracing::run_id to tracing::json--><!--MD5=[e8a4c7750da296c9f61a018b31d51b57]
link tracing::json to tracing::transform_id--><!--MD5=[5fa60f0047ea46dbe61ea95d1fd3db02]
link tracing::run_event to tracing::Timestamped--><!--MD5=[1b6bf6690e2689082a5b4ac7ec4592d1]
link tracing::Timestamped to tracing::transform_event--><!--MD5=[2f33bdc7831aac2b8da65923d4544f1e]
link tracing::transform_event to tracing::JsonContent--><!--MD5=[9651485bb7e80e0d5af505cf4fd96f02]
link tracing::JsonContent to tracing::log_event--><!--MD5=[943e63bafcca615a2e56b514b1a97c74]
link tracing::Timestamped to tracing::transform_type--><!--MD5=[2752b4fc5b51db54d2ec626fcf8db9bc]
link tracing::transform_type to tracing::relational_backend--><!--MD5=[d88d539f3daa04b0b4ff45b4f7a4bc98]
link tracing::relational_backend to tracing::relational_backend_factory--><!--MD5=[8bd1a3b7038aa66c9760682b29f4b05b]
link tracing::relational_backend_factory to tracing::transform_instance_id--><!--MD5=[dbcf2d260a627871a581f4cfc1206028]
link tracing::transform_type to tracing::event_type--><!--MD5=[b652ca1dd86dab2bd3c5605c585fb92d]
link tracing::event_type to tracing::run_event_key--><!--MD5=[797bccc16aa6863989f7d0fca2a5cde3]
link tracing::run_event_key to tracing::transform_event_key--><!--MD5=[c2feb2684abecc784c02199ba4900923]
link tracing::transform_event_key to tracing::log_backend--><!--MD5=[2a6fcebc6d2d3f1851ebdb7d0ede6c1a]
@startuml
set namespaceSeparator ::
namespace tracing #F2F2F2 {
        class run_event <<masd::orm::object, Timestamped>> #CCFFE6 {
                +{field} run_event_key run_event_key
                +{field} version std::string
                +{field} payload json
                +{field} activity std::string
                +{field} logging_impact std::string
                +{field} tracing_impact std::string
}

        class run_id <<masd::orm::value, masd::primitive>> #B3FFD9 {
}

        class json <<masd::orm::value, masd::primitive>> #B3FFD9 {
}

        class transform_id <<masd::orm::value, masd::primitive>> #B3FFD9 {
}

        class Timestamped <<masd::object_template>> #E3B6F6 {
                +{field} timestamp boost::posix_time::ptime
}

        class transform_event <<masd::orm::object, Timestamped>> #CCFFE6 {
                +{field} transform_event_key transform_event_key
                +{field} run_id run_id
                +{field} transform_type transform_type
                +{field} transform_id transform_id
                +{field} payload json
                +{field} model_id std::string
                +{field} parent_transform transform_instance_id
}

        class JsonContent <<masd::object_template>> #E3B6F6 {
                +{field} json_content json
}

        class log_event <<masd::orm::object, Timestamped>> #CCFFE6 {
                +{field} run_id run_id
                +{field} component std::string
                +{field} severity std::string
                +{field} message std::string
}

        enum transform_type <<masd::enumeration>> #F2DAFD {
                +{field} chain
                +{field} leaf
}

        class relational_backend <<dogen::handcrafted::typeable, dogen::pretty_printable>> #FFFACD {
}

        class relational_backend_factory <<dogen::handcrafted::typeable>> #FFFACD {
}

        class transform_instance_id <<masd::orm::value, masd::primitive>> #B3FFD9 {
}

        enum event_type <<masd::enumeration>> #F2DAFD {
                +{field} start
                +{field} end
}

        class run_event_key <<masd::orm::value>> #B3FFD9 {
                +{field} run_id run_id
                +{field} event_type event_type
}

        class transform_event_key <<masd::orm::value>> #B3FFD9 {
                +{field} transform_instance_id transform_instance_id
                +{field} event_type event_type
}

        class log_backend <<dogen::handcrafted::typeable>> #FFFACD {
}

}

class initializer <<dogen::handcrafted::typeable>> #FFFACD {
}

class main <<masd::entry_point, dogen::untypable>> #DDA9F3 {
}

class common <<masd::orm::common_odb_options>> #80FFBF {
}

class CMakeLists <<masd::build::cmakelists>> #99CB99 {
}

@enduml

PlantUML version 1.2020.02(Sun Mar 01 10:22:07 GMT 2020)
(GPL source distribution)
Java Runtime: OpenJDK Runtime Environment
JVM: OpenJDK 64-Bit Server VM
Java Version: 1.8.0_212-8u212-b03-2~deb9u1-b03
Operating System: Linux
Default Encoding: UTF-8
Language: en
Country: GB
--></g></svg>