<?xml version="1.0" encoding="UTF-8" standalone="no"?><svg xmlns="http://www.w3.org/2000/svg" xmlns:xlink="http://www.w3.org/1999/xlink" contentStyleType="text/css" height="531px" preserveAspectRatio="none" style="width:6744px;height:531px;background:#FFFFFF;" version="1.1" viewBox="0 0 6744 531" width="6744px" zoomAndPan="magnify"><defs/><g><g id="elem_N1"><path d="M6,33 L6,118.6641 L343,118.6641 L343,43 L333,33 L6,33 " fill="#FEFFDD" style="stroke:#181818;stroke-width:0.5;"/><path d="M333,33 L333,43 L343,43 L333,33 " fill="#FEFFDD" style="stroke:#181818;stroke-width:1.0;"/><text fill="#000000" font-family="sans-serif" font-size="13" lengthAdjust="spacing" textLength="316" x="12" y="50.0669">Provides the top-level API for the dogen product.</text><text fill="#000000" font-family="sans-serif" font-size="13" lengthAdjust="spacing" textLength="4" x="12" y="65.1997"> </text><text fill="#000000" font-family="sans-serif" font-size="13" lengthAdjust="spacing" textLength="131" x="12" y="80.3325">UML representation:</text><text fill="#000000" font-family="sans-serif" font-size="13" lengthAdjust="spacing" textLength="4" x="12" y="95.4653"> </text><text fill="#000000" font-family="sans-serif" font-size="13" lengthAdjust="spacing" textLength="259" x="12" y="110.5981">\image html dogen/modeling/dogen.svg</text></g><!--MD5=[5bbd3befcf1686b7fd148cc582657d1c]
class configuration--><g id="elem_configuration"><rect codeLine="10" fill="#F7E5FF" height="137.75" id="configuration" rx="2.5" ry="2.5" style="stroke:#181818;stroke-width:0.5;" width="395" x="378" y="7"/><ellipse cx="523.75" cy="27.1328" fill="#ADD1B2" rx="11" ry="11" style="stroke:#181818;stroke-width:1.0;"/><path d="M526.7188,32.7734 Q526.1406,33.0703 525.5,33.2188 Q524.8594,33.3672 524.1563,33.3672 Q521.6563,33.3672 520.3359,31.7188 Q519.0156,30.0703 519.0156,26.9453 Q519.0156,23.8203 520.3359,22.1641 Q521.6563,20.5078 524.1563,20.5078 Q524.8594,20.5078 525.5078,20.6641 Q526.1563,20.8203 526.7188,21.1172 L526.7188,23.8359 Q526.0938,23.2578 525.5,22.9844 Q524.9063,22.7109 524.2813,22.7109 Q522.9375,22.7109 522.25,23.7813 Q521.5625,24.8516 521.5625,26.9453 Q521.5625,29.0391 522.25,30.1094 Q522.9375,31.1797 524.2813,31.1797 Q524.9063,31.1797 525.5,30.9063 Q526.0938,30.6328 526.7188,30.0547 L526.7188,32.7734 Z " fill="#000000"/><text fill="#000000" font-family="sans-serif" font-size="12" font-style="italic" lengthAdjust="spacing" textLength="90" x="546.75" y="23.1387">«masd::fluent»</text><text fill="#000000" font-family="sans-serif" font-size="14" lengthAdjust="spacing" textLength="95" x="544.25" y="38.9639">configuration</text><line style="stroke:#181818;stroke-width:0.5;" x1="379" x2="772" y1="47.2656" y2="47.2656"/><ellipse cx="389" cy="58.2656" fill="none" rx="3" ry="3" style="stroke:#038048;stroke-width:1.0;"/><text fill="#000000" font-family="sans-serif" font-size="14" lengthAdjust="spacing" textLength="364" x="398" y="64.2607">model_processing model_processing_configuration</text><ellipse cx="389" cy="74.5625" fill="none" rx="3" ry="3" style="stroke:#038048;stroke-width:1.0;"/><text fill="#000000" font-family="sans-serif" font-size="14" lengthAdjust="spacing" textLength="337" x="398" y="80.5576">tracing boost::optional&lt;tracing_configuration&gt;</text><ellipse cx="389" cy="90.8594" fill="none" rx="3" ry="3" style="stroke:#038048;stroke-width:1.0;"/><text fill="#000000" font-family="sans-serif" font-size="14" lengthAdjust="spacing" textLength="327" x="398" y="96.8545">diffing boost::optional&lt;diffing_configuration&gt;</text><ellipse cx="389" cy="107.1563" fill="none" rx="3" ry="3" style="stroke:#038048;stroke-width:1.0;"/><text fill="#000000" font-family="sans-serif" font-size="14" lengthAdjust="spacing" textLength="369" x="398" y="113.1514">reporting boost::optional&lt;reporting_configuration&gt;</text><ellipse cx="389" cy="123.4531" fill="none" rx="3" ry="3" style="stroke:#038048;stroke-width:1.0;"/><text fill="#000000" font-family="sans-serif" font-size="14" lengthAdjust="spacing" textLength="310" x="398" y="129.4482">byproduct_directory boost::filesystem::path</text><line style="stroke:#181818;stroke-width:0.5;" x1="379" x2="772" y1="136.75" y2="136.75"/></g><!--MD5=[6ef6e6f5bfa60dc33b4fd4304d690815]
class tracing_level--><g id="elem_tracing_level"><rect codeLine="18" fill="#F2DAFD" height="88.8594" id="tracing_level" rx="2.5" ry="2.5" style="stroke:#181818;stroke-width:0.5;" width="160" x="1474.5" y="262"/><ellipse cx="1489.5" cy="282.1328" fill="#EB937F" rx="11" ry="11" style="stroke:#181818;stroke-width:1.0;"/><path d="M1493.6094,288.1328 L1485.8906,288.1328 L1485.8906,275.7422 L1493.6094,275.7422 L1493.6094,277.8984 L1488.3438,277.8984 L1488.3438,280.5703 L1493.1094,280.5703 L1493.1094,282.7266 L1488.3438,282.7266 L1488.3438,285.9766 L1493.6094,285.9766 L1493.6094,288.1328 Z " fill="#000000"/><text fill="#000000" font-family="sans-serif" font-size="12" font-style="italic" lengthAdjust="spacing" textLength="132" x="1501.5" y="278.1387">«masd::enumeration»</text><text fill="#000000" font-family="sans-serif" font-size="14" lengthAdjust="spacing" textLength="91" x="1522" y="293.9639">tracing_level</text><line style="stroke:#181818;stroke-width:0.5;" x1="1475.5" x2="1633.5" y1="302.2656" y2="302.2656"/><ellipse cx="1485.5" cy="313.2656" fill="none" rx="3" ry="3" style="stroke:#038048;stroke-width:1.0;"/><text fill="#000000" font-family="sans-serif" font-size="14" lengthAdjust="spacing" textLength="40" x="1494.5" y="319.2607">detail</text><ellipse cx="1485.5" cy="329.5625" fill="none" rx="3" ry="3" style="stroke:#038048;stroke-width:1.0;"/><text fill="#000000" font-family="sans-serif" font-size="14" lengthAdjust="spacing" textLength="67" x="1494.5" y="335.5576">summary</text><line style="stroke:#181818;stroke-width:0.5;" x1="1475.5" x2="1633.5" y1="342.8594" y2="342.8594"/></g><g id="elem_GMN5"><path d="M1404,63.5 L1404,88.6328 A0,0 0 0 0 1404,88.6328 L1550.5,88.6328 L1554.5,261.82 L1558.5,88.6328 L1705,88.6328 A0,0 0 0 0 1705,88.6328 L1705,73.5 L1695,63.5 L1404,63.5 A0,0 0 0 0 1404,63.5 " fill="#FEFFDD" style="stroke:#181818;stroke-width:0.5;"/><path d="M1695,63.5 L1695,73.5 L1705,73.5 L1695,63.5 " fill="#FEFFDD" style="stroke:#181818;stroke-width:0.5;"/><text fill="#000000" font-family="sans-serif" font-size="13" lengthAdjust="spacing" textLength="280" x="1410" y="80.5669">Available levels for tracing transformation.</text></g><!--MD5=[879ec89498f3df0483a1f05c19e8a8fc]
class tracing_configuration--><g id="elem_tracing_configuration"><rect codeLine="27" fill="#F7E5FF" height="202.9375" id="tracing_configuration" rx="2.5" ry="2.5" style="stroke:#181818;stroke-width:0.5;" width="310" x="1733.5" y="205"/><ellipse cx="1808.25" cy="225.1328" fill="#ADD1B2" rx="11" ry="11" style="stroke:#181818;stroke-width:1.0;"/><path d="M1811.2188,230.7734 Q1810.6406,231.0703 1810,231.2188 Q1809.3594,231.3672 1808.6563,231.3672 Q1806.1563,231.3672 1804.8359,229.7188 Q1803.5156,228.0703 1803.5156,224.9453 Q1803.5156,221.8203 1804.8359,220.1641 Q1806.1563,218.5078 1808.6563,218.5078 Q1809.3594,218.5078 1810.0078,218.6641 Q1810.6563,218.8203 1811.2188,219.1172 L1811.2188,221.8359 Q1810.5938,221.2578 1810,220.9844 Q1809.4063,220.7109 1808.7813,220.7109 Q1807.4375,220.7109 1806.75,221.7813 Q1806.0625,222.8516 1806.0625,224.9453 Q1806.0625,227.0391 1806.75,228.1094 Q1807.4375,229.1797 1808.7813,229.1797 Q1809.4063,229.1797 1810,228.9063 Q1810.5938,228.6328 1811.2188,228.0547 L1811.2188,230.7734 Z " fill="#000000"/><text fill="#000000" font-family="sans-serif" font-size="12" font-style="italic" lengthAdjust="spacing" textLength="90" x="1859.75" y="221.1387">«masd::fluent»</text><text fill="#000000" font-family="sans-serif" font-size="14" lengthAdjust="spacing" textLength="152" x="1828.75" y="236.9639">tracing_configuration</text><line style="stroke:#181818;stroke-width:0.5;" x1="1734.5" x2="2042.5" y1="245.2656" y2="245.2656"/><ellipse cx="1744.5" cy="256.2656" fill="none" rx="3" ry="3" style="stroke:#038048;stroke-width:1.0;"/><text fill="#000000" font-family="sans-serif" font-size="14" lengthAdjust="spacing" textLength="129" x="1753.5" y="262.2607">level tracing_level</text><ellipse cx="1744.5" cy="272.5625" fill="none" rx="3" ry="3" style="stroke:#038048;stroke-width:1.0;"/><text fill="#000000" font-family="sans-serif" font-size="14" lengthAdjust="spacing" textLength="157" x="1753.5" y="278.5576">format tracing_format</text><ellipse cx="1744.5" cy="288.8594" fill="none" rx="3" ry="3" style="stroke:#038048;stroke-width:1.0;"/><text fill="#000000" font-family="sans-serif" font-size="14" lengthAdjust="spacing" textLength="138" x="1753.5" y="294.8545">guids_enabled bool</text><ellipse cx="1744.5" cy="305.1563" fill="none" rx="3" ry="3" style="stroke:#038048;stroke-width:1.0;"/><text fill="#000000" font-family="sans-serif" font-size="14" lengthAdjust="spacing" textLength="184" x="1753.5" y="311.1514">logging_impact std::string</text><ellipse cx="1744.5" cy="321.4531" fill="none" rx="3" ry="3" style="stroke:#038048;stroke-width:1.0;"/><text fill="#000000" font-family="sans-serif" font-size="14" lengthAdjust="spacing" textLength="158" x="1753.5" y="327.4482">use_short_names bool</text><ellipse cx="1744.5" cy="337.75" fill="none" rx="3" ry="3" style="stroke:#038048;stroke-width:1.0;"/><text fill="#000000" font-family="sans-serif" font-size="14" lengthAdjust="spacing" textLength="284" x="1753.5" y="343.7451">output_directory boost::filesystem::path</text><ellipse cx="1744.5" cy="354.0469" fill="none" rx="3" ry="3" style="stroke:#038048;stroke-width:1.0;"/><text fill="#000000" font-family="sans-serif" font-size="14" lengthAdjust="spacing" textLength="183" x="1753.5" y="360.042">backend tracing_backend</text><ellipse cx="1744.5" cy="370.3438" fill="none" rx="3" ry="3" style="stroke:#038048;stroke-width:1.0;"/><text fill="#000000" font-family="sans-serif" font-size="14" lengthAdjust="spacing" textLength="119" x="1753.5" y="376.3389">run_id std::string</text><ellipse cx="1744.5" cy="386.6406" fill="none" rx="3" ry="3" style="stroke:#038048;stroke-width:1.0;"/><text fill="#000000" font-family="sans-serif" font-size="14" lengthAdjust="spacing" textLength="272" x="1753.5" y="392.6357">filter_regexes std::vector&lt;std::string&gt;</text><line style="stroke:#181818;stroke-width:0.5;" x1="1734.5" x2="2042.5" y1="399.9375" y2="399.9375"/></g><g id="elem_GMN9"><path d="M1740,63.5 L1740,88.6328 A0,0 0 0 0 1740,88.6328 L1884.5,88.6328 L1888.5,204.83 L1892.5,88.6328 L2037,88.6328 A0,0 0 0 0 2037,88.6328 L2037,73.5 L2027,63.5 L1740,63.5 A0,0 0 0 0 1740,63.5 " fill="#FEFFDD" style="stroke:#181818;stroke-width:0.5;"/><path d="M2027,63.5 L2027,73.5 L2037,73.5 L2027,63.5 " fill="#FEFFDD" style="stroke:#181818;stroke-width:0.5;"/><text fill="#000000" font-family="sans-serif" font-size="13" lengthAdjust="spacing" textLength="276" x="1746" y="80.5669">Configuration related to transform tracing.</text></g><!--MD5=[d851c768f5429fdbc6ef6c5b1bdbee95]
class tracing_format--><g id="elem_tracing_format"><rect codeLine="43" fill="#F2DAFD" height="105.1563" id="tracing_format" rx="2.5" ry="2.5" style="stroke:#181818;stroke-width:0.5;" width="160" x="2152.5" y="254"/><ellipse cx="2167.5" cy="274.1328" fill="#EB937F" rx="11" ry="11" style="stroke:#181818;stroke-width:1.0;"/><path d="M2171.6094,280.1328 L2163.8906,280.1328 L2163.8906,267.7422 L2171.6094,267.7422 L2171.6094,269.8984 L2166.3438,269.8984 L2166.3438,272.5703 L2171.1094,272.5703 L2171.1094,274.7266 L2166.3438,274.7266 L2166.3438,277.9766 L2171.6094,277.9766 L2171.6094,280.1328 Z " fill="#000000"/><text fill="#000000" font-family="sans-serif" font-size="12" font-style="italic" lengthAdjust="spacing" textLength="132" x="2179.5" y="270.1387">«masd::enumeration»</text><text fill="#000000" font-family="sans-serif" font-size="14" lengthAdjust="spacing" textLength="105" x="2193" y="285.9639">tracing_format</text><line style="stroke:#181818;stroke-width:0.5;" x1="2153.5" x2="2311.5" y1="294.2656" y2="294.2656"/><ellipse cx="2163.5" cy="305.2656" fill="none" rx="3" ry="3" style="stroke:#038048;stroke-width:1.0;"/><text fill="#000000" font-family="sans-serif" font-size="14" lengthAdjust="spacing" textLength="35" x="2172.5" y="311.2607">plain</text><ellipse cx="2163.5" cy="321.5625" fill="none" rx="3" ry="3" style="stroke:#038048;stroke-width:1.0;"/><text fill="#000000" font-family="sans-serif" font-size="14" lengthAdjust="spacing" textLength="72" x="2172.5" y="327.5576">org_mode</text><ellipse cx="2163.5" cy="337.8594" fill="none" rx="3" ry="3" style="stroke:#038048;stroke-width:1.0;"/><text fill="#000000" font-family="sans-serif" font-size="14" lengthAdjust="spacing" textLength="61" x="2172.5" y="343.8545">graphviz</text><line style="stroke:#181818;stroke-width:0.5;" x1="2153.5" x2="2311.5" y1="351.1563" y2="351.1563"/></g><g id="elem_GMN13"><path d="M2072.5,63.5 L2072.5,88.6328 A0,0 0 0 0 2072.5,88.6328 L2228.5,88.6328 L2232.5,253.66 L2236.5,88.6328 L2392.5,88.6328 A0,0 0 0 0 2392.5,88.6328 L2392.5,73.5 L2382.5,63.5 L2072.5,63.5 A0,0 0 0 0 2072.5,63.5 " fill="#FEFFDD" style="stroke:#181818;stroke-width:0.5;"/><path d="M2382.5,63.5 L2382.5,73.5 L2392.5,73.5 L2382.5,63.5 " fill="#FEFFDD" style="stroke:#181818;stroke-width:0.5;"/><text fill="#000000" font-family="sans-serif" font-size="13" lengthAdjust="spacing" textLength="299" x="2078.5" y="80.5669">Available formats for tracing transformations.</text></g><!--MD5=[f5ee8d8ec523c75e4542df04153ca52d]
class configuration_builder--><g id="elem_configuration_builder"><rect codeLine="53" fill="#FFFACD" height="56.2656" id="configuration_builder" rx="2.5" ry="2.5" style="stroke:#181818;stroke-width:0.5;" width="222" x="2371.5" y="278.5"/><ellipse cx="2386.5" cy="298.6328" fill="#ADD1B2" rx="11" ry="11" style="stroke:#181818;stroke-width:1.0;"/><path d="M2389.4688,304.2734 Q2388.8906,304.5703 2388.25,304.7188 Q2387.6094,304.8672 2386.9063,304.8672 Q2384.4063,304.8672 2383.0859,303.2188 Q2381.7656,301.5703 2381.7656,298.4453 Q2381.7656,295.3203 2383.0859,293.6641 Q2384.4063,292.0078 2386.9063,292.0078 Q2387.6094,292.0078 2388.2578,292.1641 Q2388.9063,292.3203 2389.4688,292.6172 L2389.4688,295.3359 Q2388.8438,294.7578 2388.25,294.4844 Q2387.6563,294.2109 2387.0313,294.2109 Q2385.6875,294.2109 2385,295.2813 Q2384.3125,296.3516 2384.3125,298.4453 Q2384.3125,300.5391 2385,301.6094 Q2385.6875,302.6797 2387.0313,302.6797 Q2387.6563,302.6797 2388.25,302.4063 Q2388.8438,302.1328 2389.4688,301.5547 L2389.4688,304.2734 Z " fill="#000000"/><text fill="#000000" font-family="sans-serif" font-size="12" font-style="italic" lengthAdjust="spacing" textLength="194" x="2398.5" y="294.6387">«dogen::handcrafted::typeable»</text><text fill="#000000" font-family="sans-serif" font-size="14" lengthAdjust="spacing" textLength="152" x="2419.5" y="310.4639">configuration_builder</text><line style="stroke:#181818;stroke-width:0.5;" x1="2372.5" x2="2592.5" y1="318.7656" y2="318.7656"/><line style="stroke:#181818;stroke-width:0.5;" x1="2372.5" x2="2592.5" y1="326.7656" y2="326.7656"/></g><g id="elem_GMN17"><path d="M2427.5,63.5 L2427.5,88.6328 A0,0 0 0 0 2427.5,88.6328 L2478.5,88.6328 L2482.5,278.16 L2486.5,88.6328 L2537.5,88.6328 A0,0 0 0 0 2537.5,88.6328 L2537.5,73.5 L2527.5,63.5 L2427.5,63.5 A0,0 0 0 0 2427.5,63.5 " fill="#FEFFDD" style="stroke:#181818;stroke-width:0.5;"/><path d="M2527.5,63.5 L2527.5,73.5 L2537.5,73.5 L2527.5,63.5 " fill="#FEFFDD" style="stroke:#181818;stroke-width:0.5;"/><text fill="#000000" font-family="sans-serif" font-size="13" lengthAdjust="spacing" textLength="89" x="2433.5" y="80.5669">masd::builder</text></g><!--MD5=[ad73f7450369e4c8139f4e9746bf5efe]
class diffing_configuration--><g id="elem_diffing_configuration"><rect codeLine="60" fill="#F7E5FF" height="88.8594" id="diffing_configuration" rx="2.5" ry="2.5" style="stroke:#181818;stroke-width:0.5;" width="310" x="2628.5" y="262"/><ellipse cx="2705.75" cy="282.1328" fill="#ADD1B2" rx="11" ry="11" style="stroke:#181818;stroke-width:1.0;"/><path d="M2708.7188,287.7734 Q2708.1406,288.0703 2707.5,288.2188 Q2706.8594,288.3672 2706.1563,288.3672 Q2703.6563,288.3672 2702.3359,286.7188 Q2701.0156,285.0703 2701.0156,281.9453 Q2701.0156,278.8203 2702.3359,277.1641 Q2703.6563,275.5078 2706.1563,275.5078 Q2706.8594,275.5078 2707.5078,275.6641 Q2708.1563,275.8203 2708.7188,276.1172 L2708.7188,278.8359 Q2708.0938,278.2578 2707.5,277.9844 Q2706.9063,277.7109 2706.2813,277.7109 Q2704.9375,277.7109 2704.25,278.7813 Q2703.5625,279.8516 2703.5625,281.9453 Q2703.5625,284.0391 2704.25,285.1094 Q2704.9375,286.1797 2706.2813,286.1797 Q2706.9063,286.1797 2707.5,285.9063 Q2708.0938,285.6328 2708.7188,285.0547 L2708.7188,287.7734 Z " fill="#000000"/><text fill="#000000" font-family="sans-serif" font-size="12" font-style="italic" lengthAdjust="spacing" textLength="90" x="2754.75" y="278.1387">«masd::fluent»</text><text fill="#000000" font-family="sans-serif" font-size="14" lengthAdjust="spacing" textLength="147" x="2726.25" y="293.9639">diffing_configuration</text><line style="stroke:#181818;stroke-width:0.5;" x1="2629.5" x2="2937.5" y1="302.2656" y2="302.2656"/><ellipse cx="2639.5" cy="313.2656" fill="none" rx="3" ry="3" style="stroke:#038048;stroke-width:1.0;"/><text fill="#000000" font-family="sans-serif" font-size="14" lengthAdjust="spacing" textLength="214" x="2648.5" y="319.2607">destination diffing_destination</text><ellipse cx="2639.5" cy="329.5625" fill="none" rx="3" ry="3" style="stroke:#038048;stroke-width:1.0;"/><text fill="#000000" font-family="sans-serif" font-size="14" lengthAdjust="spacing" textLength="284" x="2648.5" y="335.5576">output_directory boost::filesystem::path</text><line style="stroke:#181818;stroke-width:0.5;" x1="2629.5" x2="2937.5" y1="342.8594" y2="342.8594"/></g><g id="elem_GMN21"><path d="M2666,63.5 L2666,88.6328 A0,0 0 0 0 2666,88.6328 L2779.5,88.6328 L2783.5,261.82 L2787.5,88.6328 L2901,88.6328 A0,0 0 0 0 2901,88.6328 L2901,73.5 L2891,63.5 L2666,63.5 A0,0 0 0 0 2666,63.5 " fill="#FEFFDD" style="stroke:#181818;stroke-width:0.5;"/><path d="M2891,63.5 L2891,73.5 L2901,73.5 L2891,63.5 " fill="#FEFFDD" style="stroke:#181818;stroke-width:0.5;"/><text fill="#000000" font-family="sans-serif" font-size="13" lengthAdjust="spacing" textLength="214" x="2672" y="80.5669">Configuration for diff generation.</text></g><!--MD5=[0347ab94eab96366268c1ddf569cc58d]
class configuration_validator--><g id="elem_configuration_validator"><rect codeLine="69" fill="#FFFACD" height="56.2656" id="configuration_validator" rx="2.5" ry="2.5" style="stroke:#181818;stroke-width:0.5;" width="222" x="808.5" y="48"/><ellipse cx="823.5" cy="68.1328" fill="#ADD1B2" rx="11" ry="11" style="stroke:#181818;stroke-width:1.0;"/><path d="M826.4688,73.7734 Q825.8906,74.0703 825.25,74.2188 Q824.6094,74.3672 823.9063,74.3672 Q821.4063,74.3672 820.0859,72.7188 Q818.7656,71.0703 818.7656,67.9453 Q818.7656,64.8203 820.0859,63.1641 Q821.4063,61.5078 823.9063,61.5078 Q824.6094,61.5078 825.2578,61.6641 Q825.9063,61.8203 826.4688,62.1172 L826.4688,64.8359 Q825.8438,64.2578 825.25,63.9844 Q824.6563,63.7109 824.0313,63.7109 Q822.6875,63.7109 822,64.7813 Q821.3125,65.8516 821.3125,67.9453 Q821.3125,70.0391 822,71.1094 Q822.6875,72.1797 824.0313,72.1797 Q824.6563,72.1797 825.25,71.9063 Q825.8438,71.6328 826.4688,71.0547 L826.4688,73.7734 Z " fill="#000000"/><text fill="#000000" font-family="sans-serif" font-size="12" font-style="italic" lengthAdjust="spacing" textLength="194" x="835.5" y="64.1387">«dogen::handcrafted::typeable»</text><text fill="#000000" font-family="sans-serif" font-size="14" lengthAdjust="spacing" textLength="165" x="850" y="79.9639">configuration_validator</text><line style="stroke:#181818;stroke-width:0.5;" x1="809.5" x2="1029.5" y1="88.2656" y2="88.2656"/><line style="stroke:#181818;stroke-width:0.5;" x1="809.5" x2="1029.5" y1="96.2656" y2="96.2656"/></g><!--MD5=[8f6643dfaa7402c6364bfd366f6a1812]
class model_processing_configuration--><g id="elem_model_processing_configuration"><rect codeLine="72" fill="#F7E5FF" height="113.1875" id="model_processing_configuration" rx="2.5" ry="2.5" style="stroke:#181818;stroke-width:0.5;" width="345" x="3017" y="250"/><ellipse cx="3069.75" cy="266" fill="#ADD1B2" rx="11" ry="11" style="stroke:#181818;stroke-width:1.0;"/><path d="M3072.7188,271.6406 Q3072.1406,271.9375 3071.5,272.0859 Q3070.8594,272.2344 3070.1563,272.2344 Q3067.6563,272.2344 3066.3359,270.5859 Q3065.0156,268.9375 3065.0156,265.8125 Q3065.0156,262.6875 3066.3359,261.0313 Q3067.6563,259.375 3070.1563,259.375 Q3070.8594,259.375 3071.5078,259.5313 Q3072.1563,259.6875 3072.7188,259.9844 L3072.7188,262.7031 Q3072.0938,262.125 3071.5,261.8516 Q3070.9063,261.5781 3070.2813,261.5781 Q3068.9375,261.5781 3068.25,262.6484 Q3067.5625,263.7188 3067.5625,265.8125 Q3067.5625,267.9063 3068.25,268.9766 Q3068.9375,270.0469 3070.2813,270.0469 Q3070.9063,270.0469 3071.5,269.7734 Q3072.0938,269.5 3072.7188,268.9219 L3072.7188,271.6406 Z " fill="#000000"/><text fill="#000000" font-family="sans-serif" font-size="14" lengthAdjust="spacing" textLength="231" x="3090.25" y="270.8467">model_processing_configuration</text><line style="stroke:#181818;stroke-width:0.5;" x1="3018" x2="3361" y1="282" y2="282"/><ellipse cx="3028" cy="293" fill="none" rx="3" ry="3" style="stroke:#038048;stroke-width:1.0;"/><text fill="#000000" font-family="sans-serif" font-size="14" lengthAdjust="spacing" textLength="240" x="3037" y="298.9951">compatibility_mode_enabled bool</text><ellipse cx="3028" cy="309.2969" fill="none" rx="3" ry="3" style="stroke:#038048;stroke-width:1.0;"/><text fill="#000000" font-family="sans-serif" font-size="14" lengthAdjust="spacing" textLength="202" x="3037" y="315.292">dry_run_mode_enabled bool</text><ellipse cx="3028" cy="325.5938" fill="none" rx="3" ry="3" style="stroke:#038048;stroke-width:1.0;"/><text fill="#000000" font-family="sans-serif" font-size="14" lengthAdjust="spacing" textLength="319" x="3037" y="331.5889">variability_overrides std::vector&lt;std::string&gt;</text><ellipse cx="3028" cy="341.8906" fill="none" rx="3" ry="3" style="stroke:#038048;stroke-width:1.0;"/><text fill="#000000" font-family="sans-serif" font-size="14" lengthAdjust="spacing" textLength="314" x="3037" y="347.8857">activity_timestamp boost::posix_time::ptime</text><line style="stroke:#181818;stroke-width:0.5;" x1="3018" x2="3361" y1="355.1875" y2="355.1875"/></g><g id="elem_GMN26"><path d="M2936.5,63.5 L2936.5,88.6328 A0,0 0 0 0 2936.5,88.6328 L3185.5,88.6328 L3189.5,249.92 L3193.5,88.6328 L3442.5,88.6328 A0,0 0 0 0 3442.5,88.6328 L3442.5,73.5 L3432.5,63.5 L2936.5,63.5 A0,0 0 0 0 2936.5,63.5 " fill="#FEFFDD" style="stroke:#181818;stroke-width:0.5;"/><path d="M3432.5,63.5 L3432.5,73.5 L3442.5,73.5 L3432.5,63.5 " fill="#FEFFDD" style="stroke:#181818;stroke-width:0.5;"/><text fill="#000000" font-family="sans-serif" font-size="13" lengthAdjust="spacing" textLength="485" x="2942.5" y="80.5669">Configuration related to the behaviour of Dogen whilst processing models.</text></g><!--MD5=[d776d5b2a207654eee05b4922e1b86ee]
class invalid_configuration_exception--><g id="elem_invalid_configuration_exception"><rect codeLine="83" fill="#E8C2F8" height="56.2656" id="invalid_configuration_exception" rx="2.5" ry="2.5" style="stroke:#181818;stroke-width:0.5;" width="258" x="3537.5" y="278.5"/><ellipse cx="3552.5" cy="298.6328" fill="#ADD1B2" rx="11" ry="11" style="stroke:#181818;stroke-width:1.0;"/><path d="M3555.4688,304.2734 Q3554.8906,304.5703 3554.25,304.7188 Q3553.6094,304.8672 3552.9063,304.8672 Q3550.4063,304.8672 3549.0859,303.2188 Q3547.7656,301.5703 3547.7656,298.4453 Q3547.7656,295.3203 3549.0859,293.6641 Q3550.4063,292.0078 3552.9063,292.0078 Q3553.6094,292.0078 3554.2578,292.1641 Q3554.9063,292.3203 3555.4688,292.6172 L3555.4688,295.3359 Q3554.8438,294.7578 3554.25,294.4844 Q3553.6563,294.2109 3553.0313,294.2109 Q3551.6875,294.2109 3551,295.2813 Q3550.3125,296.3516 3550.3125,298.4453 Q3550.3125,300.5391 3551,301.6094 Q3551.6875,302.6797 3553.0313,302.6797 Q3553.6563,302.6797 3554.25,302.4063 Q3554.8438,302.1328 3555.4688,301.5547 L3555.4688,304.2734 Z " fill="#000000"/><text fill="#000000" font-family="sans-serif" font-size="12" font-style="italic" lengthAdjust="spacing" textLength="114" x="3622.5" y="294.6387">«masd::exception»</text><text fill="#000000" font-family="sans-serif" font-size="14" lengthAdjust="spacing" textLength="226" x="3566.5" y="310.4639">invalid_configuration_exception</text><line style="stroke:#181818;stroke-width:0.5;" x1="3538.5" x2="3794.5" y1="318.7656" y2="318.7656"/><line style="stroke:#181818;stroke-width:0.5;" x1="3538.5" x2="3794.5" y1="326.7656" y2="326.7656"/></g><g id="elem_GMN30"><path d="M3477.5,63.5 L3477.5,88.6328 A0,0 0 0 0 3477.5,88.6328 L3662.5,88.6328 L3666.5,278.16 L3670.5,88.6328 L3855.5,88.6328 A0,0 0 0 0 3855.5,88.6328 L3855.5,73.5 L3845.5,63.5 L3477.5,63.5 A0,0 0 0 0 3477.5,63.5 " fill="#FEFFDD" style="stroke:#181818;stroke-width:0.5;"/><path d="M3845.5,63.5 L3845.5,73.5 L3855.5,73.5 L3845.5,63.5 " fill="#FEFFDD" style="stroke:#181818;stroke-width:0.5;"/><text fill="#000000" font-family="sans-serif" font-size="13" lengthAdjust="spacing" textLength="357" x="3483.5" y="80.5669">The values supplied for the configuration are not valid.</text></g><!--MD5=[dd71179583cce17ecb14726d47c32e81]
class generator--><g id="elem_generator"><rect codeLine="90" fill="#FFFACD" height="56.2656" id="generator" rx="2.5" ry="2.5" style="stroke:#181818;stroke-width:0.5;" width="303" x="1066" y="48"/><ellipse cx="1081" cy="68.1328" fill="#ADD1B2" rx="11" ry="11" style="stroke:#181818;stroke-width:1.0;"/><path d="M1083.9688,73.7734 Q1083.3906,74.0703 1082.75,74.2188 Q1082.1094,74.3672 1081.4063,74.3672 Q1078.9063,74.3672 1077.5859,72.7188 Q1076.2656,71.0703 1076.2656,67.9453 Q1076.2656,64.8203 1077.5859,63.1641 Q1078.9063,61.5078 1081.4063,61.5078 Q1082.1094,61.5078 1082.7578,61.6641 Q1083.4063,61.8203 1083.9688,62.1172 L1083.9688,64.8359 Q1083.3438,64.2578 1082.75,63.9844 Q1082.1563,63.7109 1081.5313,63.7109 Q1080.1875,63.7109 1079.5,64.7813 Q1078.8125,65.8516 1078.8125,67.9453 Q1078.8125,70.0391 1079.5,71.1094 Q1080.1875,72.1797 1081.5313,72.1797 Q1082.1563,72.1797 1082.75,71.9063 Q1083.3438,71.6328 1083.9688,71.0547 L1083.9688,73.7734 Z " fill="#000000"/><text fill="#000000" font-family="sans-serif" font-size="12" font-style="italic" lengthAdjust="spacing" textLength="275" x="1093" y="64.1387">«dogen::handcrafted::typeable::header_only»</text><text fill="#000000" font-family="sans-serif" font-size="14" lengthAdjust="spacing" textLength="71" x="1195" y="79.9639">generator</text><line style="stroke:#181818;stroke-width:0.5;" x1="1067" x2="1368" y1="88.2656" y2="88.2656"/><line style="stroke:#181818;stroke-width:0.5;" x1="1067" x2="1368" y1="96.2656" y2="96.2656"/></g><!--MD5=[28d2d70932dfaa0fc9ca4145a3e35f21]
class converter--><g id="elem_converter"><rect codeLine="93" fill="#FFFACD" height="56.2656" id="converter" rx="2.5" ry="2.5" style="stroke:#181818;stroke-width:0.5;" width="303" x="23" y="278.5"/><ellipse cx="38" cy="298.6328" fill="#ADD1B2" rx="11" ry="11" style="stroke:#181818;stroke-width:1.0;"/><path d="M40.9688,304.2734 Q40.3906,304.5703 39.75,304.7188 Q39.1094,304.8672 38.4063,304.8672 Q35.9063,304.8672 34.5859,303.2188 Q33.2656,301.5703 33.2656,298.4453 Q33.2656,295.3203 34.5859,293.6641 Q35.9063,292.0078 38.4063,292.0078 Q39.1094,292.0078 39.7578,292.1641 Q40.4063,292.3203 40.9688,292.6172 L40.9688,295.3359 Q40.3438,294.7578 39.75,294.4844 Q39.1563,294.2109 38.5313,294.2109 Q37.1875,294.2109 36.5,295.2813 Q35.8125,296.3516 35.8125,298.4453 Q35.8125,300.5391 36.5,301.6094 Q37.1875,302.6797 38.5313,302.6797 Q39.1563,302.6797 39.75,302.4063 Q40.3438,302.1328 40.9688,301.5547 L40.9688,304.2734 Z " fill="#000000"/><text fill="#000000" font-family="sans-serif" font-size="12" font-style="italic" lengthAdjust="spacing" textLength="275" x="50" y="294.6387">«dogen::handcrafted::typeable::header_only»</text><text fill="#000000" font-family="sans-serif" font-size="14" lengthAdjust="spacing" textLength="69" x="153" y="310.4639">converter</text><line style="stroke:#181818;stroke-width:0.5;" x1="24" x2="325" y1="318.7656" y2="318.7656"/><line style="stroke:#181818;stroke-width:0.5;" x1="24" x2="325" y1="326.7656" y2="326.7656"/></g><!--MD5=[3e1b7490b2491d37263a8baa13a128f3]
class generation_exception--><g id="elem_generation_exception"><rect codeLine="96" fill="#E8C2F8" height="56.2656" id="generation_exception" rx="2.5" ry="2.5" style="stroke:#181818;stroke-width:0.5;" width="187" x="361" y="278.5"/><ellipse cx="376" cy="298.6328" fill="#ADD1B2" rx="11" ry="11" style="stroke:#181818;stroke-width:1.0;"/><path d="M378.9688,304.2734 Q378.3906,304.5703 377.75,304.7188 Q377.1094,304.8672 376.4063,304.8672 Q373.9063,304.8672 372.5859,303.2188 Q371.2656,301.5703 371.2656,298.4453 Q371.2656,295.3203 372.5859,293.6641 Q373.9063,292.0078 376.4063,292.0078 Q377.1094,292.0078 377.7578,292.1641 Q378.4063,292.3203 378.9688,292.6172 L378.9688,295.3359 Q378.3438,294.7578 377.75,294.4844 Q377.1563,294.2109 376.5313,294.2109 Q375.1875,294.2109 374.5,295.2813 Q373.8125,296.3516 373.8125,298.4453 Q373.8125,300.5391 374.5,301.6094 Q375.1875,302.6797 376.5313,302.6797 Q377.1563,302.6797 377.75,302.4063 Q378.3438,302.1328 378.9688,301.5547 L378.9688,304.2734 Z " fill="#000000"/><text fill="#000000" font-family="sans-serif" font-size="12" font-style="italic" lengthAdjust="spacing" textLength="114" x="410.5" y="294.6387">«masd::exception»</text><text fill="#000000" font-family="sans-serif" font-size="14" lengthAdjust="spacing" textLength="155" x="390" y="310.4639">generation_exception</text><line style="stroke:#181818;stroke-width:0.5;" x1="362" x2="547" y1="318.7656" y2="318.7656"/><line style="stroke:#181818;stroke-width:0.5;" x1="362" x2="547" y1="326.7656" y2="326.7656"/></g><!--MD5=[3d7166f7ff254cffc294bb9eb8155bcd]
class conversion_exception--><g id="elem_conversion_exception"><rect codeLine="99" fill="#E8C2F8" height="56.2656" id="conversion_exception" rx="2.5" ry="2.5" style="stroke:#181818;stroke-width:0.5;" width="187" x="583" y="278.5"/><ellipse cx="598" cy="298.6328" fill="#ADD1B2" rx="11" ry="11" style="stroke:#181818;stroke-width:1.0;"/><path d="M600.9688,304.2734 Q600.3906,304.5703 599.75,304.7188 Q599.1094,304.8672 598.4063,304.8672 Q595.9063,304.8672 594.5859,303.2188 Q593.2656,301.5703 593.2656,298.4453 Q593.2656,295.3203 594.5859,293.6641 Q595.9063,292.0078 598.4063,292.0078 Q599.1094,292.0078 599.7578,292.1641 Q600.4063,292.3203 600.9688,292.6172 L600.9688,295.3359 Q600.3438,294.7578 599.75,294.4844 Q599.1563,294.2109 598.5313,294.2109 Q597.1875,294.2109 596.5,295.2813 Q595.8125,296.3516 595.8125,298.4453 Q595.8125,300.5391 596.5,301.6094 Q597.1875,302.6797 598.5313,302.6797 Q599.1563,302.6797 599.75,302.4063 Q600.3438,302.1328 600.9688,301.5547 L600.9688,304.2734 Z " fill="#000000"/><text fill="#000000" font-family="sans-serif" font-size="12" font-style="italic" lengthAdjust="spacing" textLength="114" x="632.5" y="294.6387">«masd::exception»</text><text fill="#000000" font-family="sans-serif" font-size="14" lengthAdjust="spacing" textLength="155" x="612" y="310.4639">conversion_exception</text><line style="stroke:#181818;stroke-width:0.5;" x1="584" x2="769" y1="318.7656" y2="318.7656"/><line style="stroke:#181818;stroke-width:0.5;" x1="584" x2="769" y1="326.7656" y2="326.7656"/></g><!--MD5=[799bbfb4c7b5c4b7795f253a5e57134a]
class diffing_destination--><g id="elem_diffing_destination"><rect codeLine="102" fill="#F2DAFD" height="88.8594" id="diffing_destination" rx="2.5" ry="2.5" style="stroke:#181818;stroke-width:0.5;" width="163" x="3930" y="262"/><ellipse cx="3945" cy="282.1328" fill="#EB937F" rx="11" ry="11" style="stroke:#181818;stroke-width:1.0;"/><path d="M3949.1094,288.1328 L3941.3906,288.1328 L3941.3906,275.7422 L3949.1094,275.7422 L3949.1094,277.8984 L3943.8438,277.8984 L3943.8438,280.5703 L3948.6094,280.5703 L3948.6094,282.7266 L3943.8438,282.7266 L3943.8438,285.9766 L3949.1094,285.9766 L3949.1094,288.1328 Z " fill="#000000"/><text fill="#000000" font-family="sans-serif" font-size="12" font-style="italic" lengthAdjust="spacing" textLength="132" x="3958.5" y="278.1387">«masd::enumeration»</text><text fill="#000000" font-family="sans-serif" font-size="14" lengthAdjust="spacing" textLength="131" x="3959" y="293.9639">diffing_destination</text><line style="stroke:#181818;stroke-width:0.5;" x1="3931" x2="4092" y1="302.2656" y2="302.2656"/><ellipse cx="3941" cy="313.2656" fill="none" rx="3" ry="3" style="stroke:#038048;stroke-width:1.0;"/><text fill="#000000" font-family="sans-serif" font-size="14" lengthAdjust="spacing" textLength="22" x="3950" y="319.2607">file</text><ellipse cx="3941" cy="329.5625" fill="none" rx="3" ry="3" style="stroke:#038048;stroke-width:1.0;"/><text fill="#000000" font-family="sans-serif" font-size="14" lengthAdjust="spacing" textLength="55" x="3950" y="335.5576">console</text><line style="stroke:#181818;stroke-width:0.5;" x1="3931" x2="4092" y1="342.8594" y2="342.8594"/></g><g id="elem_GMN38"><path d="M3890.5,63.5 L3890.5,88.6328 A0,0 0 0 0 3890.5,88.6328 L4007.5,88.6328 L4011.5,261.82 L4015.5,88.6328 L4132.5,88.6328 A0,0 0 0 0 4132.5,88.6328 L4132.5,73.5 L4122.5,63.5 L3890.5,63.5 A0,0 0 0 0 3890.5,63.5 " fill="#FEFFDD" style="stroke:#181818;stroke-width:0.5;"/><path d="M4122.5,63.5 L4122.5,73.5 L4132.5,73.5 L4122.5,63.5 " fill="#FEFFDD" style="stroke:#181818;stroke-width:0.5;"/><text fill="#000000" font-family="sans-serif" font-size="13" lengthAdjust="spacing" textLength="221" x="3896.5" y="80.5669">Where to place the diffing results.</text></g><!--MD5=[9270ed24ca34f881e9b5b00f45e89d59]
class reporting_configuration--><g id="elem_reporting_configuration"><rect codeLine="111" fill="#F7E5FF" height="80.5938" id="reporting_configuration" rx="2.5" ry="2.5" style="stroke:#181818;stroke-width:0.5;" width="310" x="4166.5" y="266"/><ellipse cx="4233.25" cy="282" fill="#ADD1B2" rx="11" ry="11" style="stroke:#181818;stroke-width:1.0;"/><path d="M4236.2188,287.6406 Q4235.6406,287.9375 4235,288.0859 Q4234.3594,288.2344 4233.6563,288.2344 Q4231.1563,288.2344 4229.8359,286.5859 Q4228.5156,284.9375 4228.5156,281.8125 Q4228.5156,278.6875 4229.8359,277.0313 Q4231.1563,275.375 4233.6563,275.375 Q4234.3594,275.375 4235.0078,275.5313 Q4235.6563,275.6875 4236.2188,275.9844 L4236.2188,278.7031 Q4235.5938,278.125 4235,277.8516 Q4234.4063,277.5781 4233.7813,277.5781 Q4232.4375,277.5781 4231.75,278.6484 Q4231.0625,279.7188 4231.0625,281.8125 Q4231.0625,283.9063 4231.75,284.9766 Q4232.4375,286.0469 4233.7813,286.0469 Q4234.4063,286.0469 4235,285.7734 Q4235.5938,285.5 4236.2188,284.9219 L4236.2188,287.6406 Z " fill="#000000"/><text fill="#000000" font-family="sans-serif" font-size="14" lengthAdjust="spacing" textLength="168" x="4253.75" y="286.8467">reporting_configuration</text><line style="stroke:#181818;stroke-width:0.5;" x1="4167.5" x2="4475.5" y1="298" y2="298"/><ellipse cx="4177.5" cy="309" fill="none" rx="3" ry="3" style="stroke:#038048;stroke-width:1.0;"/><text fill="#000000" font-family="sans-serif" font-size="14" lengthAdjust="spacing" textLength="143" x="4186.5" y="314.9951">style reporting_style</text><ellipse cx="4177.5" cy="325.2969" fill="none" rx="3" ry="3" style="stroke:#038048;stroke-width:1.0;"/><text fill="#000000" font-family="sans-serif" font-size="14" lengthAdjust="spacing" textLength="284" x="4186.5" y="331.292">output_directory boost::filesystem::path</text><line style="stroke:#181818;stroke-width:0.5;" x1="4167.5" x2="4475.5" y1="338.5938" y2="338.5938"/></g><g id="elem_GMN42"><path d="M4167.5,63.5 L4167.5,88.6328 A0,0 0 0 0 4167.5,88.6328 L4317.5,88.6328 L4321.5,265.94 L4325.5,88.6328 L4475.5,88.6328 A0,0 0 0 0 4475.5,88.6328 L4475.5,73.5 L4465.5,63.5 L4167.5,63.5 A0,0 0 0 0 4167.5,63.5 " fill="#FEFFDD" style="stroke:#181818;stroke-width:0.5;"/><path d="M4465.5,63.5 L4465.5,73.5 L4475.5,73.5 L4465.5,63.5 " fill="#FEFFDD" style="stroke:#181818;stroke-width:0.5;"/><text fill="#000000" font-family="sans-serif" font-size="13" lengthAdjust="spacing" textLength="287" x="4173.5" y="80.5669">Configuration related to operational reports.</text></g><!--MD5=[b60d70193a7fd1934cdfbe3f457c9e50]
class reporting_style--><g id="elem_reporting_style"><rect codeLine="120" fill="#F2DAFD" height="88.8594" id="reporting_style" rx="2.5" ry="2.5" style="stroke:#181818;stroke-width:0.5;" width="281" x="4516" y="262"/><ellipse cx="4531" cy="282.1328" fill="#EB937F" rx="11" ry="11" style="stroke:#181818;stroke-width:1.0;"/><path d="M4535.1094,288.1328 L4527.3906,288.1328 L4527.3906,275.7422 L4535.1094,275.7422 L4535.1094,277.8984 L4529.8438,277.8984 L4529.8438,280.5703 L4534.6094,280.5703 L4534.6094,282.7266 L4529.8438,282.7266 L4529.8438,285.9766 L4535.1094,285.9766 L4535.1094,288.1328 Z " fill="#000000"/><text fill="#000000" font-family="sans-serif" font-size="12" font-style="italic" lengthAdjust="spacing" textLength="253" x="4543" y="278.1387">«masd::enumeration, dogen::convertible»</text><text fill="#000000" font-family="sans-serif" font-size="14" lengthAdjust="spacing" textLength="106" x="4616.5" y="293.9639">reporting_style</text><line style="stroke:#181818;stroke-width:0.5;" x1="4517" x2="4796" y1="302.2656" y2="302.2656"/><ellipse cx="4527" cy="313.2656" fill="none" rx="3" ry="3" style="stroke:#038048;stroke-width:1.0;"/><text fill="#000000" font-family="sans-serif" font-size="14" lengthAdjust="spacing" textLength="35" x="4536" y="319.2607">plain</text><ellipse cx="4527" cy="329.5625" fill="none" rx="3" ry="3" style="stroke:#038048;stroke-width:1.0;"/><text fill="#000000" font-family="sans-serif" font-size="14" lengthAdjust="spacing" textLength="72" x="4536" y="335.5576">org_mode</text><line style="stroke:#181818;stroke-width:0.5;" x1="4517" x2="4796" y1="342.8594" y2="342.8594"/></g><g id="elem_GMN46"><path d="M4511,63.5 L4511,88.6328 A0,0 0 0 0 4511,88.6328 L4652.5,88.6328 L4656.5,261.82 L4660.5,88.6328 L4802,88.6328 A0,0 0 0 0 4802,88.6328 L4802,73.5 L4792,63.5 L4511,63.5 A0,0 0 0 0 4511,63.5 " fill="#FEFFDD" style="stroke:#181818;stroke-width:0.5;"/><path d="M4792,63.5 L4792,73.5 L4802,73.5 L4792,63.5 " fill="#FEFFDD" style="stroke:#181818;stroke-width:0.5;"/><text fill="#000000" font-family="sans-serif" font-size="13" lengthAdjust="spacing" textLength="270" x="4517" y="80.5669">Available formats for operational reports.</text></g><!--MD5=[c457d9d34a23ae221ea9b84eefbe32ca]
class mock_configuration_factory--><g id="elem_mock_configuration_factory"><rect codeLine="129" fill="#FFFACD" height="56.2656" id="mock_configuration_factory" rx="2.5" ry="2.5" style="stroke:#181818;stroke-width:0.5;" width="230" x="805.5" y="278.5"/><ellipse cx="820.5" cy="298.6328" fill="#ADD1B2" rx="11" ry="11" style="stroke:#181818;stroke-width:1.0;"/><path d="M823.4688,304.2734 Q822.8906,304.5703 822.25,304.7188 Q821.6094,304.8672 820.9063,304.8672 Q818.4063,304.8672 817.0859,303.2188 Q815.7656,301.5703 815.7656,298.4453 Q815.7656,295.3203 817.0859,293.6641 Q818.4063,292.0078 820.9063,292.0078 Q821.6094,292.0078 822.2578,292.1641 Q822.9063,292.3203 823.4688,292.6172 L823.4688,295.3359 Q822.8438,294.7578 822.25,294.4844 Q821.6563,294.2109 821.0313,294.2109 Q819.6875,294.2109 819,295.2813 Q818.3125,296.3516 818.3125,298.4453 Q818.3125,300.5391 819,301.6094 Q819.6875,302.6797 821.0313,302.6797 Q821.6563,302.6797 822.25,302.4063 Q822.8438,302.1328 823.4688,301.5547 L823.4688,304.2734 Z " fill="#000000"/><text fill="#000000" font-family="sans-serif" font-size="12" font-style="italic" lengthAdjust="spacing" textLength="194" x="836.5" y="294.6387">«dogen::handcrafted::typeable»</text><text fill="#000000" font-family="sans-serif" font-size="14" lengthAdjust="spacing" textLength="198" x="834.5" y="310.4639">mock_configuration_factory</text><line style="stroke:#181818;stroke-width:0.5;" x1="806.5" x2="1034.5" y1="318.7656" y2="318.7656"/><line style="stroke:#181818;stroke-width:0.5;" x1="806.5" x2="1034.5" y1="326.7656" y2="326.7656"/></g><!--MD5=[fbb74870578342435104c9bb5e6dc974]
class tracing_backend--><g id="elem_tracing_backend"><rect codeLine="132" fill="#F2DAFD" height="72.5625" id="tracing_backend" rx="2.5" ry="2.5" style="stroke:#181818;stroke-width:0.5;" width="160" x="4934.5" y="270"/><ellipse cx="4949.5" cy="290.1328" fill="#EB937F" rx="11" ry="11" style="stroke:#181818;stroke-width:1.0;"/><path d="M4953.6094,296.1328 L4945.8906,296.1328 L4945.8906,283.7422 L4953.6094,283.7422 L4953.6094,285.8984 L4948.3438,285.8984 L4948.3438,288.5703 L4953.1094,288.5703 L4953.1094,290.7266 L4948.3438,290.7266 L4948.3438,293.9766 L4953.6094,293.9766 L4953.6094,296.1328 Z " fill="#000000"/><text fill="#000000" font-family="sans-serif" font-size="12" font-style="italic" lengthAdjust="spacing" textLength="132" x="4961.5" y="286.1387">«masd::enumeration»</text><text fill="#000000" font-family="sans-serif" font-size="14" lengthAdjust="spacing" textLength="118" x="4968.5" y="301.9639">tracing_backend</text><line style="stroke:#181818;stroke-width:0.5;" x1="4935.5" x2="5093.5" y1="310.2656" y2="310.2656"/><ellipse cx="4945.5" cy="321.2656" fill="none" rx="3" ry="3" style="stroke:#038048;stroke-width:1.0;"/><text fill="#000000" font-family="sans-serif" font-size="14" lengthAdjust="spacing" textLength="22" x="4954.5" y="327.2607">file</text><line style="stroke:#181818;stroke-width:0.5;" x1="4935.5" x2="5093.5" y1="334.5625" y2="334.5625"/></g><g id="elem_GMN51"><path d="M4837,63.5 L4837,88.6328 A0,0 0 0 0 4837,88.6328 L5010.5,88.6328 L5014.5,269.91 L5018.5,88.6328 L5192,88.6328 A0,0 0 0 0 5192,88.6328 L5192,73.5 L5182,63.5 L4837,63.5 A0,0 0 0 0 4837,63.5 " fill="#FEFFDD" style="stroke:#181818;stroke-width:0.5;"/><path d="M5182,63.5 L5182,73.5 L5192,73.5 L5182,63.5 " fill="#FEFFDD" style="stroke:#181818;stroke-width:0.5;"/><text fill="#000000" font-family="sans-serif" font-size="13" lengthAdjust="spacing" textLength="334" x="4843" y="80.5669">Available backends to manage tracing information.</text></g><!--MD5=[4520fda4e10d4d791ce48fe025810cd4]
class main--><g id="elem_main"><rect codeLine="140" fill="#DDA9F3" height="56.2656" id="main" rx="2.5" ry="2.5" style="stroke:#181818;stroke-width:0.5;" width="267" x="41" y="468"/><ellipse cx="56" cy="488.1328" fill="#ADD1B2" rx="11" ry="11" style="stroke:#181818;stroke-width:1.0;"/><path d="M58.9688,493.7734 Q58.3906,494.0703 57.75,494.2188 Q57.1094,494.3672 56.4063,494.3672 Q53.9063,494.3672 52.5859,492.7188 Q51.2656,491.0703 51.2656,487.9453 Q51.2656,484.8203 52.5859,483.1641 Q53.9063,481.5078 56.4063,481.5078 Q57.1094,481.5078 57.7578,481.6641 Q58.4063,481.8203 58.9688,482.1172 L58.9688,484.8359 Q58.3438,484.2578 57.75,483.9844 Q57.1563,483.7109 56.5313,483.7109 Q55.1875,483.7109 54.5,484.7813 Q53.8125,485.8516 53.8125,487.9453 Q53.8125,490.0391 54.5,491.1094 Q55.1875,492.1797 56.5313,492.1797 Q57.1563,492.1797 57.75,491.9063 Q58.3438,491.6328 58.9688,491.0547 L58.9688,493.7734 Z " fill="#000000"/><text fill="#000000" font-family="sans-serif" font-size="12" font-style="italic" lengthAdjust="spacing" textLength="239" x="68" y="484.1387">«masd::entry_point, dogen::untypable»</text><text fill="#000000" font-family="sans-serif" font-size="14" lengthAdjust="spacing" textLength="36" x="169.5" y="499.9639">main</text><line style="stroke:#181818;stroke-width:0.5;" x1="42" x2="307" y1="508.2656" y2="508.2656"/><line style="stroke:#181818;stroke-width:0.5;" x1="42" x2="307" y1="516.2656" y2="516.2656"/></g><!--MD5=[ba83386d426114557685538e96aa6f68]
class CMakeLists--><g id="elem_CMakeLists"><rect codeLine="143" fill="#99CB99" height="56.2656" id="CMakeLists" rx="2.5" ry="2.5" style="stroke:#181818;stroke-width:0.5;" width="360" x="343.5" y="468"/><ellipse cx="358.5" cy="488.1328" fill="#ADD1B2" rx="11" ry="11" style="stroke:#181818;stroke-width:1.0;"/><path d="M361.4688,493.7734 Q360.8906,494.0703 360.25,494.2188 Q359.6094,494.3672 358.9063,494.3672 Q356.4063,494.3672 355.0859,492.7188 Q353.7656,491.0703 353.7656,487.9453 Q353.7656,484.8203 355.0859,483.1641 Q356.4063,481.5078 358.9063,481.5078 Q359.6094,481.5078 360.2578,481.6641 Q360.9063,481.8203 361.4688,482.1172 L361.4688,484.8359 Q360.8438,484.2578 360.25,483.9844 Q359.6563,483.7109 359.0313,483.7109 Q357.6875,483.7109 357,484.7813 Q356.3125,485.8516 356.3125,487.9453 Q356.3125,490.0391 357,491.1094 Q357.6875,492.1797 359.0313,492.1797 Q359.6563,492.1797 360.25,491.9063 Q360.8438,491.6328 361.4688,491.0547 L361.4688,493.7734 Z " fill="#000000"/><text fill="#000000" font-family="sans-serif" font-size="12" font-style="italic" lengthAdjust="spacing" textLength="332" x="370.5" y="484.1387">«masd::build::cmakelists, dogen::handcrafted::cmake»</text><text fill="#000000" font-family="sans-serif" font-size="14" lengthAdjust="spacing" textLength="79" x="497" y="499.9639">CMakeLists</text><line style="stroke:#181818;stroke-width:0.5;" x1="344.5" x2="702.5" y1="508.2656" y2="508.2656"/><line style="stroke:#181818;stroke-width:0.5;" x1="344.5" x2="702.5" y1="516.2656" y2="516.2656"/></g><!--MD5=[105a505edc8a5c4d60d82ad588e9620c]
class specs--><g id="elem_specs"><rect codeLine="146" fill="#F7E5FF" height="64.2969" id="specs" rx="2.5" ry="2.5" style="stroke:#181818;stroke-width:0.5;" width="283" x="5344" y="274.5"/><ellipse cx="5461.25" cy="290.5" fill="#ADD1B2" rx="11" ry="11" style="stroke:#181818;stroke-width:1.0;"/><path d="M5464.2188,296.1406 Q5463.6406,296.4375 5463,296.5859 Q5462.3594,296.7344 5461.6563,296.7344 Q5459.1563,296.7344 5457.8359,295.0859 Q5456.5156,293.4375 5456.5156,290.3125 Q5456.5156,287.1875 5457.8359,285.5313 Q5459.1563,283.875 5461.6563,283.875 Q5462.3594,283.875 5463.0078,284.0313 Q5463.6563,284.1875 5464.2188,284.4844 L5464.2188,287.2031 Q5463.5938,286.625 5463,286.3516 Q5462.4063,286.0781 5461.7813,286.0781 Q5460.4375,286.0781 5459.75,287.1484 Q5459.0625,288.2188 5459.0625,290.3125 Q5459.0625,292.4063 5459.75,293.4766 Q5460.4375,294.5469 5461.7813,294.5469 Q5462.4063,294.5469 5463,294.2734 Q5463.5938,294 5464.2188,293.4219 L5464.2188,296.1406 Z " fill="#000000"/><text fill="#000000" font-family="sans-serif" font-size="14" lengthAdjust="spacing" textLength="40" x="5481.75" y="295.3467">specs</text><line style="stroke:#181818;stroke-width:0.5;" x1="5345" x2="5626" y1="306.5" y2="306.5"/><ellipse cx="5355" cy="317.5" fill="none" rx="3" ry="3" style="stroke:#038048;stroke-width:1.0;"/><text fill="#000000" font-family="sans-serif" font-size="14" lengthAdjust="spacing" textLength="257" x="5364" y="323.4951">categories std::list&lt;spec_category&gt;</text><line style="stroke:#181818;stroke-width:0.5;" x1="5345" x2="5626" y1="330.7969" y2="330.7969"/></g><g id="elem_GMN57"><path d="M5227.5,63.5 L5227.5,88.6328 A0,0 0 0 0 5227.5,88.6328 L5481.5,88.6328 L5485.5,274.14 L5489.5,88.6328 L5743.5,88.6328 A0,0 0 0 0 5743.5,88.6328 L5743.5,73.5 L5733.5,63.5 L5227.5,63.5 A0,0 0 0 0 5227.5,63.5 " fill="#FEFFDD" style="stroke:#181818;stroke-width:0.5;"/><path d="M5733.5,63.5 L5733.5,73.5 L5743.5,73.5 L5733.5,63.5 " fill="#FEFFDD" style="stroke:#181818;stroke-width:0.5;"/><text fill="#000000" font-family="sans-serif" font-size="13" lengthAdjust="spacing" textLength="495" x="5233.5" y="80.5669">Describes details of the available functionality within this version of Dogen.</text></g><!--MD5=[3aac644925f872a7240ca70aee1367c9]
class spec_category--><g id="elem_spec_category"><rect codeLine="154" fill="#F7E5FF" height="96.8906" id="spec_category" rx="2.5" ry="2.5" style="stroke:#181818;stroke-width:0.5;" width="231" x="5822" y="258"/><ellipse cx="5881.75" cy="274" fill="#ADD1B2" rx="11" ry="11" style="stroke:#181818;stroke-width:1.0;"/><path d="M5884.7188,279.6406 Q5884.1406,279.9375 5883.5,280.0859 Q5882.8594,280.2344 5882.1563,280.2344 Q5879.6563,280.2344 5878.3359,278.5859 Q5877.0156,276.9375 5877.0156,273.8125 Q5877.0156,270.6875 5878.3359,269.0313 Q5879.6563,267.375 5882.1563,267.375 Q5882.8594,267.375 5883.5078,267.5313 Q5884.1563,267.6875 5884.7188,267.9844 L5884.7188,270.7031 Q5884.0938,270.125 5883.5,269.8516 Q5882.9063,269.5781 5882.2813,269.5781 Q5880.9375,269.5781 5880.25,270.6484 Q5879.5625,271.7188 5879.5625,273.8125 Q5879.5625,275.9063 5880.25,276.9766 Q5880.9375,278.0469 5882.2813,278.0469 Q5882.9063,278.0469 5883.5,277.7734 Q5884.0938,277.5 5884.7188,276.9219 L5884.7188,279.6406 Z " fill="#000000"/><text fill="#000000" font-family="sans-serif" font-size="14" lengthAdjust="spacing" textLength="103" x="5902.25" y="278.8467">spec_category</text><line style="stroke:#181818;stroke-width:0.5;" x1="5823" x2="6052" y1="290" y2="290"/><ellipse cx="5833" cy="301" fill="none" rx="3" ry="3" style="stroke:#038048;stroke-width:1.0;"/><text fill="#000000" font-family="sans-serif" font-size="14" lengthAdjust="spacing" textLength="116" x="5842" y="306.9951">name std::string</text><ellipse cx="5833" cy="317.2969" fill="none" rx="3" ry="3" style="stroke:#038048;stroke-width:1.0;"/><text fill="#000000" font-family="sans-serif" font-size="14" lengthAdjust="spacing" textLength="205" x="5842" y="323.292">entries std::list&lt;spec_entry&gt;</text><ellipse cx="5833" cy="333.5938" fill="none" rx="3" ry="3" style="stroke:#038048;stroke-width:1.0;"/><text fill="#000000" font-family="sans-serif" font-size="14" lengthAdjust="spacing" textLength="154" x="5842" y="339.5889">description std::string</text><line style="stroke:#181818;stroke-width:0.5;" x1="5823" x2="6052" y1="346.8906" y2="346.8906"/></g><g id="elem_GMN61"><path d="M5779,63.5 L5779,88.6328 A0,0 0 0 0 5779,88.6328 L5933.5,88.6328 L5937.5,257.56 L5941.5,88.6328 L6096,88.6328 A0,0 0 0 0 6096,88.6328 L6096,73.5 L6086,63.5 L5779,63.5 A0,0 0 0 0 5779,63.5 " fill="#FEFFDD" style="stroke:#181818;stroke-width:0.5;"/><path d="M6086,63.5 L6086,73.5 L6096,73.5 L6086,63.5 " fill="#FEFFDD" style="stroke:#181818;stroke-width:0.5;"/><text fill="#000000" font-family="sans-serif" font-size="13" lengthAdjust="spacing" textLength="296" x="5785" y="80.5669">Describes a category of dogen specifications.</text></g><!--MD5=[7b995fc219daea456e492b9512ae84ab]
class spec_entry--><g id="elem_spec_entry"><rect codeLine="164" fill="#F7E5FF" height="80.5938" id="spec_entry" rx="2.5" ry="2.5" style="stroke:#181818;stroke-width:0.5;" width="180" x="6163.5" y="266"/><ellipse cx="6210.75" cy="282" fill="#ADD1B2" rx="11" ry="11" style="stroke:#181818;stroke-width:1.0;"/><path d="M6213.7188,287.6406 Q6213.1406,287.9375 6212.5,288.0859 Q6211.8594,288.2344 6211.1563,288.2344 Q6208.6563,288.2344 6207.3359,286.5859 Q6206.0156,284.9375 6206.0156,281.8125 Q6206.0156,278.6875 6207.3359,277.0313 Q6208.6563,275.375 6211.1563,275.375 Q6211.8594,275.375 6212.5078,275.5313 Q6213.1563,275.6875 6213.7188,275.9844 L6213.7188,278.7031 Q6213.0938,278.125 6212.5,277.8516 Q6211.9063,277.5781 6211.2813,277.5781 Q6209.9375,277.5781 6209.25,278.6484 Q6208.5625,279.7188 6208.5625,281.8125 Q6208.5625,283.9063 6209.25,284.9766 Q6209.9375,286.0469 6211.2813,286.0469 Q6211.9063,286.0469 6212.5,285.7734 Q6213.0938,285.5 6213.7188,284.9219 L6213.7188,287.6406 Z " fill="#000000"/><text fill="#000000" font-family="sans-serif" font-size="14" lengthAdjust="spacing" textLength="77" x="6231.25" y="286.8467">spec_entry</text><line style="stroke:#181818;stroke-width:0.5;" x1="6164.5" x2="6342.5" y1="298" y2="298"/><ellipse cx="6174.5" cy="309" fill="none" rx="3" ry="3" style="stroke:#038048;stroke-width:1.0;"/><text fill="#000000" font-family="sans-serif" font-size="14" lengthAdjust="spacing" textLength="116" x="6183.5" y="314.9951">name std::string</text><ellipse cx="6174.5" cy="325.2969" fill="none" rx="3" ry="3" style="stroke:#038048;stroke-width:1.0;"/><text fill="#000000" font-family="sans-serif" font-size="14" lengthAdjust="spacing" textLength="154" x="6183.5" y="331.292">description std::string</text><line style="stroke:#181818;stroke-width:0.5;" x1="6164.5" x2="6342.5" y1="338.5938" y2="338.5938"/></g><g id="elem_GMN65"><path d="M6131,63.5 L6131,88.6328 A0,0 0 0 0 6131,88.6328 L6249.5,88.6328 L6253.5,265.94 L6257.5,88.6328 L6376,88.6328 A0,0 0 0 0 6376,88.6328 L6376,73.5 L6366,63.5 L6131,63.5 A0,0 0 0 0 6131,63.5 " fill="#FEFFDD" style="stroke:#181818;stroke-width:0.5;"/><path d="M6366,63.5 L6366,73.5 L6376,73.5 L6366,63.5 " fill="#FEFFDD" style="stroke:#181818;stroke-width:0.5;"/><text fill="#000000" font-family="sans-serif" font-size="13" lengthAdjust="spacing" textLength="224" x="6137" y="80.5669">Unit of functionality within Dogen.</text></g><!--MD5=[3e3a516ce6d06244972b43908f48245e]
class spec_dumper--><g id="elem_spec_dumper"><rect codeLine="173" fill="#FFFACD" height="56.2656" id="spec_dumper" rx="2.5" ry="2.5" style="stroke:#181818;stroke-width:0.5;" width="303" x="739" y="468"/><ellipse cx="754" cy="488.1328" fill="#ADD1B2" rx="11" ry="11" style="stroke:#181818;stroke-width:1.0;"/><path d="M756.9688,493.7734 Q756.3906,494.0703 755.75,494.2188 Q755.1094,494.3672 754.4063,494.3672 Q751.9063,494.3672 750.5859,492.7188 Q749.2656,491.0703 749.2656,487.9453 Q749.2656,484.8203 750.5859,483.1641 Q751.9063,481.5078 754.4063,481.5078 Q755.1094,481.5078 755.7578,481.6641 Q756.4063,481.8203 756.9688,482.1172 L756.9688,484.8359 Q756.3438,484.2578 755.75,483.9844 Q755.1563,483.7109 754.5313,483.7109 Q753.1875,483.7109 752.5,484.7813 Q751.8125,485.8516 751.8125,487.9453 Q751.8125,490.0391 752.5,491.1094 Q753.1875,492.1797 754.5313,492.1797 Q755.1563,492.1797 755.75,491.9063 Q756.3438,491.6328 756.9688,491.0547 L756.9688,493.7734 Z " fill="#000000"/><text fill="#000000" font-family="sans-serif" font-size="12" font-style="italic" lengthAdjust="spacing" textLength="275" x="766" y="484.1387">«dogen::handcrafted::typeable::header_only»</text><text fill="#000000" font-family="sans-serif" font-size="14" lengthAdjust="spacing" textLength="96" x="855.5" y="499.9639">spec_dumper</text><line style="stroke:#181818;stroke-width:0.5;" x1="740" x2="1041" y1="508.2656" y2="508.2656"/><line style="stroke:#181818;stroke-width:0.5;" x1="740" x2="1041" y1="516.2656" y2="516.2656"/></g><!--MD5=[92b5222eba9cdf098e448b7f728fe5cb]
class dumping_exception--><g id="elem_dumping_exception"><rect codeLine="176" fill="#E8C2F8" height="56.2656" id="dumping_exception" rx="2.5" ry="2.5" style="stroke:#181818;stroke-width:0.5;" width="172" x="6488.5" y="278.5"/><ellipse cx="6503.5" cy="298.6328" fill="#ADD1B2" rx="11" ry="11" style="stroke:#181818;stroke-width:1.0;"/><path d="M6506.4688,304.2734 Q6505.8906,304.5703 6505.25,304.7188 Q6504.6094,304.8672 6503.9063,304.8672 Q6501.4063,304.8672 6500.0859,303.2188 Q6498.7656,301.5703 6498.7656,298.4453 Q6498.7656,295.3203 6500.0859,293.6641 Q6501.4063,292.0078 6503.9063,292.0078 Q6504.6094,292.0078 6505.2578,292.1641 Q6505.9063,292.3203 6506.4688,292.6172 L6506.4688,295.3359 Q6505.8438,294.7578 6505.25,294.4844 Q6504.6563,294.2109 6504.0313,294.2109 Q6502.6875,294.2109 6502,295.2813 Q6501.3125,296.3516 6501.3125,298.4453 Q6501.3125,300.5391 6502,301.6094 Q6502.6875,302.6797 6504.0313,302.6797 Q6504.6563,302.6797 6505.25,302.4063 Q6505.8438,302.1328 6506.4688,301.5547 L6506.4688,304.2734 Z " fill="#000000"/><text fill="#000000" font-family="sans-serif" font-size="12" font-style="italic" lengthAdjust="spacing" textLength="114" x="6530.5" y="294.6387">«masd::exception»</text><text fill="#000000" font-family="sans-serif" font-size="14" lengthAdjust="spacing" textLength="140" x="6517.5" y="310.4639">dumping_exception</text><line style="stroke:#181818;stroke-width:0.5;" x1="6489.5" x2="6659.5" y1="318.7656" y2="318.7656"/><line style="stroke:#181818;stroke-width:0.5;" x1="6489.5" x2="6659.5" y1="326.7656" y2="326.7656"/></g><g id="elem_GMN70"><path d="M6411.5,63.5 L6411.5,88.6328 A0,0 0 0 0 6411.5,88.6328 L6570.5,88.6328 L6574.5,278.16 L6578.5,88.6328 L6737.5,88.6328 A0,0 0 0 0 6737.5,88.6328 L6737.5,73.5 L6727.5,63.5 L6411.5,63.5 A0,0 0 0 0 6411.5,63.5 " fill="#FEFFDD" style="stroke:#181818;stroke-width:0.5;"/><path d="M6727.5,63.5 L6727.5,73.5 L6737.5,73.5 L6727.5,63.5 " fill="#FEFFDD" style="stroke:#181818;stroke-width:0.5;"/><text fill="#000000" font-family="sans-serif" font-size="13" lengthAdjust="spacing" textLength="305" x="6417.5" y="80.5669">An error ocurred when dumping dogen's specs.</text></g><!--MD5=[da6b09a4aebbc27acfb4715d6dd726dd]
link N1 to configuration--></g></svg>