<?xml version="1.0" encoding="UTF-8" standalone="no"?><svg xmlns="http://www.w3.org/2000/svg" xmlns:xlink="http://www.w3.org/1999/xlink" contentStyleType="text/css" height="531px" preserveAspectRatio="none" style="width:6861px;height:531px;background:#FFFFFF;" version="1.1" viewBox="0 0 6861 531" width="6861px" zoomAndPan="magnify"><defs/><g><g id="elem_N1"><path d="M18.5,33 L18.5,118.6641 L355.5,118.6641 L355.5,43 L345.5,33 L18.5,33 " fill="#FEFFDD" style="stroke:#181818;stroke-width:0.5;"/><path d="M345.5,33 L345.5,43 L355.5,43 L345.5,33 " fill="#FEFFDD" style="stroke:#181818;stroke-width:1.0;"/><text fill="#000000" font-family="sans-serif" font-size="13" lengthAdjust="spacing" textLength="316" x="24.5" y="50.0669">Provides the top-level API for the dogen product.</text><text fill="#000000" font-family="sans-serif" font-size="13" lengthAdjust="spacing" textLength="4" x="24.5" y="65.1997"> </text><text fill="#000000" font-family="sans-serif" font-size="13" lengthAdjust="spacing" textLength="131" x="24.5" y="80.3325">UML representation:</text><text fill="#000000" font-family="sans-serif" font-size="13" lengthAdjust="spacing" textLength="4" x="24.5" y="95.4653"> </text><text fill="#000000" font-family="sans-serif" font-size="13" lengthAdjust="spacing" textLength="259" x="24.5" y="110.5981">\image html dogen/modeling/dogen.svg</text></g><!--MD5=[5bbd3befcf1686b7fd148cc582657d1c]
class configuration--><g id="elem_configuration"><rect codeLine="10" fill="#F7E5FF" height="137.75" id="configuration" rx="2.5" ry="2.5" style="stroke:#181818;stroke-width:0.5;" width="395" x="390.5" y="7"/><ellipse cx="536.25" cy="27.1328" fill="#ADD1B2" rx="11" ry="11" style="stroke:#181818;stroke-width:1.0;"/><path d="M539.2188,32.7734 Q538.6406,33.0703 538,33.2188 Q537.3594,33.3672 536.6563,33.3672 Q534.1563,33.3672 532.8359,31.7188 Q531.5156,30.0703 531.5156,26.9453 Q531.5156,23.8203 532.8359,22.1641 Q534.1563,20.5078 536.6563,20.5078 Q537.3594,20.5078 538.0078,20.6641 Q538.6563,20.8203 539.2188,21.1172 L539.2188,23.8359 Q538.5938,23.2578 538,22.9844 Q537.4063,22.7109 536.7813,22.7109 Q535.4375,22.7109 534.75,23.7813 Q534.0625,24.8516 534.0625,26.9453 Q534.0625,29.0391 534.75,30.1094 Q535.4375,31.1797 536.7813,31.1797 Q537.4063,31.1797 538,30.9063 Q538.5938,30.6328 539.2188,30.0547 L539.2188,32.7734 Z " fill="#000000"/><text fill="#000000" font-family="sans-serif" font-size="12" font-style="italic" lengthAdjust="spacing" textLength="90" x="559.25" y="23.1387">«masd::fluent»</text><text fill="#000000" font-family="sans-serif" font-size="14" lengthAdjust="spacing" textLength="95" x="556.75" y="38.9639">configuration</text><line style="stroke:#181818;stroke-width:0.5;" x1="391.5" x2="784.5" y1="47.2656" y2="47.2656"/><ellipse cx="401.5" cy="58.2656" fill="none" rx="3" ry="3" style="stroke:#038048;stroke-width:1.0;"/><text fill="#000000" font-family="sans-serif" font-size="14" lengthAdjust="spacing" textLength="364" x="410.5" y="64.2607">model_processing model_processing_configuration</text><ellipse cx="401.5" cy="74.5625" fill="none" rx="3" ry="3" style="stroke:#038048;stroke-width:1.0;"/><text fill="#000000" font-family="sans-serif" font-size="14" lengthAdjust="spacing" textLength="337" x="410.5" y="80.5576">tracing boost::optional&lt;tracing_configuration&gt;</text><ellipse cx="401.5" cy="90.8594" fill="none" rx="3" ry="3" style="stroke:#038048;stroke-width:1.0;"/><text fill="#000000" font-family="sans-serif" font-size="14" lengthAdjust="spacing" textLength="327" x="410.5" y="96.8545">diffing boost::optional&lt;diffing_configuration&gt;</text><ellipse cx="401.5" cy="107.1563" fill="none" rx="3" ry="3" style="stroke:#038048;stroke-width:1.0;"/><text fill="#000000" font-family="sans-serif" font-size="14" lengthAdjust="spacing" textLength="369" x="410.5" y="113.1514">reporting boost::optional&lt;reporting_configuration&gt;</text><ellipse cx="401.5" cy="123.4531" fill="none" rx="3" ry="3" style="stroke:#038048;stroke-width:1.0;"/><text fill="#000000" font-family="sans-serif" font-size="14" lengthAdjust="spacing" textLength="310" x="410.5" y="129.4482">byproduct_directory boost::filesystem::path</text><line style="stroke:#181818;stroke-width:0.5;" x1="391.5" x2="784.5" y1="136.75" y2="136.75"/></g><!--MD5=[6ef6e6f5bfa60dc33b4fd4304d690815]
class tracing_level--><g id="elem_tracing_level"><rect codeLine="18" fill="#F2DAFD" height="88.8594" id="tracing_level" rx="2.5" ry="2.5" style="stroke:#181818;stroke-width:0.5;" width="160" x="1487" y="262"/><ellipse cx="1502" cy="282.1328" fill="#EB937F" rx="11" ry="11" style="stroke:#181818;stroke-width:1.0;"/><path d="M1506.1094,288.1328 L1498.3906,288.1328 L1498.3906,275.7422 L1506.1094,275.7422 L1506.1094,277.8984 L1500.8438,277.8984 L1500.8438,280.5703 L1505.6094,280.5703 L1505.6094,282.7266 L1500.8438,282.7266 L1500.8438,285.9766 L1506.1094,285.9766 L1506.1094,288.1328 Z " fill="#000000"/><text fill="#000000" font-family="sans-serif" font-size="12" font-style="italic" lengthAdjust="spacing" textLength="132" x="1514" y="278.1387">«masd::enumeration»</text><text fill="#000000" font-family="sans-serif" font-size="14" lengthAdjust="spacing" textLength="91" x="1534.5" y="293.9639">tracing_level</text><line style="stroke:#181818;stroke-width:0.5;" x1="1488" x2="1646" y1="302.2656" y2="302.2656"/><ellipse cx="1498" cy="313.2656" fill="none" rx="3" ry="3" style="stroke:#038048;stroke-width:1.0;"/><text fill="#000000" font-family="sans-serif" font-size="14" lengthAdjust="spacing" textLength="40" x="1507" y="319.2607">detail</text><ellipse cx="1498" cy="329.5625" fill="none" rx="3" ry="3" style="stroke:#038048;stroke-width:1.0;"/><text fill="#000000" font-family="sans-serif" font-size="14" lengthAdjust="spacing" textLength="67" x="1507" y="335.5576">summary</text><line style="stroke:#181818;stroke-width:0.5;" x1="1488" x2="1646" y1="342.8594" y2="342.8594"/></g><g id="elem_GMN5"><path d="M1416.5,63.5 L1416.5,88.6328 A0,0 0 0 0 1416.5,88.6328 L1563,88.6328 L1567,261.82 L1571,88.6328 L1717.5,88.6328 A0,0 0 0 0 1717.5,88.6328 L1717.5,73.5 L1707.5,63.5 L1416.5,63.5 A0,0 0 0 0 1416.5,63.5 " fill="#FEFFDD" style="stroke:#181818;stroke-width:0.5;"/><path d="M1707.5,63.5 L1707.5,73.5 L1717.5,73.5 L1707.5,63.5 " fill="#FEFFDD" style="stroke:#181818;stroke-width:0.5;"/><text fill="#000000" font-family="sans-serif" font-size="13" lengthAdjust="spacing" textLength="280" x="1422.5" y="80.5669">Available levels for tracing transformation.</text></g><!--MD5=[879ec89498f3df0483a1f05c19e8a8fc]
class tracing_configuration--><g id="elem_tracing_configuration"><rect codeLine="27" fill="#F7E5FF" height="202.9375" id="tracing_configuration" rx="2.5" ry="2.5" style="stroke:#181818;stroke-width:0.5;" width="310" x="1746" y="205"/><ellipse cx="1820.75" cy="225.1328" fill="#ADD1B2" rx="11" ry="11" style="stroke:#181818;stroke-width:1.0;"/><path d="M1823.7188,230.7734 Q1823.1406,231.0703 1822.5,231.2188 Q1821.8594,231.3672 1821.1563,231.3672 Q1818.6563,231.3672 1817.3359,229.7188 Q1816.0156,228.0703 1816.0156,224.9453 Q1816.0156,221.8203 1817.3359,220.1641 Q1818.6563,218.5078 1821.1563,218.5078 Q1821.8594,218.5078 1822.5078,218.6641 Q1823.1563,218.8203 1823.7188,219.1172 L1823.7188,221.8359 Q1823.0938,221.2578 1822.5,220.9844 Q1821.9063,220.7109 1821.2813,220.7109 Q1819.9375,220.7109 1819.25,221.7813 Q1818.5625,222.8516 1818.5625,224.9453 Q1818.5625,227.0391 1819.25,228.1094 Q1819.9375,229.1797 1821.2813,229.1797 Q1821.9063,229.1797 1822.5,228.9063 Q1823.0938,228.6328 1823.7188,228.0547 L1823.7188,230.7734 Z " fill="#000000"/><text fill="#000000" font-family="sans-serif" font-size="12" font-style="italic" lengthAdjust="spacing" textLength="90" x="1872.25" y="221.1387">«masd::fluent»</text><text fill="#000000" font-family="sans-serif" font-size="14" lengthAdjust="spacing" textLength="152" x="1841.25" y="236.9639">tracing_configuration</text><line style="stroke:#181818;stroke-width:0.5;" x1="1747" x2="2055" y1="245.2656" y2="245.2656"/><ellipse cx="1757" cy="256.2656" fill="none" rx="3" ry="3" style="stroke:#038048;stroke-width:1.0;"/><text fill="#000000" font-family="sans-serif" font-size="14" lengthAdjust="spacing" textLength="129" x="1766" y="262.2607">level tracing_level</text><ellipse cx="1757" cy="272.5625" fill="none" rx="3" ry="3" style="stroke:#038048;stroke-width:1.0;"/><text fill="#000000" font-family="sans-serif" font-size="14" lengthAdjust="spacing" textLength="157" x="1766" y="278.5576">format tracing_format</text><ellipse cx="1757" cy="288.8594" fill="none" rx="3" ry="3" style="stroke:#038048;stroke-width:1.0;"/><text fill="#000000" font-family="sans-serif" font-size="14" lengthAdjust="spacing" textLength="138" x="1766" y="294.8545">guids_enabled bool</text><ellipse cx="1757" cy="305.1563" fill="none" rx="3" ry="3" style="stroke:#038048;stroke-width:1.0;"/><text fill="#000000" font-family="sans-serif" font-size="14" lengthAdjust="spacing" textLength="184" x="1766" y="311.1514">logging_impact std::string</text><ellipse cx="1757" cy="321.4531" fill="none" rx="3" ry="3" style="stroke:#038048;stroke-width:1.0;"/><text fill="#000000" font-family="sans-serif" font-size="14" lengthAdjust="spacing" textLength="158" x="1766" y="327.4482">use_short_names bool</text><ellipse cx="1757" cy="337.75" fill="none" rx="3" ry="3" style="stroke:#038048;stroke-width:1.0;"/><text fill="#000000" font-family="sans-serif" font-size="14" lengthAdjust="spacing" textLength="284" x="1766" y="343.7451">output_directory boost::filesystem::path</text><ellipse cx="1757" cy="354.0469" fill="none" rx="3" ry="3" style="stroke:#038048;stroke-width:1.0;"/><text fill="#000000" font-family="sans-serif" font-size="14" lengthAdjust="spacing" textLength="183" x="1766" y="360.042">backend tracing_backend</text><ellipse cx="1757" cy="370.3438" fill="none" rx="3" ry="3" style="stroke:#038048;stroke-width:1.0;"/><text fill="#000000" font-family="sans-serif" font-size="14" lengthAdjust="spacing" textLength="119" x="1766" y="376.3389">run_id std::string</text><ellipse cx="1757" cy="386.6406" fill="none" rx="3" ry="3" style="stroke:#038048;stroke-width:1.0;"/><text fill="#000000" font-family="sans-serif" font-size="14" lengthAdjust="spacing" textLength="272" x="1766" y="392.6357">filter_regexes std::vector&lt;std::string&gt;</text><line style="stroke:#181818;stroke-width:0.5;" x1="1747" x2="2055" y1="399.9375" y2="399.9375"/></g><g id="elem_GMN9"><path d="M1752.5,63.5 L1752.5,88.6328 A0,0 0 0 0 1752.5,88.6328 L1897,88.6328 L1901,204.83 L1905,88.6328 L2049.5,88.6328 A0,0 0 0 0 2049.5,88.6328 L2049.5,73.5 L2039.5,63.5 L1752.5,63.5 A0,0 0 0 0 1752.5,63.5 " fill="#FEFFDD" style="stroke:#181818;stroke-width:0.5;"/><path d="M2039.5,63.5 L2039.5,73.5 L2049.5,73.5 L2039.5,63.5 " fill="#FEFFDD" style="stroke:#181818;stroke-width:0.5;"/><text fill="#000000" font-family="sans-serif" font-size="13" lengthAdjust="spacing" textLength="276" x="1758.5" y="80.5669">Configuration related to transform tracing.</text></g><!--MD5=[d851c768f5429fdbc6ef6c5b1bdbee95]
class tracing_format--><g id="elem_tracing_format"><rect codeLine="43" fill="#F2DAFD" height="105.1563" id="tracing_format" rx="2.5" ry="2.5" style="stroke:#181818;stroke-width:0.5;" width="160" x="2165" y="254"/><ellipse cx="2180" cy="274.1328" fill="#EB937F" rx="11" ry="11" style="stroke:#181818;stroke-width:1.0;"/><path d="M2184.1094,280.1328 L2176.3906,280.1328 L2176.3906,267.7422 L2184.1094,267.7422 L2184.1094,269.8984 L2178.8438,269.8984 L2178.8438,272.5703 L2183.6094,272.5703 L2183.6094,274.7266 L2178.8438,274.7266 L2178.8438,277.9766 L2184.1094,277.9766 L2184.1094,280.1328 Z " fill="#000000"/><text fill="#000000" font-family="sans-serif" font-size="12" font-style="italic" lengthAdjust="spacing" textLength="132" x="2192" y="270.1387">«masd::enumeration»</text><text fill="#000000" font-family="sans-serif" font-size="14" lengthAdjust="spacing" textLength="105" x="2205.5" y="285.9639">tracing_format</text><line style="stroke:#181818;stroke-width:0.5;" x1="2166" x2="2324" y1="294.2656" y2="294.2656"/><ellipse cx="2176" cy="305.2656" fill="none" rx="3" ry="3" style="stroke:#038048;stroke-width:1.0;"/><text fill="#000000" font-family="sans-serif" font-size="14" lengthAdjust="spacing" textLength="35" x="2185" y="311.2607">plain</text><ellipse cx="2176" cy="321.5625" fill="none" rx="3" ry="3" style="stroke:#038048;stroke-width:1.0;"/><text fill="#000000" font-family="sans-serif" font-size="14" lengthAdjust="spacing" textLength="72" x="2185" y="327.5576">org_mode</text><ellipse cx="2176" cy="337.8594" fill="none" rx="3" ry="3" style="stroke:#038048;stroke-width:1.0;"/><text fill="#000000" font-family="sans-serif" font-size="14" lengthAdjust="spacing" textLength="61" x="2185" y="343.8545">graphviz</text><line style="stroke:#181818;stroke-width:0.5;" x1="2166" x2="2324" y1="351.1563" y2="351.1563"/></g><g id="elem_GMN13"><path d="M2085,63.5 L2085,88.6328 A0,0 0 0 0 2085,88.6328 L2241,88.6328 L2245,253.66 L2249,88.6328 L2405,88.6328 A0,0 0 0 0 2405,88.6328 L2405,73.5 L2395,63.5 L2085,63.5 A0,0 0 0 0 2085,63.5 " fill="#FEFFDD" style="stroke:#181818;stroke-width:0.5;"/><path d="M2395,63.5 L2395,73.5 L2405,73.5 L2395,63.5 " fill="#FEFFDD" style="stroke:#181818;stroke-width:0.5;"/><text fill="#000000" font-family="sans-serif" font-size="13" lengthAdjust="spacing" textLength="299" x="2091" y="80.5669">Available formats for tracing transformations.</text></g><!--MD5=[ad73f7450369e4c8139f4e9746bf5efe]
class diffing_configuration--><g id="elem_diffing_configuration"><rect codeLine="53" fill="#F7E5FF" height="88.8594" id="diffing_configuration" rx="2.5" ry="2.5" style="stroke:#181818;stroke-width:0.5;" width="310" x="2403" y="262"/><ellipse cx="2480.25" cy="282.1328" fill="#ADD1B2" rx="11" ry="11" style="stroke:#181818;stroke-width:1.0;"/><path d="M2483.2188,287.7734 Q2482.6406,288.0703 2482,288.2188 Q2481.3594,288.3672 2480.6563,288.3672 Q2478.1563,288.3672 2476.8359,286.7188 Q2475.5156,285.0703 2475.5156,281.9453 Q2475.5156,278.8203 2476.8359,277.1641 Q2478.1563,275.5078 2480.6563,275.5078 Q2481.3594,275.5078 2482.0078,275.6641 Q2482.6563,275.8203 2483.2188,276.1172 L2483.2188,278.8359 Q2482.5938,278.2578 2482,277.9844 Q2481.4063,277.7109 2480.7813,277.7109 Q2479.4375,277.7109 2478.75,278.7813 Q2478.0625,279.8516 2478.0625,281.9453 Q2478.0625,284.0391 2478.75,285.1094 Q2479.4375,286.1797 2480.7813,286.1797 Q2481.4063,286.1797 2482,285.9063 Q2482.5938,285.6328 2483.2188,285.0547 L2483.2188,287.7734 Z " fill="#000000"/><text fill="#000000" font-family="sans-serif" font-size="12" font-style="italic" lengthAdjust="spacing" textLength="90" x="2529.25" y="278.1387">«masd::fluent»</text><text fill="#000000" font-family="sans-serif" font-size="14" lengthAdjust="spacing" textLength="147" x="2500.75" y="293.9639">diffing_configuration</text><line style="stroke:#181818;stroke-width:0.5;" x1="2404" x2="2712" y1="302.2656" y2="302.2656"/><ellipse cx="2414" cy="313.2656" fill="none" rx="3" ry="3" style="stroke:#038048;stroke-width:1.0;"/><text fill="#000000" font-family="sans-serif" font-size="14" lengthAdjust="spacing" textLength="214" x="2423" y="319.2607">destination diffing_destination</text><ellipse cx="2414" cy="329.5625" fill="none" rx="3" ry="3" style="stroke:#038048;stroke-width:1.0;"/><text fill="#000000" font-family="sans-serif" font-size="14" lengthAdjust="spacing" textLength="284" x="2423" y="335.5576">output_directory boost::filesystem::path</text><line style="stroke:#181818;stroke-width:0.5;" x1="2404" x2="2712" y1="342.8594" y2="342.8594"/></g><g id="elem_GMN17"><path d="M2440.5,63.5 L2440.5,88.6328 A0,0 0 0 0 2440.5,88.6328 L2554,88.6328 L2558,261.82 L2562,88.6328 L2675.5,88.6328 A0,0 0 0 0 2675.5,88.6328 L2675.5,73.5 L2665.5,63.5 L2440.5,63.5 A0,0 0 0 0 2440.5,63.5 " fill="#FEFFDD" style="stroke:#181818;stroke-width:0.5;"/><path d="M2665.5,63.5 L2665.5,73.5 L2675.5,73.5 L2665.5,63.5 " fill="#FEFFDD" style="stroke:#181818;stroke-width:0.5;"/><text fill="#000000" font-family="sans-serif" font-size="13" lengthAdjust="spacing" textLength="214" x="2446.5" y="80.5669">Configuration for diff generation.</text></g><!--MD5=[0347ab94eab96366268c1ddf569cc58d]
class configuration_validator--><g id="elem_configuration_validator"><rect codeLine="62" fill="#FFFACD" height="56.2656" id="configuration_validator" rx="2.5" ry="2.5" style="stroke:#181818;stroke-width:0.5;" width="222" x="821" y="48"/><ellipse cx="836" cy="68.1328" fill="#ADD1B2" rx="11" ry="11" style="stroke:#181818;stroke-width:1.0;"/><path d="M838.9688,73.7734 Q838.3906,74.0703 837.75,74.2188 Q837.1094,74.3672 836.4063,74.3672 Q833.9063,74.3672 832.5859,72.7188 Q831.2656,71.0703 831.2656,67.9453 Q831.2656,64.8203 832.5859,63.1641 Q833.9063,61.5078 836.4063,61.5078 Q837.1094,61.5078 837.7578,61.6641 Q838.4063,61.8203 838.9688,62.1172 L838.9688,64.8359 Q838.3438,64.2578 837.75,63.9844 Q837.1563,63.7109 836.5313,63.7109 Q835.1875,63.7109 834.5,64.7813 Q833.8125,65.8516 833.8125,67.9453 Q833.8125,70.0391 834.5,71.1094 Q835.1875,72.1797 836.5313,72.1797 Q837.1563,72.1797 837.75,71.9063 Q838.3438,71.6328 838.9688,71.0547 L838.9688,73.7734 Z " fill="#000000"/><text fill="#000000" font-family="sans-serif" font-size="12" font-style="italic" lengthAdjust="spacing" textLength="194" x="848" y="64.1387">«dogen::handcrafted::typeable»</text><text fill="#000000" font-family="sans-serif" font-size="14" lengthAdjust="spacing" textLength="165" x="862.5" y="79.9639">configuration_validator</text><line style="stroke:#181818;stroke-width:0.5;" x1="822" x2="1042" y1="88.2656" y2="88.2656"/><line style="stroke:#181818;stroke-width:0.5;" x1="822" x2="1042" y1="96.2656" y2="96.2656"/></g><!--MD5=[8f6643dfaa7402c6364bfd366f6a1812]
class model_processing_configuration--><g id="elem_model_processing_configuration"><rect codeLine="65" fill="#F7E5FF" height="113.1875" id="model_processing_configuration" rx="2.5" ry="2.5" style="stroke:#181818;stroke-width:0.5;" width="345" x="2791.5" y="250"/><ellipse cx="2844.25" cy="266" fill="#ADD1B2" rx="11" ry="11" style="stroke:#181818;stroke-width:1.0;"/><path d="M2847.2188,271.6406 Q2846.6406,271.9375 2846,272.0859 Q2845.3594,272.2344 2844.6563,272.2344 Q2842.1563,272.2344 2840.8359,270.5859 Q2839.5156,268.9375 2839.5156,265.8125 Q2839.5156,262.6875 2840.8359,261.0313 Q2842.1563,259.375 2844.6563,259.375 Q2845.3594,259.375 2846.0078,259.5313 Q2846.6563,259.6875 2847.2188,259.9844 L2847.2188,262.7031 Q2846.5938,262.125 2846,261.8516 Q2845.4063,261.5781 2844.7813,261.5781 Q2843.4375,261.5781 2842.75,262.6484 Q2842.0625,263.7188 2842.0625,265.8125 Q2842.0625,267.9063 2842.75,268.9766 Q2843.4375,270.0469 2844.7813,270.0469 Q2845.4063,270.0469 2846,269.7734 Q2846.5938,269.5 2847.2188,268.9219 L2847.2188,271.6406 Z " fill="#000000"/><text fill="#000000" font-family="sans-serif" font-size="14" lengthAdjust="spacing" textLength="231" x="2864.75" y="270.8467">model_processing_configuration</text><line style="stroke:#181818;stroke-width:0.5;" x1="2792.5" x2="3135.5" y1="282" y2="282"/><ellipse cx="2802.5" cy="293" fill="none" rx="3" ry="3" style="stroke:#038048;stroke-width:1.0;"/><text fill="#000000" font-family="sans-serif" font-size="14" lengthAdjust="spacing" textLength="240" x="2811.5" y="298.9951">compatibility_mode_enabled bool</text><ellipse cx="2802.5" cy="309.2969" fill="none" rx="3" ry="3" style="stroke:#038048;stroke-width:1.0;"/><text fill="#000000" font-family="sans-serif" font-size="14" lengthAdjust="spacing" textLength="202" x="2811.5" y="315.292">dry_run_mode_enabled bool</text><ellipse cx="2802.5" cy="325.5938" fill="none" rx="3" ry="3" style="stroke:#038048;stroke-width:1.0;"/><text fill="#000000" font-family="sans-serif" font-size="14" lengthAdjust="spacing" textLength="319" x="2811.5" y="331.5889">variability_overrides std::vector&lt;std::string&gt;</text><ellipse cx="2802.5" cy="341.8906" fill="none" rx="3" ry="3" style="stroke:#038048;stroke-width:1.0;"/><text fill="#000000" font-family="sans-serif" font-size="14" lengthAdjust="spacing" textLength="314" x="2811.5" y="347.8857">activity_timestamp boost::posix_time::ptime</text><line style="stroke:#181818;stroke-width:0.5;" x1="2792.5" x2="3135.5" y1="355.1875" y2="355.1875"/></g><g id="elem_GMN22"><path d="M2711,63.5 L2711,88.6328 A0,0 0 0 0 2711,88.6328 L2960,88.6328 L2964,249.92 L2968,88.6328 L3217,88.6328 A0,0 0 0 0 3217,88.6328 L3217,73.5 L3207,63.5 L2711,63.5 A0,0 0 0 0 2711,63.5 " fill="#FEFFDD" style="stroke:#181818;stroke-width:0.5;"/><path d="M3207,63.5 L3207,73.5 L3217,73.5 L3207,63.5 " fill="#FEFFDD" style="stroke:#181818;stroke-width:0.5;"/><text fill="#000000" font-family="sans-serif" font-size="13" lengthAdjust="spacing" textLength="485" x="2717" y="80.5669">Configuration related to the behaviour of Dogen whilst processing models.</text></g><!--MD5=[d776d5b2a207654eee05b4922e1b86ee]
class invalid_configuration_exception--><g id="elem_invalid_configuration_exception"><rect codeLine="76" fill="#E8C2F8" height="56.2656" id="invalid_configuration_exception" rx="2.5" ry="2.5" style="stroke:#181818;stroke-width:0.5;" width="258" x="3312" y="278.5"/><ellipse cx="3327" cy="298.6328" fill="#ADD1B2" rx="11" ry="11" style="stroke:#181818;stroke-width:1.0;"/><path d="M3329.9688,304.2734 Q3329.3906,304.5703 3328.75,304.7188 Q3328.1094,304.8672 3327.4063,304.8672 Q3324.9063,304.8672 3323.5859,303.2188 Q3322.2656,301.5703 3322.2656,298.4453 Q3322.2656,295.3203 3323.5859,293.6641 Q3324.9063,292.0078 3327.4063,292.0078 Q3328.1094,292.0078 3328.7578,292.1641 Q3329.4063,292.3203 3329.9688,292.6172 L3329.9688,295.3359 Q3329.3438,294.7578 3328.75,294.4844 Q3328.1563,294.2109 3327.5313,294.2109 Q3326.1875,294.2109 3325.5,295.2813 Q3324.8125,296.3516 3324.8125,298.4453 Q3324.8125,300.5391 3325.5,301.6094 Q3326.1875,302.6797 3327.5313,302.6797 Q3328.1563,302.6797 3328.75,302.4063 Q3329.3438,302.1328 3329.9688,301.5547 L3329.9688,304.2734 Z " fill="#000000"/><text fill="#000000" font-family="sans-serif" font-size="12" font-style="italic" lengthAdjust="spacing" textLength="114" x="3397" y="294.6387">«masd::exception»</text><text fill="#000000" font-family="sans-serif" font-size="14" lengthAdjust="spacing" textLength="226" x="3341" y="310.4639">invalid_configuration_exception</text><line style="stroke:#181818;stroke-width:0.5;" x1="3313" x2="3569" y1="318.7656" y2="318.7656"/><line style="stroke:#181818;stroke-width:0.5;" x1="3313" x2="3569" y1="326.7656" y2="326.7656"/></g><g id="elem_GMN26"><path d="M3252,63.5 L3252,88.6328 A0,0 0 0 0 3252,88.6328 L3437,88.6328 L3441,278.16 L3445,88.6328 L3630,88.6328 A0,0 0 0 0 3630,88.6328 L3630,73.5 L3620,63.5 L3252,63.5 A0,0 0 0 0 3252,63.5 " fill="#FEFFDD" style="stroke:#181818;stroke-width:0.5;"/><path d="M3620,63.5 L3620,73.5 L3630,73.5 L3620,63.5 " fill="#FEFFDD" style="stroke:#181818;stroke-width:0.5;"/><text fill="#000000" font-family="sans-serif" font-size="13" lengthAdjust="spacing" textLength="357" x="3258" y="80.5669">The values supplied for the configuration are not valid.</text></g><!--MD5=[dd71179583cce17ecb14726d47c32e81]
class generator--><g id="elem_generator"><rect codeLine="83" fill="#FFFACD" height="56.2656" id="generator" rx="2.5" ry="2.5" style="stroke:#181818;stroke-width:0.5;" width="303" x="1078.5" y="48"/><ellipse cx="1093.5" cy="68.1328" fill="#ADD1B2" rx="11" ry="11" style="stroke:#181818;stroke-width:1.0;"/><path d="M1096.4688,73.7734 Q1095.8906,74.0703 1095.25,74.2188 Q1094.6094,74.3672 1093.9063,74.3672 Q1091.4063,74.3672 1090.0859,72.7188 Q1088.7656,71.0703 1088.7656,67.9453 Q1088.7656,64.8203 1090.0859,63.1641 Q1091.4063,61.5078 1093.9063,61.5078 Q1094.6094,61.5078 1095.2578,61.6641 Q1095.9063,61.8203 1096.4688,62.1172 L1096.4688,64.8359 Q1095.8438,64.2578 1095.25,63.9844 Q1094.6563,63.7109 1094.0313,63.7109 Q1092.6875,63.7109 1092,64.7813 Q1091.3125,65.8516 1091.3125,67.9453 Q1091.3125,70.0391 1092,71.1094 Q1092.6875,72.1797 1094.0313,72.1797 Q1094.6563,72.1797 1095.25,71.9063 Q1095.8438,71.6328 1096.4688,71.0547 L1096.4688,73.7734 Z " fill="#000000"/><text fill="#000000" font-family="sans-serif" font-size="12" font-style="italic" lengthAdjust="spacing" textLength="275" x="1105.5" y="64.1387">«dogen::handcrafted::typeable::header_only»</text><text fill="#000000" font-family="sans-serif" font-size="14" lengthAdjust="spacing" textLength="71" x="1207.5" y="79.9639">generator</text><line style="stroke:#181818;stroke-width:0.5;" x1="1079.5" x2="1380.5" y1="88.2656" y2="88.2656"/><line style="stroke:#181818;stroke-width:0.5;" x1="1079.5" x2="1380.5" y1="96.2656" y2="96.2656"/></g><!--MD5=[28d2d70932dfaa0fc9ca4145a3e35f21]
class converter--><g id="elem_converter"><rect codeLine="86" fill="#FFFACD" height="56.2656" id="converter" rx="2.5" ry="2.5" style="stroke:#181818;stroke-width:0.5;" width="303" x="35.5" y="278.5"/><ellipse cx="50.5" cy="298.6328" fill="#ADD1B2" rx="11" ry="11" style="stroke:#181818;stroke-width:1.0;"/><path d="M53.4688,304.2734 Q52.8906,304.5703 52.25,304.7188 Q51.6094,304.8672 50.9063,304.8672 Q48.4063,304.8672 47.0859,303.2188 Q45.7656,301.5703 45.7656,298.4453 Q45.7656,295.3203 47.0859,293.6641 Q48.4063,292.0078 50.9063,292.0078 Q51.6094,292.0078 52.2578,292.1641 Q52.9063,292.3203 53.4688,292.6172 L53.4688,295.3359 Q52.8438,294.7578 52.25,294.4844 Q51.6563,294.2109 51.0313,294.2109 Q49.6875,294.2109 49,295.2813 Q48.3125,296.3516 48.3125,298.4453 Q48.3125,300.5391 49,301.6094 Q49.6875,302.6797 51.0313,302.6797 Q51.6563,302.6797 52.25,302.4063 Q52.8438,302.1328 53.4688,301.5547 L53.4688,304.2734 Z " fill="#000000"/><text fill="#000000" font-family="sans-serif" font-size="12" font-style="italic" lengthAdjust="spacing" textLength="275" x="62.5" y="294.6387">«dogen::handcrafted::typeable::header_only»</text><text fill="#000000" font-family="sans-serif" font-size="14" lengthAdjust="spacing" textLength="69" x="165.5" y="310.4639">converter</text><line style="stroke:#181818;stroke-width:0.5;" x1="36.5" x2="337.5" y1="318.7656" y2="318.7656"/><line style="stroke:#181818;stroke-width:0.5;" x1="36.5" x2="337.5" y1="326.7656" y2="326.7656"/></g><!--MD5=[3e1b7490b2491d37263a8baa13a128f3]
class generation_exception--><g id="elem_generation_exception"><rect codeLine="89" fill="#E8C2F8" height="56.2656" id="generation_exception" rx="2.5" ry="2.5" style="stroke:#181818;stroke-width:0.5;" width="187" x="373.5" y="278.5"/><ellipse cx="388.5" cy="298.6328" fill="#ADD1B2" rx="11" ry="11" style="stroke:#181818;stroke-width:1.0;"/><path d="M391.4688,304.2734 Q390.8906,304.5703 390.25,304.7188 Q389.6094,304.8672 388.9063,304.8672 Q386.4063,304.8672 385.0859,303.2188 Q383.7656,301.5703 383.7656,298.4453 Q383.7656,295.3203 385.0859,293.6641 Q386.4063,292.0078 388.9063,292.0078 Q389.6094,292.0078 390.2578,292.1641 Q390.9063,292.3203 391.4688,292.6172 L391.4688,295.3359 Q390.8438,294.7578 390.25,294.4844 Q389.6563,294.2109 389.0313,294.2109 Q387.6875,294.2109 387,295.2813 Q386.3125,296.3516 386.3125,298.4453 Q386.3125,300.5391 387,301.6094 Q387.6875,302.6797 389.0313,302.6797 Q389.6563,302.6797 390.25,302.4063 Q390.8438,302.1328 391.4688,301.5547 L391.4688,304.2734 Z " fill="#000000"/><text fill="#000000" font-family="sans-serif" font-size="12" font-style="italic" lengthAdjust="spacing" textLength="114" x="423" y="294.6387">«masd::exception»</text><text fill="#000000" font-family="sans-serif" font-size="14" lengthAdjust="spacing" textLength="155" x="402.5" y="310.4639">generation_exception</text><line style="stroke:#181818;stroke-width:0.5;" x1="374.5" x2="559.5" y1="318.7656" y2="318.7656"/><line style="stroke:#181818;stroke-width:0.5;" x1="374.5" x2="559.5" y1="326.7656" y2="326.7656"/></g><!--MD5=[3d7166f7ff254cffc294bb9eb8155bcd]
class conversion_exception--><g id="elem_conversion_exception"><rect codeLine="92" fill="#E8C2F8" height="56.2656" id="conversion_exception" rx="2.5" ry="2.5" style="stroke:#181818;stroke-width:0.5;" width="187" x="595.5" y="278.5"/><ellipse cx="610.5" cy="298.6328" fill="#ADD1B2" rx="11" ry="11" style="stroke:#181818;stroke-width:1.0;"/><path d="M613.4688,304.2734 Q612.8906,304.5703 612.25,304.7188 Q611.6094,304.8672 610.9063,304.8672 Q608.4063,304.8672 607.0859,303.2188 Q605.7656,301.5703 605.7656,298.4453 Q605.7656,295.3203 607.0859,293.6641 Q608.4063,292.0078 610.9063,292.0078 Q611.6094,292.0078 612.2578,292.1641 Q612.9063,292.3203 613.4688,292.6172 L613.4688,295.3359 Q612.8438,294.7578 612.25,294.4844 Q611.6563,294.2109 611.0313,294.2109 Q609.6875,294.2109 609,295.2813 Q608.3125,296.3516 608.3125,298.4453 Q608.3125,300.5391 609,301.6094 Q609.6875,302.6797 611.0313,302.6797 Q611.6563,302.6797 612.25,302.4063 Q612.8438,302.1328 613.4688,301.5547 L613.4688,304.2734 Z " fill="#000000"/><text fill="#000000" font-family="sans-serif" font-size="12" font-style="italic" lengthAdjust="spacing" textLength="114" x="645" y="294.6387">«masd::exception»</text><text fill="#000000" font-family="sans-serif" font-size="14" lengthAdjust="spacing" textLength="155" x="624.5" y="310.4639">conversion_exception</text><line style="stroke:#181818;stroke-width:0.5;" x1="596.5" x2="781.5" y1="318.7656" y2="318.7656"/><line style="stroke:#181818;stroke-width:0.5;" x1="596.5" x2="781.5" y1="326.7656" y2="326.7656"/></g><!--MD5=[799bbfb4c7b5c4b7795f253a5e57134a]
class diffing_destination--><g id="elem_diffing_destination"><rect codeLine="95" fill="#F2DAFD" height="88.8594" id="diffing_destination" rx="2.5" ry="2.5" style="stroke:#181818;stroke-width:0.5;" width="163" x="3704.5" y="262"/><ellipse cx="3719.5" cy="282.1328" fill="#EB937F" rx="11" ry="11" style="stroke:#181818;stroke-width:1.0;"/><path d="M3723.6094,288.1328 L3715.8906,288.1328 L3715.8906,275.7422 L3723.6094,275.7422 L3723.6094,277.8984 L3718.3438,277.8984 L3718.3438,280.5703 L3723.1094,280.5703 L3723.1094,282.7266 L3718.3438,282.7266 L3718.3438,285.9766 L3723.6094,285.9766 L3723.6094,288.1328 Z " fill="#000000"/><text fill="#000000" font-family="sans-serif" font-size="12" font-style="italic" lengthAdjust="spacing" textLength="132" x="3733" y="278.1387">«masd::enumeration»</text><text fill="#000000" font-family="sans-serif" font-size="14" lengthAdjust="spacing" textLength="131" x="3733.5" y="293.9639">diffing_destination</text><line style="stroke:#181818;stroke-width:0.5;" x1="3705.5" x2="3866.5" y1="302.2656" y2="302.2656"/><ellipse cx="3715.5" cy="313.2656" fill="none" rx="3" ry="3" style="stroke:#038048;stroke-width:1.0;"/><text fill="#000000" font-family="sans-serif" font-size="14" lengthAdjust="spacing" textLength="22" x="3724.5" y="319.2607">file</text><ellipse cx="3715.5" cy="329.5625" fill="none" rx="3" ry="3" style="stroke:#038048;stroke-width:1.0;"/><text fill="#000000" font-family="sans-serif" font-size="14" lengthAdjust="spacing" textLength="55" x="3724.5" y="335.5576">console</text><line style="stroke:#181818;stroke-width:0.5;" x1="3705.5" x2="3866.5" y1="342.8594" y2="342.8594"/></g><g id="elem_GMN34"><path d="M3665,63.5 L3665,88.6328 A0,0 0 0 0 3665,88.6328 L3782,88.6328 L3786,261.82 L3790,88.6328 L3907,88.6328 A0,0 0 0 0 3907,88.6328 L3907,73.5 L3897,63.5 L3665,63.5 A0,0 0 0 0 3665,63.5 " fill="#FEFFDD" style="stroke:#181818;stroke-width:0.5;"/><path d="M3897,63.5 L3897,73.5 L3907,73.5 L3897,63.5 " fill="#FEFFDD" style="stroke:#181818;stroke-width:0.5;"/><text fill="#000000" font-family="sans-serif" font-size="13" lengthAdjust="spacing" textLength="221" x="3671" y="80.5669">Where to place the diffing results.</text></g><!--MD5=[9270ed24ca34f881e9b5b00f45e89d59]
class reporting_configuration--><g id="elem_reporting_configuration"><rect codeLine="104" fill="#F7E5FF" height="80.5938" id="reporting_configuration" rx="2.5" ry="2.5" style="stroke:#181818;stroke-width:0.5;" width="310" x="3941" y="266"/><ellipse cx="4007.75" cy="282" fill="#ADD1B2" rx="11" ry="11" style="stroke:#181818;stroke-width:1.0;"/><path d="M4010.7188,287.6406 Q4010.1406,287.9375 4009.5,288.0859 Q4008.8594,288.2344 4008.1563,288.2344 Q4005.6563,288.2344 4004.3359,286.5859 Q4003.0156,284.9375 4003.0156,281.8125 Q4003.0156,278.6875 4004.3359,277.0313 Q4005.6563,275.375 4008.1563,275.375 Q4008.8594,275.375 4009.5078,275.5313 Q4010.1563,275.6875 4010.7188,275.9844 L4010.7188,278.7031 Q4010.0938,278.125 4009.5,277.8516 Q4008.9063,277.5781 4008.2813,277.5781 Q4006.9375,277.5781 4006.25,278.6484 Q4005.5625,279.7188 4005.5625,281.8125 Q4005.5625,283.9063 4006.25,284.9766 Q4006.9375,286.0469 4008.2813,286.0469 Q4008.9063,286.0469 4009.5,285.7734 Q4010.0938,285.5 4010.7188,284.9219 L4010.7188,287.6406 Z " fill="#000000"/><text fill="#000000" font-family="sans-serif" font-size="14" lengthAdjust="spacing" textLength="168" x="4028.25" y="286.8467">reporting_configuration</text><line style="stroke:#181818;stroke-width:0.5;" x1="3942" x2="4250" y1="298" y2="298"/><ellipse cx="3952" cy="309" fill="none" rx="3" ry="3" style="stroke:#038048;stroke-width:1.0;"/><text fill="#000000" font-family="sans-serif" font-size="14" lengthAdjust="spacing" textLength="143" x="3961" y="314.9951">style reporting_style</text><ellipse cx="3952" cy="325.2969" fill="none" rx="3" ry="3" style="stroke:#038048;stroke-width:1.0;"/><text fill="#000000" font-family="sans-serif" font-size="14" lengthAdjust="spacing" textLength="284" x="3961" y="331.292">output_directory boost::filesystem::path</text><line style="stroke:#181818;stroke-width:0.5;" x1="3942" x2="4250" y1="338.5938" y2="338.5938"/></g><g id="elem_GMN38"><path d="M3942,63.5 L3942,88.6328 A0,0 0 0 0 3942,88.6328 L4092,88.6328 L4096,265.94 L4100,88.6328 L4250,88.6328 A0,0 0 0 0 4250,88.6328 L4250,73.5 L4240,63.5 L3942,63.5 A0,0 0 0 0 3942,63.5 " fill="#FEFFDD" style="stroke:#181818;stroke-width:0.5;"/><path d="M4240,63.5 L4240,73.5 L4250,73.5 L4240,63.5 " fill="#FEFFDD" style="stroke:#181818;stroke-width:0.5;"/><text fill="#000000" font-family="sans-serif" font-size="13" lengthAdjust="spacing" textLength="287" x="3948" y="80.5669">Configuration related to operational reports.</text></g><!--MD5=[b60d70193a7fd1934cdfbe3f457c9e50]
class reporting_style--><g id="elem_reporting_style"><rect codeLine="113" fill="#F2DAFD" height="88.8594" id="reporting_style" rx="2.5" ry="2.5" style="stroke:#181818;stroke-width:0.5;" width="281" x="4290.5" y="262"/><ellipse cx="4305.5" cy="282.1328" fill="#EB937F" rx="11" ry="11" style="stroke:#181818;stroke-width:1.0;"/><path d="M4309.6094,288.1328 L4301.8906,288.1328 L4301.8906,275.7422 L4309.6094,275.7422 L4309.6094,277.8984 L4304.3438,277.8984 L4304.3438,280.5703 L4309.1094,280.5703 L4309.1094,282.7266 L4304.3438,282.7266 L4304.3438,285.9766 L4309.6094,285.9766 L4309.6094,288.1328 Z " fill="#000000"/><text fill="#000000" font-family="sans-serif" font-size="12" font-style="italic" lengthAdjust="spacing" textLength="253" x="4317.5" y="278.1387">«masd::enumeration, dogen::convertible»</text><text fill="#000000" font-family="sans-serif" font-size="14" lengthAdjust="spacing" textLength="106" x="4391" y="293.9639">reporting_style</text><line style="stroke:#181818;stroke-width:0.5;" x1="4291.5" x2="4570.5" y1="302.2656" y2="302.2656"/><ellipse cx="4301.5" cy="313.2656" fill="none" rx="3" ry="3" style="stroke:#038048;stroke-width:1.0;"/><text fill="#000000" font-family="sans-serif" font-size="14" lengthAdjust="spacing" textLength="35" x="4310.5" y="319.2607">plain</text><ellipse cx="4301.5" cy="329.5625" fill="none" rx="3" ry="3" style="stroke:#038048;stroke-width:1.0;"/><text fill="#000000" font-family="sans-serif" font-size="14" lengthAdjust="spacing" textLength="72" x="4310.5" y="335.5576">org_mode</text><line style="stroke:#181818;stroke-width:0.5;" x1="4291.5" x2="4570.5" y1="342.8594" y2="342.8594"/></g><g id="elem_GMN42"><path d="M4285.5,63.5 L4285.5,88.6328 A0,0 0 0 0 4285.5,88.6328 L4427,88.6328 L4431,261.82 L4435,88.6328 L4576.5,88.6328 A0,0 0 0 0 4576.5,88.6328 L4576.5,73.5 L4566.5,63.5 L4285.5,63.5 A0,0 0 0 0 4285.5,63.5 " fill="#FEFFDD" style="stroke:#181818;stroke-width:0.5;"/><path d="M4566.5,63.5 L4566.5,73.5 L4576.5,73.5 L4566.5,63.5 " fill="#FEFFDD" style="stroke:#181818;stroke-width:0.5;"/><text fill="#000000" font-family="sans-serif" font-size="13" lengthAdjust="spacing" textLength="270" x="4291.5" y="80.5669">Available formats for operational reports.</text></g><!--MD5=[c457d9d34a23ae221ea9b84eefbe32ca]
class mock_configuration_factory--><g id="elem_mock_configuration_factory"><rect codeLine="122" fill="#FFFACD" height="56.2656" id="mock_configuration_factory" rx="2.5" ry="2.5" style="stroke:#181818;stroke-width:0.5;" width="230" x="4650" y="278.5"/><ellipse cx="4665" cy="298.6328" fill="#ADD1B2" rx="11" ry="11" style="stroke:#181818;stroke-width:1.0;"/><path d="M4667.9688,304.2734 Q4667.3906,304.5703 4666.75,304.7188 Q4666.1094,304.8672 4665.4063,304.8672 Q4662.9063,304.8672 4661.5859,303.2188 Q4660.2656,301.5703 4660.2656,298.4453 Q4660.2656,295.3203 4661.5859,293.6641 Q4662.9063,292.0078 4665.4063,292.0078 Q4666.1094,292.0078 4666.7578,292.1641 Q4667.4063,292.3203 4667.9688,292.6172 L4667.9688,295.3359 Q4667.3438,294.7578 4666.75,294.4844 Q4666.1563,294.2109 4665.5313,294.2109 Q4664.1875,294.2109 4663.5,295.2813 Q4662.8125,296.3516 4662.8125,298.4453 Q4662.8125,300.5391 4663.5,301.6094 Q4664.1875,302.6797 4665.5313,302.6797 Q4666.1563,302.6797 4666.75,302.4063 Q4667.3438,302.1328 4667.9688,301.5547 L4667.9688,304.2734 Z " fill="#000000"/><text fill="#000000" font-family="sans-serif" font-size="12" font-style="italic" lengthAdjust="spacing" textLength="194" x="4681" y="294.6387">«dogen::handcrafted::typeable»</text><text fill="#000000" font-family="sans-serif" font-size="14" lengthAdjust="spacing" textLength="198" x="4679" y="310.4639">mock_configuration_factory</text><line style="stroke:#181818;stroke-width:0.5;" x1="4651" x2="4879" y1="318.7656" y2="318.7656"/><line style="stroke:#181818;stroke-width:0.5;" x1="4651" x2="4879" y1="326.7656" y2="326.7656"/></g><g id="elem_GMN46"><path d="M4612,63.5 L4612,88.6328 A0,0 0 0 0 4612,88.6328 L4761,88.6328 L4765,278.16 L4769,88.6328 L4918,88.6328 A0,0 0 0 0 4918,88.6328 L4918,73.5 L4908,63.5 L4612,63.5 A0,0 0 0 0 4612,63.5 " fill="#FEFFDD" style="stroke:#181818;stroke-width:0.5;"/><path d="M4908,63.5 L4908,73.5 L4918,73.5 L4908,63.5 " fill="#FEFFDD" style="stroke:#181818;stroke-width:0.5;"/><text fill="#000000" font-family="sans-serif" font-size="13" lengthAdjust="spacing" textLength="285" x="4618" y="80.5669">Creates configurations for testing purposes.</text></g><!--MD5=[fbb74870578342435104c9bb5e6dc974]
class tracing_backend--><g id="elem_tracing_backend"><rect codeLine="129" fill="#F2DAFD" height="72.5625" id="tracing_backend" rx="2.5" ry="2.5" style="stroke:#181818;stroke-width:0.5;" width="160" x="5051" y="270"/><ellipse cx="5066" cy="290.1328" fill="#EB937F" rx="11" ry="11" style="stroke:#181818;stroke-width:1.0;"/><path d="M5070.1094,296.1328 L5062.3906,296.1328 L5062.3906,283.7422 L5070.1094,283.7422 L5070.1094,285.8984 L5064.8438,285.8984 L5064.8438,288.5703 L5069.6094,288.5703 L5069.6094,290.7266 L5064.8438,290.7266 L5064.8438,293.9766 L5070.1094,293.9766 L5070.1094,296.1328 Z " fill="#000000"/><text fill="#000000" font-family="sans-serif" font-size="12" font-style="italic" lengthAdjust="spacing" textLength="132" x="5078" y="286.1387">«masd::enumeration»</text><text fill="#000000" font-family="sans-serif" font-size="14" lengthAdjust="spacing" textLength="118" x="5085" y="301.9639">tracing_backend</text><line style="stroke:#181818;stroke-width:0.5;" x1="5052" x2="5210" y1="310.2656" y2="310.2656"/><ellipse cx="5062" cy="321.2656" fill="none" rx="3" ry="3" style="stroke:#038048;stroke-width:1.0;"/><text fill="#000000" font-family="sans-serif" font-size="14" lengthAdjust="spacing" textLength="22" x="5071" y="327.2607">file</text><line style="stroke:#181818;stroke-width:0.5;" x1="5052" x2="5210" y1="334.5625" y2="334.5625"/></g><g id="elem_GMN50"><path d="M4953.5,63.5 L4953.5,88.6328 A0,0 0 0 0 4953.5,88.6328 L5127,88.6328 L5131,269.91 L5135,88.6328 L5308.5,88.6328 A0,0 0 0 0 5308.5,88.6328 L5308.5,73.5 L5298.5,63.5 L4953.5,63.5 A0,0 0 0 0 4953.5,63.5 " fill="#FEFFDD" style="stroke:#181818;stroke-width:0.5;"/><path d="M5298.5,63.5 L5298.5,73.5 L5308.5,73.5 L5298.5,63.5 " fill="#FEFFDD" style="stroke:#181818;stroke-width:0.5;"/><text fill="#000000" font-family="sans-serif" font-size="13" lengthAdjust="spacing" textLength="334" x="4959.5" y="80.5669">Available backends to manage tracing information.</text></g><!--MD5=[4520fda4e10d4d791ce48fe025810cd4]
class main--><g id="elem_main"><rect codeLine="137" fill="#DDA9F3" height="56.2656" id="main" rx="2.5" ry="2.5" style="stroke:#181818;stroke-width:0.5;" width="267" x="817.5" y="278.5"/><ellipse cx="832.5" cy="298.6328" fill="#ADD1B2" rx="11" ry="11" style="stroke:#181818;stroke-width:1.0;"/><path d="M835.4688,304.2734 Q834.8906,304.5703 834.25,304.7188 Q833.6094,304.8672 832.9063,304.8672 Q830.4063,304.8672 829.0859,303.2188 Q827.7656,301.5703 827.7656,298.4453 Q827.7656,295.3203 829.0859,293.6641 Q830.4063,292.0078 832.9063,292.0078 Q833.6094,292.0078 834.2578,292.1641 Q834.9063,292.3203 835.4688,292.6172 L835.4688,295.3359 Q834.8438,294.7578 834.25,294.4844 Q833.6563,294.2109 833.0313,294.2109 Q831.6875,294.2109 831,295.2813 Q830.3125,296.3516 830.3125,298.4453 Q830.3125,300.5391 831,301.6094 Q831.6875,302.6797 833.0313,302.6797 Q833.6563,302.6797 834.25,302.4063 Q834.8438,302.1328 835.4688,301.5547 L835.4688,304.2734 Z " fill="#000000"/><text fill="#000000" font-family="sans-serif" font-size="12" font-style="italic" lengthAdjust="spacing" textLength="239" x="844.5" y="294.6387">«masd::entry_point, dogen::untypable»</text><text fill="#000000" font-family="sans-serif" font-size="14" lengthAdjust="spacing" textLength="36" x="946" y="310.4639">main</text><line style="stroke:#181818;stroke-width:0.5;" x1="818.5" x2="1083.5" y1="318.7656" y2="318.7656"/><line style="stroke:#181818;stroke-width:0.5;" x1="818.5" x2="1083.5" y1="326.7656" y2="326.7656"/></g><!--MD5=[ba83386d426114557685538e96aa6f68]
class CMakeLists--><g id="elem_CMakeLists"><rect codeLine="140" fill="#99CB99" height="56.2656" id="CMakeLists" rx="2.5" ry="2.5" style="stroke:#181818;stroke-width:0.5;" width="360" x="7" y="468"/><ellipse cx="22" cy="488.1328" fill="#ADD1B2" rx="11" ry="11" style="stroke:#181818;stroke-width:1.0;"/><path d="M24.9688,493.7734 Q24.3906,494.0703 23.75,494.2188 Q23.1094,494.3672 22.4063,494.3672 Q19.9063,494.3672 18.5859,492.7188 Q17.2656,491.0703 17.2656,487.9453 Q17.2656,484.8203 18.5859,483.1641 Q19.9063,481.5078 22.4063,481.5078 Q23.1094,481.5078 23.7578,481.6641 Q24.4063,481.8203 24.9688,482.1172 L24.9688,484.8359 Q24.3438,484.2578 23.75,483.9844 Q23.1563,483.7109 22.5313,483.7109 Q21.1875,483.7109 20.5,484.7813 Q19.8125,485.8516 19.8125,487.9453 Q19.8125,490.0391 20.5,491.1094 Q21.1875,492.1797 22.5313,492.1797 Q23.1563,492.1797 23.75,491.9063 Q24.3438,491.6328 24.9688,491.0547 L24.9688,493.7734 Z " fill="#000000"/><text fill="#000000" font-family="sans-serif" font-size="12" font-style="italic" lengthAdjust="spacing" textLength="332" x="34" y="484.1387">«masd::build::cmakelists, dogen::handcrafted::cmake»</text><text fill="#000000" font-family="sans-serif" font-size="14" lengthAdjust="spacing" textLength="79" x="160.5" y="499.9639">CMakeLists</text><line style="stroke:#181818;stroke-width:0.5;" x1="8" x2="366" y1="508.2656" y2="508.2656"/><line style="stroke:#181818;stroke-width:0.5;" x1="8" x2="366" y1="516.2656" y2="516.2656"/></g><!--MD5=[105a505edc8a5c4d60d82ad588e9620c]
class specs--><g id="elem_specs"><rect codeLine="143" fill="#F7E5FF" height="64.2969" id="specs" rx="2.5" ry="2.5" style="stroke:#181818;stroke-width:0.5;" width="283" x="5460.5" y="274.5"/><ellipse cx="5577.75" cy="290.5" fill="#ADD1B2" rx="11" ry="11" style="stroke:#181818;stroke-width:1.0;"/><path d="M5580.7188,296.1406 Q5580.1406,296.4375 5579.5,296.5859 Q5578.8594,296.7344 5578.1563,296.7344 Q5575.6563,296.7344 5574.3359,295.0859 Q5573.0156,293.4375 5573.0156,290.3125 Q5573.0156,287.1875 5574.3359,285.5313 Q5575.6563,283.875 5578.1563,283.875 Q5578.8594,283.875 5579.5078,284.0313 Q5580.1563,284.1875 5580.7188,284.4844 L5580.7188,287.2031 Q5580.0938,286.625 5579.5,286.3516 Q5578.9063,286.0781 5578.2813,286.0781 Q5576.9375,286.0781 5576.25,287.1484 Q5575.5625,288.2188 5575.5625,290.3125 Q5575.5625,292.4063 5576.25,293.4766 Q5576.9375,294.5469 5578.2813,294.5469 Q5578.9063,294.5469 5579.5,294.2734 Q5580.0938,294 5580.7188,293.4219 L5580.7188,296.1406 Z " fill="#000000"/><text fill="#000000" font-family="sans-serif" font-size="14" lengthAdjust="spacing" textLength="40" x="5598.25" y="295.3467">specs</text><line style="stroke:#181818;stroke-width:0.5;" x1="5461.5" x2="5742.5" y1="306.5" y2="306.5"/><ellipse cx="5471.5" cy="317.5" fill="none" rx="3" ry="3" style="stroke:#038048;stroke-width:1.0;"/><text fill="#000000" font-family="sans-serif" font-size="14" lengthAdjust="spacing" textLength="257" x="5480.5" y="323.4951">categories std::list&lt;spec_category&gt;</text><line style="stroke:#181818;stroke-width:0.5;" x1="5461.5" x2="5742.5" y1="330.7969" y2="330.7969"/></g><g id="elem_GMN56"><path d="M5344,63.5 L5344,88.6328 A0,0 0 0 0 5344,88.6328 L5598,88.6328 L5602,274.14 L5606,88.6328 L5860,88.6328 A0,0 0 0 0 5860,88.6328 L5860,73.5 L5850,63.5 L5344,63.5 A0,0 0 0 0 5344,63.5 " fill="#FEFFDD" style="stroke:#181818;stroke-width:0.5;"/><path d="M5850,63.5 L5850,73.5 L5860,73.5 L5850,63.5 " fill="#FEFFDD" style="stroke:#181818;stroke-width:0.5;"/><text fill="#000000" font-family="sans-serif" font-size="13" lengthAdjust="spacing" textLength="495" x="5350" y="80.5669">Describes details of the available functionality within this version of Dogen.</text></g><!--MD5=[3aac644925f872a7240ca70aee1367c9]
class spec_category--><g id="elem_spec_category"><rect codeLine="151" fill="#F7E5FF" height="96.8906" id="spec_category" rx="2.5" ry="2.5" style="stroke:#181818;stroke-width:0.5;" width="231" x="5938.5" y="258"/><ellipse cx="5998.25" cy="274" fill="#ADD1B2" rx="11" ry="11" style="stroke:#181818;stroke-width:1.0;"/><path d="M6001.2188,279.6406 Q6000.6406,279.9375 6000,280.0859 Q5999.3594,280.2344 5998.6563,280.2344 Q5996.1563,280.2344 5994.8359,278.5859 Q5993.5156,276.9375 5993.5156,273.8125 Q5993.5156,270.6875 5994.8359,269.0313 Q5996.1563,267.375 5998.6563,267.375 Q5999.3594,267.375 6000.0078,267.5313 Q6000.6563,267.6875 6001.2188,267.9844 L6001.2188,270.7031 Q6000.5938,270.125 6000,269.8516 Q5999.4063,269.5781 5998.7813,269.5781 Q5997.4375,269.5781 5996.75,270.6484 Q5996.0625,271.7188 5996.0625,273.8125 Q5996.0625,275.9063 5996.75,276.9766 Q5997.4375,278.0469 5998.7813,278.0469 Q5999.4063,278.0469 6000,277.7734 Q6000.5938,277.5 6001.2188,276.9219 L6001.2188,279.6406 Z " fill="#000000"/><text fill="#000000" font-family="sans-serif" font-size="14" lengthAdjust="spacing" textLength="103" x="6018.75" y="278.8467">spec_category</text><line style="stroke:#181818;stroke-width:0.5;" x1="5939.5" x2="6168.5" y1="290" y2="290"/><ellipse cx="5949.5" cy="301" fill="none" rx="3" ry="3" style="stroke:#038048;stroke-width:1.0;"/><text fill="#000000" font-family="sans-serif" font-size="14" lengthAdjust="spacing" textLength="116" x="5958.5" y="306.9951">name std::string</text><ellipse cx="5949.5" cy="317.2969" fill="none" rx="3" ry="3" style="stroke:#038048;stroke-width:1.0;"/><text fill="#000000" font-family="sans-serif" font-size="14" lengthAdjust="spacing" textLength="205" x="5958.5" y="323.292">entries std::list&lt;spec_entry&gt;</text><ellipse cx="5949.5" cy="333.5938" fill="none" rx="3" ry="3" style="stroke:#038048;stroke-width:1.0;"/><text fill="#000000" font-family="sans-serif" font-size="14" lengthAdjust="spacing" textLength="154" x="5958.5" y="339.5889">description std::string</text><line style="stroke:#181818;stroke-width:0.5;" x1="5939.5" x2="6168.5" y1="346.8906" y2="346.8906"/></g><g id="elem_GMN60"><path d="M5895.5,63.5 L5895.5,88.6328 A0,0 0 0 0 5895.5,88.6328 L6050,88.6328 L6054,257.56 L6058,88.6328 L6212.5,88.6328 A0,0 0 0 0 6212.5,88.6328 L6212.5,73.5 L6202.5,63.5 L5895.5,63.5 A0,0 0 0 0 5895.5,63.5 " fill="#FEFFDD" style="stroke:#181818;stroke-width:0.5;"/><path d="M6202.5,63.5 L6202.5,73.5 L6212.5,73.5 L6202.5,63.5 " fill="#FEFFDD" style="stroke:#181818;stroke-width:0.5;"/><text fill="#000000" font-family="sans-serif" font-size="13" lengthAdjust="spacing" textLength="296" x="5901.5" y="80.5669">Describes a category of dogen specifications.</text></g><!--MD5=[7b995fc219daea456e492b9512ae84ab]
class spec_entry--><g id="elem_spec_entry"><rect codeLine="161" fill="#F7E5FF" height="80.5938" id="spec_entry" rx="2.5" ry="2.5" style="stroke:#181818;stroke-width:0.5;" width="180" x="6280" y="266"/><ellipse cx="6327.25" cy="282" fill="#ADD1B2" rx="11" ry="11" style="stroke:#181818;stroke-width:1.0;"/><path d="M6330.2188,287.6406 Q6329.6406,287.9375 6329,288.0859 Q6328.3594,288.2344 6327.6563,288.2344 Q6325.1563,288.2344 6323.8359,286.5859 Q6322.5156,284.9375 6322.5156,281.8125 Q6322.5156,278.6875 6323.8359,277.0313 Q6325.1563,275.375 6327.6563,275.375 Q6328.3594,275.375 6329.0078,275.5313 Q6329.6563,275.6875 6330.2188,275.9844 L6330.2188,278.7031 Q6329.5938,278.125 6329,277.8516 Q6328.4063,277.5781 6327.7813,277.5781 Q6326.4375,277.5781 6325.75,278.6484 Q6325.0625,279.7188 6325.0625,281.8125 Q6325.0625,283.9063 6325.75,284.9766 Q6326.4375,286.0469 6327.7813,286.0469 Q6328.4063,286.0469 6329,285.7734 Q6329.5938,285.5 6330.2188,284.9219 L6330.2188,287.6406 Z " fill="#000000"/><text fill="#000000" font-family="sans-serif" font-size="14" lengthAdjust="spacing" textLength="77" x="6347.75" y="286.8467">spec_entry</text><line style="stroke:#181818;stroke-width:0.5;" x1="6281" x2="6459" y1="298" y2="298"/><ellipse cx="6291" cy="309" fill="none" rx="3" ry="3" style="stroke:#038048;stroke-width:1.0;"/><text fill="#000000" font-family="sans-serif" font-size="14" lengthAdjust="spacing" textLength="116" x="6300" y="314.9951">name std::string</text><ellipse cx="6291" cy="325.2969" fill="none" rx="3" ry="3" style="stroke:#038048;stroke-width:1.0;"/><text fill="#000000" font-family="sans-serif" font-size="14" lengthAdjust="spacing" textLength="154" x="6300" y="331.292">description std::string</text><line style="stroke:#181818;stroke-width:0.5;" x1="6281" x2="6459" y1="338.5938" y2="338.5938"/></g><g id="elem_GMN64"><path d="M6247.5,63.5 L6247.5,88.6328 A0,0 0 0 0 6247.5,88.6328 L6366,88.6328 L6370,265.94 L6374,88.6328 L6492.5,88.6328 A0,0 0 0 0 6492.5,88.6328 L6492.5,73.5 L6482.5,63.5 L6247.5,63.5 A0,0 0 0 0 6247.5,63.5 " fill="#FEFFDD" style="stroke:#181818;stroke-width:0.5;"/><path d="M6482.5,63.5 L6482.5,73.5 L6492.5,73.5 L6482.5,63.5 " fill="#FEFFDD" style="stroke:#181818;stroke-width:0.5;"/><text fill="#000000" font-family="sans-serif" font-size="13" lengthAdjust="spacing" textLength="224" x="6253.5" y="80.5669">Unit of functionality within Dogen.</text></g><!--MD5=[3e3a516ce6d06244972b43908f48245e]
class spec_dumper--><g id="elem_spec_dumper"><rect codeLine="170" fill="#FFFACD" height="56.2656" id="spec_dumper" rx="2.5" ry="2.5" style="stroke:#181818;stroke-width:0.5;" width="303" x="402.5" y="468"/><ellipse cx="417.5" cy="488.1328" fill="#ADD1B2" rx="11" ry="11" style="stroke:#181818;stroke-width:1.0;"/><path d="M420.4688,493.7734 Q419.8906,494.0703 419.25,494.2188 Q418.6094,494.3672 417.9063,494.3672 Q415.4063,494.3672 414.0859,492.7188 Q412.7656,491.0703 412.7656,487.9453 Q412.7656,484.8203 414.0859,483.1641 Q415.4063,481.5078 417.9063,481.5078 Q418.6094,481.5078 419.2578,481.6641 Q419.9063,481.8203 420.4688,482.1172 L420.4688,484.8359 Q419.8438,484.2578 419.25,483.9844 Q418.6563,483.7109 418.0313,483.7109 Q416.6875,483.7109 416,484.7813 Q415.3125,485.8516 415.3125,487.9453 Q415.3125,490.0391 416,491.1094 Q416.6875,492.1797 418.0313,492.1797 Q418.6563,492.1797 419.25,491.9063 Q419.8438,491.6328 420.4688,491.0547 L420.4688,493.7734 Z " fill="#000000"/><text fill="#000000" font-family="sans-serif" font-size="12" font-style="italic" lengthAdjust="spacing" textLength="275" x="429.5" y="484.1387">«dogen::handcrafted::typeable::header_only»</text><text fill="#000000" font-family="sans-serif" font-size="14" lengthAdjust="spacing" textLength="96" x="519" y="499.9639">spec_dumper</text><line style="stroke:#181818;stroke-width:0.5;" x1="403.5" x2="704.5" y1="508.2656" y2="508.2656"/><line style="stroke:#181818;stroke-width:0.5;" x1="403.5" x2="704.5" y1="516.2656" y2="516.2656"/></g><!--MD5=[92b5222eba9cdf098e448b7f728fe5cb]
class dumping_exception--><g id="elem_dumping_exception"><rect codeLine="173" fill="#E8C2F8" height="56.2656" id="dumping_exception" rx="2.5" ry="2.5" style="stroke:#181818;stroke-width:0.5;" width="172" x="6605" y="278.5"/><ellipse cx="6620" cy="298.6328" fill="#ADD1B2" rx="11" ry="11" style="stroke:#181818;stroke-width:1.0;"/><path d="M6622.9688,304.2734 Q6622.3906,304.5703 6621.75,304.7188 Q6621.1094,304.8672 6620.4063,304.8672 Q6617.9063,304.8672 6616.5859,303.2188 Q6615.2656,301.5703 6615.2656,298.4453 Q6615.2656,295.3203 6616.5859,293.6641 Q6617.9063,292.0078 6620.4063,292.0078 Q6621.1094,292.0078 6621.7578,292.1641 Q6622.4063,292.3203 6622.9688,292.6172 L6622.9688,295.3359 Q6622.3438,294.7578 6621.75,294.4844 Q6621.1563,294.2109 6620.5313,294.2109 Q6619.1875,294.2109 6618.5,295.2813 Q6617.8125,296.3516 6617.8125,298.4453 Q6617.8125,300.5391 6618.5,301.6094 Q6619.1875,302.6797 6620.5313,302.6797 Q6621.1563,302.6797 6621.75,302.4063 Q6622.3438,302.1328 6622.9688,301.5547 L6622.9688,304.2734 Z " fill="#000000"/><text fill="#000000" font-family="sans-serif" font-size="12" font-style="italic" lengthAdjust="spacing" textLength="114" x="6647" y="294.6387">«masd::exception»</text><text fill="#000000" font-family="sans-serif" font-size="14" lengthAdjust="spacing" textLength="140" x="6634" y="310.4639">dumping_exception</text><line style="stroke:#181818;stroke-width:0.5;" x1="6606" x2="6776" y1="318.7656" y2="318.7656"/><line style="stroke:#181818;stroke-width:0.5;" x1="6606" x2="6776" y1="326.7656" y2="326.7656"/></g><g id="elem_GMN69"><path d="M6528,63.5 L6528,88.6328 A0,0 0 0 0 6528,88.6328 L6687,88.6328 L6691,278.16 L6695,88.6328 L6854,88.6328 A0,0 0 0 0 6854,88.6328 L6854,73.5 L6844,63.5 L6528,63.5 A0,0 0 0 0 6528,63.5 " fill="#FEFFDD" style="stroke:#181818;stroke-width:0.5;"/><path d="M6844,63.5 L6844,73.5 L6854,73.5 L6844,63.5 " fill="#FEFFDD" style="stroke:#181818;stroke-width:0.5;"/><text fill="#000000" font-family="sans-serif" font-size="13" lengthAdjust="spacing" textLength="305" x="6534" y="80.5669">An error ocurred when dumping dogen's specs.</text></g><!--MD5=[da6b09a4aebbc27acfb4715d6dd726dd]
link N1 to configuration--></g></svg>