<?xml version="1.0" encoding="UTF-8" standalone="no"?><svg xmlns="http://www.w3.org/2000/svg" xmlns:xlink="http://www.w3.org/1999/xlink" contentStyleType="text/css" height="1216px" preserveAspectRatio="none" style="width:2702px;height:1216px;background:#FFFFFF;" version="1.1" viewBox="0 0 2702 1216" width="2702px" zoomAndPan="magnify"><defs/><g><path d="M409.3333,433.6563 L497.3333,433.6563 A3.75,3.75 0 0 1 499.8333,436.1563 L506.8333,455.9531 L2537.7667,455.9531 A2.5,2.5 0 0 1 2540.2667,458.4531 L2540.2667,978.9688 A2.5,2.5 0 0 1 2537.7667,981.4688 L409.3333,981.4688 A2.5,2.5 0 0 1 406.8333,978.9688 L406.8333,436.1563 A2.5,2.5 0 0 1 409.3333,433.6563 " fill="none" style="stroke:#000000;stroke-width:1.0;"/><line style="stroke:#000000;stroke-width:1.0;" x1="406.8333" x2="506.8333" y1="455.9531" y2="455.9531"/><text fill="#000000" font-family="sans-serif" font-size="14" font-weight="bold" lengthAdjust="spacing" textLength="87" x="410.8333" y="448.6514">transforms</text><path d="M14.5,1021.4688 L75.5,1021.4688 A3.75,3.75 0 0 1 78,1023.9688 L85,1043.7656 L1559.5,1043.7656 A2.5,2.5 0 0 1 1562,1046.2656 L1562,1206.5 A2.5,2.5 0 0 1 1559.5,1209 L14.5,1209 A2.5,2.5 0 0 1 12,1206.5 L12,1023.9688 A2.5,2.5 0 0 1 14.5,1021.4688 " fill="none" style="stroke:#000000;stroke-width:1.0;"/><line style="stroke:#000000;stroke-width:1.0;" x1="12" x2="85" y1="1043.7656" y2="1043.7656"/><text fill="#000000" font-family="sans-serif" font-size="14" font-weight="bold" lengthAdjust="spacing" textLength="60" x="16" y="1036.4639">helpers</text><path d="M1817.3,12 L1885.3,12 A3.75,3.75 0 0 1 1887.8,14.5 L1894.8,34.2969 L2693.3,34.2969 A2.5,2.5 0 0 1 2695.8,36.7969 L2695.8,229.625 A2.5,2.5 0 0 1 2693.3,232.125 L1817.3,232.125 A2.5,2.5 0 0 1 1814.8,229.625 L1814.8,14.5 A2.5,2.5 0 0 1 1817.3,12 " fill="none" style="stroke:#000000;stroke-width:1.0;"/><line style="stroke:#000000;stroke-width:1.0;" x1="1814.8" x2="1894.8" y1="34.2969" y2="34.2969"/><text fill="#000000" font-family="sans-serif" font-size="14" font-weight="bold" lengthAdjust="spacing" textLength="67" x="1818.8" y="26.9951">features</text><!--MD5=[abd65484e0f49489c62d799c9536589f]
class transforms::code_generation_chain--><g id="elem_transforms::code_generation_chain"><rect codeLine="54" fill="#FFFACD" height="56.2656" id="transforms::code_generation_chain" rx="2.5" ry="2.5" style="stroke:#181818;stroke-width:0.5;" width="222" x="1024.6" y="493.6563"/><ellipse cx="1039.6" cy="513.7891" fill="#ADD1B2" rx="11" ry="11" style="stroke:#181818;stroke-width:1.0;"/><path d="M1042.5688,519.4297 Q1041.9906,519.7266 1041.35,519.875 Q1040.7094,520.0234 1040.0063,520.0234 Q1037.5063,520.0234 1036.1859,518.375 Q1034.8656,516.7266 1034.8656,513.6016 Q1034.8656,510.4766 1036.1859,508.8203 Q1037.5063,507.1641 1040.0063,507.1641 Q1040.7094,507.1641 1041.3578,507.3203 Q1042.0063,507.4766 1042.5688,507.7734 L1042.5688,510.4922 Q1041.9438,509.9141 1041.35,509.6406 Q1040.7563,509.3672 1040.1313,509.3672 Q1038.7875,509.3672 1038.1,510.4375 Q1037.4125,511.5078 1037.4125,513.6016 Q1037.4125,515.6953 1038.1,516.7656 Q1038.7875,517.8359 1040.1313,517.8359 Q1040.7563,517.8359 1041.35,517.5625 Q1041.9438,517.2891 1042.5688,516.7109 L1042.5688,519.4297 Z " fill="#000000"/><text fill="#000000" font-family="sans-serif" font-size="12" font-style="italic" lengthAdjust="spacing" textLength="194" x="1051.6" y="509.7949">«dogen::handcrafted::typeable»</text><text fill="#000000" font-family="sans-serif" font-size="14" lengthAdjust="spacing" textLength="166" x="1065.6" y="525.6201">code_generation_chain</text><line style="stroke:#181818;stroke-width:0.5;" x1="1025.6" x2="1245.6" y1="533.9219" y2="533.9219"/><line style="stroke:#181818;stroke-width:0.5;" x1="1025.6" x2="1245.6" y1="541.9219" y2="541.9219"/></g><!--MD5=[133f4cfbb2bb2891c2a6c3694af0bb4e]
class transforms::context--><g id="elem_transforms::context"><rect codeLine="46" fill="#F7E5FF" height="137.75" id="transforms::context" rx="2.5" ry="2.5" style="stroke:#181818;stroke-width:0.5;" width="380" x="2145.2667" y="828.7188"/><ellipse cx="2201.5167" cy="848.8516" fill="#ADD1B2" rx="11" ry="11" style="stroke:#181818;stroke-width:1.0;"/><path d="M2204.4854,854.4922 Q2203.9073,854.7891 2203.2667,854.9375 Q2202.626,855.0859 2201.9229,855.0859 Q2199.4229,855.0859 2198.1026,853.4375 Q2196.7823,851.7891 2196.7823,848.6641 Q2196.7823,845.5391 2198.1026,843.8828 Q2199.4229,842.2266 2201.9229,842.2266 Q2202.626,842.2266 2203.2745,842.3828 Q2203.9229,842.5391 2204.4854,842.8359 L2204.4854,845.5547 Q2203.8604,844.9766 2203.2667,844.7031 Q2202.6729,844.4297 2202.0479,844.4297 Q2200.7042,844.4297 2200.0167,845.5 Q2199.3292,846.5703 2199.3292,848.6641 Q2199.3292,850.7578 2200.0167,851.8281 Q2200.7042,852.8984 2202.0479,852.8984 Q2202.6729,852.8984 2203.2667,852.625 Q2203.8604,852.3516 2204.4854,851.7734 L2204.4854,854.4922 Z " fill="#000000"/><text fill="#000000" font-family="sans-serif" font-size="12" font-style="italic" lengthAdjust="spacing" textLength="263" x="2220.0167" y="844.8574">«dogen::typeable, dogen::pretty_printable»</text><text fill="#000000" font-family="sans-serif" font-size="14" lengthAdjust="spacing" textLength="53" x="2325.0167" y="860.6826">context</text><line style="stroke:#181818;stroke-width:0.5;" x1="2146.2667" x2="2524.2667" y1="868.9844" y2="868.9844"/><ellipse cx="2156.2667" cy="882.6328" fill="none" rx="3" ry="3" style="stroke:#038048;stroke-width:1.0;"/><text fill="#000000" font-family="sans-serif" font-size="14" lengthAdjust="spacing" textLength="354" x="2165.2667" y="885.9795">variability_context variability::transforms::context</text><ellipse cx="2156.2667" cy="898.9297" fill="none" rx="3" ry="3" style="stroke:#038048;stroke-width:1.0;"/><text fill="#000000" font-family="sans-serif" font-size="14" lengthAdjust="spacing" textLength="300" x="2165.2667" y="902.2764">codec_context codec::transforms::context</text><ellipse cx="2156.2667" cy="915.2266" fill="none" rx="3" ry="3" style="stroke:#038048;stroke-width:1.0;"/><text fill="#000000" font-family="sans-serif" font-size="14" lengthAdjust="spacing" textLength="308" x="2165.2667" y="918.5732">logical_context logical::transforms::context</text><ellipse cx="2156.2667" cy="931.5234" fill="none" rx="3" ry="3" style="stroke:#038048;stroke-width:1.0;"/><text fill="#000000" font-family="sans-serif" font-size="14" lengthAdjust="spacing" textLength="268" x="2165.2667" y="934.8701">text_context text::transforms::context</text><ellipse cx="2156.2667" cy="947.8203" fill="none" rx="3" ry="3" style="stroke:#038048;stroke-width:1.0;"/><text fill="#000000" font-family="sans-serif" font-size="14" lengthAdjust="spacing" textLength="330" x="2165.2667" y="951.167">physical_context physical::transforms::context</text><line style="stroke:#181818;stroke-width:0.5;" x1="2146.2667" x2="2524.2667" y1="958.4688" y2="958.4688"/></g><!--MD5=[060e804f644b9d564bc41ceef1138bf0]
class transforms::context_bootstrapping_chain--><g id="elem_transforms::context_bootstrapping_chain"><rect codeLine="106" fill="#FFFACD" height="56.2656" id="transforms::context_bootstrapping_chain" rx="2.5" ry="2.5" style="stroke:#181818;stroke-width:0.5;" width="237" x="1834.6" y="493.6563"/><ellipse cx="1849.6" cy="513.7891" fill="#ADD1B2" rx="11" ry="11" style="stroke:#181818;stroke-width:1.0;"/><path d="M1852.5687,519.4297 Q1851.9906,519.7266 1851.35,519.875 Q1850.7094,520.0234 1850.0062,520.0234 Q1847.5062,520.0234 1846.1859,518.375 Q1844.8656,516.7266 1844.8656,513.6016 Q1844.8656,510.4766 1846.1859,508.8203 Q1847.5062,507.1641 1850.0062,507.1641 Q1850.7094,507.1641 1851.3578,507.3203 Q1852.0062,507.4766 1852.5687,507.7734 L1852.5687,510.4922 Q1851.9437,509.9141 1851.35,509.6406 Q1850.7562,509.3672 1850.1312,509.3672 Q1848.7875,509.3672 1848.1,510.4375 Q1847.4125,511.5078 1847.4125,513.6016 Q1847.4125,515.6953 1848.1,516.7656 Q1848.7875,517.8359 1850.1312,517.8359 Q1850.7562,517.8359 1851.35,517.5625 Q1851.9437,517.2891 1852.5687,516.7109 L1852.5687,519.4297 Z " fill="#000000"/><text fill="#000000" font-family="sans-serif" font-size="12" font-style="italic" lengthAdjust="spacing" textLength="194" x="1869.1" y="509.7949">«dogen::handcrafted::typeable»</text><text fill="#000000" font-family="sans-serif" font-size="14" lengthAdjust="spacing" textLength="205" x="1863.6" y="525.6201">context_bootstrapping_chain</text><line style="stroke:#181818;stroke-width:0.5;" x1="1835.6" x2="2070.6" y1="533.9219" y2="533.9219"/><line style="stroke:#181818;stroke-width:0.5;" x1="1835.6" x2="2070.6" y1="541.9219" y2="541.9219"/></g><g id="elem_transforms::transforms_1"><path d="M2091.6,501.6563 L2091.6,541.9219 L2388.6,541.9219 L2388.6,511.6563 L2378.6,501.6563 L2091.6,501.6563 " fill="#FEFFDD" style="stroke:#181818;stroke-width:0.5;"/><path d="M2378.6,501.6563 L2378.6,511.6563 L2388.6,511.6563 L2378.6,501.6563 " fill="#FEFFDD" style="stroke:#181818;stroke-width:1.0;"/><text fill="#000000" font-family="sans-serif" font-size="13" lengthAdjust="spacing" textLength="276" x="2097.6" y="518.7231">Top-level transforms for Dogen. These are</text><text fill="#000000" font-family="sans-serif" font-size="13" lengthAdjust="spacing" textLength="252" x="2097.6" y="533.856">the entry points to all transformations.</text></g><!--MD5=[527beef9524e9d04e8a1fc23844778d1]
class transforms::physical_model_production_chain--><g id="elem_transforms::physical_model_production_chain"><rect codeLine="59" fill="#FFFACD" height="56.2656" id="transforms::physical_model_production_chain" rx="2.5" ry="2.5" style="stroke:#181818;stroke-width:0.5;" width="272" x="999.6" y="569.9219"/><ellipse cx="1014.6" cy="590.0547" fill="#ADD1B2" rx="11" ry="11" style="stroke:#181818;stroke-width:1.0;"/><path d="M1017.5687,595.6953 Q1016.9906,595.9922 1016.35,596.1406 Q1015.7094,596.2891 1015.0062,596.2891 Q1012.5062,596.2891 1011.1859,594.6406 Q1009.8656,592.9922 1009.8656,589.8672 Q1009.8656,586.7422 1011.1859,585.0859 Q1012.5062,583.4297 1015.0062,583.4297 Q1015.7094,583.4297 1016.3578,583.5859 Q1017.0062,583.7422 1017.5687,584.0391 L1017.5687,586.7578 Q1016.9437,586.1797 1016.35,585.9063 Q1015.7562,585.6328 1015.1312,585.6328 Q1013.7875,585.6328 1013.1,586.7031 Q1012.4125,587.7734 1012.4125,589.8672 Q1012.4125,591.9609 1013.1,593.0313 Q1013.7875,594.1016 1015.1312,594.1016 Q1015.7562,594.1016 1016.35,593.8281 Q1016.9437,593.5547 1017.5687,592.9766 L1017.5687,595.6953 Z " fill="#000000"/><text fill="#000000" font-family="sans-serif" font-size="12" font-style="italic" lengthAdjust="spacing" textLength="194" x="1051.6" y="586.0605">«dogen::handcrafted::typeable»</text><text fill="#000000" font-family="sans-serif" font-size="14" lengthAdjust="spacing" textLength="240" x="1028.6" y="601.8857">physical_model_production_chain</text><line style="stroke:#181818;stroke-width:0.5;" x1="1000.6" x2="1270.6" y1="610.1875" y2="610.1875"/><line style="stroke:#181818;stroke-width:0.5;" x1="1000.6" x2="1270.6" y1="618.1875" y2="618.1875"/></g><!--MD5=[07c2fc5feb8f806d7949937d79f46cc8]
class transforms::text_model_production_chain--><g id="elem_transforms::text_model_production_chain"><rect codeLine="66" fill="#FFFACD" height="56.2656" id="transforms::text_model_production_chain" rx="2.5" ry="2.5" style="stroke:#181818;stroke-width:0.5;" width="241" x="1318.6" y="646.1875"/><ellipse cx="1333.6" cy="666.3203" fill="#ADD1B2" rx="11" ry="11" style="stroke:#181818;stroke-width:1.0;"/><path d="M1336.5688,671.9609 Q1335.9906,672.2578 1335.35,672.4063 Q1334.7094,672.5547 1334.0063,672.5547 Q1331.5063,672.5547 1330.1859,670.9063 Q1328.8656,669.2578 1328.8656,666.1328 Q1328.8656,663.0078 1330.1859,661.3516 Q1331.5063,659.6953 1334.0063,659.6953 Q1334.7094,659.6953 1335.3578,659.8516 Q1336.0063,660.0078 1336.5688,660.3047 L1336.5688,663.0234 Q1335.9438,662.4453 1335.35,662.1719 Q1334.7563,661.8984 1334.1313,661.8984 Q1332.7875,661.8984 1332.1,662.9688 Q1331.4125,664.0391 1331.4125,666.1328 Q1331.4125,668.2266 1332.1,669.2969 Q1332.7875,670.3672 1334.1313,670.3672 Q1334.7563,670.3672 1335.35,670.0938 Q1335.9438,669.8203 1336.5688,669.2422 L1336.5688,671.9609 Z " fill="#000000"/><text fill="#000000" font-family="sans-serif" font-size="12" font-style="italic" lengthAdjust="spacing" textLength="194" x="1355.1" y="662.3262">«dogen::handcrafted::typeable»</text><text fill="#000000" font-family="sans-serif" font-size="14" lengthAdjust="spacing" textLength="209" x="1347.6" y="678.1514">text_model_production_chain</text><line style="stroke:#181818;stroke-width:0.5;" x1="1319.6" x2="1558.6" y1="686.4531" y2="686.4531"/><line style="stroke:#181818;stroke-width:0.5;" x1="1319.6" x2="1558.6" y1="694.4531" y2="694.4531"/></g><!--MD5=[7111a907453c47402c9a316f7c4b7134]
class transforms::text_model_to_physical_model_transform--><g id="elem_transforms::text_model_to_physical_model_transform"><rect codeLine="69" fill="#FFFACD" height="56.2656" id="transforms::text_model_to_physical_model_transform" rx="2.5" ry="2.5" style="stroke:#181818;stroke-width:0.5;" width="326" x="972.6" y="646.1875"/><ellipse cx="987.6" cy="666.3203" fill="#ADD1B2" rx="11" ry="11" style="stroke:#181818;stroke-width:1.0;"/><path d="M990.5687,671.9609 Q989.9906,672.2578 989.35,672.4063 Q988.7094,672.5547 988.0062,672.5547 Q985.5062,672.5547 984.1859,670.9063 Q982.8656,669.2578 982.8656,666.1328 Q982.8656,663.0078 984.1859,661.3516 Q985.5062,659.6953 988.0062,659.6953 Q988.7094,659.6953 989.3578,659.8516 Q990.0062,660.0078 990.5687,660.3047 L990.5687,663.0234 Q989.9437,662.4453 989.35,662.1719 Q988.7562,661.8984 988.1312,661.8984 Q986.7875,661.8984 986.1,662.9688 Q985.4125,664.0391 985.4125,666.1328 Q985.4125,668.2266 986.1,669.2969 Q986.7875,670.3672 988.1312,670.3672 Q988.7562,670.3672 989.35,670.0938 Q989.9437,669.8203 990.5687,669.2422 L990.5687,671.9609 Z " fill="#000000"/><text fill="#000000" font-family="sans-serif" font-size="12" font-style="italic" lengthAdjust="spacing" textLength="194" x="1051.6" y="662.3262">«dogen::handcrafted::typeable»</text><text fill="#000000" font-family="sans-serif" font-size="14" lengthAdjust="spacing" textLength="294" x="1001.6" y="678.1514">text_model_to_physical_model_transform</text><line style="stroke:#181818;stroke-width:0.5;" x1="973.6" x2="1297.6" y1="686.4531" y2="686.4531"/><line style="stroke:#181818;stroke-width:0.5;" x1="973.6" x2="1297.6" y1="694.4531" y2="694.4531"/></g><!--MD5=[5c53f1f127d3f861dbdc2986fc803482]
class transforms::codec_model_to_logical_model_transform--><g id="elem_transforms::codec_model_to_logical_model_transform"><rect codeLine="79" fill="#FFFACD" height="56.2656" id="transforms::codec_model_to_logical_model_transform" rx="2.5" ry="2.5" style="stroke:#181818;stroke-width:0.5;" width="331" x="511" y="646.1875"/><ellipse cx="526" cy="666.3203" fill="#ADD1B2" rx="11" ry="11" style="stroke:#181818;stroke-width:1.0;"/><path d="M528.9688,671.9609 Q528.3906,672.2578 527.75,672.4063 Q527.1094,672.5547 526.4063,672.5547 Q523.9063,672.5547 522.5859,670.9063 Q521.2656,669.2578 521.2656,666.1328 Q521.2656,663.0078 522.5859,661.3516 Q523.9063,659.6953 526.4063,659.6953 Q527.1094,659.6953 527.7578,659.8516 Q528.4063,660.0078 528.9688,660.3047 L528.9688,663.0234 Q528.3438,662.4453 527.75,662.1719 Q527.1563,661.8984 526.5313,661.8984 Q525.1875,661.8984 524.5,662.9688 Q523.8125,664.0391 523.8125,666.1328 Q523.8125,668.2266 524.5,669.2969 Q525.1875,670.3672 526.5313,670.3672 Q527.1563,670.3672 527.75,670.0938 Q528.3438,669.8203 528.9688,669.2422 L528.9688,671.9609 Z " fill="#000000"/><text fill="#000000" font-family="sans-serif" font-size="12" font-style="italic" lengthAdjust="spacing" textLength="194" x="592.5" y="662.3262">«dogen::handcrafted::typeable»</text><text fill="#000000" font-family="sans-serif" font-size="14" lengthAdjust="spacing" textLength="299" x="540" y="678.1514">codec_model_to_logical_model_transform</text><line style="stroke:#181818;stroke-width:0.5;" x1="512" x2="841" y1="686.4531" y2="686.4531"/><line style="stroke:#181818;stroke-width:0.5;" x1="512" x2="841" y1="694.4531" y2="694.4531"/></g><!--MD5=[40744775a33b12540643c7e868edb0c0]
class transforms::logical_model_to_text_model_chain--><g id="elem_transforms::logical_model_to_text_model_chain"><rect codeLine="84" fill="#FFFACD" height="56.2656" id="transforms::logical_model_to_text_model_chain" rx="2.5" ry="2.5" style="stroke:#181818;stroke-width:0.5;" width="284" x="993.6" y="722.4531"/><ellipse cx="1008.6" cy="742.5859" fill="#ADD1B2" rx="11" ry="11" style="stroke:#181818;stroke-width:1.0;"/><path d="M1011.5687,748.2266 Q1010.9906,748.5234 1010.35,748.6719 Q1009.7094,748.8203 1009.0062,748.8203 Q1006.5062,748.8203 1005.1859,747.1719 Q1003.8656,745.5234 1003.8656,742.3984 Q1003.8656,739.2734 1005.1859,737.6172 Q1006.5062,735.9609 1009.0062,735.9609 Q1009.7094,735.9609 1010.3578,736.1172 Q1011.0062,736.2734 1011.5687,736.5703 L1011.5687,739.2891 Q1010.9437,738.7109 1010.35,738.4375 Q1009.7562,738.1641 1009.1312,738.1641 Q1007.7875,738.1641 1007.1,739.2344 Q1006.4125,740.3047 1006.4125,742.3984 Q1006.4125,744.4922 1007.1,745.5625 Q1007.7875,746.6328 1009.1312,746.6328 Q1009.7562,746.6328 1010.35,746.3594 Q1010.9437,746.0859 1011.5687,745.5078 L1011.5687,748.2266 Z " fill="#000000"/><text fill="#000000" font-family="sans-serif" font-size="12" font-style="italic" lengthAdjust="spacing" textLength="194" x="1051.6" y="738.5918">«dogen::handcrafted::typeable»</text><text fill="#000000" font-family="sans-serif" font-size="14" lengthAdjust="spacing" textLength="252" x="1022.6" y="754.417">logical_model_to_text_model_chain</text><line style="stroke:#181818;stroke-width:0.5;" x1="994.6" x2="1276.6" y1="762.7188" y2="762.7188"/><line style="stroke:#181818;stroke-width:0.5;" x1="994.6" x2="1276.6" y1="770.7188" y2="770.7188"/></g><!--MD5=[3349c57b78445577727b3822a4fefab7]
class transforms::codec_model_set_to_logical_input_model_set_chain--><g id="elem_transforms::codec_model_set_to_logical_input_model_set_chain"><rect codeLine="74" fill="#FFFACD" height="56.2656" id="transforms::codec_model_set_to_logical_input_model_set_chain" rx="2.5" ry="2.5" style="stroke:#181818;stroke-width:0.5;" width="399" x="421.8333" y="569.9219"/><ellipse cx="436.8333" cy="590.0547" fill="#ADD1B2" rx="11" ry="11" style="stroke:#181818;stroke-width:1.0;"/><path d="M439.8021,595.6953 Q439.224,595.9922 438.5833,596.1406 Q437.9427,596.2891 437.2396,596.2891 Q434.7396,596.2891 433.4193,594.6406 Q432.099,592.9922 432.099,589.8672 Q432.099,586.7422 433.4193,585.0859 Q434.7396,583.4297 437.2396,583.4297 Q437.9427,583.4297 438.5911,583.5859 Q439.2396,583.7422 439.8021,584.0391 L439.8021,586.7578 Q439.1771,586.1797 438.5833,585.9063 Q437.9896,585.6328 437.3646,585.6328 Q436.0208,585.6328 435.3333,586.7031 Q434.6458,587.7734 434.6458,589.8672 Q434.6458,591.9609 435.3333,593.0313 Q436.0208,594.1016 437.3646,594.1016 Q437.9896,594.1016 438.5833,593.8281 Q439.1771,593.5547 439.8021,592.9766 L439.8021,595.6953 Z " fill="#000000"/><text fill="#000000" font-family="sans-serif" font-size="12" font-style="italic" lengthAdjust="spacing" textLength="194" x="537.3333" y="586.0605">«dogen::handcrafted::typeable»</text><text fill="#000000" font-family="sans-serif" font-size="14" lengthAdjust="spacing" textLength="367" x="450.8333" y="601.8857">codec_model_set_to_logical_input_model_set_chain</text><line style="stroke:#181818;stroke-width:0.5;" x1="422.8333" x2="819.8333" y1="610.1875" y2="610.1875"/><line style="stroke:#181818;stroke-width:0.5;" x1="422.8333" x2="819.8333" y1="618.1875" y2="618.1875"/></g><!--MD5=[82399552af723106d578725633ff828f]
class transforms::elements_removal_transform--><g id="elem_transforms::elements_removal_transform"><rect codeLine="112" fill="#FFFACD" height="56.2656" id="transforms::elements_removal_transform" rx="2.5" ry="2.5" style="stroke:#181818;stroke-width:0.5;" width="241" x="1043.5" y="828.7188"/><ellipse cx="1058.5" cy="848.8516" fill="#ADD1B2" rx="11" ry="11" style="stroke:#181818;stroke-width:1.0;"/><path d="M1061.4688,854.4922 Q1060.8906,854.7891 1060.25,854.9375 Q1059.6094,855.0859 1058.9063,855.0859 Q1056.4063,855.0859 1055.0859,853.4375 Q1053.7656,851.7891 1053.7656,848.6641 Q1053.7656,845.5391 1055.0859,843.8828 Q1056.4063,842.2266 1058.9063,842.2266 Q1059.6094,842.2266 1060.2578,842.3828 Q1060.9063,842.5391 1061.4688,842.8359 L1061.4688,845.5547 Q1060.8438,844.9766 1060.25,844.7031 Q1059.6563,844.4297 1059.0313,844.4297 Q1057.6875,844.4297 1057,845.5 Q1056.3125,846.5703 1056.3125,848.6641 Q1056.3125,850.7578 1057,851.8281 Q1057.6875,852.8984 1059.0313,852.8984 Q1059.6563,852.8984 1060.25,852.625 Q1060.8438,852.3516 1061.4688,851.7734 L1061.4688,854.4922 Z " fill="#000000"/><text fill="#000000" font-family="sans-serif" font-size="12" font-style="italic" lengthAdjust="spacing" textLength="194" x="1080" y="844.8574">«dogen::handcrafted::typeable»</text><text fill="#000000" font-family="sans-serif" font-size="14" lengthAdjust="spacing" textLength="209" x="1072.5" y="860.6826">elements_removal_transform</text><line style="stroke:#181818;stroke-width:0.5;" x1="1044.5" x2="1283.5" y1="868.9844" y2="868.9844"/><line style="stroke:#181818;stroke-width:0.5;" x1="1044.5" x2="1283.5" y1="876.9844" y2="876.9844"/></g><!--MD5=[583d1399401bb90033abbd440ffb1c6f]
class transforms::physical_to_logical_population_transform--><g id="elem_transforms::physical_to_logical_population_transform"><rect codeLine="92" fill="#FFFACD" height="56.2656" id="transforms::physical_to_logical_population_transform" rx="2.5" ry="2.5" style="stroke:#181818;stroke-width:0.5;" width="325" x="698.5" y="828.7188"/><ellipse cx="713.5" cy="848.8516" fill="#ADD1B2" rx="11" ry="11" style="stroke:#181818;stroke-width:1.0;"/><path d="M716.4688,854.4922 Q715.8906,854.7891 715.25,854.9375 Q714.6094,855.0859 713.9063,855.0859 Q711.4063,855.0859 710.0859,853.4375 Q708.7656,851.7891 708.7656,848.6641 Q708.7656,845.5391 710.0859,843.8828 Q711.4063,842.2266 713.9063,842.2266 Q714.6094,842.2266 715.2578,842.3828 Q715.9063,842.5391 716.4688,842.8359 L716.4688,845.5547 Q715.8438,844.9766 715.25,844.7031 Q714.6563,844.4297 714.0313,844.4297 Q712.6875,844.4297 712,845.5 Q711.3125,846.5703 711.3125,848.6641 Q711.3125,850.7578 712,851.8281 Q712.6875,852.8984 714.0313,852.8984 Q714.6563,852.8984 715.25,852.625 Q715.8438,852.3516 716.4688,851.7734 L716.4688,854.4922 Z " fill="#000000"/><text fill="#000000" font-family="sans-serif" font-size="12" font-style="italic" lengthAdjust="spacing" textLength="194" x="777" y="844.8574">«dogen::handcrafted::typeable»</text><text fill="#000000" font-family="sans-serif" font-size="14" lengthAdjust="spacing" textLength="293" x="727.5" y="860.6826">physical_to_logical_population_transform</text><line style="stroke:#181818;stroke-width:0.5;" x1="699.5" x2="1022.5" y1="868.9844" y2="868.9844"/><line style="stroke:#181818;stroke-width:0.5;" x1="699.5" x2="1022.5" y1="876.9844" y2="876.9844"/></g><!--MD5=[872738f9b292f9cf434fe1d2d51378d6]
class transforms::legacy_dependencies_transform--><g id="elem_transforms::legacy_dependencies_transform"><rect codeLine="95" fill="#FFFACD" height="56.2656" id="transforms::legacy_dependencies_transform" rx="2.5" ry="2.5" style="stroke:#181818;stroke-width:0.5;" width="263" x="1304.5" y="869.4609"/><ellipse cx="1319.5" cy="889.5938" fill="#ADD1B2" rx="11" ry="11" style="stroke:#181818;stroke-width:1.0;"/><path d="M1322.4688,895.2344 Q1321.8906,895.5313 1321.25,895.6797 Q1320.6094,895.8281 1319.9063,895.8281 Q1317.4063,895.8281 1316.0859,894.1797 Q1314.7656,892.5313 1314.7656,889.4063 Q1314.7656,886.2813 1316.0859,884.625 Q1317.4063,882.9688 1319.9063,882.9688 Q1320.6094,882.9688 1321.2578,883.125 Q1321.9063,883.2813 1322.4688,883.5781 L1322.4688,886.2969 Q1321.8438,885.7188 1321.25,885.4453 Q1320.6563,885.1719 1320.0313,885.1719 Q1318.6875,885.1719 1318,886.2422 Q1317.3125,887.3125 1317.3125,889.4063 Q1317.3125,891.5 1318,892.5703 Q1318.6875,893.6406 1320.0313,893.6406 Q1320.6563,893.6406 1321.25,893.3672 Q1321.8438,893.0938 1322.4688,892.5156 L1322.4688,895.2344 Z " fill="#000000"/><text fill="#000000" font-family="sans-serif" font-size="12" font-style="italic" lengthAdjust="spacing" textLength="194" x="1352" y="885.5996">«dogen::handcrafted::typeable»</text><text fill="#000000" font-family="sans-serif" font-size="14" lengthAdjust="spacing" textLength="231" x="1333.5" y="901.4248">legacy_dependencies_transform</text><line style="stroke:#181818;stroke-width:0.5;" x1="1305.5" x2="1566.5" y1="909.7266" y2="909.7266"/><line style="stroke:#181818;stroke-width:0.5;" x1="1305.5" x2="1566.5" y1="917.7266" y2="917.7266"/></g><!--MD5=[11ecefc52d11f3391c9e5a2aa946cf90]
class transforms::context_factory--><g id="elem_transforms::context_factory"><rect codeLine="100" fill="#FFFACD" height="56.2656" id="transforms::context_factory" rx="2.5" ry="2.5" style="stroke:#181818;stroke-width:0.5;" width="222" x="1679.6" y="646.1875"/><ellipse cx="1694.6" cy="666.3203" fill="#ADD1B2" rx="11" ry="11" style="stroke:#181818;stroke-width:1.0;"/><path d="M1697.5687,671.9609 Q1696.9906,672.2578 1696.35,672.4063 Q1695.7094,672.5547 1695.0062,672.5547 Q1692.5062,672.5547 1691.1859,670.9063 Q1689.8656,669.2578 1689.8656,666.1328 Q1689.8656,663.0078 1691.1859,661.3516 Q1692.5062,659.6953 1695.0062,659.6953 Q1695.7094,659.6953 1696.3578,659.8516 Q1697.0062,660.0078 1697.5687,660.3047 L1697.5687,663.0234 Q1696.9437,662.4453 1696.35,662.1719 Q1695.7562,661.8984 1695.1312,661.8984 Q1693.7875,661.8984 1693.1,662.9688 Q1692.4125,664.0391 1692.4125,666.1328 Q1692.4125,668.2266 1693.1,669.2969 Q1693.7875,670.3672 1695.1312,670.3672 Q1695.7562,670.3672 1696.35,670.0938 Q1696.9437,669.8203 1697.5687,669.2422 L1697.5687,671.9609 Z " fill="#000000"/><text fill="#000000" font-family="sans-serif" font-size="12" font-style="italic" lengthAdjust="spacing" textLength="194" x="1706.6" y="662.3262">«dogen::handcrafted::typeable»</text><text fill="#000000" font-family="sans-serif" font-size="14" lengthAdjust="spacing" textLength="110" x="1748.6" y="678.1514">context_factory</text><line style="stroke:#181818;stroke-width:0.5;" x1="1680.6" x2="1900.6" y1="686.4531" y2="686.4531"/><line style="stroke:#181818;stroke-width:0.5;" x1="1680.6" x2="1900.6" y1="694.4531" y2="694.4531"/></g><!--MD5=[fbdfb4afbf33e4319841469d1d7db4da]
class transforms::factory_exception--><g id="elem_transforms::factory_exception"><rect codeLine="115" fill="#E8C2F8" height="56.2656" id="transforms::factory_exception" rx="2.5" ry="2.5" style="stroke:#181818;stroke-width:0.5;" width="159" x="1647.6" y="828.7188"/><ellipse cx="1662.6" cy="848.8516" fill="#ADD1B2" rx="11" ry="11" style="stroke:#181818;stroke-width:1.0;"/><path d="M1665.5687,854.4922 Q1664.9906,854.7891 1664.35,854.9375 Q1663.7094,855.0859 1663.0062,855.0859 Q1660.5062,855.0859 1659.1859,853.4375 Q1657.8656,851.7891 1657.8656,848.6641 Q1657.8656,845.5391 1659.1859,843.8828 Q1660.5062,842.2266 1663.0062,842.2266 Q1663.7094,842.2266 1664.3578,842.3828 Q1665.0062,842.5391 1665.5687,842.8359 L1665.5687,845.5547 Q1664.9437,844.9766 1664.35,844.7031 Q1663.7562,844.4297 1663.1312,844.4297 Q1661.7875,844.4297 1661.1,845.5 Q1660.4125,846.5703 1660.4125,848.6641 Q1660.4125,850.7578 1661.1,851.8281 Q1661.7875,852.8984 1663.1312,852.8984 Q1663.7562,852.8984 1664.35,852.625 Q1664.9437,852.3516 1665.5687,851.7734 L1665.5687,854.4922 Z " fill="#000000"/><text fill="#000000" font-family="sans-serif" font-size="12" font-style="italic" lengthAdjust="spacing" textLength="114" x="1683.1" y="844.8574">«masd::exception»</text><text fill="#000000" font-family="sans-serif" font-size="14" lengthAdjust="spacing" textLength="127" x="1676.6" y="860.6826">factory_exception</text><line style="stroke:#181818;stroke-width:0.5;" x1="1648.6" x2="1805.6" y1="868.9844" y2="868.9844"/><line style="stroke:#181818;stroke-width:0.5;" x1="1648.6" x2="1805.6" y1="876.9844" y2="876.9844"/></g><g id="elem_transforms::GMN54"><path d="M1297.6,753.5859 L1297.6,778.7188 L1624.6,778.7188 L1624.6,763.5859 L1614.6,753.5859 L1297.6,753.5859 " fill="#FEFFDD" style="stroke:#181818;stroke-width:0.5;"/><path d="M1614.6,753.5859 L1614.6,763.5859 L1624.6,763.5859 L1614.6,753.5859 " fill="#FEFFDD" style="stroke:#181818;stroke-width:1.0;"/><text fill="#000000" font-family="sans-serif" font-size="13" lengthAdjust="spacing" textLength="306" x="1303.6" y="770.6528">An error occurred in the factory whilst building.</text></g><!--MD5=[ef3167ee797df11ac37929e83accd40c]
class transforms::transform_exception--><g id="elem_transforms::transform_exception"><rect codeLine="122" fill="#E8C2F8" height="56.2656" id="transforms::transform_exception" rx="2.5" ry="2.5" style="stroke:#181818;stroke-width:0.5;" width="179" x="1445.6" y="493.6563"/><ellipse cx="1460.6" cy="513.7891" fill="#ADD1B2" rx="11" ry="11" style="stroke:#181818;stroke-width:1.0;"/><path d="M1463.5687,519.4297 Q1462.9906,519.7266 1462.35,519.875 Q1461.7094,520.0234 1461.0062,520.0234 Q1458.5062,520.0234 1457.1859,518.375 Q1455.8656,516.7266 1455.8656,513.6016 Q1455.8656,510.4766 1457.1859,508.8203 Q1458.5062,507.1641 1461.0062,507.1641 Q1461.7094,507.1641 1462.3578,507.3203 Q1463.0062,507.4766 1463.5687,507.7734 L1463.5687,510.4922 Q1462.9437,509.9141 1462.35,509.6406 Q1461.7562,509.3672 1461.1312,509.3672 Q1459.7875,509.3672 1459.1,510.4375 Q1458.4125,511.5078 1458.4125,513.6016 Q1458.4125,515.6953 1459.1,516.7656 Q1459.7875,517.8359 1461.1312,517.8359 Q1461.7562,517.8359 1462.35,517.5625 Q1462.9437,517.2891 1463.5687,516.7109 L1463.5687,519.4297 Z " fill="#000000"/><text fill="#000000" font-family="sans-serif" font-size="12" font-style="italic" lengthAdjust="spacing" textLength="114" x="1491.1" y="509.7949">«masd::exception»</text><text fill="#000000" font-family="sans-serif" font-size="14" lengthAdjust="spacing" textLength="147" x="1474.6" y="525.6201">transform_exception</text><line style="stroke:#181818;stroke-width:0.5;" x1="1446.6" x2="1623.6" y1="533.9219" y2="533.9219"/><line style="stroke:#181818;stroke-width:0.5;" x1="1446.6" x2="1623.6" y1="541.9219" y2="541.9219"/></g><!--MD5=[92b77629bd55dfee0d8df9f5cdda9d7d]
class helpers::codec_to_logical_projector--><g id="elem_helpers::codec_to_logical_projector"><rect codeLine="132" fill="#FFFACD" height="56.2656" id="helpers::codec_to_logical_projector" rx="2.5" ry="2.5" style="stroke:#181818;stroke-width:0.5;" width="222" x="806" y="1061.4688"/><ellipse cx="821" cy="1081.6016" fill="#ADD1B2" rx="11" ry="11" style="stroke:#181818;stroke-width:1.0;"/><path d="M823.9688,1087.2422 Q823.3906,1087.5391 822.75,1087.6875 Q822.1094,1087.8359 821.4063,1087.8359 Q818.9063,1087.8359 817.5859,1086.1875 Q816.2656,1084.5391 816.2656,1081.4141 Q816.2656,1078.2891 817.5859,1076.6328 Q818.9063,1074.9766 821.4063,1074.9766 Q822.1094,1074.9766 822.7578,1075.1328 Q823.4063,1075.2891 823.9688,1075.5859 L823.9688,1078.3047 Q823.3438,1077.7266 822.75,1077.4531 Q822.1563,1077.1797 821.5313,1077.1797 Q820.1875,1077.1797 819.5,1078.25 Q818.8125,1079.3203 818.8125,1081.4141 Q818.8125,1083.5078 819.5,1084.5781 Q820.1875,1085.6484 821.5313,1085.6484 Q822.1563,1085.6484 822.75,1085.375 Q823.3438,1085.1016 823.9688,1084.5234 L823.9688,1087.2422 Z " fill="#000000"/><text fill="#000000" font-family="sans-serif" font-size="12" font-style="italic" lengthAdjust="spacing" textLength="194" x="833" y="1077.6074">«dogen::handcrafted::typeable»</text><text fill="#000000" font-family="sans-serif" font-size="14" lengthAdjust="spacing" textLength="190" x="835" y="1093.4326">codec_to_logical_projector</text><line style="stroke:#181818;stroke-width:0.5;" x1="807" x2="1027" y1="1101.7344" y2="1101.7344"/><line style="stroke:#181818;stroke-width:0.5;" x1="807" x2="1027" y1="1109.7344" y2="1109.7344"/></g><!--MD5=[cea5031ae87c74002eae456e394668e6]
class helpers::dependencies_builder--><g id="elem_helpers::dependencies_builder"><rect codeLine="149" fill="#FFFACD" height="56.2656" id="helpers::dependencies_builder" rx="2.5" ry="2.5" style="stroke:#181818;stroke-width:0.5;" width="222" x="1325" y="1061.4688"/><ellipse cx="1340" cy="1081.6016" fill="#ADD1B2" rx="11" ry="11" style="stroke:#181818;stroke-width:1.0;"/><path d="M1342.9688,1087.2422 Q1342.3906,1087.5391 1341.75,1087.6875 Q1341.1094,1087.8359 1340.4063,1087.8359 Q1337.9063,1087.8359 1336.5859,1086.1875 Q1335.2656,1084.5391 1335.2656,1081.4141 Q1335.2656,1078.2891 1336.5859,1076.6328 Q1337.9063,1074.9766 1340.4063,1074.9766 Q1341.1094,1074.9766 1341.7578,1075.1328 Q1342.4063,1075.2891 1342.9688,1075.5859 L1342.9688,1078.3047 Q1342.3438,1077.7266 1341.75,1077.4531 Q1341.1563,1077.1797 1340.5313,1077.1797 Q1339.1875,1077.1797 1338.5,1078.25 Q1337.8125,1079.3203 1337.8125,1081.4141 Q1337.8125,1083.5078 1338.5,1084.5781 Q1339.1875,1085.6484 1340.5313,1085.6484 Q1341.1563,1085.6484 1341.75,1085.375 Q1342.3438,1085.1016 1342.9688,1084.5234 L1342.9688,1087.2422 Z " fill="#000000"/><text fill="#000000" font-family="sans-serif" font-size="12" font-style="italic" lengthAdjust="spacing" textLength="194" x="1352" y="1077.6074">«dogen::handcrafted::typeable»</text><text fill="#000000" font-family="sans-serif" font-size="14" lengthAdjust="spacing" textLength="157" x="1370.5" y="1093.4326">dependencies_builder</text><line style="stroke:#181818;stroke-width:0.5;" x1="1326" x2="1546" y1="1101.7344" y2="1101.7344"/><line style="stroke:#181818;stroke-width:0.5;" x1="1326" x2="1546" y1="1109.7344" y2="1109.7344"/></g><g id="elem_helpers::helpers_1"><path d="M1048,1077.0352 L1048,1102.168 L1305,1102.168 L1305,1087.0352 L1295,1077.0352 L1048,1077.0352 " fill="#FEFFDD" style="stroke:#181818;stroke-width:0.5;"/><path d="M1295,1077.0352 L1295,1087.0352 L1305,1087.0352 L1295,1077.0352 " fill="#FEFFDD" style="stroke:#181818;stroke-width:1.0;"/><text fill="#000000" font-family="sans-serif" font-size="13" lengthAdjust="spacing" textLength="236" x="1054" y="1094.1021">Helpers for the orchestration model.</text></g><!--MD5=[d01b10de00c0a436a76d2778d5e50983]
class helpers::projection_error--><g id="elem_helpers::projection_error"><rect codeLine="142" fill="#E8C2F8" height="56.2656" id="helpers::projection_error" rx="2.5" ry="2.5" style="stroke:#181818;stroke-width:0.5;" width="147" x="594" y="1137.7344"/><ellipse cx="609" cy="1157.8672" fill="#ADD1B2" rx="11" ry="11" style="stroke:#181818;stroke-width:1.0;"/><path d="M611.9688,1163.5078 Q611.3906,1163.8047 610.75,1163.9531 Q610.1094,1164.1016 609.4063,1164.1016 Q606.9063,1164.1016 605.5859,1162.4531 Q604.2656,1160.8047 604.2656,1157.6797 Q604.2656,1154.5547 605.5859,1152.8984 Q606.9063,1151.2422 609.4063,1151.2422 Q610.1094,1151.2422 610.7578,1151.3984 Q611.4063,1151.5547 611.9688,1151.8516 L611.9688,1154.5703 Q611.3438,1153.9922 610.75,1153.7188 Q610.1563,1153.4453 609.5313,1153.4453 Q608.1875,1153.4453 607.5,1154.5156 Q606.8125,1155.5859 606.8125,1157.6797 Q606.8125,1159.7734 607.5,1160.8438 Q608.1875,1161.9141 609.5313,1161.9141 Q610.1563,1161.9141 610.75,1161.6406 Q611.3438,1161.3672 611.9688,1160.7891 L611.9688,1163.5078 Z " fill="#000000"/><text fill="#000000" font-family="sans-serif" font-size="12" font-style="italic" lengthAdjust="spacing" textLength="114" x="623.5" y="1153.873">«masd::exception»</text><text fill="#000000" font-family="sans-serif" font-size="14" lengthAdjust="spacing" textLength="115" x="623" y="1169.6982">projection_error</text><line style="stroke:#181818;stroke-width:0.5;" x1="595" x2="740" y1="1178" y2="1178"/><line style="stroke:#181818;stroke-width:0.5;" x1="595" x2="740" y1="1186" y2="1186"/></g><!--MD5=[133afa2a9525c2d786c3c4a43a456542]
class helpers::logical_to_physical_projector--><g id="elem_helpers::logical_to_physical_projector"><rect codeLine="137" fill="#FFFACD" height="56.2656" id="helpers::logical_to_physical_projector" rx="2.5" ry="2.5" style="stroke:#181818;stroke-width:0.5;" width="237" x="549" y="1061.4688"/><ellipse cx="564" cy="1081.6016" fill="#ADD1B2" rx="11" ry="11" style="stroke:#181818;stroke-width:1.0;"/><path d="M566.9688,1087.2422 Q566.3906,1087.5391 565.75,1087.6875 Q565.1094,1087.8359 564.4063,1087.8359 Q561.9063,1087.8359 560.5859,1086.1875 Q559.2656,1084.5391 559.2656,1081.4141 Q559.2656,1078.2891 560.5859,1076.6328 Q561.9063,1074.9766 564.4063,1074.9766 Q565.1094,1074.9766 565.7578,1075.1328 Q566.4063,1075.2891 566.9688,1075.5859 L566.9688,1078.3047 Q566.3438,1077.7266 565.75,1077.4531 Q565.1563,1077.1797 564.5313,1077.1797 Q563.1875,1077.1797 562.5,1078.25 Q561.8125,1079.3203 561.8125,1081.4141 Q561.8125,1083.5078 562.5,1084.5781 Q563.1875,1085.6484 564.5313,1085.6484 Q565.1563,1085.6484 565.75,1085.375 Q566.3438,1085.1016 566.9688,1084.5234 L566.9688,1087.2422 Z " fill="#000000"/><text fill="#000000" font-family="sans-serif" font-size="12" font-style="italic" lengthAdjust="spacing" textLength="194" x="583.5" y="1077.6074">«dogen::handcrafted::typeable»</text><text fill="#000000" font-family="sans-serif" font-size="14" lengthAdjust="spacing" textLength="205" x="578" y="1093.4326">logical_to_physical_projector</text><line style="stroke:#181818;stroke-width:0.5;" x1="550" x2="785" y1="1101.7344" y2="1101.7344"/><line style="stroke:#181818;stroke-width:0.5;" x1="550" x2="785" y1="1109.7344" y2="1109.7344"/></g><g id="elem_helpers::GMN63"><path d="M27,1092.6016 L27,1117.7344 L529,1117.7344 L529,1102.6016 L519,1092.6016 L27,1092.6016 " fill="#FEFFDD" style="stroke:#181818;stroke-width:0.5;"/><path d="M519,1092.6016 L519,1102.6016 L529,1102.6016 L519,1092.6016 " fill="#FEFFDD" style="stroke:#181818;stroke-width:1.0;"/><text fill="#000000" font-family="sans-serif" font-size="13" lengthAdjust="spacing" textLength="481" x="33" y="1109.6685">An error occurred whilst projecting elements from one space into another.</text></g><!--MD5=[6fd13f622b1e010fae07eaa86c0895f5]
class helpers::building_error--><g id="elem_helpers::building_error"><rect codeLine="154" fill="#E8C2F8" height="56.2656" id="helpers::building_error" rx="2.5" ry="2.5" style="stroke:#181818;stroke-width:0.5;" width="142" x="1365" y="1137.7344"/><ellipse cx="1380" cy="1157.8672" fill="#ADD1B2" rx="11" ry="11" style="stroke:#181818;stroke-width:1.0;"/><path d="M1382.9688,1163.5078 Q1382.3906,1163.8047 1381.75,1163.9531 Q1381.1094,1164.1016 1380.4063,1164.1016 Q1377.9063,1164.1016 1376.5859,1162.4531 Q1375.2656,1160.8047 1375.2656,1157.6797 Q1375.2656,1154.5547 1376.5859,1152.8984 Q1377.9063,1151.2422 1380.4063,1151.2422 Q1381.1094,1151.2422 1381.7578,1151.3984 Q1382.4063,1151.5547 1382.9688,1151.8516 L1382.9688,1154.5703 Q1382.3438,1153.9922 1381.75,1153.7188 Q1381.1563,1153.4453 1380.5313,1153.4453 Q1379.1875,1153.4453 1378.5,1154.5156 Q1377.8125,1155.5859 1377.8125,1157.6797 Q1377.8125,1159.7734 1378.5,1160.8438 Q1379.1875,1161.9141 1380.5313,1161.9141 Q1381.1563,1161.9141 1381.75,1161.6406 Q1382.3438,1161.3672 1382.9688,1160.7891 L1382.9688,1163.5078 Z " fill="#000000"/><text fill="#000000" font-family="sans-serif" font-size="12" font-style="italic" lengthAdjust="spacing" textLength="114" x="1392" y="1153.873">«masd::exception»</text><text fill="#000000" font-family="sans-serif" font-size="14" lengthAdjust="spacing" textLength="100" x="1399" y="1169.6982">building_error</text><line style="stroke:#181818;stroke-width:0.5;" x1="1366" x2="1506" y1="1178" y2="1178"/><line style="stroke:#181818;stroke-width:0.5;" x1="1366" x2="1506" y1="1186" y2="1186"/></g><g id="elem_features::features_1"><path d="M2051.8,67.5664 L2051.8,92.6992 L2314.8,92.6992 L2314.8,77.5664 L2304.8,67.5664 L2051.8,67.5664 " fill="#FEFFDD" style="stroke:#181818;stroke-width:0.5;"/><path d="M2304.8,67.5664 L2304.8,77.5664 L2314.8,77.5664 L2304.8,67.5664 " fill="#FEFFDD" style="stroke:#181818;stroke-width:1.0;"/><text fill="#000000" font-family="sans-serif" font-size="13" lengthAdjust="spacing" textLength="242" x="2057.8" y="84.6333">Features for the orchestration model.</text></g><!--MD5=[27da765e9111347023128ab7be8dd5bd]
class features::model_location--><g id="elem_features::model_location"><rect codeLine="164" fill="#BAD7D7" height="88.8594" id="features::model_location" rx="2.5" ry="2.5" style="stroke:#181818;stroke-width:0.5;" width="313" x="2351.3" y="128.2656"/><ellipse cx="2399.55" cy="148.3984" fill="#ADD1B2" rx="11" ry="11" style="stroke:#181818;stroke-width:1.0;"/><path d="M2402.5187,154.0391 Q2401.9406,154.3359 2401.3,154.4844 Q2400.6594,154.6328 2399.9562,154.6328 Q2397.4562,154.6328 2396.1359,152.9844 Q2394.8156,151.3359 2394.8156,148.2109 Q2394.8156,145.0859 2396.1359,143.4297 Q2397.4562,141.7734 2399.9562,141.7734 Q2400.6594,141.7734 2401.3078,141.9297 Q2401.9562,142.0859 2402.5187,142.3828 L2402.5187,145.1016 Q2401.8937,144.5234 2401.3,144.25 Q2400.7062,143.9766 2400.0812,143.9766 Q2398.7375,143.9766 2398.05,145.0469 Q2397.3625,146.1172 2397.3625,148.2109 Q2397.3625,150.3047 2398.05,151.375 Q2398.7375,152.4453 2400.0812,152.4453 Q2400.7062,152.4453 2401.3,152.1719 Q2401.8937,151.8984 2402.5187,151.3203 L2402.5187,154.0391 Z " fill="#000000"/><text fill="#000000" font-family="sans-serif" font-size="12" font-style="italic" lengthAdjust="spacing" textLength="212" x="2418.05" y="144.4043">«masd::variability::feature_bundle»</text><text fill="#000000" font-family="sans-serif" font-size="14" lengthAdjust="spacing" textLength="109" x="2469.55" y="160.2295">model_location</text><line style="stroke:#181818;stroke-width:0.5;" x1="2352.3" x2="2663.3" y1="168.5313" y2="168.5313"/><ellipse cx="2362.3" cy="182.1797" fill="none" rx="3" ry="3" style="stroke:#038048;stroke-width:1.0;"/><text fill="#000000" font-family="sans-serif" font-size="14" lengthAdjust="spacing" textLength="287" x="2371.3" y="185.5264">external_modules masd::variability::text</text><ellipse cx="2362.3" cy="198.4766" fill="none" rx="3" ry="3" style="stroke:#038048;stroke-width:1.0;"/><text fill="#000000" font-family="sans-serif" font-size="14" lengthAdjust="spacing" textLength="273" x="2371.3" y="201.8232">model_modules masd::variability::text</text><line style="stroke:#181818;stroke-width:0.5;" x1="2352.3" x2="2663.3" y1="209.125" y2="209.125"/></g><g id="elem_features::GMN71"><path d="M2334.8,83.1328 L2334.8,108.2656 L2680.8,108.2656 L2680.8,93.1328 L2670.8,83.1328 L2334.8,83.1328 " fill="#FEFFDD" style="stroke:#181818;stroke-width:0.5;"/><path d="M2670.8,83.1328 L2670.8,93.1328 L2680.8,93.1328 L2670.8,83.1328 " fill="#FEFFDD" style="stroke:#181818;stroke-width:1.0;"/><text fill="#000000" font-family="sans-serif" font-size="13" lengthAdjust="spacing" textLength="325" x="2340.8" y="100.1997">Feature group for model location related features.</text></g><!--MD5=[f92b0da6b1af7bae6fc1fe89a12449e8]
class features::initializer--><g id="elem_features::initializer"><rect codeLine="173" fill="#A9CDCD" height="56.2656" id="features::initializer" rx="2.5" ry="2.5" style="stroke:#181818;stroke-width:0.5;" width="202" x="1829.8" y="52"/><ellipse cx="1844.8" cy="72.1328" fill="#ADD1B2" rx="11" ry="11" style="stroke:#181818;stroke-width:1.0;"/><path d="M1847.7687,77.7734 Q1847.1906,78.0703 1846.55,78.2188 Q1845.9094,78.3672 1845.2062,78.3672 Q1842.7062,78.3672 1841.3859,76.7188 Q1840.0656,75.0703 1840.0656,71.9453 Q1840.0656,68.8203 1841.3859,67.1641 Q1842.7062,65.5078 1845.2062,65.5078 Q1845.9094,65.5078 1846.5578,65.6641 Q1847.2062,65.8203 1847.7687,66.1172 L1847.7687,68.8359 Q1847.1437,68.2578 1846.55,67.9844 Q1845.9562,67.7109 1845.3312,67.7109 Q1843.9875,67.7109 1843.3,68.7813 Q1842.6125,69.8516 1842.6125,71.9453 Q1842.6125,74.0391 1843.3,75.1094 Q1843.9875,76.1797 1845.3312,76.1797 Q1845.9562,76.1797 1846.55,75.9063 Q1847.1437,75.6328 1847.7687,75.0547 L1847.7687,77.7734 Z " fill="#000000"/><text fill="#000000" font-family="sans-serif" font-size="12" font-style="italic" lengthAdjust="spacing" textLength="174" x="1856.8" y="68.1387">«masd::variability::initializer»</text><text fill="#000000" font-family="sans-serif" font-size="14" lengthAdjust="spacing" textLength="65" x="1911.3" y="83.9639">initializer</text><line style="stroke:#181818;stroke-width:0.5;" x1="1830.8" x2="2030.8" y1="92.2656" y2="92.2656"/><line style="stroke:#181818;stroke-width:0.5;" x1="1830.8" x2="2030.8" y1="100.2656" y2="100.2656"/></g><g id="elem_N1"><path d="M667.8,79.2305 L667.8,164.8945 L1127.8,164.8945 L1127.8,89.2305 L1117.8,79.2305 L667.8,79.2305 " fill="#FEFFDD" style="stroke:#181818;stroke-width:0.5;"/><path d="M1117.8,79.2305 L1117.8,89.2305 L1127.8,89.2305 L1117.8,79.2305 " fill="#FEFFDD" style="stroke:#181818;stroke-width:1.0;"/><text fill="#000000" font-family="sans-serif" font-size="13" lengthAdjust="spacing" textLength="402" x="673.8" y="96.2974">Orchestration-based imlementation of the Dogen product API.</text><text fill="#000000" font-family="sans-serif" font-size="13" lengthAdjust="spacing" textLength="4" x="673.8" y="111.4302"> </text><text fill="#000000" font-family="sans-serif" font-size="13" lengthAdjust="spacing" textLength="131" x="673.8" y="126.563">UML representation:</text><text fill="#000000" font-family="sans-serif" font-size="13" lengthAdjust="spacing" textLength="4" x="673.8" y="141.6958"> </text><text fill="#000000" font-family="sans-serif" font-size="13" lengthAdjust="spacing" textLength="439" x="673.8" y="156.8286">\image html dogen.orchestration/modeling/dogen.orchestration.svg</text></g><!--MD5=[4520fda4e10d4d791ce48fe025810cd4]
class main--><g id="elem_main"><rect codeLine="10" fill="#DDA9F3" height="56.2656" id="main" rx="2.5" ry="2.5" style="stroke:#181818;stroke-width:0.5;" width="267" x="1527.8" y="175.8594"/><ellipse cx="1542.8" cy="195.9922" fill="#ADD1B2" rx="11" ry="11" style="stroke:#181818;stroke-width:1.0;"/><path d="M1545.7687,201.6328 Q1545.1906,201.9297 1544.55,202.0781 Q1543.9094,202.2266 1543.2062,202.2266 Q1540.7062,202.2266 1539.3859,200.5781 Q1538.0656,198.9297 1538.0656,195.8047 Q1538.0656,192.6797 1539.3859,191.0234 Q1540.7062,189.3672 1543.2062,189.3672 Q1543.9094,189.3672 1544.5578,189.5234 Q1545.2062,189.6797 1545.7687,189.9766 L1545.7687,192.6953 Q1545.1437,192.1172 1544.55,191.8438 Q1543.9562,191.5703 1543.3312,191.5703 Q1541.9875,191.5703 1541.3,192.6406 Q1540.6125,193.7109 1540.6125,195.8047 Q1540.6125,197.8984 1541.3,198.9688 Q1541.9875,200.0391 1543.3312,200.0391 Q1543.9562,200.0391 1544.55,199.7656 Q1545.1437,199.4922 1545.7687,198.9141 L1545.7687,201.6328 Z " fill="#000000"/><text fill="#000000" font-family="sans-serif" font-size="12" font-style="italic" lengthAdjust="spacing" textLength="239" x="1554.8" y="191.998">«masd::entry_point, dogen::untypable»</text><text fill="#000000" font-family="sans-serif" font-size="14" lengthAdjust="spacing" textLength="36" x="1656.3" y="207.8232">main</text><line style="stroke:#181818;stroke-width:0.5;" x1="1528.8" x2="1793.8" y1="216.125" y2="216.125"/><line style="stroke:#181818;stroke-width:0.5;" x1="1528.8" x2="1793.8" y1="224.125" y2="224.125"/></g><!--MD5=[dd71179583cce17ecb14726d47c32e81]
class generator--><g id="elem_generator"><rect codeLine="18" fill="#FFFACD" height="56.2656" id="generator" rx="2.5" ry="2.5" style="stroke:#181818;stroke-width:0.5;" width="222" x="1523.6" y="297.2578"/><ellipse cx="1538.6" cy="317.3906" fill="#ADD1B2" rx="11" ry="11" style="stroke:#181818;stroke-width:1.0;"/><path d="M1541.5687,323.0313 Q1540.9906,323.3281 1540.35,323.4766 Q1539.7094,323.625 1539.0062,323.625 Q1536.5062,323.625 1535.1859,321.9766 Q1533.8656,320.3281 1533.8656,317.2031 Q1533.8656,314.0781 1535.1859,312.4219 Q1536.5062,310.7656 1539.0062,310.7656 Q1539.7094,310.7656 1540.3578,310.9219 Q1541.0062,311.0781 1541.5687,311.375 L1541.5687,314.0938 Q1540.9437,313.5156 1540.35,313.2422 Q1539.7562,312.9688 1539.1312,312.9688 Q1537.7875,312.9688 1537.1,314.0391 Q1536.4125,315.1094 1536.4125,317.2031 Q1536.4125,319.2969 1537.1,320.3672 Q1537.7875,321.4375 1539.1312,321.4375 Q1539.7562,321.4375 1540.35,321.1641 Q1540.9437,320.8906 1541.5687,320.3125 L1541.5687,323.0313 Z " fill="#000000"/><text fill="#000000" font-family="sans-serif" font-size="12" font-style="italic" lengthAdjust="spacing" textLength="194" x="1550.6" y="313.3965">«dogen::handcrafted::typeable»</text><text fill="#000000" font-family="sans-serif" font-size="14" lengthAdjust="spacing" textLength="71" x="1612.1" y="329.2217">generator</text><line style="stroke:#181818;stroke-width:0.5;" x1="1524.6" x2="1744.6" y1="337.5234" y2="337.5234"/><line style="stroke:#181818;stroke-width:0.5;" x1="1524.6" x2="1744.6" y1="345.5234" y2="345.5234"/></g><!--MD5=[3e3a516ce6d06244972b43908f48245e]
class spec_dumper--><g id="elem_spec_dumper"><rect codeLine="25" fill="#FFFACD" height="56.2656" id="spec_dumper" rx="2.5" ry="2.5" style="stroke:#181818;stroke-width:0.5;" width="222" x="1940.85" y="297.2578"/><ellipse cx="1955.85" cy="317.3906" fill="#ADD1B2" rx="11" ry="11" style="stroke:#181818;stroke-width:1.0;"/><path d="M1958.8187,323.0313 Q1958.2406,323.3281 1957.6,323.4766 Q1956.9594,323.625 1956.2562,323.625 Q1953.7562,323.625 1952.4359,321.9766 Q1951.1156,320.3281 1951.1156,317.2031 Q1951.1156,314.0781 1952.4359,312.4219 Q1953.7562,310.7656 1956.2562,310.7656 Q1956.9594,310.7656 1957.6078,310.9219 Q1958.2562,311.0781 1958.8187,311.375 L1958.8187,314.0938 Q1958.1937,313.5156 1957.6,313.2422 Q1957.0062,312.9688 1956.3812,312.9688 Q1955.0375,312.9688 1954.35,314.0391 Q1953.6625,315.1094 1953.6625,317.2031 Q1953.6625,319.2969 1954.35,320.3672 Q1955.0375,321.4375 1956.3812,321.4375 Q1957.0062,321.4375 1957.6,321.1641 Q1958.1937,320.8906 1958.8187,320.3125 L1958.8187,323.0313 Z " fill="#000000"/><text fill="#000000" font-family="sans-serif" font-size="12" font-style="italic" lengthAdjust="spacing" textLength="194" x="1967.85" y="313.3965">«dogen::handcrafted::typeable»</text><text fill="#000000" font-family="sans-serif" font-size="14" lengthAdjust="spacing" textLength="96" x="2016.85" y="329.2217">spec_dumper</text><line style="stroke:#181818;stroke-width:0.5;" x1="1941.85" x2="2161.85" y1="337.5234" y2="337.5234"/><line style="stroke:#181818;stroke-width:0.5;" x1="1941.85" x2="2161.85" y1="345.5234" y2="345.5234"/></g><!--MD5=[28d2d70932dfaa0fc9ca4145a3e35f21]
class converter--><g id="elem_converter"><rect codeLine="31" fill="#FFFACD" height="56.2656" id="converter" rx="2.5" ry="2.5" style="stroke:#181818;stroke-width:0.5;" width="222" x="2182.85" y="297.2578"/><ellipse cx="2197.85" cy="317.3906" fill="#ADD1B2" rx="11" ry="11" style="stroke:#181818;stroke-width:1.0;"/><path d="M2200.8187,323.0313 Q2200.2406,323.3281 2199.6,323.4766 Q2198.9594,323.625 2198.2562,323.625 Q2195.7562,323.625 2194.4359,321.9766 Q2193.1156,320.3281 2193.1156,317.2031 Q2193.1156,314.0781 2194.4359,312.4219 Q2195.7562,310.7656 2198.2562,310.7656 Q2198.9594,310.7656 2199.6078,310.9219 Q2200.2562,311.0781 2200.8187,311.375 L2200.8187,314.0938 Q2200.1937,313.5156 2199.6,313.2422 Q2199.0062,312.9688 2198.3812,312.9688 Q2197.0375,312.9688 2196.35,314.0391 Q2195.6625,315.1094 2195.6625,317.2031 Q2195.6625,319.2969 2196.35,320.3672 Q2197.0375,321.4375 2198.3812,321.4375 Q2199.0062,321.4375 2199.6,321.1641 Q2200.1937,320.8906 2200.8187,320.3125 L2200.8187,323.0313 Z " fill="#000000"/><text fill="#000000" font-family="sans-serif" font-size="12" font-style="italic" lengthAdjust="spacing" textLength="194" x="2209.85" y="313.3965">«dogen::handcrafted::typeable»</text><text fill="#000000" font-family="sans-serif" font-size="14" lengthAdjust="spacing" textLength="69" x="2272.35" y="329.2217">converter</text><line style="stroke:#181818;stroke-width:0.5;" x1="2183.85" x2="2403.85" y1="337.5234" y2="337.5234"/><line style="stroke:#181818;stroke-width:0.5;" x1="2183.85" x2="2403.85" y1="345.5234" y2="345.5234"/></g><!--MD5=[d54e5852ecfe164bbba509d3a9352ed8]
class initializer--><g id="elem_initializer"><rect codeLine="37" fill="#FFFACD" height="56.2656" id="initializer" rx="2.5" ry="2.5" style="stroke:#181818;stroke-width:0.5;" width="222" x="1281.6" y="297.2578"/><ellipse cx="1296.6" cy="317.3906" fill="#ADD1B2" rx="11" ry="11" style="stroke:#181818;stroke-width:1.0;"/><path d="M1299.5687,323.0313 Q1298.9906,323.3281 1298.35,323.4766 Q1297.7094,323.625 1297.0062,323.625 Q1294.5062,323.625 1293.1859,321.9766 Q1291.8656,320.3281 1291.8656,317.2031 Q1291.8656,314.0781 1293.1859,312.4219 Q1294.5062,310.7656 1297.0062,310.7656 Q1297.7094,310.7656 1298.3578,310.9219 Q1299.0062,311.0781 1299.5687,311.375 L1299.5687,314.0938 Q1298.9437,313.5156 1298.35,313.2422 Q1297.7562,312.9688 1297.1312,312.9688 Q1295.7875,312.9688 1295.1,314.0391 Q1294.4125,315.1094 1294.4125,317.2031 Q1294.4125,319.2969 1295.1,320.3672 Q1295.7875,321.4375 1297.1312,321.4375 Q1297.7562,321.4375 1298.35,321.1641 Q1298.9437,320.8906 1299.5687,320.3125 L1299.5687,323.0313 Z " fill="#000000"/><text fill="#000000" font-family="sans-serif" font-size="12" font-style="italic" lengthAdjust="spacing" textLength="194" x="1308.6" y="313.3965">«dogen::handcrafted::typeable»</text><text fill="#000000" font-family="sans-serif" font-size="14" lengthAdjust="spacing" textLength="65" x="1373.1" y="329.2217">initializer</text><line style="stroke:#181818;stroke-width:0.5;" x1="1282.6" x2="1502.6" y1="337.5234" y2="337.5234"/><line style="stroke:#181818;stroke-width:0.5;" x1="1282.6" x2="1502.6" y1="345.5234" y2="345.5234"/></g><!--MD5=[ba83386d426114557685538e96aa6f68]
class CMakeLists--><g id="elem_CMakeLists"><rect codeLine="178" fill="#99CB99" height="56.2656" id="CMakeLists" rx="2.5" ry="2.5" style="stroke:#181818;stroke-width:0.5;" width="360" x="1147.8" y="93.9297"/><ellipse cx="1162.8" cy="114.0625" fill="#ADD1B2" rx="11" ry="11" style="stroke:#181818;stroke-width:1.0;"/><path d="M1165.7687,119.7031 Q1165.1906,120 1164.55,120.1484 Q1163.9094,120.2969 1163.2062,120.2969 Q1160.7062,120.2969 1159.3859,118.6484 Q1158.0656,117 1158.0656,113.875 Q1158.0656,110.75 1159.3859,109.0938 Q1160.7062,107.4375 1163.2062,107.4375 Q1163.9094,107.4375 1164.5578,107.5938 Q1165.2062,107.75 1165.7687,108.0469 L1165.7687,110.7656 Q1165.1437,110.1875 1164.55,109.9141 Q1163.9562,109.6406 1163.3312,109.6406 Q1161.9875,109.6406 1161.3,110.7109 Q1160.6125,111.7813 1160.6125,113.875 Q1160.6125,115.9688 1161.3,117.0391 Q1161.9875,118.1094 1163.3312,118.1094 Q1163.9562,118.1094 1164.55,117.8359 Q1165.1437,117.5625 1165.7687,116.9844 L1165.7687,119.7031 Z " fill="#000000"/><text fill="#000000" font-family="sans-serif" font-size="12" font-style="italic" lengthAdjust="spacing" textLength="332" x="1174.8" y="110.0684">«masd::build::cmakelists, dogen::handcrafted::cmake»</text><text fill="#000000" font-family="sans-serif" font-size="14" lengthAdjust="spacing" textLength="79" x="1301.3" y="125.8936">CMakeLists</text><line style="stroke:#181818;stroke-width:0.5;" x1="1148.8" x2="1506.8" y1="134.1953" y2="134.1953"/><line style="stroke:#181818;stroke-width:0.5;" x1="1148.8" x2="1506.8" y1="142.1953" y2="142.1953"/></g><line style="stroke:#181818;stroke-width:1.0;" x1="1634.6" x2="1634.6" y1="232.125" y2="297.2578"/><polygon fill="none" points="1634.6,232.125,1630.6,238.125,1634.6,244.125,1638.6,238.125,1634.6,232.125" style="stroke:#181818;stroke-width:1.0;"/><text fill="#000000" font-family="sans-serif" font-size="13" lengthAdjust="spacing" textLength="139" x="1493.6" y="274.1919">generates code using</text><line style="stroke:#181818;stroke-width:1.0;" x1="1688" x2="1688" y1="232.125" y2="252.125"/><line style="stroke:#181818;stroke-width:1.0;" x1="1688" x2="2051.85" y1="252.125" y2="252.125"/><line style="stroke:#181818;stroke-width:1.0;" x1="2051.85" x2="2051.85" y1="252.125" y2="297.2578"/><polygon fill="none" points="1688,232.125,1684,238.125,1688,244.125,1692,238.125,1688,232.125" style="stroke:#181818;stroke-width:1.0;"/><text fill="#000000" font-family="sans-serif" font-size="13" lengthAdjust="spacing" textLength="124" x="1925.85" y="274.1919">dumps specs using</text><line style="stroke:#181818;stroke-width:1.0;" x1="1741.4" x2="1741.4" y1="232.125" y2="242.125"/><line style="stroke:#181818;stroke-width:1.0;" x1="1741.4" x2="2293.85" y1="242.125" y2="242.125"/><line style="stroke:#181818;stroke-width:1.0;" x1="2293.85" x2="2293.85" y1="242.125" y2="297.2578"/><polygon fill="none" points="1741.4,232.125,1737.4,238.125,1741.4,244.125,1745.4,238.125,1741.4,232.125" style="stroke:#181818;stroke-width:1.0;"/><text fill="#000000" font-family="sans-serif" font-size="13" lengthAdjust="spacing" textLength="147" x="2144.85" y="274.1919">converts models using</text><line style="stroke:#181818;stroke-width:1.0;" x1="1581.2" x2="1581.2" y1="232.125" y2="242.125"/><line style="stroke:#181818;stroke-width:1.0;" x1="1581.2" x2="1392.6" y1="242.125" y2="242.125"/><line style="stroke:#181818;stroke-width:1.0;" x1="1392.6" x2="1392.6" y1="242.125" y2="297.2578"/><polygon fill="none" points="1581.2,232.125,1577.2,238.125,1581.2,244.125,1585.2,238.125,1581.2,232.125" style="stroke:#181818;stroke-width:1.0;"/><text fill="#000000" font-family="sans-serif" font-size="13" lengthAdjust="spacing" textLength="102" x="1288.6" y="274.1919">initialises using</text><line style="stroke:#181818;stroke-width:1.0;" x1="1579.1" x2="1579.1" y1="353.5234" y2="363.5234"/><line style="stroke:#181818;stroke-width:1.0;" x1="1579.1" x2="1135.6" y1="363.5234" y2="363.5234"/><line style="stroke:#181818;stroke-width:1.0;" x1="1135.6" x2="1135.6" y1="363.5234" y2="493.6563"/><polygon fill="none" points="1579.1,353.5234,1575.1,359.5234,1579.1,365.5234,1583.1,359.5234,1579.1,353.5234" style="stroke:#181818;stroke-width:1.0;"/><line style="stroke:#181818;stroke-width:1.0;" x1="1634.6" x2="1634.6" y1="353.5234" y2="808.7188"/><line style="stroke:#181818;stroke-width:1.0;" x1="1634.6" x2="2208.6" y1="808.7188" y2="808.7188"/><line style="stroke:#181818;stroke-width:1.0;" x1="2208.6" x2="2208.6" y1="808.7188" y2="828.7188"/><polygon fill="none" points="1634.6,353.5234,1630.6,359.5234,1634.6,365.5234,1638.6,359.5234,1634.6,353.5234" style="stroke:#181818;stroke-width:1.0;"/><line style="stroke:#181818;stroke-width:1.0;" x1="1690.1" x2="1690.1" y1="353.5234" y2="363.5234"/><line style="stroke:#181818;stroke-width:1.0;" x1="1690.1" x2="1893.85" y1="363.5234" y2="363.5234"/><line style="stroke:#181818;stroke-width:1.0;" x1="1893.85" x2="1893.85" y1="363.5234" y2="493.6563"/><polygon fill="none" points="1690.1,353.5234,1686.1,359.5234,1690.1,365.5234,1694.1,359.5234,1690.1,353.5234" style="stroke:#181818;stroke-width:1.0;"/><text fill="#000000" font-family="sans-serif" font-size="13" lengthAdjust="spacing" textLength="108" x="1783.85" y="385.5903">bootstraps using</text><line style="stroke:#181818;stroke-width:1.0;" x1="2088.85" x2="2088.85" y1="353.5234" y2="363.5234"/><line style="stroke:#181818;stroke-width:1.0;" x1="2088.85" x2="2025.85" y1="363.5234" y2="363.5234"/><line style="stroke:#181818;stroke-width:1.0;" x1="2025.85" x2="2025.85" y1="363.5234" y2="408.6563"/><line style="stroke:#181818;stroke-width:1.0;" x1="2025.85" x2="2001.35" y1="408.6563" y2="408.6563"/><line style="stroke:#181818;stroke-width:1.0;" x1="2001.35" x2="2001.35" y1="408.6563" y2="483.6563"/><line style="stroke:#181818;stroke-width:1.0;" x1="2001.35" x2="2398.6" y1="483.6563" y2="483.6563"/><line style="stroke:#181818;stroke-width:1.0;" x1="2398.6" x2="2398.6" y1="483.6563" y2="828.7188"/><polygon fill="none" points="2088.85,353.5234,2084.85,359.5234,2088.85,365.5234,2092.85,359.5234,2088.85,353.5234" style="stroke:#181818;stroke-width:1.0;"/><line style="stroke:#181818;stroke-width:1.0;" x1="2014.85" x2="2014.85" y1="353.5234" y2="398.6563"/><line style="stroke:#181818;stroke-width:1.0;" x1="2014.85" x2="1953.1" y1="398.6563" y2="398.6563"/><line style="stroke:#181818;stroke-width:1.0;" x1="1953.1" x2="1953.1" y1="398.6563" y2="493.6563"/><polygon fill="none" points="2014.85,353.5234,2010.85,359.5234,2014.85,365.5234,2018.85,359.5234,2014.85,353.5234" style="stroke:#181818;stroke-width:1.0;"/><text fill="#000000" font-family="sans-serif" font-size="13" lengthAdjust="spacing" textLength="108" x="1904.85" y="385.5903">bootstraps using</text><line style="stroke:#181818;stroke-width:1.0;" x1="2330.85" x2="2330.85" y1="353.5234" y2="363.5234"/><line style="stroke:#181818;stroke-width:1.0;" x1="2330.85" x2="2461.9333" y1="363.5234" y2="363.5234"/><line style="stroke:#181818;stroke-width:1.0;" x1="2461.9333" x2="2461.9333" y1="363.5234" y2="828.7188"/><polygon fill="none" points="2330.85,353.5234,2326.85,359.5234,2330.85,365.5234,2334.85,359.5234,2330.85,353.5234" style="stroke:#181818;stroke-width:1.0;"/><line style="stroke:#181818;stroke-width:1.0;" x1="2256.85" x2="2256.85" y1="353.5234" y2="418.6563"/><line style="stroke:#181818;stroke-width:1.0;" x1="2256.85" x2="2012.35" y1="418.6563" y2="418.6563"/><line style="stroke:#181818;stroke-width:1.0;" x1="2012.35" x2="2012.35" y1="418.6563" y2="493.6563"/><polygon fill="none" points="2256.85,353.5234,2252.85,359.5234,2256.85,365.5234,2260.85,359.5234,2256.85,353.5234" style="stroke:#181818;stroke-width:1.0;"/><text fill="#000000" font-family="sans-serif" font-size="13" lengthAdjust="spacing" textLength="108" x="2146.85" y="385.5903">bootstraps using</text><line style="stroke:#181818;stroke-width:1.0;" x1="1135.6" x2="1135.6" y1="549.9219" y2="569.9219"/><polygon fill="none" points="1135.6,549.9219,1131.6,555.9219,1135.6,561.9219,1139.6,555.9219,1135.6,549.9219" style="stroke:#181818;stroke-width:1.0;"/><line style="stroke:#181818;stroke-width:1.0;" x1="1203.6" x2="1203.6" y1="626.1875" y2="636.1875"/><line style="stroke:#181818;stroke-width:1.0;" x1="1203.6" x2="1439.1" y1="636.1875" y2="636.1875"/><line style="stroke:#181818;stroke-width:1.0;" x1="1439.1" x2="1439.1" y1="636.1875" y2="646.1875"/><polygon fill="none" points="1203.6,626.1875,1199.6,632.1875,1203.6,638.1875,1207.6,632.1875,1203.6,626.1875" style="stroke:#181818;stroke-width:1.0;"/><line style="stroke:#181818;stroke-width:1.0;" x1="1135.6" x2="1135.6" y1="626.1875" y2="646.1875"/><polygon fill="none" points="1135.6,626.1875,1131.6,632.1875,1135.6,638.1875,1139.6,632.1875,1135.6,626.1875" style="stroke:#181818;stroke-width:1.0;"/><line style="stroke:#181818;stroke-width:1.0;" x1="1067.6" x2="1067.6" y1="626.1875" y2="636.1875"/><line style="stroke:#181818;stroke-width:1.0;" x1="1067.6" x2="731.6667" y1="636.1875" y2="636.1875"/><line style="stroke:#181818;stroke-width:1.0;" x1="731.6667" x2="731.6667" y1="636.1875" y2="646.1875"/><polygon fill="none" points="1067.6,626.1875,1063.6,632.1875,1067.6,638.1875,1071.6,632.1875,1067.6,626.1875" style="stroke:#181818;stroke-width:1.0;"/><line style="stroke:#181818;stroke-width:1.0;" x1="1135.6" x2="1135.6" y1="702.4531" y2="722.4531"/><polygon fill="none" points="1135.6,702.4531,1131.6,708.4531,1135.6,714.4531,1139.6,708.4531,1135.6,702.4531" style="stroke:#181818;stroke-width:1.0;"/><line style="stroke:#181818;stroke-width:1.0;" x1="621.3333" x2="621.3333" y1="626.1875" y2="646.1875"/><polygon fill="none" points="621.3333,626.1875,617.3333,632.1875,621.3333,638.1875,625.3333,632.1875,621.3333,626.1875" style="stroke:#181818;stroke-width:1.0;"/><line style="stroke:#181818;stroke-width:1.0;" x1="676.5" x2="676.5" y1="702.4531" y2="1006.4688"/><line style="stroke:#181818;stroke-width:1.0;" x1="676.5" x2="954" y1="1006.4688" y2="1006.4688"/><line style="stroke:#181818;stroke-width:1.0;" x1="954" x2="954" y1="1006.4688" y2="1061.4688"/><polygon fill="none" points="676.5,702.4531,672.5,708.4531,676.5,714.4531,680.5,708.4531,676.5,702.4531" style="stroke:#181818;stroke-width:1.0;"/><line style="stroke:#181818;stroke-width:1.0;" x1="1164" x2="1164" y1="778.7188" y2="828.7188"/><polygon fill="none" points="1164,778.7188,1160,784.7188,1164,790.7188,1168,784.7188,1164,778.7188" style="stroke:#181818;stroke-width:1.0;"/><line style="stroke:#181818;stroke-width:1.0;" x1="1107.2" x2="1107.2" y1="778.7188" y2="798.7188"/><line style="stroke:#181818;stroke-width:1.0;" x1="1107.2" x2="861" y1="798.7188" y2="798.7188"/><line style="stroke:#181818;stroke-width:1.0;" x1="861" x2="861" y1="798.7188" y2="828.7188"/><polygon fill="none" points="1107.2,778.7188,1103.2,784.7188,1107.2,790.7188,1111.2,784.7188,1107.2,778.7188" style="stroke:#181818;stroke-width:1.0;"/><line style="stroke:#181818;stroke-width:1.0;" x1="1220.8" x2="1220.8" y1="778.7188" y2="788.7188"/><line style="stroke:#181818;stroke-width:1.0;" x1="1220.8" x2="1436" y1="788.7188" y2="788.7188"/><line style="stroke:#181818;stroke-width:1.0;" x1="1436" x2="1436" y1="788.7188" y2="869.4609"/><polygon fill="none" points="1220.8,778.7188,1216.8,784.7188,1220.8,790.7188,1224.8,784.7188,1220.8,778.7188" style="stroke:#181818;stroke-width:1.0;"/><line style="stroke:#181818;stroke-width:1.0;" x1="1050.4" x2="1050.4" y1="778.7188" y2="788.7188"/><line style="stroke:#181818;stroke-width:1.0;" x1="1050.4" x2="687.5" y1="788.7188" y2="788.7188"/><line style="stroke:#181818;stroke-width:1.0;" x1="687.5" x2="687.5" y1="788.7188" y2="996.4688"/><line style="stroke:#181818;stroke-width:1.0;" x1="687.5" x2="880" y1="996.4688" y2="996.4688"/><line style="stroke:#181818;stroke-width:1.0;" x1="880" x2="880" y1="996.4688" y2="1061.4688"/><polygon fill="none" points="1050.4,778.7188,1046.4,784.7188,1050.4,790.7188,1054.4,784.7188,1050.4,778.7188" style="stroke:#181818;stroke-width:1.0;"/><line style="stroke:#181818;stroke-width:1.0;" x1="1436" x2="1436" y1="925.7266" y2="1061.4688"/><polygon fill="none" points="1436,925.7266,1432,931.7266,1436,937.7266,1440,931.7266,1436,925.7266" style="stroke:#181818;stroke-width:1.0;"/><line style="stroke:#181818;stroke-width:1.0;" x1="1827.6" x2="1827.6" y1="702.4531" y2="798.7188"/><line style="stroke:#181818;stroke-width:1.0;" x1="1827.6" x2="2271.9333" y1="798.7188" y2="798.7188"/><line style="stroke:#181818;stroke-width:1.0;" x1="2271.9333" x2="2271.9333" y1="798.7188" y2="828.7188"/><polygon fill="none" points="1827.6,702.4531,1823.6,708.4531,1827.6,714.4531,1831.6,708.4531,1827.6,702.4531" style="stroke:#181818;stroke-width:1.0;"/><text fill="#000000" font-family="sans-serif" font-size="13" lengthAdjust="spacing" textLength="39" x="1786.6" y="755.0864">builds</text><line style="stroke:#181818;stroke-width:1.0;" x1="1753.6" x2="1753.6" y1="702.4531" y2="828.7188"/><polygon fill="none" points="1753.6,702.4531,1749.6,708.4531,1753.6,714.4531,1757.6,708.4531,1753.6,702.4531" style="stroke:#181818;stroke-width:1.0;"/><text fill="#000000" font-family="sans-serif" font-size="13" lengthAdjust="spacing" textLength="44" x="1707.6" y="755.0864">throws</text><line style="stroke:#181818;stroke-width:1.0;" x1="1992.6" x2="1992.6" y1="549.9219" y2="788.7188"/><line style="stroke:#181818;stroke-width:1.0;" x1="1992.6" x2="2335.2667" y1="788.7188" y2="788.7188"/><line style="stroke:#181818;stroke-width:1.0;" x1="2335.2667" x2="2335.2667" y1="788.7188" y2="828.7188"/><polygon fill="none" points="1992.6,549.9219,1988.6,555.9219,1992.6,561.9219,1996.6,555.9219,1992.6,549.9219" style="stroke:#181818;stroke-width:1.0;"/><text fill="#000000" font-family="sans-serif" font-size="13" lengthAdjust="spacing" textLength="69" x="1921.6" y="678.8208">bootstraps</text><line style="stroke:#181818;stroke-width:1.0;" x1="1913.6" x2="1913.6" y1="549.9219" y2="559.9219"/><line style="stroke:#181818;stroke-width:1.0;" x1="1913.6" x2="1790.6" y1="559.9219" y2="559.9219"/><line style="stroke:#181818;stroke-width:1.0;" x1="1790.6" x2="1790.6" y1="559.9219" y2="646.1875"/><polygon fill="none" points="1913.6,549.9219,1909.6,555.9219,1913.6,561.9219,1917.6,555.9219,1913.6,549.9219" style="stroke:#181818;stroke-width:1.0;"/><text fill="#000000" font-family="sans-serif" font-size="13" lengthAdjust="spacing" textLength="143" x="1645.6" y="602.5552">makes contexts using</text><line style="stroke:#181818;stroke-width:1.0;stroke-dasharray:7.0,7.0;" x1="1461.1" x2="1461.1" y1="778.7188" y2="818.7188"/><line style="stroke:#181818;stroke-width:1.0;stroke-dasharray:7.0,7.0;" x1="1461.1" x2="1700.6" y1="818.7188" y2="818.7188"/><line style="stroke:#181818;stroke-width:1.0;stroke-dasharray:7.0,7.0;" x1="1700.6" x2="1700.6" y1="818.7188" y2="828.7188"/><line style="stroke:#181818;stroke-width:1.0;" x1="917" x2="917" y1="1117.7344" y2="1127.7344"/><line style="stroke:#181818;stroke-width:1.0;" x1="917" x2="704.25" y1="1127.7344" y2="1127.7344"/><line style="stroke:#181818;stroke-width:1.0;" x1="704.25" x2="704.25" y1="1127.7344" y2="1137.7344"/><polygon fill="none" points="917,1117.7344,913,1123.7344,917,1129.7344,921,1123.7344,917,1117.7344" style="stroke:#181818;stroke-width:1.0;"/><line style="stroke:#181818;stroke-width:1.0;" x1="667.5" x2="667.5" y1="1117.7344" y2="1137.7344"/><polygon fill="none" points="667.5,1117.7344,663.5,1123.7344,667.5,1129.7344,671.5,1123.7344,667.5,1117.7344" style="stroke:#181818;stroke-width:1.0;"/><line style="stroke:#181818;stroke-width:1.0;stroke-dasharray:7.0,7.0;" x1="278" x2="278" y1="1117.7344" y2="1127.7344"/><line style="stroke:#181818;stroke-width:1.0;stroke-dasharray:7.0,7.0;" x1="278" x2="630.75" y1="1127.7344" y2="1127.7344"/><line style="stroke:#181818;stroke-width:1.0;stroke-dasharray:7.0,7.0;" x1="630.75" x2="630.75" y1="1127.7344" y2="1137.7344"/><line style="stroke:#181818;stroke-width:1.0;" x1="1436" x2="1436" y1="1117.7344" y2="1137.7344"/><polygon fill="none" points="1436,1117.7344,1432,1123.7344,1436,1129.7344,1440,1123.7344,1436,1117.7344" style="stroke:#181818;stroke-width:1.0;"/><line style="stroke:#181818;stroke-width:1.0;stroke-dasharray:7.0,7.0;" x1="2507.8" x2="2507.8" y1="108.2656" y2="128.2656"/><!--MD5=[330dda3f98866e7f342c2f2458da1fb3]
@startuml
!pragma layout elk
set namespaceSeparator ::
note as N1
Orchestration-based imlementation of the Dogen product API.

UML representation:

\image html dogen.orchestration/modeling/dogen.orchestration.svg
end note

class main <<masd::entry_point, dogen::untypable>> #DDA9F3 {
}

main o- - generator: generates code using
main o- - spec_dumper: dumps specs using
main o- - converter: converts models using
main o- - initializer: initialises using

class generator <<dogen::handcrafted::typeable>> #FFFACD {
}

generator o- - transforms::code_generation_chain
generator o- - transforms::context
generator o- - transforms::context_bootstrapping_chain: bootstraps using

class spec_dumper <<dogen::handcrafted::typeable>> #FFFACD {
}

spec_dumper o- - transforms::context
spec_dumper o- - transforms::context_bootstrapping_chain: bootstraps using

class converter <<dogen::handcrafted::typeable>> #FFFACD {
}

converter o- - transforms::context
converter o- - transforms::context_bootstrapping_chain: bootstraps using

class initializer <<dogen::handcrafted::typeable>> #FFFACD {
}

namespace transforms #F2F2F2 {
    note as transforms_1
Top-level transforms for Dogen. These are
the entry points to all transformations.
    end note

    class context <<dogen::typeable, dogen::pretty_printable>> #F7E5FF {
        +{field} variability_context variability::transforms::context
        +{field} codec_context codec::transforms::context
        +{field} logical_context logical::transforms::context
        +{field} text_context text::transforms::context
        +{field} physical_context physical::transforms::context
    }

    class code_generation_chain <<dogen::handcrafted::typeable>> #FFFACD {
    }

    code_generation_chain o- - physical_model_production_chain

    class physical_model_production_chain <<dogen::handcrafted::typeable>> #FFFACD {
    }

    physical_model_production_chain o- - text_model_production_chain
    physical_model_production_chain o- - text_model_to_physical_model_transform
    physical_model_production_chain o- - codec_model_to_logical_model_transform

    class text_model_production_chain <<dogen::handcrafted::typeable>> #FFFACD {
    }

    class text_model_to_physical_model_transform <<dogen::handcrafted::typeable>> #FFFACD {
    }

    text_model_to_physical_model_transform o- - logical_model_to_text_model_chain

    class codec_model_set_to_logical_input_model_set_chain <<dogen::handcrafted::typeable>> #FFFACD {
    }

    codec_model_set_to_logical_input_model_set_chain o- - codec_model_to_logical_model_transform

    class codec_model_to_logical_model_transform <<dogen::handcrafted::typeable>> #FFFACD {
    }

    codec_model_to_logical_model_transform o- - helpers::codec_to_logical_projector

    class logical_model_to_text_model_chain <<dogen::handcrafted::typeable>> #FFFACD {
    }

    logical_model_to_text_model_chain o- - elements_removal_transform
    logical_model_to_text_model_chain o- - physical_to_logical_population_transform
    logical_model_to_text_model_chain o- - legacy_dependencies_transform
    logical_model_to_text_model_chain o- - helpers::codec_to_logical_projector

    class physical_to_logical_population_transform <<dogen::handcrafted::typeable>> #FFFACD {
    }

    class legacy_dependencies_transform <<dogen::handcrafted::typeable>> #FFFACD {
    }

    legacy_dependencies_transform o- - helpers::dependencies_builder

    class context_factory <<dogen::handcrafted::typeable>> #FFFACD {
    }

    context_factory o- - context: builds
    context_factory o- - factory_exception: throws

    class context_bootstrapping_chain <<dogen::handcrafted::typeable>> #FFFACD {
    }

    context_bootstrapping_chain o- - context: bootstraps
    context_bootstrapping_chain o- - context_factory: makes contexts using

    class elements_removal_transform <<dogen::handcrafted::typeable>> #FFFACD {
    }

    class factory_exception <<masd::exception>> #E8C2F8 {
    }

    note top of factory_exception
An error occurred in the factory whilst building.
    end note

    class transform_exception <<masd::exception>> #E8C2F8 {
    }

}

namespace helpers #F2F2F2 {
    note as helpers_1
Helpers for the orchestration model.
    end note

    class codec_to_logical_projector <<dogen::handcrafted::typeable>> #FFFACD {
    }

    codec_to_logical_projector o- - projection_error

    class logical_to_physical_projector <<dogen::handcrafted::typeable>> #FFFACD {
    }

    logical_to_physical_projector o- - projection_error

    class projection_error <<masd::exception>> #E8C2F8 {
    }

    note top of projection_error
An error occurred whilst projecting elements from one space into another.
    end note

    class dependencies_builder <<dogen::handcrafted::typeable>> #FFFACD {
    }

    dependencies_builder o- - building_error

    class building_error <<masd::exception>> #E8C2F8 {
    }

}

namespace features #F2F2F2 {
    note as features_1
Features for the orchestration model.
    end note

    class model_location <<masd::variability::feature_bundle>> #BAD7D7 {
        +{field} external_modules masd::variability::text
        +{field} model_modules masd::variability::text
    }

    note top of model_location
Feature group for model location related features.
    end note

    class initializer <<masd::variability::initializer>> #A9CDCD {
    }

}

class CMakeLists <<masd::build::cmakelists, dogen::handcrafted::cmake>> #99CB99 {
}

@enduml

PlantUML version 1.2022.9(Tue Sep 27 17:10:06 BST 2022)
(GPL source distribution)
Java Runtime: OpenJDK Runtime Environment
JVM: OpenJDK 64-Bit Server VM
Default Encoding: UTF-8
Language: en
Country: GB
--></g></svg>