<?xml version="1.0" encoding="UTF-8" standalone="no"?><svg xmlns="http://www.w3.org/2000/svg" xmlns:xlink="http://www.w3.org/1999/xlink" contentStyleType="text/css" height="805px" preserveAspectRatio="none" style="width:3675px;height:805px;background:#FFFFFF;" version="1.1" viewBox="0 0 3675 805" width="3675px" zoomAndPan="magnify"><defs/><g><path d="M873,12 L961,12 A3.75,3.75 0 0 1 963.5,14.5 L970.5,34.2969 L2284.6667,34.2969 A2.5,2.5 0 0 1 2287.1667,36.7969 L2287.1667,567.5781 A2.5,2.5 0 0 1 2284.6667,570.0781 L873,570.0781 A2.5,2.5 0 0 1 870.5,567.5781 L870.5,14.5 A2.5,2.5 0 0 1 873,12 " fill="none" style="stroke:#000000;stroke-width:1.0;"/><line style="stroke:#000000;stroke-width:1.0;" x1="870.5" x2="970.5" y1="34.2969" y2="34.2969"/><text fill="#000000" font-family="sans-serif" font-size="14" font-weight="bold" lengthAdjust="spacing" textLength="87" x="874.5" y="26.9951">transforms</text><path d="M14.5,174.707 L75.5,174.707 A3.75,3.75 0 0 1 78,177.207 L85,197.0039 L848,197.0039 A2.5,2.5 0 0 1 850.5,199.5039 L850.5,404.8711 A2.5,2.5 0 0 1 848,407.3711 L14.5,407.3711 A2.5,2.5 0 0 1 12,404.8711 L12,177.207 A2.5,2.5 0 0 1 14.5,174.707 " fill="none" style="stroke:#000000;stroke-width:1.0;"/><line style="stroke:#000000;stroke-width:1.0;" x1="12" x2="85" y1="197.0039" y2="197.0039"/><text fill="#000000" font-family="sans-serif" font-size="14" font-weight="bold" lengthAdjust="spacing" textLength="60" x="16" y="189.7021">helpers</text><path d="M2789.6667,180.9766 L2857.6667,180.9766 A3.75,3.75 0 0 1 2860.1667,183.4766 L2867.1667,203.2734 L3665.6667,203.2734 A2.5,2.5 0 0 1 3668.1667,205.7734 L3668.1667,398.6016 A2.5,2.5 0 0 1 3665.6667,401.1016 L2789.6667,401.1016 A2.5,2.5 0 0 1 2787.1667,398.6016 L2787.1667,183.4766 A2.5,2.5 0 0 1 2789.6667,180.9766 " fill="none" style="stroke:#000000;stroke-width:1.0;"/><line style="stroke:#000000;stroke-width:1.0;" x1="2787.1667" x2="2867.1667" y1="203.2734" y2="203.2734"/><text fill="#000000" font-family="sans-serif" font-size="14" font-weight="bold" lengthAdjust="spacing" textLength="67" x="2791.1667" y="195.9717">features</text><g id="elem_transforms::transforms_1"><path d="M976.5,52 L976.5,92.2656 L1273.5,92.2656 L1273.5,62 L1263.5,52 L976.5,52 " fill="#FEFFDD" style="stroke:#181818;stroke-width:0.5;"/><path d="M1263.5,52 L1263.5,62 L1273.5,62 L1263.5,52 " fill="#FEFFDD" style="stroke:#181818;stroke-width:1.0;"/><text fill="#000000" font-family="sans-serif" font-size="13" lengthAdjust="spacing" textLength="276" x="982.5" y="69.0669">Top-level transforms for Dogen. These are</text><text fill="#000000" font-family="sans-serif" font-size="13" lengthAdjust="spacing" textLength="252" x="982.5" y="84.1997">the entry points to all transformations.</text></g><!--MD5=[abd65484e0f49489c62d799c9536589f]
class transforms::code_generation_chain--><g id="elem_transforms::code_generation_chain"><rect codeLine="16" fill="#FFFACD" height="56.2656" id="transforms::code_generation_chain" rx="2.5" ry="2.5" style="stroke:#181818;stroke-width:0.5;" width="222" x="964.5" y="112.2656"/><ellipse cx="979.5" cy="132.3984" fill="#ADD1B2" rx="11" ry="11" style="stroke:#181818;stroke-width:1.0;"/><path d="M982.4688,138.0391 Q981.8906,138.3359 981.25,138.4844 Q980.6094,138.6328 979.9063,138.6328 Q977.4063,138.6328 976.0859,136.9844 Q974.7656,135.3359 974.7656,132.2109 Q974.7656,129.0859 976.0859,127.4297 Q977.4063,125.7734 979.9063,125.7734 Q980.6094,125.7734 981.2578,125.9297 Q981.9063,126.0859 982.4688,126.3828 L982.4688,129.1016 Q981.8438,128.5234 981.25,128.25 Q980.6563,127.9766 980.0313,127.9766 Q978.6875,127.9766 978,129.0469 Q977.3125,130.1172 977.3125,132.2109 Q977.3125,134.3047 978,135.375 Q978.6875,136.4453 980.0313,136.4453 Q980.6563,136.4453 981.25,136.1719 Q981.8438,135.8984 982.4688,135.3203 L982.4688,138.0391 Z " fill="#000000"/><text fill="#000000" font-family="sans-serif" font-size="12" font-style="italic" lengthAdjust="spacing" textLength="194" x="991.5" y="128.4043">«dogen::handcrafted::typeable»</text><text fill="#000000" font-family="sans-serif" font-size="14" lengthAdjust="spacing" textLength="166" x="1005.5" y="144.2295">code_generation_chain</text><line style="stroke:#181818;stroke-width:0.5;" x1="965.5" x2="1185.5" y1="152.5313" y2="152.5313"/><line style="stroke:#181818;stroke-width:0.5;" x1="965.5" x2="1185.5" y1="160.5313" y2="160.5313"/></g><!--MD5=[133f4cfbb2bb2891c2a6c3694af0bb4e]
class transforms::context--><g id="elem_transforms::context"><rect codeLine="19" fill="#F7E5FF" height="137.75" id="transforms::context" rx="2.5" ry="2.5" style="stroke:#181818;stroke-width:0.5;" width="380" x="885.5" y="188.5313"/><ellipse cx="941.75" cy="208.6641" fill="#ADD1B2" rx="11" ry="11" style="stroke:#181818;stroke-width:1.0;"/><path d="M944.7188,214.3047 Q944.1406,214.6016 943.5,214.75 Q942.8594,214.8984 942.1563,214.8984 Q939.6563,214.8984 938.3359,213.25 Q937.0156,211.6016 937.0156,208.4766 Q937.0156,205.3516 938.3359,203.6953 Q939.6563,202.0391 942.1563,202.0391 Q942.8594,202.0391 943.5078,202.1953 Q944.1563,202.3516 944.7188,202.6484 L944.7188,205.3672 Q944.0938,204.7891 943.5,204.5156 Q942.9063,204.2422 942.2813,204.2422 Q940.9375,204.2422 940.25,205.3125 Q939.5625,206.3828 939.5625,208.4766 Q939.5625,210.5703 940.25,211.6406 Q940.9375,212.7109 942.2813,212.7109 Q942.9063,212.7109 943.5,212.4375 Q944.0938,212.1641 944.7188,211.5859 L944.7188,214.3047 Z " fill="#000000"/><text fill="#000000" font-family="sans-serif" font-size="12" font-style="italic" lengthAdjust="spacing" textLength="263" x="960.25" y="204.6699">«dogen::typeable, dogen::pretty_printable»</text><text fill="#000000" font-family="sans-serif" font-size="14" lengthAdjust="spacing" textLength="53" x="1065.25" y="220.4951">context</text><line style="stroke:#181818;stroke-width:0.5;" x1="886.5" x2="1264.5" y1="228.7969" y2="228.7969"/><ellipse cx="896.5" cy="242.4453" fill="none" rx="3" ry="3" style="stroke:#038048;stroke-width:1.0;"/><text fill="#000000" font-family="sans-serif" font-size="14" lengthAdjust="spacing" textLength="354" x="905.5" y="245.792">variability_context variability::transforms::context</text><ellipse cx="896.5" cy="258.7422" fill="none" rx="3" ry="3" style="stroke:#038048;stroke-width:1.0;"/><text fill="#000000" font-family="sans-serif" font-size="14" lengthAdjust="spacing" textLength="300" x="905.5" y="262.0889">codec_context codec::transforms::context</text><ellipse cx="896.5" cy="275.0391" fill="none" rx="3" ry="3" style="stroke:#038048;stroke-width:1.0;"/><text fill="#000000" font-family="sans-serif" font-size="14" lengthAdjust="spacing" textLength="308" x="905.5" y="278.3857">logical_context logical::transforms::context</text><ellipse cx="896.5" cy="291.3359" fill="none" rx="3" ry="3" style="stroke:#038048;stroke-width:1.0;"/><text fill="#000000" font-family="sans-serif" font-size="14" lengthAdjust="spacing" textLength="268" x="905.5" y="294.6826">text_context text::transforms::context</text><ellipse cx="896.5" cy="307.6328" fill="none" rx="3" ry="3" style="stroke:#038048;stroke-width:1.0;"/><text fill="#000000" font-family="sans-serif" font-size="14" lengthAdjust="spacing" textLength="330" x="905.5" y="310.9795">physical_context physical::transforms::context</text><line style="stroke:#181818;stroke-width:0.5;" x1="886.5" x2="1264.5" y1="318.2813" y2="318.2813"/></g><!--MD5=[11ecefc52d11f3391c9e5a2aa946cf90]
class transforms::context_factory--><g id="elem_transforms::context_factory"><rect codeLine="27" fill="#FFFACD" height="56.2656" id="transforms::context_factory" rx="2.5" ry="2.5" style="stroke:#181818;stroke-width:0.5;" width="222" x="964.5" y="346.2813"/><ellipse cx="979.5" cy="366.4141" fill="#ADD1B2" rx="11" ry="11" style="stroke:#181818;stroke-width:1.0;"/><path d="M982.4688,372.0547 Q981.8906,372.3516 981.25,372.5 Q980.6094,372.6484 979.9063,372.6484 Q977.4063,372.6484 976.0859,371 Q974.7656,369.3516 974.7656,366.2266 Q974.7656,363.1016 976.0859,361.4453 Q977.4063,359.7891 979.9063,359.7891 Q980.6094,359.7891 981.2578,359.9453 Q981.9063,360.1016 982.4688,360.3984 L982.4688,363.1172 Q981.8438,362.5391 981.25,362.2656 Q980.6563,361.9922 980.0313,361.9922 Q978.6875,361.9922 978,363.0625 Q977.3125,364.1328 977.3125,366.2266 Q977.3125,368.3203 978,369.3906 Q978.6875,370.4609 980.0313,370.4609 Q980.6563,370.4609 981.25,370.1875 Q981.8438,369.9141 982.4688,369.3359 L982.4688,372.0547 Z " fill="#000000"/><text fill="#000000" font-family="sans-serif" font-size="12" font-style="italic" lengthAdjust="spacing" textLength="194" x="991.5" y="362.4199">«dogen::handcrafted::typeable»</text><text fill="#000000" font-family="sans-serif" font-size="14" lengthAdjust="spacing" textLength="110" x="1033.5" y="378.2451">context_factory</text><line style="stroke:#181818;stroke-width:0.5;" x1="965.5" x2="1185.5" y1="386.5469" y2="386.5469"/><line style="stroke:#181818;stroke-width:0.5;" x1="965.5" x2="1185.5" y1="394.5469" y2="394.5469"/></g><!--MD5=[fbdfb4afbf33e4319841469d1d7db4da]
class transforms::factory_exception--><g id="elem_transforms::factory_exception"><rect codeLine="30" fill="#E8C2F8" height="56.2656" id="transforms::factory_exception" rx="2.5" ry="2.5" style="stroke:#181818;stroke-width:0.5;" width="159" x="1725.6667" y="112.2656"/><ellipse cx="1740.6667" cy="132.3984" fill="#ADD1B2" rx="11" ry="11" style="stroke:#181818;stroke-width:1.0;"/><path d="M1743.6354,138.0391 Q1743.0573,138.3359 1742.4167,138.4844 Q1741.776,138.6328 1741.0729,138.6328 Q1738.5729,138.6328 1737.2526,136.9844 Q1735.9323,135.3359 1735.9323,132.2109 Q1735.9323,129.0859 1737.2526,127.4297 Q1738.5729,125.7734 1741.0729,125.7734 Q1741.776,125.7734 1742.4245,125.9297 Q1743.0729,126.0859 1743.6354,126.3828 L1743.6354,129.1016 Q1743.0104,128.5234 1742.4167,128.25 Q1741.8229,127.9766 1741.1979,127.9766 Q1739.8542,127.9766 1739.1667,129.0469 Q1738.4792,130.1172 1738.4792,132.2109 Q1738.4792,134.3047 1739.1667,135.375 Q1739.8542,136.4453 1741.1979,136.4453 Q1741.8229,136.4453 1742.4167,136.1719 Q1743.0104,135.8984 1743.6354,135.3203 L1743.6354,138.0391 Z " fill="#000000"/><text fill="#000000" font-family="sans-serif" font-size="12" font-style="italic" lengthAdjust="spacing" textLength="114" x="1761.1667" y="128.4043">«masd::exception»</text><text fill="#000000" font-family="sans-serif" font-size="14" lengthAdjust="spacing" textLength="127" x="1754.6667" y="144.2295">factory_exception</text><line style="stroke:#181818;stroke-width:0.5;" x1="1726.6667" x2="1883.6667" y1="152.5313" y2="152.5313"/><line style="stroke:#181818;stroke-width:0.5;" x1="1726.6667" x2="1883.6667" y1="160.5313" y2="160.5313"/></g><g id="elem_transforms::GMN9"><path d="M1643.1667,67.1328 L1643.1667,92.2656 L1967.1667,92.2656 L1967.1667,77.1328 L1957.1667,67.1328 L1643.1667,67.1328 " fill="#FEFFDD" style="stroke:#181818;stroke-width:0.5;"/><path d="M1957.1667,67.1328 L1957.1667,77.1328 L1967.1667,77.1328 L1957.1667,67.1328 " fill="#FEFFDD" style="stroke:#181818;stroke-width:1.0;"/><text fill="#000000" font-family="sans-serif" font-size="13" lengthAdjust="spacing" textLength="303" x="1649.1667" y="84.1997">An error occurred in the factory whilst making.</text></g><!--MD5=[5c53f1f127d3f861dbdc2986fc803482]
class transforms::codec_model_to_logical_model_transform--><g id="elem_transforms::codec_model_to_logical_model_transform"><rect codeLine="37" fill="#FFFACD" height="56.2656" id="transforms::codec_model_to_logical_model_transform" rx="2.5" ry="2.5" style="stroke:#181818;stroke-width:0.5;" width="331" x="1374.6667" y="112.2656"/><ellipse cx="1389.6667" cy="132.3984" fill="#ADD1B2" rx="11" ry="11" style="stroke:#181818;stroke-width:1.0;"/><path d="M1392.6354,138.0391 Q1392.0573,138.3359 1391.4167,138.4844 Q1390.776,138.6328 1390.0729,138.6328 Q1387.5729,138.6328 1386.2526,136.9844 Q1384.9323,135.3359 1384.9323,132.2109 Q1384.9323,129.0859 1386.2526,127.4297 Q1387.5729,125.7734 1390.0729,125.7734 Q1390.776,125.7734 1391.4245,125.9297 Q1392.0729,126.0859 1392.6354,126.3828 L1392.6354,129.1016 Q1392.0104,128.5234 1391.4167,128.25 Q1390.8229,127.9766 1390.1979,127.9766 Q1388.8542,127.9766 1388.1667,129.0469 Q1387.4792,130.1172 1387.4792,132.2109 Q1387.4792,134.3047 1388.1667,135.375 Q1388.8542,136.4453 1390.1979,136.4453 Q1390.8229,136.4453 1391.4167,136.1719 Q1392.0104,135.8984 1392.6354,135.3203 L1392.6354,138.0391 Z " fill="#000000"/><text fill="#000000" font-family="sans-serif" font-size="12" font-style="italic" lengthAdjust="spacing" textLength="194" x="1456.1667" y="128.4043">«dogen::handcrafted::typeable»</text><text fill="#000000" font-family="sans-serif" font-size="14" lengthAdjust="spacing" textLength="299" x="1403.6667" y="144.2295">codec_model_to_logical_model_transform</text><line style="stroke:#181818;stroke-width:0.5;" x1="1375.6667" x2="1704.6667" y1="152.5313" y2="152.5313"/><line style="stroke:#181818;stroke-width:0.5;" x1="1375.6667" x2="1704.6667" y1="160.5313" y2="160.5313"/></g><!--MD5=[3349c57b78445577727b3822a4fefab7]
class transforms::codec_model_set_to_logical_input_model_set_chain--><g id="elem_transforms::codec_model_set_to_logical_input_model_set_chain"><rect codeLine="40" fill="#FFFACD" height="56.2656" id="transforms::codec_model_set_to_logical_input_model_set_chain" rx="2.5" ry="2.5" style="stroke:#181818;stroke-width:0.5;" width="399" x="1285.5" y="229.2734"/><ellipse cx="1300.5" cy="249.4063" fill="#ADD1B2" rx="11" ry="11" style="stroke:#181818;stroke-width:1.0;"/><path d="M1303.4688,255.0469 Q1302.8906,255.3438 1302.25,255.4922 Q1301.6094,255.6406 1300.9063,255.6406 Q1298.4063,255.6406 1297.0859,253.9922 Q1295.7656,252.3438 1295.7656,249.2188 Q1295.7656,246.0938 1297.0859,244.4375 Q1298.4063,242.7813 1300.9063,242.7813 Q1301.6094,242.7813 1302.2578,242.9375 Q1302.9063,243.0938 1303.4688,243.3906 L1303.4688,246.1094 Q1302.8438,245.5313 1302.25,245.2578 Q1301.6563,244.9844 1301.0313,244.9844 Q1299.6875,244.9844 1299,246.0547 Q1298.3125,247.125 1298.3125,249.2188 Q1298.3125,251.3125 1299,252.3828 Q1299.6875,253.4531 1301.0313,253.4531 Q1301.6563,253.4531 1302.25,253.1797 Q1302.8438,252.9063 1303.4688,252.3281 L1303.4688,255.0469 Z " fill="#000000"/><text fill="#000000" font-family="sans-serif" font-size="12" font-style="italic" lengthAdjust="spacing" textLength="194" x="1401" y="245.4121">«dogen::handcrafted::typeable»</text><text fill="#000000" font-family="sans-serif" font-size="14" lengthAdjust="spacing" textLength="367" x="1314.5" y="261.2373">codec_model_set_to_logical_input_model_set_chain</text><line style="stroke:#181818;stroke-width:0.5;" x1="1286.5" x2="1683.5" y1="269.5391" y2="269.5391"/><line style="stroke:#181818;stroke-width:0.5;" x1="1286.5" x2="1683.5" y1="277.5391" y2="277.5391"/></g><!--MD5=[ef3167ee797df11ac37929e83accd40c]
class transforms::transform_exception--><g id="elem_transforms::transform_exception"><rect codeLine="43" fill="#E8C2F8" height="56.2656" id="transforms::transform_exception" rx="2.5" ry="2.5" style="stroke:#181818;stroke-width:0.5;" width="179" x="1395.5" y="346.2813"/><ellipse cx="1410.5" cy="366.4141" fill="#ADD1B2" rx="11" ry="11" style="stroke:#181818;stroke-width:1.0;"/><path d="M1413.4688,372.0547 Q1412.8906,372.3516 1412.25,372.5 Q1411.6094,372.6484 1410.9063,372.6484 Q1408.4063,372.6484 1407.0859,371 Q1405.7656,369.3516 1405.7656,366.2266 Q1405.7656,363.1016 1407.0859,361.4453 Q1408.4063,359.7891 1410.9063,359.7891 Q1411.6094,359.7891 1412.2578,359.9453 Q1412.9063,360.1016 1413.4688,360.3984 L1413.4688,363.1172 Q1412.8438,362.5391 1412.25,362.2656 Q1411.6563,361.9922 1411.0313,361.9922 Q1409.6875,361.9922 1409,363.0625 Q1408.3125,364.1328 1408.3125,366.2266 Q1408.3125,368.3203 1409,369.3906 Q1409.6875,370.4609 1411.0313,370.4609 Q1411.6563,370.4609 1412.25,370.1875 Q1412.8438,369.9141 1413.4688,369.3359 L1413.4688,372.0547 Z " fill="#000000"/><text fill="#000000" font-family="sans-serif" font-size="12" font-style="italic" lengthAdjust="spacing" textLength="114" x="1441" y="362.4199">«masd::exception»</text><text fill="#000000" font-family="sans-serif" font-size="14" lengthAdjust="spacing" textLength="147" x="1424.5" y="378.2451">transform_exception</text><line style="stroke:#181818;stroke-width:0.5;" x1="1396.5" x2="1573.5" y1="386.5469" y2="386.5469"/><line style="stroke:#181818;stroke-width:0.5;" x1="1396.5" x2="1573.5" y1="394.5469" y2="394.5469"/></g><!--MD5=[40744775a33b12540643c7e868edb0c0]
class transforms::logical_model_to_text_model_chain--><g id="elem_transforms::logical_model_to_text_model_chain"><rect codeLine="46" fill="#FFFACD" height="56.2656" id="transforms::logical_model_to_text_model_chain" rx="2.5" ry="2.5" style="stroke:#181818;stroke-width:0.5;" width="284" x="1343" y="422.5469"/><ellipse cx="1358" cy="442.6797" fill="#ADD1B2" rx="11" ry="11" style="stroke:#181818;stroke-width:1.0;"/><path d="M1360.9688,448.3203 Q1360.3906,448.6172 1359.75,448.7656 Q1359.1094,448.9141 1358.4063,448.9141 Q1355.9063,448.9141 1354.5859,447.2656 Q1353.2656,445.6172 1353.2656,442.4922 Q1353.2656,439.3672 1354.5859,437.7109 Q1355.9063,436.0547 1358.4063,436.0547 Q1359.1094,436.0547 1359.7578,436.2109 Q1360.4063,436.3672 1360.9688,436.6641 L1360.9688,439.3828 Q1360.3438,438.8047 1359.75,438.5313 Q1359.1563,438.2578 1358.5313,438.2578 Q1357.1875,438.2578 1356.5,439.3281 Q1355.8125,440.3984 1355.8125,442.4922 Q1355.8125,444.5859 1356.5,445.6563 Q1357.1875,446.7266 1358.5313,446.7266 Q1359.1563,446.7266 1359.75,446.4531 Q1360.3438,446.1797 1360.9688,445.6016 L1360.9688,448.3203 Z " fill="#000000"/><text fill="#000000" font-family="sans-serif" font-size="12" font-style="italic" lengthAdjust="spacing" textLength="194" x="1401" y="438.6855">«dogen::handcrafted::typeable»</text><text fill="#000000" font-family="sans-serif" font-size="14" lengthAdjust="spacing" textLength="252" x="1372" y="454.5107">logical_model_to_text_model_chain</text><line style="stroke:#181818;stroke-width:0.5;" x1="1344" x2="1626" y1="462.8125" y2="462.8125"/><line style="stroke:#181818;stroke-width:0.5;" x1="1344" x2="1626" y1="470.8125" y2="470.8125"/></g><!--MD5=[527beef9524e9d04e8a1fc23844778d1]
class transforms::physical_model_production_chain--><g id="elem_transforms::physical_model_production_chain"><rect codeLine="49" fill="#FFFACD" height="56.2656" id="transforms::physical_model_production_chain" rx="2.5" ry="2.5" style="stroke:#181818;stroke-width:0.5;" width="272" x="1704.5" y="242.8542"/><ellipse cx="1719.5" cy="262.987" fill="#ADD1B2" rx="11" ry="11" style="stroke:#181818;stroke-width:1.0;"/><path d="M1722.4688,268.6276 Q1721.8906,268.9245 1721.25,269.0729 Q1720.6094,269.2214 1719.9063,269.2214 Q1717.4063,269.2214 1716.0859,267.5729 Q1714.7656,265.9245 1714.7656,262.7995 Q1714.7656,259.6745 1716.0859,258.0182 Q1717.4063,256.362 1719.9063,256.362 Q1720.6094,256.362 1721.2578,256.5182 Q1721.9063,256.6745 1722.4688,256.9714 L1722.4688,259.6901 Q1721.8438,259.112 1721.25,258.8385 Q1720.6563,258.5651 1720.0313,258.5651 Q1718.6875,258.5651 1718,259.6354 Q1717.3125,260.7057 1717.3125,262.7995 Q1717.3125,264.8932 1718,265.9635 Q1718.6875,267.0339 1720.0313,267.0339 Q1720.6563,267.0339 1721.25,266.7604 Q1721.8438,266.487 1722.4688,265.9089 L1722.4688,268.6276 Z " fill="#000000"/><text fill="#000000" font-family="sans-serif" font-size="12" font-style="italic" lengthAdjust="spacing" textLength="194" x="1756.5" y="258.9928">«dogen::handcrafted::typeable»</text><text fill="#000000" font-family="sans-serif" font-size="14" lengthAdjust="spacing" textLength="240" x="1733.5" y="274.818">physical_model_production_chain</text><line style="stroke:#181818;stroke-width:0.5;" x1="1705.5" x2="1975.5" y1="283.1198" y2="283.1198"/><line style="stroke:#181818;stroke-width:0.5;" x1="1705.5" x2="1975.5" y1="291.1198" y2="291.1198"/></g><!--MD5=[7111a907453c47402c9a316f7c4b7134]
class transforms::text_model_to_physical_model_transform--><g id="elem_transforms::text_model_to_physical_model_transform"><rect codeLine="52" fill="#FFFACD" height="56.2656" id="transforms::text_model_to_physical_model_transform" rx="2.5" ry="2.5" style="stroke:#181818;stroke-width:0.5;" width="326" x="1632.1667" y="346.2813"/><ellipse cx="1647.1667" cy="366.4141" fill="#ADD1B2" rx="11" ry="11" style="stroke:#181818;stroke-width:1.0;"/><path d="M1650.1354,372.0547 Q1649.5573,372.3516 1648.9167,372.5 Q1648.276,372.6484 1647.5729,372.6484 Q1645.0729,372.6484 1643.7526,371 Q1642.4323,369.3516 1642.4323,366.2266 Q1642.4323,363.1016 1643.7526,361.4453 Q1645.0729,359.7891 1647.5729,359.7891 Q1648.276,359.7891 1648.9245,359.9453 Q1649.5729,360.1016 1650.1354,360.3984 L1650.1354,363.1172 Q1649.5104,362.5391 1648.9167,362.2656 Q1648.3229,361.9922 1647.6979,361.9922 Q1646.3542,361.9922 1645.6667,363.0625 Q1644.9792,364.1328 1644.9792,366.2266 Q1644.9792,368.3203 1645.6667,369.3906 Q1646.3542,370.4609 1647.6979,370.4609 Q1648.3229,370.4609 1648.9167,370.1875 Q1649.5104,369.9141 1650.1354,369.3359 L1650.1354,372.0547 Z " fill="#000000"/><text fill="#000000" font-family="sans-serif" font-size="12" font-style="italic" lengthAdjust="spacing" textLength="194" x="1711.1667" y="362.4199">«dogen::handcrafted::typeable»</text><text fill="#000000" font-family="sans-serif" font-size="14" lengthAdjust="spacing" textLength="294" x="1661.1667" y="378.2451">text_model_to_physical_model_transform</text><line style="stroke:#181818;stroke-width:0.5;" x1="1633.1667" x2="1957.1667" y1="386.5469" y2="386.5469"/><line style="stroke:#181818;stroke-width:0.5;" x1="1633.1667" x2="1957.1667" y1="394.5469" y2="394.5469"/></g><!--MD5=[060e804f644b9d564bc41ceef1138bf0]
class transforms::context_bootstrapping_chain--><g id="elem_transforms::context_bootstrapping_chain"><rect codeLine="55" fill="#FFFACD" height="56.2656" id="transforms::context_bootstrapping_chain" rx="2.5" ry="2.5" style="stroke:#181818;stroke-width:0.5;" width="237" x="1676.6667" y="422.5469"/><ellipse cx="1691.6667" cy="442.6797" fill="#ADD1B2" rx="11" ry="11" style="stroke:#181818;stroke-width:1.0;"/><path d="M1694.6354,448.3203 Q1694.0573,448.6172 1693.4167,448.7656 Q1692.776,448.9141 1692.0729,448.9141 Q1689.5729,448.9141 1688.2526,447.2656 Q1686.9323,445.6172 1686.9323,442.4922 Q1686.9323,439.3672 1688.2526,437.7109 Q1689.5729,436.0547 1692.0729,436.0547 Q1692.776,436.0547 1693.4245,436.2109 Q1694.0729,436.3672 1694.6354,436.6641 L1694.6354,439.3828 Q1694.0104,438.8047 1693.4167,438.5313 Q1692.8229,438.2578 1692.1979,438.2578 Q1690.8542,438.2578 1690.1667,439.3281 Q1689.4792,440.3984 1689.4792,442.4922 Q1689.4792,444.5859 1690.1667,445.6563 Q1690.8542,446.7266 1692.1979,446.7266 Q1692.8229,446.7266 1693.4167,446.4531 Q1694.0104,446.1797 1694.6354,445.6016 L1694.6354,448.3203 Z " fill="#000000"/><text fill="#000000" font-family="sans-serif" font-size="12" font-style="italic" lengthAdjust="spacing" textLength="194" x="1711.1667" y="438.6855">«dogen::handcrafted::typeable»</text><text fill="#000000" font-family="sans-serif" font-size="14" lengthAdjust="spacing" textLength="205" x="1705.6667" y="454.5107">context_bootstrapping_chain</text><line style="stroke:#181818;stroke-width:0.5;" x1="1677.6667" x2="1912.6667" y1="462.8125" y2="462.8125"/><line style="stroke:#181818;stroke-width:0.5;" x1="1677.6667" x2="1912.6667" y1="470.8125" y2="470.8125"/></g><!--MD5=[07c2fc5feb8f806d7949937d79f46cc8]
class transforms::text_model_production_chain--><g id="elem_transforms::text_model_production_chain"><rect codeLine="58" fill="#FFFACD" height="56.2656" id="transforms::text_model_production_chain" rx="2.5" ry="2.5" style="stroke:#181818;stroke-width:0.5;" width="241" x="1674.6667" y="498.8125"/><ellipse cx="1689.6667" cy="518.9453" fill="#ADD1B2" rx="11" ry="11" style="stroke:#181818;stroke-width:1.0;"/><path d="M1692.6354,524.5859 Q1692.0573,524.8828 1691.4167,525.0313 Q1690.776,525.1797 1690.0729,525.1797 Q1687.5729,525.1797 1686.2526,523.5313 Q1684.9323,521.8828 1684.9323,518.7578 Q1684.9323,515.6328 1686.2526,513.9766 Q1687.5729,512.3203 1690.0729,512.3203 Q1690.776,512.3203 1691.4245,512.4766 Q1692.0729,512.6328 1692.6354,512.9297 L1692.6354,515.6484 Q1692.0104,515.0703 1691.4167,514.7969 Q1690.8229,514.5234 1690.1979,514.5234 Q1688.8542,514.5234 1688.1667,515.5938 Q1687.4792,516.6641 1687.4792,518.7578 Q1687.4792,520.8516 1688.1667,521.9219 Q1688.8542,522.9922 1690.1979,522.9922 Q1690.8229,522.9922 1691.4167,522.7188 Q1692.0104,522.4453 1692.6354,521.8672 L1692.6354,524.5859 Z " fill="#000000"/><text fill="#000000" font-family="sans-serif" font-size="12" font-style="italic" lengthAdjust="spacing" textLength="194" x="1711.1667" y="514.9512">«dogen::handcrafted::typeable»</text><text fill="#000000" font-family="sans-serif" font-size="14" lengthAdjust="spacing" textLength="209" x="1703.6667" y="530.7764">text_model_production_chain</text><line style="stroke:#181818;stroke-width:0.5;" x1="1675.6667" x2="1914.6667" y1="539.0781" y2="539.0781"/><line style="stroke:#181818;stroke-width:0.5;" x1="1675.6667" x2="1914.6667" y1="547.0781" y2="547.0781"/></g><!--MD5=[872738f9b292f9cf434fe1d2d51378d6]
class transforms::legacy_dependencies_transform--><g id="elem_transforms::legacy_dependencies_transform"><rect codeLine="61" fill="#FFFACD" height="56.2656" id="transforms::legacy_dependencies_transform" rx="2.5" ry="2.5" style="stroke:#181818;stroke-width:0.5;" width="263" x="1978.1667" y="346.2813"/><ellipse cx="1993.1667" cy="366.4141" fill="#ADD1B2" rx="11" ry="11" style="stroke:#181818;stroke-width:1.0;"/><path d="M1996.1354,372.0547 Q1995.5573,372.3516 1994.9167,372.5 Q1994.276,372.6484 1993.5729,372.6484 Q1991.0729,372.6484 1989.7526,371 Q1988.4323,369.3516 1988.4323,366.2266 Q1988.4323,363.1016 1989.7526,361.4453 Q1991.0729,359.7891 1993.5729,359.7891 Q1994.276,359.7891 1994.9245,359.9453 Q1995.5729,360.1016 1996.1354,360.3984 L1996.1354,363.1172 Q1995.5104,362.5391 1994.9167,362.2656 Q1994.3229,361.9922 1993.6979,361.9922 Q1992.3542,361.9922 1991.6667,363.0625 Q1990.9792,364.1328 1990.9792,366.2266 Q1990.9792,368.3203 1991.6667,369.3906 Q1992.3542,370.4609 1993.6979,370.4609 Q1994.3229,370.4609 1994.9167,370.1875 Q1995.5104,369.9141 1996.1354,369.3359 L1996.1354,372.0547 Z " fill="#000000"/><text fill="#000000" font-family="sans-serif" font-size="12" font-style="italic" lengthAdjust="spacing" textLength="194" x="2025.6667" y="362.4199">«dogen::handcrafted::typeable»</text><text fill="#000000" font-family="sans-serif" font-size="14" lengthAdjust="spacing" textLength="231" x="2007.1667" y="378.2451">legacy_dependencies_transform</text><line style="stroke:#181818;stroke-width:0.5;" x1="1979.1667" x2="2240.1667" y1="386.5469" y2="386.5469"/><line style="stroke:#181818;stroke-width:0.5;" x1="1979.1667" x2="2240.1667" y1="394.5469" y2="394.5469"/></g><!--MD5=[583d1399401bb90033abbd440ffb1c6f]
class transforms::physical_to_logical_population_transform--><g id="elem_transforms::physical_to_logical_population_transform"><rect codeLine="64" fill="#FFFACD" height="56.2656" id="transforms::physical_to_logical_population_transform" rx="2.5" ry="2.5" style="stroke:#181818;stroke-width:0.5;" width="325" x="1947.1667" y="422.5469"/><ellipse cx="1962.1667" cy="442.6797" fill="#ADD1B2" rx="11" ry="11" style="stroke:#181818;stroke-width:1.0;"/><path d="M1965.1354,448.3203 Q1964.5573,448.6172 1963.9167,448.7656 Q1963.276,448.9141 1962.5729,448.9141 Q1960.0729,448.9141 1958.7526,447.2656 Q1957.4323,445.6172 1957.4323,442.4922 Q1957.4323,439.3672 1958.7526,437.7109 Q1960.0729,436.0547 1962.5729,436.0547 Q1963.276,436.0547 1963.9245,436.2109 Q1964.5729,436.3672 1965.1354,436.6641 L1965.1354,439.3828 Q1964.5104,438.8047 1963.9167,438.5313 Q1963.3229,438.2578 1962.6979,438.2578 Q1961.3542,438.2578 1960.6667,439.3281 Q1959.9792,440.3984 1959.9792,442.4922 Q1959.9792,444.5859 1960.6667,445.6563 Q1961.3542,446.7266 1962.6979,446.7266 Q1963.3229,446.7266 1963.9167,446.4531 Q1964.5104,446.1797 1965.1354,445.6016 L1965.1354,448.3203 Z " fill="#000000"/><text fill="#000000" font-family="sans-serif" font-size="12" font-style="italic" lengthAdjust="spacing" textLength="194" x="2025.6667" y="438.6855">«dogen::handcrafted::typeable»</text><text fill="#000000" font-family="sans-serif" font-size="14" lengthAdjust="spacing" textLength="293" x="1976.1667" y="454.5107">physical_to_logical_population_transform</text><line style="stroke:#181818;stroke-width:0.5;" x1="1948.1667" x2="2271.1667" y1="462.8125" y2="462.8125"/><line style="stroke:#181818;stroke-width:0.5;" x1="1948.1667" x2="2271.1667" y1="470.8125" y2="470.8125"/></g><!--MD5=[82399552af723106d578725633ff828f]
class transforms::elements_removal_transform--><g id="elem_transforms::elements_removal_transform"><rect codeLine="67" fill="#FFFACD" height="56.2656" id="transforms::elements_removal_transform" rx="2.5" ry="2.5" style="stroke:#181818;stroke-width:0.5;" width="241" x="1989.1667" y="498.8125"/><ellipse cx="2004.1667" cy="518.9453" fill="#ADD1B2" rx="11" ry="11" style="stroke:#181818;stroke-width:1.0;"/><path d="M2007.1354,524.5859 Q2006.5573,524.8828 2005.9167,525.0313 Q2005.276,525.1797 2004.5729,525.1797 Q2002.0729,525.1797 2000.7526,523.5313 Q1999.4323,521.8828 1999.4323,518.7578 Q1999.4323,515.6328 2000.7526,513.9766 Q2002.0729,512.3203 2004.5729,512.3203 Q2005.276,512.3203 2005.9245,512.4766 Q2006.5729,512.6328 2007.1354,512.9297 L2007.1354,515.6484 Q2006.5104,515.0703 2005.9167,514.7969 Q2005.3229,514.5234 2004.6979,514.5234 Q2003.3542,514.5234 2002.6667,515.5938 Q2001.9792,516.6641 2001.9792,518.7578 Q2001.9792,520.8516 2002.6667,521.9219 Q2003.3542,522.9922 2004.6979,522.9922 Q2005.3229,522.9922 2005.9167,522.7188 Q2006.5104,522.4453 2007.1354,521.8672 L2007.1354,524.5859 Z " fill="#000000"/><text fill="#000000" font-family="sans-serif" font-size="12" font-style="italic" lengthAdjust="spacing" textLength="194" x="2025.6667" y="514.9512">«dogen::handcrafted::typeable»</text><text fill="#000000" font-family="sans-serif" font-size="14" lengthAdjust="spacing" textLength="209" x="2018.1667" y="530.7764">elements_removal_transform</text><line style="stroke:#181818;stroke-width:0.5;" x1="1990.1667" x2="2229.1667" y1="539.0781" y2="539.0781"/><line style="stroke:#181818;stroke-width:0.5;" x1="1990.1667" x2="2229.1667" y1="547.0781" y2="547.0781"/></g><g id="elem_helpers::helpers_1"><path d="M553.1667,214.707 L553.1667,239.8398 L810.1667,239.8398 L810.1667,224.707 L800.1667,214.707 L553.1667,214.707 " fill="#FEFFDD" style="stroke:#181818;stroke-width:0.5;"/><path d="M800.1667,214.707 L800.1667,224.707 L810.1667,224.707 L800.1667,214.707 " fill="#FEFFDD" style="stroke:#181818;stroke-width:1.0;"/><text fill="#000000" font-family="sans-serif" font-size="13" lengthAdjust="spacing" textLength="236" x="559.1667" y="231.7739">Helpers for the orchestration model.</text></g><!--MD5=[92b77629bd55dfee0d8df9f5cdda9d7d]
class helpers::codec_to_logical_projector--><g id="elem_helpers::codec_to_logical_projector"><rect codeLine="83" fill="#FFFACD" height="56.2656" id="helpers::codec_to_logical_projector" rx="2.5" ry="2.5" style="stroke:#181818;stroke-width:0.5;" width="222" x="371.5" y="259.8398"/><ellipse cx="386.5" cy="279.9727" fill="#ADD1B2" rx="11" ry="11" style="stroke:#181818;stroke-width:1.0;"/><path d="M389.4688,285.6133 Q388.8906,285.9102 388.25,286.0586 Q387.6094,286.207 386.9063,286.207 Q384.4063,286.207 383.0859,284.5586 Q381.7656,282.9102 381.7656,279.7852 Q381.7656,276.6602 383.0859,275.0039 Q384.4063,273.3477 386.9063,273.3477 Q387.6094,273.3477 388.2578,273.5039 Q388.9063,273.6602 389.4688,273.957 L389.4688,276.6758 Q388.8438,276.0977 388.25,275.8242 Q387.6563,275.5508 387.0313,275.5508 Q385.6875,275.5508 385,276.6211 Q384.3125,277.6914 384.3125,279.7852 Q384.3125,281.8789 385,282.9492 Q385.6875,284.0195 387.0313,284.0195 Q387.6563,284.0195 388.25,283.7461 Q388.8438,283.4727 389.4688,282.8945 L389.4688,285.6133 Z " fill="#000000"/><text fill="#000000" font-family="sans-serif" font-size="12" font-style="italic" lengthAdjust="spacing" textLength="194" x="398.5" y="275.9785">«dogen::handcrafted::typeable»</text><text fill="#000000" font-family="sans-serif" font-size="14" lengthAdjust="spacing" textLength="190" x="400.5" y="291.8037">codec_to_logical_projector</text><line style="stroke:#181818;stroke-width:0.5;" x1="372.5" x2="592.5" y1="300.1055" y2="300.1055"/><line style="stroke:#181818;stroke-width:0.5;" x1="372.5" x2="592.5" y1="308.1055" y2="308.1055"/></g><!--MD5=[133afa2a9525c2d786c3c4a43a456542]
class helpers::logical_to_physical_projector--><g id="elem_helpers::logical_to_physical_projector"><rect codeLine="86" fill="#FFFACD" height="56.2656" id="helpers::logical_to_physical_projector" rx="2.5" ry="2.5" style="stroke:#181818;stroke-width:0.5;" width="237" x="364" y="336.1055"/><ellipse cx="379" cy="356.2383" fill="#ADD1B2" rx="11" ry="11" style="stroke:#181818;stroke-width:1.0;"/><path d="M381.9688,361.8789 Q381.3906,362.1758 380.75,362.3242 Q380.1094,362.4727 379.4063,362.4727 Q376.9063,362.4727 375.5859,360.8242 Q374.2656,359.1758 374.2656,356.0508 Q374.2656,352.9258 375.5859,351.2695 Q376.9063,349.6133 379.4063,349.6133 Q380.1094,349.6133 380.7578,349.7695 Q381.4063,349.9258 381.9688,350.2227 L381.9688,352.9414 Q381.3438,352.3633 380.75,352.0898 Q380.1563,351.8164 379.5313,351.8164 Q378.1875,351.8164 377.5,352.8867 Q376.8125,353.957 376.8125,356.0508 Q376.8125,358.1445 377.5,359.2148 Q378.1875,360.2852 379.5313,360.2852 Q380.1563,360.2852 380.75,360.0117 Q381.3438,359.7383 381.9688,359.1602 L381.9688,361.8789 Z " fill="#000000"/><text fill="#000000" font-family="sans-serif" font-size="12" font-style="italic" lengthAdjust="spacing" textLength="194" x="398.5" y="352.2441">«dogen::handcrafted::typeable»</text><text fill="#000000" font-family="sans-serif" font-size="14" lengthAdjust="spacing" textLength="205" x="393" y="368.0693">logical_to_physical_projector</text><line style="stroke:#181818;stroke-width:0.5;" x1="365" x2="600" y1="376.3711" y2="376.3711"/><line style="stroke:#181818;stroke-width:0.5;" x1="365" x2="600" y1="384.3711" y2="384.3711"/></g><!--MD5=[d01b10de00c0a436a76d2778d5e50983]
class helpers::projection_error--><g id="elem_helpers::projection_error"><rect codeLine="89" fill="#E8C2F8" height="56.2656" id="helpers::projection_error" rx="2.5" ry="2.5" style="stroke:#181818;stroke-width:0.5;" width="147" x="204.5" y="259.8398"/><ellipse cx="219.5" cy="279.9727" fill="#ADD1B2" rx="11" ry="11" style="stroke:#181818;stroke-width:1.0;"/><path d="M222.4688,285.6133 Q221.8906,285.9102 221.25,286.0586 Q220.6094,286.207 219.9063,286.207 Q217.4063,286.207 216.0859,284.5586 Q214.7656,282.9102 214.7656,279.7852 Q214.7656,276.6602 216.0859,275.0039 Q217.4063,273.3477 219.9063,273.3477 Q220.6094,273.3477 221.2578,273.5039 Q221.9063,273.6602 222.4688,273.957 L222.4688,276.6758 Q221.8438,276.0977 221.25,275.8242 Q220.6563,275.5508 220.0313,275.5508 Q218.6875,275.5508 218,276.6211 Q217.3125,277.6914 217.3125,279.7852 Q217.3125,281.8789 218,282.9492 Q218.6875,284.0195 220.0313,284.0195 Q220.6563,284.0195 221.25,283.7461 Q221.8438,283.4727 222.4688,282.8945 L222.4688,285.6133 Z " fill="#000000"/><text fill="#000000" font-family="sans-serif" font-size="12" font-style="italic" lengthAdjust="spacing" textLength="114" x="234" y="275.9785">«masd::exception»</text><text fill="#000000" font-family="sans-serif" font-size="14" lengthAdjust="spacing" textLength="115" x="233.5" y="291.8037">projection_error</text><line style="stroke:#181818;stroke-width:0.5;" x1="205.5" x2="350.5" y1="300.1055" y2="300.1055"/><line style="stroke:#181818;stroke-width:0.5;" x1="205.5" x2="350.5" y1="308.1055" y2="308.1055"/></g><g id="elem_helpers::GMN30"><path d="M27,214.707 L27,239.8398 L529,239.8398 L529,224.707 L519,214.707 L27,214.707 " fill="#FEFFDD" style="stroke:#181818;stroke-width:0.5;"/><path d="M519,214.707 L519,224.707 L529,224.707 L519,214.707 " fill="#FEFFDD" style="stroke:#181818;stroke-width:1.0;"/><text fill="#000000" font-family="sans-serif" font-size="13" lengthAdjust="spacing" textLength="481" x="33" y="231.7739">An error occurred whilst projecting elements from one space into another.</text></g><!--MD5=[cea5031ae87c74002eae456e394668e6]
class helpers::dependencies_builder--><g id="elem_helpers::dependencies_builder"><rect codeLine="96" fill="#FFFACD" height="56.2656" id="helpers::dependencies_builder" rx="2.5" ry="2.5" style="stroke:#181818;stroke-width:0.5;" width="222" x="613.5" y="259.8398"/><ellipse cx="628.5" cy="279.9727" fill="#ADD1B2" rx="11" ry="11" style="stroke:#181818;stroke-width:1.0;"/><path d="M631.4688,285.6133 Q630.8906,285.9102 630.25,286.0586 Q629.6094,286.207 628.9063,286.207 Q626.4063,286.207 625.0859,284.5586 Q623.7656,282.9102 623.7656,279.7852 Q623.7656,276.6602 625.0859,275.0039 Q626.4063,273.3477 628.9063,273.3477 Q629.6094,273.3477 630.2578,273.5039 Q630.9063,273.6602 631.4688,273.957 L631.4688,276.6758 Q630.8438,276.0977 630.25,275.8242 Q629.6563,275.5508 629.0313,275.5508 Q627.6875,275.5508 627,276.6211 Q626.3125,277.6914 626.3125,279.7852 Q626.3125,281.8789 627,282.9492 Q627.6875,284.0195 629.0313,284.0195 Q629.6563,284.0195 630.25,283.7461 Q630.8438,283.4727 631.4688,282.8945 L631.4688,285.6133 Z " fill="#000000"/><text fill="#000000" font-family="sans-serif" font-size="12" font-style="italic" lengthAdjust="spacing" textLength="194" x="640.5" y="275.9785">«dogen::handcrafted::typeable»</text><text fill="#000000" font-family="sans-serif" font-size="14" lengthAdjust="spacing" textLength="157" x="659" y="291.8037">dependencies_builder</text><line style="stroke:#181818;stroke-width:0.5;" x1="614.5" x2="834.5" y1="300.1055" y2="300.1055"/><line style="stroke:#181818;stroke-width:0.5;" x1="614.5" x2="834.5" y1="308.1055" y2="308.1055"/></g><!--MD5=[6fd13f622b1e010fae07eaa86c0895f5]
class helpers::building_error--><g id="elem_helpers::building_error"><rect codeLine="99" fill="#E8C2F8" height="56.2656" id="helpers::building_error" rx="2.5" ry="2.5" style="stroke:#181818;stroke-width:0.5;" width="142" x="653.5" y="336.1055"/><ellipse cx="668.5" cy="356.2383" fill="#ADD1B2" rx="11" ry="11" style="stroke:#181818;stroke-width:1.0;"/><path d="M671.4688,361.8789 Q670.8906,362.1758 670.25,362.3242 Q669.6094,362.4727 668.9063,362.4727 Q666.4063,362.4727 665.0859,360.8242 Q663.7656,359.1758 663.7656,356.0508 Q663.7656,352.9258 665.0859,351.2695 Q666.4063,349.6133 668.9063,349.6133 Q669.6094,349.6133 670.2578,349.7695 Q670.9063,349.9258 671.4688,350.2227 L671.4688,352.9414 Q670.8438,352.3633 670.25,352.0898 Q669.6563,351.8164 669.0313,351.8164 Q667.6875,351.8164 667,352.8867 Q666.3125,353.957 666.3125,356.0508 Q666.3125,358.1445 667,359.2148 Q667.6875,360.2852 669.0313,360.2852 Q669.6563,360.2852 670.25,360.0117 Q670.8438,359.7383 671.4688,359.1602 L671.4688,361.8789 Z " fill="#000000"/><text fill="#000000" font-family="sans-serif" font-size="12" font-style="italic" lengthAdjust="spacing" textLength="114" x="680.5" y="352.2441">«masd::exception»</text><text fill="#000000" font-family="sans-serif" font-size="14" lengthAdjust="spacing" textLength="100" x="687.5" y="368.0693">building_error</text><line style="stroke:#181818;stroke-width:0.5;" x1="654.5" x2="794.5" y1="376.3711" y2="376.3711"/><line style="stroke:#181818;stroke-width:0.5;" x1="654.5" x2="794.5" y1="384.3711" y2="384.3711"/></g><g id="elem_features::features_1"><path d="M3024.1667,236.543 L3024.1667,261.6758 L3287.1667,261.6758 L3287.1667,246.543 L3277.1667,236.543 L3024.1667,236.543 " fill="#FEFFDD" style="stroke:#181818;stroke-width:0.5;"/><path d="M3277.1667,236.543 L3277.1667,246.543 L3287.1667,246.543 L3277.1667,236.543 " fill="#FEFFDD" style="stroke:#181818;stroke-width:1.0;"/><text fill="#000000" font-family="sans-serif" font-size="13" lengthAdjust="spacing" textLength="242" x="3030.1667" y="253.6099">Features for the orchestration model.</text></g><!--MD5=[27da765e9111347023128ab7be8dd5bd]
class features::model_location--><g id="elem_features::model_location"><rect codeLine="109" fill="#BAD7D7" height="88.8594" id="features::model_location" rx="2.5" ry="2.5" style="stroke:#181818;stroke-width:0.5;" width="313" x="3323.6667" y="297.2422"/><ellipse cx="3371.9167" cy="317.375" fill="#ADD1B2" rx="11" ry="11" style="stroke:#181818;stroke-width:1.0;"/><path d="M3374.8854,323.0156 Q3374.3073,323.3125 3373.6667,323.4609 Q3373.026,323.6094 3372.3229,323.6094 Q3369.8229,323.6094 3368.5026,321.9609 Q3367.1823,320.3125 3367.1823,317.1875 Q3367.1823,314.0625 3368.5026,312.4063 Q3369.8229,310.75 3372.3229,310.75 Q3373.026,310.75 3373.6745,310.9063 Q3374.3229,311.0625 3374.8854,311.3594 L3374.8854,314.0781 Q3374.2604,313.5 3373.6667,313.2266 Q3373.0729,312.9531 3372.4479,312.9531 Q3371.1042,312.9531 3370.4167,314.0234 Q3369.7292,315.0938 3369.7292,317.1875 Q3369.7292,319.2813 3370.4167,320.3516 Q3371.1042,321.4219 3372.4479,321.4219 Q3373.0729,321.4219 3373.6667,321.1484 Q3374.2604,320.875 3374.8854,320.2969 L3374.8854,323.0156 Z " fill="#000000"/><text fill="#000000" font-family="sans-serif" font-size="12" font-style="italic" lengthAdjust="spacing" textLength="212" x="3390.4167" y="313.3809">«masd::variability::feature_bundle»</text><text fill="#000000" font-family="sans-serif" font-size="14" lengthAdjust="spacing" textLength="109" x="3441.9167" y="329.2061">model_location</text><line style="stroke:#181818;stroke-width:0.5;" x1="3324.6667" x2="3635.6667" y1="337.5078" y2="337.5078"/><ellipse cx="3334.6667" cy="351.1563" fill="none" rx="3" ry="3" style="stroke:#038048;stroke-width:1.0;"/><text fill="#000000" font-family="sans-serif" font-size="14" lengthAdjust="spacing" textLength="287" x="3343.6667" y="354.5029">external_modules masd::variability::text</text><ellipse cx="3334.6667" cy="367.4531" fill="none" rx="3" ry="3" style="stroke:#038048;stroke-width:1.0;"/><text fill="#000000" font-family="sans-serif" font-size="14" lengthAdjust="spacing" textLength="273" x="3343.6667" y="370.7998">model_modules masd::variability::text</text><line style="stroke:#181818;stroke-width:0.5;" x1="3324.6667" x2="3635.6667" y1="378.1016" y2="378.1016"/></g><g id="elem_features::GMN38"><path d="M3307.1667,252.1094 L3307.1667,277.2422 L3653.1667,277.2422 L3653.1667,262.1094 L3643.1667,252.1094 L3307.1667,252.1094 " fill="#FEFFDD" style="stroke:#181818;stroke-width:0.5;"/><path d="M3643.1667,252.1094 L3643.1667,262.1094 L3653.1667,262.1094 L3643.1667,252.1094 " fill="#FEFFDD" style="stroke:#181818;stroke-width:1.0;"/><text fill="#000000" font-family="sans-serif" font-size="13" lengthAdjust="spacing" textLength="325" x="3313.1667" y="269.1763">Feature group for model location related features.</text></g><!--MD5=[f92b0da6b1af7bae6fc1fe89a12449e8]
class features::initializer--><g id="elem_features::initializer"><rect codeLine="118" fill="#A9CDCD" height="56.2656" id="features::initializer" rx="2.5" ry="2.5" style="stroke:#181818;stroke-width:0.5;" width="202" x="2802.1667" y="220.9766"/><ellipse cx="2817.1667" cy="241.1094" fill="#ADD1B2" rx="11" ry="11" style="stroke:#181818;stroke-width:1.0;"/><path d="M2820.1354,246.75 Q2819.5573,247.0469 2818.9167,247.1953 Q2818.276,247.3438 2817.5729,247.3438 Q2815.0729,247.3438 2813.7526,245.6953 Q2812.4323,244.0469 2812.4323,240.9219 Q2812.4323,237.7969 2813.7526,236.1406 Q2815.0729,234.4844 2817.5729,234.4844 Q2818.276,234.4844 2818.9245,234.6406 Q2819.5729,234.7969 2820.1354,235.0938 L2820.1354,237.8125 Q2819.5104,237.2344 2818.9167,236.9609 Q2818.3229,236.6875 2817.6979,236.6875 Q2816.3542,236.6875 2815.6667,237.7578 Q2814.9792,238.8281 2814.9792,240.9219 Q2814.9792,243.0156 2815.6667,244.0859 Q2816.3542,245.1563 2817.6979,245.1563 Q2818.3229,245.1563 2818.9167,244.8828 Q2819.5104,244.6094 2820.1354,244.0313 L2820.1354,246.75 Z " fill="#000000"/><text fill="#000000" font-family="sans-serif" font-size="12" font-style="italic" lengthAdjust="spacing" textLength="174" x="2829.1667" y="237.1152">«masd::variability::initializer»</text><text fill="#000000" font-family="sans-serif" font-size="14" lengthAdjust="spacing" textLength="65" x="2883.6667" y="252.9404">initializer</text><line style="stroke:#181818;stroke-width:0.5;" x1="2803.1667" x2="3003.1667" y1="261.2422" y2="261.2422"/><line style="stroke:#181818;stroke-width:0.5;" x1="2803.1667" x2="3003.1667" y1="269.2422" y2="269.2422"/></g><g id="elem_N1"><path d="M2307.1667,484.4141 L2307.1667,570.0781 L2767.1667,570.0781 L2767.1667,494.4141 L2757.1667,484.4141 L2307.1667,484.4141 " fill="#FEFFDD" style="stroke:#181818;stroke-width:0.5;"/><path d="M2757.1667,484.4141 L2757.1667,494.4141 L2767.1667,494.4141 L2757.1667,484.4141 " fill="#FEFFDD" style="stroke:#181818;stroke-width:1.0;"/><text fill="#000000" font-family="sans-serif" font-size="13" lengthAdjust="spacing" textLength="402" x="2313.1667" y="501.481">Orchestration-based imlementation of the Dogen product API.</text><text fill="#000000" font-family="sans-serif" font-size="13" lengthAdjust="spacing" textLength="4" x="2313.1667" y="516.6138"> </text><text fill="#000000" font-family="sans-serif" font-size="13" lengthAdjust="spacing" textLength="131" x="2313.1667" y="531.7466">UML representation:</text><text fill="#000000" font-family="sans-serif" font-size="13" lengthAdjust="spacing" textLength="4" x="2313.1667" y="546.8794"> </text><text fill="#000000" font-family="sans-serif" font-size="13" lengthAdjust="spacing" textLength="439" x="2313.1667" y="562.0122">\image html dogen.orchestration/modeling/dogen.orchestration.svg</text></g><!--MD5=[dd71179583cce17ecb14726d47c32e81]
class generator--><g id="elem_generator"><rect codeLine="72" fill="#FFFACD" height="56.2656" id="generator" rx="2.5" ry="2.5" style="stroke:#181818;stroke-width:0.5;" width="222" x="2927" y="590.0781"/><ellipse cx="2942" cy="610.2109" fill="#ADD1B2" rx="11" ry="11" style="stroke:#181818;stroke-width:1.0;"/><path d="M2944.9688,615.8516 Q2944.3906,616.1484 2943.75,616.2969 Q2943.1094,616.4453 2942.4063,616.4453 Q2939.9063,616.4453 2938.5859,614.7969 Q2937.2656,613.1484 2937.2656,610.0234 Q2937.2656,606.8984 2938.5859,605.2422 Q2939.9063,603.5859 2942.4063,603.5859 Q2943.1094,603.5859 2943.7578,603.7422 Q2944.4063,603.8984 2944.9688,604.1953 L2944.9688,606.9141 Q2944.3438,606.3359 2943.75,606.0625 Q2943.1563,605.7891 2942.5313,605.7891 Q2941.1875,605.7891 2940.5,606.8594 Q2939.8125,607.9297 2939.8125,610.0234 Q2939.8125,612.1172 2940.5,613.1875 Q2941.1875,614.2578 2942.5313,614.2578 Q2943.1563,614.2578 2943.75,613.9844 Q2944.3438,613.7109 2944.9688,613.1328 L2944.9688,615.8516 Z " fill="#000000"/><text fill="#000000" font-family="sans-serif" font-size="12" font-style="italic" lengthAdjust="spacing" textLength="194" x="2954" y="606.2168">«dogen::handcrafted::typeable»</text><text fill="#000000" font-family="sans-serif" font-size="14" lengthAdjust="spacing" textLength="71" x="3015.5" y="622.042">generator</text><line style="stroke:#181818;stroke-width:0.5;" x1="2928" x2="3148" y1="630.3438" y2="630.3438"/><line style="stroke:#181818;stroke-width:0.5;" x1="2928" x2="3148" y1="638.3438" y2="638.3438"/></g><!--MD5=[28d2d70932dfaa0fc9ca4145a3e35f21]
class converter--><g id="elem_converter"><rect codeLine="75" fill="#FFFACD" height="56.2656" id="converter" rx="2.5" ry="2.5" style="stroke:#181818;stroke-width:0.5;" width="222" x="2927" y="666.3438"/><ellipse cx="2942" cy="686.4766" fill="#ADD1B2" rx="11" ry="11" style="stroke:#181818;stroke-width:1.0;"/><path d="M2944.9688,692.1172 Q2944.3906,692.4141 2943.75,692.5625 Q2943.1094,692.7109 2942.4063,692.7109 Q2939.9063,692.7109 2938.5859,691.0625 Q2937.2656,689.4141 2937.2656,686.2891 Q2937.2656,683.1641 2938.5859,681.5078 Q2939.9063,679.8516 2942.4063,679.8516 Q2943.1094,679.8516 2943.7578,680.0078 Q2944.4063,680.1641 2944.9688,680.4609 L2944.9688,683.1797 Q2944.3438,682.6016 2943.75,682.3281 Q2943.1563,682.0547 2942.5313,682.0547 Q2941.1875,682.0547 2940.5,683.125 Q2939.8125,684.1953 2939.8125,686.2891 Q2939.8125,688.3828 2940.5,689.4531 Q2941.1875,690.5234 2942.5313,690.5234 Q2943.1563,690.5234 2943.75,690.25 Q2944.3438,689.9766 2944.9688,689.3984 L2944.9688,692.1172 Z " fill="#000000"/><text fill="#000000" font-family="sans-serif" font-size="12" font-style="italic" lengthAdjust="spacing" textLength="194" x="2954" y="682.4824">«dogen::handcrafted::typeable»</text><text fill="#000000" font-family="sans-serif" font-size="14" lengthAdjust="spacing" textLength="69" x="3016.5" y="698.3076">converter</text><line style="stroke:#181818;stroke-width:0.5;" x1="2928" x2="3148" y1="706.6094" y2="706.6094"/><line style="stroke:#181818;stroke-width:0.5;" x1="2928" x2="3148" y1="714.6094" y2="714.6094"/></g><!--MD5=[4520fda4e10d4d791ce48fe025810cd4]
class main--><g id="elem_main"><rect codeLine="123" fill="#DDA9F3" height="56.2656" id="main" rx="2.5" ry="2.5" style="stroke:#181818;stroke-width:0.5;" width="267" x="2327" y="590.0781"/><ellipse cx="2342" cy="610.2109" fill="#ADD1B2" rx="11" ry="11" style="stroke:#181818;stroke-width:1.0;"/><path d="M2344.9688,615.8516 Q2344.3906,616.1484 2343.75,616.2969 Q2343.1094,616.4453 2342.4063,616.4453 Q2339.9063,616.4453 2338.5859,614.7969 Q2337.2656,613.1484 2337.2656,610.0234 Q2337.2656,606.8984 2338.5859,605.2422 Q2339.9063,603.5859 2342.4063,603.5859 Q2343.1094,603.5859 2343.7578,603.7422 Q2344.4063,603.8984 2344.9688,604.1953 L2344.9688,606.9141 Q2344.3438,606.3359 2343.75,606.0625 Q2343.1563,605.7891 2342.5313,605.7891 Q2341.1875,605.7891 2340.5,606.8594 Q2339.8125,607.9297 2339.8125,610.0234 Q2339.8125,612.1172 2340.5,613.1875 Q2341.1875,614.2578 2342.5313,614.2578 Q2343.1563,614.2578 2343.75,613.9844 Q2344.3438,613.7109 2344.9688,613.1328 L2344.9688,615.8516 Z " fill="#000000"/><text fill="#000000" font-family="sans-serif" font-size="12" font-style="italic" lengthAdjust="spacing" textLength="239" x="2354" y="606.2168">«masd::entry_point, dogen::untypable»</text><text fill="#000000" font-family="sans-serif" font-size="14" lengthAdjust="spacing" textLength="36" x="2455.5" y="622.042">main</text><line style="stroke:#181818;stroke-width:0.5;" x1="2328" x2="2593" y1="630.3438" y2="630.3438"/><line style="stroke:#181818;stroke-width:0.5;" x1="2328" x2="2593" y1="638.3438" y2="638.3438"/></g><!--MD5=[ba83386d426114557685538e96aa6f68]
class CMakeLists--><g id="elem_CMakeLists"><rect codeLine="126" fill="#99CB99" height="56.2656" id="CMakeLists" rx="2.5" ry="2.5" style="stroke:#181818;stroke-width:0.5;" width="360" x="2547" y="666.3438"/><ellipse cx="2562" cy="686.4766" fill="#ADD1B2" rx="11" ry="11" style="stroke:#181818;stroke-width:1.0;"/><path d="M2564.9688,692.1172 Q2564.3906,692.4141 2563.75,692.5625 Q2563.1094,692.7109 2562.4063,692.7109 Q2559.9063,692.7109 2558.5859,691.0625 Q2557.2656,689.4141 2557.2656,686.2891 Q2557.2656,683.1641 2558.5859,681.5078 Q2559.9063,679.8516 2562.4063,679.8516 Q2563.1094,679.8516 2563.7578,680.0078 Q2564.4063,680.1641 2564.9688,680.4609 L2564.9688,683.1797 Q2564.3438,682.6016 2563.75,682.3281 Q2563.1563,682.0547 2562.5313,682.0547 Q2561.1875,682.0547 2560.5,683.125 Q2559.8125,684.1953 2559.8125,686.2891 Q2559.8125,688.3828 2560.5,689.4531 Q2561.1875,690.5234 2562.5313,690.5234 Q2563.1563,690.5234 2563.75,690.25 Q2564.3438,689.9766 2564.9688,689.3984 L2564.9688,692.1172 Z " fill="#000000"/><text fill="#000000" font-family="sans-serif" font-size="12" font-style="italic" lengthAdjust="spacing" textLength="332" x="2574" y="682.4824">«masd::build::cmakelists, dogen::handcrafted::cmake»</text><text fill="#000000" font-family="sans-serif" font-size="14" lengthAdjust="spacing" textLength="79" x="2700.5" y="698.3076">CMakeLists</text><line style="stroke:#181818;stroke-width:0.5;" x1="2548" x2="2906" y1="706.6094" y2="706.6094"/><line style="stroke:#181818;stroke-width:0.5;" x1="2548" x2="2906" y1="714.6094" y2="714.6094"/></g><!--MD5=[3e3a516ce6d06244972b43908f48245e]
class spec_dumper--><g id="elem_spec_dumper"><rect codeLine="129" fill="#FFFACD" height="56.2656" id="spec_dumper" rx="2.5" ry="2.5" style="stroke:#181818;stroke-width:0.5;" width="222" x="2616" y="742.6094"/><ellipse cx="2631" cy="762.7422" fill="#ADD1B2" rx="11" ry="11" style="stroke:#181818;stroke-width:1.0;"/><path d="M2633.9688,768.3828 Q2633.3906,768.6797 2632.75,768.8281 Q2632.1094,768.9766 2631.4063,768.9766 Q2628.9063,768.9766 2627.5859,767.3281 Q2626.2656,765.6797 2626.2656,762.5547 Q2626.2656,759.4297 2627.5859,757.7734 Q2628.9063,756.1172 2631.4063,756.1172 Q2632.1094,756.1172 2632.7578,756.2734 Q2633.4063,756.4297 2633.9688,756.7266 L2633.9688,759.4453 Q2633.3438,758.8672 2632.75,758.5938 Q2632.1563,758.3203 2631.5313,758.3203 Q2630.1875,758.3203 2629.5,759.3906 Q2628.8125,760.4609 2628.8125,762.5547 Q2628.8125,764.6484 2629.5,765.7188 Q2630.1875,766.7891 2631.5313,766.7891 Q2632.1563,766.7891 2632.75,766.5156 Q2633.3438,766.2422 2633.9688,765.6641 L2633.9688,768.3828 Z " fill="#000000"/><text fill="#000000" font-family="sans-serif" font-size="12" font-style="italic" lengthAdjust="spacing" textLength="194" x="2643" y="758.748">«dogen::handcrafted::typeable»</text><text fill="#000000" font-family="sans-serif" font-size="14" lengthAdjust="spacing" textLength="96" x="2692" y="774.5732">spec_dumper</text><line style="stroke:#181818;stroke-width:0.5;" x1="2617" x2="2837" y1="782.875" y2="782.875"/><line style="stroke:#181818;stroke-width:0.5;" x1="2617" x2="2837" y1="790.875" y2="790.875"/></g><!--MD5=[d54e5852ecfe164bbba509d3a9352ed8]
class initializer--><g id="elem_initializer"><rect codeLine="132" fill="#FFFACD" height="56.2656" id="initializer" rx="2.5" ry="2.5" style="stroke:#181818;stroke-width:0.5;" width="222" x="2305" y="666.3438"/><ellipse cx="2320" cy="686.4766" fill="#ADD1B2" rx="11" ry="11" style="stroke:#181818;stroke-width:1.0;"/><path d="M2322.9688,692.1172 Q2322.3906,692.4141 2321.75,692.5625 Q2321.1094,692.7109 2320.4063,692.7109 Q2317.9063,692.7109 2316.5859,691.0625 Q2315.2656,689.4141 2315.2656,686.2891 Q2315.2656,683.1641 2316.5859,681.5078 Q2317.9063,679.8516 2320.4063,679.8516 Q2321.1094,679.8516 2321.7578,680.0078 Q2322.4063,680.1641 2322.9688,680.4609 L2322.9688,683.1797 Q2322.3438,682.6016 2321.75,682.3281 Q2321.1563,682.0547 2320.5313,682.0547 Q2319.1875,682.0547 2318.5,683.125 Q2317.8125,684.1953 2317.8125,686.2891 Q2317.8125,688.3828 2318.5,689.4531 Q2319.1875,690.5234 2320.5313,690.5234 Q2321.1563,690.5234 2321.75,690.25 Q2322.3438,689.9766 2322.9688,689.3984 L2322.9688,692.1172 Z " fill="#000000"/><text fill="#000000" font-family="sans-serif" font-size="12" font-style="italic" lengthAdjust="spacing" textLength="194" x="2332" y="682.4824">«dogen::handcrafted::typeable»</text><text fill="#000000" font-family="sans-serif" font-size="14" lengthAdjust="spacing" textLength="65" x="2396.5" y="698.3076">initializer</text><line style="stroke:#181818;stroke-width:0.5;" x1="2306" x2="2526" y1="706.6094" y2="706.6094"/><line style="stroke:#181818;stroke-width:0.5;" x1="2306" x2="2526" y1="714.6094" y2="714.6094"/></g><line style="stroke:#181818;stroke-width:1.0;stroke-dasharray:7.0,7.0;" x1="1805.1667" x2="1805.1667" y1="92.2656" y2="112.2656"/><line style="stroke:#181818;stroke-width:1.0;stroke-dasharray:7.0,7.0;" x1="278" x2="278" y1="239.8398" y2="259.8398"/><line style="stroke:#181818;stroke-width:1.0;stroke-dasharray:7.0,7.0;" x1="3480.1667" x2="3480.1667" y1="277.2422" y2="297.2422"/><!--MD5=[198dabd870a13a29d33ce07532837bc7]
@startuml
!pragma layout elk
set namespaceSeparator ::
note as N1
Orchestration-based imlementation of the Dogen product API.

UML representation:

\image html dogen.orchestration/modeling/dogen.orchestration.svg
end note

namespace transforms #F2F2F2 {
    note as transforms_1
Top-level transforms for Dogen. These are
the entry points to all transformations.
    end note

    class code_generation_chain <<dogen::handcrafted::typeable>> #FFFACD {
    }

    class context <<dogen::typeable, dogen::pretty_printable>> #F7E5FF {
        +{field} variability_context variability::transforms::context
        +{field} codec_context codec::transforms::context
        +{field} logical_context logical::transforms::context
        +{field} text_context text::transforms::context
        +{field} physical_context physical::transforms::context
    }

    class context_factory <<dogen::handcrafted::typeable>> #FFFACD {
    }

    class factory_exception <<masd::exception>> #E8C2F8 {
    }

    note top of factory_exception
An error occurred in the factory whilst making.
    end note

    class codec_model_to_logical_model_transform <<dogen::handcrafted::typeable>> #FFFACD {
    }

    class codec_model_set_to_logical_input_model_set_chain <<dogen::handcrafted::typeable>> #FFFACD {
    }

    class transform_exception <<masd::exception>> #E8C2F8 {
    }

    class logical_model_to_text_model_chain <<dogen::handcrafted::typeable>> #FFFACD {
    }

    class physical_model_production_chain <<dogen::handcrafted::typeable>> #FFFACD {
    }

    class text_model_to_physical_model_transform <<dogen::handcrafted::typeable>> #FFFACD {
    }

    class context_bootstrapping_chain <<dogen::handcrafted::typeable>> #FFFACD {
    }

    class text_model_production_chain <<dogen::handcrafted::typeable>> #FFFACD {
    }

    class legacy_dependencies_transform <<dogen::handcrafted::typeable>> #FFFACD {
    }

    class physical_to_logical_population_transform <<dogen::handcrafted::typeable>> #FFFACD {
    }

    class elements_removal_transform <<dogen::handcrafted::typeable>> #FFFACD {
    }

}

class generator <<dogen::handcrafted::typeable>> #FFFACD {
}

class converter <<dogen::handcrafted::typeable>> #FFFACD {
}

namespace helpers #F2F2F2 {
    note as helpers_1
Helpers for the orchestration model.
    end note

    class codec_to_logical_projector <<dogen::handcrafted::typeable>> #FFFACD {
    }

    class logical_to_physical_projector <<dogen::handcrafted::typeable>> #FFFACD {
    }

    class projection_error <<masd::exception>> #E8C2F8 {
    }

    note top of projection_error
An error occurred whilst projecting elements from one space into another.
    end note

    class dependencies_builder <<dogen::handcrafted::typeable>> #FFFACD {
    }

    class building_error <<masd::exception>> #E8C2F8 {
    }

}

namespace features #F2F2F2 {
    note as features_1
Features for the orchestration model.
    end note

    class model_location <<masd::variability::feature_bundle>> #BAD7D7 {
        +{field} external_modules masd::variability::text
        +{field} model_modules masd::variability::text
    }

    note top of model_location
Feature group for model location related features.
    end note

    class initializer <<masd::variability::initializer>> #A9CDCD {
    }

}

class main <<masd::entry_point, dogen::untypable>> #DDA9F3 {
}

class CMakeLists <<masd::build::cmakelists, dogen::handcrafted::cmake>> #99CB99 {
}

class spec_dumper <<dogen::handcrafted::typeable>> #FFFACD {
}

class initializer <<dogen::handcrafted::typeable>> #FFFACD {
}

@enduml

PlantUML version 1.2022.9(Tue Sep 27 17:10:06 BST 2022)
(GPL source distribution)
Java Runtime: OpenJDK Runtime Environment
JVM: OpenJDK 64-Bit Server VM
Default Encoding: UTF-8
Language: en
Country: GB
--></g></svg>