<?xml version="1.0" encoding="UTF-8" standalone="no"?><svg xmlns="http://www.w3.org/2000/svg" xmlns:xlink="http://www.w3.org/1999/xlink" contentStyleType="text/css" height="583px" preserveAspectRatio="none" style="width:4982px;height:583px;background:#FFFFFF;" version="1.1" viewBox="0 0 4982 583" width="4982px" zoomAndPan="magnify"><defs/><g><!--MD5=[e8c14457c5ec3409b346b9ce068df3a0]
cluster transforms--><g id="cluster_transforms"><path d="M1040.5,6 L1128.5,6 A3.75,3.75 0 0 1 1131,8.5 L1138,28.2969 L2653.5,28.2969 A2.5,2.5 0 0 1 2656,30.7969 L2656,573.5 A2.5,2.5 0 0 1 2653.5,576 L1040.5,576 A2.5,2.5 0 0 1 1038,573.5 L1038,8.5 A2.5,2.5 0 0 1 1040.5,6 " fill="#F2F2F2" style="stroke:#000000;stroke-width:1.5;"/><line style="stroke:#000000;stroke-width:1.5;" x1="1038" x2="1138" y1="28.2969" y2="28.2969"/><text fill="#000000" font-family="sans-serif" font-size="14" font-weight="bold" lengthAdjust="spacing" textLength="87" x="1042" y="20.9951">transforms</text></g><!--MD5=[9b2039c9cbc9b36eebe6e360cb295121]
cluster helpers--><g id="cluster_helpers"><path d="M2682.5,47 L2743.5,47 A3.75,3.75 0 0 1 2746,49.5 L2753,69.2969 L4034.5,69.2969 A2.5,2.5 0 0 1 4037,71.7969 L4037,325 A2.5,2.5 0 0 1 4034.5,327.5 L2682.5,327.5 A2.5,2.5 0 0 1 2680,325 L2680,49.5 A2.5,2.5 0 0 1 2682.5,47 " fill="#F2F2F2" style="stroke:#000000;stroke-width:1.5;"/><line style="stroke:#000000;stroke-width:1.5;" x1="2680" x2="2753" y1="69.2969" y2="69.2969"/><text fill="#000000" font-family="sans-serif" font-size="14" font-weight="bold" lengthAdjust="spacing" textLength="60" x="2684" y="61.9951">helpers</text></g><!--MD5=[71d025891867de53c6fbdf206ea2c55d]
cluster features--><g id="cluster_features"><path d="M4063.5,47 L4131.5,47 A3.75,3.75 0 0 1 4134,49.5 L4141,69.2969 L4972.5,69.2969 A2.5,2.5 0 0 1 4975,71.7969 L4975,341.5 A2.5,2.5 0 0 1 4972.5,344 L4063.5,344 A2.5,2.5 0 0 1 4061,341.5 L4061,49.5 A2.5,2.5 0 0 1 4063.5,47 " fill="#F2F2F2" style="stroke:#000000;stroke-width:1.5;"/><line style="stroke:#000000;stroke-width:1.5;" x1="4061" x2="4141" y1="69.2969" y2="69.2969"/><text fill="#000000" font-family="sans-serif" font-size="14" font-weight="bold" lengthAdjust="spacing" textLength="67" x="4065" y="61.9951">features</text></g><g id="elem_transforms::transforms_1"><path d="M1413.5,90 L1413.5,130.2656 L1710.5,130.2656 L1710.5,100 L1700.5,90 L1413.5,90 " fill="#FEFFDD" style="stroke:#181818;stroke-width:0.5;"/><path d="M1700.5,90 L1700.5,100 L1710.5,100 L1700.5,90 " fill="#FEFFDD" style="stroke:#181818;stroke-width:1.0;"/><text fill="#000000" font-family="sans-serif" font-size="13" lengthAdjust="spacing" textLength="276" x="1419.5" y="107.0669">Top-level transforms for Dogen. These are</text><text fill="#000000" font-family="sans-serif" font-size="13" lengthAdjust="spacing" textLength="252" x="1419.5" y="122.1997">the entry points to all transformations.</text></g><!--MD5=[abd65484e0f49489c62d799c9536589f]
class transforms::code_generation_chain--><g id="elem_transforms::code_generation_chain"><rect codeLine="16" fill="#FFFACD" height="56.2656" id="transforms::code_generation_chain" rx="2.5" ry="2.5" style="stroke:#181818;stroke-width:0.5;" width="222" x="1746" y="82"/><ellipse cx="1761" cy="102.1328" fill="#ADD1B2" rx="11" ry="11" style="stroke:#181818;stroke-width:1.0;"/><path d="M1763.9688,107.7734 Q1763.3906,108.0703 1762.75,108.2188 Q1762.1094,108.3672 1761.4063,108.3672 Q1758.9063,108.3672 1757.5859,106.7188 Q1756.2656,105.0703 1756.2656,101.9453 Q1756.2656,98.8203 1757.5859,97.1641 Q1758.9063,95.5078 1761.4063,95.5078 Q1762.1094,95.5078 1762.7578,95.6641 Q1763.4063,95.8203 1763.9688,96.1172 L1763.9688,98.8359 Q1763.3438,98.2578 1762.75,97.9844 Q1762.1563,97.7109 1761.5313,97.7109 Q1760.1875,97.7109 1759.5,98.7813 Q1758.8125,99.8516 1758.8125,101.9453 Q1758.8125,104.0391 1759.5,105.1094 Q1760.1875,106.1797 1761.5313,106.1797 Q1762.1563,106.1797 1762.75,105.9063 Q1763.3438,105.6328 1763.9688,105.0547 L1763.9688,107.7734 Z " fill="#000000"/><text fill="#000000" font-family="sans-serif" font-size="12" font-style="italic" lengthAdjust="spacing" textLength="194" x="1773" y="98.1387">«dogen::handcrafted::typeable»</text><text fill="#000000" font-family="sans-serif" font-size="14" lengthAdjust="spacing" textLength="166" x="1787" y="113.9639">code_generation_chain</text><line style="stroke:#181818;stroke-width:0.5;" x1="1747" x2="1967" y1="122.2656" y2="122.2656"/><line style="stroke:#181818;stroke-width:0.5;" x1="1747" x2="1967" y1="130.2656" y2="130.2656"/></g><!--MD5=[133f4cfbb2bb2891c2a6c3694af0bb4e]
class transforms::context--><g id="elem_transforms::context"><rect codeLine="19" fill="#F7E5FF" height="137.75" id="transforms::context" rx="2.5" ry="2.5" style="stroke:#181818;stroke-width:0.5;" width="380" x="2003" y="41"/><ellipse cx="2059.25" cy="61.1328" fill="#ADD1B2" rx="11" ry="11" style="stroke:#181818;stroke-width:1.0;"/><path d="M2062.2188,66.7734 Q2061.6406,67.0703 2061,67.2188 Q2060.3594,67.3672 2059.6563,67.3672 Q2057.1563,67.3672 2055.8359,65.7188 Q2054.5156,64.0703 2054.5156,60.9453 Q2054.5156,57.8203 2055.8359,56.1641 Q2057.1563,54.5078 2059.6563,54.5078 Q2060.3594,54.5078 2061.0078,54.6641 Q2061.6563,54.8203 2062.2188,55.1172 L2062.2188,57.8359 Q2061.5938,57.2578 2061,56.9844 Q2060.4063,56.7109 2059.7813,56.7109 Q2058.4375,56.7109 2057.75,57.7813 Q2057.0625,58.8516 2057.0625,60.9453 Q2057.0625,63.0391 2057.75,64.1094 Q2058.4375,65.1797 2059.7813,65.1797 Q2060.4063,65.1797 2061,64.9063 Q2061.5938,64.6328 2062.2188,64.0547 L2062.2188,66.7734 Z " fill="#000000"/><text fill="#000000" font-family="sans-serif" font-size="12" font-style="italic" lengthAdjust="spacing" textLength="263" x="2077.75" y="57.1387">«dogen::typeable, dogen::pretty_printable»</text><text fill="#000000" font-family="sans-serif" font-size="14" lengthAdjust="spacing" textLength="53" x="2182.75" y="72.9639">context</text><line style="stroke:#181818;stroke-width:0.5;" x1="2004" x2="2382" y1="81.2656" y2="81.2656"/><ellipse cx="2014" cy="92.2656" fill="none" rx="3" ry="3" style="stroke:#038048;stroke-width:1.0;"/><text fill="#000000" font-family="sans-serif" font-size="14" lengthAdjust="spacing" textLength="354" x="2023" y="98.2607">variability_context variability::transforms::context</text><ellipse cx="2014" cy="108.5625" fill="none" rx="3" ry="3" style="stroke:#038048;stroke-width:1.0;"/><text fill="#000000" font-family="sans-serif" font-size="14" lengthAdjust="spacing" textLength="300" x="2023" y="114.5576">codec_context codec::transforms::context</text><ellipse cx="2014" cy="124.8594" fill="none" rx="3" ry="3" style="stroke:#038048;stroke-width:1.0;"/><text fill="#000000" font-family="sans-serif" font-size="14" lengthAdjust="spacing" textLength="308" x="2023" y="130.8545">logical_context logical::transforms::context</text><ellipse cx="2014" cy="141.1563" fill="none" rx="3" ry="3" style="stroke:#038048;stroke-width:1.0;"/><text fill="#000000" font-family="sans-serif" font-size="14" lengthAdjust="spacing" textLength="268" x="2023" y="147.1514">text_context text::transforms::context</text><ellipse cx="2014" cy="157.4531" fill="none" rx="3" ry="3" style="stroke:#038048;stroke-width:1.0;"/><text fill="#000000" font-family="sans-serif" font-size="14" lengthAdjust="spacing" textLength="330" x="2023" y="163.4482">physical_context physical::transforms::context</text><line style="stroke:#181818;stroke-width:0.5;" x1="2004" x2="2382" y1="170.75" y2="170.75"/></g><!--MD5=[11ecefc52d11f3391c9e5a2aa946cf90]
class transforms::context_factory--><g id="elem_transforms::context_factory"><rect codeLine="27" fill="#FFFACD" height="56.2656" id="transforms::context_factory" rx="2.5" ry="2.5" style="stroke:#181818;stroke-width:0.5;" width="222" x="2418" y="82"/><ellipse cx="2433" cy="102.1328" fill="#ADD1B2" rx="11" ry="11" style="stroke:#181818;stroke-width:1.0;"/><path d="M2435.9688,107.7734 Q2435.3906,108.0703 2434.75,108.2188 Q2434.1094,108.3672 2433.4063,108.3672 Q2430.9063,108.3672 2429.5859,106.7188 Q2428.2656,105.0703 2428.2656,101.9453 Q2428.2656,98.8203 2429.5859,97.1641 Q2430.9063,95.5078 2433.4063,95.5078 Q2434.1094,95.5078 2434.7578,95.6641 Q2435.4063,95.8203 2435.9688,96.1172 L2435.9688,98.8359 Q2435.3438,98.2578 2434.75,97.9844 Q2434.1563,97.7109 2433.5313,97.7109 Q2432.1875,97.7109 2431.5,98.7813 Q2430.8125,99.8516 2430.8125,101.9453 Q2430.8125,104.0391 2431.5,105.1094 Q2432.1875,106.1797 2433.5313,106.1797 Q2434.1563,106.1797 2434.75,105.9063 Q2435.3438,105.6328 2435.9688,105.0547 L2435.9688,107.7734 Z " fill="#000000"/><text fill="#000000" font-family="sans-serif" font-size="12" font-style="italic" lengthAdjust="spacing" textLength="194" x="2445" y="98.1387">«dogen::handcrafted::typeable»</text><text fill="#000000" font-family="sans-serif" font-size="14" lengthAdjust="spacing" textLength="110" x="2487" y="113.9639">context_factory</text><line style="stroke:#181818;stroke-width:0.5;" x1="2419" x2="2639" y1="122.2656" y2="122.2656"/><line style="stroke:#181818;stroke-width:0.5;" x1="2419" x2="2639" y1="130.2656" y2="130.2656"/></g><!--MD5=[fbdfb4afbf33e4319841469d1d7db4da]
class transforms::factory_exception--><g id="elem_transforms::factory_exception"><rect codeLine="30" fill="#E8C2F8" height="56.2656" id="transforms::factory_exception" rx="2.5" ry="2.5" style="stroke:#181818;stroke-width:0.5;" width="159" x="1136.5" y="255.5"/><ellipse cx="1151.5" cy="275.6328" fill="#ADD1B2" rx="11" ry="11" style="stroke:#181818;stroke-width:1.0;"/><path d="M1154.4688,281.2734 Q1153.8906,281.5703 1153.25,281.7188 Q1152.6094,281.8672 1151.9063,281.8672 Q1149.4063,281.8672 1148.0859,280.2188 Q1146.7656,278.5703 1146.7656,275.4453 Q1146.7656,272.3203 1148.0859,270.6641 Q1149.4063,269.0078 1151.9063,269.0078 Q1152.6094,269.0078 1153.2578,269.1641 Q1153.9063,269.3203 1154.4688,269.6172 L1154.4688,272.3359 Q1153.8438,271.7578 1153.25,271.4844 Q1152.6563,271.2109 1152.0313,271.2109 Q1150.6875,271.2109 1150,272.2813 Q1149.3125,273.3516 1149.3125,275.4453 Q1149.3125,277.5391 1150,278.6094 Q1150.6875,279.6797 1152.0313,279.6797 Q1152.6563,279.6797 1153.25,279.4063 Q1153.8438,279.1328 1154.4688,278.5547 L1154.4688,281.2734 Z " fill="#000000"/><text fill="#000000" font-family="sans-serif" font-size="12" font-style="italic" lengthAdjust="spacing" textLength="114" x="1172" y="271.6387">«masd::exception»</text><text fill="#000000" font-family="sans-serif" font-size="14" lengthAdjust="spacing" textLength="127" x="1165.5" y="287.4639">factory_exception</text><line style="stroke:#181818;stroke-width:0.5;" x1="1137.5" x2="1294.5" y1="295.7656" y2="295.7656"/><line style="stroke:#181818;stroke-width:0.5;" x1="1137.5" x2="1294.5" y1="303.7656" y2="303.7656"/></g><g id="elem_transforms::GMN9"><path d="M1054,97.5 L1054,122.6328 A0,0 0 0 0 1054,122.6328 L1212,122.6328 L1216,255.4 L1220,122.6328 L1378,122.6328 A0,0 0 0 0 1378,122.6328 L1378,107.5 L1368,97.5 L1054,97.5 A0,0 0 0 0 1054,97.5 " fill="#FEFFDD" style="stroke:#181818;stroke-width:0.5;"/><path d="M1368,97.5 L1368,107.5 L1378,107.5 L1368,97.5 " fill="#FEFFDD" style="stroke:#181818;stroke-width:0.5;"/><text fill="#000000" font-family="sans-serif" font-size="13" lengthAdjust="spacing" textLength="303" x="1060" y="114.5669">An error occurred in the factory whilst making.</text></g><!--MD5=[5c53f1f127d3f861dbdc2986fc803482]
class transforms::codec_model_to_logical_model_transform--><g id="elem_transforms::codec_model_to_logical_model_transform"><rect codeLine="37" fill="#FFFACD" height="56.2656" id="transforms::codec_model_to_logical_model_transform" rx="2.5" ry="2.5" style="stroke:#181818;stroke-width:0.5;" width="331" x="1341.5" y="255.5"/><ellipse cx="1356.5" cy="275.6328" fill="#ADD1B2" rx="11" ry="11" style="stroke:#181818;stroke-width:1.0;"/><path d="M1359.4688,281.2734 Q1358.8906,281.5703 1358.25,281.7188 Q1357.6094,281.8672 1356.9063,281.8672 Q1354.4063,281.8672 1353.0859,280.2188 Q1351.7656,278.5703 1351.7656,275.4453 Q1351.7656,272.3203 1353.0859,270.6641 Q1354.4063,269.0078 1356.9063,269.0078 Q1357.6094,269.0078 1358.2578,269.1641 Q1358.9063,269.3203 1359.4688,269.6172 L1359.4688,272.3359 Q1358.8438,271.7578 1358.25,271.4844 Q1357.6563,271.2109 1357.0313,271.2109 Q1355.6875,271.2109 1355,272.2813 Q1354.3125,273.3516 1354.3125,275.4453 Q1354.3125,277.5391 1355,278.6094 Q1355.6875,279.6797 1357.0313,279.6797 Q1357.6563,279.6797 1358.25,279.4063 Q1358.8438,279.1328 1359.4688,278.5547 L1359.4688,281.2734 Z " fill="#000000"/><text fill="#000000" font-family="sans-serif" font-size="12" font-style="italic" lengthAdjust="spacing" textLength="194" x="1423" y="271.6387">«dogen::handcrafted::typeable»</text><text fill="#000000" font-family="sans-serif" font-size="14" lengthAdjust="spacing" textLength="299" x="1370.5" y="287.4639">codec_model_to_logical_model_transform</text><line style="stroke:#181818;stroke-width:0.5;" x1="1342.5" x2="1671.5" y1="295.7656" y2="295.7656"/><line style="stroke:#181818;stroke-width:0.5;" x1="1342.5" x2="1671.5" y1="303.7656" y2="303.7656"/></g><!--MD5=[3349c57b78445577727b3822a4fefab7]
class transforms::codec_model_set_to_logical_input_model_set_chain--><g id="elem_transforms::codec_model_set_to_logical_input_model_set_chain"><rect codeLine="40" fill="#FFFACD" height="56.2656" id="transforms::codec_model_set_to_logical_input_model_set_chain" rx="2.5" ry="2.5" style="stroke:#181818;stroke-width:0.5;" width="399" x="1707.5" y="255.5"/><ellipse cx="1722.5" cy="275.6328" fill="#ADD1B2" rx="11" ry="11" style="stroke:#181818;stroke-width:1.0;"/><path d="M1725.4688,281.2734 Q1724.8906,281.5703 1724.25,281.7188 Q1723.6094,281.8672 1722.9063,281.8672 Q1720.4063,281.8672 1719.0859,280.2188 Q1717.7656,278.5703 1717.7656,275.4453 Q1717.7656,272.3203 1719.0859,270.6641 Q1720.4063,269.0078 1722.9063,269.0078 Q1723.6094,269.0078 1724.2578,269.1641 Q1724.9063,269.3203 1725.4688,269.6172 L1725.4688,272.3359 Q1724.8438,271.7578 1724.25,271.4844 Q1723.6563,271.2109 1723.0313,271.2109 Q1721.6875,271.2109 1721,272.2813 Q1720.3125,273.3516 1720.3125,275.4453 Q1720.3125,277.5391 1721,278.6094 Q1721.6875,279.6797 1723.0313,279.6797 Q1723.6563,279.6797 1724.25,279.4063 Q1724.8438,279.1328 1725.4688,278.5547 L1725.4688,281.2734 Z " fill="#000000"/><text fill="#000000" font-family="sans-serif" font-size="12" font-style="italic" lengthAdjust="spacing" textLength="194" x="1823" y="271.6387">«dogen::handcrafted::typeable»</text><text fill="#000000" font-family="sans-serif" font-size="14" lengthAdjust="spacing" textLength="367" x="1736.5" y="287.4639">codec_model_set_to_logical_input_model_set_chain</text><line style="stroke:#181818;stroke-width:0.5;" x1="1708.5" x2="2105.5" y1="295.7656" y2="295.7656"/><line style="stroke:#181818;stroke-width:0.5;" x1="1708.5" x2="2105.5" y1="303.7656" y2="303.7656"/></g><!--MD5=[ef3167ee797df11ac37929e83accd40c]
class transforms::transform_exception--><g id="elem_transforms::transform_exception"><rect codeLine="43" fill="#E8C2F8" height="56.2656" id="transforms::transform_exception" rx="2.5" ry="2.5" style="stroke:#181818;stroke-width:0.5;" width="179" x="2141.5" y="255.5"/><ellipse cx="2156.5" cy="275.6328" fill="#ADD1B2" rx="11" ry="11" style="stroke:#181818;stroke-width:1.0;"/><path d="M2159.4688,281.2734 Q2158.8906,281.5703 2158.25,281.7188 Q2157.6094,281.8672 2156.9063,281.8672 Q2154.4063,281.8672 2153.0859,280.2188 Q2151.7656,278.5703 2151.7656,275.4453 Q2151.7656,272.3203 2153.0859,270.6641 Q2154.4063,269.0078 2156.9063,269.0078 Q2157.6094,269.0078 2158.2578,269.1641 Q2158.9063,269.3203 2159.4688,269.6172 L2159.4688,272.3359 Q2158.8438,271.7578 2158.25,271.4844 Q2157.6563,271.2109 2157.0313,271.2109 Q2155.6875,271.2109 2155,272.2813 Q2154.3125,273.3516 2154.3125,275.4453 Q2154.3125,277.5391 2155,278.6094 Q2155.6875,279.6797 2157.0313,279.6797 Q2157.6563,279.6797 2158.25,279.4063 Q2158.8438,279.1328 2159.4688,278.5547 L2159.4688,281.2734 Z " fill="#000000"/><text fill="#000000" font-family="sans-serif" font-size="12" font-style="italic" lengthAdjust="spacing" textLength="114" x="2187" y="271.6387">«masd::exception»</text><text fill="#000000" font-family="sans-serif" font-size="14" lengthAdjust="spacing" textLength="147" x="2170.5" y="287.4639">transform_exception</text><line style="stroke:#181818;stroke-width:0.5;" x1="2142.5" x2="2319.5" y1="295.7656" y2="295.7656"/><line style="stroke:#181818;stroke-width:0.5;" x1="2142.5" x2="2319.5" y1="303.7656" y2="303.7656"/></g><!--MD5=[40744775a33b12540643c7e868edb0c0]
class transforms::logical_model_to_text_model_chain--><g id="elem_transforms::logical_model_to_text_model_chain"><rect codeLine="46" fill="#FFFACD" height="56.2656" id="transforms::logical_model_to_text_model_chain" rx="2.5" ry="2.5" style="stroke:#181818;stroke-width:0.5;" width="284" x="2356" y="255.5"/><ellipse cx="2371" cy="275.6328" fill="#ADD1B2" rx="11" ry="11" style="stroke:#181818;stroke-width:1.0;"/><path d="M2373.9688,281.2734 Q2373.3906,281.5703 2372.75,281.7188 Q2372.1094,281.8672 2371.4063,281.8672 Q2368.9063,281.8672 2367.5859,280.2188 Q2366.2656,278.5703 2366.2656,275.4453 Q2366.2656,272.3203 2367.5859,270.6641 Q2368.9063,269.0078 2371.4063,269.0078 Q2372.1094,269.0078 2372.7578,269.1641 Q2373.4063,269.3203 2373.9688,269.6172 L2373.9688,272.3359 Q2373.3438,271.7578 2372.75,271.4844 Q2372.1563,271.2109 2371.5313,271.2109 Q2370.1875,271.2109 2369.5,272.2813 Q2368.8125,273.3516 2368.8125,275.4453 Q2368.8125,277.5391 2369.5,278.6094 Q2370.1875,279.6797 2371.5313,279.6797 Q2372.1563,279.6797 2372.75,279.4063 Q2373.3438,279.1328 2373.9688,278.5547 L2373.9688,281.2734 Z " fill="#000000"/><text fill="#000000" font-family="sans-serif" font-size="12" font-style="italic" lengthAdjust="spacing" textLength="194" x="2414" y="271.6387">«dogen::handcrafted::typeable»</text><text fill="#000000" font-family="sans-serif" font-size="14" lengthAdjust="spacing" textLength="252" x="2385" y="287.4639">logical_model_to_text_model_chain</text><line style="stroke:#181818;stroke-width:0.5;" x1="2357" x2="2639" y1="295.7656" y2="295.7656"/><line style="stroke:#181818;stroke-width:0.5;" x1="2357" x2="2639" y1="303.7656" y2="303.7656"/></g><!--MD5=[527beef9524e9d04e8a1fc23844778d1]
class transforms::physical_model_production_chain--><g id="elem_transforms::physical_model_production_chain"><rect codeLine="49" fill="#FFFACD" height="56.2656" id="transforms::physical_model_production_chain" rx="2.5" ry="2.5" style="stroke:#181818;stroke-width:0.5;" width="272" x="1371" y="388"/><ellipse cx="1386" cy="408.1328" fill="#ADD1B2" rx="11" ry="11" style="stroke:#181818;stroke-width:1.0;"/><path d="M1388.9688,413.7734 Q1388.3906,414.0703 1387.75,414.2188 Q1387.1094,414.3672 1386.4063,414.3672 Q1383.9063,414.3672 1382.5859,412.7188 Q1381.2656,411.0703 1381.2656,407.9453 Q1381.2656,404.8203 1382.5859,403.1641 Q1383.9063,401.5078 1386.4063,401.5078 Q1387.1094,401.5078 1387.7578,401.6641 Q1388.4063,401.8203 1388.9688,402.1172 L1388.9688,404.8359 Q1388.3438,404.2578 1387.75,403.9844 Q1387.1563,403.7109 1386.5313,403.7109 Q1385.1875,403.7109 1384.5,404.7813 Q1383.8125,405.8516 1383.8125,407.9453 Q1383.8125,410.0391 1384.5,411.1094 Q1385.1875,412.1797 1386.5313,412.1797 Q1387.1563,412.1797 1387.75,411.9063 Q1388.3438,411.6328 1388.9688,411.0547 L1388.9688,413.7734 Z " fill="#000000"/><text fill="#000000" font-family="sans-serif" font-size="12" font-style="italic" lengthAdjust="spacing" textLength="194" x="1423" y="404.1387">«dogen::handcrafted::typeable»</text><text fill="#000000" font-family="sans-serif" font-size="14" lengthAdjust="spacing" textLength="240" x="1400" y="419.9639">physical_model_production_chain</text><line style="stroke:#181818;stroke-width:0.5;" x1="1372" x2="1642" y1="428.2656" y2="428.2656"/><line style="stroke:#181818;stroke-width:0.5;" x1="1372" x2="1642" y1="436.2656" y2="436.2656"/></g><!--MD5=[7111a907453c47402c9a316f7c4b7134]
class transforms::text_model_to_physical_model_transform--><g id="elem_transforms::text_model_to_physical_model_transform"><rect codeLine="52" fill="#FFFACD" height="56.2656" id="transforms::text_model_to_physical_model_transform" rx="2.5" ry="2.5" style="stroke:#181818;stroke-width:0.5;" width="326" x="1678" y="388"/><ellipse cx="1693" cy="408.1328" fill="#ADD1B2" rx="11" ry="11" style="stroke:#181818;stroke-width:1.0;"/><path d="M1695.9688,413.7734 Q1695.3906,414.0703 1694.75,414.2188 Q1694.1094,414.3672 1693.4063,414.3672 Q1690.9063,414.3672 1689.5859,412.7188 Q1688.2656,411.0703 1688.2656,407.9453 Q1688.2656,404.8203 1689.5859,403.1641 Q1690.9063,401.5078 1693.4063,401.5078 Q1694.1094,401.5078 1694.7578,401.6641 Q1695.4063,401.8203 1695.9688,402.1172 L1695.9688,404.8359 Q1695.3438,404.2578 1694.75,403.9844 Q1694.1563,403.7109 1693.5313,403.7109 Q1692.1875,403.7109 1691.5,404.7813 Q1690.8125,405.8516 1690.8125,407.9453 Q1690.8125,410.0391 1691.5,411.1094 Q1692.1875,412.1797 1693.5313,412.1797 Q1694.1563,412.1797 1694.75,411.9063 Q1695.3438,411.6328 1695.9688,411.0547 L1695.9688,413.7734 Z " fill="#000000"/><text fill="#000000" font-family="sans-serif" font-size="12" font-style="italic" lengthAdjust="spacing" textLength="194" x="1757" y="404.1387">«dogen::handcrafted::typeable»</text><text fill="#000000" font-family="sans-serif" font-size="14" lengthAdjust="spacing" textLength="294" x="1707" y="419.9639">text_model_to_physical_model_transform</text><line style="stroke:#181818;stroke-width:0.5;" x1="1679" x2="2003" y1="428.2656" y2="428.2656"/><line style="stroke:#181818;stroke-width:0.5;" x1="1679" x2="2003" y1="436.2656" y2="436.2656"/></g><!--MD5=[060e804f644b9d564bc41ceef1138bf0]
class transforms::context_bootstrapping_chain--><g id="elem_transforms::context_bootstrapping_chain"><rect codeLine="55" fill="#FFFACD" height="56.2656" id="transforms::context_bootstrapping_chain" rx="2.5" ry="2.5" style="stroke:#181818;stroke-width:0.5;" width="237" x="2039.5" y="388"/><ellipse cx="2054.5" cy="408.1328" fill="#ADD1B2" rx="11" ry="11" style="stroke:#181818;stroke-width:1.0;"/><path d="M2057.4688,413.7734 Q2056.8906,414.0703 2056.25,414.2188 Q2055.6094,414.3672 2054.9063,414.3672 Q2052.4063,414.3672 2051.0859,412.7188 Q2049.7656,411.0703 2049.7656,407.9453 Q2049.7656,404.8203 2051.0859,403.1641 Q2052.4063,401.5078 2054.9063,401.5078 Q2055.6094,401.5078 2056.2578,401.6641 Q2056.9063,401.8203 2057.4688,402.1172 L2057.4688,404.8359 Q2056.8438,404.2578 2056.25,403.9844 Q2055.6563,403.7109 2055.0313,403.7109 Q2053.6875,403.7109 2053,404.7813 Q2052.3125,405.8516 2052.3125,407.9453 Q2052.3125,410.0391 2053,411.1094 Q2053.6875,412.1797 2055.0313,412.1797 Q2055.6563,412.1797 2056.25,411.9063 Q2056.8438,411.6328 2057.4688,411.0547 L2057.4688,413.7734 Z " fill="#000000"/><text fill="#000000" font-family="sans-serif" font-size="12" font-style="italic" lengthAdjust="spacing" textLength="194" x="2074" y="404.1387">«dogen::handcrafted::typeable»</text><text fill="#000000" font-family="sans-serif" font-size="14" lengthAdjust="spacing" textLength="205" x="2068.5" y="419.9639">context_bootstrapping_chain</text><line style="stroke:#181818;stroke-width:0.5;" x1="2040.5" x2="2275.5" y1="428.2656" y2="428.2656"/><line style="stroke:#181818;stroke-width:0.5;" x1="2040.5" x2="2275.5" y1="436.2656" y2="436.2656"/></g><!--MD5=[07c2fc5feb8f806d7949937d79f46cc8]
class transforms::text_model_production_chain--><g id="elem_transforms::text_model_production_chain"><rect codeLine="58" fill="#FFFACD" height="56.2656" id="transforms::text_model_production_chain" rx="2.5" ry="2.5" style="stroke:#181818;stroke-width:0.5;" width="241" x="2311.5" y="388"/><ellipse cx="2326.5" cy="408.1328" fill="#ADD1B2" rx="11" ry="11" style="stroke:#181818;stroke-width:1.0;"/><path d="M2329.4688,413.7734 Q2328.8906,414.0703 2328.25,414.2188 Q2327.6094,414.3672 2326.9063,414.3672 Q2324.4063,414.3672 2323.0859,412.7188 Q2321.7656,411.0703 2321.7656,407.9453 Q2321.7656,404.8203 2323.0859,403.1641 Q2324.4063,401.5078 2326.9063,401.5078 Q2327.6094,401.5078 2328.2578,401.6641 Q2328.9063,401.8203 2329.4688,402.1172 L2329.4688,404.8359 Q2328.8438,404.2578 2328.25,403.9844 Q2327.6563,403.7109 2327.0313,403.7109 Q2325.6875,403.7109 2325,404.7813 Q2324.3125,405.8516 2324.3125,407.9453 Q2324.3125,410.0391 2325,411.1094 Q2325.6875,412.1797 2327.0313,412.1797 Q2327.6563,412.1797 2328.25,411.9063 Q2328.8438,411.6328 2329.4688,411.0547 L2329.4688,413.7734 Z " fill="#000000"/><text fill="#000000" font-family="sans-serif" font-size="12" font-style="italic" lengthAdjust="spacing" textLength="194" x="2348" y="404.1387">«dogen::handcrafted::typeable»</text><text fill="#000000" font-family="sans-serif" font-size="14" lengthAdjust="spacing" textLength="209" x="2340.5" y="419.9639">text_model_production_chain</text><line style="stroke:#181818;stroke-width:0.5;" x1="2312.5" x2="2551.5" y1="428.2656" y2="428.2656"/><line style="stroke:#181818;stroke-width:0.5;" x1="2312.5" x2="2551.5" y1="436.2656" y2="436.2656"/></g><!--MD5=[872738f9b292f9cf434fe1d2d51378d6]
class transforms::legacy_dependencies_transform--><g id="elem_transforms::legacy_dependencies_transform"><rect codeLine="61" fill="#FFFACD" height="56.2656" id="transforms::legacy_dependencies_transform" rx="2.5" ry="2.5" style="stroke:#181818;stroke-width:0.5;" width="263" x="1375.5" y="504"/><ellipse cx="1390.5" cy="524.1328" fill="#ADD1B2" rx="11" ry="11" style="stroke:#181818;stroke-width:1.0;"/><path d="M1393.4688,529.7734 Q1392.8906,530.0703 1392.25,530.2188 Q1391.6094,530.3672 1390.9063,530.3672 Q1388.4063,530.3672 1387.0859,528.7188 Q1385.7656,527.0703 1385.7656,523.9453 Q1385.7656,520.8203 1387.0859,519.1641 Q1388.4063,517.5078 1390.9063,517.5078 Q1391.6094,517.5078 1392.2578,517.6641 Q1392.9063,517.8203 1393.4688,518.1172 L1393.4688,520.8359 Q1392.8438,520.2578 1392.25,519.9844 Q1391.6563,519.7109 1391.0313,519.7109 Q1389.6875,519.7109 1389,520.7813 Q1388.3125,521.8516 1388.3125,523.9453 Q1388.3125,526.0391 1389,527.1094 Q1389.6875,528.1797 1391.0313,528.1797 Q1391.6563,528.1797 1392.25,527.9063 Q1392.8438,527.6328 1393.4688,527.0547 L1393.4688,529.7734 Z " fill="#000000"/><text fill="#000000" font-family="sans-serif" font-size="12" font-style="italic" lengthAdjust="spacing" textLength="194" x="1423" y="520.1387">«dogen::handcrafted::typeable»</text><text fill="#000000" font-family="sans-serif" font-size="14" lengthAdjust="spacing" textLength="231" x="1404.5" y="535.9639">legacy_dependencies_transform</text><line style="stroke:#181818;stroke-width:0.5;" x1="1376.5" x2="1637.5" y1="544.2656" y2="544.2656"/><line style="stroke:#181818;stroke-width:0.5;" x1="1376.5" x2="1637.5" y1="552.2656" y2="552.2656"/></g><!--MD5=[583d1399401bb90033abbd440ffb1c6f]
class transforms::physical_to_logical_population_transform--><g id="elem_transforms::physical_to_logical_population_transform"><rect codeLine="64" fill="#FFFACD" height="56.2656" id="transforms::physical_to_logical_population_transform" rx="2.5" ry="2.5" style="stroke:#181818;stroke-width:0.5;" width="325" x="1673.5" y="504"/><ellipse cx="1688.5" cy="524.1328" fill="#ADD1B2" rx="11" ry="11" style="stroke:#181818;stroke-width:1.0;"/><path d="M1691.4688,529.7734 Q1690.8906,530.0703 1690.25,530.2188 Q1689.6094,530.3672 1688.9063,530.3672 Q1686.4063,530.3672 1685.0859,528.7188 Q1683.7656,527.0703 1683.7656,523.9453 Q1683.7656,520.8203 1685.0859,519.1641 Q1686.4063,517.5078 1688.9063,517.5078 Q1689.6094,517.5078 1690.2578,517.6641 Q1690.9063,517.8203 1691.4688,518.1172 L1691.4688,520.8359 Q1690.8438,520.2578 1690.25,519.9844 Q1689.6563,519.7109 1689.0313,519.7109 Q1687.6875,519.7109 1687,520.7813 Q1686.3125,521.8516 1686.3125,523.9453 Q1686.3125,526.0391 1687,527.1094 Q1687.6875,528.1797 1689.0313,528.1797 Q1689.6563,528.1797 1690.25,527.9063 Q1690.8438,527.6328 1691.4688,527.0547 L1691.4688,529.7734 Z " fill="#000000"/><text fill="#000000" font-family="sans-serif" font-size="12" font-style="italic" lengthAdjust="spacing" textLength="194" x="1752" y="520.1387">«dogen::handcrafted::typeable»</text><text fill="#000000" font-family="sans-serif" font-size="14" lengthAdjust="spacing" textLength="293" x="1702.5" y="535.9639">physical_to_logical_population_transform</text><line style="stroke:#181818;stroke-width:0.5;" x1="1674.5" x2="1997.5" y1="544.2656" y2="544.2656"/><line style="stroke:#181818;stroke-width:0.5;" x1="1674.5" x2="1997.5" y1="552.2656" y2="552.2656"/></g><!--MD5=[82399552af723106d578725633ff828f]
class transforms::elements_removal_transform--><g id="elem_transforms::elements_removal_transform"><rect codeLine="67" fill="#FFFACD" height="56.2656" id="transforms::elements_removal_transform" rx="2.5" ry="2.5" style="stroke:#181818;stroke-width:0.5;" width="241" x="2033.5" y="504"/><ellipse cx="2048.5" cy="524.1328" fill="#ADD1B2" rx="11" ry="11" style="stroke:#181818;stroke-width:1.0;"/><path d="M2051.4688,529.7734 Q2050.8906,530.0703 2050.25,530.2188 Q2049.6094,530.3672 2048.9063,530.3672 Q2046.4063,530.3672 2045.0859,528.7188 Q2043.7656,527.0703 2043.7656,523.9453 Q2043.7656,520.8203 2045.0859,519.1641 Q2046.4063,517.5078 2048.9063,517.5078 Q2049.6094,517.5078 2050.2578,517.6641 Q2050.9063,517.8203 2051.4688,518.1172 L2051.4688,520.8359 Q2050.8438,520.2578 2050.25,519.9844 Q2049.6563,519.7109 2049.0313,519.7109 Q2047.6875,519.7109 2047,520.7813 Q2046.3125,521.8516 2046.3125,523.9453 Q2046.3125,526.0391 2047,527.1094 Q2047.6875,528.1797 2049.0313,528.1797 Q2049.6563,528.1797 2050.25,527.9063 Q2050.8438,527.6328 2051.4688,527.0547 L2051.4688,529.7734 Z " fill="#000000"/><text fill="#000000" font-family="sans-serif" font-size="12" font-style="italic" lengthAdjust="spacing" textLength="194" x="2070" y="520.1387">«dogen::handcrafted::typeable»</text><text fill="#000000" font-family="sans-serif" font-size="14" lengthAdjust="spacing" textLength="209" x="2062.5" y="535.9639">elements_removal_transform</text><line style="stroke:#181818;stroke-width:0.5;" x1="2034.5" x2="2273.5" y1="544.2656" y2="544.2656"/><line style="stroke:#181818;stroke-width:0.5;" x1="2034.5" x2="2273.5" y1="552.2656" y2="552.2656"/></g><g id="elem_helpers::helpers_1"><path d="M3233.5,97.5 L3233.5,122.6328 L3490.5,122.6328 L3490.5,107.5 L3480.5,97.5 L3233.5,97.5 " fill="#FEFFDD" style="stroke:#181818;stroke-width:0.5;"/><path d="M3480.5,97.5 L3480.5,107.5 L3490.5,107.5 L3480.5,97.5 " fill="#FEFFDD" style="stroke:#181818;stroke-width:1.0;"/><text fill="#000000" font-family="sans-serif" font-size="13" lengthAdjust="spacing" textLength="236" x="3239.5" y="114.5669">Helpers for the orchestration model.</text></g><!--MD5=[92b77629bd55dfee0d8df9f5cdda9d7d]
class helpers::codec_to_logical_projector--><g id="elem_helpers::codec_to_logical_projector"><rect codeLine="83" fill="#FFFACD" height="56.2656" id="helpers::codec_to_logical_projector" rx="2.5" ry="2.5" style="stroke:#181818;stroke-width:0.5;" width="222" x="3526" y="82"/><ellipse cx="3541" cy="102.1328" fill="#ADD1B2" rx="11" ry="11" style="stroke:#181818;stroke-width:1.0;"/><path d="M3543.9688,107.7734 Q3543.3906,108.0703 3542.75,108.2188 Q3542.1094,108.3672 3541.4063,108.3672 Q3538.9063,108.3672 3537.5859,106.7188 Q3536.2656,105.0703 3536.2656,101.9453 Q3536.2656,98.8203 3537.5859,97.1641 Q3538.9063,95.5078 3541.4063,95.5078 Q3542.1094,95.5078 3542.7578,95.6641 Q3543.4063,95.8203 3543.9688,96.1172 L3543.9688,98.8359 Q3543.3438,98.2578 3542.75,97.9844 Q3542.1563,97.7109 3541.5313,97.7109 Q3540.1875,97.7109 3539.5,98.7813 Q3538.8125,99.8516 3538.8125,101.9453 Q3538.8125,104.0391 3539.5,105.1094 Q3540.1875,106.1797 3541.5313,106.1797 Q3542.1563,106.1797 3542.75,105.9063 Q3543.3438,105.6328 3543.9688,105.0547 L3543.9688,107.7734 Z " fill="#000000"/><text fill="#000000" font-family="sans-serif" font-size="12" font-style="italic" lengthAdjust="spacing" textLength="194" x="3553" y="98.1387">«dogen::handcrafted::typeable»</text><text fill="#000000" font-family="sans-serif" font-size="14" lengthAdjust="spacing" textLength="190" x="3555" y="113.9639">codec_to_logical_projector</text><line style="stroke:#181818;stroke-width:0.5;" x1="3527" x2="3747" y1="122.2656" y2="122.2656"/><line style="stroke:#181818;stroke-width:0.5;" x1="3527" x2="3747" y1="130.2656" y2="130.2656"/></g><!--MD5=[133afa2a9525c2d786c3c4a43a456542]
class helpers::logical_to_physical_projector--><g id="elem_helpers::logical_to_physical_projector"><rect codeLine="86" fill="#FFFACD" height="56.2656" id="helpers::logical_to_physical_projector" rx="2.5" ry="2.5" style="stroke:#181818;stroke-width:0.5;" width="237" x="3783.5" y="82"/><ellipse cx="3798.5" cy="102.1328" fill="#ADD1B2" rx="11" ry="11" style="stroke:#181818;stroke-width:1.0;"/><path d="M3801.4688,107.7734 Q3800.8906,108.0703 3800.25,108.2188 Q3799.6094,108.3672 3798.9063,108.3672 Q3796.4063,108.3672 3795.0859,106.7188 Q3793.7656,105.0703 3793.7656,101.9453 Q3793.7656,98.8203 3795.0859,97.1641 Q3796.4063,95.5078 3798.9063,95.5078 Q3799.6094,95.5078 3800.2578,95.6641 Q3800.9063,95.8203 3801.4688,96.1172 L3801.4688,98.8359 Q3800.8438,98.2578 3800.25,97.9844 Q3799.6563,97.7109 3799.0313,97.7109 Q3797.6875,97.7109 3797,98.7813 Q3796.3125,99.8516 3796.3125,101.9453 Q3796.3125,104.0391 3797,105.1094 Q3797.6875,106.1797 3799.0313,106.1797 Q3799.6563,106.1797 3800.25,105.9063 Q3800.8438,105.6328 3801.4688,105.0547 L3801.4688,107.7734 Z " fill="#000000"/><text fill="#000000" font-family="sans-serif" font-size="12" font-style="italic" lengthAdjust="spacing" textLength="194" x="3818" y="98.1387">«dogen::handcrafted::typeable»</text><text fill="#000000" font-family="sans-serif" font-size="14" lengthAdjust="spacing" textLength="205" x="3812.5" y="113.9639">logical_to_physical_projector</text><line style="stroke:#181818;stroke-width:0.5;" x1="3784.5" x2="4019.5" y1="122.2656" y2="122.2656"/><line style="stroke:#181818;stroke-width:0.5;" x1="3784.5" x2="4019.5" y1="130.2656" y2="130.2656"/></g><!--MD5=[d01b10de00c0a436a76d2778d5e50983]
class helpers::projection_error--><g id="elem_helpers::projection_error"><rect codeLine="89" fill="#E8C2F8" height="56.2656" id="helpers::projection_error" rx="2.5" ry="2.5" style="stroke:#181818;stroke-width:0.5;" width="147" x="2873.5" y="255.5"/><ellipse cx="2888.5" cy="275.6328" fill="#ADD1B2" rx="11" ry="11" style="stroke:#181818;stroke-width:1.0;"/><path d="M2891.4688,281.2734 Q2890.8906,281.5703 2890.25,281.7188 Q2889.6094,281.8672 2888.9063,281.8672 Q2886.4063,281.8672 2885.0859,280.2188 Q2883.7656,278.5703 2883.7656,275.4453 Q2883.7656,272.3203 2885.0859,270.6641 Q2886.4063,269.0078 2888.9063,269.0078 Q2889.6094,269.0078 2890.2578,269.1641 Q2890.9063,269.3203 2891.4688,269.6172 L2891.4688,272.3359 Q2890.8438,271.7578 2890.25,271.4844 Q2889.6563,271.2109 2889.0313,271.2109 Q2887.6875,271.2109 2887,272.2813 Q2886.3125,273.3516 2886.3125,275.4453 Q2886.3125,277.5391 2887,278.6094 Q2887.6875,279.6797 2889.0313,279.6797 Q2889.6563,279.6797 2890.25,279.4063 Q2890.8438,279.1328 2891.4688,278.5547 L2891.4688,281.2734 Z " fill="#000000"/><text fill="#000000" font-family="sans-serif" font-size="12" font-style="italic" lengthAdjust="spacing" textLength="114" x="2903" y="271.6387">«masd::exception»</text><text fill="#000000" font-family="sans-serif" font-size="14" lengthAdjust="spacing" textLength="115" x="2902.5" y="287.4639">projection_error</text><line style="stroke:#181818;stroke-width:0.5;" x1="2874.5" x2="3019.5" y1="295.7656" y2="295.7656"/><line style="stroke:#181818;stroke-width:0.5;" x1="2874.5" x2="3019.5" y1="303.7656" y2="303.7656"/></g><g id="elem_helpers::GMN30"><path d="M2696,97.5 L2696,122.6328 A0,0 0 0 0 2696,122.6328 L2943,122.6328 L2947,255.4 L2951,122.6328 L3198,122.6328 A0,0 0 0 0 3198,122.6328 L3198,107.5 L3188,97.5 L2696,97.5 A0,0 0 0 0 2696,97.5 " fill="#FEFFDD" style="stroke:#181818;stroke-width:0.5;"/><path d="M3188,97.5 L3188,107.5 L3198,107.5 L3188,97.5 " fill="#FEFFDD" style="stroke:#181818;stroke-width:0.5;"/><text fill="#000000" font-family="sans-serif" font-size="13" lengthAdjust="spacing" textLength="481" x="2702" y="114.5669">An error occurred whilst projecting elements from one space into another.</text></g><!--MD5=[cea5031ae87c74002eae456e394668e6]
class helpers::dependencies_builder--><g id="elem_helpers::dependencies_builder"><rect codeLine="96" fill="#FFFACD" height="56.2656" id="helpers::dependencies_builder" rx="2.5" ry="2.5" style="stroke:#181818;stroke-width:0.5;" width="222" x="3251" y="255.5"/><ellipse cx="3266" cy="275.6328" fill="#ADD1B2" rx="11" ry="11" style="stroke:#181818;stroke-width:1.0;"/><path d="M3268.9688,281.2734 Q3268.3906,281.5703 3267.75,281.7188 Q3267.1094,281.8672 3266.4063,281.8672 Q3263.9063,281.8672 3262.5859,280.2188 Q3261.2656,278.5703 3261.2656,275.4453 Q3261.2656,272.3203 3262.5859,270.6641 Q3263.9063,269.0078 3266.4063,269.0078 Q3267.1094,269.0078 3267.7578,269.1641 Q3268.4063,269.3203 3268.9688,269.6172 L3268.9688,272.3359 Q3268.3438,271.7578 3267.75,271.4844 Q3267.1563,271.2109 3266.5313,271.2109 Q3265.1875,271.2109 3264.5,272.2813 Q3263.8125,273.3516 3263.8125,275.4453 Q3263.8125,277.5391 3264.5,278.6094 Q3265.1875,279.6797 3266.5313,279.6797 Q3267.1563,279.6797 3267.75,279.4063 Q3268.3438,279.1328 3268.9688,278.5547 L3268.9688,281.2734 Z " fill="#000000"/><text fill="#000000" font-family="sans-serif" font-size="12" font-style="italic" lengthAdjust="spacing" textLength="194" x="3278" y="271.6387">«dogen::handcrafted::typeable»</text><text fill="#000000" font-family="sans-serif" font-size="14" lengthAdjust="spacing" textLength="157" x="3296.5" y="287.4639">dependencies_builder</text><line style="stroke:#181818;stroke-width:0.5;" x1="3252" x2="3472" y1="295.7656" y2="295.7656"/><line style="stroke:#181818;stroke-width:0.5;" x1="3252" x2="3472" y1="303.7656" y2="303.7656"/></g><!--MD5=[6fd13f622b1e010fae07eaa86c0895f5]
class helpers::building_error--><g id="elem_helpers::building_error"><rect codeLine="99" fill="#E8C2F8" height="56.2656" id="helpers::building_error" rx="2.5" ry="2.5" style="stroke:#181818;stroke-width:0.5;" width="142" x="3508" y="255.5"/><ellipse cx="3523" cy="275.6328" fill="#ADD1B2" rx="11" ry="11" style="stroke:#181818;stroke-width:1.0;"/><path d="M3525.9688,281.2734 Q3525.3906,281.5703 3524.75,281.7188 Q3524.1094,281.8672 3523.4063,281.8672 Q3520.9063,281.8672 3519.5859,280.2188 Q3518.2656,278.5703 3518.2656,275.4453 Q3518.2656,272.3203 3519.5859,270.6641 Q3520.9063,269.0078 3523.4063,269.0078 Q3524.1094,269.0078 3524.7578,269.1641 Q3525.4063,269.3203 3525.9688,269.6172 L3525.9688,272.3359 Q3525.3438,271.7578 3524.75,271.4844 Q3524.1563,271.2109 3523.5313,271.2109 Q3522.1875,271.2109 3521.5,272.2813 Q3520.8125,273.3516 3520.8125,275.4453 Q3520.8125,277.5391 3521.5,278.6094 Q3522.1875,279.6797 3523.5313,279.6797 Q3524.1563,279.6797 3524.75,279.4063 Q3525.3438,279.1328 3525.9688,278.5547 L3525.9688,281.2734 Z " fill="#000000"/><text fill="#000000" font-family="sans-serif" font-size="12" font-style="italic" lengthAdjust="spacing" textLength="114" x="3535" y="271.6387">«masd::exception»</text><text fill="#000000" font-family="sans-serif" font-size="14" lengthAdjust="spacing" textLength="100" x="3542" y="287.4639">building_error</text><line style="stroke:#181818;stroke-width:0.5;" x1="3509" x2="3649" y1="295.7656" y2="295.7656"/><line style="stroke:#181818;stroke-width:0.5;" x1="3509" x2="3649" y1="303.7656" y2="303.7656"/></g><g id="elem_features::features_1"><path d="M4695.5,97.5 L4695.5,122.6328 L4958.5,122.6328 L4958.5,107.5 L4948.5,97.5 L4695.5,97.5 " fill="#FEFFDD" style="stroke:#181818;stroke-width:0.5;"/><path d="M4948.5,97.5 L4948.5,107.5 L4958.5,107.5 L4948.5,97.5 " fill="#FEFFDD" style="stroke:#181818;stroke-width:1.0;"/><text fill="#000000" font-family="sans-serif" font-size="13" lengthAdjust="spacing" textLength="242" x="4701.5" y="114.5669">Features for the orchestration model.</text></g><!--MD5=[27da765e9111347023128ab7be8dd5bd]
class features::model_location--><g id="elem_features::model_location"><rect codeLine="109" fill="#BAD7D7" height="88.8594" id="features::model_location" rx="2.5" ry="2.5" style="stroke:#181818;stroke-width:0.5;" width="313" x="4330.5" y="239"/><ellipse cx="4378.75" cy="259.1328" fill="#ADD1B2" rx="11" ry="11" style="stroke:#181818;stroke-width:1.0;"/><path d="M4381.7188,264.7734 Q4381.1406,265.0703 4380.5,265.2188 Q4379.8594,265.3672 4379.1563,265.3672 Q4376.6563,265.3672 4375.3359,263.7188 Q4374.0156,262.0703 4374.0156,258.9453 Q4374.0156,255.8203 4375.3359,254.1641 Q4376.6563,252.5078 4379.1563,252.5078 Q4379.8594,252.5078 4380.5078,252.6641 Q4381.1563,252.8203 4381.7188,253.1172 L4381.7188,255.8359 Q4381.0938,255.2578 4380.5,254.9844 Q4379.9063,254.7109 4379.2813,254.7109 Q4377.9375,254.7109 4377.25,255.7813 Q4376.5625,256.8516 4376.5625,258.9453 Q4376.5625,261.0391 4377.25,262.1094 Q4377.9375,263.1797 4379.2813,263.1797 Q4379.9063,263.1797 4380.5,262.9063 Q4381.0938,262.6328 4381.7188,262.0547 L4381.7188,264.7734 Z " fill="#000000"/><text fill="#000000" font-family="sans-serif" font-size="12" font-style="italic" lengthAdjust="spacing" textLength="212" x="4397.25" y="255.1387">«masd::variability::feature_bundle»</text><text fill="#000000" font-family="sans-serif" font-size="14" lengthAdjust="spacing" textLength="109" x="4448.75" y="270.9639">model_location</text><line style="stroke:#181818;stroke-width:0.5;" x1="4331.5" x2="4642.5" y1="279.2656" y2="279.2656"/><ellipse cx="4341.5" cy="290.2656" fill="none" rx="3" ry="3" style="stroke:#038048;stroke-width:1.0;"/><text fill="#000000" font-family="sans-serif" font-size="14" lengthAdjust="spacing" textLength="287" x="4350.5" y="296.2607">external_modules masd::variability::text</text><ellipse cx="4341.5" cy="306.5625" fill="none" rx="3" ry="3" style="stroke:#038048;stroke-width:1.0;"/><text fill="#000000" font-family="sans-serif" font-size="14" lengthAdjust="spacing" textLength="273" x="4350.5" y="312.5576">model_modules masd::variability::text</text><line style="stroke:#181818;stroke-width:0.5;" x1="4331.5" x2="4642.5" y1="319.8594" y2="319.8594"/></g><g id="elem_features::GMN38"><path d="M4314,97.5 L4314,122.6328 A0,0 0 0 0 4314,122.6328 L4483,122.6328 L4487,238.69 L4491,122.6328 L4660,122.6328 A0,0 0 0 0 4660,122.6328 L4660,107.5 L4650,97.5 L4314,97.5 A0,0 0 0 0 4314,97.5 " fill="#FEFFDD" style="stroke:#181818;stroke-width:0.5;"/><path d="M4650,97.5 L4650,107.5 L4660,107.5 L4650,97.5 " fill="#FEFFDD" style="stroke:#181818;stroke-width:0.5;"/><text fill="#000000" font-family="sans-serif" font-size="13" lengthAdjust="spacing" textLength="325" x="4320" y="114.5669">Feature group for model location related features.</text></g><!--MD5=[f92b0da6b1af7bae6fc1fe89a12449e8]
class features::initializer--><g id="elem_features::initializer"><rect codeLine="118" fill="#A9CDCD" height="56.2656" id="features::initializer" rx="2.5" ry="2.5" style="stroke:#181818;stroke-width:0.5;" width="202" x="4077" y="82"/><ellipse cx="4092" cy="102.1328" fill="#ADD1B2" rx="11" ry="11" style="stroke:#181818;stroke-width:1.0;"/><path d="M4094.9688,107.7734 Q4094.3906,108.0703 4093.75,108.2188 Q4093.1094,108.3672 4092.4063,108.3672 Q4089.9063,108.3672 4088.5859,106.7188 Q4087.2656,105.0703 4087.2656,101.9453 Q4087.2656,98.8203 4088.5859,97.1641 Q4089.9063,95.5078 4092.4063,95.5078 Q4093.1094,95.5078 4093.7578,95.6641 Q4094.4063,95.8203 4094.9688,96.1172 L4094.9688,98.8359 Q4094.3438,98.2578 4093.75,97.9844 Q4093.1563,97.7109 4092.5313,97.7109 Q4091.1875,97.7109 4090.5,98.7813 Q4089.8125,99.8516 4089.8125,101.9453 Q4089.8125,104.0391 4090.5,105.1094 Q4091.1875,106.1797 4092.5313,106.1797 Q4093.1563,106.1797 4093.75,105.9063 Q4094.3438,105.6328 4094.9688,105.0547 L4094.9688,107.7734 Z " fill="#000000"/><text fill="#000000" font-family="sans-serif" font-size="12" font-style="italic" lengthAdjust="spacing" textLength="174" x="4104" y="98.1387">«masd::variability::initializer»</text><text fill="#000000" font-family="sans-serif" font-size="14" lengthAdjust="spacing" textLength="65" x="4158.5" y="113.9639">initializer</text><line style="stroke:#181818;stroke-width:0.5;" x1="4078" x2="4278" y1="122.2656" y2="122.2656"/><line style="stroke:#181818;stroke-width:0.5;" x1="4078" x2="4278" y1="130.2656" y2="130.2656"/></g><g id="elem_N1"><path d="M6,67 L6,152.6641 L466,152.6641 L466,77 L456,67 L6,67 " fill="#FEFFDD" style="stroke:#181818;stroke-width:0.5;"/><path d="M456,67 L456,77 L466,77 L456,67 " fill="#FEFFDD" style="stroke:#181818;stroke-width:1.0;"/><text fill="#000000" font-family="sans-serif" font-size="13" lengthAdjust="spacing" textLength="402" x="12" y="84.0669">Orchestration-based imlementation of the Dogen product API.</text><text fill="#000000" font-family="sans-serif" font-size="13" lengthAdjust="spacing" textLength="4" x="12" y="99.1997"> </text><text fill="#000000" font-family="sans-serif" font-size="13" lengthAdjust="spacing" textLength="131" x="12" y="114.3325">UML representation:</text><text fill="#000000" font-family="sans-serif" font-size="13" lengthAdjust="spacing" textLength="4" x="12" y="129.4653"> </text><text fill="#000000" font-family="sans-serif" font-size="13" lengthAdjust="spacing" textLength="439" x="12" y="144.5981">\image html dogen.orchestration/modeling/dogen.orchestration.svg</text></g><!--MD5=[dd71179583cce17ecb14726d47c32e81]
class generator--><g id="elem_generator"><rect codeLine="72" fill="#FFFACD" height="56.2656" id="generator" rx="2.5" ry="2.5" style="stroke:#181818;stroke-width:0.5;" width="222" x="501" y="82"/><ellipse cx="516" cy="102.1328" fill="#ADD1B2" rx="11" ry="11" style="stroke:#181818;stroke-width:1.0;"/><path d="M518.9688,107.7734 Q518.3906,108.0703 517.75,108.2188 Q517.1094,108.3672 516.4063,108.3672 Q513.9063,108.3672 512.5859,106.7188 Q511.2656,105.0703 511.2656,101.9453 Q511.2656,98.8203 512.5859,97.1641 Q513.9063,95.5078 516.4063,95.5078 Q517.1094,95.5078 517.7578,95.6641 Q518.4063,95.8203 518.9688,96.1172 L518.9688,98.8359 Q518.3438,98.2578 517.75,97.9844 Q517.1563,97.7109 516.5313,97.7109 Q515.1875,97.7109 514.5,98.7813 Q513.8125,99.8516 513.8125,101.9453 Q513.8125,104.0391 514.5,105.1094 Q515.1875,106.1797 516.5313,106.1797 Q517.1563,106.1797 517.75,105.9063 Q518.3438,105.6328 518.9688,105.0547 L518.9688,107.7734 Z " fill="#000000"/><text fill="#000000" font-family="sans-serif" font-size="12" font-style="italic" lengthAdjust="spacing" textLength="194" x="528" y="98.1387">«dogen::handcrafted::typeable»</text><text fill="#000000" font-family="sans-serif" font-size="14" lengthAdjust="spacing" textLength="71" x="589.5" y="113.9639">generator</text><line style="stroke:#181818;stroke-width:0.5;" x1="502" x2="722" y1="122.2656" y2="122.2656"/><line style="stroke:#181818;stroke-width:0.5;" x1="502" x2="722" y1="130.2656" y2="130.2656"/></g><!--MD5=[28d2d70932dfaa0fc9ca4145a3e35f21]
class converter--><g id="elem_converter"><rect codeLine="75" fill="#FFFACD" height="56.2656" id="converter" rx="2.5" ry="2.5" style="stroke:#181818;stroke-width:0.5;" width="222" x="758" y="82"/><ellipse cx="773" cy="102.1328" fill="#ADD1B2" rx="11" ry="11" style="stroke:#181818;stroke-width:1.0;"/><path d="M775.9688,107.7734 Q775.3906,108.0703 774.75,108.2188 Q774.1094,108.3672 773.4063,108.3672 Q770.9063,108.3672 769.5859,106.7188 Q768.2656,105.0703 768.2656,101.9453 Q768.2656,98.8203 769.5859,97.1641 Q770.9063,95.5078 773.4063,95.5078 Q774.1094,95.5078 774.7578,95.6641 Q775.4063,95.8203 775.9688,96.1172 L775.9688,98.8359 Q775.3438,98.2578 774.75,97.9844 Q774.1563,97.7109 773.5313,97.7109 Q772.1875,97.7109 771.5,98.7813 Q770.8125,99.8516 770.8125,101.9453 Q770.8125,104.0391 771.5,105.1094 Q772.1875,106.1797 773.5313,106.1797 Q774.1563,106.1797 774.75,105.9063 Q775.3438,105.6328 775.9688,105.0547 L775.9688,107.7734 Z " fill="#000000"/><text fill="#000000" font-family="sans-serif" font-size="12" font-style="italic" lengthAdjust="spacing" textLength="194" x="785" y="98.1387">«dogen::handcrafted::typeable»</text><text fill="#000000" font-family="sans-serif" font-size="14" lengthAdjust="spacing" textLength="69" x="847.5" y="113.9639">converter</text><line style="stroke:#181818;stroke-width:0.5;" x1="759" x2="979" y1="122.2656" y2="122.2656"/><line style="stroke:#181818;stroke-width:0.5;" x1="759" x2="979" y1="130.2656" y2="130.2656"/></g><!--MD5=[4520fda4e10d4d791ce48fe025810cd4]
class main--><g id="elem_main"><rect codeLine="123" fill="#DDA9F3" height="56.2656" id="main" rx="2.5" ry="2.5" style="stroke:#181818;stroke-width:0.5;" width="267" x="102.5" y="255.5"/><ellipse cx="117.5" cy="275.6328" fill="#ADD1B2" rx="11" ry="11" style="stroke:#181818;stroke-width:1.0;"/><path d="M120.4688,281.2734 Q119.8906,281.5703 119.25,281.7188 Q118.6094,281.8672 117.9063,281.8672 Q115.4063,281.8672 114.0859,280.2188 Q112.7656,278.5703 112.7656,275.4453 Q112.7656,272.3203 114.0859,270.6641 Q115.4063,269.0078 117.9063,269.0078 Q118.6094,269.0078 119.2578,269.1641 Q119.9063,269.3203 120.4688,269.6172 L120.4688,272.3359 Q119.8438,271.7578 119.25,271.4844 Q118.6563,271.2109 118.0313,271.2109 Q116.6875,271.2109 116,272.2813 Q115.3125,273.3516 115.3125,275.4453 Q115.3125,277.5391 116,278.6094 Q116.6875,279.6797 118.0313,279.6797 Q118.6563,279.6797 119.25,279.4063 Q119.8438,279.1328 120.4688,278.5547 L120.4688,281.2734 Z " fill="#000000"/><text fill="#000000" font-family="sans-serif" font-size="12" font-style="italic" lengthAdjust="spacing" textLength="239" x="129.5" y="271.6387">«masd::entry_point, dogen::untypable»</text><text fill="#000000" font-family="sans-serif" font-size="14" lengthAdjust="spacing" textLength="36" x="231" y="287.4639">main</text><line style="stroke:#181818;stroke-width:0.5;" x1="103.5" x2="368.5" y1="295.7656" y2="295.7656"/><line style="stroke:#181818;stroke-width:0.5;" x1="103.5" x2="368.5" y1="303.7656" y2="303.7656"/></g><!--MD5=[ba83386d426114557685538e96aa6f68]
class CMakeLists--><g id="elem_CMakeLists"><rect codeLine="126" fill="#99CB99" height="56.2656" id="CMakeLists" rx="2.5" ry="2.5" style="stroke:#181818;stroke-width:0.5;" width="360" x="405" y="255.5"/><ellipse cx="420" cy="275.6328" fill="#ADD1B2" rx="11" ry="11" style="stroke:#181818;stroke-width:1.0;"/><path d="M422.9688,281.2734 Q422.3906,281.5703 421.75,281.7188 Q421.1094,281.8672 420.4063,281.8672 Q417.9063,281.8672 416.5859,280.2188 Q415.2656,278.5703 415.2656,275.4453 Q415.2656,272.3203 416.5859,270.6641 Q417.9063,269.0078 420.4063,269.0078 Q421.1094,269.0078 421.7578,269.1641 Q422.4063,269.3203 422.9688,269.6172 L422.9688,272.3359 Q422.3438,271.7578 421.75,271.4844 Q421.1563,271.2109 420.5313,271.2109 Q419.1875,271.2109 418.5,272.2813 Q417.8125,273.3516 417.8125,275.4453 Q417.8125,277.5391 418.5,278.6094 Q419.1875,279.6797 420.5313,279.6797 Q421.1563,279.6797 421.75,279.4063 Q422.3438,279.1328 422.9688,278.5547 L422.9688,281.2734 Z " fill="#000000"/><text fill="#000000" font-family="sans-serif" font-size="12" font-style="italic" lengthAdjust="spacing" textLength="332" x="432" y="271.6387">«masd::build::cmakelists, dogen::handcrafted::cmake»</text><text fill="#000000" font-family="sans-serif" font-size="14" lengthAdjust="spacing" textLength="79" x="558.5" y="287.4639">CMakeLists</text><line style="stroke:#181818;stroke-width:0.5;" x1="406" x2="764" y1="295.7656" y2="295.7656"/><line style="stroke:#181818;stroke-width:0.5;" x1="406" x2="764" y1="303.7656" y2="303.7656"/></g><!--MD5=[3e3a516ce6d06244972b43908f48245e]
class spec_dumper--><g id="elem_spec_dumper"><rect codeLine="129" fill="#FFFACD" height="56.2656" id="spec_dumper" rx="2.5" ry="2.5" style="stroke:#181818;stroke-width:0.5;" width="222" x="800" y="255.5"/><ellipse cx="815" cy="275.6328" fill="#ADD1B2" rx="11" ry="11" style="stroke:#181818;stroke-width:1.0;"/><path d="M817.9688,281.2734 Q817.3906,281.5703 816.75,281.7188 Q816.1094,281.8672 815.4063,281.8672 Q812.9063,281.8672 811.5859,280.2188 Q810.2656,278.5703 810.2656,275.4453 Q810.2656,272.3203 811.5859,270.6641 Q812.9063,269.0078 815.4063,269.0078 Q816.1094,269.0078 816.7578,269.1641 Q817.4063,269.3203 817.9688,269.6172 L817.9688,272.3359 Q817.3438,271.7578 816.75,271.4844 Q816.1563,271.2109 815.5313,271.2109 Q814.1875,271.2109 813.5,272.2813 Q812.8125,273.3516 812.8125,275.4453 Q812.8125,277.5391 813.5,278.6094 Q814.1875,279.6797 815.5313,279.6797 Q816.1563,279.6797 816.75,279.4063 Q817.3438,279.1328 817.9688,278.5547 L817.9688,281.2734 Z " fill="#000000"/><text fill="#000000" font-family="sans-serif" font-size="12" font-style="italic" lengthAdjust="spacing" textLength="194" x="827" y="271.6387">«dogen::handcrafted::typeable»</text><text fill="#000000" font-family="sans-serif" font-size="14" lengthAdjust="spacing" textLength="96" x="876" y="287.4639">spec_dumper</text><line style="stroke:#181818;stroke-width:0.5;" x1="801" x2="1021" y1="295.7656" y2="295.7656"/><line style="stroke:#181818;stroke-width:0.5;" x1="801" x2="1021" y1="303.7656" y2="303.7656"/></g><!--MD5=[d54e5852ecfe164bbba509d3a9352ed8]
class initializer--><g id="elem_initializer"><rect codeLine="132" fill="#FFFACD" height="56.2656" id="initializer" rx="2.5" ry="2.5" style="stroke:#181818;stroke-width:0.5;" width="222" x="125" y="388"/><ellipse cx="140" cy="408.1328" fill="#ADD1B2" rx="11" ry="11" style="stroke:#181818;stroke-width:1.0;"/><path d="M142.9688,413.7734 Q142.3906,414.0703 141.75,414.2188 Q141.1094,414.3672 140.4063,414.3672 Q137.9063,414.3672 136.5859,412.7188 Q135.2656,411.0703 135.2656,407.9453 Q135.2656,404.8203 136.5859,403.1641 Q137.9063,401.5078 140.4063,401.5078 Q141.1094,401.5078 141.7578,401.6641 Q142.4063,401.8203 142.9688,402.1172 L142.9688,404.8359 Q142.3438,404.2578 141.75,403.9844 Q141.1563,403.7109 140.5313,403.7109 Q139.1875,403.7109 138.5,404.7813 Q137.8125,405.8516 137.8125,407.9453 Q137.8125,410.0391 138.5,411.1094 Q139.1875,412.1797 140.5313,412.1797 Q141.1563,412.1797 141.75,411.9063 Q142.3438,411.6328 142.9688,411.0547 L142.9688,413.7734 Z " fill="#000000"/><text fill="#000000" font-family="sans-serif" font-size="12" font-style="italic" lengthAdjust="spacing" textLength="194" x="152" y="404.1387">«dogen::handcrafted::typeable»</text><text fill="#000000" font-family="sans-serif" font-size="14" lengthAdjust="spacing" textLength="65" x="216.5" y="419.9639">initializer</text><line style="stroke:#181818;stroke-width:0.5;" x1="126" x2="346" y1="428.2656" y2="428.2656"/><line style="stroke:#181818;stroke-width:0.5;" x1="126" x2="346" y1="436.2656" y2="436.2656"/></g><!--MD5=[501086ac46f1cab30083a894052ac3a3]
link N1 to generator--></g></svg>