<?xml version="1.0" encoding="UTF-8" standalone="no"?><svg xmlns="http://www.w3.org/2000/svg" xmlns:xlink="http://www.w3.org/1999/xlink" contentStyleType="text/css" height="709px" preserveAspectRatio="none" style="width:4687px;height:709px;background:#FFFFFF;" version="1.1" viewBox="0 0 4687 709" width="4687px" zoomAndPan="magnify"><defs/><g><!--MD5=[e8c14457c5ec3409b346b9ce068df3a0]
cluster transforms--><g id="cluster_transforms"><path d="M1166.5,116 L1254.5,116 A3.75,3.75 0 0 1 1257,118.5 L1264,138.2969 L2848.5,138.2969 A2.5,2.5 0 0 1 2851,140.7969 L2851,699.5 A2.5,2.5 0 0 1 2848.5,702 L1166.5,702 A2.5,2.5 0 0 1 1164,699.5 L1164,118.5 A2.5,2.5 0 0 1 1166.5,116 " fill="#F2F2F2" style="stroke:#000000;stroke-width:1.5;"/><line style="stroke:#000000;stroke-width:1.5;" x1="1164" x2="1264" y1="138.2969" y2="138.2969"/><text fill="#000000" font-family="sans-serif" font-size="14" font-weight="bold" lengthAdjust="spacing" textLength="87" x="1168" y="130.9951">transforms</text></g><!--MD5=[9b2039c9cbc9b36eebe6e360cb295121]
cluster helpers--><g id="cluster_helpers"><path d="M2893.5,157 L2954.5,157 A3.75,3.75 0 0 1 2957,159.5 L2964,179.2969 L3987.5,179.2969 A2.5,2.5 0 0 1 3990,181.7969 L3990,451 A2.5,2.5 0 0 1 3987.5,453.5 L2893.5,453.5 A2.5,2.5 0 0 1 2891,451 L2891,159.5 A2.5,2.5 0 0 1 2893.5,157 " fill="#F2F2F2" style="stroke:#000000;stroke-width:1.5;"/><line style="stroke:#000000;stroke-width:1.5;" x1="2891" x2="2964" y1="179.2969" y2="179.2969"/><text fill="#000000" font-family="sans-serif" font-size="14" font-weight="bold" lengthAdjust="spacing" textLength="60" x="2895" y="171.9951">helpers</text></g><!--MD5=[71d025891867de53c6fbdf206ea2c55d]
cluster features--><g id="cluster_features"><path d="M4032.5,157 L4100.5,157 A3.75,3.75 0 0 1 4103,159.5 L4110,179.2969 L4677.5,179.2969 A2.5,2.5 0 0 1 4680,181.7969 L4680,467.5 A2.5,2.5 0 0 1 4677.5,470 L4032.5,470 A2.5,2.5 0 0 1 4030,467.5 L4030,159.5 A2.5,2.5 0 0 1 4032.5,157 " fill="#F2F2F2" style="stroke:#000000;stroke-width:1.5;"/><line style="stroke:#000000;stroke-width:1.5;" x1="4030" x2="4110" y1="179.2969" y2="179.2969"/><text fill="#000000" font-family="sans-serif" font-size="14" font-weight="bold" lengthAdjust="spacing" textLength="67" x="4034" y="171.9951">features</text></g><!--MD5=[abd65484e0f49489c62d799c9536589f]
class transforms::code_generation_chain--><g id="elem_transforms::code_generation_chain"><rect codeLine="11" fill="#FFFACD" height="56.2656" id="transforms::code_generation_chain" rx="2.5" ry="2.5" style="stroke:#181818;stroke-width:0.5;" width="222" x="1566" y="200"/><ellipse cx="1581" cy="220.1328" fill="#ADD1B2" rx="11" ry="11" style="stroke:#181818;stroke-width:1.0;"/><path d="M1583.9688,225.7734 Q1583.3906,226.0703 1582.75,226.2188 Q1582.1094,226.3672 1581.4063,226.3672 Q1578.9063,226.3672 1577.5859,224.7188 Q1576.2656,223.0703 1576.2656,219.9453 Q1576.2656,216.8203 1577.5859,215.1641 Q1578.9063,213.5078 1581.4063,213.5078 Q1582.1094,213.5078 1582.7578,213.6641 Q1583.4063,213.8203 1583.9688,214.1172 L1583.9688,216.8359 Q1583.3438,216.2578 1582.75,215.9844 Q1582.1563,215.7109 1581.5313,215.7109 Q1580.1875,215.7109 1579.5,216.7813 Q1578.8125,217.8516 1578.8125,219.9453 Q1578.8125,222.0391 1579.5,223.1094 Q1580.1875,224.1797 1581.5313,224.1797 Q1582.1563,224.1797 1582.75,223.9063 Q1583.3438,223.6328 1583.9688,223.0547 L1583.9688,225.7734 Z " fill="#000000"/><text fill="#000000" font-family="sans-serif" font-size="12" font-style="italic" lengthAdjust="spacing" textLength="194" x="1593" y="216.1387">«dogen::handcrafted::typeable»</text><text fill="#000000" font-family="sans-serif" font-size="14" lengthAdjust="spacing" textLength="166" x="1607" y="231.9639">code_generation_chain</text><line style="stroke:#181818;stroke-width:0.5;" x1="1567" x2="1787" y1="240.2656" y2="240.2656"/><line style="stroke:#181818;stroke-width:0.5;" x1="1567" x2="1787" y1="248.2656" y2="248.2656"/></g><!--MD5=[133f4cfbb2bb2891c2a6c3694af0bb4e]
class transforms::context--><g id="elem_transforms::context"><rect codeLine="14" fill="#F7E5FF" height="137.75" id="transforms::context" rx="2.5" ry="2.5" style="stroke:#181818;stroke-width:0.5;" width="380" x="1823" y="159"/><ellipse cx="1879.25" cy="179.1328" fill="#ADD1B2" rx="11" ry="11" style="stroke:#181818;stroke-width:1.0;"/><path d="M1882.2188,184.7734 Q1881.6406,185.0703 1881,185.2188 Q1880.3594,185.3672 1879.6563,185.3672 Q1877.1563,185.3672 1875.8359,183.7188 Q1874.5156,182.0703 1874.5156,178.9453 Q1874.5156,175.8203 1875.8359,174.1641 Q1877.1563,172.5078 1879.6563,172.5078 Q1880.3594,172.5078 1881.0078,172.6641 Q1881.6563,172.8203 1882.2188,173.1172 L1882.2188,175.8359 Q1881.5938,175.2578 1881,174.9844 Q1880.4063,174.7109 1879.7813,174.7109 Q1878.4375,174.7109 1877.75,175.7813 Q1877.0625,176.8516 1877.0625,178.9453 Q1877.0625,181.0391 1877.75,182.1094 Q1878.4375,183.1797 1879.7813,183.1797 Q1880.4063,183.1797 1881,182.9063 Q1881.5938,182.6328 1882.2188,182.0547 L1882.2188,184.7734 Z " fill="#000000"/><text fill="#000000" font-family="sans-serif" font-size="12" font-style="italic" lengthAdjust="spacing" textLength="263" x="1897.75" y="175.1387">«dogen::typeable, dogen::pretty_printable»</text><text fill="#000000" font-family="sans-serif" font-size="14" lengthAdjust="spacing" textLength="53" x="2002.75" y="190.9639">context</text><line style="stroke:#181818;stroke-width:0.5;" x1="1824" x2="2202" y1="199.2656" y2="199.2656"/><ellipse cx="1834" cy="210.2656" fill="none" rx="3" ry="3" style="stroke:#038048;stroke-width:1.0;"/><text fill="#000000" font-family="sans-serif" font-size="14" lengthAdjust="spacing" textLength="354" x="1843" y="216.2607">variability_context variability::transforms::context</text><ellipse cx="1834" cy="226.5625" fill="none" rx="3" ry="3" style="stroke:#038048;stroke-width:1.0;"/><text fill="#000000" font-family="sans-serif" font-size="14" lengthAdjust="spacing" textLength="300" x="1843" y="232.5576">codec_context codec::transforms::context</text><ellipse cx="1834" cy="242.8594" fill="none" rx="3" ry="3" style="stroke:#038048;stroke-width:1.0;"/><text fill="#000000" font-family="sans-serif" font-size="14" lengthAdjust="spacing" textLength="308" x="1843" y="248.8545">logical_context logical::transforms::context</text><ellipse cx="1834" cy="259.1563" fill="none" rx="3" ry="3" style="stroke:#038048;stroke-width:1.0;"/><text fill="#000000" font-family="sans-serif" font-size="14" lengthAdjust="spacing" textLength="268" x="1843" y="265.1514">text_context text::transforms::context</text><ellipse cx="1834" cy="275.4531" fill="none" rx="3" ry="3" style="stroke:#038048;stroke-width:1.0;"/><text fill="#000000" font-family="sans-serif" font-size="14" lengthAdjust="spacing" textLength="330" x="1843" y="281.4482">physical_context physical::transforms::context</text><line style="stroke:#181818;stroke-width:0.5;" x1="1824" x2="2202" y1="288.75" y2="288.75"/></g><!--MD5=[11ecefc52d11f3391c9e5a2aa946cf90]
class transforms::context_factory--><g id="elem_transforms::context_factory"><rect codeLine="22" fill="#FFFACD" height="56.2656" id="transforms::context_factory" rx="2.5" ry="2.5" style="stroke:#181818;stroke-width:0.5;" width="222" x="2238" y="200"/><ellipse cx="2253" cy="220.1328" fill="#ADD1B2" rx="11" ry="11" style="stroke:#181818;stroke-width:1.0;"/><path d="M2255.9688,225.7734 Q2255.3906,226.0703 2254.75,226.2188 Q2254.1094,226.3672 2253.4063,226.3672 Q2250.9063,226.3672 2249.5859,224.7188 Q2248.2656,223.0703 2248.2656,219.9453 Q2248.2656,216.8203 2249.5859,215.1641 Q2250.9063,213.5078 2253.4063,213.5078 Q2254.1094,213.5078 2254.7578,213.6641 Q2255.4063,213.8203 2255.9688,214.1172 L2255.9688,216.8359 Q2255.3438,216.2578 2254.75,215.9844 Q2254.1563,215.7109 2253.5313,215.7109 Q2252.1875,215.7109 2251.5,216.7813 Q2250.8125,217.8516 2250.8125,219.9453 Q2250.8125,222.0391 2251.5,223.1094 Q2252.1875,224.1797 2253.5313,224.1797 Q2254.1563,224.1797 2254.75,223.9063 Q2255.3438,223.6328 2255.9688,223.0547 L2255.9688,225.7734 Z " fill="#000000"/><text fill="#000000" font-family="sans-serif" font-size="12" font-style="italic" lengthAdjust="spacing" textLength="194" x="2265" y="216.1387">«dogen::handcrafted::typeable»</text><text fill="#000000" font-family="sans-serif" font-size="14" lengthAdjust="spacing" textLength="110" x="2307" y="231.9639">context_factory</text><line style="stroke:#181818;stroke-width:0.5;" x1="2239" x2="2459" y1="240.2656" y2="240.2656"/><line style="stroke:#181818;stroke-width:0.5;" x1="2239" x2="2459" y1="248.2656" y2="248.2656"/></g><!--MD5=[fbdfb4afbf33e4319841469d1d7db4da]
class transforms::factory_exception--><g id="elem_transforms::factory_exception"><rect codeLine="25" fill="#E8C2F8" height="56.2656" id="transforms::factory_exception" rx="2.5" ry="2.5" style="stroke:#181818;stroke-width:0.5;" width="159" x="1286.5" y="373.5"/><ellipse cx="1301.5" cy="393.6328" fill="#ADD1B2" rx="11" ry="11" style="stroke:#181818;stroke-width:1.0;"/><path d="M1304.4688,399.2734 Q1303.8906,399.5703 1303.25,399.7188 Q1302.6094,399.8672 1301.9063,399.8672 Q1299.4063,399.8672 1298.0859,398.2188 Q1296.7656,396.5703 1296.7656,393.4453 Q1296.7656,390.3203 1298.0859,388.6641 Q1299.4063,387.0078 1301.9063,387.0078 Q1302.6094,387.0078 1303.2578,387.1641 Q1303.9063,387.3203 1304.4688,387.6172 L1304.4688,390.3359 Q1303.8438,389.7578 1303.25,389.4844 Q1302.6563,389.2109 1302.0313,389.2109 Q1300.6875,389.2109 1300,390.2813 Q1299.3125,391.3516 1299.3125,393.4453 Q1299.3125,395.5391 1300,396.6094 Q1300.6875,397.6797 1302.0313,397.6797 Q1302.6563,397.6797 1303.25,397.4063 Q1303.8438,397.1328 1304.4688,396.5547 L1304.4688,399.2734 Z " fill="#000000"/><text fill="#000000" font-family="sans-serif" font-size="12" font-style="italic" lengthAdjust="spacing" textLength="114" x="1322" y="389.6387">«masd::exception»</text><text fill="#000000" font-family="sans-serif" font-size="14" lengthAdjust="spacing" textLength="127" x="1315.5" y="405.4639">factory_exception</text><line style="stroke:#181818;stroke-width:0.5;" x1="1287.5" x2="1444.5" y1="413.7656" y2="413.7656"/><line style="stroke:#181818;stroke-width:0.5;" x1="1287.5" x2="1444.5" y1="421.7656" y2="421.7656"/></g><g id="elem_transforms::GMN8"><path d="M1207,215.5 L1207,240.6328 A0,0 0 0 0 1207,240.6328 L1364.8,240.6328 L1366.47,373.4 L1372.8,240.6328 L1531,240.6328 A0,0 0 0 0 1531,240.6328 L1531,225.5 L1521,215.5 L1207,215.5 A0,0 0 0 0 1207,215.5 " fill="#FEFFDD" style="stroke:#181818;stroke-width:0.5;"/><path d="M1521,215.5 L1521,225.5 L1531,225.5 L1521,215.5 " fill="#FEFFDD" style="stroke:#181818;stroke-width:0.5;"/><text fill="#000000" font-family="sans-serif" font-size="13" lengthAdjust="spacing" textLength="303" x="1213" y="232.5669">An error occurred in the factory whilst making.</text></g><!--MD5=[5c53f1f127d3f861dbdc2986fc803482]
class transforms::codec_model_to_logical_model_transform--><g id="elem_transforms::codec_model_to_logical_model_transform"><rect codeLine="32" fill="#FFFACD" height="56.2656" id="transforms::codec_model_to_logical_model_transform" rx="2.5" ry="2.5" style="stroke:#181818;stroke-width:0.5;" width="331" x="2495.5" y="200"/><ellipse cx="2510.5" cy="220.1328" fill="#ADD1B2" rx="11" ry="11" style="stroke:#181818;stroke-width:1.0;"/><path d="M2513.4688,225.7734 Q2512.8906,226.0703 2512.25,226.2188 Q2511.6094,226.3672 2510.9063,226.3672 Q2508.4063,226.3672 2507.0859,224.7188 Q2505.7656,223.0703 2505.7656,219.9453 Q2505.7656,216.8203 2507.0859,215.1641 Q2508.4063,213.5078 2510.9063,213.5078 Q2511.6094,213.5078 2512.2578,213.6641 Q2512.9063,213.8203 2513.4688,214.1172 L2513.4688,216.8359 Q2512.8438,216.2578 2512.25,215.9844 Q2511.6563,215.7109 2511.0313,215.7109 Q2509.6875,215.7109 2509,216.7813 Q2508.3125,217.8516 2508.3125,219.9453 Q2508.3125,222.0391 2509,223.1094 Q2509.6875,224.1797 2511.0313,224.1797 Q2511.6563,224.1797 2512.25,223.9063 Q2512.8438,223.6328 2513.4688,223.0547 L2513.4688,225.7734 Z " fill="#000000"/><text fill="#000000" font-family="sans-serif" font-size="12" font-style="italic" lengthAdjust="spacing" textLength="194" x="2577" y="216.1387">«dogen::handcrafted::typeable»</text><text fill="#000000" font-family="sans-serif" font-size="14" lengthAdjust="spacing" textLength="299" x="2524.5" y="231.9639">codec_model_to_logical_model_transform</text><line style="stroke:#181818;stroke-width:0.5;" x1="2496.5" x2="2825.5" y1="240.2656" y2="240.2656"/><line style="stroke:#181818;stroke-width:0.5;" x1="2496.5" x2="2825.5" y1="248.2656" y2="248.2656"/></g><!--MD5=[3349c57b78445577727b3822a4fefab7]
class transforms::codec_model_set_to_logical_input_model_set_chain--><g id="elem_transforms::codec_model_set_to_logical_input_model_set_chain"><rect codeLine="35" fill="#FFFACD" height="56.2656" id="transforms::codec_model_set_to_logical_input_model_set_chain" rx="2.5" ry="2.5" style="stroke:#181818;stroke-width:0.5;" width="399" x="1480.5" y="373.5"/><ellipse cx="1495.5" cy="393.6328" fill="#ADD1B2" rx="11" ry="11" style="stroke:#181818;stroke-width:1.0;"/><path d="M1498.4688,399.2734 Q1497.8906,399.5703 1497.25,399.7188 Q1496.6094,399.8672 1495.9063,399.8672 Q1493.4063,399.8672 1492.0859,398.2188 Q1490.7656,396.5703 1490.7656,393.4453 Q1490.7656,390.3203 1492.0859,388.6641 Q1493.4063,387.0078 1495.9063,387.0078 Q1496.6094,387.0078 1497.2578,387.1641 Q1497.9063,387.3203 1498.4688,387.6172 L1498.4688,390.3359 Q1497.8438,389.7578 1497.25,389.4844 Q1496.6563,389.2109 1496.0313,389.2109 Q1494.6875,389.2109 1494,390.2813 Q1493.3125,391.3516 1493.3125,393.4453 Q1493.3125,395.5391 1494,396.6094 Q1494.6875,397.6797 1496.0313,397.6797 Q1496.6563,397.6797 1497.25,397.4063 Q1497.8438,397.1328 1498.4688,396.5547 L1498.4688,399.2734 Z " fill="#000000"/><text fill="#000000" font-family="sans-serif" font-size="12" font-style="italic" lengthAdjust="spacing" textLength="194" x="1596" y="389.6387">«dogen::handcrafted::typeable»</text><text fill="#000000" font-family="sans-serif" font-size="14" lengthAdjust="spacing" textLength="367" x="1509.5" y="405.4639">codec_model_set_to_logical_input_model_set_chain</text><line style="stroke:#181818;stroke-width:0.5;" x1="1481.5" x2="1878.5" y1="413.7656" y2="413.7656"/><line style="stroke:#181818;stroke-width:0.5;" x1="1481.5" x2="1878.5" y1="421.7656" y2="421.7656"/></g><!--MD5=[ef3167ee797df11ac37929e83accd40c]
class transforms::transform_exception--><g id="elem_transforms::transform_exception"><rect codeLine="38" fill="#E8C2F8" height="56.2656" id="transforms::transform_exception" rx="2.5" ry="2.5" style="stroke:#181818;stroke-width:0.5;" width="179" x="1914.5" y="373.5"/><ellipse cx="1929.5" cy="393.6328" fill="#ADD1B2" rx="11" ry="11" style="stroke:#181818;stroke-width:1.0;"/><path d="M1932.4688,399.2734 Q1931.8906,399.5703 1931.25,399.7188 Q1930.6094,399.8672 1929.9063,399.8672 Q1927.4063,399.8672 1926.0859,398.2188 Q1924.7656,396.5703 1924.7656,393.4453 Q1924.7656,390.3203 1926.0859,388.6641 Q1927.4063,387.0078 1929.9063,387.0078 Q1930.6094,387.0078 1931.2578,387.1641 Q1931.9063,387.3203 1932.4688,387.6172 L1932.4688,390.3359 Q1931.8438,389.7578 1931.25,389.4844 Q1930.6563,389.2109 1930.0313,389.2109 Q1928.6875,389.2109 1928,390.2813 Q1927.3125,391.3516 1927.3125,393.4453 Q1927.3125,395.5391 1928,396.6094 Q1928.6875,397.6797 1930.0313,397.6797 Q1930.6563,397.6797 1931.25,397.4063 Q1931.8438,397.1328 1932.4688,396.5547 L1932.4688,399.2734 Z " fill="#000000"/><text fill="#000000" font-family="sans-serif" font-size="12" font-style="italic" lengthAdjust="spacing" textLength="114" x="1960" y="389.6387">«masd::exception»</text><text fill="#000000" font-family="sans-serif" font-size="14" lengthAdjust="spacing" textLength="147" x="1943.5" y="405.4639">transform_exception</text><line style="stroke:#181818;stroke-width:0.5;" x1="1915.5" x2="2092.5" y1="413.7656" y2="413.7656"/><line style="stroke:#181818;stroke-width:0.5;" x1="1915.5" x2="2092.5" y1="421.7656" y2="421.7656"/></g><!--MD5=[40744775a33b12540643c7e868edb0c0]
class transforms::logical_model_to_text_model_chain--><g id="elem_transforms::logical_model_to_text_model_chain"><rect codeLine="41" fill="#FFFACD" height="56.2656" id="transforms::logical_model_to_text_model_chain" rx="2.5" ry="2.5" style="stroke:#181818;stroke-width:0.5;" width="284" x="2129" y="373.5"/><ellipse cx="2144" cy="393.6328" fill="#ADD1B2" rx="11" ry="11" style="stroke:#181818;stroke-width:1.0;"/><path d="M2146.9688,399.2734 Q2146.3906,399.5703 2145.75,399.7188 Q2145.1094,399.8672 2144.4063,399.8672 Q2141.9063,399.8672 2140.5859,398.2188 Q2139.2656,396.5703 2139.2656,393.4453 Q2139.2656,390.3203 2140.5859,388.6641 Q2141.9063,387.0078 2144.4063,387.0078 Q2145.1094,387.0078 2145.7578,387.1641 Q2146.4063,387.3203 2146.9688,387.6172 L2146.9688,390.3359 Q2146.3438,389.7578 2145.75,389.4844 Q2145.1563,389.2109 2144.5313,389.2109 Q2143.1875,389.2109 2142.5,390.2813 Q2141.8125,391.3516 2141.8125,393.4453 Q2141.8125,395.5391 2142.5,396.6094 Q2143.1875,397.6797 2144.5313,397.6797 Q2145.1563,397.6797 2145.75,397.4063 Q2146.3438,397.1328 2146.9688,396.5547 L2146.9688,399.2734 Z " fill="#000000"/><text fill="#000000" font-family="sans-serif" font-size="12" font-style="italic" lengthAdjust="spacing" textLength="194" x="2187" y="389.6387">«dogen::handcrafted::typeable»</text><text fill="#000000" font-family="sans-serif" font-size="14" lengthAdjust="spacing" textLength="252" x="2158" y="405.4639">logical_model_to_text_model_chain</text><line style="stroke:#181818;stroke-width:0.5;" x1="2130" x2="2412" y1="413.7656" y2="413.7656"/><line style="stroke:#181818;stroke-width:0.5;" x1="2130" x2="2412" y1="421.7656" y2="421.7656"/></g><!--MD5=[527beef9524e9d04e8a1fc23844778d1]
class transforms::physical_model_production_chain--><g id="elem_transforms::physical_model_production_chain"><rect codeLine="44" fill="#FFFACD" height="56.2656" id="transforms::physical_model_production_chain" rx="2.5" ry="2.5" style="stroke:#181818;stroke-width:0.5;" width="272" x="2448" y="373.5"/><ellipse cx="2463" cy="393.6328" fill="#ADD1B2" rx="11" ry="11" style="stroke:#181818;stroke-width:1.0;"/><path d="M2465.9688,399.2734 Q2465.3906,399.5703 2464.75,399.7188 Q2464.1094,399.8672 2463.4063,399.8672 Q2460.9063,399.8672 2459.5859,398.2188 Q2458.2656,396.5703 2458.2656,393.4453 Q2458.2656,390.3203 2459.5859,388.6641 Q2460.9063,387.0078 2463.4063,387.0078 Q2464.1094,387.0078 2464.7578,387.1641 Q2465.4063,387.3203 2465.9688,387.6172 L2465.9688,390.3359 Q2465.3438,389.7578 2464.75,389.4844 Q2464.1563,389.2109 2463.5313,389.2109 Q2462.1875,389.2109 2461.5,390.2813 Q2460.8125,391.3516 2460.8125,393.4453 Q2460.8125,395.5391 2461.5,396.6094 Q2462.1875,397.6797 2463.5313,397.6797 Q2464.1563,397.6797 2464.75,397.4063 Q2465.3438,397.1328 2465.9688,396.5547 L2465.9688,399.2734 Z " fill="#000000"/><text fill="#000000" font-family="sans-serif" font-size="12" font-style="italic" lengthAdjust="spacing" textLength="194" x="2500" y="389.6387">«dogen::handcrafted::typeable»</text><text fill="#000000" font-family="sans-serif" font-size="14" lengthAdjust="spacing" textLength="240" x="2477" y="405.4639">physical_model_production_chain</text><line style="stroke:#181818;stroke-width:0.5;" x1="2449" x2="2719" y1="413.7656" y2="413.7656"/><line style="stroke:#181818;stroke-width:0.5;" x1="2449" x2="2719" y1="421.7656" y2="421.7656"/></g><!--MD5=[7111a907453c47402c9a316f7c4b7134]
class transforms::text_model_to_physical_model_transform--><g id="elem_transforms::text_model_to_physical_model_transform"><rect codeLine="47" fill="#FFFACD" height="56.2656" id="transforms::text_model_to_physical_model_transform" rx="2.5" ry="2.5" style="stroke:#181818;stroke-width:0.5;" width="326" x="1517" y="506"/><ellipse cx="1532" cy="526.1328" fill="#ADD1B2" rx="11" ry="11" style="stroke:#181818;stroke-width:1.0;"/><path d="M1534.9688,531.7734 Q1534.3906,532.0703 1533.75,532.2188 Q1533.1094,532.3672 1532.4063,532.3672 Q1529.9063,532.3672 1528.5859,530.7188 Q1527.2656,529.0703 1527.2656,525.9453 Q1527.2656,522.8203 1528.5859,521.1641 Q1529.9063,519.5078 1532.4063,519.5078 Q1533.1094,519.5078 1533.7578,519.6641 Q1534.4063,519.8203 1534.9688,520.1172 L1534.9688,522.8359 Q1534.3438,522.2578 1533.75,521.9844 Q1533.1563,521.7109 1532.5313,521.7109 Q1531.1875,521.7109 1530.5,522.7813 Q1529.8125,523.8516 1529.8125,525.9453 Q1529.8125,528.0391 1530.5,529.1094 Q1531.1875,530.1797 1532.5313,530.1797 Q1533.1563,530.1797 1533.75,529.9063 Q1534.3438,529.6328 1534.9688,529.0547 L1534.9688,531.7734 Z " fill="#000000"/><text fill="#000000" font-family="sans-serif" font-size="12" font-style="italic" lengthAdjust="spacing" textLength="194" x="1596" y="522.1387">«dogen::handcrafted::typeable»</text><text fill="#000000" font-family="sans-serif" font-size="14" lengthAdjust="spacing" textLength="294" x="1546" y="537.9639">text_model_to_physical_model_transform</text><line style="stroke:#181818;stroke-width:0.5;" x1="1518" x2="1842" y1="546.2656" y2="546.2656"/><line style="stroke:#181818;stroke-width:0.5;" x1="1518" x2="1842" y1="554.2656" y2="554.2656"/></g><!--MD5=[060e804f644b9d564bc41ceef1138bf0]
class transforms::context_bootstrapping_chain--><g id="elem_transforms::context_bootstrapping_chain"><rect codeLine="50" fill="#FFFACD" height="56.2656" id="transforms::context_bootstrapping_chain" rx="2.5" ry="2.5" style="stroke:#181818;stroke-width:0.5;" width="237" x="1878.5" y="506"/><ellipse cx="1893.5" cy="526.1328" fill="#ADD1B2" rx="11" ry="11" style="stroke:#181818;stroke-width:1.0;"/><path d="M1896.4688,531.7734 Q1895.8906,532.0703 1895.25,532.2188 Q1894.6094,532.3672 1893.9063,532.3672 Q1891.4063,532.3672 1890.0859,530.7188 Q1888.7656,529.0703 1888.7656,525.9453 Q1888.7656,522.8203 1890.0859,521.1641 Q1891.4063,519.5078 1893.9063,519.5078 Q1894.6094,519.5078 1895.2578,519.6641 Q1895.9063,519.8203 1896.4688,520.1172 L1896.4688,522.8359 Q1895.8438,522.2578 1895.25,521.9844 Q1894.6563,521.7109 1894.0313,521.7109 Q1892.6875,521.7109 1892,522.7813 Q1891.3125,523.8516 1891.3125,525.9453 Q1891.3125,528.0391 1892,529.1094 Q1892.6875,530.1797 1894.0313,530.1797 Q1894.6563,530.1797 1895.25,529.9063 Q1895.8438,529.6328 1896.4688,529.0547 L1896.4688,531.7734 Z " fill="#000000"/><text fill="#000000" font-family="sans-serif" font-size="12" font-style="italic" lengthAdjust="spacing" textLength="194" x="1913" y="522.1387">«dogen::handcrafted::typeable»</text><text fill="#000000" font-family="sans-serif" font-size="14" lengthAdjust="spacing" textLength="205" x="1907.5" y="537.9639">context_bootstrapping_chain</text><line style="stroke:#181818;stroke-width:0.5;" x1="1879.5" x2="2114.5" y1="546.2656" y2="546.2656"/><line style="stroke:#181818;stroke-width:0.5;" x1="1879.5" x2="2114.5" y1="554.2656" y2="554.2656"/></g><!--MD5=[07c2fc5feb8f806d7949937d79f46cc8]
class transforms::text_model_production_chain--><g id="elem_transforms::text_model_production_chain"><rect codeLine="53" fill="#FFFACD" height="56.2656" id="transforms::text_model_production_chain" rx="2.5" ry="2.5" style="stroke:#181818;stroke-width:0.5;" width="241" x="2150.5" y="506"/><ellipse cx="2165.5" cy="526.1328" fill="#ADD1B2" rx="11" ry="11" style="stroke:#181818;stroke-width:1.0;"/><path d="M2168.4688,531.7734 Q2167.8906,532.0703 2167.25,532.2188 Q2166.6094,532.3672 2165.9063,532.3672 Q2163.4063,532.3672 2162.0859,530.7188 Q2160.7656,529.0703 2160.7656,525.9453 Q2160.7656,522.8203 2162.0859,521.1641 Q2163.4063,519.5078 2165.9063,519.5078 Q2166.6094,519.5078 2167.2578,519.6641 Q2167.9063,519.8203 2168.4688,520.1172 L2168.4688,522.8359 Q2167.8438,522.2578 2167.25,521.9844 Q2166.6563,521.7109 2166.0313,521.7109 Q2164.6875,521.7109 2164,522.7813 Q2163.3125,523.8516 2163.3125,525.9453 Q2163.3125,528.0391 2164,529.1094 Q2164.6875,530.1797 2166.0313,530.1797 Q2166.6563,530.1797 2167.25,529.9063 Q2167.8438,529.6328 2168.4688,529.0547 L2168.4688,531.7734 Z " fill="#000000"/><text fill="#000000" font-family="sans-serif" font-size="12" font-style="italic" lengthAdjust="spacing" textLength="194" x="2187" y="522.1387">«dogen::handcrafted::typeable»</text><text fill="#000000" font-family="sans-serif" font-size="14" lengthAdjust="spacing" textLength="209" x="2179.5" y="537.9639">text_model_production_chain</text><line style="stroke:#181818;stroke-width:0.5;" x1="2151.5" x2="2390.5" y1="546.2656" y2="546.2656"/><line style="stroke:#181818;stroke-width:0.5;" x1="2151.5" x2="2390.5" y1="554.2656" y2="554.2656"/></g><!--MD5=[872738f9b292f9cf434fe1d2d51378d6]
class transforms::legacy_dependencies_transform--><g id="elem_transforms::legacy_dependencies_transform"><rect codeLine="56" fill="#FFFACD" height="56.2656" id="transforms::legacy_dependencies_transform" rx="2.5" ry="2.5" style="stroke:#181818;stroke-width:0.5;" width="263" x="2426.5" y="506"/><ellipse cx="2441.5" cy="526.1328" fill="#ADD1B2" rx="11" ry="11" style="stroke:#181818;stroke-width:1.0;"/><path d="M2444.4688,531.7734 Q2443.8906,532.0703 2443.25,532.2188 Q2442.6094,532.3672 2441.9063,532.3672 Q2439.4063,532.3672 2438.0859,530.7188 Q2436.7656,529.0703 2436.7656,525.9453 Q2436.7656,522.8203 2438.0859,521.1641 Q2439.4063,519.5078 2441.9063,519.5078 Q2442.6094,519.5078 2443.2578,519.6641 Q2443.9063,519.8203 2444.4688,520.1172 L2444.4688,522.8359 Q2443.8438,522.2578 2443.25,521.9844 Q2442.6563,521.7109 2442.0313,521.7109 Q2440.6875,521.7109 2440,522.7813 Q2439.3125,523.8516 2439.3125,525.9453 Q2439.3125,528.0391 2440,529.1094 Q2440.6875,530.1797 2442.0313,530.1797 Q2442.6563,530.1797 2443.25,529.9063 Q2443.8438,529.6328 2444.4688,529.0547 L2444.4688,531.7734 Z " fill="#000000"/><text fill="#000000" font-family="sans-serif" font-size="12" font-style="italic" lengthAdjust="spacing" textLength="194" x="2474" y="522.1387">«dogen::handcrafted::typeable»</text><text fill="#000000" font-family="sans-serif" font-size="14" lengthAdjust="spacing" textLength="231" x="2455.5" y="537.9639">legacy_dependencies_transform</text><line style="stroke:#181818;stroke-width:0.5;" x1="2427.5" x2="2688.5" y1="546.2656" y2="546.2656"/><line style="stroke:#181818;stroke-width:0.5;" x1="2427.5" x2="2688.5" y1="554.2656" y2="554.2656"/></g><!--MD5=[583d1399401bb90033abbd440ffb1c6f]
class transforms::physical_to_logical_population_transform--><g id="elem_transforms::physical_to_logical_population_transform"><rect codeLine="59" fill="#FFFACD" height="56.2656" id="transforms::physical_to_logical_population_transform" rx="2.5" ry="2.5" style="stroke:#181818;stroke-width:0.5;" width="325" x="1517.5" y="622"/><ellipse cx="1532.5" cy="642.1328" fill="#ADD1B2" rx="11" ry="11" style="stroke:#181818;stroke-width:1.0;"/><path d="M1535.4688,647.7734 Q1534.8906,648.0703 1534.25,648.2188 Q1533.6094,648.3672 1532.9063,648.3672 Q1530.4063,648.3672 1529.0859,646.7188 Q1527.7656,645.0703 1527.7656,641.9453 Q1527.7656,638.8203 1529.0859,637.1641 Q1530.4063,635.5078 1532.9063,635.5078 Q1533.6094,635.5078 1534.2578,635.6641 Q1534.9063,635.8203 1535.4688,636.1172 L1535.4688,638.8359 Q1534.8438,638.2578 1534.25,637.9844 Q1533.6563,637.7109 1533.0313,637.7109 Q1531.6875,637.7109 1531,638.7813 Q1530.3125,639.8516 1530.3125,641.9453 Q1530.3125,644.0391 1531,645.1094 Q1531.6875,646.1797 1533.0313,646.1797 Q1533.6563,646.1797 1534.25,645.9063 Q1534.8438,645.6328 1535.4688,645.0547 L1535.4688,647.7734 Z " fill="#000000"/><text fill="#000000" font-family="sans-serif" font-size="12" font-style="italic" lengthAdjust="spacing" textLength="194" x="1596" y="638.1387">«dogen::handcrafted::typeable»</text><text fill="#000000" font-family="sans-serif" font-size="14" lengthAdjust="spacing" textLength="293" x="1546.5" y="653.9639">physical_to_logical_population_transform</text><line style="stroke:#181818;stroke-width:0.5;" x1="1518.5" x2="1841.5" y1="662.2656" y2="662.2656"/><line style="stroke:#181818;stroke-width:0.5;" x1="1518.5" x2="1841.5" y1="670.2656" y2="670.2656"/></g><!--MD5=[82399552af723106d578725633ff828f]
class transforms::elements_removal_transform--><g id="elem_transforms::elements_removal_transform"><rect codeLine="62" fill="#FFFACD" height="56.2656" id="transforms::elements_removal_transform" rx="2.5" ry="2.5" style="stroke:#181818;stroke-width:0.5;" width="241" x="1877.5" y="622"/><ellipse cx="1892.5" cy="642.1328" fill="#ADD1B2" rx="11" ry="11" style="stroke:#181818;stroke-width:1.0;"/><path d="M1895.4688,647.7734 Q1894.8906,648.0703 1894.25,648.2188 Q1893.6094,648.3672 1892.9063,648.3672 Q1890.4063,648.3672 1889.0859,646.7188 Q1887.7656,645.0703 1887.7656,641.9453 Q1887.7656,638.8203 1889.0859,637.1641 Q1890.4063,635.5078 1892.9063,635.5078 Q1893.6094,635.5078 1894.2578,635.6641 Q1894.9063,635.8203 1895.4688,636.1172 L1895.4688,638.8359 Q1894.8438,638.2578 1894.25,637.9844 Q1893.6563,637.7109 1893.0313,637.7109 Q1891.6875,637.7109 1891,638.7813 Q1890.3125,639.8516 1890.3125,641.9453 Q1890.3125,644.0391 1891,645.1094 Q1891.6875,646.1797 1893.0313,646.1797 Q1893.6563,646.1797 1894.25,645.9063 Q1894.8438,645.6328 1895.4688,645.0547 L1895.4688,647.7734 Z " fill="#000000"/><text fill="#000000" font-family="sans-serif" font-size="12" font-style="italic" lengthAdjust="spacing" textLength="194" x="1914" y="638.1387">«dogen::handcrafted::typeable»</text><text fill="#000000" font-family="sans-serif" font-size="14" lengthAdjust="spacing" textLength="209" x="1906.5" y="653.9639">elements_removal_transform</text><line style="stroke:#181818;stroke-width:0.5;" x1="1878.5" x2="2117.5" y1="662.2656" y2="662.2656"/><line style="stroke:#181818;stroke-width:0.5;" x1="1878.5" x2="2117.5" y1="670.2656" y2="670.2656"/></g><!--MD5=[92b77629bd55dfee0d8df9f5cdda9d7d]
class helpers::codec_to_logical_projector--><g id="elem_helpers::codec_to_logical_projector"><rect codeLine="79" fill="#FFFACD" height="56.2656" id="helpers::codec_to_logical_projector" rx="2.5" ry="2.5" style="stroke:#181818;stroke-width:0.5;" width="222" x="3471" y="200"/><ellipse cx="3486" cy="220.1328" fill="#ADD1B2" rx="11" ry="11" style="stroke:#181818;stroke-width:1.0;"/><path d="M3488.9688,225.7734 Q3488.3906,226.0703 3487.75,226.2188 Q3487.1094,226.3672 3486.4063,226.3672 Q3483.9063,226.3672 3482.5859,224.7188 Q3481.2656,223.0703 3481.2656,219.9453 Q3481.2656,216.8203 3482.5859,215.1641 Q3483.9063,213.5078 3486.4063,213.5078 Q3487.1094,213.5078 3487.7578,213.6641 Q3488.4063,213.8203 3488.9688,214.1172 L3488.9688,216.8359 Q3488.3438,216.2578 3487.75,215.9844 Q3487.1563,215.7109 3486.5313,215.7109 Q3485.1875,215.7109 3484.5,216.7813 Q3483.8125,217.8516 3483.8125,219.9453 Q3483.8125,222.0391 3484.5,223.1094 Q3485.1875,224.1797 3486.5313,224.1797 Q3487.1563,224.1797 3487.75,223.9063 Q3488.3438,223.6328 3488.9688,223.0547 L3488.9688,225.7734 Z " fill="#000000"/><text fill="#000000" font-family="sans-serif" font-size="12" font-style="italic" lengthAdjust="spacing" textLength="194" x="3498" y="216.1387">«dogen::handcrafted::typeable»</text><text fill="#000000" font-family="sans-serif" font-size="14" lengthAdjust="spacing" textLength="190" x="3500" y="231.9639">codec_to_logical_projector</text><line style="stroke:#181818;stroke-width:0.5;" x1="3472" x2="3692" y1="240.2656" y2="240.2656"/><line style="stroke:#181818;stroke-width:0.5;" x1="3472" x2="3692" y1="248.2656" y2="248.2656"/></g><!--MD5=[133afa2a9525c2d786c3c4a43a456542]
class helpers::logical_to_physical_projector--><g id="elem_helpers::logical_to_physical_projector"><rect codeLine="82" fill="#FFFACD" height="56.2656" id="helpers::logical_to_physical_projector" rx="2.5" ry="2.5" style="stroke:#181818;stroke-width:0.5;" width="237" x="3728.5" y="200"/><ellipse cx="3743.5" cy="220.1328" fill="#ADD1B2" rx="11" ry="11" style="stroke:#181818;stroke-width:1.0;"/><path d="M3746.4688,225.7734 Q3745.8906,226.0703 3745.25,226.2188 Q3744.6094,226.3672 3743.9063,226.3672 Q3741.4063,226.3672 3740.0859,224.7188 Q3738.7656,223.0703 3738.7656,219.9453 Q3738.7656,216.8203 3740.0859,215.1641 Q3741.4063,213.5078 3743.9063,213.5078 Q3744.6094,213.5078 3745.2578,213.6641 Q3745.9063,213.8203 3746.4688,214.1172 L3746.4688,216.8359 Q3745.8438,216.2578 3745.25,215.9844 Q3744.6563,215.7109 3744.0313,215.7109 Q3742.6875,215.7109 3742,216.7813 Q3741.3125,217.8516 3741.3125,219.9453 Q3741.3125,222.0391 3742,223.1094 Q3742.6875,224.1797 3744.0313,224.1797 Q3744.6563,224.1797 3745.25,223.9063 Q3745.8438,223.6328 3746.4688,223.0547 L3746.4688,225.7734 Z " fill="#000000"/><text fill="#000000" font-family="sans-serif" font-size="12" font-style="italic" lengthAdjust="spacing" textLength="194" x="3763" y="216.1387">«dogen::handcrafted::typeable»</text><text fill="#000000" font-family="sans-serif" font-size="14" lengthAdjust="spacing" textLength="205" x="3757.5" y="231.9639">logical_to_physical_projector</text><line style="stroke:#181818;stroke-width:0.5;" x1="3729.5" x2="3964.5" y1="240.2656" y2="240.2656"/><line style="stroke:#181818;stroke-width:0.5;" x1="3729.5" x2="3964.5" y1="248.2656" y2="248.2656"/></g><!--MD5=[d01b10de00c0a436a76d2778d5e50983]
class helpers::projection_error--><g id="elem_helpers::projection_error"><rect codeLine="85" fill="#E8C2F8" height="56.2656" id="helpers::projection_error" rx="2.5" ry="2.5" style="stroke:#181818;stroke-width:0.5;" width="147" x="3111.5" y="373.5"/><ellipse cx="3126.5" cy="393.6328" fill="#ADD1B2" rx="11" ry="11" style="stroke:#181818;stroke-width:1.0;"/><path d="M3129.4688,399.2734 Q3128.8906,399.5703 3128.25,399.7188 Q3127.6094,399.8672 3126.9063,399.8672 Q3124.4063,399.8672 3123.0859,398.2188 Q3121.7656,396.5703 3121.7656,393.4453 Q3121.7656,390.3203 3123.0859,388.6641 Q3124.4063,387.0078 3126.9063,387.0078 Q3127.6094,387.0078 3128.2578,387.1641 Q3128.9063,387.3203 3129.4688,387.6172 L3129.4688,390.3359 Q3128.8438,389.7578 3128.25,389.4844 Q3127.6563,389.2109 3127.0313,389.2109 Q3125.6875,389.2109 3125,390.2813 Q3124.3125,391.3516 3124.3125,393.4453 Q3124.3125,395.5391 3125,396.6094 Q3125.6875,397.6797 3127.0313,397.6797 Q3127.6563,397.6797 3128.25,397.4063 Q3128.8438,397.1328 3129.4688,396.5547 L3129.4688,399.2734 Z " fill="#000000"/><text fill="#000000" font-family="sans-serif" font-size="12" font-style="italic" lengthAdjust="spacing" textLength="114" x="3141" y="389.6387">«masd::exception»</text><text fill="#000000" font-family="sans-serif" font-size="14" lengthAdjust="spacing" textLength="115" x="3140.5" y="405.4639">projection_error</text><line style="stroke:#181818;stroke-width:0.5;" x1="3112.5" x2="3257.5" y1="413.7656" y2="413.7656"/><line style="stroke:#181818;stroke-width:0.5;" x1="3112.5" x2="3257.5" y1="421.7656" y2="421.7656"/></g><g id="elem_helpers::GMN31"><path d="M2934,215.5 L2934,240.6328 A0,0 0 0 0 2934,240.6328 L3181,240.6328 L3185,373.4 L3189,240.6328 L3436,240.6328 A0,0 0 0 0 3436,240.6328 L3436,225.5 L3426,215.5 L2934,215.5 A0,0 0 0 0 2934,215.5 " fill="#FEFFDD" style="stroke:#181818;stroke-width:0.5;"/><path d="M3426,215.5 L3426,225.5 L3436,225.5 L3426,215.5 " fill="#FEFFDD" style="stroke:#181818;stroke-width:0.5;"/><text fill="#000000" font-family="sans-serif" font-size="13" lengthAdjust="spacing" textLength="481" x="2940" y="232.5669">An error occurred whilst projecting elements from one space into another.</text></g><!--MD5=[cea5031ae87c74002eae456e394668e6]
class helpers::dependencies_builder--><g id="elem_helpers::dependencies_builder"><rect codeLine="92" fill="#FFFACD" height="56.2656" id="helpers::dependencies_builder" rx="2.5" ry="2.5" style="stroke:#181818;stroke-width:0.5;" width="222" x="3471" y="373.5"/><ellipse cx="3486" cy="393.6328" fill="#ADD1B2" rx="11" ry="11" style="stroke:#181818;stroke-width:1.0;"/><path d="M3488.9688,399.2734 Q3488.3906,399.5703 3487.75,399.7188 Q3487.1094,399.8672 3486.4063,399.8672 Q3483.9063,399.8672 3482.5859,398.2188 Q3481.2656,396.5703 3481.2656,393.4453 Q3481.2656,390.3203 3482.5859,388.6641 Q3483.9063,387.0078 3486.4063,387.0078 Q3487.1094,387.0078 3487.7578,387.1641 Q3488.4063,387.3203 3488.9688,387.6172 L3488.9688,390.3359 Q3488.3438,389.7578 3487.75,389.4844 Q3487.1563,389.2109 3486.5313,389.2109 Q3485.1875,389.2109 3484.5,390.2813 Q3483.8125,391.3516 3483.8125,393.4453 Q3483.8125,395.5391 3484.5,396.6094 Q3485.1875,397.6797 3486.5313,397.6797 Q3487.1563,397.6797 3487.75,397.4063 Q3488.3438,397.1328 3488.9688,396.5547 L3488.9688,399.2734 Z " fill="#000000"/><text fill="#000000" font-family="sans-serif" font-size="12" font-style="italic" lengthAdjust="spacing" textLength="194" x="3498" y="389.6387">«dogen::handcrafted::typeable»</text><text fill="#000000" font-family="sans-serif" font-size="14" lengthAdjust="spacing" textLength="157" x="3516.5" y="405.4639">dependencies_builder</text><line style="stroke:#181818;stroke-width:0.5;" x1="3472" x2="3692" y1="413.7656" y2="413.7656"/><line style="stroke:#181818;stroke-width:0.5;" x1="3472" x2="3692" y1="421.7656" y2="421.7656"/></g><!--MD5=[6fd13f622b1e010fae07eaa86c0895f5]
class helpers::building_error--><g id="elem_helpers::building_error"><rect codeLine="95" fill="#E8C2F8" height="56.2656" id="helpers::building_error" rx="2.5" ry="2.5" style="stroke:#181818;stroke-width:0.5;" width="142" x="3728" y="373.5"/><ellipse cx="3743" cy="393.6328" fill="#ADD1B2" rx="11" ry="11" style="stroke:#181818;stroke-width:1.0;"/><path d="M3745.9688,399.2734 Q3745.3906,399.5703 3744.75,399.7188 Q3744.1094,399.8672 3743.4063,399.8672 Q3740.9063,399.8672 3739.5859,398.2188 Q3738.2656,396.5703 3738.2656,393.4453 Q3738.2656,390.3203 3739.5859,388.6641 Q3740.9063,387.0078 3743.4063,387.0078 Q3744.1094,387.0078 3744.7578,387.1641 Q3745.4063,387.3203 3745.9688,387.6172 L3745.9688,390.3359 Q3745.3438,389.7578 3744.75,389.4844 Q3744.1563,389.2109 3743.5313,389.2109 Q3742.1875,389.2109 3741.5,390.2813 Q3740.8125,391.3516 3740.8125,393.4453 Q3740.8125,395.5391 3741.5,396.6094 Q3742.1875,397.6797 3743.5313,397.6797 Q3744.1563,397.6797 3744.75,397.4063 Q3745.3438,397.1328 3745.9688,396.5547 L3745.9688,399.2734 Z " fill="#000000"/><text fill="#000000" font-family="sans-serif" font-size="12" font-style="italic" lengthAdjust="spacing" textLength="114" x="3755" y="389.6387">«masd::exception»</text><text fill="#000000" font-family="sans-serif" font-size="14" lengthAdjust="spacing" textLength="100" x="3762" y="405.4639">building_error</text><line style="stroke:#181818;stroke-width:0.5;" x1="3729" x2="3869" y1="413.7656" y2="413.7656"/><line style="stroke:#181818;stroke-width:0.5;" x1="3729" x2="3869" y1="421.7656" y2="421.7656"/></g><!--MD5=[27da765e9111347023128ab7be8dd5bd]
class features::model_location--><g id="elem_features::model_location"><rect codeLine="105" fill="#BAD7D7" height="88.8594" id="features::model_location" rx="2.5" ry="2.5" style="stroke:#181818;stroke-width:0.5;" width="313" x="4326.5" y="357"/><ellipse cx="4374.75" cy="377.1328" fill="#ADD1B2" rx="11" ry="11" style="stroke:#181818;stroke-width:1.0;"/><path d="M4377.7188,382.7734 Q4377.1406,383.0703 4376.5,383.2188 Q4375.8594,383.3672 4375.1563,383.3672 Q4372.6563,383.3672 4371.3359,381.7188 Q4370.0156,380.0703 4370.0156,376.9453 Q4370.0156,373.8203 4371.3359,372.1641 Q4372.6563,370.5078 4375.1563,370.5078 Q4375.8594,370.5078 4376.5078,370.6641 Q4377.1563,370.8203 4377.7188,371.1172 L4377.7188,373.8359 Q4377.0938,373.2578 4376.5,372.9844 Q4375.9063,372.7109 4375.2813,372.7109 Q4373.9375,372.7109 4373.25,373.7813 Q4372.5625,374.8516 4372.5625,376.9453 Q4372.5625,379.0391 4373.25,380.1094 Q4373.9375,381.1797 4375.2813,381.1797 Q4375.9063,381.1797 4376.5,380.9063 Q4377.0938,380.6328 4377.7188,380.0547 L4377.7188,382.7734 Z " fill="#000000"/><text fill="#000000" font-family="sans-serif" font-size="12" font-style="italic" lengthAdjust="spacing" textLength="212" x="4393.25" y="373.1387">«masd::variability::feature_bundle»</text><text fill="#000000" font-family="sans-serif" font-size="14" lengthAdjust="spacing" textLength="109" x="4444.75" y="388.9639">model_location</text><line style="stroke:#181818;stroke-width:0.5;" x1="4327.5" x2="4638.5" y1="397.2656" y2="397.2656"/><ellipse cx="4337.5" cy="408.2656" fill="none" rx="3" ry="3" style="stroke:#038048;stroke-width:1.0;"/><text fill="#000000" font-family="sans-serif" font-size="14" lengthAdjust="spacing" textLength="287" x="4346.5" y="414.2607">external_modules masd::variability::text</text><ellipse cx="4337.5" cy="424.5625" fill="none" rx="3" ry="3" style="stroke:#038048;stroke-width:1.0;"/><text fill="#000000" font-family="sans-serif" font-size="14" lengthAdjust="spacing" textLength="273" x="4346.5" y="430.5576">model_modules masd::variability::text</text><line style="stroke:#181818;stroke-width:0.5;" x1="4327.5" x2="4638.5" y1="437.8594" y2="437.8594"/></g><g id="elem_features::GMN41"><path d="M4310,215.5 L4310,240.6328 A0,0 0 0 0 4310,240.6328 L4479,240.6328 L4483,356.69 L4487,240.6328 L4656,240.6328 A0,0 0 0 0 4656,240.6328 L4656,225.5 L4646,215.5 L4310,215.5 A0,0 0 0 0 4310,215.5 " fill="#FEFFDD" style="stroke:#181818;stroke-width:0.5;"/><path d="M4646,215.5 L4646,225.5 L4656,225.5 L4646,215.5 " fill="#FEFFDD" style="stroke:#181818;stroke-width:0.5;"/><text fill="#000000" font-family="sans-serif" font-size="13" lengthAdjust="spacing" textLength="325" x="4316" y="232.5669">Feature group for model location related features.</text></g><!--MD5=[f92b0da6b1af7bae6fc1fe89a12449e8]
class features::initializer--><g id="elem_features::initializer"><rect codeLine="114" fill="#A9CDCD" height="56.2656" id="features::initializer" rx="2.5" ry="2.5" style="stroke:#181818;stroke-width:0.5;" width="202" x="4073" y="200"/><ellipse cx="4088" cy="220.1328" fill="#ADD1B2" rx="11" ry="11" style="stroke:#181818;stroke-width:1.0;"/><path d="M4090.9688,225.7734 Q4090.3906,226.0703 4089.75,226.2188 Q4089.1094,226.3672 4088.4063,226.3672 Q4085.9063,226.3672 4084.5859,224.7188 Q4083.2656,223.0703 4083.2656,219.9453 Q4083.2656,216.8203 4084.5859,215.1641 Q4085.9063,213.5078 4088.4063,213.5078 Q4089.1094,213.5078 4089.7578,213.6641 Q4090.4063,213.8203 4090.9688,214.1172 L4090.9688,216.8359 Q4090.3438,216.2578 4089.75,215.9844 Q4089.1563,215.7109 4088.5313,215.7109 Q4087.1875,215.7109 4086.5,216.7813 Q4085.8125,217.8516 4085.8125,219.9453 Q4085.8125,222.0391 4086.5,223.1094 Q4087.1875,224.1797 4088.5313,224.1797 Q4089.1563,224.1797 4089.75,223.9063 Q4090.3438,223.6328 4090.9688,223.0547 L4090.9688,225.7734 Z " fill="#000000"/><text fill="#000000" font-family="sans-serif" font-size="12" font-style="italic" lengthAdjust="spacing" textLength="174" x="4100" y="216.1387">«masd::variability::initializer»</text><text fill="#000000" font-family="sans-serif" font-size="14" lengthAdjust="spacing" textLength="65" x="4154.5" y="231.9639">initializer</text><line style="stroke:#181818;stroke-width:0.5;" x1="4074" x2="4274" y1="240.2656" y2="240.2656"/><line style="stroke:#181818;stroke-width:0.5;" x1="4074" x2="4274" y1="248.2656" y2="248.2656"/></g><g id="elem_N1"><path d="M6,6 L6,91.6641 L466,91.6641 L466,16 L456,6 L6,6 " fill="#FEFFDD" style="stroke:#181818;stroke-width:0.5;"/><path d="M456,6 L456,16 L466,16 L456,6 " fill="#FEFFDD" style="stroke:#181818;stroke-width:1.0;"/><text fill="#000000" font-family="sans-serif" font-size="13" lengthAdjust="spacing" textLength="402" x="12" y="23.0669">Orchestration-based imlementation of the Dogen product API.</text><text fill="#000000" font-family="sans-serif" font-size="13" lengthAdjust="spacing" textLength="4" x="12" y="38.1997"> </text><text fill="#000000" font-family="sans-serif" font-size="13" lengthAdjust="spacing" textLength="131" x="12" y="53.3325">UML representation:</text><text fill="#000000" font-family="sans-serif" font-size="13" lengthAdjust="spacing" textLength="4" x="12" y="68.4653"> </text><text fill="#000000" font-family="sans-serif" font-size="13" lengthAdjust="spacing" textLength="439" x="12" y="83.5981">\image html dogen.orchestration/modeling/dogen.orchestration.svg</text></g><g id="elem_GMN22"><path d="M1015.5,29 L1015.5,69.2656 L1328.5,69.2656 L1328.5,39 L1318.5,29 L1015.5,29 " fill="#FEFFDD" style="stroke:#181818;stroke-width:0.5;"/><path d="M1318.5,29 L1318.5,39 L1328.5,39 L1318.5,29 " fill="#FEFFDD" style="stroke:#181818;stroke-width:1.0;"/><text fill="#000000" font-family="sans-serif" font-size="13" lengthAdjust="spacing" textLength="276" x="1037.5" y="46.0669">Top-level transforms for Dogen. These are</text><text fill="#000000" font-family="sans-serif" font-size="13" lengthAdjust="spacing" textLength="252" x="1021.5" y="61.1997">the entry points to all transformations.</text></g><!--MD5=[dd71179583cce17ecb14726d47c32e81]
class generator--><g id="elem_generator"><rect codeLine="72" fill="#FFFACD" height="56.2656" id="generator" rx="2.5" ry="2.5" style="stroke:#181818;stroke-width:0.5;" width="222" x="501" y="21"/><ellipse cx="516" cy="41.1328" fill="#ADD1B2" rx="11" ry="11" style="stroke:#181818;stroke-width:1.0;"/><path d="M518.9688,46.7734 Q518.3906,47.0703 517.75,47.2188 Q517.1094,47.3672 516.4063,47.3672 Q513.9063,47.3672 512.5859,45.7188 Q511.2656,44.0703 511.2656,40.9453 Q511.2656,37.8203 512.5859,36.1641 Q513.9063,34.5078 516.4063,34.5078 Q517.1094,34.5078 517.7578,34.6641 Q518.4063,34.8203 518.9688,35.1172 L518.9688,37.8359 Q518.3438,37.2578 517.75,36.9844 Q517.1563,36.7109 516.5313,36.7109 Q515.1875,36.7109 514.5,37.7813 Q513.8125,38.8516 513.8125,40.9453 Q513.8125,43.0391 514.5,44.1094 Q515.1875,45.1797 516.5313,45.1797 Q517.1563,45.1797 517.75,44.9063 Q518.3438,44.6328 518.9688,44.0547 L518.9688,46.7734 Z " fill="#000000"/><text fill="#000000" font-family="sans-serif" font-size="12" font-style="italic" lengthAdjust="spacing" textLength="194" x="528" y="37.1387">«dogen::handcrafted::typeable»</text><text fill="#000000" font-family="sans-serif" font-size="14" lengthAdjust="spacing" textLength="71" x="589.5" y="52.9639">generator</text><line style="stroke:#181818;stroke-width:0.5;" x1="502" x2="722" y1="61.2656" y2="61.2656"/><line style="stroke:#181818;stroke-width:0.5;" x1="502" x2="722" y1="69.2656" y2="69.2656"/></g><!--MD5=[28d2d70932dfaa0fc9ca4145a3e35f21]
class converter--><g id="elem_converter"><rect codeLine="75" fill="#FFFACD" height="56.2656" id="converter" rx="2.5" ry="2.5" style="stroke:#181818;stroke-width:0.5;" width="222" x="758" y="21"/><ellipse cx="773" cy="41.1328" fill="#ADD1B2" rx="11" ry="11" style="stroke:#181818;stroke-width:1.0;"/><path d="M775.9688,46.7734 Q775.3906,47.0703 774.75,47.2188 Q774.1094,47.3672 773.4063,47.3672 Q770.9063,47.3672 769.5859,45.7188 Q768.2656,44.0703 768.2656,40.9453 Q768.2656,37.8203 769.5859,36.1641 Q770.9063,34.5078 773.4063,34.5078 Q774.1094,34.5078 774.7578,34.6641 Q775.4063,34.8203 775.9688,35.1172 L775.9688,37.8359 Q775.3438,37.2578 774.75,36.9844 Q774.1563,36.7109 773.5313,36.7109 Q772.1875,36.7109 771.5,37.7813 Q770.8125,38.8516 770.8125,40.9453 Q770.8125,43.0391 771.5,44.1094 Q772.1875,45.1797 773.5313,45.1797 Q774.1563,45.1797 774.75,44.9063 Q775.3438,44.6328 775.9688,44.0547 L775.9688,46.7734 Z " fill="#000000"/><text fill="#000000" font-family="sans-serif" font-size="12" font-style="italic" lengthAdjust="spacing" textLength="194" x="785" y="37.1387">«dogen::handcrafted::typeable»</text><text fill="#000000" font-family="sans-serif" font-size="14" lengthAdjust="spacing" textLength="69" x="847.5" y="52.9639">converter</text><line style="stroke:#181818;stroke-width:0.5;" x1="759" x2="979" y1="61.2656" y2="61.2656"/><line style="stroke:#181818;stroke-width:0.5;" x1="759" x2="979" y1="69.2656" y2="69.2656"/></g><g id="elem_GMN36"><path d="M2770.5,36.5 L2770.5,61.6328 L3027.5,61.6328 L3027.5,46.5 L3017.5,36.5 L2770.5,36.5 " fill="#FEFFDD" style="stroke:#181818;stroke-width:0.5;"/><path d="M3017.5,36.5 L3017.5,46.5 L3027.5,46.5 L3017.5,36.5 " fill="#FEFFDD" style="stroke:#181818;stroke-width:1.0;"/><text fill="#000000" font-family="sans-serif" font-size="13" lengthAdjust="spacing" textLength="236" x="2776.5" y="53.5669">Helpers for the orchestration model.</text></g><g id="elem_GMN45"><path d="M3906.5,36.5 L3906.5,61.6328 L4169.5,61.6328 L4169.5,46.5 L4159.5,36.5 L3906.5,36.5 " fill="#FEFFDD" style="stroke:#181818;stroke-width:0.5;"/><path d="M4159.5,36.5 L4159.5,46.5 L4169.5,46.5 L4159.5,36.5 " fill="#FEFFDD" style="stroke:#181818;stroke-width:1.0;"/><text fill="#000000" font-family="sans-serif" font-size="13" lengthAdjust="spacing" textLength="242" x="3912.5" y="53.5669">Features for the orchestration model.</text></g><!--MD5=[4520fda4e10d4d791ce48fe025810cd4]
class main--><g id="elem_main"><rect codeLine="123" fill="#DDA9F3" height="56.2656" id="main" rx="2.5" ry="2.5" style="stroke:#181818;stroke-width:0.5;" width="267" x="102.5" y="200"/><ellipse cx="117.5" cy="220.1328" fill="#ADD1B2" rx="11" ry="11" style="stroke:#181818;stroke-width:1.0;"/><path d="M120.4688,225.7734 Q119.8906,226.0703 119.25,226.2188 Q118.6094,226.3672 117.9063,226.3672 Q115.4063,226.3672 114.0859,224.7188 Q112.7656,223.0703 112.7656,219.9453 Q112.7656,216.8203 114.0859,215.1641 Q115.4063,213.5078 117.9063,213.5078 Q118.6094,213.5078 119.2578,213.6641 Q119.9063,213.8203 120.4688,214.1172 L120.4688,216.8359 Q119.8438,216.2578 119.25,215.9844 Q118.6563,215.7109 118.0313,215.7109 Q116.6875,215.7109 116,216.7813 Q115.3125,217.8516 115.3125,219.9453 Q115.3125,222.0391 116,223.1094 Q116.6875,224.1797 118.0313,224.1797 Q118.6563,224.1797 119.25,223.9063 Q119.8438,223.6328 120.4688,223.0547 L120.4688,225.7734 Z " fill="#000000"/><text fill="#000000" font-family="sans-serif" font-size="12" font-style="italic" lengthAdjust="spacing" textLength="239" x="129.5" y="216.1387">«masd::entry_point, dogen::untypable»</text><text fill="#000000" font-family="sans-serif" font-size="14" lengthAdjust="spacing" textLength="36" x="231" y="231.9639">main</text><line style="stroke:#181818;stroke-width:0.5;" x1="103.5" x2="368.5" y1="240.2656" y2="240.2656"/><line style="stroke:#181818;stroke-width:0.5;" x1="103.5" x2="368.5" y1="248.2656" y2="248.2656"/></g><!--MD5=[ba83386d426114557685538e96aa6f68]
class CMakeLists--><g id="elem_CMakeLists"><rect codeLine="126" fill="#99CB99" height="56.2656" id="CMakeLists" rx="2.5" ry="2.5" style="stroke:#181818;stroke-width:0.5;" width="360" x="405" y="200"/><ellipse cx="420" cy="220.1328" fill="#ADD1B2" rx="11" ry="11" style="stroke:#181818;stroke-width:1.0;"/><path d="M422.9688,225.7734 Q422.3906,226.0703 421.75,226.2188 Q421.1094,226.3672 420.4063,226.3672 Q417.9063,226.3672 416.5859,224.7188 Q415.2656,223.0703 415.2656,219.9453 Q415.2656,216.8203 416.5859,215.1641 Q417.9063,213.5078 420.4063,213.5078 Q421.1094,213.5078 421.7578,213.6641 Q422.4063,213.8203 422.9688,214.1172 L422.9688,216.8359 Q422.3438,216.2578 421.75,215.9844 Q421.1563,215.7109 420.5313,215.7109 Q419.1875,215.7109 418.5,216.7813 Q417.8125,217.8516 417.8125,219.9453 Q417.8125,222.0391 418.5,223.1094 Q419.1875,224.1797 420.5313,224.1797 Q421.1563,224.1797 421.75,223.9063 Q422.3438,223.6328 422.9688,223.0547 L422.9688,225.7734 Z " fill="#000000"/><text fill="#000000" font-family="sans-serif" font-size="12" font-style="italic" lengthAdjust="spacing" textLength="332" x="432" y="216.1387">«masd::build::cmakelists, dogen::handcrafted::cmake»</text><text fill="#000000" font-family="sans-serif" font-size="14" lengthAdjust="spacing" textLength="79" x="558.5" y="231.9639">CMakeLists</text><line style="stroke:#181818;stroke-width:0.5;" x1="406" x2="764" y1="240.2656" y2="240.2656"/><line style="stroke:#181818;stroke-width:0.5;" x1="406" x2="764" y1="248.2656" y2="248.2656"/></g><!--MD5=[3e3a516ce6d06244972b43908f48245e]
class spec_dumper--><g id="elem_spec_dumper"><rect codeLine="129" fill="#FFFACD" height="56.2656" id="spec_dumper" rx="2.5" ry="2.5" style="stroke:#181818;stroke-width:0.5;" width="222" x="800" y="200"/><ellipse cx="815" cy="220.1328" fill="#ADD1B2" rx="11" ry="11" style="stroke:#181818;stroke-width:1.0;"/><path d="M817.9688,225.7734 Q817.3906,226.0703 816.75,226.2188 Q816.1094,226.3672 815.4063,226.3672 Q812.9063,226.3672 811.5859,224.7188 Q810.2656,223.0703 810.2656,219.9453 Q810.2656,216.8203 811.5859,215.1641 Q812.9063,213.5078 815.4063,213.5078 Q816.1094,213.5078 816.7578,213.6641 Q817.4063,213.8203 817.9688,214.1172 L817.9688,216.8359 Q817.3438,216.2578 816.75,215.9844 Q816.1563,215.7109 815.5313,215.7109 Q814.1875,215.7109 813.5,216.7813 Q812.8125,217.8516 812.8125,219.9453 Q812.8125,222.0391 813.5,223.1094 Q814.1875,224.1797 815.5313,224.1797 Q816.1563,224.1797 816.75,223.9063 Q817.3438,223.6328 817.9688,223.0547 L817.9688,225.7734 Z " fill="#000000"/><text fill="#000000" font-family="sans-serif" font-size="12" font-style="italic" lengthAdjust="spacing" textLength="194" x="827" y="216.1387">«dogen::handcrafted::typeable»</text><text fill="#000000" font-family="sans-serif" font-size="14" lengthAdjust="spacing" textLength="96" x="876" y="231.9639">spec_dumper</text><line style="stroke:#181818;stroke-width:0.5;" x1="801" x2="1021" y1="240.2656" y2="240.2656"/><line style="stroke:#181818;stroke-width:0.5;" x1="801" x2="1021" y1="248.2656" y2="248.2656"/></g><!--MD5=[d54e5852ecfe164bbba509d3a9352ed8]
class initializer--><g id="elem_initializer"><rect codeLine="132" fill="#FFFACD" height="56.2656" id="initializer" rx="2.5" ry="2.5" style="stroke:#181818;stroke-width:0.5;" width="222" x="125" y="373.5"/><ellipse cx="140" cy="393.6328" fill="#ADD1B2" rx="11" ry="11" style="stroke:#181818;stroke-width:1.0;"/><path d="M142.9688,399.2734 Q142.3906,399.5703 141.75,399.7188 Q141.1094,399.8672 140.4063,399.8672 Q137.9063,399.8672 136.5859,398.2188 Q135.2656,396.5703 135.2656,393.4453 Q135.2656,390.3203 136.5859,388.6641 Q137.9063,387.0078 140.4063,387.0078 Q141.1094,387.0078 141.7578,387.1641 Q142.4063,387.3203 142.9688,387.6172 L142.9688,390.3359 Q142.3438,389.7578 141.75,389.4844 Q141.1563,389.2109 140.5313,389.2109 Q139.1875,389.2109 138.5,390.2813 Q137.8125,391.3516 137.8125,393.4453 Q137.8125,395.5391 138.5,396.6094 Q139.1875,397.6797 140.5313,397.6797 Q141.1563,397.6797 141.75,397.4063 Q142.3438,397.1328 142.9688,396.5547 L142.9688,399.2734 Z " fill="#000000"/><text fill="#000000" font-family="sans-serif" font-size="12" font-style="italic" lengthAdjust="spacing" textLength="194" x="152" y="389.6387">«dogen::handcrafted::typeable»</text><text fill="#000000" font-family="sans-serif" font-size="14" lengthAdjust="spacing" textLength="65" x="216.5" y="405.4639">initializer</text><line style="stroke:#181818;stroke-width:0.5;" x1="126" x2="346" y1="413.7656" y2="413.7656"/><line style="stroke:#181818;stroke-width:0.5;" x1="126" x2="346" y1="421.7656" y2="421.7656"/></g><!--MD5=[be1e0dfb7a266886e1763bb1879d728b]
link GMN22 to transforms--><g id="link_GMN22_transforms"><path d="M1172,69.28 C1172,80.57 1172,95.855 1172,112.485 C1172,113.5244 1172,114.569 1172,115.6182 " fill="none" id="GMN22-transforms" style="stroke:#181818;stroke-width:1.0;stroke-dasharray:7.0,7.0;"/></g><!--MD5=[96e2ed18752a99cee3e82b289b527eef]
link GMN36 to helpers--><g id="link_GMN36_helpers"><path d="M2899,61.61 C2899,71.3025 2899,86.2406 2899,103.2556 C2899,111.7631 2899,120.7898 2899,129.9397 C2899,134.5146 2899,139.1203 2899,143.7073 C2899,146.0008 2899,148.2896 2899,150.5675 C2899,151.7065 2899,152.8427 2899,153.9755 C2899,154.5419 2899,155.1074 2899,155.6719 C2899,155.9542 2899,156.2362 2899,156.518 " fill="none" id="GMN36-helpers" style="stroke:#181818;stroke-width:1.0;stroke-dasharray:7.0,7.0;"/></g><!--MD5=[94fd7d027539ce669a2d87b80dec7168]
link GMN45 to features--><g id="link_GMN45_features"><path d="M4038,61.61 C4038,71.3025 4038,86.2406 4038,103.2556 C4038,111.7631 4038,120.7898 4038,129.9397 C4038,134.5146 4038,139.1203 4038,143.7073 C4038,146.0008 4038,148.2896 4038,150.5675 C4038,151.7065 4038,152.8427 4038,153.9755 C4038,154.5419 4038,155.1074 4038,155.6719 C4038,155.9542 4038,156.2362 4038,156.518 " fill="none" id="GMN45-features" style="stroke:#181818;stroke-width:1.0;stroke-dasharray:7.0,7.0;"/></g><!--MD5=[501086ac46f1cab30083a894052ac3a3]
link N1 to generator--></g></svg>