<?xml version="1.0" encoding="UTF-8" standalone="no"?><svg xmlns="http://www.w3.org/2000/svg" xmlns:xlink="http://www.w3.org/1999/xlink" contentScriptType="application/ecmascript" contentStyleType="text/css" height="606px" preserveAspectRatio="none" style="width:2719px;height:606px;" version="1.1" viewBox="0 0 2719 606" width="2719px" zoomAndPan="magnify"><defs><filter height="300%" id="f167i6bqf4eivs" width="300%" x="-1" y="-1"><feGaussianBlur result="blurOut" stdDeviation="2.0"/><feColorMatrix in="blurOut" result="blurOut2" type="matrix" values="0 0 0 0 0 0 0 0 0 0 0 0 0 0 0 0 0 0 .4 0"/><feOffset dx="4.0" dy="4.0" in="blurOut2" result="blurOut3"/><feBlend in="SourceGraphic" in2="blurOut3" mode="normal"/></filter></defs><g><!--MD5=[2a013135f1f90689be40a3c084fed702]
cluster entities--><polygon fill="#F2F2F2" filter="url(#f167i6bqf4eivs)" points="686.5,24,751.5,24,758.5,46.2969,2214.5,46.2969,2214.5,594,686.5,594,686.5,24" style="stroke: #000000; stroke-width: 1.5;"/><line style="stroke: #000000; stroke-width: 1.5;" x1="686.5" x2="758.5" y1="46.2969" y2="46.2969"/><text fill="#000000" font-family="sans-serif" font-size="14" font-weight="bold" lengthAdjust="spacingAndGlyphs" textLength="59" x="690.5" y="38.9951">entities</text><!--MD5=[e8c14457c5ec3409b346b9ce068df3a0]
cluster transforms--><polygon fill="#F2F2F2" filter="url(#f167i6bqf4eivs)" points="2238.5,59.5,2331.5,59.5,2338.5,81.7969,2697.5,81.7969,2697.5,164.5,2238.5,164.5,2238.5,59.5" style="stroke: #000000; stroke-width: 1.5;"/><line style="stroke: #000000; stroke-width: 1.5;" x1="2238.5" x2="2338.5" y1="81.7969" y2="81.7969"/><text fill="#000000" font-family="sans-serif" font-size="14" font-weight="bold" lengthAdjust="spacingAndGlyphs" textLength="87" x="2242.5" y="74.4951">transforms</text><!--MD5=[b9eac5e0637e17572129e059fc70931f]
class entities::diagram--><rect fill="#F7E5FF" filter="url(#f167i6bqf4eivs)" height="73.6094" id="entities::diagram" style="stroke: #A80036; stroke-width: 1.5;" width="186" x="702.5" y="84.5"/><rect fill="#F7E5FF" height="32" style="stroke: #A80036; stroke-width: 1.5;" width="186" x="702.5" y="84.5"/><ellipse cx="765.75" cy="100.5" fill="#ADD1B2" rx="11" ry="11" style="stroke: #A80036; stroke-width: 1.0;"/><path d="M768.7188,106.1406 Q768.1406,106.4375 767.5,106.5859 Q766.8594,106.7344 766.1563,106.7344 Q763.6563,106.7344 762.3359,105.0859 Q761.0156,103.4375 761.0156,100.3125 Q761.0156,97.1875 762.3359,95.5313 Q763.6563,93.875 766.1563,93.875 Q766.8594,93.875 767.5078,94.0313 Q768.1563,94.1875 768.7188,94.4844 L768.7188,97.2031 Q768.0938,96.625 767.5,96.3516 Q766.9063,96.0781 766.2813,96.0781 Q764.9375,96.0781 764.25,97.1484 Q763.5625,98.2188 763.5625,100.3125 Q763.5625,102.4063 764.25,103.4766 Q764.9375,104.5469 766.2813,104.5469 Q766.9063,104.5469 767.5,104.2734 Q768.0938,104 768.7188,103.4219 L768.7188,106.1406 Z "/><text fill="#000000" font-family="sans-serif" font-size="12" lengthAdjust="spacingAndGlyphs" textLength="51" x="786.25" y="104.6543">diagram</text><line style="stroke: #A80036; stroke-width: 1.5;" x1="703.5" x2="887.5" y1="116.5" y2="116.5"/><ellipse cx="713.5" cy="127.5" fill="none" rx="3" ry="3" style="stroke: #038048; stroke-width: 1.0;"/><text fill="#000000" font-family="sans-serif" font-size="11" lengthAdjust="spacingAndGlyphs" textLength="160" x="722.5" y="130.7104">diagram_data diagram_data</text><ellipse cx="713.5" cy="140.3047" fill="none" rx="3" ry="3" style="stroke: #038048; stroke-width: 1.0;"/><text fill="#000000" font-family="sans-serif" font-size="11" lengthAdjust="spacingAndGlyphs" textLength="146" x="722.5" y="143.5151">layers std::vector&lt;layer&gt;</text><line style="stroke: #A80036; stroke-width: 1.5;" x1="703.5" x2="887.5" y1="150.1094" y2="150.1094"/><!--MD5=[2c63bbbf245247496a854051eca4ab30]
class entities::layer--><rect fill="#F7E5FF" filter="url(#f167i6bqf4eivs)" height="99.2188" id="entities::layer" style="stroke: #A80036; stroke-width: 1.5;" width="184" x="923.5" y="72"/><rect fill="#F7E5FF" height="32" style="stroke: #A80036; stroke-width: 1.5;" width="184" x="923.5" y="72"/><ellipse cx="996.25" cy="88" fill="#ADD1B2" rx="11" ry="11" style="stroke: #A80036; stroke-width: 1.0;"/><path d="M999.2188,93.6406 Q998.6406,93.9375 998,94.0859 Q997.3594,94.2344 996.6563,94.2344 Q994.1563,94.2344 992.8359,92.5859 Q991.5156,90.9375 991.5156,87.8125 Q991.5156,84.6875 992.8359,83.0313 Q994.1563,81.375 996.6563,81.375 Q997.3594,81.375 998.0078,81.5313 Q998.6563,81.6875 999.2188,81.9844 L999.2188,84.7031 Q998.5938,84.125 998,83.8516 Q997.4063,83.5781 996.7813,83.5781 Q995.4375,83.5781 994.75,84.6484 Q994.0625,85.7188 994.0625,87.8125 Q994.0625,89.9063 994.75,90.9766 Q995.4375,92.0469 996.7813,92.0469 Q997.4063,92.0469 998,91.7734 Q998.5938,91.5 999.2188,90.9219 L999.2188,93.6406 Z "/><text fill="#000000" font-family="sans-serif" font-size="12" lengthAdjust="spacingAndGlyphs" textLength="30" x="1016.75" y="92.1543">layer</text><line style="stroke: #A80036; stroke-width: 1.5;" x1="924.5" x2="1106.5" y1="104" y2="104"/><ellipse cx="934.5" cy="115" fill="none" rx="3" ry="3" style="stroke: #038048; stroke-width: 1.0;"/><text fill="#000000" font-family="sans-serif" font-size="11" lengthAdjust="spacingAndGlyphs" textLength="95" x="943.5" y="118.2104">name std::string</text><ellipse cx="934.5" cy="127.8047" fill="none" rx="3" ry="3" style="stroke: #038048; stroke-width: 1.0;"/><text fill="#000000" font-family="sans-serif" font-size="11" lengthAdjust="spacingAndGlyphs" textLength="64" x="943.5" y="131.0151">visible bool</text><ellipse cx="934.5" cy="140.6094" fill="none" rx="3" ry="3" style="stroke: #038048; stroke-width: 1.0;"/><text fill="#000000" font-family="sans-serif" font-size="11" lengthAdjust="spacingAndGlyphs" textLength="61" x="943.5" y="143.8198">active bool</text><ellipse cx="934.5" cy="153.4141" fill="none" rx="3" ry="3" style="stroke: #038048; stroke-width: 1.0;"/><text fill="#000000" font-family="sans-serif" font-size="11" lengthAdjust="spacingAndGlyphs" textLength="158" x="943.5" y="156.6245">objects std::vector&lt;object&gt;</text><line style="stroke: #A80036; stroke-width: 1.5;" x1="924.5" x2="1106.5" y1="163.2188" y2="163.2188"/><!--MD5=[122427e7c6336f62e771cbca05bee9af]
class entities::object--><rect fill="#F7E5FF" filter="url(#f167i6bqf4eivs)" height="124.8281" id="entities::object" style="stroke: #A80036; stroke-width: 1.5;" width="253" x="1143" y="59"/><rect fill="#F7E5FF" height="32" style="stroke: #A80036; stroke-width: 1.5;" width="253" x="1143" y="59"/><ellipse cx="1245.75" cy="75" fill="#ADD1B2" rx="11" ry="11" style="stroke: #A80036; stroke-width: 1.0;"/><path d="M1248.7188,80.6406 Q1248.1406,80.9375 1247.5,81.0859 Q1246.8594,81.2344 1246.1563,81.2344 Q1243.6563,81.2344 1242.3359,79.5859 Q1241.0156,77.9375 1241.0156,74.8125 Q1241.0156,71.6875 1242.3359,70.0313 Q1243.6563,68.375 1246.1563,68.375 Q1246.8594,68.375 1247.5078,68.5313 Q1248.1563,68.6875 1248.7188,68.9844 L1248.7188,71.7031 Q1248.0938,71.125 1247.5,70.8516 Q1246.9063,70.5781 1246.2813,70.5781 Q1244.9375,70.5781 1244.25,71.6484 Q1243.5625,72.7188 1243.5625,74.8125 Q1243.5625,76.9063 1244.25,77.9766 Q1244.9375,79.0469 1246.2813,79.0469 Q1246.9063,79.0469 1247.5,78.7734 Q1248.0938,78.5 1248.7188,77.9219 L1248.7188,80.6406 Z "/><text fill="#000000" font-family="sans-serif" font-size="12" lengthAdjust="spacingAndGlyphs" textLength="39" x="1266.25" y="79.1543">object</text><line style="stroke: #A80036; stroke-width: 1.5;" x1="1144" x2="1395" y1="91" y2="91"/><ellipse cx="1154" cy="102" fill="none" rx="3" ry="3" style="stroke: #038048; stroke-width: 1.0;"/><text fill="#000000" font-family="sans-serif" font-size="11" lengthAdjust="spacingAndGlyphs" textLength="73" x="1163" y="105.2104">id std::string</text><ellipse cx="1154" cy="114.8047" fill="none" rx="3" ry="3" style="stroke: #038048; stroke-width: 1.0;"/><text fill="#000000" font-family="sans-serif" font-size="11" lengthAdjust="spacingAndGlyphs" textLength="87" x="1163" y="118.0151">type std::string</text><ellipse cx="1154" cy="127.6094" fill="none" rx="3" ry="3" style="stroke: #038048; stroke-width: 1.0;"/><text fill="#000000" font-family="sans-serif" font-size="11" lengthAdjust="spacingAndGlyphs" textLength="60" x="1163" y="130.8198">version int</text><ellipse cx="1154" cy="140.4141" fill="none" rx="3" ry="3" style="stroke: #038048; stroke-width: 1.0;"/><text fill="#000000" font-family="sans-serif" font-size="11" lengthAdjust="spacingAndGlyphs" textLength="212" x="1163" y="143.6245">connections std::vector&lt;connection&gt;</text><ellipse cx="1154" cy="153.2188" fill="none" rx="3" ry="3" style="stroke: #038048; stroke-width: 1.0;"/><text fill="#000000" font-family="sans-serif" font-size="11" lengthAdjust="spacingAndGlyphs" textLength="227" x="1163" y="156.4292">child_node boost::optional&lt;child_node&gt;</text><ellipse cx="1154" cy="166.0234" fill="none" rx="3" ry="3" style="stroke: #038048; stroke-width: 1.0;"/><text fill="#000000" font-family="sans-serif" font-size="11" lengthAdjust="spacingAndGlyphs" textLength="186" x="1163" y="169.2339">attributes std::vector&lt;attribute&gt;</text><line style="stroke: #A80036; stroke-width: 1.5;" x1="1144" x2="1395" y1="175.8281" y2="175.8281"/><!--MD5=[b5ed01acdc87a7ba6de8a01e5463d11b]
class entities::connection--><rect fill="#F7E5FF" filter="url(#f167i6bqf4eivs)" height="86.4141" id="entities::connection" style="stroke: #A80036; stroke-width: 1.5;" width="177" x="1431" y="78.5"/><rect fill="#F7E5FF" height="32" style="stroke: #A80036; stroke-width: 1.5;" width="177" x="1431" y="78.5"/><ellipse cx="1480.25" cy="94.5" fill="#ADD1B2" rx="11" ry="11" style="stroke: #A80036; stroke-width: 1.0;"/><path d="M1483.2188,100.1406 Q1482.6406,100.4375 1482,100.5859 Q1481.3594,100.7344 1480.6563,100.7344 Q1478.1563,100.7344 1476.8359,99.0859 Q1475.5156,97.4375 1475.5156,94.3125 Q1475.5156,91.1875 1476.8359,89.5313 Q1478.1563,87.875 1480.6563,87.875 Q1481.3594,87.875 1482.0078,88.0313 Q1482.6563,88.1875 1483.2188,88.4844 L1483.2188,91.2031 Q1482.5938,90.625 1482,90.3516 Q1481.4063,90.0781 1480.7813,90.0781 Q1479.4375,90.0781 1478.75,91.1484 Q1478.0625,92.2188 1478.0625,94.3125 Q1478.0625,96.4063 1478.75,97.4766 Q1479.4375,98.5469 1480.7813,98.5469 Q1481.4063,98.5469 1482,98.2734 Q1482.5938,98 1483.2188,97.4219 L1483.2188,100.1406 Z "/><text fill="#000000" font-family="sans-serif" font-size="12" lengthAdjust="spacingAndGlyphs" textLength="70" x="1500.75" y="98.6543">connection</text><line style="stroke: #A80036; stroke-width: 1.5;" x1="1432" x2="1607" y1="110.5" y2="110.5"/><ellipse cx="1442" cy="121.5" fill="none" rx="3" ry="3" style="stroke: #038048; stroke-width: 1.0;"/><text fill="#000000" font-family="sans-serif" font-size="11" lengthAdjust="spacingAndGlyphs" textLength="101" x="1451" y="124.7104">handle std::string</text><ellipse cx="1442" cy="134.3047" fill="none" rx="3" ry="3" style="stroke: #038048; stroke-width: 1.0;"/><text fill="#000000" font-family="sans-serif" font-size="11" lengthAdjust="spacingAndGlyphs" textLength="74" x="1451" y="137.5151">to std::string</text><ellipse cx="1442" cy="147.1094" fill="none" rx="3" ry="3" style="stroke: #038048; stroke-width: 1.0;"/><text fill="#000000" font-family="sans-serif" font-size="11" lengthAdjust="spacingAndGlyphs" textLength="151" x="1451" y="150.3198">connection_slot std::string</text><line style="stroke: #A80036; stroke-width: 1.5;" x1="1432" x2="1607" y1="156.9141" y2="156.9141"/><!--MD5=[0cce79248bcf7e0385a34eaa5029fe72]
class entities::diagram_data--><rect fill="#F7E5FF" filter="url(#f167i6bqf4eivs)" height="60.8047" id="entities::diagram_data" style="stroke: #A80036; stroke-width: 1.5;" width="212" x="1642.5" y="91"/><rect fill="#F7E5FF" height="32" style="stroke: #A80036; stroke-width: 1.5;" width="212" x="1642.5" y="91"/><ellipse cx="1701.25" cy="107" fill="#ADD1B2" rx="11" ry="11" style="stroke: #A80036; stroke-width: 1.0;"/><path d="M1704.2188,112.6406 Q1703.6406,112.9375 1703,113.0859 Q1702.3594,113.2344 1701.6563,113.2344 Q1699.1563,113.2344 1697.8359,111.5859 Q1696.5156,109.9375 1696.5156,106.8125 Q1696.5156,103.6875 1697.8359,102.0313 Q1699.1563,100.375 1701.6563,100.375 Q1702.3594,100.375 1703.0078,100.5313 Q1703.6563,100.6875 1704.2188,100.9844 L1704.2188,103.7031 Q1703.5938,103.125 1703,102.8516 Q1702.4063,102.5781 1701.7813,102.5781 Q1700.4375,102.5781 1699.75,103.6484 Q1699.0625,104.7188 1699.0625,106.8125 Q1699.0625,108.9063 1699.75,109.9766 Q1700.4375,111.0469 1701.7813,111.0469 Q1702.4063,111.0469 1703,110.7734 Q1703.5938,110.5 1704.2188,109.9219 L1704.2188,112.6406 Z "/><text fill="#000000" font-family="sans-serif" font-size="12" lengthAdjust="spacingAndGlyphs" textLength="86" x="1721.75" y="111.1543">diagram_data</text><line style="stroke: #A80036; stroke-width: 1.5;" x1="1643.5" x2="1853.5" y1="123" y2="123"/><ellipse cx="1653.5" cy="134" fill="none" rx="3" ry="3" style="stroke: #038048; stroke-width: 1.0;"/><text fill="#000000" font-family="sans-serif" font-size="11" lengthAdjust="spacingAndGlyphs" textLength="186" x="1662.5" y="137.2104">attributes std::vector&lt;attribute&gt;</text><line style="stroke: #A80036; stroke-width: 1.5;" x1="1643.5" x2="1853.5" y1="143.8047" y2="143.8047"/><!--MD5=[099366974d52902939be6a57f202363e]
class entities::child_node--><rect fill="#F7E5FF" filter="url(#f167i6bqf4eivs)" height="60.8047" id="entities::child_node" style="stroke: #A80036; stroke-width: 1.5;" width="126" x="702.5" y="259.5"/><rect fill="#F7E5FF" height="32" style="stroke: #A80036; stroke-width: 1.5;" width="126" x="702.5" y="259.5"/><ellipse cx="729.65" cy="275.5" fill="#ADD1B2" rx="11" ry="11" style="stroke: #A80036; stroke-width: 1.0;"/><path d="M732.6188,281.1406 Q732.0406,281.4375 731.4,281.5859 Q730.7594,281.7344 730.0563,281.7344 Q727.5563,281.7344 726.2359,280.0859 Q724.9156,278.4375 724.9156,275.3125 Q724.9156,272.1875 726.2359,270.5313 Q727.5563,268.875 730.0563,268.875 Q730.7594,268.875 731.4078,269.0313 Q732.0563,269.1875 732.6188,269.4844 L732.6188,272.2031 Q731.9938,271.625 731.4,271.3516 Q730.8063,271.0781 730.1813,271.0781 Q728.8375,271.0781 728.15,272.1484 Q727.4625,273.2188 727.4625,275.3125 Q727.4625,277.4063 728.15,278.4766 Q728.8375,279.5469 730.1813,279.5469 Q730.8063,279.5469 731.4,279.2734 Q731.9938,279 732.6188,278.4219 L732.6188,281.1406 Z "/><text fill="#000000" font-family="sans-serif" font-size="12" lengthAdjust="spacingAndGlyphs" textLength="67" x="746.35" y="279.6543">child_node</text><line style="stroke: #A80036; stroke-width: 1.5;" x1="703.5" x2="827.5" y1="291.5" y2="291.5"/><ellipse cx="713.5" cy="302.5" fill="none" rx="3" ry="3" style="stroke: #038048; stroke-width: 1.0;"/><text fill="#000000" font-family="sans-serif" font-size="11" lengthAdjust="spacingAndGlyphs" textLength="100" x="722.5" y="305.7104">parent std::string</text><line style="stroke: #A80036; stroke-width: 1.5;" x1="703.5" x2="827.5" y1="312.3047" y2="312.3047"/><!--MD5=[5f67e098f5e48b6dbef0139961dc263d]
class entities::attribute--><rect fill="#F7E5FF" filter="url(#f167i6bqf4eivs)" height="73.6094" id="entities::attribute" style="stroke: #A80036; stroke-width: 1.5;" width="681" x="863" y="253"/><rect fill="#F7E5FF" height="32" style="stroke: #A80036; stroke-width: 1.5;" width="681" x="863" y="253"/><ellipse cx="1171.75" cy="269" fill="#ADD1B2" rx="11" ry="11" style="stroke: #A80036; stroke-width: 1.0;"/><path d="M1174.7188,274.6406 Q1174.1406,274.9375 1173.5,275.0859 Q1172.8594,275.2344 1172.1563,275.2344 Q1169.6563,275.2344 1168.3359,273.5859 Q1167.0156,271.9375 1167.0156,268.8125 Q1167.0156,265.6875 1168.3359,264.0313 Q1169.6563,262.375 1172.1563,262.375 Q1172.8594,262.375 1173.5078,262.5313 Q1174.1563,262.6875 1174.7188,262.9844 L1174.7188,265.7031 Q1174.0938,265.125 1173.5,264.8516 Q1172.9063,264.5781 1172.2813,264.5781 Q1170.9375,264.5781 1170.25,265.6484 Q1169.5625,266.7188 1169.5625,268.8125 Q1169.5625,270.9063 1170.25,271.9766 Q1170.9375,273.0469 1172.2813,273.0469 Q1172.9063,273.0469 1173.5,272.7734 Q1174.0938,272.5 1174.7188,271.9219 L1174.7188,274.6406 Z "/><text fill="#000000" font-family="sans-serif" font-size="12" lengthAdjust="spacingAndGlyphs" textLength="55" x="1192.25" y="273.1543">attribute</text><line style="stroke: #A80036; stroke-width: 1.5;" x1="864" x2="1543" y1="285" y2="285"/><ellipse cx="874" cy="296" fill="none" rx="3" ry="3" style="stroke: #038048; stroke-width: 1.0;"/><text fill="#000000" font-family="sans-serif" font-size="11" lengthAdjust="spacingAndGlyphs" textLength="95" x="883" y="299.2104">name std::string</text><ellipse cx="874" cy="308.8047" fill="none" rx="3" ry="3" style="stroke: #038048; stroke-width: 1.0;"/><text fill="#000000" font-family="sans-serif" font-size="11" lengthAdjust="spacingAndGlyphs" textLength="655" x="883" y="312.0151">values std::vector&lt;boost::variant&lt;color,real,integer,font,boolean,point,string,enumeration,rectangle,composite&gt;&gt;</text><line style="stroke: #A80036; stroke-width: 1.5;" x1="864" x2="1543" y1="318.6094" y2="318.6094"/><!--MD5=[5870999b90e4d0604ecb8159dede7030]
class entities::font--><rect fill="#F7E5FF" filter="url(#f167i6bqf4eivs)" height="86.4141" id="entities::font" style="stroke: #A80036; stroke-width: 1.5;" width="123" x="1579" y="247"/><rect fill="#F7E5FF" height="32" style="stroke: #A80036; stroke-width: 1.5;" width="123" x="1579" y="247"/><ellipse cx="1623.75" cy="263" fill="#ADD1B2" rx="11" ry="11" style="stroke: #A80036; stroke-width: 1.0;"/><path d="M1626.7188,268.6406 Q1626.1406,268.9375 1625.5,269.0859 Q1624.8594,269.2344 1624.1563,269.2344 Q1621.6563,269.2344 1620.3359,267.5859 Q1619.0156,265.9375 1619.0156,262.8125 Q1619.0156,259.6875 1620.3359,258.0313 Q1621.6563,256.375 1624.1563,256.375 Q1624.8594,256.375 1625.5078,256.5313 Q1626.1563,256.6875 1626.7188,256.9844 L1626.7188,259.7031 Q1626.0938,259.125 1625.5,258.8516 Q1624.9063,258.5781 1624.2813,258.5781 Q1622.9375,258.5781 1622.25,259.6484 Q1621.5625,260.7188 1621.5625,262.8125 Q1621.5625,264.9063 1622.25,265.9766 Q1622.9375,267.0469 1624.2813,267.0469 Q1624.9063,267.0469 1625.5,266.7734 Q1626.0938,266.5 1626.7188,265.9219 L1626.7188,268.6406 Z "/><text fill="#000000" font-family="sans-serif" font-size="12" lengthAdjust="spacingAndGlyphs" textLength="25" x="1644.25" y="267.1543">font</text><line style="stroke: #A80036; stroke-width: 1.5;" x1="1580" x2="1701" y1="279" y2="279"/><ellipse cx="1590" cy="290" fill="none" rx="3" ry="3" style="stroke: #038048; stroke-width: 1.0;"/><text fill="#000000" font-family="sans-serif" font-size="11" lengthAdjust="spacingAndGlyphs" textLength="97" x="1599" y="293.2104">family std::string</text><ellipse cx="1590" cy="302.8047" fill="none" rx="3" ry="3" style="stroke: #038048; stroke-width: 1.0;"/><text fill="#000000" font-family="sans-serif" font-size="11" lengthAdjust="spacingAndGlyphs" textLength="90" x="1599" y="306.0151">style std::string</text><ellipse cx="1590" cy="315.6094" fill="none" rx="3" ry="3" style="stroke: #038048; stroke-width: 1.0;"/><text fill="#000000" font-family="sans-serif" font-size="11" lengthAdjust="spacingAndGlyphs" textLength="95" x="1599" y="318.8198">name std::string</text><line style="stroke: #A80036; stroke-width: 1.5;" x1="1580" x2="1701" y1="325.4141" y2="325.4141"/><!--MD5=[1fd22289eb57a64775c784614f4028e3]
class entities::composite--><rect fill="#ED8181" filter="url(#f167i6bqf4eivs)" height="92.3516" id="entities::composite" style="stroke: #A80036; stroke-width: 1.5;" width="307" x="1737" y="244"/><rect fill="#ED8181" height="37.9375" style="stroke: #A80036; stroke-width: 1.5;" width="307" x="1737" y="244"/><ellipse cx="1823.75" cy="262.9688" fill="#ADD1B2" rx="11" ry="11" style="stroke: #A80036; stroke-width: 1.0;"/><path d="M1826.7188,268.6094 Q1826.1406,268.9063 1825.5,269.0547 Q1824.8594,269.2031 1824.1563,269.2031 Q1821.6563,269.2031 1820.3359,267.5547 Q1819.0156,265.9063 1819.0156,262.7813 Q1819.0156,259.6563 1820.3359,258 Q1821.6563,256.3438 1824.1563,256.3438 Q1824.8594,256.3438 1825.5078,256.5 Q1826.1563,256.6563 1826.7188,256.9531 L1826.7188,259.6719 Q1826.0938,259.0938 1825.5,258.8203 Q1824.9063,258.5469 1824.2813,258.5469 Q1822.9375,258.5469 1822.25,259.6172 Q1821.5625,260.6875 1821.5625,262.7813 Q1821.5625,264.875 1822.25,265.9453 Q1822.9375,267.0156 1824.2813,267.0156 Q1824.9063,267.0156 1825.5,266.7422 Q1826.0938,266.4688 1826.7188,265.8906 L1826.7188,268.6094 Z "/><text fill="#000000" font-family="sans-serif" font-size="12" font-style="italic" lengthAdjust="spacingAndGlyphs" textLength="129" x="1842.25" y="260.1387">«dogen::untestable»</text><text fill="#000000" font-family="sans-serif" font-size="12" lengthAdjust="spacingAndGlyphs" textLength="65" x="1874.25" y="274.1074">composite</text><line style="stroke: #A80036; stroke-width: 1.5;" x1="1738" x2="2043" y1="281.9375" y2="281.9375"/><ellipse cx="1748" cy="292.9375" fill="none" rx="3" ry="3" style="stroke: #038048; stroke-width: 1.0;"/><text fill="#000000" font-family="sans-serif" font-size="11" lengthAdjust="spacingAndGlyphs" textLength="87" x="1757" y="296.1479">type std::string</text><ellipse cx="1748" cy="305.7422" fill="none" rx="3" ry="3" style="stroke: #038048; stroke-width: 1.0;"/><text fill="#000000" font-family="sans-serif" font-size="11" lengthAdjust="spacingAndGlyphs" textLength="281" x="1757" y="308.9526">value std::vector&lt;boost::shared_ptr&lt;attribute&gt;&gt;</text><ellipse cx="1748" cy="318.5469" fill="none" rx="3" ry="3" style="stroke: #038048; stroke-width: 1.0;"/><text fill="#000000" font-family="sans-serif" font-size="11" lengthAdjust="spacingAndGlyphs" textLength="277" x="1757" y="321.7573">inner_composite boost::shared_ptr&lt;composite&gt;</text><line style="stroke: #A80036; stroke-width: 1.5;" x1="1738" x2="2043" y1="328.3516" y2="328.3516"/><!--MD5=[2143a4b192e54374fd66228b8e6587f2]
class entities::color--><rect fill="#F7E5FF" filter="url(#f167i6bqf4eivs)" height="60.8047" id="entities::color" style="stroke: #A80036; stroke-width: 1.5;" width="119" x="2079" y="259.5"/><rect fill="#F7E5FF" height="32" style="stroke: #A80036; stroke-width: 1.5;" width="119" x="2079" y="259.5"/><ellipse cx="2119.2" cy="275.5" fill="#ADD1B2" rx="11" ry="11" style="stroke: #A80036; stroke-width: 1.0;"/><path d="M2122.1688,281.1406 Q2121.5906,281.4375 2120.95,281.5859 Q2120.3094,281.7344 2119.6063,281.7344 Q2117.1063,281.7344 2115.7859,280.0859 Q2114.4656,278.4375 2114.4656,275.3125 Q2114.4656,272.1875 2115.7859,270.5313 Q2117.1063,268.875 2119.6063,268.875 Q2120.3094,268.875 2120.9578,269.0313 Q2121.6063,269.1875 2122.1688,269.4844 L2122.1688,272.2031 Q2121.5438,271.625 2120.95,271.3516 Q2120.3563,271.0781 2119.7313,271.0781 Q2118.3875,271.0781 2117.7,272.1484 Q2117.0125,273.2188 2117.0125,275.3125 Q2117.0125,277.4063 2117.7,278.4766 Q2118.3875,279.5469 2119.7313,279.5469 Q2120.3563,279.5469 2120.95,279.2734 Q2121.5438,279 2122.1688,278.4219 L2122.1688,281.1406 Z "/><text fill="#000000" font-family="sans-serif" font-size="12" lengthAdjust="spacingAndGlyphs" textLength="31" x="2138.8" y="279.6543">color</text><line style="stroke: #A80036; stroke-width: 1.5;" x1="2080" x2="2197" y1="291.5" y2="291.5"/><ellipse cx="2090" cy="302.5" fill="none" rx="3" ry="3" style="stroke: #038048; stroke-width: 1.0;"/><text fill="#000000" font-family="sans-serif" font-size="11" lengthAdjust="spacingAndGlyphs" textLength="93" x="2099" y="305.7104">value std::string</text><line style="stroke: #A80036; stroke-width: 1.5;" x1="2080" x2="2197" y1="312.3047" y2="312.3047"/><!--MD5=[11066f05f61f64ed5d0835eebef8072b]
class entities::real--><rect fill="#F7E5FF" filter="url(#f167i6bqf4eivs)" height="60.8047" id="entities::real" style="stroke: #A80036; stroke-width: 1.5;" width="119" x="706" y="396"/><rect fill="#F7E5FF" height="32" style="stroke: #A80036; stroke-width: 1.5;" width="119" x="706" y="396"/><ellipse cx="749.35" cy="412" fill="#ADD1B2" rx="11" ry="11" style="stroke: #A80036; stroke-width: 1.0;"/><path d="M752.3188,417.6406 Q751.7406,417.9375 751.1,418.0859 Q750.4594,418.2344 749.7563,418.2344 Q747.2563,418.2344 745.9359,416.5859 Q744.6156,414.9375 744.6156,411.8125 Q744.6156,408.6875 745.9359,407.0313 Q747.2563,405.375 749.7563,405.375 Q750.4594,405.375 751.1078,405.5313 Q751.7563,405.6875 752.3188,405.9844 L752.3188,408.7031 Q751.6938,408.125 751.1,407.8516 Q750.5063,407.5781 749.8813,407.5781 Q748.5375,407.5781 747.85,408.6484 Q747.1625,409.7188 747.1625,411.8125 Q747.1625,413.9063 747.85,414.9766 Q748.5375,416.0469 749.8813,416.0469 Q750.5063,416.0469 751.1,415.7734 Q751.6938,415.5 752.3188,414.9219 L752.3188,417.6406 Z "/><text fill="#000000" font-family="sans-serif" font-size="12" lengthAdjust="spacingAndGlyphs" textLength="24" x="769.65" y="416.1543">real</text><line style="stroke: #A80036; stroke-width: 1.5;" x1="707" x2="824" y1="428" y2="428"/><ellipse cx="717" cy="439" fill="none" rx="3" ry="3" style="stroke: #038048; stroke-width: 1.0;"/><text fill="#000000" font-family="sans-serif" font-size="11" lengthAdjust="spacingAndGlyphs" textLength="93" x="726" y="442.2104">value std::string</text><line style="stroke: #A80036; stroke-width: 1.5;" x1="707" x2="824" y1="448.8047" y2="448.8047"/><!--MD5=[d04c4b012c0f246f8a3bd1f3a98c962e]
class entities::integer--><rect fill="#F7E5FF" filter="url(#f167i6bqf4eivs)" height="60.8047" id="entities::integer" style="stroke: #A80036; stroke-width: 1.5;" width="119" x="860" y="396"/><rect fill="#F7E5FF" height="32" style="stroke: #A80036; stroke-width: 1.5;" width="119" x="860" y="396"/><ellipse cx="893.9" cy="412" fill="#ADD1B2" rx="11" ry="11" style="stroke: #A80036; stroke-width: 1.0;"/><path d="M896.8688,417.6406 Q896.2906,417.9375 895.65,418.0859 Q895.0094,418.2344 894.3063,418.2344 Q891.8063,418.2344 890.4859,416.5859 Q889.1656,414.9375 889.1656,411.8125 Q889.1656,408.6875 890.4859,407.0313 Q891.8063,405.375 894.3063,405.375 Q895.0094,405.375 895.6578,405.5313 Q896.3063,405.6875 896.8688,405.9844 L896.8688,408.7031 Q896.2438,408.125 895.65,407.8516 Q895.0563,407.5781 894.4313,407.5781 Q893.0875,407.5781 892.4,408.6484 Q891.7125,409.7188 891.7125,411.8125 Q891.7125,413.9063 892.4,414.9766 Q893.0875,416.0469 894.4313,416.0469 Q895.0563,416.0469 895.65,415.7734 Q896.2438,415.5 896.8688,414.9219 L896.8688,417.6406 Z "/><text fill="#000000" font-family="sans-serif" font-size="12" lengthAdjust="spacingAndGlyphs" textLength="45" x="912.1" y="416.1543">integer</text><line style="stroke: #A80036; stroke-width: 1.5;" x1="861" x2="978" y1="428" y2="428"/><ellipse cx="871" cy="439" fill="none" rx="3" ry="3" style="stroke: #038048; stroke-width: 1.0;"/><text fill="#000000" font-family="sans-serif" font-size="11" lengthAdjust="spacingAndGlyphs" textLength="93" x="880" y="442.2104">value std::string</text><line style="stroke: #A80036; stroke-width: 1.5;" x1="861" x2="978" y1="448.8047" y2="448.8047"/><!--MD5=[955d6cd415cccbe0e258fe71a3d63033]
class entities::boolean--><rect fill="#F7E5FF" filter="url(#f167i6bqf4eivs)" height="60.8047" id="entities::boolean" style="stroke: #A80036; stroke-width: 1.5;" width="119" x="1014" y="396"/><rect fill="#F7E5FF" height="32" style="stroke: #A80036; stroke-width: 1.5;" width="119" x="1014" y="396"/><ellipse cx="1045.2" cy="412" fill="#ADD1B2" rx="11" ry="11" style="stroke: #A80036; stroke-width: 1.0;"/><path d="M1048.1688,417.6406 Q1047.5906,417.9375 1046.95,418.0859 Q1046.3094,418.2344 1045.6063,418.2344 Q1043.1063,418.2344 1041.7859,416.5859 Q1040.4656,414.9375 1040.4656,411.8125 Q1040.4656,408.6875 1041.7859,407.0313 Q1043.1063,405.375 1045.6063,405.375 Q1046.3094,405.375 1046.9578,405.5313 Q1047.6063,405.6875 1048.1688,405.9844 L1048.1688,408.7031 Q1047.5438,408.125 1046.95,407.8516 Q1046.3563,407.5781 1045.7313,407.5781 Q1044.3875,407.5781 1043.7,408.6484 Q1043.0125,409.7188 1043.0125,411.8125 Q1043.0125,413.9063 1043.7,414.9766 Q1044.3875,416.0469 1045.7313,416.0469 Q1046.3563,416.0469 1046.95,415.7734 Q1047.5438,415.5 1048.1688,414.9219 L1048.1688,417.6406 Z "/><text fill="#000000" font-family="sans-serif" font-size="12" lengthAdjust="spacingAndGlyphs" textLength="51" x="1062.8" y="416.1543">boolean</text><line style="stroke: #A80036; stroke-width: 1.5;" x1="1015" x2="1132" y1="428" y2="428"/><ellipse cx="1025" cy="439" fill="none" rx="3" ry="3" style="stroke: #038048; stroke-width: 1.0;"/><text fill="#000000" font-family="sans-serif" font-size="11" lengthAdjust="spacingAndGlyphs" textLength="93" x="1034" y="442.2104">value std::string</text><line style="stroke: #A80036; stroke-width: 1.5;" x1="1015" x2="1132" y1="448.8047" y2="448.8047"/><!--MD5=[7675e54bb301a9ce222c40dd34e6c0b8]
class entities::point--><rect fill="#F7E5FF" filter="url(#f167i6bqf4eivs)" height="60.8047" id="entities::point" style="stroke: #A80036; stroke-width: 1.5;" width="119" x="1168" y="396"/><rect fill="#F7E5FF" height="32" style="stroke: #A80036; stroke-width: 1.5;" width="119" x="1168" y="396"/><ellipse cx="1207.75" cy="412" fill="#ADD1B2" rx="11" ry="11" style="stroke: #A80036; stroke-width: 1.0;"/><path d="M1210.7188,417.6406 Q1210.1406,417.9375 1209.5,418.0859 Q1208.8594,418.2344 1208.1563,418.2344 Q1205.6563,418.2344 1204.3359,416.5859 Q1203.0156,414.9375 1203.0156,411.8125 Q1203.0156,408.6875 1204.3359,407.0313 Q1205.6563,405.375 1208.1563,405.375 Q1208.8594,405.375 1209.5078,405.5313 Q1210.1563,405.6875 1210.7188,405.9844 L1210.7188,408.7031 Q1210.0938,408.125 1209.5,407.8516 Q1208.9063,407.5781 1208.2813,407.5781 Q1206.9375,407.5781 1206.25,408.6484 Q1205.5625,409.7188 1205.5625,411.8125 Q1205.5625,413.9063 1206.25,414.9766 Q1206.9375,416.0469 1208.2813,416.0469 Q1208.9063,416.0469 1209.5,415.7734 Q1210.0938,415.5 1210.7188,414.9219 L1210.7188,417.6406 Z "/><text fill="#000000" font-family="sans-serif" font-size="12" lengthAdjust="spacingAndGlyphs" textLength="32" x="1227.25" y="416.1543">point</text><line style="stroke: #A80036; stroke-width: 1.5;" x1="1169" x2="1286" y1="428" y2="428"/><ellipse cx="1179" cy="439" fill="none" rx="3" ry="3" style="stroke: #038048; stroke-width: 1.0;"/><text fill="#000000" font-family="sans-serif" font-size="11" lengthAdjust="spacingAndGlyphs" textLength="93" x="1188" y="442.2104">value std::string</text><line style="stroke: #A80036; stroke-width: 1.5;" x1="1169" x2="1286" y1="448.8047" y2="448.8047"/><!--MD5=[460b860507682c499de839c6ca4f24cb]
class entities::enumeration--><rect fill="#F7E5FF" filter="url(#f167i6bqf4eivs)" height="60.8047" id="entities::enumeration" style="stroke: #A80036; stroke-width: 1.5;" width="119" x="1322" y="396"/><rect fill="#F7E5FF" height="32" style="stroke: #A80036; stroke-width: 1.5;" width="119" x="1322" y="396"/><ellipse cx="1340.15" cy="412" fill="#ADD1B2" rx="11" ry="11" style="stroke: #A80036; stroke-width: 1.0;"/><path d="M1343.1188,417.6406 Q1342.5406,417.9375 1341.9,418.0859 Q1341.2594,418.2344 1340.5563,418.2344 Q1338.0563,418.2344 1336.7359,416.5859 Q1335.4156,414.9375 1335.4156,411.8125 Q1335.4156,408.6875 1336.7359,407.0313 Q1338.0563,405.375 1340.5563,405.375 Q1341.2594,405.375 1341.9078,405.5313 Q1342.5563,405.6875 1343.1188,405.9844 L1343.1188,408.7031 Q1342.4938,408.125 1341.9,407.8516 Q1341.3063,407.5781 1340.6813,407.5781 Q1339.3375,407.5781 1338.65,408.6484 Q1337.9625,409.7188 1337.9625,411.8125 Q1337.9625,413.9063 1338.65,414.9766 Q1339.3375,416.0469 1340.6813,416.0469 Q1341.3063,416.0469 1341.9,415.7734 Q1342.4938,415.5 1343.1188,414.9219 L1343.1188,417.6406 Z "/><text fill="#000000" font-family="sans-serif" font-size="12" lengthAdjust="spacingAndGlyphs" textLength="80" x="1354.85" y="416.1543">enumeration</text><line style="stroke: #A80036; stroke-width: 1.5;" x1="1323" x2="1440" y1="428" y2="428"/><ellipse cx="1333" cy="439" fill="none" rx="3" ry="3" style="stroke: #038048; stroke-width: 1.0;"/><text fill="#000000" font-family="sans-serif" font-size="11" lengthAdjust="spacingAndGlyphs" textLength="93" x="1342" y="442.2104">value std::string</text><line style="stroke: #A80036; stroke-width: 1.5;" x1="1323" x2="1440" y1="448.8047" y2="448.8047"/><!--MD5=[cc732d6d7f98f59eddf4250e1bb8be9f]
class entities::string--><rect fill="#F7E5FF" filter="url(#f167i6bqf4eivs)" height="60.8047" id="entities::string" style="stroke: #A80036; stroke-width: 1.5;" width="119" x="706" y="517"/><rect fill="#F7E5FF" height="32" style="stroke: #A80036; stroke-width: 1.5;" width="119" x="706" y="517"/><ellipse cx="743.95" cy="533" fill="#ADD1B2" rx="11" ry="11" style="stroke: #A80036; stroke-width: 1.0;"/><path d="M746.9188,538.6406 Q746.3406,538.9375 745.7,539.0859 Q745.0594,539.2344 744.3563,539.2344 Q741.8563,539.2344 740.5359,537.5859 Q739.2156,535.9375 739.2156,532.8125 Q739.2156,529.6875 740.5359,528.0313 Q741.8563,526.375 744.3563,526.375 Q745.0594,526.375 745.7078,526.5313 Q746.3563,526.6875 746.9188,526.9844 L746.9188,529.7031 Q746.2938,529.125 745.7,528.8516 Q745.1063,528.5781 744.4813,528.5781 Q743.1375,528.5781 742.45,529.6484 Q741.7625,530.7188 741.7625,532.8125 Q741.7625,534.9063 742.45,535.9766 Q743.1375,537.0469 744.4813,537.0469 Q745.1063,537.0469 745.7,536.7734 Q746.2938,536.5 746.9188,535.9219 L746.9188,538.6406 Z "/><text fill="#000000" font-family="sans-serif" font-size="12" lengthAdjust="spacingAndGlyphs" textLength="36" x="763.05" y="537.1543">string</text><line style="stroke: #A80036; stroke-width: 1.5;" x1="707" x2="824" y1="549" y2="549"/><ellipse cx="717" cy="560" fill="none" rx="3" ry="3" style="stroke: #038048; stroke-width: 1.0;"/><text fill="#000000" font-family="sans-serif" font-size="11" lengthAdjust="spacingAndGlyphs" textLength="93" x="726" y="563.2104">value std::string</text><line style="stroke: #A80036; stroke-width: 1.5;" x1="707" x2="824" y1="569.8047" y2="569.8047"/><!--MD5=[bba84cf1c363bb41f71d62f13bd687ff]
class entities::rectangle--><rect fill="#F7E5FF" filter="url(#f167i6bqf4eivs)" height="60.8047" id="entities::rectangle" style="stroke: #A80036; stroke-width: 1.5;" width="119" x="860" y="517"/><rect fill="#F7E5FF" height="32" style="stroke: #A80036; stroke-width: 1.5;" width="119" x="860" y="517"/><ellipse cx="887.15" cy="533" fill="#ADD1B2" rx="11" ry="11" style="stroke: #A80036; stroke-width: 1.0;"/><path d="M890.1188,538.6406 Q889.5406,538.9375 888.9,539.0859 Q888.2594,539.2344 887.5563,539.2344 Q885.0563,539.2344 883.7359,537.5859 Q882.4156,535.9375 882.4156,532.8125 Q882.4156,529.6875 883.7359,528.0313 Q885.0563,526.375 887.5563,526.375 Q888.2594,526.375 888.9078,526.5313 Q889.5563,526.6875 890.1188,526.9844 L890.1188,529.7031 Q889.4938,529.125 888.9,528.8516 Q888.3063,528.5781 887.6813,528.5781 Q886.3375,528.5781 885.65,529.6484 Q884.9625,530.7188 884.9625,532.8125 Q884.9625,534.9063 885.65,535.9766 Q886.3375,537.0469 887.6813,537.0469 Q888.3063,537.0469 888.9,536.7734 Q889.4938,536.5 890.1188,535.9219 L890.1188,538.6406 Z "/><text fill="#000000" font-family="sans-serif" font-size="12" lengthAdjust="spacingAndGlyphs" textLength="60" x="903.85" y="537.1543">rectangle</text><line style="stroke: #A80036; stroke-width: 1.5;" x1="861" x2="978" y1="549" y2="549"/><ellipse cx="871" cy="560" fill="none" rx="3" ry="3" style="stroke: #038048; stroke-width: 1.0;"/><text fill="#000000" font-family="sans-serif" font-size="11" lengthAdjust="spacingAndGlyphs" textLength="93" x="880" y="563.2104">value std::string</text><line style="stroke: #A80036; stroke-width: 1.5;" x1="861" x2="978" y1="569.8047" y2="569.8047"/><!--MD5=[27b967e3889903e1a1923cf71ac10874]
class transforms::transformation_error--><rect fill="#E8C2F8" filter="url(#f167i6bqf4eivs)" height="53.9375" id="transforms::transformation_error" style="stroke: #A80036; stroke-width: 1.5;" width="162" x="2519.5" y="94.5"/><rect fill="#E8C2F8" height="37.9375" style="stroke: #A80036; stroke-width: 1.5;" width="162" x="2519.5" y="94.5"/><ellipse cx="2534.5" cy="113.4688" fill="#ADD1B2" rx="11" ry="11" style="stroke: #A80036; stroke-width: 1.0;"/><path d="M2537.4688,119.1094 Q2536.8906,119.4063 2536.25,119.5547 Q2535.6094,119.7031 2534.9063,119.7031 Q2532.4063,119.7031 2531.0859,118.0547 Q2529.7656,116.4063 2529.7656,113.2813 Q2529.7656,110.1563 2531.0859,108.5 Q2532.4063,106.8438 2534.9063,106.8438 Q2535.6094,106.8438 2536.2578,107 Q2536.9063,107.1563 2537.4688,107.4531 L2537.4688,110.1719 Q2536.8438,109.5938 2536.25,109.3203 Q2535.6563,109.0469 2535.0313,109.0469 Q2533.6875,109.0469 2533,110.1172 Q2532.3125,111.1875 2532.3125,113.2813 Q2532.3125,115.375 2533,116.4453 Q2533.6875,117.5156 2535.0313,117.5156 Q2535.6563,117.5156 2536.25,117.2422 Q2536.8438,116.9688 2537.4688,116.3906 L2537.4688,119.1094 Z "/><text fill="#000000" font-family="sans-serif" font-size="12" font-style="italic" lengthAdjust="spacingAndGlyphs" textLength="117" x="2555" y="110.6387">«masd::exception»</text><text fill="#000000" font-family="sans-serif" font-size="12" lengthAdjust="spacingAndGlyphs" textLength="130" x="2548.5" y="124.6074">transformation_error</text><line style="stroke: #A80036; stroke-width: 1.5;" x1="2520.5" x2="2680.5" y1="132.4375" y2="132.4375"/><line style="stroke: #A80036; stroke-width: 1.5;" x1="2520.5" x2="2680.5" y1="140.4375" y2="140.4375"/><!--MD5=[2eac32b17dac3bcfacd96c4515884025]
class transforms::string_to_diagram_transform--><rect fill="#FFFACD" filter="url(#f167i6bqf4eivs)" height="53.9375" id="transforms::string_to_diagram_transform" style="stroke: #A80036; stroke-width: 1.5;" width="230" x="2254.5" y="94.5"/><rect fill="#FFFACD" height="37.9375" style="stroke: #A80036; stroke-width: 1.5;" width="230" x="2254.5" y="94.5"/><ellipse cx="2269.5" cy="113.4688" fill="#ADD1B2" rx="11" ry="11" style="stroke: #A80036; stroke-width: 1.0;"/><path d="M2272.4688,119.1094 Q2271.8906,119.4063 2271.25,119.5547 Q2270.6094,119.7031 2269.9063,119.7031 Q2267.4063,119.7031 2266.0859,118.0547 Q2264.7656,116.4063 2264.7656,113.2813 Q2264.7656,110.1563 2266.0859,108.5 Q2267.4063,106.8438 2269.9063,106.8438 Q2270.6094,106.8438 2271.2578,107 Q2271.9063,107.1563 2272.4688,107.4531 L2272.4688,110.1719 Q2271.8438,109.5938 2271.25,109.3203 Q2270.6563,109.0469 2270.0313,109.0469 Q2268.6875,109.0469 2268,110.1172 Q2267.3125,111.1875 2267.3125,113.2813 Q2267.3125,115.375 2268,116.4453 Q2268.6875,117.5156 2270.0313,117.5156 Q2270.6563,117.5156 2271.25,117.2422 Q2271.8438,116.9688 2272.4688,116.3906 L2272.4688,119.1094 Z "/><text fill="#000000" font-family="sans-serif" font-size="12" font-style="italic" lengthAdjust="spacingAndGlyphs" textLength="202" x="2281.5" y="110.6387">«dogen::handcrafted::typeable»</text><text fill="#000000" font-family="sans-serif" font-size="12" lengthAdjust="spacingAndGlyphs" textLength="179" x="2293" y="124.6074">string_to_diagram_transform</text><line style="stroke: #A80036; stroke-width: 1.5;" x1="2255.5" x2="2483.5" y1="132.4375" y2="132.4375"/><line style="stroke: #A80036; stroke-width: 1.5;" x1="2255.5" x2="2483.5" y1="140.4375" y2="140.4375"/><path d="M20.5,94 L20.5,149.3984 L358.5,149.3984 L358.5,104 L348.5,94 L20.5,94 " fill="#FBFB77" filter="url(#f167i6bqf4eivs)" style="stroke: #A80036; stroke-width: 1.0;"/><path d="M348.5,94 L348.5,104 L358.5,104 L348.5,94 " fill="#FBFB77" style="stroke: #A80036; stroke-width: 1.0;"/><text fill="#000000" font-family="sans-serif" font-size="13" lengthAdjust="spacingAndGlyphs" textLength="0" x="30.5" y="111.0669"/><text fill="#000000" font-family="sans-serif" font-size="13" lengthAdjust="spacingAndGlyphs" textLength="317" x="26.5" y="126.1997">Represents the domain of the Dia diagram editor.</text><text fill="#000000" font-family="sans-serif" font-size="13" lengthAdjust="spacingAndGlyphs" textLength="0" x="30.5" y="141.3325"/><!--MD5=[4520fda4e10d4d791ce48fe025810cd4]
class main--><rect fill="#DDA9F3" filter="url(#f167i6bqf4eivs)" height="53.9375" id="main" style="stroke: #A80036; stroke-width: 1.5;" width="273" x="394" y="94.5"/><rect fill="#DDA9F3" height="37.9375" style="stroke: #A80036; stroke-width: 1.5;" width="273" x="394" y="94.5"/><ellipse cx="409" cy="113.4688" fill="#ADD1B2" rx="11" ry="11" style="stroke: #A80036; stroke-width: 1.0;"/><path d="M411.9688,119.1094 Q411.3906,119.4063 410.75,119.5547 Q410.1094,119.7031 409.4063,119.7031 Q406.9063,119.7031 405.5859,118.0547 Q404.2656,116.4063 404.2656,113.2813 Q404.2656,110.1563 405.5859,108.5 Q406.9063,106.8438 409.4063,106.8438 Q410.1094,106.8438 410.7578,107 Q411.4063,107.1563 411.9688,107.4531 L411.9688,110.1719 Q411.3438,109.5938 410.75,109.3203 Q410.1563,109.0469 409.5313,109.0469 Q408.1875,109.0469 407.5,110.1172 Q406.8125,111.1875 406.8125,113.2813 Q406.8125,115.375 407.5,116.4453 Q408.1875,117.5156 409.5313,117.5156 Q410.1563,117.5156 410.75,117.2422 Q411.3438,116.9688 411.9688,116.3906 L411.9688,119.1094 Z "/><text fill="#000000" font-family="sans-serif" font-size="12" font-style="italic" lengthAdjust="spacingAndGlyphs" textLength="245" x="421" y="110.6387">«masd::entry_point, dogen::untypable»</text><text fill="#000000" font-family="sans-serif" font-size="12" lengthAdjust="spacingAndGlyphs" textLength="30" x="528.5" y="124.6074">main</text><line style="stroke: #A80036; stroke-width: 1.5;" x1="395" x2="666" y1="132.4375" y2="132.4375"/><line style="stroke: #A80036; stroke-width: 1.5;" x1="395" x2="666" y1="140.4375" y2="140.4375"/><!--MD5=[ba83386d426114557685538e96aa6f68]
class CMakeLists--><rect fill="#99CB99" filter="url(#f167i6bqf4eivs)" height="53.9375" id="CMakeLists" style="stroke: #A80036; stroke-width: 1.5;" width="367" x="6" y="263"/><rect fill="#99CB99" height="37.9375" style="stroke: #A80036; stroke-width: 1.5;" width="367" x="6" y="263"/><ellipse cx="21" cy="281.9688" fill="#ADD1B2" rx="11" ry="11" style="stroke: #A80036; stroke-width: 1.0;"/><path d="M23.9688,287.6094 Q23.3906,287.9063 22.75,288.0547 Q22.1094,288.2031 21.4063,288.2031 Q18.9063,288.2031 17.5859,286.5547 Q16.2656,284.9063 16.2656,281.7813 Q16.2656,278.6563 17.5859,277 Q18.9063,275.3438 21.4063,275.3438 Q22.1094,275.3438 22.7578,275.5 Q23.4063,275.6563 23.9688,275.9531 L23.9688,278.6719 Q23.3438,278.0938 22.75,277.8203 Q22.1563,277.5469 21.5313,277.5469 Q20.1875,277.5469 19.5,278.6172 Q18.8125,279.6875 18.8125,281.7813 Q18.8125,283.875 19.5,284.9453 Q20.1875,286.0156 21.5313,286.0156 Q22.1563,286.0156 22.75,285.7422 Q23.3438,285.4688 23.9688,284.8906 L23.9688,287.6094 Z "/><text fill="#000000" font-family="sans-serif" font-size="12" font-style="italic" lengthAdjust="spacingAndGlyphs" textLength="339" x="33" y="279.1387">«masd::build::cmakelists, dogen::handcrafted::cmake»</text><text fill="#000000" font-family="sans-serif" font-size="12" lengthAdjust="spacingAndGlyphs" textLength="69" x="168" y="293.1074">CMakeLists</text><line style="stroke: #A80036; stroke-width: 1.5;" x1="7" x2="372" y1="300.9375" y2="300.9375"/><line style="stroke: #A80036; stroke-width: 1.5;" x1="7" x2="372" y1="308.9375" y2="308.9375"/><!--MD5=[2559f8586bed6994aaff5fccfe2e1961]
link N1 to main--><!--MD5=[9e9c51775e7b6bd5abca09222a5cb167]
link N1 to CMakeLists--><!--MD5=[5f0a57f37a996edc10e11384bd7fb9c2]
link entities::diagram to entities::layer--><!--MD5=[30137beccc5ca1546a7622145eb821f3]
link entities::layer to entities::object--><!--MD5=[cb83093f62d6de9370b1276c678e8e5f]
link entities::object to entities::connection--><!--MD5=[fa18f7efb7a3d0169c6af1af3f10125b]
link entities::connection to entities::diagram_data--><!--MD5=[1a3159a83a3c1c9984ffe7a608c12cd9]
link entities::diagram to entities::child_node--><!--MD5=[0a6829d0833f0acc394229532c86101c]
link entities::child_node to entities::attribute--><!--MD5=[2b83ba247ab2356511e19b7196b753ea]
link entities::attribute to entities::font--><!--MD5=[fb5a20b573bdc3c9bffd4808deec1558]
link entities::font to entities::composite--><!--MD5=[65435c17755a1cca4c9d07ee8bcf7713]
link entities::composite to entities::color--><!--MD5=[1b5a8296b839148f565854528a5e53be]
link entities::child_node to entities::real--><!--MD5=[241dc6c5cd133c6aedc39b231419853e]
link entities::real to entities::integer--><!--MD5=[152466daa542ce08a88049398b528abb]
link entities::integer to entities::boolean--><!--MD5=[1611b4435c596357746cc725307e19dd]
link entities::boolean to entities::point--><!--MD5=[852460299965065e754a1c549ccdc903]
link entities::point to entities::enumeration--><!--MD5=[1c8615e2d380b920d0c8bfb2e445c0bd]
link entities::real to entities::string--><!--MD5=[a1ccdb3fe4333b9a31a1aa3f54abbea4]
link entities::string to entities::rectangle--><!--MD5=[44f32ac2aafa24f031a744b6ce22c202]
@startuml
set namespaceSeparator ::
note as N1

Represents the domain of the Dia diagram editor.

end note

class main <<masd::entry_point, dogen::untypable>> #DDA9F3 {
}

class CMakeLists <<masd::build::cmakelists, dogen::handcrafted::cmake>> #99CB99 {
}

namespace entities #F2F2F2 {
        class diagram #F7E5FF {
                +{field} diagram_data diagram_data
                +{field} layers std::vector<layer>
}

        class layer #F7E5FF {
                +{field} name std::string
                +{field} visible bool
                +{field} active bool
                +{field} objects std::vector<object>
}

        class object #F7E5FF {
                +{field} id std::string
                +{field} type std::string
                +{field} version int
                +{field} connections std::vector<connection>
                +{field} child_node boost::optional<child_node>
                +{field} attributes std::vector<attribute>
}

        class connection #F7E5FF {
                +{field} handle std::string
                +{field} to std::string
                +{field} connection_slot std::string
}

        class diagram_data #F7E5FF {
                +{field} attributes std::vector<attribute>
}

        class child_node #F7E5FF {
                +{field} parent std::string
}

        class attribute #F7E5FF {
                +{field} name std::string
                +{field} values std::vector<boost::variant<color,real,integer,font,boolean,point,string,enumeration,rectangle,composite>>
}

        class font #F7E5FF {
                +{field} family std::string
                +{field} style std::string
                +{field} name std::string
}

        class composite <<dogen::untestable>> #ED8181 {
                +{field} type std::string
                +{field} value std::vector<boost::shared_ptr<attribute>>
                +{field} inner_composite boost::shared_ptr<composite>
}

        class color #F7E5FF {
                +{field} value std::string
}

        class real #F7E5FF {
                +{field} value std::string
}

        class integer #F7E5FF {
                +{field} value std::string
}

        class boolean #F7E5FF {
                +{field} value std::string
}

        class point #F7E5FF {
                +{field} value std::string
}

        class enumeration #F7E5FF {
                +{field} value std::string
}

        class string #F7E5FF {
                +{field} value std::string
}

        class rectangle #F7E5FF {
                +{field} value std::string
}

}

namespace transforms #F2F2F2 {
        class transformation_error <<masd::exception>> #E8C2F8 {
}

        class string_to_diagram_transform <<dogen::handcrafted::typeable>> #FFFACD {
}

}

@enduml

PlantUML version 1.2020.02(Sun Mar 01 10:22:07 GMT 2020)
(GPL source distribution)
Java Runtime: OpenJDK Runtime Environment
JVM: OpenJDK 64-Bit Server VM
Java Version: 1.8.0_212-8u212-b03-2~deb9u1-b03
Operating System: Linux
Default Encoding: UTF-8
Language: en
Country: GB
--></g></svg>