<?xml version="1.0" encoding="UTF-8" standalone="no"?><svg xmlns="http://www.w3.org/2000/svg" xmlns:xlink="http://www.w3.org/1999/xlink" contentStyleType="text/css" height="502px" preserveAspectRatio="none" style="width:6819px;height:502px;background:#FFFFFF;" version="1.1" viewBox="0 0 6819 502" width="6819px" zoomAndPan="magnify"><defs/><g><!--MD5=[2a013135f1f90689be40a3c084fed702]
cluster entities--><g id="cluster_entities"><path d="M879.5,136 L942.5,136 A3.75,3.75 0 0 1 945,138.5 L952,158.2969 L6119.5,158.2969 A2.5,2.5 0 0 1 6122,160.7969 L6122,492.5 A2.5,2.5 0 0 1 6119.5,495 L879.5,495 A2.5,2.5 0 0 1 877,492.5 L877,138.5 A2.5,2.5 0 0 1 879.5,136 " fill="#F2F2F2" style="stroke:#000000;stroke-width:1.5;"/><line style="stroke:#000000;stroke-width:1.5;" x1="877" x2="952" y1="158.2969" y2="158.2969"/><text fill="#000000" font-family="sans-serif" font-size="14" font-weight="bold" lengthAdjust="spacing" textLength="62" x="881" y="150.9951">entities</text></g><!--MD5=[e8c14457c5ec3409b346b9ce068df3a0]
cluster transforms--><g id="cluster_transforms"><path d="M6156.5,6 L6244.5,6 A3.75,3.75 0 0 1 6247,8.5 L6254,28.2969 L6809.5,28.2969 A2.5,2.5 0 0 1 6812,30.7969 L6812,263.5 A2.5,2.5 0 0 1 6809.5,266 L6156.5,266 A2.5,2.5 0 0 1 6154,263.5 L6154,8.5 A2.5,2.5 0 0 1 6156.5,6 " fill="#F2F2F2" style="stroke:#000000;stroke-width:1.5;"/><line style="stroke:#000000;stroke-width:1.5;" x1="6154" x2="6254" y1="28.2969" y2="28.2969"/><text fill="#000000" font-family="sans-serif" font-size="14" font-weight="bold" lengthAdjust="spacing" textLength="87" x="6158" y="20.9951">transforms</text></g><!--MD5=[b9eac5e0637e17572129e059fc70931f]
class entities::diagram--><g id="elem_entities::diagram"><rect codeLine="17" fill="#F7E5FF" height="80.5938" id="entities::diagram" rx="2.5" ry="2.5" style="stroke:#181818;stroke-width:0.5;" width="228" x="5870" y="357.5"/><ellipse cx="5949.75" cy="373.5" fill="#ADD1B2" rx="11" ry="11" style="stroke:#181818;stroke-width:1.0;"/><path d="M5952.7188,379.1406 Q5952.1406,379.4375 5951.5,379.5859 Q5950.8594,379.7344 5950.1563,379.7344 Q5947.6563,379.7344 5946.3359,378.0859 Q5945.0156,376.4375 5945.0156,373.3125 Q5945.0156,370.1875 5946.3359,368.5313 Q5947.6563,366.875 5950.1563,366.875 Q5950.8594,366.875 5951.5078,367.0313 Q5952.1563,367.1875 5952.7188,367.4844 L5952.7188,370.2031 Q5952.0938,369.625 5951.5,369.3516 Q5950.9063,369.0781 5950.2813,369.0781 Q5948.9375,369.0781 5948.25,370.1484 Q5947.5625,371.2188 5947.5625,373.3125 Q5947.5625,375.4063 5948.25,376.4766 Q5948.9375,377.5469 5950.2813,377.5469 Q5950.9063,377.5469 5951.5,377.2734 Q5952.0938,377 5952.7188,376.4219 L5952.7188,379.1406 Z " fill="#000000"/><text fill="#000000" font-family="sans-serif" font-size="14" lengthAdjust="spacing" textLength="60" x="5970.25" y="378.3467">diagram</text><line style="stroke:#181818;stroke-width:0.5;" x1="5871" x2="6097" y1="389.5" y2="389.5"/><ellipse cx="5881" cy="400.5" fill="none" rx="3" ry="3" style="stroke:#038048;stroke-width:1.0;"/><text fill="#000000" font-family="sans-serif" font-size="14" lengthAdjust="spacing" textLength="202" x="5890" y="406.4951">diagram_data diagram_data</text><ellipse cx="5881" cy="416.7969" fill="none" rx="3" ry="3" style="stroke:#038048;stroke-width:1.0;"/><text fill="#000000" font-family="sans-serif" font-size="14" lengthAdjust="spacing" textLength="183" x="5890" y="422.792">layers std::vector&lt;layer&gt;</text><line style="stroke:#181818;stroke-width:0.5;" x1="5871" x2="6097" y1="430.0938" y2="430.0938"/></g><g id="elem_entities::GMN7"><path d="M5888,209.5 L5888,234.6328 A0,0 0 0 0 5888,234.6328 L5988.4,234.6328 L5986.05,357.4 L5996.4,234.6328 L6098,234.6328 A0,0 0 0 0 6098,234.6328 L6098,219.5 L6088,209.5 L5888,209.5 A0,0 0 0 0 5888,209.5 " fill="#FEFFDD" style="stroke:#181818;stroke-width:0.5;"/><path d="M6088,209.5 L6088,219.5 L6098,219.5 L6088,209.5 " fill="#FEFFDD" style="stroke:#181818;stroke-width:0.5;"/><text fill="#000000" font-family="sans-serif" font-size="13" lengthAdjust="spacing" textLength="189" x="5894" y="226.5669">Represents a diagram in Dia.</text></g><!--MD5=[2c63bbbf245247496a854051eca4ab30]
class entities::layer--><g id="elem_entities::layer"><rect codeLine="26" fill="#F7E5FF" height="113.1875" id="entities::layer" rx="2.5" ry="2.5" style="stroke:#181818;stroke-width:0.5;" width="225" x="5609.5" y="341.5"/><ellipse cx="5699.75" cy="357.5" fill="#ADD1B2" rx="11" ry="11" style="stroke:#181818;stroke-width:1.0;"/><path d="M5702.7188,363.1406 Q5702.1406,363.4375 5701.5,363.5859 Q5700.8594,363.7344 5700.1563,363.7344 Q5697.6563,363.7344 5696.3359,362.0859 Q5695.0156,360.4375 5695.0156,357.3125 Q5695.0156,354.1875 5696.3359,352.5313 Q5697.6563,350.875 5700.1563,350.875 Q5700.8594,350.875 5701.5078,351.0313 Q5702.1563,351.1875 5702.7188,351.4844 L5702.7188,354.2031 Q5702.0938,353.625 5701.5,353.3516 Q5700.9063,353.0781 5700.2813,353.0781 Q5698.9375,353.0781 5698.25,354.1484 Q5697.5625,355.2188 5697.5625,357.3125 Q5697.5625,359.4063 5698.25,360.4766 Q5698.9375,361.5469 5700.2813,361.5469 Q5700.9063,361.5469 5701.5,361.2734 Q5702.0938,361 5702.7188,360.4219 L5702.7188,363.1406 Z " fill="#000000"/><text fill="#000000" font-family="sans-serif" font-size="14" lengthAdjust="spacing" textLength="36" x="5720.25" y="362.3467">layer</text><line style="stroke:#181818;stroke-width:0.5;" x1="5610.5" x2="5833.5" y1="373.5" y2="373.5"/><ellipse cx="5620.5" cy="384.5" fill="none" rx="3" ry="3" style="stroke:#038048;stroke-width:1.0;"/><text fill="#000000" font-family="sans-serif" font-size="14" lengthAdjust="spacing" textLength="116" x="5629.5" y="390.4951">name std::string</text><ellipse cx="5620.5" cy="400.7969" fill="none" rx="3" ry="3" style="stroke:#038048;stroke-width:1.0;"/><text fill="#000000" font-family="sans-serif" font-size="14" lengthAdjust="spacing" textLength="80" x="5629.5" y="406.792">visible bool</text><ellipse cx="5620.5" cy="417.0938" fill="none" rx="3" ry="3" style="stroke:#038048;stroke-width:1.0;"/><text fill="#000000" font-family="sans-serif" font-size="14" lengthAdjust="spacing" textLength="78" x="5629.5" y="423.0889">active bool</text><ellipse cx="5620.5" cy="433.3906" fill="none" rx="3" ry="3" style="stroke:#038048;stroke-width:1.0;"/><text fill="#000000" font-family="sans-serif" font-size="14" lengthAdjust="spacing" textLength="199" x="5629.5" y="439.3857">objects std::vector&lt;object&gt;</text><line style="stroke:#181818;stroke-width:0.5;" x1="5610.5" x2="5833.5" y1="446.6875" y2="446.6875"/></g><g id="elem_entities::GMN11"><path d="M5593.5,209.5 L5593.5,234.6328 A0,0 0 0 0 5593.5,234.6328 L5718.93,234.6328 L5722.32,341.17 L5726.93,234.6328 L5852.5,234.6328 A0,0 0 0 0 5852.5,234.6328 L5852.5,219.5 L5842.5,209.5 L5593.5,209.5 A0,0 0 0 0 5593.5,209.5 " fill="#FEFFDD" style="stroke:#181818;stroke-width:0.5;"/><path d="M5842.5,209.5 L5842.5,219.5 L5852.5,219.5 L5842.5,209.5 " fill="#FEFFDD" style="stroke:#181818;stroke-width:0.5;"/><text fill="#000000" font-family="sans-serif" font-size="13" lengthAdjust="spacing" textLength="238" x="5599.5" y="226.5669">Represents a layer in a Dia diagram.</text></g><!--MD5=[122427e7c6336f62e771cbca05bee9af]
class entities::object--><g id="elem_entities::object"><rect codeLine="37" fill="#F7E5FF" height="145.7813" id="entities::object" rx="2.5" ry="2.5" style="stroke:#181818;stroke-width:0.5;" width="315" x="5259.5" y="325"/><ellipse cx="5390.75" cy="341" fill="#ADD1B2" rx="11" ry="11" style="stroke:#181818;stroke-width:1.0;"/><path d="M5393.7188,346.6406 Q5393.1406,346.9375 5392.5,347.0859 Q5391.8594,347.2344 5391.1563,347.2344 Q5388.6563,347.2344 5387.3359,345.5859 Q5386.0156,343.9375 5386.0156,340.8125 Q5386.0156,337.6875 5387.3359,336.0313 Q5388.6563,334.375 5391.1563,334.375 Q5391.8594,334.375 5392.5078,334.5313 Q5393.1563,334.6875 5393.7188,334.9844 L5393.7188,337.7031 Q5393.0938,337.125 5392.5,336.8516 Q5391.9063,336.5781 5391.2813,336.5781 Q5389.9375,336.5781 5389.25,337.6484 Q5388.5625,338.7188 5388.5625,340.8125 Q5388.5625,342.9063 5389.25,343.9766 Q5389.9375,345.0469 5391.2813,345.0469 Q5391.9063,345.0469 5392.5,344.7734 Q5393.0938,344.5 5393.7188,343.9219 L5393.7188,346.6406 Z " fill="#000000"/><text fill="#000000" font-family="sans-serif" font-size="14" lengthAdjust="spacing" textLength="44" x="5411.25" y="345.8467">object</text><line style="stroke:#181818;stroke-width:0.5;" x1="5260.5" x2="5573.5" y1="357" y2="357"/><ellipse cx="5270.5" cy="368" fill="none" rx="3" ry="3" style="stroke:#038048;stroke-width:1.0;"/><text fill="#000000" font-family="sans-serif" font-size="14" lengthAdjust="spacing" textLength="88" x="5279.5" y="373.9951">id std::string</text><ellipse cx="5270.5" cy="384.2969" fill="none" rx="3" ry="3" style="stroke:#038048;stroke-width:1.0;"/><text fill="#000000" font-family="sans-serif" font-size="14" lengthAdjust="spacing" textLength="106" x="5279.5" y="390.292">type std::string</text><ellipse cx="5270.5" cy="400.5938" fill="none" rx="3" ry="3" style="stroke:#038048;stroke-width:1.0;"/><text fill="#000000" font-family="sans-serif" font-size="14" lengthAdjust="spacing" textLength="74" x="5279.5" y="406.5889">version int</text><ellipse cx="5270.5" cy="416.8906" fill="none" rx="3" ry="3" style="stroke:#038048;stroke-width:1.0;"/><text fill="#000000" font-family="sans-serif" font-size="14" lengthAdjust="spacing" textLength="269" x="5279.5" y="422.8857">connections std::vector&lt;connection&gt;</text><ellipse cx="5270.5" cy="433.1875" fill="none" rx="3" ry="3" style="stroke:#038048;stroke-width:1.0;"/><text fill="#000000" font-family="sans-serif" font-size="14" lengthAdjust="spacing" textLength="289" x="5279.5" y="439.1826">child_node boost::optional&lt;child_node&gt;</text><ellipse cx="5270.5" cy="449.4844" fill="none" rx="3" ry="3" style="stroke:#038048;stroke-width:1.0;"/><text fill="#000000" font-family="sans-serif" font-size="14" lengthAdjust="spacing" textLength="233" x="5279.5" y="455.4795">attributes std::vector&lt;attribute&gt;</text><line style="stroke:#181818;stroke-width:0.5;" x1="5260.5" x2="5573.5" y1="462.7813" y2="462.7813"/></g><g id="elem_entities::GMN15"><path d="M5378,209.5 L5378,234.6328 A0,0 0 0 0 5378,234.6328 L5460.57,234.6328 L5438.23,324.58 L5468.57,234.6328 L5558,234.6328 A0,0 0 0 0 5558,234.6328 L5558,219.5 L5548,209.5 L5378,209.5 A0,0 0 0 0 5378,209.5 " fill="#FEFFDD" style="stroke:#181818;stroke-width:0.5;"/><path d="M5548,209.5 L5548,219.5 L5558,219.5 L5548,209.5 " fill="#FEFFDD" style="stroke:#181818;stroke-width:0.5;"/><text fill="#000000" font-family="sans-serif" font-size="13" lengthAdjust="spacing" textLength="159" x="5384" y="226.5669">Represents a Dia object.</text></g><!--MD5=[b5ed01acdc87a7ba6de8a01e5463d11b]
class entities::connection--><g id="elem_entities::connection"><rect codeLine="50" fill="#F7E5FF" height="96.8906" id="entities::connection" rx="2.5" ry="2.5" style="stroke:#181818;stroke-width:0.5;" width="212" x="5012" y="349.5"/><ellipse cx="5074.25" cy="365.5" fill="#ADD1B2" rx="11" ry="11" style="stroke:#181818;stroke-width:1.0;"/><path d="M5077.2188,371.1406 Q5076.6406,371.4375 5076,371.5859 Q5075.3594,371.7344 5074.6563,371.7344 Q5072.1563,371.7344 5070.8359,370.0859 Q5069.5156,368.4375 5069.5156,365.3125 Q5069.5156,362.1875 5070.8359,360.5313 Q5072.1563,358.875 5074.6563,358.875 Q5075.3594,358.875 5076.0078,359.0313 Q5076.6563,359.1875 5077.2188,359.4844 L5077.2188,362.2031 Q5076.5938,361.625 5076,361.3516 Q5075.4063,361.0781 5074.7813,361.0781 Q5073.4375,361.0781 5072.75,362.1484 Q5072.0625,363.2188 5072.0625,365.3125 Q5072.0625,367.4063 5072.75,368.4766 Q5073.4375,369.5469 5074.7813,369.5469 Q5075.4063,369.5469 5076,369.2734 Q5076.5938,369 5077.2188,368.4219 L5077.2188,371.1406 Z " fill="#000000"/><text fill="#000000" font-family="sans-serif" font-size="14" lengthAdjust="spacing" textLength="79" x="5094.75" y="370.3467">connection</text><line style="stroke:#181818;stroke-width:0.5;" x1="5013" x2="5223" y1="381.5" y2="381.5"/><ellipse cx="5023" cy="392.5" fill="none" rx="3" ry="3" style="stroke:#038048;stroke-width:1.0;"/><text fill="#000000" font-family="sans-serif" font-size="14" lengthAdjust="spacing" textLength="124" x="5032" y="398.4951">handle std::string</text><ellipse cx="5023" cy="408.7969" fill="none" rx="3" ry="3" style="stroke:#038048;stroke-width:1.0;"/><text fill="#000000" font-family="sans-serif" font-size="14" lengthAdjust="spacing" textLength="89" x="5032" y="414.792">to std::string</text><ellipse cx="5023" cy="425.0938" fill="none" rx="3" ry="3" style="stroke:#038048;stroke-width:1.0;"/><text fill="#000000" font-family="sans-serif" font-size="14" lengthAdjust="spacing" textLength="186" x="5032" y="431.0889">connection_slot std::string</text><line style="stroke:#181818;stroke-width:0.5;" x1="5013" x2="5223" y1="438.3906" y2="438.3906"/></g><g id="elem_entities::GMN19"><path d="M5019.5,209.5 L5019.5,234.6328 A0,0 0 0 0 5019.5,234.6328 L5172.77,234.6328 L5135.2,349.48 L5180.77,234.6328 L5342.5,234.6328 A0,0 0 0 0 5342.5,234.6328 L5342.5,219.5 L5332.5,209.5 L5019.5,209.5 A0,0 0 0 0 5019.5,209.5 " fill="#FEFFDD" style="stroke:#181818;stroke-width:0.5;"/><path d="M5332.5,209.5 L5332.5,219.5 L5342.5,219.5 L5332.5,209.5 " fill="#FEFFDD" style="stroke:#181818;stroke-width:0.5;"/><text fill="#000000" font-family="sans-serif" font-size="13" lengthAdjust="spacing" textLength="302" x="5025.5" y="226.5669">Connection between entities in a Dia diagram.</text></g><!--MD5=[0cce79248bcf7e0385a34eaa5029fe72]
class entities::diagram_data--><g id="elem_entities::diagram_data"><rect codeLine="60" fill="#F7E5FF" height="64.2969" id="entities::diagram_data" rx="2.5" ry="2.5" style="stroke:#181818;stroke-width:0.5;" width="259" x="4672.5" y="366"/><ellipse cx="4748.25" cy="382" fill="#ADD1B2" rx="11" ry="11" style="stroke:#181818;stroke-width:1.0;"/><path d="M4751.2188,387.6406 Q4750.6406,387.9375 4750,388.0859 Q4749.3594,388.2344 4748.6563,388.2344 Q4746.1563,388.2344 4744.8359,386.5859 Q4743.5156,384.9375 4743.5156,381.8125 Q4743.5156,378.6875 4744.8359,377.0313 Q4746.1563,375.375 4748.6563,375.375 Q4749.3594,375.375 4750.0078,375.5313 Q4750.6563,375.6875 4751.2188,375.9844 L4751.2188,378.7031 Q4750.5938,378.125 4750,377.8516 Q4749.4063,377.5781 4748.7813,377.5781 Q4747.4375,377.5781 4746.75,378.6484 Q4746.0625,379.7188 4746.0625,381.8125 Q4746.0625,383.9063 4746.75,384.9766 Q4747.4375,386.0469 4748.7813,386.0469 Q4749.4063,386.0469 4750,385.7734 Q4750.5938,385.5 4751.2188,384.9219 L4751.2188,387.6406 Z " fill="#000000"/><text fill="#000000" font-family="sans-serif" font-size="14" lengthAdjust="spacing" textLength="99" x="4768.75" y="386.8467">diagram_data</text><line style="stroke:#181818;stroke-width:0.5;" x1="4673.5" x2="4930.5" y1="398" y2="398"/><ellipse cx="4683.5" cy="409" fill="none" rx="3" ry="3" style="stroke:#038048;stroke-width:1.0;"/><text fill="#000000" font-family="sans-serif" font-size="14" lengthAdjust="spacing" textLength="233" x="4692.5" y="414.9951">attributes std::vector&lt;attribute&gt;</text><line style="stroke:#181818;stroke-width:0.5;" x1="4673.5" x2="4930.5" y1="422.2969" y2="422.2969"/></g><g id="elem_entities::GMN23"><path d="M4620,209.5 L4620,234.6328 A0,0 0 0 0 4620,234.6328 L4798,234.6328 L4802,365.87 L4806,234.6328 L4984,234.6328 A0,0 0 0 0 4984,234.6328 L4984,219.5 L4974,209.5 L4620,209.5 A0,0 0 0 0 4620,209.5 " fill="#FEFFDD" style="stroke:#181818;stroke-width:0.5;"/><path d="M4974,209.5 L4974,219.5 L4984,219.5 L4974,209.5 " fill="#FEFFDD" style="stroke:#181818;stroke-width:0.5;"/><text fill="#000000" font-family="sans-serif" font-size="13" lengthAdjust="spacing" textLength="343" x="4626" y="226.5669">Represents a all the data associated with a diagram.</text></g><!--MD5=[099366974d52902939be6a57f202363e]
class entities::child_node--><g id="elem_entities::child_node"><rect codeLine="68" fill="#F7E5FF" height="64.2969" id="entities::child_node" rx="2.5" ry="2.5" style="stroke:#181818;stroke-width:0.5;" width="148" x="4444" y="366"/><ellipse cx="4476.55" cy="382" fill="#ADD1B2" rx="11" ry="11" style="stroke:#181818;stroke-width:1.0;"/><path d="M4479.5188,387.6406 Q4478.9406,387.9375 4478.3,388.0859 Q4477.6594,388.2344 4476.9563,388.2344 Q4474.4563,388.2344 4473.1359,386.5859 Q4471.8156,384.9375 4471.8156,381.8125 Q4471.8156,378.6875 4473.1359,377.0313 Q4474.4563,375.375 4476.9563,375.375 Q4477.6594,375.375 4478.3078,375.5313 Q4478.9563,375.6875 4479.5188,375.9844 L4479.5188,378.7031 Q4478.8938,378.125 4478.3,377.8516 Q4477.7063,377.5781 4477.0813,377.5781 Q4475.7375,377.5781 4475.05,378.6484 Q4474.3625,379.7188 4474.3625,381.8125 Q4474.3625,383.9063 4475.05,384.9766 Q4475.7375,386.0469 4477.0813,386.0469 Q4477.7063,386.0469 4478.3,385.7734 Q4478.8938,385.5 4479.5188,384.9219 L4479.5188,387.6406 Z " fill="#000000"/><text fill="#000000" font-family="sans-serif" font-size="14" lengthAdjust="spacing" textLength="77" x="4494.45" y="386.8467">child_node</text><line style="stroke:#181818;stroke-width:0.5;" x1="4445" x2="4591" y1="398" y2="398"/><ellipse cx="4455" cy="409" fill="none" rx="3" ry="3" style="stroke:#038048;stroke-width:1.0;"/><text fill="#000000" font-family="sans-serif" font-size="14" lengthAdjust="spacing" textLength="122" x="4464" y="414.9951">parent std::string</text><line style="stroke:#181818;stroke-width:0.5;" x1="4445" x2="4591" y1="422.2969" y2="422.2969"/></g><g id="elem_entities::GMN27"><path d="M3881.5,179 L3881.5,264.6641 L4584.5,264.6641 L4584.5,189 L4574.5,179 L3881.5,179 " fill="#FEFFDD" style="stroke:#181818;stroke-width:0.5;"/><path d="M4574.5,179 L4574.5,189 L4584.5,189 L4574.5,179 " fill="#FEFFDD" style="stroke:#181818;stroke-width:1.0;"/><text fill="#000000" font-family="sans-serif" font-size="13" lengthAdjust="spacing" textLength="249" x="3919.5" y="196.0669">Represents a child_node in a diagram.</text><text fill="#000000" font-family="sans-serif" font-size="13" lengthAdjust="spacing" textLength="4" x="3887.5" y="211.1997"> </text><text fill="#000000" font-family="sans-serif" font-size="13" lengthAdjust="spacing" textLength="680" x="3887.5" y="226.3325">Child nodes are used in Dia to represent the relationship between a package and the entities it contains.</text><text fill="#000000" font-family="sans-serif" font-size="13" lengthAdjust="spacing" textLength="682" x="3887.5" y="241.4653">For example, if class O1 is inside package O0 then class O1 will have a child node element with a parent</text><text fill="#000000" font-family="sans-serif" font-size="13" lengthAdjust="spacing" textLength="96" x="3887.5" y="256.5981">pointing to O0.</text></g><!--MD5=[5f67e098f5e48b6dbef0139961dc263d]
class entities::attribute--><g id="elem_entities::attribute"><rect codeLine="80" fill="#F7E5FF" height="80.5938" id="entities::attribute" rx="2.5" ry="2.5" style="stroke:#181818;stroke-width:0.5;" width="846" x="3563" y="357.5"/><ellipse cx="3951.25" cy="373.5" fill="#ADD1B2" rx="11" ry="11" style="stroke:#181818;stroke-width:1.0;"/><path d="M3954.2188,379.1406 Q3953.6406,379.4375 3953,379.5859 Q3952.3594,379.7344 3951.6563,379.7344 Q3949.1563,379.7344 3947.8359,378.0859 Q3946.5156,376.4375 3946.5156,373.3125 Q3946.5156,370.1875 3947.8359,368.5313 Q3949.1563,366.875 3951.6563,366.875 Q3952.3594,366.875 3953.0078,367.0313 Q3953.6563,367.1875 3954.2188,367.4844 L3954.2188,370.2031 Q3953.5938,369.625 3953,369.3516 Q3952.4063,369.0781 3951.7813,369.0781 Q3950.4375,369.0781 3949.75,370.1484 Q3949.0625,371.2188 3949.0625,373.3125 Q3949.0625,375.4063 3949.75,376.4766 Q3950.4375,377.5469 3951.7813,377.5469 Q3952.4063,377.5469 3953,377.2734 Q3953.5938,377 3954.2188,376.4219 L3954.2188,379.1406 Z " fill="#000000"/><text fill="#000000" font-family="sans-serif" font-size="14" lengthAdjust="spacing" textLength="61" x="3971.75" y="378.3467">attribute</text><line style="stroke:#181818;stroke-width:0.5;" x1="3564" x2="4408" y1="389.5" y2="389.5"/><ellipse cx="3574" cy="400.5" fill="none" rx="3" ry="3" style="stroke:#038048;stroke-width:1.0;"/><text fill="#000000" font-family="sans-serif" font-size="14" lengthAdjust="spacing" textLength="116" x="3583" y="406.4951">name std::string</text><ellipse cx="3574" cy="416.7969" fill="none" rx="3" ry="3" style="stroke:#038048;stroke-width:1.0;"/><text fill="#000000" font-family="sans-serif" font-size="14" lengthAdjust="spacing" textLength="820" x="3583" y="422.792">values std::vector&lt;boost::variant&lt;color,real,integer,font,boolean,point,string,enumeration,rectangle,composite&gt;&gt;</text><line style="stroke:#181818;stroke-width:0.5;" x1="3564" x2="4408" y1="430.0938" y2="430.0938"/></g><g id="elem_entities::GMN31"><path d="M3653,209.5 L3653,234.6328 A0,0 0 0 0 3653,234.6328 L3761.85,234.6328 L3932.3,357.4 L3769.85,234.6328 L3847,234.6328 A0,0 0 0 0 3847,234.6328 L3847,219.5 L3837,209.5 L3653,209.5 A0,0 0 0 0 3653,209.5 " fill="#FEFFDD" style="stroke:#181818;stroke-width:0.5;"/><path d="M3837,209.5 L3837,219.5 L3847,219.5 L3837,209.5 " fill="#FEFFDD" style="stroke:#181818;stroke-width:0.5;"/><text fill="#000000" font-family="sans-serif" font-size="13" lengthAdjust="spacing" textLength="173" x="3659" y="226.5669">Attribute in a Dia diagram.</text></g><!--MD5=[5870999b90e4d0604ecb8159dede7030]
class entities::font--><g id="elem_entities::font"><rect codeLine="89" fill="#F7E5FF" height="96.8906" id="entities::font" rx="2.5" ry="2.5" style="stroke:#181818;stroke-width:0.5;" width="145" x="3382.5" y="349.5"/><ellipse cx="3436.75" cy="365.5" fill="#ADD1B2" rx="11" ry="11" style="stroke:#181818;stroke-width:1.0;"/><path d="M3439.7188,371.1406 Q3439.1406,371.4375 3438.5,371.5859 Q3437.8594,371.7344 3437.1563,371.7344 Q3434.6563,371.7344 3433.3359,370.0859 Q3432.0156,368.4375 3432.0156,365.3125 Q3432.0156,362.1875 3433.3359,360.5313 Q3434.6563,358.875 3437.1563,358.875 Q3437.8594,358.875 3438.5078,359.0313 Q3439.1563,359.1875 3439.7188,359.4844 L3439.7188,362.2031 Q3439.0938,361.625 3438.5,361.3516 Q3437.9063,361.0781 3437.2813,361.0781 Q3435.9375,361.0781 3435.25,362.1484 Q3434.5625,363.2188 3434.5625,365.3125 Q3434.5625,367.4063 3435.25,368.4766 Q3435.9375,369.5469 3437.2813,369.5469 Q3437.9063,369.5469 3438.5,369.2734 Q3439.0938,369 3439.7188,368.4219 L3439.7188,371.1406 Z " fill="#000000"/><text fill="#000000" font-family="sans-serif" font-size="14" lengthAdjust="spacing" textLength="28" x="3457.25" y="370.3467">font</text><line style="stroke:#181818;stroke-width:0.5;" x1="3383.5" x2="3526.5" y1="381.5" y2="381.5"/><ellipse cx="3393.5" cy="392.5" fill="none" rx="3" ry="3" style="stroke:#038048;stroke-width:1.0;"/><text fill="#000000" font-family="sans-serif" font-size="14" lengthAdjust="spacing" textLength="119" x="3402.5" y="398.4951">family std::string</text><ellipse cx="3393.5" cy="408.7969" fill="none" rx="3" ry="3" style="stroke:#038048;stroke-width:1.0;"/><text fill="#000000" font-family="sans-serif" font-size="14" lengthAdjust="spacing" textLength="108" x="3402.5" y="414.792">style std::string</text><ellipse cx="3393.5" cy="425.0938" fill="none" rx="3" ry="3" style="stroke:#038048;stroke-width:1.0;"/><text fill="#000000" font-family="sans-serif" font-size="14" lengthAdjust="spacing" textLength="116" x="3402.5" y="431.0889">name std::string</text><line style="stroke:#181818;stroke-width:0.5;" x1="3383.5" x2="3526.5" y1="438.3906" y2="438.3906"/></g><g id="elem_entities::GMN35"><path d="M3392,209.5 L3392,234.6328 A0,0 0 0 0 3392,234.6328 L3497.64,234.6328 L3468.65,349.48 L3505.64,234.6328 L3618,234.6328 A0,0 0 0 0 3618,234.6328 L3618,219.5 L3608,209.5 L3392,209.5 A0,0 0 0 0 3392,209.5 " fill="#FEFFDD" style="stroke:#181818;stroke-width:0.5;"/><path d="M3608,209.5 L3608,219.5 L3618,219.5 L3608,209.5 " fill="#FEFFDD" style="stroke:#181818;stroke-width:0.5;"/><text fill="#000000" font-family="sans-serif" font-size="13" lengthAdjust="spacing" textLength="205" x="3398" y="226.5669">Represents a font in a diagram.</text></g><!--MD5=[1fd22289eb57a64775c784614f4028e3]
class entities::composite--><g id="elem_entities::composite"><rect codeLine="99" fill="#ED8181" height="105.1563" id="entities::composite" rx="2.5" ry="2.5" style="stroke:#181818;stroke-width:0.5;" width="379" x="2968.5" y="345.5"/><ellipse cx="3093.75" cy="365.6328" fill="#ADD1B2" rx="11" ry="11" style="stroke:#181818;stroke-width:1.0;"/><path d="M3096.7188,371.2734 Q3096.1406,371.5703 3095.5,371.7188 Q3094.8594,371.8672 3094.1563,371.8672 Q3091.6563,371.8672 3090.3359,370.2188 Q3089.0156,368.5703 3089.0156,365.4453 Q3089.0156,362.3203 3090.3359,360.6641 Q3091.6563,359.0078 3094.1563,359.0078 Q3094.8594,359.0078 3095.5078,359.1641 Q3096.1563,359.3203 3096.7188,359.6172 L3096.7188,362.3359 Q3096.0938,361.7578 3095.5,361.4844 Q3094.9063,361.2109 3094.2813,361.2109 Q3092.9375,361.2109 3092.25,362.2813 Q3091.5625,363.3516 3091.5625,365.4453 Q3091.5625,367.5391 3092.25,368.6094 Q3092.9375,369.6797 3094.2813,369.6797 Q3094.9063,369.6797 3095.5,369.4063 Q3096.0938,369.1328 3096.7188,368.5547 L3096.7188,371.2734 Z " fill="#000000"/><text fill="#000000" font-family="sans-serif" font-size="12" font-style="italic" lengthAdjust="spacing" textLength="124" x="3112.25" y="361.6387">«dogen::untestable»</text><text fill="#000000" font-family="sans-serif" font-size="14" lengthAdjust="spacing" textLength="74" x="3137.25" y="377.4639">composite</text><line style="stroke:#181818;stroke-width:0.5;" x1="2969.5" x2="3346.5" y1="385.7656" y2="385.7656"/><ellipse cx="2979.5" cy="396.7656" fill="none" rx="3" ry="3" style="stroke:#038048;stroke-width:1.0;"/><text fill="#000000" font-family="sans-serif" font-size="14" lengthAdjust="spacing" textLength="106" x="2988.5" y="402.7607">type std::string</text><ellipse cx="2979.5" cy="413.0625" fill="none" rx="3" ry="3" style="stroke:#038048;stroke-width:1.0;"/><text fill="#000000" font-family="sans-serif" font-size="14" lengthAdjust="spacing" textLength="353" x="2988.5" y="419.0576">value std::vector&lt;boost::shared_ptr&lt;attribute&gt;&gt;</text><ellipse cx="2979.5" cy="429.3594" fill="none" rx="3" ry="3" style="stroke:#038048;stroke-width:1.0;"/><text fill="#000000" font-family="sans-serif" font-size="14" lengthAdjust="spacing" textLength="345" x="2988.5" y="435.3545">inner_composite boost::shared_ptr&lt;composite&gt;</text><line style="stroke:#181818;stroke-width:0.5;" x1="2969.5" x2="3346.5" y1="442.6563" y2="442.6563"/></g><g id="elem_entities::GMN39"><path d="M2995,209.5 L2995,234.6328 A0,0 0 0 0 2995,234.6328 L3170.79,234.6328 L3163.36,345.17 L3178.79,234.6328 L3357,234.6328 A0,0 0 0 0 3357,234.6328 L3357,219.5 L3347,209.5 L2995,209.5 A0,0 0 0 0 2995,209.5 " fill="#FEFFDD" style="stroke:#181818;stroke-width:0.5;"/><path d="M3347,209.5 L3347,219.5 L3357,219.5 L3347,209.5 " fill="#FEFFDD" style="stroke:#181818;stroke-width:0.5;"/><text fill="#000000" font-family="sans-serif" font-size="13" lengthAdjust="spacing" textLength="341" x="3001" y="226.5669">Attribute value which is made up of other attributes.</text></g><!--MD5=[2143a4b192e54374fd66228b8e6587f2]
class entities::color--><g id="elem_entities::color"><rect codeLine="109" fill="#F7E5FF" height="64.2969" id="entities::color" rx="2.5" ry="2.5" style="stroke:#181818;stroke-width:0.5;" width="140" x="2774" y="366"/><ellipse cx="2821.75" cy="382" fill="#ADD1B2" rx="11" ry="11" style="stroke:#181818;stroke-width:1.0;"/><path d="M2824.7188,387.6406 Q2824.1406,387.9375 2823.5,388.0859 Q2822.8594,388.2344 2822.1563,388.2344 Q2819.6563,388.2344 2818.3359,386.5859 Q2817.0156,384.9375 2817.0156,381.8125 Q2817.0156,378.6875 2818.3359,377.0313 Q2819.6563,375.375 2822.1563,375.375 Q2822.8594,375.375 2823.5078,375.5313 Q2824.1563,375.6875 2824.7188,375.9844 L2824.7188,378.7031 Q2824.0938,378.125 2823.5,377.8516 Q2822.9063,377.5781 2822.2813,377.5781 Q2820.9375,377.5781 2820.25,378.6484 Q2819.5625,379.7188 2819.5625,381.8125 Q2819.5625,383.9063 2820.25,384.9766 Q2820.9375,386.0469 2822.2813,386.0469 Q2822.9063,386.0469 2823.5,385.7734 Q2824.0938,385.5 2824.7188,384.9219 L2824.7188,387.6406 Z " fill="#000000"/><text fill="#000000" font-family="sans-serif" font-size="14" lengthAdjust="spacing" textLength="36" x="2842.25" y="386.8467">color</text><line style="stroke:#181818;stroke-width:0.5;" x1="2775" x2="2913" y1="398" y2="398"/><ellipse cx="2785" cy="409" fill="none" rx="3" ry="3" style="stroke:#038048;stroke-width:1.0;"/><text fill="#000000" font-family="sans-serif" font-size="14" lengthAdjust="spacing" textLength="114" x="2794" y="414.9951">value std::string</text><line style="stroke:#181818;stroke-width:0.5;" x1="2775" x2="2913" y1="422.2969" y2="422.2969"/></g><g id="elem_entities::GMN43"><path d="M2728,209.5 L2728,234.6328 A0,0 0 0 0 2728,234.6328 L2840,234.6328 L2844,365.87 L2848,234.6328 L2960,234.6328 A0,0 0 0 0 2960,234.6328 L2960,219.5 L2950,209.5 L2728,209.5 A0,0 0 0 0 2728,209.5 " fill="#FEFFDD" style="stroke:#181818;stroke-width:0.5;"/><path d="M2950,209.5 L2950,219.5 L2960,219.5 L2950,209.5 " fill="#FEFFDD" style="stroke:#181818;stroke-width:0.5;"/><text fill="#000000" font-family="sans-serif" font-size="13" lengthAdjust="spacing" textLength="211" x="2734" y="226.5669">Represents a color in a diagram.</text></g><!--MD5=[11066f05f61f64ed5d0835eebef8072b]
class entities::real--><g id="elem_entities::real"><rect codeLine="117" fill="#F7E5FF" height="64.2969" id="entities::real" rx="2.5" ry="2.5" style="stroke:#181818;stroke-width:0.5;" width="140" x="2533" y="366"/><ellipse cx="2584.75" cy="382" fill="#ADD1B2" rx="11" ry="11" style="stroke:#181818;stroke-width:1.0;"/><path d="M2587.7188,387.6406 Q2587.1406,387.9375 2586.5,388.0859 Q2585.8594,388.2344 2585.1563,388.2344 Q2582.6563,388.2344 2581.3359,386.5859 Q2580.0156,384.9375 2580.0156,381.8125 Q2580.0156,378.6875 2581.3359,377.0313 Q2582.6563,375.375 2585.1563,375.375 Q2585.8594,375.375 2586.5078,375.5313 Q2587.1563,375.6875 2587.7188,375.9844 L2587.7188,378.7031 Q2587.0938,378.125 2586.5,377.8516 Q2585.9063,377.5781 2585.2813,377.5781 Q2583.9375,377.5781 2583.25,378.6484 Q2582.5625,379.7188 2582.5625,381.8125 Q2582.5625,383.9063 2583.25,384.9766 Q2583.9375,386.0469 2585.2813,386.0469 Q2585.9063,386.0469 2586.5,385.7734 Q2587.0938,385.5 2587.7188,384.9219 L2587.7188,387.6406 Z " fill="#000000"/><text fill="#000000" font-family="sans-serif" font-size="14" lengthAdjust="spacing" textLength="28" x="2605.25" y="386.8467">real</text><line style="stroke:#181818;stroke-width:0.5;" x1="2534" x2="2672" y1="398" y2="398"/><ellipse cx="2544" cy="409" fill="none" rx="3" ry="3" style="stroke:#038048;stroke-width:1.0;"/><text fill="#000000" font-family="sans-serif" font-size="14" lengthAdjust="spacing" textLength="114" x="2553" y="414.9951">value std::string</text><line style="stroke:#181818;stroke-width:0.5;" x1="2534" x2="2672" y1="422.2969" y2="422.2969"/></g><g id="elem_entities::GMN47"><path d="M2513.5,209.5 L2513.5,234.6328 A0,0 0 0 0 2513.5,234.6328 L2599,234.6328 L2603,365.87 L2607,234.6328 L2692.5,234.6328 A0,0 0 0 0 2692.5,234.6328 L2692.5,219.5 L2682.5,209.5 L2513.5,209.5 A0,0 0 0 0 2513.5,209.5 " fill="#FEFFDD" style="stroke:#181818;stroke-width:0.5;"/><path d="M2682.5,209.5 L2682.5,219.5 L2692.5,219.5 L2682.5,209.5 " fill="#FEFFDD" style="stroke:#181818;stroke-width:0.5;"/><text fill="#000000" font-family="sans-serif" font-size="13" lengthAdjust="spacing" textLength="158" x="2519.5" y="226.5669">Represents a real value.</text></g><!--MD5=[d04c4b012c0f246f8a3bd1f3a98c962e]
class entities::integer--><g id="elem_entities::integer"><rect codeLine="125" fill="#F7E5FF" height="64.2969" id="entities::integer" rx="2.5" ry="2.5" style="stroke:#181818;stroke-width:0.5;" width="140" x="2304" y="366"/><ellipse cx="2344.65" cy="382" fill="#ADD1B2" rx="11" ry="11" style="stroke:#181818;stroke-width:1.0;"/><path d="M2347.6188,387.6406 Q2347.0406,387.9375 2346.4,388.0859 Q2345.7594,388.2344 2345.0563,388.2344 Q2342.5563,388.2344 2341.2359,386.5859 Q2339.9156,384.9375 2339.9156,381.8125 Q2339.9156,378.6875 2341.2359,377.0313 Q2342.5563,375.375 2345.0563,375.375 Q2345.7594,375.375 2346.4078,375.5313 Q2347.0563,375.6875 2347.6188,375.9844 L2347.6188,378.7031 Q2346.9938,378.125 2346.4,377.8516 Q2345.8063,377.5781 2345.1813,377.5781 Q2343.8375,377.5781 2343.15,378.6484 Q2342.4625,379.7188 2342.4625,381.8125 Q2342.4625,383.9063 2343.15,384.9766 Q2343.8375,386.0469 2345.1813,386.0469 Q2345.8063,386.0469 2346.4,385.7734 Q2346.9938,385.5 2347.6188,384.9219 L2347.6188,387.6406 Z " fill="#000000"/><text fill="#000000" font-family="sans-serif" font-size="14" lengthAdjust="spacing" textLength="51" x="2364.35" y="386.8467">integer</text><line style="stroke:#181818;stroke-width:0.5;" x1="2305" x2="2443" y1="398" y2="398"/><ellipse cx="2315" cy="409" fill="none" rx="3" ry="3" style="stroke:#038048;stroke-width:1.0;"/><text fill="#000000" font-family="sans-serif" font-size="14" lengthAdjust="spacing" textLength="114" x="2324" y="414.9951">value std::string</text><line style="stroke:#181818;stroke-width:0.5;" x1="2305" x2="2443" y1="422.2969" y2="422.2969"/></g><g id="elem_entities::GMN51"><path d="M2270,209.5 L2270,234.6328 A0,0 0 0 0 2270,234.6328 L2370,234.6328 L2374,365.87 L2378,234.6328 L2478,234.6328 A0,0 0 0 0 2478,234.6328 L2478,219.5 L2468,209.5 L2270,209.5 A0,0 0 0 0 2270,209.5 " fill="#FEFFDD" style="stroke:#181818;stroke-width:0.5;"/><path d="M2468,209.5 L2468,219.5 L2478,219.5 L2468,209.5 " fill="#FEFFDD" style="stroke:#181818;stroke-width:0.5;"/><text fill="#000000" font-family="sans-serif" font-size="13" lengthAdjust="spacing" textLength="187" x="2276" y="226.5669">Represents an integer value.</text></g><!--MD5=[955d6cd415cccbe0e258fe71a3d63033]
class entities::boolean--><g id="elem_entities::boolean"><rect codeLine="133" fill="#F7E5FF" height="64.2969" id="entities::boolean" rx="2.5" ry="2.5" style="stroke:#181818;stroke-width:0.5;" width="140" x="2062" y="366"/><ellipse cx="2099.5" cy="382" fill="#ADD1B2" rx="11" ry="11" style="stroke:#181818;stroke-width:1.0;"/><path d="M2102.4688,387.6406 Q2101.8906,387.9375 2101.25,388.0859 Q2100.6094,388.2344 2099.9063,388.2344 Q2097.4063,388.2344 2096.0859,386.5859 Q2094.7656,384.9375 2094.7656,381.8125 Q2094.7656,378.6875 2096.0859,377.0313 Q2097.4063,375.375 2099.9063,375.375 Q2100.6094,375.375 2101.2578,375.5313 Q2101.9063,375.6875 2102.4688,375.9844 L2102.4688,378.7031 Q2101.8438,378.125 2101.25,377.8516 Q2100.6563,377.5781 2100.0313,377.5781 Q2098.6875,377.5781 2098,378.6484 Q2097.3125,379.7188 2097.3125,381.8125 Q2097.3125,383.9063 2098,384.9766 Q2098.6875,386.0469 2100.0313,386.0469 Q2100.6563,386.0469 2101.25,385.7734 Q2101.8438,385.5 2102.4688,384.9219 L2102.4688,387.6406 Z " fill="#000000"/><text fill="#000000" font-family="sans-serif" font-size="14" lengthAdjust="spacing" textLength="58" x="2118.5" y="386.8467">boolean</text><line style="stroke:#181818;stroke-width:0.5;" x1="2063" x2="2201" y1="398" y2="398"/><ellipse cx="2073" cy="409" fill="none" rx="3" ry="3" style="stroke:#038048;stroke-width:1.0;"/><text fill="#000000" font-family="sans-serif" font-size="14" lengthAdjust="spacing" textLength="114" x="2082" y="414.9951">value std::string</text><line style="stroke:#181818;stroke-width:0.5;" x1="2063" x2="2201" y1="422.2969" y2="422.2969"/></g><g id="elem_entities::GMN55"><path d="M2029,209.5 L2029,234.6328 A0,0 0 0 0 2029,234.6328 L2128,234.6328 L2132,365.87 L2136,234.6328 L2235,234.6328 A0,0 0 0 0 2235,234.6328 L2235,219.5 L2225,209.5 L2029,209.5 A0,0 0 0 0 2029,209.5 " fill="#FEFFDD" style="stroke:#181818;stroke-width:0.5;"/><path d="M2225,209.5 L2225,219.5 L2235,219.5 L2225,209.5 " fill="#FEFFDD" style="stroke:#181818;stroke-width:0.5;"/><text fill="#000000" font-family="sans-serif" font-size="13" lengthAdjust="spacing" textLength="185" x="2035" y="226.5669">Represents a boolean value.</text></g><!--MD5=[7675e54bb301a9ce222c40dd34e6c0b8]
class entities::point--><g id="elem_entities::point"><rect codeLine="141" fill="#F7E5FF" height="64.2969" id="entities::point" rx="2.5" ry="2.5" style="stroke:#181818;stroke-width:0.5;" width="140" x="1807" y="366"/><ellipse cx="1854.75" cy="382" fill="#ADD1B2" rx="11" ry="11" style="stroke:#181818;stroke-width:1.0;"/><path d="M1857.7188,387.6406 Q1857.1406,387.9375 1856.5,388.0859 Q1855.8594,388.2344 1855.1563,388.2344 Q1852.6563,388.2344 1851.3359,386.5859 Q1850.0156,384.9375 1850.0156,381.8125 Q1850.0156,378.6875 1851.3359,377.0313 Q1852.6563,375.375 1855.1563,375.375 Q1855.8594,375.375 1856.5078,375.5313 Q1857.1563,375.6875 1857.7188,375.9844 L1857.7188,378.7031 Q1857.0938,378.125 1856.5,377.8516 Q1855.9063,377.5781 1855.2813,377.5781 Q1853.9375,377.5781 1853.25,378.6484 Q1852.5625,379.7188 1852.5625,381.8125 Q1852.5625,383.9063 1853.25,384.9766 Q1853.9375,386.0469 1855.2813,386.0469 Q1855.9063,386.0469 1856.5,385.7734 Q1857.0938,385.5 1857.7188,384.9219 L1857.7188,387.6406 Z " fill="#000000"/><text fill="#000000" font-family="sans-serif" font-size="14" lengthAdjust="spacing" textLength="36" x="1875.25" y="386.8467">point</text><line style="stroke:#181818;stroke-width:0.5;" x1="1808" x2="1946" y1="398" y2="398"/><ellipse cx="1818" cy="409" fill="none" rx="3" ry="3" style="stroke:#038048;stroke-width:1.0;"/><text fill="#000000" font-family="sans-serif" font-size="14" lengthAdjust="spacing" textLength="114" x="1827" y="414.9951">value std::string</text><line style="stroke:#181818;stroke-width:0.5;" x1="1808" x2="1946" y1="422.2969" y2="422.2969"/></g><g id="elem_entities::GMN59"><path d="M1760.5,209.5 L1760.5,234.6328 A0,0 0 0 0 1760.5,234.6328 L1873,234.6328 L1877,365.87 L1881,234.6328 L1993.5,234.6328 A0,0 0 0 0 1993.5,234.6328 L1993.5,219.5 L1983.5,209.5 L1760.5,209.5 A0,0 0 0 0 1760.5,209.5 " fill="#FEFFDD" style="stroke:#181818;stroke-width:0.5;"/><path d="M1983.5,209.5 L1983.5,219.5 L1993.5,219.5 L1983.5,209.5 " fill="#FEFFDD" style="stroke:#181818;stroke-width:0.5;"/><text fill="#000000" font-family="sans-serif" font-size="13" lengthAdjust="spacing" textLength="212" x="1766.5" y="226.5669">Represents a point in a diagram.</text></g><!--MD5=[460b860507682c499de839c6ca4f24cb]
class entities::enumeration--><g id="elem_entities::enumeration"><rect codeLine="149" fill="#F7E5FF" height="64.2969" id="entities::enumeration" rx="2.5" ry="2.5" style="stroke:#181818;stroke-width:0.5;" width="140" x="1514" y="366"/><ellipse cx="1536.2" cy="382" fill="#ADD1B2" rx="11" ry="11" style="stroke:#181818;stroke-width:1.0;"/><path d="M1539.1688,387.6406 Q1538.5906,387.9375 1537.95,388.0859 Q1537.3094,388.2344 1536.6063,388.2344 Q1534.1063,388.2344 1532.7859,386.5859 Q1531.4656,384.9375 1531.4656,381.8125 Q1531.4656,378.6875 1532.7859,377.0313 Q1534.1063,375.375 1536.6063,375.375 Q1537.3094,375.375 1537.9578,375.5313 Q1538.6063,375.6875 1539.1688,375.9844 L1539.1688,378.7031 Q1538.5438,378.125 1537.95,377.8516 Q1537.3563,377.5781 1536.7313,377.5781 Q1535.3875,377.5781 1534.7,378.6484 Q1534.0125,379.7188 1534.0125,381.8125 Q1534.0125,383.9063 1534.7,384.9766 Q1535.3875,386.0469 1536.7313,386.0469 Q1537.3563,386.0469 1537.95,385.7734 Q1538.5438,385.5 1539.1688,384.9219 L1539.1688,387.6406 Z " fill="#000000"/><text fill="#000000" font-family="sans-serif" font-size="14" lengthAdjust="spacing" textLength="92" x="1551.8" y="386.8467">enumeration</text><line style="stroke:#181818;stroke-width:0.5;" x1="1515" x2="1653" y1="398" y2="398"/><ellipse cx="1525" cy="409" fill="none" rx="3" ry="3" style="stroke:#038048;stroke-width:1.0;"/><text fill="#000000" font-family="sans-serif" font-size="14" lengthAdjust="spacing" textLength="114" x="1534" y="414.9951">value std::string</text><line style="stroke:#181818;stroke-width:0.5;" x1="1515" x2="1653" y1="422.2969" y2="422.2969"/></g><g id="elem_entities::GMN63"><path d="M1442.5,209.5 L1442.5,234.6328 A0,0 0 0 0 1442.5,234.6328 L1580,234.6328 L1584,365.87 L1588,234.6328 L1725.5,234.6328 A0,0 0 0 0 1725.5,234.6328 L1725.5,219.5 L1715.5,209.5 L1442.5,209.5 A0,0 0 0 0 1442.5,209.5 " fill="#FEFFDD" style="stroke:#181818;stroke-width:0.5;"/><path d="M1715.5,209.5 L1715.5,219.5 L1725.5,219.5 L1715.5,209.5 " fill="#FEFFDD" style="stroke:#181818;stroke-width:0.5;"/><text fill="#000000" font-family="sans-serif" font-size="13" lengthAdjust="spacing" textLength="262" x="1448.5" y="226.5669">Represents a enumeration in a diagram.</text></g><!--MD5=[cc732d6d7f98f59eddf4250e1bb8be9f]
class entities::string--><g id="elem_entities::string"><rect codeLine="157" fill="#F7E5FF" height="64.2969" id="entities::string" rx="2.5" ry="2.5" style="stroke:#181818;stroke-width:0.5;" width="140" x="1242" y="366"/><ellipse cx="1287.75" cy="382" fill="#ADD1B2" rx="11" ry="11" style="stroke:#181818;stroke-width:1.0;"/><path d="M1290.7188,387.6406 Q1290.1406,387.9375 1289.5,388.0859 Q1288.8594,388.2344 1288.1563,388.2344 Q1285.6563,388.2344 1284.3359,386.5859 Q1283.0156,384.9375 1283.0156,381.8125 Q1283.0156,378.6875 1284.3359,377.0313 Q1285.6563,375.375 1288.1563,375.375 Q1288.8594,375.375 1289.5078,375.5313 Q1290.1563,375.6875 1290.7188,375.9844 L1290.7188,378.7031 Q1290.0938,378.125 1289.5,377.8516 Q1288.9063,377.5781 1288.2813,377.5781 Q1286.9375,377.5781 1286.25,378.6484 Q1285.5625,379.7188 1285.5625,381.8125 Q1285.5625,383.9063 1286.25,384.9766 Q1286.9375,386.0469 1288.2813,386.0469 Q1288.9063,386.0469 1289.5,385.7734 Q1290.0938,385.5 1290.7188,384.9219 L1290.7188,387.6406 Z " fill="#000000"/><text fill="#000000" font-family="sans-serif" font-size="14" lengthAdjust="spacing" textLength="40" x="1308.25" y="386.8467">string</text><line style="stroke:#181818;stroke-width:0.5;" x1="1243" x2="1381" y1="398" y2="398"/><ellipse cx="1253" cy="409" fill="none" rx="3" ry="3" style="stroke:#038048;stroke-width:1.0;"/><text fill="#000000" font-family="sans-serif" font-size="14" lengthAdjust="spacing" textLength="114" x="1262" y="414.9951">value std::string</text><line style="stroke:#181818;stroke-width:0.5;" x1="1243" x2="1381" y1="422.2969" y2="422.2969"/></g><g id="elem_entities::GMN67"><path d="M1216.5,209.5 L1216.5,234.6328 A0,0 0 0 0 1216.5,234.6328 L1308,234.6328 L1312,365.87 L1316,234.6328 L1407.5,234.6328 A0,0 0 0 0 1407.5,234.6328 L1407.5,219.5 L1397.5,209.5 L1216.5,209.5 A0,0 0 0 0 1216.5,209.5 " fill="#FEFFDD" style="stroke:#181818;stroke-width:0.5;"/><path d="M1397.5,209.5 L1397.5,219.5 L1407.5,219.5 L1397.5,209.5 " fill="#FEFFDD" style="stroke:#181818;stroke-width:0.5;"/><text fill="#000000" font-family="sans-serif" font-size="13" lengthAdjust="spacing" textLength="170" x="1222.5" y="226.5669">Represents a string value.</text></g><!--MD5=[bba84cf1c363bb41f71d62f13bd687ff]
class entities::rectangle--><g id="elem_entities::rectangle"><rect codeLine="165" fill="#F7E5FF" height="64.2969" id="entities::rectangle" rx="2.5" ry="2.5" style="stroke:#181818;stroke-width:0.5;" width="140" x="981" y="366"/><ellipse cx="1014" cy="382" fill="#ADD1B2" rx="11" ry="11" style="stroke:#181818;stroke-width:1.0;"/><path d="M1016.9688,387.6406 Q1016.3906,387.9375 1015.75,388.0859 Q1015.1094,388.2344 1014.4063,388.2344 Q1011.9063,388.2344 1010.5859,386.5859 Q1009.2656,384.9375 1009.2656,381.8125 Q1009.2656,378.6875 1010.5859,377.0313 Q1011.9063,375.375 1014.4063,375.375 Q1015.1094,375.375 1015.7578,375.5313 Q1016.4063,375.6875 1016.9688,375.9844 L1016.9688,378.7031 Q1016.3438,378.125 1015.75,377.8516 Q1015.1563,377.5781 1014.5313,377.5781 Q1013.1875,377.5781 1012.5,378.6484 Q1011.8125,379.7188 1011.8125,381.8125 Q1011.8125,383.9063 1012.5,384.9766 Q1013.1875,386.0469 1014.5313,386.0469 Q1015.1563,386.0469 1015.75,385.7734 Q1016.3438,385.5 1016.9688,384.9219 L1016.9688,387.6406 Z " fill="#000000"/><text fill="#000000" font-family="sans-serif" font-size="14" lengthAdjust="spacing" textLength="68" x="1032" y="386.8467">rectangle</text><line style="stroke:#181818;stroke-width:0.5;" x1="982" x2="1120" y1="398" y2="398"/><ellipse cx="992" cy="409" fill="none" rx="3" ry="3" style="stroke:#038048;stroke-width:1.0;"/><text fill="#000000" font-family="sans-serif" font-size="14" lengthAdjust="spacing" textLength="114" x="1001" y="414.9951">value std::string</text><line style="stroke:#181818;stroke-width:0.5;" x1="982" x2="1120" y1="422.2969" y2="422.2969"/></g><g id="elem_entities::GMN71"><path d="M920.5,209.5 L920.5,234.6328 A0,0 0 0 0 920.5,234.6328 L1047,234.6328 L1051,365.87 L1055,234.6328 L1181.5,234.6328 A0,0 0 0 0 1181.5,234.6328 L1181.5,219.5 L1171.5,209.5 L920.5,209.5 A0,0 0 0 0 920.5,209.5 " fill="#FEFFDD" style="stroke:#181818;stroke-width:0.5;"/><path d="M1171.5,209.5 L1171.5,219.5 L1181.5,219.5 L1171.5,209.5 " fill="#FEFFDD" style="stroke:#181818;stroke-width:0.5;"/><text fill="#000000" font-family="sans-serif" font-size="13" lengthAdjust="spacing" textLength="240" x="926.5" y="226.5669">Represents a rectangle in a diagram.</text></g><!--MD5=[27b967e3889903e1a1923cf71ac10874]
class transforms::transformation_error--><g id="elem_transforms::transformation_error"><rect codeLine="181" fill="#E8C2F8" height="56.2656" id="transforms::transformation_error" rx="2.5" ry="2.5" style="stroke:#181818;stroke-width:0.5;" width="181" x="6528.5" y="194"/><ellipse cx="6543.5" cy="214.1328" fill="#ADD1B2" rx="11" ry="11" style="stroke:#181818;stroke-width:1.0;"/><path d="M6546.4688,219.7734 Q6545.8906,220.0703 6545.25,220.2188 Q6544.6094,220.3672 6543.9063,220.3672 Q6541.4063,220.3672 6540.0859,218.7188 Q6538.7656,217.0703 6538.7656,213.9453 Q6538.7656,210.8203 6540.0859,209.1641 Q6541.4063,207.5078 6543.9063,207.5078 Q6544.6094,207.5078 6545.2578,207.6641 Q6545.9063,207.8203 6546.4688,208.1172 L6546.4688,210.8359 Q6545.8438,210.2578 6545.25,209.9844 Q6544.6563,209.7109 6544.0313,209.7109 Q6542.6875,209.7109 6542,210.7813 Q6541.3125,211.8516 6541.3125,213.9453 Q6541.3125,216.0391 6542,217.1094 Q6542.6875,218.1797 6544.0313,218.1797 Q6544.6563,218.1797 6545.25,217.9063 Q6545.8438,217.6328 6546.4688,217.0547 L6546.4688,219.7734 Z " fill="#000000"/><text fill="#000000" font-family="sans-serif" font-size="12" font-style="italic" lengthAdjust="spacing" textLength="114" x="6575" y="210.1387">«masd::exception»</text><text fill="#000000" font-family="sans-serif" font-size="14" lengthAdjust="spacing" textLength="149" x="6557.5" y="225.9639">transformation_error</text><line style="stroke:#181818;stroke-width:0.5;" x1="6529.5" x2="6708.5" y1="234.2656" y2="234.2656"/><line style="stroke:#181818;stroke-width:0.5;" x1="6529.5" x2="6708.5" y1="242.2656" y2="242.2656"/></g><g id="elem_transforms::GMN79"><path d="M6442.5,56.5 L6442.5,81.6328 A0,0 0 0 0 6442.5,81.6328 L6615,81.6328 L6619,193.9 L6623,81.6328 L6795.5,81.6328 A0,0 0 0 0 6795.5,81.6328 L6795.5,66.5 L6785.5,56.5 L6442.5,56.5 A0,0 0 0 0 6442.5,56.5 " fill="#FEFFDD" style="stroke:#181818;stroke-width:0.5;"/><path d="M6785.5,56.5 L6785.5,66.5 L6795.5,66.5 L6785.5,56.5 " fill="#FEFFDD" style="stroke:#181818;stroke-width:0.5;"/><text fill="#000000" font-family="sans-serif" font-size="13" lengthAdjust="spacing" textLength="332" x="6448.5" y="73.5669">An error occurred whilst applying a transformation.</text></g><!--MD5=[2eac32b17dac3bcfacd96c4515884025]
class transforms::string_to_diagram_transform--><g id="elem_transforms::string_to_diagram_transform"><rect codeLine="188" fill="#FFFACD" height="56.2656" id="transforms::string_to_diagram_transform" rx="2.5" ry="2.5" style="stroke:#181818;stroke-width:0.5;" width="237" x="6170.5" y="41"/><ellipse cx="6185.5" cy="61.1328" fill="#ADD1B2" rx="11" ry="11" style="stroke:#181818;stroke-width:1.0;"/><path d="M6188.4688,66.7734 Q6187.8906,67.0703 6187.25,67.2188 Q6186.6094,67.3672 6185.9063,67.3672 Q6183.4063,67.3672 6182.0859,65.7188 Q6180.7656,64.0703 6180.7656,60.9453 Q6180.7656,57.8203 6182.0859,56.1641 Q6183.4063,54.5078 6185.9063,54.5078 Q6186.6094,54.5078 6187.2578,54.6641 Q6187.9063,54.8203 6188.4688,55.1172 L6188.4688,57.8359 Q6187.8438,57.2578 6187.25,56.9844 Q6186.6563,56.7109 6186.0313,56.7109 Q6184.6875,56.7109 6184,57.7813 Q6183.3125,58.8516 6183.3125,60.9453 Q6183.3125,63.0391 6184,64.1094 Q6184.6875,65.1797 6186.0313,65.1797 Q6186.6563,65.1797 6187.25,64.9063 Q6187.8438,64.6328 6188.4688,64.0547 L6188.4688,66.7734 Z " fill="#000000"/><text fill="#000000" font-family="sans-serif" font-size="12" font-style="italic" lengthAdjust="spacing" textLength="194" x="6205" y="57.1387">«dogen::handcrafted::typeable»</text><text fill="#000000" font-family="sans-serif" font-size="14" lengthAdjust="spacing" textLength="205" x="6199.5" y="72.9639">string_to_diagram_transform</text><line style="stroke:#181818;stroke-width:0.5;" x1="6171.5" x2="6406.5" y1="81.2656" y2="81.2656"/><line style="stroke:#181818;stroke-width:0.5;" x1="6171.5" x2="6406.5" y1="89.2656" y2="89.2656"/></g><g id="elem_N1"><path d="M15,26 L15,111.6641 L359,111.6641 L359,36 L349,26 L15,26 " fill="#FEFFDD" style="stroke:#181818;stroke-width:0.5;"/><path d="M349,26 L349,36 L359,36 L349,26 " fill="#FEFFDD" style="stroke:#181818;stroke-width:1.0;"/><text fill="#000000" font-family="sans-serif" font-size="13" lengthAdjust="spacing" textLength="323" x="21" y="43.0669">Represents the domain of the Dia diagram editor.</text><text fill="#000000" font-family="sans-serif" font-size="13" lengthAdjust="spacing" textLength="4" x="21" y="58.1997"> </text><text fill="#000000" font-family="sans-serif" font-size="13" lengthAdjust="spacing" textLength="131" x="21" y="73.3325">UML representation:</text><text fill="#000000" font-family="sans-serif" font-size="13" lengthAdjust="spacing" textLength="4" x="21" y="88.4653"> </text><text fill="#000000" font-family="sans-serif" font-size="13" lengthAdjust="spacing" textLength="307" x="21" y="103.5981">\image html dogen.dia/modeling/dogen.dia.svg</text></g><!--MD5=[4520fda4e10d4d791ce48fe025810cd4]
class main--><g id="elem_main"><rect codeLine="10" fill="#DDA9F3" height="56.2656" id="main" rx="2.5" ry="2.5" style="stroke:#181818;stroke-width:0.5;" width="267" x="394.5" y="41"/><ellipse cx="409.5" cy="61.1328" fill="#ADD1B2" rx="11" ry="11" style="stroke:#181818;stroke-width:1.0;"/><path d="M412.4688,66.7734 Q411.8906,67.0703 411.25,67.2188 Q410.6094,67.3672 409.9063,67.3672 Q407.4063,67.3672 406.0859,65.7188 Q404.7656,64.0703 404.7656,60.9453 Q404.7656,57.8203 406.0859,56.1641 Q407.4063,54.5078 409.9063,54.5078 Q410.6094,54.5078 411.2578,54.6641 Q411.9063,54.8203 412.4688,55.1172 L412.4688,57.8359 Q411.8438,57.2578 411.25,56.9844 Q410.6563,56.7109 410.0313,56.7109 Q408.6875,56.7109 408,57.7813 Q407.3125,58.8516 407.3125,60.9453 Q407.3125,63.0391 408,64.1094 Q408.6875,65.1797 410.0313,65.1797 Q410.6563,65.1797 411.25,64.9063 Q411.8438,64.6328 412.4688,64.0547 L412.4688,66.7734 Z " fill="#000000"/><text fill="#000000" font-family="sans-serif" font-size="12" font-style="italic" lengthAdjust="spacing" textLength="239" x="421.5" y="57.1387">«masd::entry_point, dogen::untypable»</text><text fill="#000000" font-family="sans-serif" font-size="14" lengthAdjust="spacing" textLength="36" x="523" y="72.9639">main</text><line style="stroke:#181818;stroke-width:0.5;" x1="395.5" x2="660.5" y1="81.2656" y2="81.2656"/><line style="stroke:#181818;stroke-width:0.5;" x1="395.5" x2="660.5" y1="89.2656" y2="89.2656"/></g><!--MD5=[ba83386d426114557685538e96aa6f68]
class CMakeLists--><g id="elem_CMakeLists"><rect codeLine="13" fill="#99CB99" height="56.2656" id="CMakeLists" rx="2.5" ry="2.5" style="stroke:#181818;stroke-width:0.5;" width="360" x="7" y="194"/><ellipse cx="22" cy="214.1328" fill="#ADD1B2" rx="11" ry="11" style="stroke:#181818;stroke-width:1.0;"/><path d="M24.9688,219.7734 Q24.3906,220.0703 23.75,220.2188 Q23.1094,220.3672 22.4063,220.3672 Q19.9063,220.3672 18.5859,218.7188 Q17.2656,217.0703 17.2656,213.9453 Q17.2656,210.8203 18.5859,209.1641 Q19.9063,207.5078 22.4063,207.5078 Q23.1094,207.5078 23.7578,207.6641 Q24.4063,207.8203 24.9688,208.1172 L24.9688,210.8359 Q24.3438,210.2578 23.75,209.9844 Q23.1563,209.7109 22.5313,209.7109 Q21.1875,209.7109 20.5,210.7813 Q19.8125,211.8516 19.8125,213.9453 Q19.8125,216.0391 20.5,217.1094 Q21.1875,218.1797 22.5313,218.1797 Q23.1563,218.1797 23.75,217.9063 Q24.3438,217.6328 24.9688,217.0547 L24.9688,219.7734 Z " fill="#000000"/><text fill="#000000" font-family="sans-serif" font-size="12" font-style="italic" lengthAdjust="spacing" textLength="332" x="34" y="210.1387">«masd::build::cmakelists, dogen::handcrafted::cmake»</text><text fill="#000000" font-family="sans-serif" font-size="14" lengthAdjust="spacing" textLength="79" x="160.5" y="225.9639">CMakeLists</text><line style="stroke:#181818;stroke-width:0.5;" x1="8" x2="366" y1="234.2656" y2="234.2656"/><line style="stroke:#181818;stroke-width:0.5;" x1="8" x2="366" y1="242.2656" y2="242.2656"/></g><g id="elem_GMN74"><path d="M697,49 L697,89.2656 L1073,89.2656 L1073,59 L1063,49 L697,49 " fill="#FEFFDD" style="stroke:#181818;stroke-width:0.5;"/><path d="M1063,49 L1063,59 L1073,59 L1063,49 " fill="#FEFFDD" style="stroke:#181818;stroke-width:1.0;"/><text fill="#000000" font-family="sans-serif" font-size="13" lengthAdjust="spacing" textLength="339" x="719" y="66.0669">Contains all the entities required by Dogen from the</text><text fill="#000000" font-family="sans-serif" font-size="13" lengthAdjust="spacing" textLength="221" x="703" y="81.1997">domain of the Dia diagram editor.</text></g><!--MD5=[a46284638feaf81a2936a188ee1c94cb]
link entities::GMN27 to entities::child_node--><g id="link_entities::GMN27_entities::child_node"><path d="M4321.39,265.11 C4355.22,282.34 4393.67,303.32 4427,325 C4445.91,337.3 4465.7,352.62 4481.97,365.96 " fill="none" id="entities::GMN27-entities::child_node" style="stroke:#181818;stroke-width:1.0;stroke-dasharray:7.0,7.0;"/></g><!--MD5=[23d0991736344895e27f7656a5ba78cd]
link GMN74 to entities--><g id="link_GMN74_entities"><path d="M885,89.12 C885,99.12 885,112.185 885,126.2008 C885,127.9528 885,129.7196 885,131.4971 C885,132.3859 885,133.2774 885,134.171 C885,134.6178 885,135.0652 885,135.513 " fill="none" id="GMN74-entities" style="stroke:#181818;stroke-width:1.0;stroke-dasharray:7.0,7.0;"/></g><!--MD5=[2559f8586bed6994aaff5fccfe2e1961]
link N1 to main--></g></svg>