<?xml version="1.0" encoding="UTF-8" standalone="no"?><svg xmlns="http://www.w3.org/2000/svg" xmlns:xlink="http://www.w3.org/1999/xlink" contentStyleType="text/css" height="1253px" preserveAspectRatio="none" style="width:3546px;height:1253px;background:#FFFFFF;" version="1.1" viewBox="0 0 3546 1253" width="3546px" zoomAndPan="magnify"><defs/><g><!--MD5=[2a013135f1f90689be40a3c084fed702]
cluster entities--><g id="cluster_entities"><path d="M674.5,268.5 L737.5,268.5 A3.75,3.75 0 0 1 740,271 L747,290.7969 L3118.5,290.7969 A2.5,2.5 0 0 1 3121,293.2969 L3121,1243.5 A2.5,2.5 0 0 1 3118.5,1246 L674.5,1246 A2.5,2.5 0 0 1 672,1243.5 L672,271 A2.5,2.5 0 0 1 674.5,268.5 " fill="#F2F2F2" style="stroke:#000000;stroke-width:1.5;"/><line style="stroke:#000000;stroke-width:1.5;" x1="672" x2="747" y1="290.7969" y2="290.7969"/><text fill="#000000" font-family="sans-serif" font-size="14" font-weight="bold" lengthAdjust="spacing" textLength="62" x="676" y="283.4951">entities</text></g><!--MD5=[e8c14457c5ec3409b346b9ce068df3a0]
cluster transforms--><g id="cluster_transforms"><path d="M3155.5,6 L3243.5,6 A3.75,3.75 0 0 1 3246,8.5 L3253,28.2969 L3536.5,28.2969 A2.5,2.5 0 0 1 3539,30.7969 L3539,365.5 A2.5,2.5 0 0 1 3536.5,368 L3155.5,368 A2.5,2.5 0 0 1 3153,365.5 L3153,8.5 A2.5,2.5 0 0 1 3155.5,6 " fill="#F2F2F2" style="stroke:#000000;stroke-width:1.5;"/><line style="stroke:#000000;stroke-width:1.5;" x1="3153" x2="3253" y1="28.2969" y2="28.2969"/><text fill="#000000" font-family="sans-serif" font-size="14" font-weight="bold" lengthAdjust="spacing" textLength="87" x="3157" y="20.9951">transforms</text></g><!--MD5=[b9eac5e0637e17572129e059fc70931f]
class entities::diagram--><g id="elem_entities::diagram"><rect codeLine="11" fill="#F7E5FF" height="80.5938" id="entities::diagram" rx="2.5" ry="2.5" style="stroke:#181818;stroke-width:0.5;" width="228" x="2470" y="417.5"/><ellipse cx="2549.75" cy="433.5" fill="#ADD1B2" rx="11" ry="11" style="stroke:#181818;stroke-width:1.0;"/><path d="M2552.7188,439.1406 Q2552.1406,439.4375 2551.5,439.5859 Q2550.8594,439.7344 2550.1563,439.7344 Q2547.6563,439.7344 2546.3359,438.0859 Q2545.0156,436.4375 2545.0156,433.3125 Q2545.0156,430.1875 2546.3359,428.5313 Q2547.6563,426.875 2550.1563,426.875 Q2550.8594,426.875 2551.5078,427.0313 Q2552.1563,427.1875 2552.7188,427.4844 L2552.7188,430.2031 Q2552.0938,429.625 2551.5,429.3516 Q2550.9063,429.0781 2550.2813,429.0781 Q2548.9375,429.0781 2548.25,430.1484 Q2547.5625,431.2188 2547.5625,433.3125 Q2547.5625,435.4063 2548.25,436.4766 Q2548.9375,437.5469 2550.2813,437.5469 Q2550.9063,437.5469 2551.5,437.2734 Q2552.0938,437 2552.7188,436.4219 L2552.7188,439.1406 Z " fill="#000000"/><text fill="#000000" font-family="sans-serif" font-size="14" lengthAdjust="spacing" textLength="60" x="2570.25" y="438.3467">diagram</text><line style="stroke:#181818;stroke-width:0.5;" x1="2471" x2="2697" y1="449.5" y2="449.5"/><ellipse cx="2481" cy="460.5" fill="none" rx="3" ry="3" style="stroke:#038048;stroke-width:1.0;"/><text fill="#000000" font-family="sans-serif" font-size="14" lengthAdjust="spacing" textLength="202" x="2490" y="466.4951">diagram_data diagram_data</text><ellipse cx="2481" cy="476.7969" fill="none" rx="3" ry="3" style="stroke:#038048;stroke-width:1.0;"/><text fill="#000000" font-family="sans-serif" font-size="14" lengthAdjust="spacing" textLength="183" x="2490" y="482.792">layers std::vector&lt;layer&gt;</text><line style="stroke:#181818;stroke-width:0.5;" x1="2471" x2="2697" y1="490.0938" y2="490.0938"/></g><!--MD5=[2c63bbbf245247496a854051eca4ab30]
class entities::layer--><g id="elem_entities::layer"><rect codeLine="23" fill="#F7E5FF" height="113.1875" id="entities::layer" rx="2.5" ry="2.5" style="stroke:#181818;stroke-width:0.5;" width="225" x="2329.5" y="578"/><ellipse cx="2419.75" cy="594" fill="#ADD1B2" rx="11" ry="11" style="stroke:#181818;stroke-width:1.0;"/><path d="M2422.7188,599.6406 Q2422.1406,599.9375 2421.5,600.0859 Q2420.8594,600.2344 2420.1563,600.2344 Q2417.6563,600.2344 2416.3359,598.5859 Q2415.0156,596.9375 2415.0156,593.8125 Q2415.0156,590.6875 2416.3359,589.0313 Q2417.6563,587.375 2420.1563,587.375 Q2420.8594,587.375 2421.5078,587.5313 Q2422.1563,587.6875 2422.7188,587.9844 L2422.7188,590.7031 Q2422.0938,590.125 2421.5,589.8516 Q2420.9063,589.5781 2420.2813,589.5781 Q2418.9375,589.5781 2418.25,590.6484 Q2417.5625,591.7188 2417.5625,593.8125 Q2417.5625,595.9063 2418.25,596.9766 Q2418.9375,598.0469 2420.2813,598.0469 Q2420.9063,598.0469 2421.5,597.7734 Q2422.0938,597.5 2422.7188,596.9219 L2422.7188,599.6406 Z " fill="#000000"/><text fill="#000000" font-family="sans-serif" font-size="14" lengthAdjust="spacing" textLength="36" x="2440.25" y="598.8467">layer</text><line style="stroke:#181818;stroke-width:0.5;" x1="2330.5" x2="2553.5" y1="610" y2="610"/><ellipse cx="2340.5" cy="621" fill="none" rx="3" ry="3" style="stroke:#038048;stroke-width:1.0;"/><text fill="#000000" font-family="sans-serif" font-size="14" lengthAdjust="spacing" textLength="116" x="2349.5" y="626.9951">name std::string</text><ellipse cx="2340.5" cy="637.2969" fill="none" rx="3" ry="3" style="stroke:#038048;stroke-width:1.0;"/><text fill="#000000" font-family="sans-serif" font-size="14" lengthAdjust="spacing" textLength="80" x="2349.5" y="643.292">visible bool</text><ellipse cx="2340.5" cy="653.5938" fill="none" rx="3" ry="3" style="stroke:#038048;stroke-width:1.0;"/><text fill="#000000" font-family="sans-serif" font-size="14" lengthAdjust="spacing" textLength="78" x="2349.5" y="659.5889">active bool</text><ellipse cx="2340.5" cy="669.8906" fill="none" rx="3" ry="3" style="stroke:#038048;stroke-width:1.0;"/><text fill="#000000" font-family="sans-serif" font-size="14" lengthAdjust="spacing" textLength="199" x="2349.5" y="675.8857">objects std::vector&lt;object&gt;</text><line style="stroke:#181818;stroke-width:0.5;" x1="2330.5" x2="2553.5" y1="683.1875" y2="683.1875"/></g><!--MD5=[0cce79248bcf7e0385a34eaa5029fe72]
class entities::diagram_data--><g id="elem_entities::diagram_data"><rect codeLine="36" fill="#F7E5FF" height="64.2969" id="entities::diagram_data" rx="2.5" ry="2.5" style="stroke:#181818;stroke-width:0.5;" width="259" x="2837.5" y="602.5"/><ellipse cx="2913.25" cy="618.5" fill="#ADD1B2" rx="11" ry="11" style="stroke:#181818;stroke-width:1.0;"/><path d="M2916.2188,624.1406 Q2915.6406,624.4375 2915,624.5859 Q2914.3594,624.7344 2913.6563,624.7344 Q2911.1563,624.7344 2909.8359,623.0859 Q2908.5156,621.4375 2908.5156,618.3125 Q2908.5156,615.1875 2909.8359,613.5313 Q2911.1563,611.875 2913.6563,611.875 Q2914.3594,611.875 2915.0078,612.0313 Q2915.6563,612.1875 2916.2188,612.4844 L2916.2188,615.2031 Q2915.5938,614.625 2915,614.3516 Q2914.4063,614.0781 2913.7813,614.0781 Q2912.4375,614.0781 2911.75,615.1484 Q2911.0625,616.2188 2911.0625,618.3125 Q2911.0625,620.4063 2911.75,621.4766 Q2912.4375,622.5469 2913.7813,622.5469 Q2914.4063,622.5469 2915,622.2734 Q2915.5938,622 2916.2188,621.4219 L2916.2188,624.1406 Z " fill="#000000"/><text fill="#000000" font-family="sans-serif" font-size="14" lengthAdjust="spacing" textLength="99" x="2933.75" y="623.3467">diagram_data</text><line style="stroke:#181818;stroke-width:0.5;" x1="2838.5" x2="3095.5" y1="634.5" y2="634.5"/><ellipse cx="2848.5" cy="645.5" fill="none" rx="3" ry="3" style="stroke:#038048;stroke-width:1.0;"/><text fill="#000000" font-family="sans-serif" font-size="14" lengthAdjust="spacing" textLength="233" x="2857.5" y="651.4951">attributes std::vector&lt;attribute&gt;</text><line style="stroke:#181818;stroke-width:0.5;" x1="2838.5" x2="3095.5" y1="658.7969" y2="658.7969"/></g><g id="elem_entities::GMN9"><path d="M2479,311.5 L2479,336.6328 A0,0 0 0 0 2479,336.6328 L2580,336.6328 L2584,417.35 L2588,336.6328 L2689,336.6328 A0,0 0 0 0 2689,336.6328 L2689,321.5 L2679,311.5 L2479,311.5 A0,0 0 0 0 2479,311.5 " fill="#FEFFDD" style="stroke:#181818;stroke-width:0.5;"/><path d="M2679,311.5 L2679,321.5 L2689,321.5 L2679,311.5 " fill="#FEFFDD" style="stroke:#181818;stroke-width:0.5;"/><text fill="#000000" font-family="sans-serif" font-size="13" lengthAdjust="spacing" textLength="189" x="2485" y="328.5669">Represents a diagram in Dia.</text></g><!--MD5=[122427e7c6336f62e771cbca05bee9af]
class entities::object--><g id="elem_entities::object"><rect codeLine="46" fill="#F7E5FF" height="145.7813" id="entities::object" rx="2.5" ry="2.5" style="stroke:#181818;stroke-width:0.5;" width="315" x="2108.5" y="768"/><ellipse cx="2239.75" cy="784" fill="#ADD1B2" rx="11" ry="11" style="stroke:#181818;stroke-width:1.0;"/><path d="M2242.7188,789.6406 Q2242.1406,789.9375 2241.5,790.0859 Q2240.8594,790.2344 2240.1563,790.2344 Q2237.6563,790.2344 2236.3359,788.5859 Q2235.0156,786.9375 2235.0156,783.8125 Q2235.0156,780.6875 2236.3359,779.0313 Q2237.6563,777.375 2240.1563,777.375 Q2240.8594,777.375 2241.5078,777.5313 Q2242.1563,777.6875 2242.7188,777.9844 L2242.7188,780.7031 Q2242.0938,780.125 2241.5,779.8516 Q2240.9063,779.5781 2240.2813,779.5781 Q2238.9375,779.5781 2238.25,780.6484 Q2237.5625,781.7188 2237.5625,783.8125 Q2237.5625,785.9063 2238.25,786.9766 Q2238.9375,788.0469 2240.2813,788.0469 Q2240.9063,788.0469 2241.5,787.7734 Q2242.0938,787.5 2242.7188,786.9219 L2242.7188,789.6406 Z " fill="#000000"/><text fill="#000000" font-family="sans-serif" font-size="14" lengthAdjust="spacing" textLength="44" x="2260.25" y="788.8467">object</text><line style="stroke:#181818;stroke-width:0.5;" x1="2109.5" x2="2422.5" y1="800" y2="800"/><ellipse cx="2119.5" cy="811" fill="none" rx="3" ry="3" style="stroke:#038048;stroke-width:1.0;"/><text fill="#000000" font-family="sans-serif" font-size="14" lengthAdjust="spacing" textLength="88" x="2128.5" y="816.9951">id std::string</text><ellipse cx="2119.5" cy="827.2969" fill="none" rx="3" ry="3" style="stroke:#038048;stroke-width:1.0;"/><text fill="#000000" font-family="sans-serif" font-size="14" lengthAdjust="spacing" textLength="106" x="2128.5" y="833.292">type std::string</text><ellipse cx="2119.5" cy="843.5938" fill="none" rx="3" ry="3" style="stroke:#038048;stroke-width:1.0;"/><text fill="#000000" font-family="sans-serif" font-size="14" lengthAdjust="spacing" textLength="74" x="2128.5" y="849.5889">version int</text><ellipse cx="2119.5" cy="859.8906" fill="none" rx="3" ry="3" style="stroke:#038048;stroke-width:1.0;"/><text fill="#000000" font-family="sans-serif" font-size="14" lengthAdjust="spacing" textLength="269" x="2128.5" y="865.8857">connections std::vector&lt;connection&gt;</text><ellipse cx="2119.5" cy="876.1875" fill="none" rx="3" ry="3" style="stroke:#038048;stroke-width:1.0;"/><text fill="#000000" font-family="sans-serif" font-size="14" lengthAdjust="spacing" textLength="289" x="2128.5" y="882.1826">child_node boost::optional&lt;child_node&gt;</text><ellipse cx="2119.5" cy="892.4844" fill="none" rx="3" ry="3" style="stroke:#038048;stroke-width:1.0;"/><text fill="#000000" font-family="sans-serif" font-size="14" lengthAdjust="spacing" textLength="233" x="2128.5" y="898.4795">attributes std::vector&lt;attribute&gt;</text><line style="stroke:#181818;stroke-width:0.5;" x1="2109.5" x2="2422.5" y1="905.7813" y2="905.7813"/></g><g id="elem_entities::GMN14"><path d="M1817.5,445.5 L1817.5,470.6328 L2076.5,470.6328 L2076.5,455.5 L2066.5,445.5 L1817.5,445.5 " fill="#FEFFDD" style="stroke:#181818;stroke-width:0.5;"/><path d="M2066.5,445.5 L2066.5,455.5 L2076.5,455.5 L2066.5,445.5 " fill="#FEFFDD" style="stroke:#181818;stroke-width:1.0;"/><text fill="#000000" font-family="sans-serif" font-size="13" lengthAdjust="spacing" textLength="238" x="1823.5" y="462.5669">Represents a layer in a Dia diagram.</text></g><!--MD5=[5f67e098f5e48b6dbef0139961dc263d]
class entities::attribute--><g id="elem_entities::attribute"><rect codeLine="85" fill="#F7E5FF" height="80.5938" id="entities::attribute" rx="2.5" ry="2.5" style="stroke:#181818;stroke-width:0.5;" width="846" x="1517" y="975"/><ellipse cx="1905.25" cy="991" fill="#ADD1B2" rx="11" ry="11" style="stroke:#181818;stroke-width:1.0;"/><path d="M1908.2188,996.6406 Q1907.6406,996.9375 1907,997.0859 Q1906.3594,997.2344 1905.6563,997.2344 Q1903.1563,997.2344 1901.8359,995.5859 Q1900.5156,993.9375 1900.5156,990.8125 Q1900.5156,987.6875 1901.8359,986.0313 Q1903.1563,984.375 1905.6563,984.375 Q1906.3594,984.375 1907.0078,984.5313 Q1907.6563,984.6875 1908.2188,984.9844 L1908.2188,987.7031 Q1907.5938,987.125 1907,986.8516 Q1906.4063,986.5781 1905.7813,986.5781 Q1904.4375,986.5781 1903.75,987.6484 Q1903.0625,988.7188 1903.0625,990.8125 Q1903.0625,992.9063 1903.75,993.9766 Q1904.4375,995.0469 1905.7813,995.0469 Q1906.4063,995.0469 1907,994.7734 Q1907.5938,994.5 1908.2188,993.9219 L1908.2188,996.6406 Z " fill="#000000"/><text fill="#000000" font-family="sans-serif" font-size="14" lengthAdjust="spacing" textLength="61" x="1925.75" y="995.8467">attribute</text><line style="stroke:#181818;stroke-width:0.5;" x1="1518" x2="2362" y1="1007" y2="1007"/><ellipse cx="1528" cy="1018" fill="none" rx="3" ry="3" style="stroke:#038048;stroke-width:1.0;"/><text fill="#000000" font-family="sans-serif" font-size="14" lengthAdjust="spacing" textLength="116" x="1537" y="1023.9951">name std::string</text><ellipse cx="1528" cy="1034.2969" fill="none" rx="3" ry="3" style="stroke:#038048;stroke-width:1.0;"/><text fill="#000000" font-family="sans-serif" font-size="14" lengthAdjust="spacing" textLength="820" x="1537" y="1040.292">values std::vector&lt;boost::variant&lt;color,real,integer,font,boolean,point,string,enumeration,rectangle,composite&gt;&gt;</text><line style="stroke:#181818;stroke-width:0.5;" x1="1518" x2="2362" y1="1047.5938" y2="1047.5938"/></g><g id="elem_entities::GMN19"><path d="M2733,445.5 L2733,470.6328 A0,0 0 0 0 2733,470.6328 L2914.49,470.6328 L2957.7,602.28 L2922.49,470.6328 L3097,470.6328 A0,0 0 0 0 3097,470.6328 L3097,455.5 L3087,445.5 L2733,445.5 A0,0 0 0 0 2733,445.5 " fill="#FEFFDD" style="stroke:#181818;stroke-width:0.5;"/><path d="M3087,445.5 L3087,455.5 L3097,455.5 L3087,445.5 " fill="#FEFFDD" style="stroke:#181818;stroke-width:0.5;"/><text fill="#000000" font-family="sans-serif" font-size="13" lengthAdjust="spacing" textLength="343" x="2739" y="462.5669">Represents a all the data associated with a diagram.</text></g><!--MD5=[b5ed01acdc87a7ba6de8a01e5463d11b]
class entities::connection--><g id="elem_entities::connection"><rect codeLine="63" fill="#F7E5FF" height="96.8906" id="entities::connection" rx="2.5" ry="2.5" style="stroke:#181818;stroke-width:0.5;" width="212" x="2590" y="586"/><ellipse cx="2652.25" cy="602" fill="#ADD1B2" rx="11" ry="11" style="stroke:#181818;stroke-width:1.0;"/><path d="M2655.2188,607.6406 Q2654.6406,607.9375 2654,608.0859 Q2653.3594,608.2344 2652.6563,608.2344 Q2650.1563,608.2344 2648.8359,606.5859 Q2647.5156,604.9375 2647.5156,601.8125 Q2647.5156,598.6875 2648.8359,597.0313 Q2650.1563,595.375 2652.6563,595.375 Q2653.3594,595.375 2654.0078,595.5313 Q2654.6563,595.6875 2655.2188,595.9844 L2655.2188,598.7031 Q2654.5938,598.125 2654,597.8516 Q2653.4063,597.5781 2652.7813,597.5781 Q2651.4375,597.5781 2650.75,598.6484 Q2650.0625,599.7188 2650.0625,601.8125 Q2650.0625,603.9063 2650.75,604.9766 Q2651.4375,606.0469 2652.7813,606.0469 Q2653.4063,606.0469 2654,605.7734 Q2654.5938,605.5 2655.2188,604.9219 L2655.2188,607.6406 Z " fill="#000000"/><text fill="#000000" font-family="sans-serif" font-size="14" lengthAdjust="spacing" textLength="79" x="2672.75" y="606.8467">connection</text><line style="stroke:#181818;stroke-width:0.5;" x1="2591" x2="2801" y1="618" y2="618"/><ellipse cx="2601" cy="629" fill="none" rx="3" ry="3" style="stroke:#038048;stroke-width:1.0;"/><text fill="#000000" font-family="sans-serif" font-size="14" lengthAdjust="spacing" textLength="124" x="2610" y="634.9951">handle std::string</text><ellipse cx="2601" cy="645.2969" fill="none" rx="3" ry="3" style="stroke:#038048;stroke-width:1.0;"/><text fill="#000000" font-family="sans-serif" font-size="14" lengthAdjust="spacing" textLength="89" x="2610" y="651.292">to std::string</text><ellipse cx="2601" cy="661.5938" fill="none" rx="3" ry="3" style="stroke:#038048;stroke-width:1.0;"/><text fill="#000000" font-family="sans-serif" font-size="14" lengthAdjust="spacing" textLength="186" x="2610" y="667.5889">connection_slot std::string</text><line style="stroke:#181818;stroke-width:0.5;" x1="2591" x2="2801" y1="674.8906" y2="674.8906"/></g><!--MD5=[099366974d52902939be6a57f202363e]
class entities::child_node--><g id="elem_entities::child_node"><rect codeLine="73" fill="#F7E5FF" height="64.2969" id="entities::child_node" rx="2.5" ry="2.5" style="stroke:#181818;stroke-width:0.5;" width="148" x="1931" y="602.5"/><ellipse cx="1963.55" cy="618.5" fill="#ADD1B2" rx="11" ry="11" style="stroke:#181818;stroke-width:1.0;"/><path d="M1966.5188,624.1406 Q1965.9406,624.4375 1965.3,624.5859 Q1964.6594,624.7344 1963.9563,624.7344 Q1961.4563,624.7344 1960.1359,623.0859 Q1958.8156,621.4375 1958.8156,618.3125 Q1958.8156,615.1875 1960.1359,613.5313 Q1961.4563,611.875 1963.9563,611.875 Q1964.6594,611.875 1965.3078,612.0313 Q1965.9563,612.1875 1966.5188,612.4844 L1966.5188,615.2031 Q1965.8938,614.625 1965.3,614.3516 Q1964.7063,614.0781 1964.0813,614.0781 Q1962.7375,614.0781 1962.05,615.1484 Q1961.3625,616.2188 1961.3625,618.3125 Q1961.3625,620.4063 1962.05,621.4766 Q1962.7375,622.5469 1964.0813,622.5469 Q1964.7063,622.5469 1965.3,622.2734 Q1965.8938,622 1966.5188,621.4219 L1966.5188,624.1406 Z " fill="#000000"/><text fill="#000000" font-family="sans-serif" font-size="14" lengthAdjust="spacing" textLength="77" x="1981.45" y="623.3467">child_node</text><line style="stroke:#181818;stroke-width:0.5;" x1="1932" x2="2078" y1="634.5" y2="634.5"/><ellipse cx="1942" cy="645.5" fill="none" rx="3" ry="3" style="stroke:#038048;stroke-width:1.0;"/><text fill="#000000" font-family="sans-serif" font-size="14" lengthAdjust="spacing" textLength="122" x="1951" y="651.4951">parent std::string</text><line style="stroke:#181818;stroke-width:0.5;" x1="1932" x2="2078" y1="658.7969" y2="658.7969"/></g><g id="elem_entities::GMN29"><path d="M2114,622 L2114,647.1328 A0,0 0 0 0 2114,647.1328 L2203.51,647.1328 L2244.09,767.72 L2211.51,647.1328 L2294,647.1328 A0,0 0 0 0 2294,647.1328 L2294,632 L2284,622 L2114,622 A0,0 0 0 0 2114,622 " fill="#FEFFDD" style="stroke:#181818;stroke-width:0.5;"/><path d="M2284,622 L2284,632 L2294,632 L2284,622 " fill="#FEFFDD" style="stroke:#181818;stroke-width:0.5;"/><text fill="#000000" font-family="sans-serif" font-size="13" lengthAdjust="spacing" textLength="159" x="2120" y="639.0669">Represents a Dia object.</text></g><g id="elem_entities::GMN32"><path d="M2111.5,445.5 L2111.5,470.6328 L2434.5,470.6328 L2434.5,455.5 L2424.5,445.5 L2111.5,445.5 " fill="#FEFFDD" style="stroke:#181818;stroke-width:0.5;"/><path d="M2424.5,445.5 L2424.5,455.5 L2434.5,455.5 L2424.5,445.5 " fill="#FEFFDD" style="stroke:#181818;stroke-width:1.0;"/><text fill="#000000" font-family="sans-serif" font-size="13" lengthAdjust="spacing" textLength="302" x="2117.5" y="462.5669">Connection between entities in a Dia diagram.</text></g><g id="elem_entities::GMN35"><path d="M1079.5,415 L1079.5,500.6641 L1782.5,500.6641 L1782.5,425 L1772.5,415 L1079.5,415 " fill="#FEFFDD" style="stroke:#181818;stroke-width:0.5;"/><path d="M1772.5,415 L1772.5,425 L1782.5,425 L1772.5,415 " fill="#FEFFDD" style="stroke:#181818;stroke-width:1.0;"/><text fill="#000000" font-family="sans-serif" font-size="13" lengthAdjust="spacing" textLength="249" x="1117.5" y="432.0669">Represents a child_node in a diagram.</text><text fill="#000000" font-family="sans-serif" font-size="13" lengthAdjust="spacing" textLength="4" x="1085.5" y="447.1997"> </text><text fill="#000000" font-family="sans-serif" font-size="13" lengthAdjust="spacing" textLength="680" x="1085.5" y="462.3325">Child nodes are used in Dia to represent the relationship between a package and the entities it contains.</text><text fill="#000000" font-family="sans-serif" font-size="13" lengthAdjust="spacing" textLength="682" x="1085.5" y="477.4653">For example, if class O1 is inside package O0 then class O1 will have a child node element with a parent</text><text fill="#000000" font-family="sans-serif" font-size="13" lengthAdjust="spacing" textLength="96" x="1085.5" y="492.5981">pointing to O0.</text></g><!--MD5=[5870999b90e4d0604ecb8159dede7030]
class entities::font--><g id="elem_entities::font"><rect codeLine="118" fill="#F7E5FF" height="96.8906" id="entities::font" rx="2.5" ry="2.5" style="stroke:#181818;stroke-width:0.5;" width="145" x="1698.5" y="792.5"/><ellipse cx="1752.75" cy="808.5" fill="#ADD1B2" rx="11" ry="11" style="stroke:#181818;stroke-width:1.0;"/><path d="M1755.7188,814.1406 Q1755.1406,814.4375 1754.5,814.5859 Q1753.8594,814.7344 1753.1563,814.7344 Q1750.6563,814.7344 1749.3359,813.0859 Q1748.0156,811.4375 1748.0156,808.3125 Q1748.0156,805.1875 1749.3359,803.5313 Q1750.6563,801.875 1753.1563,801.875 Q1753.8594,801.875 1754.5078,802.0313 Q1755.1563,802.1875 1755.7188,802.4844 L1755.7188,805.2031 Q1755.0938,804.625 1754.5,804.3516 Q1753.9063,804.0781 1753.2813,804.0781 Q1751.9375,804.0781 1751.25,805.1484 Q1750.5625,806.2188 1750.5625,808.3125 Q1750.5625,810.4063 1751.25,811.4766 Q1751.9375,812.5469 1753.2813,812.5469 Q1753.9063,812.5469 1754.5,812.2734 Q1755.0938,812 1755.7188,811.4219 L1755.7188,814.1406 Z " fill="#000000"/><text fill="#000000" font-family="sans-serif" font-size="14" lengthAdjust="spacing" textLength="28" x="1773.25" y="813.3467">font</text><line style="stroke:#181818;stroke-width:0.5;" x1="1699.5" x2="1842.5" y1="824.5" y2="824.5"/><ellipse cx="1709.5" cy="835.5" fill="none" rx="3" ry="3" style="stroke:#038048;stroke-width:1.0;"/><text fill="#000000" font-family="sans-serif" font-size="14" lengthAdjust="spacing" textLength="119" x="1718.5" y="841.4951">family std::string</text><ellipse cx="1709.5" cy="851.7969" fill="none" rx="3" ry="3" style="stroke:#038048;stroke-width:1.0;"/><text fill="#000000" font-family="sans-serif" font-size="14" lengthAdjust="spacing" textLength="108" x="1718.5" y="857.792">style std::string</text><ellipse cx="1709.5" cy="868.0938" fill="none" rx="3" ry="3" style="stroke:#038048;stroke-width:1.0;"/><text fill="#000000" font-family="sans-serif" font-size="14" lengthAdjust="spacing" textLength="116" x="1718.5" y="874.0889">name std::string</text><line style="stroke:#181818;stroke-width:0.5;" x1="1699.5" x2="1842.5" y1="881.3906" y2="881.3906"/></g><!--MD5=[1fd22289eb57a64775c784614f4028e3]
class entities::composite--><g id="elem_entities::composite"><rect codeLine="105" fill="#ED8181" height="105.1563" id="entities::composite" rx="2.5" ry="2.5" style="stroke:#181818;stroke-width:0.5;" width="379" x="1750.5" y="1117"/><ellipse cx="1875.75" cy="1137.1328" fill="#ADD1B2" rx="11" ry="11" style="stroke:#181818;stroke-width:1.0;"/><path d="M1878.7188,1142.7734 Q1878.1406,1143.0703 1877.5,1143.2188 Q1876.8594,1143.3672 1876.1563,1143.3672 Q1873.6563,1143.3672 1872.3359,1141.7188 Q1871.0156,1140.0703 1871.0156,1136.9453 Q1871.0156,1133.8203 1872.3359,1132.1641 Q1873.6563,1130.5078 1876.1563,1130.5078 Q1876.8594,1130.5078 1877.5078,1130.6641 Q1878.1563,1130.8203 1878.7188,1131.1172 L1878.7188,1133.8359 Q1878.0938,1133.2578 1877.5,1132.9844 Q1876.9063,1132.7109 1876.2813,1132.7109 Q1874.9375,1132.7109 1874.25,1133.7813 Q1873.5625,1134.8516 1873.5625,1136.9453 Q1873.5625,1139.0391 1874.25,1140.1094 Q1874.9375,1141.1797 1876.2813,1141.1797 Q1876.9063,1141.1797 1877.5,1140.9063 Q1878.0938,1140.6328 1878.7188,1140.0547 L1878.7188,1142.7734 Z " fill="#000000"/><text fill="#000000" font-family="sans-serif" font-size="12" font-style="italic" lengthAdjust="spacing" textLength="124" x="1894.25" y="1133.1387">«dogen::untestable»</text><text fill="#000000" font-family="sans-serif" font-size="14" lengthAdjust="spacing" textLength="74" x="1919.25" y="1148.9639">composite</text><line style="stroke:#181818;stroke-width:0.5;" x1="1751.5" x2="2128.5" y1="1157.2656" y2="1157.2656"/><ellipse cx="1761.5" cy="1168.2656" fill="none" rx="3" ry="3" style="stroke:#038048;stroke-width:1.0;"/><text fill="#000000" font-family="sans-serif" font-size="14" lengthAdjust="spacing" textLength="106" x="1770.5" y="1174.2607">type std::string</text><ellipse cx="1761.5" cy="1184.5625" fill="none" rx="3" ry="3" style="stroke:#038048;stroke-width:1.0;"/><text fill="#000000" font-family="sans-serif" font-size="14" lengthAdjust="spacing" textLength="353" x="1770.5" y="1190.5576">value std::vector&lt;boost::shared_ptr&lt;attribute&gt;&gt;</text><ellipse cx="1761.5" cy="1200.8594" fill="none" rx="3" ry="3" style="stroke:#038048;stroke-width:1.0;"/><text fill="#000000" font-family="sans-serif" font-size="14" lengthAdjust="spacing" textLength="345" x="1770.5" y="1206.8545">inner_composite boost::shared_ptr&lt;composite&gt;</text><line style="stroke:#181818;stroke-width:0.5;" x1="1751.5" x2="2128.5" y1="1214.1563" y2="1214.1563"/></g><!--MD5=[2143a4b192e54374fd66228b8e6587f2]
class entities::color--><g id="elem_entities::color"><rect codeLine="128" fill="#F7E5FF" height="64.2969" id="entities::color" rx="2.5" ry="2.5" style="stroke:#181818;stroke-width:0.5;" width="140" x="1509" y="809"/><ellipse cx="1556.75" cy="825" fill="#ADD1B2" rx="11" ry="11" style="stroke:#181818;stroke-width:1.0;"/><path d="M1559.7188,830.6406 Q1559.1406,830.9375 1558.5,831.0859 Q1557.8594,831.2344 1557.1563,831.2344 Q1554.6563,831.2344 1553.3359,829.5859 Q1552.0156,827.9375 1552.0156,824.8125 Q1552.0156,821.6875 1553.3359,820.0313 Q1554.6563,818.375 1557.1563,818.375 Q1557.8594,818.375 1558.5078,818.5313 Q1559.1563,818.6875 1559.7188,818.9844 L1559.7188,821.7031 Q1559.0938,821.125 1558.5,820.8516 Q1557.9063,820.5781 1557.2813,820.5781 Q1555.9375,820.5781 1555.25,821.6484 Q1554.5625,822.7188 1554.5625,824.8125 Q1554.5625,826.9063 1555.25,827.9766 Q1555.9375,829.0469 1557.2813,829.0469 Q1557.9063,829.0469 1558.5,828.7734 Q1559.0938,828.5 1559.7188,827.9219 L1559.7188,830.6406 Z " fill="#000000"/><text fill="#000000" font-family="sans-serif" font-size="14" lengthAdjust="spacing" textLength="36" x="1577.25" y="829.8467">color</text><line style="stroke:#181818;stroke-width:0.5;" x1="1510" x2="1648" y1="841" y2="841"/><ellipse cx="1520" cy="852" fill="none" rx="3" ry="3" style="stroke:#038048;stroke-width:1.0;"/><text fill="#000000" font-family="sans-serif" font-size="14" lengthAdjust="spacing" textLength="114" x="1529" y="857.9951">value std::string</text><line style="stroke:#181818;stroke-width:0.5;" x1="1510" x2="1648" y1="865.2969" y2="865.2969"/></g><!--MD5=[11066f05f61f64ed5d0835eebef8072b]
class entities::real--><g id="elem_entities::real"><rect codeLine="136" fill="#F7E5FF" height="64.2969" id="entities::real" rx="2.5" ry="2.5" style="stroke:#181818;stroke-width:0.5;" width="140" x="1306" y="809"/><ellipse cx="1357.75" cy="825" fill="#ADD1B2" rx="11" ry="11" style="stroke:#181818;stroke-width:1.0;"/><path d="M1360.7188,830.6406 Q1360.1406,830.9375 1359.5,831.0859 Q1358.8594,831.2344 1358.1563,831.2344 Q1355.6563,831.2344 1354.3359,829.5859 Q1353.0156,827.9375 1353.0156,824.8125 Q1353.0156,821.6875 1354.3359,820.0313 Q1355.6563,818.375 1358.1563,818.375 Q1358.8594,818.375 1359.5078,818.5313 Q1360.1563,818.6875 1360.7188,818.9844 L1360.7188,821.7031 Q1360.0938,821.125 1359.5,820.8516 Q1358.9063,820.5781 1358.2813,820.5781 Q1356.9375,820.5781 1356.25,821.6484 Q1355.5625,822.7188 1355.5625,824.8125 Q1355.5625,826.9063 1356.25,827.9766 Q1356.9375,829.0469 1358.2813,829.0469 Q1358.9063,829.0469 1359.5,828.7734 Q1360.0938,828.5 1360.7188,827.9219 L1360.7188,830.6406 Z " fill="#000000"/><text fill="#000000" font-family="sans-serif" font-size="14" lengthAdjust="spacing" textLength="28" x="1378.25" y="829.8467">real</text><line style="stroke:#181818;stroke-width:0.5;" x1="1307" x2="1445" y1="841" y2="841"/><ellipse cx="1317" cy="852" fill="none" rx="3" ry="3" style="stroke:#038048;stroke-width:1.0;"/><text fill="#000000" font-family="sans-serif" font-size="14" lengthAdjust="spacing" textLength="114" x="1326" y="857.9951">value std::string</text><line style="stroke:#181818;stroke-width:0.5;" x1="1307" x2="1445" y1="865.2969" y2="865.2969"/></g><!--MD5=[d04c4b012c0f246f8a3bd1f3a98c962e]
class entities::integer--><g id="elem_entities::integer"><rect codeLine="144" fill="#F7E5FF" height="64.2969" id="entities::integer" rx="2.5" ry="2.5" style="stroke:#181818;stroke-width:0.5;" width="140" x="1075" y="809"/><ellipse cx="1115.65" cy="825" fill="#ADD1B2" rx="11" ry="11" style="stroke:#181818;stroke-width:1.0;"/><path d="M1118.6188,830.6406 Q1118.0406,830.9375 1117.4,831.0859 Q1116.7594,831.2344 1116.0563,831.2344 Q1113.5563,831.2344 1112.2359,829.5859 Q1110.9156,827.9375 1110.9156,824.8125 Q1110.9156,821.6875 1112.2359,820.0313 Q1113.5563,818.375 1116.0563,818.375 Q1116.7594,818.375 1117.4078,818.5313 Q1118.0563,818.6875 1118.6188,818.9844 L1118.6188,821.7031 Q1117.9938,821.125 1117.4,820.8516 Q1116.8063,820.5781 1116.1813,820.5781 Q1114.8375,820.5781 1114.15,821.6484 Q1113.4625,822.7188 1113.4625,824.8125 Q1113.4625,826.9063 1114.15,827.9766 Q1114.8375,829.0469 1116.1813,829.0469 Q1116.8063,829.0469 1117.4,828.7734 Q1117.9938,828.5 1118.6188,827.9219 L1118.6188,830.6406 Z " fill="#000000"/><text fill="#000000" font-family="sans-serif" font-size="14" lengthAdjust="spacing" textLength="51" x="1135.35" y="829.8467">integer</text><line style="stroke:#181818;stroke-width:0.5;" x1="1076" x2="1214" y1="841" y2="841"/><ellipse cx="1086" cy="852" fill="none" rx="3" ry="3" style="stroke:#038048;stroke-width:1.0;"/><text fill="#000000" font-family="sans-serif" font-size="14" lengthAdjust="spacing" textLength="114" x="1095" y="857.9951">value std::string</text><line style="stroke:#181818;stroke-width:0.5;" x1="1076" x2="1214" y1="865.2969" y2="865.2969"/></g><!--MD5=[955d6cd415cccbe0e258fe71a3d63033]
class entities::boolean--><g id="elem_entities::boolean"><rect codeLine="152" fill="#F7E5FF" height="64.2969" id="entities::boolean" rx="2.5" ry="2.5" style="stroke:#181818;stroke-width:0.5;" width="140" x="788" y="809"/><ellipse cx="825.5" cy="825" fill="#ADD1B2" rx="11" ry="11" style="stroke:#181818;stroke-width:1.0;"/><path d="M828.4688,830.6406 Q827.8906,830.9375 827.25,831.0859 Q826.6094,831.2344 825.9063,831.2344 Q823.4063,831.2344 822.0859,829.5859 Q820.7656,827.9375 820.7656,824.8125 Q820.7656,821.6875 822.0859,820.0313 Q823.4063,818.375 825.9063,818.375 Q826.6094,818.375 827.2578,818.5313 Q827.9063,818.6875 828.4688,818.9844 L828.4688,821.7031 Q827.8438,821.125 827.25,820.8516 Q826.6563,820.5781 826.0313,820.5781 Q824.6875,820.5781 824,821.6484 Q823.3125,822.7188 823.3125,824.8125 Q823.3125,826.9063 824,827.9766 Q824.6875,829.0469 826.0313,829.0469 Q826.6563,829.0469 827.25,828.7734 Q827.8438,828.5 828.4688,827.9219 L828.4688,830.6406 Z " fill="#000000"/><text fill="#000000" font-family="sans-serif" font-size="14" lengthAdjust="spacing" textLength="58" x="844.5" y="829.8467">boolean</text><line style="stroke:#181818;stroke-width:0.5;" x1="789" x2="927" y1="841" y2="841"/><ellipse cx="799" cy="852" fill="none" rx="3" ry="3" style="stroke:#038048;stroke-width:1.0;"/><text fill="#000000" font-family="sans-serif" font-size="14" lengthAdjust="spacing" textLength="114" x="808" y="857.9951">value std::string</text><line style="stroke:#181818;stroke-width:0.5;" x1="789" x2="927" y1="865.2969" y2="865.2969"/></g><!--MD5=[7675e54bb301a9ce222c40dd34e6c0b8]
class entities::point--><g id="elem_entities::point"><rect codeLine="160" fill="#F7E5FF" height="64.2969" id="entities::point" rx="2.5" ry="2.5" style="stroke:#181818;stroke-width:0.5;" width="140" x="1162" y="1137.5"/><ellipse cx="1209.75" cy="1153.5" fill="#ADD1B2" rx="11" ry="11" style="stroke:#181818;stroke-width:1.0;"/><path d="M1212.7188,1159.1406 Q1212.1406,1159.4375 1211.5,1159.5859 Q1210.8594,1159.7344 1210.1563,1159.7344 Q1207.6563,1159.7344 1206.3359,1158.0859 Q1205.0156,1156.4375 1205.0156,1153.3125 Q1205.0156,1150.1875 1206.3359,1148.5313 Q1207.6563,1146.875 1210.1563,1146.875 Q1210.8594,1146.875 1211.5078,1147.0313 Q1212.1563,1147.1875 1212.7188,1147.4844 L1212.7188,1150.2031 Q1212.0938,1149.625 1211.5,1149.3516 Q1210.9063,1149.0781 1210.2813,1149.0781 Q1208.9375,1149.0781 1208.25,1150.1484 Q1207.5625,1151.2188 1207.5625,1153.3125 Q1207.5625,1155.4063 1208.25,1156.4766 Q1208.9375,1157.5469 1210.2813,1157.5469 Q1210.9063,1157.5469 1211.5,1157.2734 Q1212.0938,1157 1212.7188,1156.4219 L1212.7188,1159.1406 Z " fill="#000000"/><text fill="#000000" font-family="sans-serif" font-size="14" lengthAdjust="spacing" textLength="36" x="1230.25" y="1158.3467">point</text><line style="stroke:#181818;stroke-width:0.5;" x1="1163" x2="1301" y1="1169.5" y2="1169.5"/><ellipse cx="1173" cy="1180.5" fill="none" rx="3" ry="3" style="stroke:#038048;stroke-width:1.0;"/><text fill="#000000" font-family="sans-serif" font-size="14" lengthAdjust="spacing" textLength="114" x="1182" y="1186.4951">value std::string</text><line style="stroke:#181818;stroke-width:0.5;" x1="1163" x2="1301" y1="1193.7969" y2="1193.7969"/></g><!--MD5=[460b860507682c499de839c6ca4f24cb]
class entities::enumeration--><g id="elem_entities::enumeration"><rect codeLine="168" fill="#F7E5FF" height="64.2969" id="entities::enumeration" rx="2.5" ry="2.5" style="stroke:#181818;stroke-width:0.5;" width="140" x="894" y="1137.5"/><ellipse cx="916.2" cy="1153.5" fill="#ADD1B2" rx="11" ry="11" style="stroke:#181818;stroke-width:1.0;"/><path d="M919.1688,1159.1406 Q918.5906,1159.4375 917.95,1159.5859 Q917.3094,1159.7344 916.6063,1159.7344 Q914.1063,1159.7344 912.7859,1158.0859 Q911.4656,1156.4375 911.4656,1153.3125 Q911.4656,1150.1875 912.7859,1148.5313 Q914.1063,1146.875 916.6063,1146.875 Q917.3094,1146.875 917.9578,1147.0313 Q918.6063,1147.1875 919.1688,1147.4844 L919.1688,1150.2031 Q918.5438,1149.625 917.95,1149.3516 Q917.3563,1149.0781 916.7313,1149.0781 Q915.3875,1149.0781 914.7,1150.1484 Q914.0125,1151.2188 914.0125,1153.3125 Q914.0125,1155.4063 914.7,1156.4766 Q915.3875,1157.5469 916.7313,1157.5469 Q917.3563,1157.5469 917.95,1157.2734 Q918.5438,1157 919.1688,1156.4219 L919.1688,1159.1406 Z " fill="#000000"/><text fill="#000000" font-family="sans-serif" font-size="14" lengthAdjust="spacing" textLength="92" x="931.8" y="1158.3467">enumeration</text><line style="stroke:#181818;stroke-width:0.5;" x1="895" x2="1033" y1="1169.5" y2="1169.5"/><ellipse cx="905" cy="1180.5" fill="none" rx="3" ry="3" style="stroke:#038048;stroke-width:1.0;"/><text fill="#000000" font-family="sans-serif" font-size="14" lengthAdjust="spacing" textLength="114" x="914" y="1186.4951">value std::string</text><line style="stroke:#181818;stroke-width:0.5;" x1="895" x2="1033" y1="1193.7969" y2="1193.7969"/></g><!--MD5=[cc732d6d7f98f59eddf4250e1bb8be9f]
class entities::string--><g id="elem_entities::string"><rect codeLine="176" fill="#F7E5FF" height="64.2969" id="entities::string" rx="2.5" ry="2.5" style="stroke:#181818;stroke-width:0.5;" width="140" x="1510" y="1137.5"/><ellipse cx="1555.75" cy="1153.5" fill="#ADD1B2" rx="11" ry="11" style="stroke:#181818;stroke-width:1.0;"/><path d="M1558.7188,1159.1406 Q1558.1406,1159.4375 1557.5,1159.5859 Q1556.8594,1159.7344 1556.1563,1159.7344 Q1553.6563,1159.7344 1552.3359,1158.0859 Q1551.0156,1156.4375 1551.0156,1153.3125 Q1551.0156,1150.1875 1552.3359,1148.5313 Q1553.6563,1146.875 1556.1563,1146.875 Q1556.8594,1146.875 1557.5078,1147.0313 Q1558.1563,1147.1875 1558.7188,1147.4844 L1558.7188,1150.2031 Q1558.0938,1149.625 1557.5,1149.3516 Q1556.9063,1149.0781 1556.2813,1149.0781 Q1554.9375,1149.0781 1554.25,1150.1484 Q1553.5625,1151.2188 1553.5625,1153.3125 Q1553.5625,1155.4063 1554.25,1156.4766 Q1554.9375,1157.5469 1556.2813,1157.5469 Q1556.9063,1157.5469 1557.5,1157.2734 Q1558.0938,1157 1558.7188,1156.4219 L1558.7188,1159.1406 Z " fill="#000000"/><text fill="#000000" font-family="sans-serif" font-size="14" lengthAdjust="spacing" textLength="40" x="1576.25" y="1158.3467">string</text><line style="stroke:#181818;stroke-width:0.5;" x1="1511" x2="1649" y1="1169.5" y2="1169.5"/><ellipse cx="1521" cy="1180.5" fill="none" rx="3" ry="3" style="stroke:#038048;stroke-width:1.0;"/><text fill="#000000" font-family="sans-serif" font-size="14" lengthAdjust="spacing" textLength="114" x="1530" y="1186.4951">value std::string</text><line style="stroke:#181818;stroke-width:0.5;" x1="1511" x2="1649" y1="1193.7969" y2="1193.7969"/></g><!--MD5=[bba84cf1c363bb41f71d62f13bd687ff]
class entities::rectangle--><g id="elem_entities::rectangle"><rect codeLine="184" fill="#F7E5FF" height="64.2969" id="entities::rectangle" rx="2.5" ry="2.5" style="stroke:#181818;stroke-width:0.5;" width="140" x="2525" y="1137.5"/><ellipse cx="2558" cy="1153.5" fill="#ADD1B2" rx="11" ry="11" style="stroke:#181818;stroke-width:1.0;"/><path d="M2560.9688,1159.1406 Q2560.3906,1159.4375 2559.75,1159.5859 Q2559.1094,1159.7344 2558.4063,1159.7344 Q2555.9063,1159.7344 2554.5859,1158.0859 Q2553.2656,1156.4375 2553.2656,1153.3125 Q2553.2656,1150.1875 2554.5859,1148.5313 Q2555.9063,1146.875 2558.4063,1146.875 Q2559.1094,1146.875 2559.7578,1147.0313 Q2560.4063,1147.1875 2560.9688,1147.4844 L2560.9688,1150.2031 Q2560.3438,1149.625 2559.75,1149.3516 Q2559.1563,1149.0781 2558.5313,1149.0781 Q2557.1875,1149.0781 2556.5,1150.1484 Q2555.8125,1151.2188 2555.8125,1153.3125 Q2555.8125,1155.4063 2556.5,1156.4766 Q2557.1875,1157.5469 2558.5313,1157.5469 Q2559.1563,1157.5469 2559.75,1157.2734 Q2560.3438,1157 2560.9688,1156.4219 L2560.9688,1159.1406 Z " fill="#000000"/><text fill="#000000" font-family="sans-serif" font-size="14" lengthAdjust="spacing" textLength="68" x="2576" y="1158.3467">rectangle</text><line style="stroke:#181818;stroke-width:0.5;" x1="2526" x2="2664" y1="1169.5" y2="1169.5"/><ellipse cx="2536" cy="1180.5" fill="none" rx="3" ry="3" style="stroke:#038048;stroke-width:1.0;"/><text fill="#000000" font-family="sans-serif" font-size="14" lengthAdjust="spacing" textLength="114" x="2545" y="1186.4951">value std::string</text><line style="stroke:#181818;stroke-width:0.5;" x1="2526" x2="2664" y1="1193.7969" y2="1193.7969"/></g><g id="elem_entities::GMN63"><path d="M1879,828.5 L1879,853.6328 A0,0 0 0 0 1879,853.6328 L1969.58,853.6328 L1948.27,974.88 L1977.58,853.6328 L2073,853.6328 A0,0 0 0 0 2073,853.6328 L2073,838.5 L2063,828.5 L1879,828.5 A0,0 0 0 0 1879,828.5 " fill="#FEFFDD" style="stroke:#181818;stroke-width:0.5;"/><path d="M2063,828.5 L2063,838.5 L2073,838.5 L2063,828.5 " fill="#FEFFDD" style="stroke:#181818;stroke-width:0.5;"/><text fill="#000000" font-family="sans-serif" font-size="13" lengthAdjust="spacing" textLength="173" x="1885" y="845.5669">Attribute in a Dia diagram.</text></g><g id="elem_entities::GMN68"><path d="M2398,1003 L2398,1028.1328 A0,0 0 0 0 2398,1028.1328 L2526.45,1028.1328 L2129.83,1123.34 L2534.45,1028.1328 L2760,1028.1328 A0,0 0 0 0 2760,1028.1328 L2760,1013 L2750,1003 L2398,1003 A0,0 0 0 0 2398,1003 " fill="#FEFFDD" style="stroke:#181818;stroke-width:0.5;"/><path d="M2750,1003 L2750,1013 L2760,1013 L2750,1003 " fill="#FEFFDD" style="stroke:#181818;stroke-width:0.5;"/><text fill="#000000" font-family="sans-serif" font-size="13" lengthAdjust="spacing" textLength="341" x="2404" y="1020.0669">Attribute value which is made up of other attributes.</text></g><g id="elem_entities::GMN71"><path d="M1670,622 L1670,647.1328 A0,0 0 0 0 1670,647.1328 L1778.32,647.1328 L1773.81,792.14 L1786.32,647.1328 L1896,647.1328 A0,0 0 0 0 1896,647.1328 L1896,632 L1886,622 L1670,622 A0,0 0 0 0 1670,622 " fill="#FEFFDD" style="stroke:#181818;stroke-width:0.5;"/><path d="M1886,622 L1886,632 L1896,632 L1886,622 " fill="#FEFFDD" style="stroke:#181818;stroke-width:0.5;"/><text fill="#000000" font-family="sans-serif" font-size="13" lengthAdjust="spacing" textLength="205" x="1676" y="639.0669">Represents a font in a diagram.</text></g><g id="elem_entities::GMN74"><path d="M1403,622 L1403,647.1328 A0,0 0 0 0 1403,647.1328 L1518.4,647.1328 L1569.81,808.67 L1526.4,647.1328 L1635,647.1328 A0,0 0 0 0 1635,647.1328 L1635,632 L1625,622 L1403,622 A0,0 0 0 0 1403,622 " fill="#FEFFDD" style="stroke:#181818;stroke-width:0.5;"/><path d="M1625,622 L1625,632 L1635,632 L1625,622 " fill="#FEFFDD" style="stroke:#181818;stroke-width:0.5;"/><text fill="#000000" font-family="sans-serif" font-size="13" lengthAdjust="spacing" textLength="211" x="1409" y="639.0669">Represents a color in a diagram.</text></g><g id="elem_entities::GMN77"><path d="M1188.5,622 L1188.5,647.1328 A0,0 0 0 0 1188.5,647.1328 L1279.55,647.1328 L1360.99,808.67 L1287.55,647.1328 L1367.5,647.1328 A0,0 0 0 0 1367.5,647.1328 L1367.5,632 L1357.5,622 L1188.5,622 A0,0 0 0 0 1188.5,622 " fill="#FEFFDD" style="stroke:#181818;stroke-width:0.5;"/><path d="M1357.5,622 L1357.5,632 L1367.5,632 L1357.5,622 " fill="#FEFFDD" style="stroke:#181818;stroke-width:0.5;"/><text fill="#000000" font-family="sans-serif" font-size="13" lengthAdjust="spacing" textLength="158" x="1194.5" y="639.0669">Represents a real value.</text></g><g id="elem_entities::GMN80"><path d="M945,622 L945,647.1328 A0,0 0 0 0 945,647.1328 L1050.44,647.1328 L1130.29,808.67 L1058.44,647.1328 L1153,647.1328 A0,0 0 0 0 1153,647.1328 L1153,632 L1143,622 L945,622 A0,0 0 0 0 945,622 " fill="#FEFFDD" style="stroke:#181818;stroke-width:0.5;"/><path d="M1143,622 L1143,632 L1153,632 L1143,622 " fill="#FEFFDD" style="stroke:#181818;stroke-width:0.5;"/><text fill="#000000" font-family="sans-serif" font-size="13" lengthAdjust="spacing" textLength="187" x="951" y="639.0669">Represents an integer value.</text></g><g id="elem_entities::GMN83"><path d="M704,622 L704,647.1328 A0,0 0 0 0 704,647.1328 L805.89,647.1328 L850.19,808.67 L813.89,647.1328 L910,647.1328 A0,0 0 0 0 910,647.1328 L910,632 L900,622 L704,622 A0,0 0 0 0 704,622 " fill="#FEFFDD" style="stroke:#181818;stroke-width:0.5;"/><path d="M900,622 L900,632 L910,632 L900,622 " fill="#FEFFDD" style="stroke:#181818;stroke-width:0.5;"/><text fill="#000000" font-family="sans-serif" font-size="13" lengthAdjust="spacing" textLength="185" x="710" y="639.0669">Represents a boolean value.</text></g><g id="elem_entities::GMN86"><path d="M1022.5,1003 L1022.5,1028.1328 A0,0 0 0 0 1022.5,1028.1328 L1142.3,1028.1328 L1212.94,1137.35 L1150.3,1028.1328 L1255.5,1028.1328 A0,0 0 0 0 1255.5,1028.1328 L1255.5,1013 L1245.5,1003 L1022.5,1003 A0,0 0 0 0 1022.5,1003 " fill="#FEFFDD" style="stroke:#181818;stroke-width:0.5;"/><path d="M1245.5,1003 L1245.5,1013 L1255.5,1013 L1245.5,1003 " fill="#FEFFDD" style="stroke:#181818;stroke-width:0.5;"/><text fill="#000000" font-family="sans-serif" font-size="13" lengthAdjust="spacing" textLength="212" x="1028.5" y="1020.0669">Represents a point in a diagram.</text></g><g id="elem_entities::GMN89"><path d="M704.5,1003 L704.5,1028.1328 A0,0 0 0 0 704.5,1028.1328 L851.26,1028.1328 L939.82,1137.35 L859.26,1028.1328 L987.5,1028.1328 A0,0 0 0 0 987.5,1028.1328 L987.5,1013 L977.5,1003 L704.5,1003 A0,0 0 0 0 704.5,1003 " fill="#FEFFDD" style="stroke:#181818;stroke-width:0.5;"/><path d="M977.5,1003 L977.5,1013 L987.5,1013 L977.5,1003 " fill="#FEFFDD" style="stroke:#181818;stroke-width:0.5;"/><text fill="#000000" font-family="sans-serif" font-size="13" lengthAdjust="spacing" textLength="262" x="710.5" y="1020.0669">Represents a enumeration in a diagram.</text></g><g id="elem_entities::GMN92"><path d="M1290.5,1003 L1290.5,1028.1328 A0,0 0 0 0 1290.5,1028.1328 L1396.9,1028.1328 L1540.08,1137.22 L1404.9,1028.1328 L1481.5,1028.1328 A0,0 0 0 0 1481.5,1028.1328 L1481.5,1013 L1471.5,1003 L1290.5,1003 A0,0 0 0 0 1290.5,1003 " fill="#FEFFDD" style="stroke:#181818;stroke-width:0.5;"/><path d="M1471.5,1003 L1471.5,1013 L1481.5,1013 L1471.5,1003 " fill="#FEFFDD" style="stroke:#181818;stroke-width:0.5;"/><text fill="#000000" font-family="sans-serif" font-size="13" lengthAdjust="spacing" textLength="170" x="1296.5" y="1020.0669">Represents a string value.</text></g><g id="elem_entities::GMN95"><path d="M2795.5,1003 L2795.5,1028.1328 A0,0 0 0 0 2795.5,1028.1328 L2896.85,1028.1328 L2662.59,1137.46 L2904.85,1028.1328 L3056.5,1028.1328 A0,0 0 0 0 3056.5,1028.1328 L3056.5,1013 L3046.5,1003 L2795.5,1003 A0,0 0 0 0 2795.5,1003 " fill="#FEFFDD" style="stroke:#181818;stroke-width:0.5;"/><path d="M3046.5,1003 L3046.5,1013 L3056.5,1013 L3046.5,1003 " fill="#FEFFDD" style="stroke:#181818;stroke-width:0.5;"/><text fill="#000000" font-family="sans-serif" font-size="13" lengthAdjust="spacing" textLength="240" x="2801.5" y="1020.0669">Represents a rectangle in a diagram.</text></g><!--MD5=[2eac32b17dac3bcfacd96c4515884025]
class transforms::string_to_diagram_transform--><g id="elem_transforms::string_to_diagram_transform"><rect codeLine="200" fill="#FFFACD" height="56.2656" id="transforms::string_to_diagram_transform" rx="2.5" ry="2.5" style="stroke:#181818;stroke-width:0.5;" width="237" x="3183.5" y="296"/><ellipse cx="3198.5" cy="316.1328" fill="#ADD1B2" rx="11" ry="11" style="stroke:#181818;stroke-width:1.0;"/><path d="M3201.4688,321.7734 Q3200.8906,322.0703 3200.25,322.2188 Q3199.6094,322.3672 3198.9063,322.3672 Q3196.4063,322.3672 3195.0859,320.7188 Q3193.7656,319.0703 3193.7656,315.9453 Q3193.7656,312.8203 3195.0859,311.1641 Q3196.4063,309.5078 3198.9063,309.5078 Q3199.6094,309.5078 3200.2578,309.6641 Q3200.9063,309.8203 3201.4688,310.1172 L3201.4688,312.8359 Q3200.8438,312.2578 3200.25,311.9844 Q3199.6563,311.7109 3199.0313,311.7109 Q3197.6875,311.7109 3197,312.7813 Q3196.3125,313.8516 3196.3125,315.9453 Q3196.3125,318.0391 3197,319.1094 Q3197.6875,320.1797 3199.0313,320.1797 Q3199.6563,320.1797 3200.25,319.9063 Q3200.8438,319.6328 3201.4688,319.0547 L3201.4688,321.7734 Z " fill="#000000"/><text fill="#000000" font-family="sans-serif" font-size="12" font-style="italic" lengthAdjust="spacing" textLength="194" x="3218" y="312.1387">«dogen::handcrafted::typeable»</text><text fill="#000000" font-family="sans-serif" font-size="14" lengthAdjust="spacing" textLength="205" x="3212.5" y="327.9639">string_to_diagram_transform</text><line style="stroke:#181818;stroke-width:0.5;" x1="3184.5" x2="3419.5" y1="336.2656" y2="336.2656"/><line style="stroke:#181818;stroke-width:0.5;" x1="3184.5" x2="3419.5" y1="344.2656" y2="344.2656"/></g><!--MD5=[27b967e3889903e1a1923cf71ac10874]
class transforms::transformation_error--><g id="elem_transforms::transformation_error"><rect codeLine="206" fill="#E8C2F8" height="56.2656" id="transforms::transformation_error" rx="2.5" ry="2.5" style="stroke:#181818;stroke-width:0.5;" width="181" x="3247.5" y="157.5"/><ellipse cx="3262.5" cy="177.6328" fill="#ADD1B2" rx="11" ry="11" style="stroke:#181818;stroke-width:1.0;"/><path d="M3265.4688,183.2734 Q3264.8906,183.5703 3264.25,183.7188 Q3263.6094,183.8672 3262.9063,183.8672 Q3260.4063,183.8672 3259.0859,182.2188 Q3257.7656,180.5703 3257.7656,177.4453 Q3257.7656,174.3203 3259.0859,172.6641 Q3260.4063,171.0078 3262.9063,171.0078 Q3263.6094,171.0078 3264.2578,171.1641 Q3264.9063,171.3203 3265.4688,171.6172 L3265.4688,174.3359 Q3264.8438,173.7578 3264.25,173.4844 Q3263.6563,173.2109 3263.0313,173.2109 Q3261.6875,173.2109 3261,174.2813 Q3260.3125,175.3516 3260.3125,177.4453 Q3260.3125,179.5391 3261,180.6094 Q3261.6875,181.6797 3263.0313,181.6797 Q3263.6563,181.6797 3264.25,181.4063 Q3264.8438,181.1328 3265.4688,180.5547 L3265.4688,183.2734 Z " fill="#000000"/><text fill="#000000" font-family="sans-serif" font-size="12" font-style="italic" lengthAdjust="spacing" textLength="114" x="3294" y="173.6387">«masd::exception»</text><text fill="#000000" font-family="sans-serif" font-size="14" lengthAdjust="spacing" textLength="149" x="3276.5" y="189.4639">transformation_error</text><line style="stroke:#181818;stroke-width:0.5;" x1="3248.5" x2="3427.5" y1="197.7656" y2="197.7656"/><line style="stroke:#181818;stroke-width:0.5;" x1="3248.5" x2="3427.5" y1="205.7656" y2="205.7656"/></g><g id="elem_transforms::GMN107"><path d="M3169.5,41 L3169.5,66.1328 A0,0 0 0 0 3169.5,66.1328 L3341.29,66.1328 L3339.66,157.49 L3349.29,66.1328 L3522.5,66.1328 A0,0 0 0 0 3522.5,66.1328 L3522.5,51 L3512.5,41 L3169.5,41 A0,0 0 0 0 3169.5,41 " fill="#FEFFDD" style="stroke:#181818;stroke-width:0.5;"/><path d="M3512.5,41 L3512.5,51 L3522.5,51 L3512.5,41 " fill="#FEFFDD" style="stroke:#181818;stroke-width:0.5;"/><text fill="#000000" font-family="sans-serif" font-size="13" lengthAdjust="spacing" textLength="332" x="3175.5" y="58.0669">An error occurred whilst applying a transformation.</text></g><g id="elem_N1"><path d="M15,10.5 L15,96.1641 L359,96.1641 L359,20.5 L349,10.5 L15,10.5 " fill="#FEFFDD" style="stroke:#181818;stroke-width:0.5;"/><path d="M349,10.5 L349,20.5 L359,20.5 L349,10.5 " fill="#FEFFDD" style="stroke:#181818;stroke-width:1.0;"/><text fill="#000000" font-family="sans-serif" font-size="13" lengthAdjust="spacing" textLength="323" x="21" y="27.5669">Represents the domain of the Dia diagram editor.</text><text fill="#000000" font-family="sans-serif" font-size="13" lengthAdjust="spacing" textLength="4" x="21" y="42.6997"> </text><text fill="#000000" font-family="sans-serif" font-size="13" lengthAdjust="spacing" textLength="131" x="21" y="57.8325">UML representation:</text><text fill="#000000" font-family="sans-serif" font-size="13" lengthAdjust="spacing" textLength="4" x="21" y="72.9653"> </text><text fill="#000000" font-family="sans-serif" font-size="13" lengthAdjust="spacing" textLength="307" x="21" y="88.0981">\image html dogen.dia/modeling/dogen.dia.svg</text></g><g id="elem_GMN98"><path d="M402.5,165.5 L402.5,205.7656 L957.5,205.7656 L957.5,175.5 L947.5,165.5 L402.5,165.5 " fill="#FEFFDD" style="stroke:#181818;stroke-width:0.5;"/><path d="M947.5,165.5 L947.5,175.5 L957.5,175.5 L947.5,165.5 " fill="#FEFFDD" style="stroke:#181818;stroke-width:1.0;"/><text fill="#000000" font-family="sans-serif" font-size="13" lengthAdjust="spacing" textLength="518" x="424.5" y="182.5669">Contains all the entities required by Dogen from the domain of the Dia diagram</text><text fill="#000000" font-family="sans-serif" font-size="13" lengthAdjust="spacing" textLength="42" x="408.5" y="197.6997">editor.</text></g><!--MD5=[4520fda4e10d4d791ce48fe025810cd4]
class main--><g id="elem_main"><rect codeLine="215" fill="#DDA9F3" height="56.2656" id="main" rx="2.5" ry="2.5" style="stroke:#181818;stroke-width:0.5;" width="267" x="394.5" y="25.5"/><ellipse cx="409.5" cy="45.6328" fill="#ADD1B2" rx="11" ry="11" style="stroke:#181818;stroke-width:1.0;"/><path d="M412.4688,51.2734 Q411.8906,51.5703 411.25,51.7188 Q410.6094,51.8672 409.9063,51.8672 Q407.4063,51.8672 406.0859,50.2188 Q404.7656,48.5703 404.7656,45.4453 Q404.7656,42.3203 406.0859,40.6641 Q407.4063,39.0078 409.9063,39.0078 Q410.6094,39.0078 411.2578,39.1641 Q411.9063,39.3203 412.4688,39.6172 L412.4688,42.3359 Q411.8438,41.7578 411.25,41.4844 Q410.6563,41.2109 410.0313,41.2109 Q408.6875,41.2109 408,42.2813 Q407.3125,43.3516 407.3125,45.4453 Q407.3125,47.5391 408,48.6094 Q408.6875,49.6797 410.0313,49.6797 Q410.6563,49.6797 411.25,49.4063 Q411.8438,49.1328 412.4688,48.5547 L412.4688,51.2734 Z " fill="#000000"/><text fill="#000000" font-family="sans-serif" font-size="12" font-style="italic" lengthAdjust="spacing" textLength="239" x="421.5" y="41.6387">«masd::entry_point, dogen::untypable»</text><text fill="#000000" font-family="sans-serif" font-size="14" lengthAdjust="spacing" textLength="36" x="523" y="57.4639">main</text><line style="stroke:#181818;stroke-width:0.5;" x1="395.5" x2="660.5" y1="65.7656" y2="65.7656"/><line style="stroke:#181818;stroke-width:0.5;" x1="395.5" x2="660.5" y1="73.7656" y2="73.7656"/></g><!--MD5=[ba83386d426114557685538e96aa6f68]
class CMakeLists--><g id="elem_CMakeLists"><rect codeLine="218" fill="#99CB99" height="56.2656" id="CMakeLists" rx="2.5" ry="2.5" style="stroke:#181818;stroke-width:0.5;" width="360" x="7" y="157.5"/><ellipse cx="22" cy="177.6328" fill="#ADD1B2" rx="11" ry="11" style="stroke:#181818;stroke-width:1.0;"/><path d="M24.9688,183.2734 Q24.3906,183.5703 23.75,183.7188 Q23.1094,183.8672 22.4063,183.8672 Q19.9063,183.8672 18.5859,182.2188 Q17.2656,180.5703 17.2656,177.4453 Q17.2656,174.3203 18.5859,172.6641 Q19.9063,171.0078 22.4063,171.0078 Q23.1094,171.0078 23.7578,171.1641 Q24.4063,171.3203 24.9688,171.6172 L24.9688,174.3359 Q24.3438,173.7578 23.75,173.4844 Q23.1563,173.2109 22.5313,173.2109 Q21.1875,173.2109 20.5,174.2813 Q19.8125,175.3516 19.8125,177.4453 Q19.8125,179.5391 20.5,180.6094 Q21.1875,181.6797 22.5313,181.6797 Q23.1563,181.6797 23.75,181.4063 Q24.3438,181.1328 24.9688,180.5547 L24.9688,183.2734 Z " fill="#000000"/><text fill="#000000" font-family="sans-serif" font-size="12" font-style="italic" lengthAdjust="spacing" textLength="332" x="34" y="173.6387">«masd::build::cmakelists, dogen::handcrafted::cmake»</text><text fill="#000000" font-family="sans-serif" font-size="14" lengthAdjust="spacing" textLength="79" x="160.5" y="189.4639">CMakeLists</text><line style="stroke:#181818;stroke-width:0.5;" x1="8" x2="366" y1="197.7656" y2="197.7656"/><line style="stroke:#181818;stroke-width:0.5;" x1="8" x2="366" y1="205.7656" y2="205.7656"/></g><!--MD5=[a0daaaa73b4f5811d8fe810ce5075cca]
reverse link entities::diagram to entities::layer--><g id="link_entities::diagram_entities::layer"><path codeLine="16" d="M2543.44,508.84 C2525.9,530.39 2505.31,555.7 2487.28,577.85 " fill="none" id="entities::diagram-backto-entities::layer" style="stroke:#181818;stroke-width:1.0;"/><polygon fill="none" points="2551.78,498.6,2544.8913,500.7321,2544.2099,507.9109,2551.0986,505.7788,2551.78,498.6" style="stroke:#181818;stroke-width:1.0;"/><text fill="#000000" font-family="sans-serif" font-size="13" lengthAdjust="spacing" textLength="84" x="2522" y="544.0669">composed of</text></g><!--MD5=[809a98857b3fbd63fdc4c8eca7e2fdd5]
reverse link entities::diagram to entities::diagram_data--><g id="link_entities::diagram_entities::diagram_data"><path codeLine="17" d="M2682.89,504.05 C2750.68,534.94 2838.87,575.12 2898.89,602.47 " fill="none" id="entities::diagram-backto-entities::diagram_data" style="stroke:#181818;stroke-width:1.0;"/><polygon fill="none" points="2670.91,498.6,2674.707,504.7305,2681.8263,503.5835,2678.0293,497.453,2670.91,498.6" style="stroke:#181818;stroke-width:1.0;"/><text fill="#000000" font-family="sans-serif" font-size="13" lengthAdjust="spacing" textLength="68" x="2776" y="544.0669">meta-data</text></g><!--MD5=[ffab9dffe9f068b20d945dd3a9f7b10c]
reverse link entities::layer to entities::object--><g id="link_entities::layer_entities::object"><path codeLine="30" d="M2385.6,701.03 C2367.26,722.34 2346.81,746.11 2328.08,767.87 " fill="none" id="entities::layer-backto-entities::object" style="stroke:#181818;stroke-width:1.0;"/><polygon fill="none" points="2394.14,691.11,2387.1957,693.0533,2386.3186,700.2108,2393.2629,698.2676,2394.14,691.11" style="stroke:#181818;stroke-width:1.0;"/><text fill="#000000" font-family="sans-serif" font-size="13" lengthAdjust="spacing" textLength="84" x="2365" y="734.0669">composed of</text></g><!--MD5=[077cd97c5e8efc560858cd587a5dd6fb]
link entities::GMN14 to entities::layer--><g id="link_entities::GMN14_entities::layer"><path d="M1986.29,470.56 C2053.59,490.65 2195.01,534.05 2312,578 C2317.63,580.11 2323.37,582.33 2329.15,584.61 " fill="none" id="entities::GMN14-entities::layer" style="stroke:#181818;stroke-width:1.0;stroke-dasharray:7.0,7.0;"/></g><!--MD5=[7beeae3caa780ba2c6d25399bb1980b7]
reverse link entities::diagram_data to entities::attribute--><g id="link_entities::diagram_data_entities::attribute"><path codeLine="40" d="M2908.85,673.56 C2814.52,733.58 2620.57,849.98 2441,914 C2368.09,939.99 2286.69,959.94 2211.04,974.95 " fill="none" id="entities::diagram_data-backto-entities::attribute" style="stroke:#181818;stroke-width:1.0;"/><polygon fill="none" points="2919.85,666.52,2912.6403,666.3794,2909.7375,672.9804,2916.9472,673.121,2919.85,666.52" style="stroke:#181818;stroke-width:1.0;"/></g><!--MD5=[cabf71e5f18c8570f88a4131af4f5704]
link entities::connection to entities::object--><g id="link_entities::connection_entities::object"><path codeLine="55" d="M2596,683.06 C2546.54,706.58 2485.58,735.57 2429.56,762.21 " fill="none" id="entities::connection-to-entities::object" style="stroke:#181818;stroke-width:1.0;"/><polygon fill="none" points="2417.69,767.86,2424.8259,768.8986,2428.5292,762.711,2421.3933,761.6725,2417.69,767.86" style="stroke:#181818;stroke-width:1.0;"/></g><!--MD5=[88ea640be34ccbdea9e264b392063f5e]
link entities::child_node to entities::object--><g id="link_entities::child_node_entities::object"><path codeLine="56" d="M2044.64,666.56 C2076.19,691.28 2121.81,727.02 2163.45,759.65 " fill="none" id="entities::child_node-to-entities::object" style="stroke:#181818;stroke-width:1.0;"/><polygon fill="none" points="2173.94,767.86,2171.6841,761.0109,2164.4941,760.459,2166.75,767.3081,2173.94,767.86" style="stroke:#181818;stroke-width:1.0;"/></g><!--MD5=[d936897621644c365d46b9ed2bfe9b20]
reverse link entities::object to entities::attribute--><g id="link_entities::object_entities::attribute"><path codeLine="57" d="M2118.08,920.27 C2082.37,939.17 2045.68,958.58 2014.95,974.84 " fill="none" id="entities::object-backto-entities::attribute" style="stroke:#181818;stroke-width:1.0;"/><polygon fill="none" points="2129.64,914.16,2122.4666,913.424,2119.0281,919.7625,2126.2016,920.4986,2129.64,914.16" style="stroke:#181818;stroke-width:1.0;"/></g><!--MD5=[cb1304d4023745f8cb05dcca218ded24]
link entities::GMN32 to entities::connection--><g id="link_entities::GMN32_entities::connection"><path d="M2319.87,470.52 C2356.13,479.28 2407.63,491.43 2453,501 C2523.37,515.84 2550.15,494.31 2612,531 C2634.46,544.32 2653.52,565.98 2667.77,585.96 " fill="none" id="entities::GMN32-entities::connection" style="stroke:#181818;stroke-width:1.0;stroke-dasharray:7.0,7.0;"/></g><!--MD5=[70825d377038aacc2ee300d02c662e71]
link entities::GMN35 to entities::child_node--><g id="link_entities::GMN35_entities::child_node"><path d="M1662.89,501.01 C1744.05,519.63 1834.67,544.96 1914,578 C1929.72,584.55 1945.89,593.55 1960.16,602.41 " fill="none" id="entities::GMN35-entities::child_node" style="stroke:#181818;stroke-width:1.0;stroke-dasharray:7.0,7.0;"/></g><!--MD5=[f7b28801b3a7816e2be0d2bc141844ec]
link entities::font to entities::attribute--><g id="link_entities::font_entities::attribute"><path codeLine="90" d="M1817.63,889.59 C1840.73,913.17 1868.59,941.61 1891.88,965.39 " fill="none" id="entities::font-to-entities::attribute" style="stroke:#181818;stroke-width:1.0;"/><polygon fill="none" points="1901.23,974.93,1899.8873,967.845,1892.8309,966.3594,1894.1736,973.4444,1901.23,974.93" style="stroke:#181818;stroke-width:1.0;"/></g><!--MD5=[14fdc9e670683cff98cf4674d0c2da74]
reverse link entities::attribute to entities::composite--><g id="link_entities::attribute_entities::composite"><path codeLine="91" d="M1927.8,1069.17 C1927.05,1084.6 1927.07,1101.47 1927.85,1116.84 " fill="none" id="entities::attribute-backto-entities::composite" style="stroke:#181818;stroke-width:1.0;"/><polygon fill="none" points="1928.66,1056.04,1924.2794,1061.768,1927.8819,1068.0147,1932.2625,1062.2867,1928.66,1056.04" style="stroke:#181818;stroke-width:1.0;"/></g><!--MD5=[fa23fe4f2d077a3bde3064c32675614c]
reverse link entities::composite to entities::attribute--><g id="link_entities::composite_entities::attribute"><path codeLine="111" d="M1953.37,1103.5 C1953.75,1087.36 1953.29,1070.54 1952.01,1056.04 " fill="none" id="entities::composite-backto-entities::attribute" style="stroke:#181818;stroke-width:1.0;"/><polygon fill="none" points="1952.86,1116.84,1957.0812,1110.9935,1953.308,1104.8484,1949.0868,1110.6948,1952.86,1116.84" style="stroke:#181818;stroke-width:1.0;"/></g><!--MD5=[5380d12616a0d931d9c8fb6085791ced]
link entities::color to entities::attribute--><g id="link_entities::color_entities::attribute"><path codeLine="92" d="M1618.24,873.1 C1636.62,886.76 1659.23,902.32 1681,914 C1720.84,935.38 1766.24,954.57 1807.77,970.32 " fill="none" id="entities::color-to-entities::attribute" style="stroke:#181818;stroke-width:1.0;"/><polygon fill="none" points="1819.95,974.88,1815.7395,969.0258,1808.7162,970.6607,1812.9267,976.515,1819.95,974.88" style="stroke:#181818;stroke-width:1.0;"/></g><!--MD5=[c01497a52d36b3c3dd86fec253317adc]
link entities::real to entities::attribute--><g id="link_entities::real_entities::attribute"><path codeLine="93" d="M1418.48,873.17 C1439.67,887.43 1466.22,903.46 1492,914 C1551.71,938.41 1618.44,957.43 1681.78,972.03 " fill="none" id="entities::real-to-entities::attribute" style="stroke:#181818;stroke-width:1.0;"/><polygon fill="none" points="1694.82,974.98,1689.8511,969.7541,1683.1161,972.3308,1688.085,977.5567,1694.82,974.98" style="stroke:#181818;stroke-width:1.0;"/></g><!--MD5=[9e3cafc0eae74bcb4829f6b54a7a798e]
link entities::integer to entities::attribute--><g id="link_entities::integer_entities::attribute"><path codeLine="94" d="M1197.35,873.12 C1223.96,887.64 1257.31,903.9 1289,914 C1368.68,939.38 1455.95,958.46 1539.98,972.77 " fill="none" id="entities::integer-to-entities::attribute" style="stroke:#181818;stroke-width:1.0;"/><polygon fill="none" points="1552.89,974.94,1547.631,970.0061,1541.054,972.9629,1546.313,977.8968,1552.89,974.94" style="stroke:#181818;stroke-width:1.0;"/></g><!--MD5=[bbc1dd83fe2b91e1b5a394cf3a93de74]
link entities::boolean to entities::attribute--><g id="link_entities::boolean_entities::attribute"><path codeLine="95" d="M928.06,871.75 C965.9,886.65 1013.8,903.67 1058,914 C1143.19,933.9 1326.28,955.92 1503.69,974.26 " fill="none" id="entities::boolean-to-entities::attribute" style="stroke:#181818;stroke-width:1.0;"/><polygon fill="none" points="1516.73,975.6,1511.1703,971.0076,1504.7929,974.3733,1510.3525,978.9657,1516.73,975.6" style="stroke:#181818;stroke-width:1.0;"/></g><!--MD5=[e1a98783be5b474d5f16f3794f080e7b]
reverse link entities::attribute to entities::point--><g id="link_entities::attribute_entities::point"><path codeLine="96" d="M1743.11,1058.77 C1596.23,1090.3 1404.1,1131.55 1302.35,1153.4 " fill="none" id="entities::attribute-backto-entities::point" style="stroke:#181818;stroke-width:1.0;"/><polygon fill="none" points="1755.83,1056.04,1749.1243,1053.388,1744.0971,1058.558,1750.8029,1061.2099,1755.83,1056.04" style="stroke:#181818;stroke-width:1.0;"/></g><!--MD5=[f7df2da399ecf5f2a618f6fc9c1e0fdb]
reverse link entities::attribute to entities::enumeration--><g id="link_entities::attribute_entities::enumeration"><path codeLine="97" d="M1519.12,1057.65 C1397.76,1072.76 1265.58,1092.37 1145,1117 C1108.03,1124.55 1067.57,1135.77 1034.31,1145.81 " fill="none" id="entities::attribute-backto-entities::enumeration" style="stroke:#181818;stroke-width:1.0;"/><polygon fill="none" points="1532.34,1056.01,1525.8933,1052.7789,1520.4313,1057.4871,1526.878,1060.7181,1532.34,1056.01" style="stroke:#181818;stroke-width:1.0;"/></g><!--MD5=[efd8ae47bd8ce16d74e8240125f7449e]
reverse link entities::attribute to entities::string--><g id="link_entities::attribute_entities::string"><path codeLine="98" d="M1834.28,1061.14 C1774.93,1086.2 1702.5,1116.78 1650.14,1138.88 " fill="none" id="entities::attribute-backto-entities::string" style="stroke:#181818;stroke-width:1.0;"/><polygon fill="none" points="1846.35,1056.04,1839.2669,1054.6871,1835.2939,1060.7049,1842.3769,1062.0578,1846.35,1056.04" style="stroke:#181818;stroke-width:1.0;"/></g><!--MD5=[705fcb5ed30937e60db7dacd77c1d73e]
reverse link entities::attribute to entities::rectangle--><g id="link_entities::attribute_entities::rectangle"><path codeLine="99" d="M2123.15,1059 C2256.38,1089.92 2429.47,1130.09 2524.62,1152.17 " fill="none" id="entities::attribute-backto-entities::rectangle" style="stroke:#181818;stroke-width:1.0;"/><polygon fill="none" points="2110.38,1056.04,2115.3183,1061.2949,2122.0682,1058.7576,2117.13,1053.5027,2110.38,1056.04" style="stroke:#181818;stroke-width:1.0;"/></g><!--MD5=[fb2e7045be89c3a67c02c627714fb4f2]
reverse link entities::composite to entities::composite--><g id="link_entities::composite_entities::composite"><path codeLine="112" d="M2142.77,1158.47 C2156.29,1161.02 2164.5,1164.7 2164.5,1169.5 C2164.5,1175.71 2150.78,1180.03 2129.58,1182.48 " fill="none" id="entities::composite-backto-entities::composite" style="stroke:#181818;stroke-width:1.0;"/><polygon fill="none" points="2129.58,1156.52,2134.9255,1161.36,2141.4492,1158.2872,2136.1036,1153.4472,2129.58,1156.52" style="stroke:#181818;stroke-width:1.0;"/><text fill="#000000" font-family="sans-serif" font-size="13" lengthAdjust="spacing" textLength="60" x="2170.5" y="1174.0669">recursive</text></g><!--MD5=[c320efac89e49360cdd9a28df3bbc872]
link GMN98 to entities--><g id="link_GMN98_entities"><path d="M680,205.77 C680,215.03 680,226.8319 680,239.3637 C680,245.6297 680,252.0781 680,258.4826 C680,261.6848 680,264.876 680,268.028 " fill="none" id="GMN98-entities" style="stroke:#181818;stroke-width:1.0;stroke-dasharray:7.0,7.0;"/></g><!--MD5=[dcaed03a0a73399b41ba9f7ec98d0f8b]
reverse link transforms::string_to_diagram_transform to entities::diagram--><g id="link_transforms::string_to_diagram_transform_entities::diagram"><path codeLine="203" d="M3200.97,355.57 C3172.72,363.22 3141.85,370.73 3113,376 C2938.59,407.87 2889.65,379.26 2716,415 C2710.11,416.21 2704.11,417.59 2698.09,419.08 " fill="none" id="transforms::string_to_diagram_transform-backto-entities::diagram" style="stroke:#181818;stroke-width:1.0;"/><polygon fill="none" points="3213.76,352.06,3206.9122,349.8001,3202.1923,355.252,3209.0402,357.5119,3213.76,352.06" style="stroke:#181818;stroke-width:1.0;"/></g><!--MD5=[69e255ac4152a662ba38c5726c48c3a6]
link transforms::transformation_error to transforms::string_to_diagram_transform--><g id="link_transforms::transformation_error_transforms::string_to_diagram_transform"><path codeLine="204" d="M3330.8,213.79 C3325.58,233.6 3318.43,260.72 3312.56,282.97 " fill="none" id="transforms::transformation_error-to-transforms::string_to_diagram_transform" style="stroke:#181818;stroke-width:1.0;"/><polygon fill="none" points="3309.19,295.75,3314.5874,290.9679,3312.2491,284.1465,3306.8517,288.9285,3309.19,295.75" style="stroke:#181818;stroke-width:1.0;"/></g><!--MD5=[2559f8586bed6994aaff5fccfe2e1961]
link N1 to main--></g></svg>