<?xml version="1.0" encoding="UTF-8" standalone="no"?><svg xmlns="http://www.w3.org/2000/svg" xmlns:xlink="http://www.w3.org/1999/xlink" contentScriptType="application/ecmascript" contentStyleType="text/css" height="390px" preserveAspectRatio="none" style="width:2634px;height:390px;" version="1.1" viewBox="0 0 2634 390" width="2634px" zoomAndPan="magnify"><defs><filter height="300%" id="f1el4g3xyc8rjr" width="300%" x="-1" y="-1"><feGaussianBlur result="blurOut" stdDeviation="2.0"/><feColorMatrix in="blurOut" result="blurOut2" type="matrix" values="0 0 0 0 0 0 0 0 0 0 0 0 0 0 0 0 0 0 .4 0"/><feOffset dx="4.0" dy="4.0" in="blurOut2" result="blurOut3"/><feBlend in="SourceGraphic" in2="blurOut3" mode="normal"/></filter></defs><g><path d="M6,23 L6,123.7969 L487,123.7969 L487,33 L477,23 L6,23 " fill="#FBFB77" filter="url(#f1el4g3xyc8rjr)" style="stroke: #A80036; stroke-width: 1.0;"/><path d="M477,23 L477,33 L487,33 L477,23 " fill="#FBFB77" style="stroke: #A80036; stroke-width: 1.0;"/><text fill="#000000" font-family="sans-serif" font-size="13" lengthAdjust="spacingAndGlyphs" textLength="460" x="12" y="40.0669">Houses classes common to all transformations, in the transform tracing</text><text fill="#000000" font-family="sans-serif" font-size="13" lengthAdjust="spacingAndGlyphs" textLength="52" x="12" y="55.1997">domain.</text><text fill="#000000" font-family="sans-serif" font-size="13" lengthAdjust="spacingAndGlyphs" textLength="0" x="16" y="70.3325"/><text fill="#000000" font-family="sans-serif" font-size="13" lengthAdjust="spacingAndGlyphs" textLength="130" x="12" y="85.4653">UML representation:</text><text fill="#000000" font-family="sans-serif" font-size="13" lengthAdjust="spacingAndGlyphs" textLength="0" x="16" y="100.5981"/><text fill="#000000" font-family="sans-serif" font-size="13" lengthAdjust="spacingAndGlyphs" textLength="350" x="12" y="115.731">\image html dogen.tracing/modeling/dogen.tracing.svg</text><!--MD5=[db14d85f9facaa591f9fc719a65607f4]
class tracer--><rect fill="#FFFACD" filter="url(#f1el4g3xyc8rjr)" height="66.7422" id="tracer" style="stroke: #A80036; stroke-width: 1.5;" width="368" x="522.5" y="40"/><rect fill="#FFFACD" height="37.9375" style="stroke: #A80036; stroke-width: 1.5;" width="368" x="522.5" y="40"/><ellipse cx="537.5" cy="58.9688" fill="#ADD1B2" rx="11" ry="11" style="stroke: #A80036; stroke-width: 1.0;"/><path d="M540.4688,64.6094 Q539.8906,64.9063 539.25,65.0547 Q538.6094,65.2031 537.9063,65.2031 Q535.4063,65.2031 534.0859,63.5547 Q532.7656,61.9063 532.7656,58.7813 Q532.7656,55.6563 534.0859,54 Q535.4063,52.3438 537.9063,52.3438 Q538.6094,52.3438 539.2578,52.5 Q539.9063,52.6563 540.4688,52.9531 L540.4688,55.6719 Q539.8438,55.0938 539.25,54.8203 Q538.6563,54.5469 538.0313,54.5469 Q536.6875,54.5469 536,55.6172 Q535.3125,56.6875 535.3125,58.7813 Q535.3125,60.875 536,61.9453 Q536.6875,63.0156 538.0313,63.0156 Q538.6563,63.0156 539.25,62.7422 Q539.8438,62.4688 540.4688,61.8906 L540.4688,64.6094 Z "/><text fill="#000000" font-family="sans-serif" font-size="12" font-style="italic" lengthAdjust="spacingAndGlyphs" textLength="340" x="549.5" y="56.1387">«dogen::handcrafted::typeable, dogen::pretty_printable»</text><text fill="#000000" font-family="sans-serif" font-size="12" lengthAdjust="spacingAndGlyphs" textLength="38" x="700.5" y="70.1074">tracer</text><line style="stroke: #A80036; stroke-width: 1.5;" x1="523.5" x2="889.5" y1="77.9375" y2="77.9375"/><ellipse cx="533.5" cy="88.9375" fill="none" rx="3" ry="3" style="stroke: #038048; stroke-width: 1.0;"/><text fill="#000000" font-family="sans-serif" font-size="11" lengthAdjust="spacingAndGlyphs" textLength="217" x="542.5" y="92.1479">backend boost::shared_ptr&lt;backend&gt;</text><line style="stroke: #A80036; stroke-width: 1.5;" x1="523.5" x2="889.5" y1="98.7422" y2="98.7422"/><!--MD5=[4604a5c0aa4f6696b3bab992d4743b64]
class metrics--><rect fill="#ED8181" filter="url(#f1el4g3xyc8rjr)" height="130.7656" id="metrics" style="stroke: #A80036; stroke-width: 1.5;" width="298" x="925.5" y="8"/><rect fill="#ED8181" height="37.9375" style="stroke: #A80036; stroke-width: 1.5;" width="298" x="925.5" y="8"/><ellipse cx="1011.25" cy="26.9688" fill="#ADD1B2" rx="11" ry="11" style="stroke: #A80036; stroke-width: 1.0;"/><path d="M1014.2188,32.6094 Q1013.6406,32.9063 1013,33.0547 Q1012.3594,33.2031 1011.6563,33.2031 Q1009.1563,33.2031 1007.8359,31.5547 Q1006.5156,29.9063 1006.5156,26.7813 Q1006.5156,23.6563 1007.8359,22 Q1009.1563,20.3438 1011.6563,20.3438 Q1012.3594,20.3438 1013.0078,20.5 Q1013.6563,20.6563 1014.2188,20.9531 L1014.2188,23.6719 Q1013.5938,23.0938 1013,22.8203 Q1012.4063,22.5469 1011.7813,22.5469 Q1010.4375,22.5469 1009.75,23.6172 Q1009.0625,24.6875 1009.0625,26.7813 Q1009.0625,28.875 1009.75,29.9453 Q1010.4375,31.0156 1011.7813,31.0156 Q1012.4063,31.0156 1013,30.7422 Q1013.5938,30.4688 1014.2188,29.8906 L1014.2188,32.6094 Z "/><text fill="#000000" font-family="sans-serif" font-size="12" font-style="italic" lengthAdjust="spacingAndGlyphs" textLength="122" x="1029.75" y="24.1387">«dogen::untestable»</text><text fill="#000000" font-family="sans-serif" font-size="12" lengthAdjust="spacingAndGlyphs" textLength="46" x="1067.75" y="38.1074">metrics</text><line style="stroke: #A80036; stroke-width: 1.5;" x1="926.5" x2="1222.5" y1="45.9375" y2="45.9375"/><ellipse cx="936.5" cy="56.9375" fill="none" rx="3" ry="3" style="stroke: #038048; stroke-width: 1.0;"/><text fill="#000000" font-family="sans-serif" font-size="11" lengthAdjust="spacingAndGlyphs" textLength="135" x="945.5" y="60.1479">transform_id std::string</text><ellipse cx="936.5" cy="69.7422" fill="none" rx="3" ry="3" style="stroke: #038048; stroke-width: 1.0;"/><text fill="#000000" font-family="sans-serif" font-size="11" lengthAdjust="spacingAndGlyphs" textLength="113" x="945.5" y="72.9526">model_id std::string</text><ellipse cx="936.5" cy="82.5469" fill="none" rx="3" ry="3" style="stroke: #038048; stroke-width: 1.0;"/><text fill="#000000" font-family="sans-serif" font-size="11" lengthAdjust="spacingAndGlyphs" textLength="86" x="945.5" y="85.7573">guid std::string</text><ellipse cx="936.5" cy="95.3516" fill="none" rx="3" ry="3" style="stroke: #038048; stroke-width: 1.0;"/><text fill="#000000" font-family="sans-serif" font-size="11" lengthAdjust="spacingAndGlyphs" textLength="109" x="945.5" y="98.562">start unsigned long</text><ellipse cx="936.5" cy="108.1563" fill="none" rx="3" ry="3" style="stroke: #038048; stroke-width: 1.0;"/><text fill="#000000" font-family="sans-serif" font-size="11" lengthAdjust="spacingAndGlyphs" textLength="103" x="945.5" y="111.3667">end unsigned long</text><ellipse cx="936.5" cy="120.9609" fill="none" rx="3" ry="3" style="stroke: #038048; stroke-width: 1.0;"/><text fill="#000000" font-family="sans-serif" font-size="11" lengthAdjust="spacingAndGlyphs" textLength="272" x="945.5" y="124.1714">children std::list&lt;boost::shared_ptr&lt;metrics&gt;&gt;</text><line style="stroke: #A80036; stroke-width: 1.5;" x1="926.5" x2="1222.5" y1="130.7656" y2="130.7656"/><!--MD5=[f16d5dfe89f9b25229add2328b2ef56a]
class metrics_builder--><rect fill="#FFFACD" filter="url(#f1el4g3xyc8rjr)" height="53.9375" id="metrics_builder" style="stroke: #A80036; stroke-width: 1.5;" width="219" x="1259" y="46.5"/><rect fill="#FFFACD" height="37.9375" style="stroke: #A80036; stroke-width: 1.5;" width="219" x="1259" y="46.5"/><ellipse cx="1274" cy="65.4688" fill="#ADD1B2" rx="11" ry="11" style="stroke: #A80036; stroke-width: 1.0;"/><path d="M1276.9688,71.1094 Q1276.3906,71.4063 1275.75,71.5547 Q1275.1094,71.7031 1274.4063,71.7031 Q1271.9063,71.7031 1270.5859,70.0547 Q1269.2656,68.4063 1269.2656,65.2813 Q1269.2656,62.1563 1270.5859,60.5 Q1271.9063,58.8438 1274.4063,58.8438 Q1275.1094,58.8438 1275.7578,59 Q1276.4063,59.1563 1276.9688,59.4531 L1276.9688,62.1719 Q1276.3438,61.5938 1275.75,61.3203 Q1275.1563,61.0469 1274.5313,61.0469 Q1273.1875,61.0469 1272.5,62.1172 Q1271.8125,63.1875 1271.8125,65.2813 Q1271.8125,67.375 1272.5,68.4453 Q1273.1875,69.5156 1274.5313,69.5156 Q1275.1563,69.5156 1275.75,69.2422 Q1276.3438,68.9688 1276.9688,68.3906 L1276.9688,71.1094 Z "/><text fill="#000000" font-family="sans-serif" font-size="12" font-style="italic" lengthAdjust="spacingAndGlyphs" textLength="191" x="1286" y="62.6387">«dogen::handcrafted::typeable»</text><text fill="#000000" font-family="sans-serif" font-size="12" lengthAdjust="spacingAndGlyphs" textLength="95" x="1334" y="76.6074">metrics_builder</text><line style="stroke: #A80036; stroke-width: 1.5;" x1="1260" x2="1477" y1="84.4375" y2="84.4375"/><line style="stroke: #A80036; stroke-width: 1.5;" x1="1260" x2="1477" y1="92.4375" y2="92.4375"/><!--MD5=[a0321f498e31c01f78af3f75a6091be2]
class metrics_printer--><rect fill="#FFFACD" filter="url(#f1el4g3xyc8rjr)" height="53.9375" id="metrics_printer" style="stroke: #A80036; stroke-width: 1.5;" width="219" x="137" y="205.5"/><rect fill="#FFFACD" height="37.9375" style="stroke: #A80036; stroke-width: 1.5;" width="219" x="137" y="205.5"/><ellipse cx="152" cy="224.4688" fill="#ADD1B2" rx="11" ry="11" style="stroke: #A80036; stroke-width: 1.0;"/><path d="M154.9688,230.1094 Q154.3906,230.4063 153.75,230.5547 Q153.1094,230.7031 152.4063,230.7031 Q149.9063,230.7031 148.5859,229.0547 Q147.2656,227.4063 147.2656,224.2813 Q147.2656,221.1563 148.5859,219.5 Q149.9063,217.8438 152.4063,217.8438 Q153.1094,217.8438 153.7578,218 Q154.4063,218.1563 154.9688,218.4531 L154.9688,221.1719 Q154.3438,220.5938 153.75,220.3203 Q153.1563,220.0469 152.5313,220.0469 Q151.1875,220.0469 150.5,221.1172 Q149.8125,222.1875 149.8125,224.2813 Q149.8125,226.375 150.5,227.4453 Q151.1875,228.5156 152.5313,228.5156 Q153.1563,228.5156 153.75,228.2422 Q154.3438,227.9688 154.9688,227.3906 L154.9688,230.1094 Z "/><text fill="#000000" font-family="sans-serif" font-size="12" font-style="italic" lengthAdjust="spacingAndGlyphs" textLength="191" x="164" y="221.6387">«dogen::handcrafted::typeable»</text><text fill="#000000" font-family="sans-serif" font-size="12" lengthAdjust="spacingAndGlyphs" textLength="94" x="212.5" y="235.6074">metrics_printer</text><line style="stroke: #A80036; stroke-width: 1.5;" x1="138" x2="355" y1="243.4375" y2="243.4375"/><line style="stroke: #A80036; stroke-width: 1.5;" x1="138" x2="355" y1="251.4375" y2="251.4375"/><!--MD5=[d474be06505ec909b849f40792534f3d]
class tracing_error--><rect fill="#E8C2F8" filter="url(#f1el4g3xyc8rjr)" height="53.9375" id="tracing_error" style="stroke: #A80036; stroke-width: 1.5;" width="140" x="1630.5" y="205.5"/><rect fill="#E8C2F8" height="37.9375" style="stroke: #A80036; stroke-width: 1.5;" width="140" x="1630.5" y="205.5"/><ellipse cx="1645.5" cy="224.4688" fill="#ADD1B2" rx="11" ry="11" style="stroke: #A80036; stroke-width: 1.0;"/><path d="M1648.4688,230.1094 Q1647.8906,230.4063 1647.25,230.5547 Q1646.6094,230.7031 1645.9063,230.7031 Q1643.4063,230.7031 1642.0859,229.0547 Q1640.7656,227.4063 1640.7656,224.2813 Q1640.7656,221.1563 1642.0859,219.5 Q1643.4063,217.8438 1645.9063,217.8438 Q1646.6094,217.8438 1647.2578,218 Q1647.9063,218.1563 1648.4688,218.4531 L1648.4688,221.1719 Q1647.8438,220.5938 1647.25,220.3203 Q1646.6563,220.0469 1646.0313,220.0469 Q1644.6875,220.0469 1644,221.1172 Q1643.3125,222.1875 1643.3125,224.2813 Q1643.3125,226.375 1644,227.4453 Q1644.6875,228.5156 1646.0313,228.5156 Q1646.6563,228.5156 1647.25,228.2422 Q1647.8438,227.9688 1648.4688,227.3906 L1648.4688,230.1094 Z "/><text fill="#000000" font-family="sans-serif" font-size="12" font-style="italic" lengthAdjust="spacingAndGlyphs" textLength="112" x="1657.5" y="221.6387">«masd::exception»</text><text fill="#000000" font-family="sans-serif" font-size="12" lengthAdjust="spacingAndGlyphs" textLength="81" x="1673" y="235.6074">tracing_error</text><line style="stroke: #A80036; stroke-width: 1.5;" x1="1631.5" x2="1769.5" y1="243.4375" y2="243.4375"/><line style="stroke: #A80036; stroke-width: 1.5;" x1="1631.5" x2="1769.5" y1="251.4375" y2="251.4375"/><path d="M1513.5,61 L1513.5,86.1328 A0,0 0 0 0 1513.5,86.1328 L1696.5,86.1328 L1700.5,205.36 L1704.5,86.1328 L1887.5,86.1328 A0,0 0 0 0 1887.5,86.1328 L1887.5,71 L1877.5,61 L1513.5,61 A0,0 0 0 0 1513.5,61 " fill="#FBFB77" filter="url(#f1el4g3xyc8rjr)" style="stroke: #A80036; stroke-width: 1.0;"/><path d="M1877.5,61 L1877.5,71 L1887.5,71 L1877.5,61 " fill="#FBFB77" style="stroke: #A80036; stroke-width: 1.0;"/><text fill="#000000" font-family="sans-serif" font-size="13" lengthAdjust="spacingAndGlyphs" textLength="353" x="1519.5" y="78.0669">An error occurred when trying to generate tracing data.</text><!--MD5=[a1eadb59f5e9b2e591c1e6d5145d8899]
class scoped_tracer--><rect fill="#FFFACD" filter="url(#f1el4g3xyc8rjr)" height="53.9375" id="scoped_tracer" style="stroke: #A80036; stroke-width: 1.5;" width="219" x="391" y="205.5"/><rect fill="#FFFACD" height="37.9375" style="stroke: #A80036; stroke-width: 1.5;" width="219" x="391" y="205.5"/><ellipse cx="406" cy="224.4688" fill="#ADD1B2" rx="11" ry="11" style="stroke: #A80036; stroke-width: 1.0;"/><path d="M408.9688,230.1094 Q408.3906,230.4063 407.75,230.5547 Q407.1094,230.7031 406.4063,230.7031 Q403.9063,230.7031 402.5859,229.0547 Q401.2656,227.4063 401.2656,224.2813 Q401.2656,221.1563 402.5859,219.5 Q403.9063,217.8438 406.4063,217.8438 Q407.1094,217.8438 407.7578,218 Q408.4063,218.1563 408.9688,218.4531 L408.9688,221.1719 Q408.3438,220.5938 407.75,220.3203 Q407.1563,220.0469 406.5313,220.0469 Q405.1875,220.0469 404.5,221.1172 Q403.8125,222.1875 403.8125,224.2813 Q403.8125,226.375 404.5,227.4453 Q405.1875,228.5156 406.5313,228.5156 Q407.1563,228.5156 407.75,228.2422 Q408.3438,227.9688 408.9688,227.3906 L408.9688,230.1094 Z "/><text fill="#000000" font-family="sans-serif" font-size="12" font-style="italic" lengthAdjust="spacingAndGlyphs" textLength="191" x="418" y="221.6387">«dogen::handcrafted::typeable»</text><text fill="#000000" font-family="sans-serif" font-size="12" lengthAdjust="spacingAndGlyphs" textLength="90" x="468.5" y="235.6074">scoped_tracer</text><line style="stroke: #A80036; stroke-width: 1.5;" x1="392" x2="609" y1="243.4375" y2="243.4375"/><line style="stroke: #A80036; stroke-width: 1.5;" x1="392" x2="609" y1="251.4375" y2="251.4375"/><!--MD5=[7bfc384eafaeb69e61ec7962bd84b75f]
class references_printer--><rect fill="#FFFACD" filter="url(#f1el4g3xyc8rjr)" height="53.9375" id="references_printer" style="stroke: #A80036; stroke-width: 1.5;" width="219" x="645" y="205.5"/><rect fill="#FFFACD" height="37.9375" style="stroke: #A80036; stroke-width: 1.5;" width="219" x="645" y="205.5"/><ellipse cx="660" cy="224.4688" fill="#ADD1B2" rx="11" ry="11" style="stroke: #A80036; stroke-width: 1.0;"/><path d="M662.9688,230.1094 Q662.3906,230.4063 661.75,230.5547 Q661.1094,230.7031 660.4063,230.7031 Q657.9063,230.7031 656.5859,229.0547 Q655.2656,227.4063 655.2656,224.2813 Q655.2656,221.1563 656.5859,219.5 Q657.9063,217.8438 660.4063,217.8438 Q661.1094,217.8438 661.7578,218 Q662.4063,218.1563 662.9688,218.4531 L662.9688,221.1719 Q662.3438,220.5938 661.75,220.3203 Q661.1563,220.0469 660.5313,220.0469 Q659.1875,220.0469 658.5,221.1172 Q657.8125,222.1875 657.8125,224.2813 Q657.8125,226.375 658.5,227.4453 Q659.1875,228.5156 660.5313,228.5156 Q661.1563,228.5156 661.75,228.2422 Q662.3438,227.9688 662.9688,227.3906 L662.9688,230.1094 Z "/><text fill="#000000" font-family="sans-serif" font-size="12" font-style="italic" lengthAdjust="spacingAndGlyphs" textLength="191" x="672" y="221.6387">«dogen::handcrafted::typeable»</text><text fill="#000000" font-family="sans-serif" font-size="12" lengthAdjust="spacingAndGlyphs" textLength="116" x="709.5" y="235.6074">references_printer</text><line style="stroke: #A80036; stroke-width: 1.5;" x1="646" x2="863" y1="243.4375" y2="243.4375"/><line style="stroke: #A80036; stroke-width: 1.5;" x1="646" x2="863" y1="251.4375" y2="251.4375"/><!--MD5=[a090a731b91a147e463886be75cc2071]
class backend--><rect fill="#FFFACD" filter="url(#f1el4g3xyc8rjr)" height="53.9375" id="backend" style="stroke: #A80036; stroke-width: 1.5;" width="368" x="1922.5" y="46.5"/><rect fill="#FFFACD" height="37.9375" style="stroke: #A80036; stroke-width: 1.5;" width="368" x="1922.5" y="46.5"/><ellipse cx="1937.5" cy="65.4688" fill="#ADD1B2" rx="11" ry="11" style="stroke: #A80036; stroke-width: 1.0;"/><path d="M1940.4688,71.1094 Q1939.8906,71.4063 1939.25,71.5547 Q1938.6094,71.7031 1937.9063,71.7031 Q1935.4063,71.7031 1934.0859,70.0547 Q1932.7656,68.4063 1932.7656,65.2813 Q1932.7656,62.1563 1934.0859,60.5 Q1935.4063,58.8438 1937.9063,58.8438 Q1938.6094,58.8438 1939.2578,59 Q1939.9063,59.1563 1940.4688,59.4531 L1940.4688,62.1719 Q1939.8438,61.5938 1939.25,61.3203 Q1938.6563,61.0469 1938.0313,61.0469 Q1936.6875,61.0469 1936,62.1172 Q1935.3125,63.1875 1935.3125,65.2813 Q1935.3125,67.375 1936,68.4453 Q1936.6875,69.5156 1938.0313,69.5156 Q1938.6563,69.5156 1939.25,69.2422 Q1939.8438,68.9688 1940.4688,68.3906 L1940.4688,71.1094 Z "/><text fill="#000000" font-family="sans-serif" font-size="12" font-style="italic" lengthAdjust="spacingAndGlyphs" textLength="340" x="1949.5" y="62.6387">«dogen::handcrafted::typeable, dogen::pretty_printable»</text><text fill="#000000" font-family="sans-serif" font-size="12" lengthAdjust="spacingAndGlyphs" textLength="54" x="2092.5" y="76.6074">backend</text><line style="stroke: #A80036; stroke-width: 1.5;" x1="1923.5" x2="2289.5" y1="84.4375" y2="84.4375"/><line style="stroke: #A80036; stroke-width: 1.5;" x1="1923.5" x2="2289.5" y1="92.4375" y2="92.4375"/><!--MD5=[01161fabbbee70e6be97358f80cc36fc]
class file_backend--><rect fill="#FFFACD" filter="url(#f1el4g3xyc8rjr)" height="53.9375" id="file_backend" style="stroke: #A80036; stroke-width: 1.5;" width="368" x="1922.5" y="205.5"/><rect fill="#FFFACD" height="37.9375" style="stroke: #A80036; stroke-width: 1.5;" width="368" x="1922.5" y="205.5"/><ellipse cx="1937.5" cy="224.4688" fill="#ADD1B2" rx="11" ry="11" style="stroke: #A80036; stroke-width: 1.0;"/><path d="M1940.4688,230.1094 Q1939.8906,230.4063 1939.25,230.5547 Q1938.6094,230.7031 1937.9063,230.7031 Q1935.4063,230.7031 1934.0859,229.0547 Q1932.7656,227.4063 1932.7656,224.2813 Q1932.7656,221.1563 1934.0859,219.5 Q1935.4063,217.8438 1937.9063,217.8438 Q1938.6094,217.8438 1939.2578,218 Q1939.9063,218.1563 1940.4688,218.4531 L1940.4688,221.1719 Q1939.8438,220.5938 1939.25,220.3203 Q1938.6563,220.0469 1938.0313,220.0469 Q1936.6875,220.0469 1936,221.1172 Q1935.3125,222.1875 1935.3125,224.2813 Q1935.3125,226.375 1936,227.4453 Q1936.6875,228.5156 1938.0313,228.5156 Q1938.6563,228.5156 1939.25,228.2422 Q1939.8438,227.9688 1940.4688,227.3906 L1940.4688,230.1094 Z "/><text fill="#000000" font-family="sans-serif" font-size="12" font-style="italic" lengthAdjust="spacingAndGlyphs" textLength="340" x="1949.5" y="221.6387">«dogen::handcrafted::typeable, dogen::pretty_printable»</text><text fill="#000000" font-family="sans-serif" font-size="12" lengthAdjust="spacingAndGlyphs" textLength="78" x="2080.5" y="235.6074">file_backend</text><line style="stroke: #A80036; stroke-width: 1.5;" x1="1923.5" x2="2289.5" y1="243.4375" y2="243.4375"/><line style="stroke: #A80036; stroke-width: 1.5;" x1="1923.5" x2="2289.5" y1="251.4375" y2="251.4375"/><!--MD5=[d524613c4436b85785baa31fb15d8676]
class backend_factory_registrar--><rect fill="#FFFACD" filter="url(#f1el4g3xyc8rjr)" height="66.7422" id="backend_factory_registrar" style="stroke: #A80036; stroke-width: 1.5;" width="577" x="899" y="199"/><rect fill="#FFFACD" height="37.9375" style="stroke: #A80036; stroke-width: 1.5;" width="577" x="899" y="199"/><ellipse cx="1089.75" cy="217.9688" fill="#ADD1B2" rx="11" ry="11" style="stroke: #A80036; stroke-width: 1.0;"/><path d="M1092.7188,223.6094 Q1092.1406,223.9063 1091.5,224.0547 Q1090.8594,224.2031 1090.1563,224.2031 Q1087.6563,224.2031 1086.3359,222.5547 Q1085.0156,220.9063 1085.0156,217.7813 Q1085.0156,214.6563 1086.3359,213 Q1087.6563,211.3438 1090.1563,211.3438 Q1090.8594,211.3438 1091.5078,211.5 Q1092.1563,211.6563 1092.7188,211.9531 L1092.7188,214.6719 Q1092.0938,214.0938 1091.5,213.8203 Q1090.9063,213.5469 1090.2813,213.5469 Q1088.9375,213.5469 1088.25,214.6172 Q1087.5625,215.6875 1087.5625,217.7813 Q1087.5625,219.875 1088.25,220.9453 Q1088.9375,222.0156 1090.2813,222.0156 Q1090.9063,222.0156 1091.5,221.7422 Q1092.0938,221.4688 1092.7188,220.8906 L1092.7188,223.6094 Z "/><text fill="#000000" font-family="sans-serif" font-size="12" font-style="italic" lengthAdjust="spacingAndGlyphs" textLength="191" x="1108.25" y="215.1387">«dogen::handcrafted::typeable»</text><text fill="#000000" font-family="sans-serif" font-size="12" lengthAdjust="spacingAndGlyphs" textLength="163" x="1122.25" y="229.1074">backend_factory_registrar</text><line style="stroke: #A80036; stroke-width: 1.5;" x1="900" x2="1475" y1="236.9375" y2="236.9375"/><ellipse cx="910" cy="247.9375" fill="none" rx="3" ry="3" style="stroke: #038048; stroke-width: 1.0;"/><text fill="#000000" font-family="sans-serif" font-size="11" lengthAdjust="spacingAndGlyphs" textLength="551" x="919" y="251.1479">backend_factories std::unordered_map&lt;tracing_backend, boost::shared_ptr&lt;backend_factory&gt;&gt;</text><line style="stroke: #A80036; stroke-width: 1.5;" x1="900" x2="1475" y1="257.7422" y2="257.7422"/><!--MD5=[16791588a3f9a6423d02eb0079812554]
class registrar_error--><rect fill="#E8C2F8" filter="url(#f1el4g3xyc8rjr)" height="53.9375" id="registrar_error" style="stroke: #A80036; stroke-width: 1.5;" width="140" x="176.5" y="326"/><rect fill="#E8C2F8" height="37.9375" style="stroke: #A80036; stroke-width: 1.5;" width="140" x="176.5" y="326"/><ellipse cx="191.5" cy="344.9688" fill="#ADD1B2" rx="11" ry="11" style="stroke: #A80036; stroke-width: 1.0;"/><path d="M194.4688,350.6094 Q193.8906,350.9063 193.25,351.0547 Q192.6094,351.2031 191.9063,351.2031 Q189.4063,351.2031 188.0859,349.5547 Q186.7656,347.9063 186.7656,344.7813 Q186.7656,341.6563 188.0859,340 Q189.4063,338.3438 191.9063,338.3438 Q192.6094,338.3438 193.2578,338.5 Q193.9063,338.6563 194.4688,338.9531 L194.4688,341.6719 Q193.8438,341.0938 193.25,340.8203 Q192.6563,340.5469 192.0313,340.5469 Q190.6875,340.5469 190,341.6172 Q189.3125,342.6875 189.3125,344.7813 Q189.3125,346.875 190,347.9453 Q190.6875,349.0156 192.0313,349.0156 Q192.6563,349.0156 193.25,348.7422 Q193.8438,348.4688 194.4688,347.8906 L194.4688,350.6094 Z "/><text fill="#000000" font-family="sans-serif" font-size="12" font-style="italic" lengthAdjust="spacingAndGlyphs" textLength="112" x="203.5" y="342.1387">«masd::exception»</text><text fill="#000000" font-family="sans-serif" font-size="12" lengthAdjust="spacingAndGlyphs" textLength="91" x="214" y="356.1074">registrar_error</text><line style="stroke: #A80036; stroke-width: 1.5;" x1="177.5" x2="315.5" y1="363.9375" y2="363.9375"/><line style="stroke: #A80036; stroke-width: 1.5;" x1="177.5" x2="315.5" y1="371.9375" y2="371.9375"/><!--MD5=[380f2d53f9f425092d878b711630915b]
class backend_factory--><rect fill="#FFFACD" filter="url(#f1el4g3xyc8rjr)" height="53.9375" id="backend_factory" style="stroke: #A80036; stroke-width: 1.5;" width="298" x="2325.5" y="46.5"/><rect fill="#FFFACD" height="37.9375" style="stroke: #A80036; stroke-width: 1.5;" width="298" x="2325.5" y="46.5"/><ellipse cx="2340.5" cy="65.4688" fill="#ADD1B2" rx="11" ry="11" style="stroke: #A80036; stroke-width: 1.0;"/><path d="M2343.4688,71.1094 Q2342.8906,71.4063 2342.25,71.5547 Q2341.6094,71.7031 2340.9063,71.7031 Q2338.4063,71.7031 2337.0859,70.0547 Q2335.7656,68.4063 2335.7656,65.2813 Q2335.7656,62.1563 2337.0859,60.5 Q2338.4063,58.8438 2340.9063,58.8438 Q2341.6094,58.8438 2342.2578,59 Q2342.9063,59.1563 2343.4688,59.4531 L2343.4688,62.1719 Q2342.8438,61.5938 2342.25,61.3203 Q2341.6563,61.0469 2341.0313,61.0469 Q2339.6875,61.0469 2339,62.1172 Q2338.3125,63.1875 2338.3125,65.2813 Q2338.3125,67.375 2339,68.4453 Q2339.6875,69.5156 2341.0313,69.5156 Q2341.6563,69.5156 2342.25,69.2422 Q2342.8438,68.9688 2343.4688,68.3906 L2343.4688,71.1094 Z "/><text fill="#000000" font-family="sans-serif" font-size="12" font-style="italic" lengthAdjust="spacingAndGlyphs" textLength="270" x="2352.5" y="62.6387">«dogen::handcrafted::typeable::header_only»</text><text fill="#000000" font-family="sans-serif" font-size="12" lengthAdjust="spacingAndGlyphs" textLength="103" x="2436" y="76.6074">backend_factory</text><line style="stroke: #A80036; stroke-width: 1.5;" x1="2326.5" x2="2622.5" y1="84.4375" y2="84.4375"/><line style="stroke: #A80036; stroke-width: 1.5;" x1="2326.5" x2="2622.5" y1="92.4375" y2="92.4375"/><!--MD5=[ea1cba3cfb774dab2e48b89932cf097d]
class file_backend_factory--><rect fill="#FFFACD" filter="url(#f1el4g3xyc8rjr)" height="53.9375" id="file_backend_factory" style="stroke: #A80036; stroke-width: 1.5;" width="219" x="2365" y="205.5"/><rect fill="#FFFACD" height="37.9375" style="stroke: #A80036; stroke-width: 1.5;" width="219" x="2365" y="205.5"/><ellipse cx="2380" cy="224.4688" fill="#ADD1B2" rx="11" ry="11" style="stroke: #A80036; stroke-width: 1.0;"/><path d="M2382.9688,230.1094 Q2382.3906,230.4063 2381.75,230.5547 Q2381.1094,230.7031 2380.4063,230.7031 Q2377.9063,230.7031 2376.5859,229.0547 Q2375.2656,227.4063 2375.2656,224.2813 Q2375.2656,221.1563 2376.5859,219.5 Q2377.9063,217.8438 2380.4063,217.8438 Q2381.1094,217.8438 2381.7578,218 Q2382.4063,218.1563 2382.9688,218.4531 L2382.9688,221.1719 Q2382.3438,220.5938 2381.75,220.3203 Q2381.1563,220.0469 2380.5313,220.0469 Q2379.1875,220.0469 2378.5,221.1172 Q2377.8125,222.1875 2377.8125,224.2813 Q2377.8125,226.375 2378.5,227.4453 Q2379.1875,228.5156 2380.5313,228.5156 Q2381.1563,228.5156 2381.75,228.2422 Q2382.3438,227.9688 2382.9688,227.3906 L2382.9688,230.1094 Z "/><text fill="#000000" font-family="sans-serif" font-size="12" font-style="italic" lengthAdjust="spacingAndGlyphs" textLength="191" x="2392" y="221.6387">«dogen::handcrafted::typeable»</text><text fill="#000000" font-family="sans-serif" font-size="12" lengthAdjust="spacingAndGlyphs" textLength="127" x="2424" y="235.6074">file_backend_factory</text><line style="stroke: #A80036; stroke-width: 1.5;" x1="2366" x2="2583" y1="243.4375" y2="243.4375"/><line style="stroke: #A80036; stroke-width: 1.5;" x1="2366" x2="2583" y1="251.4375" y2="251.4375"/><!--MD5=[d54e5852ecfe164bbba509d3a9352ed8]
class initializer--><rect fill="#FFFACD" filter="url(#f1el4g3xyc8rjr)" height="53.9375" id="initializer" style="stroke: #A80036; stroke-width: 1.5;" width="219" x="352" y="326"/><rect fill="#FFFACD" height="37.9375" style="stroke: #A80036; stroke-width: 1.5;" width="219" x="352" y="326"/><ellipse cx="367" cy="344.9688" fill="#ADD1B2" rx="11" ry="11" style="stroke: #A80036; stroke-width: 1.0;"/><path d="M369.9688,350.6094 Q369.3906,350.9063 368.75,351.0547 Q368.1094,351.2031 367.4063,351.2031 Q364.9063,351.2031 363.5859,349.5547 Q362.2656,347.9063 362.2656,344.7813 Q362.2656,341.6563 363.5859,340 Q364.9063,338.3438 367.4063,338.3438 Q368.1094,338.3438 368.7578,338.5 Q369.4063,338.6563 369.9688,338.9531 L369.9688,341.6719 Q369.3438,341.0938 368.75,340.8203 Q368.1563,340.5469 367.5313,340.5469 Q366.1875,340.5469 365.5,341.6172 Q364.8125,342.6875 364.8125,344.7813 Q364.8125,346.875 365.5,347.9453 Q366.1875,349.0156 367.5313,349.0156 Q368.1563,349.0156 368.75,348.7422 Q369.3438,348.4688 369.9688,347.8906 L369.9688,350.6094 Z "/><text fill="#000000" font-family="sans-serif" font-size="12" font-style="italic" lengthAdjust="spacingAndGlyphs" textLength="191" x="379" y="342.1387">«dogen::handcrafted::typeable»</text><text fill="#000000" font-family="sans-serif" font-size="12" lengthAdjust="spacingAndGlyphs" textLength="54" x="447.5" y="356.1074">initializer</text><line style="stroke: #A80036; stroke-width: 1.5;" x1="353" x2="570" y1="363.9375" y2="363.9375"/><line style="stroke: #A80036; stroke-width: 1.5;" x1="353" x2="570" y1="371.9375" y2="371.9375"/><!--MD5=[4520fda4e10d4d791ce48fe025810cd4]
class main--><rect fill="#DDA9F3" filter="url(#f1el4g3xyc8rjr)" height="53.9375" id="main" style="stroke: #A80036; stroke-width: 1.5;" width="262" x="606.5" y="326"/><rect fill="#DDA9F3" height="37.9375" style="stroke: #A80036; stroke-width: 1.5;" width="262" x="606.5" y="326"/><ellipse cx="621.5" cy="344.9688" fill="#ADD1B2" rx="11" ry="11" style="stroke: #A80036; stroke-width: 1.0;"/><path d="M624.4688,350.6094 Q623.8906,350.9063 623.25,351.0547 Q622.6094,351.2031 621.9063,351.2031 Q619.4063,351.2031 618.0859,349.5547 Q616.7656,347.9063 616.7656,344.7813 Q616.7656,341.6563 618.0859,340 Q619.4063,338.3438 621.9063,338.3438 Q622.6094,338.3438 623.2578,338.5 Q623.9063,338.6563 624.4688,338.9531 L624.4688,341.6719 Q623.8438,341.0938 623.25,340.8203 Q622.6563,340.5469 622.0313,340.5469 Q620.6875,340.5469 620,341.6172 Q619.3125,342.6875 619.3125,344.7813 Q619.3125,346.875 620,347.9453 Q620.6875,349.0156 622.0313,349.0156 Q622.6563,349.0156 623.25,348.7422 Q623.8438,348.4688 624.4688,347.8906 L624.4688,350.6094 Z "/><text fill="#000000" font-family="sans-serif" font-size="12" font-style="italic" lengthAdjust="spacingAndGlyphs" textLength="234" x="633.5" y="342.1387">«masd::entry_point, dogen::untypable»</text><text fill="#000000" font-family="sans-serif" font-size="12" lengthAdjust="spacingAndGlyphs" textLength="30" x="735.5" y="356.1074">main</text><line style="stroke: #A80036; stroke-width: 1.5;" x1="607.5" x2="867.5" y1="363.9375" y2="363.9375"/><line style="stroke: #A80036; stroke-width: 1.5;" x1="607.5" x2="867.5" y1="371.9375" y2="371.9375"/><!--MD5=[ba83386d426114557685538e96aa6f68]
class CMakeLists--><rect fill="#99CB99" filter="url(#f1el4g3xyc8rjr)" height="53.9375" id="CMakeLists" style="stroke: #A80036; stroke-width: 1.5;" width="354" x="903.5" y="326"/><rect fill="#99CB99" height="37.9375" style="stroke: #A80036; stroke-width: 1.5;" width="354" x="903.5" y="326"/><ellipse cx="918.5" cy="344.9688" fill="#ADD1B2" rx="11" ry="11" style="stroke: #A80036; stroke-width: 1.0;"/><path d="M921.4688,350.6094 Q920.8906,350.9063 920.25,351.0547 Q919.6094,351.2031 918.9063,351.2031 Q916.4063,351.2031 915.0859,349.5547 Q913.7656,347.9063 913.7656,344.7813 Q913.7656,341.6563 915.0859,340 Q916.4063,338.3438 918.9063,338.3438 Q919.6094,338.3438 920.2578,338.5 Q920.9063,338.6563 921.4688,338.9531 L921.4688,341.6719 Q920.8438,341.0938 920.25,340.8203 Q919.6563,340.5469 919.0313,340.5469 Q917.6875,340.5469 917,341.6172 Q916.3125,342.6875 916.3125,344.7813 Q916.3125,346.875 917,347.9453 Q917.6875,349.0156 919.0313,349.0156 Q919.6563,349.0156 920.25,348.7422 Q920.8438,348.4688 921.4688,347.8906 L921.4688,350.6094 Z "/><text fill="#000000" font-family="sans-serif" font-size="12" font-style="italic" lengthAdjust="spacingAndGlyphs" textLength="326" x="930.5" y="342.1387">«masd::build::cmakelists, dogen::handcrafted::cmake»</text><text fill="#000000" font-family="sans-serif" font-size="12" lengthAdjust="spacingAndGlyphs" textLength="69" x="1059" y="356.1074">CMakeLists</text><line style="stroke: #A80036; stroke-width: 1.5;" x1="904.5" x2="1256.5" y1="363.9375" y2="363.9375"/><line style="stroke: #A80036; stroke-width: 1.5;" x1="904.5" x2="1256.5" y1="371.9375" y2="371.9375"/><!--MD5=[e0088094388be214025e11d199a7616f]
reverse link backend to file_backend--><path d="M2106.5,121.18 C2106.5,148.71 2106.5,182.52 2106.5,205.4 " fill="none" id="backend&lt;-file_backend" style="stroke: #A80036; stroke-width: 1.0;"/><polygon fill="none" points="2099.5,120.78,2106.5,100.78,2113.5,120.78,2099.5,120.78" style="stroke: #A80036; stroke-width: 1.0;"/><!--MD5=[b2f00ac79e73d0c2935b9e8ecfdb021f]
reverse link backend_factory to file_backend_factory--><path d="M2474.5,121.18 C2474.5,148.71 2474.5,182.52 2474.5,205.4 " fill="none" id="backend_factory&lt;-file_backend_factory" style="stroke: #A80036; stroke-width: 1.0;"/><polygon fill="none" points="2467.5,120.78,2474.5,100.78,2481.5,120.78,2467.5,120.78" style="stroke: #A80036; stroke-width: 1.0;"/><!--MD5=[4369be315d1820126a1176d3a930006e]
link N1 to tracer--><!--MD5=[c34f450d703f09a703e9b64402a7f12d]
link tracer to metrics--><!--MD5=[3dc8a356470ea760fbb976203b20cfe7]
link metrics to metrics_builder--><!--MD5=[b43caa1a5b528e66bbc696f1d85be331]
link N1 to metrics_printer--><!--MD5=[5338338189d7eb4591472b3713ab9cd7]
link metrics_printer to scoped_tracer--><!--MD5=[a4a7b919b742a70ac81d06fe4ac4d624]
link scoped_tracer to references_printer--><!--MD5=[e8f9097fe556beef6e34b70a25ca7eca]
link references_printer to backend_factory_registrar--><!--MD5=[15e272c414bf0a90d18fd9a13140a57b]
link metrics_printer to registrar_error--><!--MD5=[6f6a140f23cd8573651731f0ac14468f]
link registrar_error to initializer--><!--MD5=[5653eca4263751759b7327e12ef7a0aa]
link initializer to main--><!--MD5=[367f0f7b9da0cd9a39366f1aecb3ca6d]
link main to CMakeLists--><!--MD5=[6a872d051736fa0b9ddf46b9a13963e7]
@startuml
set namespaceSeparator ::
note as N1
Houses classes common to all transformations, in the transform tracing
domain.

UML representation:

\image html dogen.tracing/modeling/dogen.tracing.svg
end note

class tracer <<dogen::handcrafted::typeable, dogen::pretty_printable>> #FFFACD {
    +{field} backend boost::shared_ptr<backend>
}

class metrics <<dogen::untestable>> #ED8181 {
    +{field} transform_id std::string
    +{field} model_id std::string
    +{field} guid std::string
    +{field} start unsigned long
    +{field} end unsigned long
    +{field} children std::list<boost::shared_ptr<metrics>>
}

class metrics_builder <<dogen::handcrafted::typeable>> #FFFACD {
}

class metrics_printer <<dogen::handcrafted::typeable>> #FFFACD {
}

class tracing_error <<masd::exception>> #E8C2F8 {
}

note top of  tracing_error
An error occurred when trying to generate tracing data.
end note

class scoped_tracer <<dogen::handcrafted::typeable>> #FFFACD {
}

class references_printer <<dogen::handcrafted::typeable>> #FFFACD {
}

class backend <<dogen::handcrafted::typeable, dogen::pretty_printable>> #FFFACD {
}

class file_backend <<dogen::handcrafted::typeable, dogen::pretty_printable>> #FFFACD {
}

backend <|- - file_backend
class backend_factory_registrar <<dogen::handcrafted::typeable>> #FFFACD {
    +{field} backend_factories std::unordered_map<tracing_backend, boost::shared_ptr<backend_factory>>
}

class registrar_error <<masd::exception>> #E8C2F8 {
}

class backend_factory <<dogen::handcrafted::typeable::header_only>> #FFFACD {
}

class file_backend_factory <<dogen::handcrafted::typeable>> #FFFACD {
}

backend_factory <|- - file_backend_factory
class initializer <<dogen::handcrafted::typeable>> #FFFACD {
}

class main <<masd::entry_point, dogen::untypable>> #DDA9F3 {
}

class CMakeLists <<masd::build::cmakelists, dogen::handcrafted::cmake>> #99CB99 {
}

@enduml

PlantUML version 1.2020.02(Sun Mar 01 10:22:07 GMT 2020)
(GPL source distribution)
Java Runtime: OpenJDK Runtime Environment
JVM: OpenJDK 64-Bit Server VM
Java Version: 1.8.0_222-8u222-b10-1~deb9u1-b10
Operating System: Linux
Default Encoding: UTF-8
Language: en
Country: GB
--></g></svg>