<?xml version="1.0" encoding="UTF-8" standalone="no"?><svg xmlns="http://www.w3.org/2000/svg" xmlns:xlink="http://www.w3.org/1999/xlink" contentScriptType="application/ecmascript" contentStyleType="text/css" height="390px" preserveAspectRatio="none" style="width:2700px;height:390px;" version="1.1" viewBox="0 0 2700 390" width="2700px" zoomAndPan="magnify"><defs><filter height="300%" id="f1hsgkfbvb6gaf" width="300%" x="-1" y="-1"><feGaussianBlur result="blurOut" stdDeviation="2.0"/><feColorMatrix in="blurOut" result="blurOut2" type="matrix" values="0 0 0 0 0 0 0 0 0 0 0 0 0 0 0 0 0 0 .4 0"/><feOffset dx="4.0" dy="4.0" in="blurOut2" result="blurOut3"/><feBlend in="SourceGraphic" in2="blurOut3" mode="normal"/></filter></defs><g><path d="M6,23 L6,123.7969 L487,123.7969 L487,33 L477,23 L6,23 " fill="#FBFB77" filter="url(#f1hsgkfbvb6gaf)" style="stroke: #A80036; stroke-width: 1.0;"/><path d="M477,23 L477,33 L487,33 L477,23 " fill="#FBFB77" style="stroke: #A80036; stroke-width: 1.0;"/><text fill="#000000" font-family="sans-serif" font-size="13" lengthAdjust="spacingAndGlyphs" textLength="460" x="12" y="40.0669">Houses classes common to all transformations, in the transform tracing</text><text fill="#000000" font-family="sans-serif" font-size="13" lengthAdjust="spacingAndGlyphs" textLength="52" x="12" y="55.1997">domain.</text><text fill="#000000" font-family="sans-serif" font-size="13" lengthAdjust="spacingAndGlyphs" textLength="0" x="16" y="70.3325"/><text fill="#000000" font-family="sans-serif" font-size="13" lengthAdjust="spacingAndGlyphs" textLength="130" x="12" y="85.4653">UML representation:</text><text fill="#000000" font-family="sans-serif" font-size="13" lengthAdjust="spacingAndGlyphs" textLength="0" x="16" y="100.5981"/><text fill="#000000" font-family="sans-serif" font-size="13" lengthAdjust="spacingAndGlyphs" textLength="350" x="12" y="115.731">\image html dogen.tracing/modeling/dogen.tracing.svg</text><!--MD5=[db14d85f9facaa591f9fc719a65607f4]
class tracer--><rect fill="#FFFACD" filter="url(#f1hsgkfbvb6gaf)" height="66.7422" id="tracer" style="stroke: #A80036; stroke-width: 1.5;" width="386" x="522.5" y="40"/><rect fill="#FFFACD" height="37.9375" style="stroke: #A80036; stroke-width: 1.5;" width="386" x="522.5" y="40"/><ellipse cx="537.5" cy="58.9688" fill="#ADD1B2" rx="11" ry="11" style="stroke: #A80036; stroke-width: 1.0;"/><path d="M540.4688,64.6094 Q539.8906,64.9063 539.25,65.0547 Q538.6094,65.2031 537.9063,65.2031 Q535.4063,65.2031 534.0859,63.5547 Q532.7656,61.9063 532.7656,58.7813 Q532.7656,55.6563 534.0859,54 Q535.4063,52.3438 537.9063,52.3438 Q538.6094,52.3438 539.2578,52.5 Q539.9063,52.6563 540.4688,52.9531 L540.4688,55.6719 Q539.8438,55.0938 539.25,54.8203 Q538.6563,54.5469 538.0313,54.5469 Q536.6875,54.5469 536,55.6172 Q535.3125,56.6875 535.3125,58.7813 Q535.3125,60.875 536,61.9453 Q536.6875,63.0156 538.0313,63.0156 Q538.6563,63.0156 539.25,62.7422 Q539.8438,62.4688 540.4688,61.8906 L540.4688,64.6094 Z "/><text fill="#000000" font-family="sans-serif" font-size="12" font-style="italic" lengthAdjust="spacingAndGlyphs" textLength="358" x="549.5" y="56.1387">«dogen::handcrafted::typeable, dogen::pretty_printable»</text><text fill="#000000" font-family="sans-serif" font-size="12" lengthAdjust="spacingAndGlyphs" textLength="38" x="709.5" y="70.1074">tracer</text><line style="stroke: #A80036; stroke-width: 1.5;" x1="523.5" x2="907.5" y1="77.9375" y2="77.9375"/><ellipse cx="533.5" cy="88.9375" fill="none" rx="3" ry="3" style="stroke: #038048; stroke-width: 1.0;"/><text fill="#000000" font-family="sans-serif" font-size="11" lengthAdjust="spacingAndGlyphs" textLength="218" x="542.5" y="92.1479">backend boost::shared_ptr&lt;backend&gt;</text><line style="stroke: #A80036; stroke-width: 1.5;" x1="523.5" x2="907.5" y1="98.7422" y2="98.7422"/><!--MD5=[4604a5c0aa4f6696b3bab992d4743b64]
class metrics--><rect fill="#ED8181" filter="url(#f1hsgkfbvb6gaf)" height="130.7656" id="metrics" style="stroke: #A80036; stroke-width: 1.5;" width="299" x="944" y="8"/><rect fill="#ED8181" height="37.9375" style="stroke: #A80036; stroke-width: 1.5;" width="299" x="944" y="8"/><ellipse cx="1026.75" cy="26.9688" fill="#ADD1B2" rx="11" ry="11" style="stroke: #A80036; stroke-width: 1.0;"/><path d="M1029.7188,32.6094 Q1029.1406,32.9063 1028.5,33.0547 Q1027.8594,33.2031 1027.1563,33.2031 Q1024.6563,33.2031 1023.3359,31.5547 Q1022.0156,29.9063 1022.0156,26.7813 Q1022.0156,23.6563 1023.3359,22 Q1024.6563,20.3438 1027.1563,20.3438 Q1027.8594,20.3438 1028.5078,20.5 Q1029.1563,20.6563 1029.7188,20.9531 L1029.7188,23.6719 Q1029.0938,23.0938 1028.5,22.8203 Q1027.9063,22.5469 1027.2813,22.5469 Q1025.9375,22.5469 1025.25,23.6172 Q1024.5625,24.6875 1024.5625,26.7813 Q1024.5625,28.875 1025.25,29.9453 Q1025.9375,31.0156 1027.2813,31.0156 Q1027.9063,31.0156 1028.5,30.7422 Q1029.0938,30.4688 1029.7188,29.8906 L1029.7188,32.6094 Z "/><text fill="#000000" font-family="sans-serif" font-size="12" font-style="italic" lengthAdjust="spacingAndGlyphs" textLength="129" x="1045.25" y="24.1387">«dogen::untestable»</text><text fill="#000000" font-family="sans-serif" font-size="12" lengthAdjust="spacingAndGlyphs" textLength="46" x="1086.75" y="38.1074">metrics</text><line style="stroke: #A80036; stroke-width: 1.5;" x1="945" x2="1242" y1="45.9375" y2="45.9375"/><ellipse cx="955" cy="56.9375" fill="none" rx="3" ry="3" style="stroke: #038048; stroke-width: 1.0;"/><text fill="#000000" font-family="sans-serif" font-size="11" lengthAdjust="spacingAndGlyphs" textLength="136" x="964" y="60.1479">transform_id std::string</text><ellipse cx="955" cy="69.7422" fill="none" rx="3" ry="3" style="stroke: #038048; stroke-width: 1.0;"/><text fill="#000000" font-family="sans-serif" font-size="11" lengthAdjust="spacingAndGlyphs" textLength="114" x="964" y="72.9526">model_id std::string</text><ellipse cx="955" cy="82.5469" fill="none" rx="3" ry="3" style="stroke: #038048; stroke-width: 1.0;"/><text fill="#000000" font-family="sans-serif" font-size="11" lengthAdjust="spacingAndGlyphs" textLength="87" x="964" y="85.7573">guid std::string</text><ellipse cx="955" cy="95.3516" fill="none" rx="3" ry="3" style="stroke: #038048; stroke-width: 1.0;"/><text fill="#000000" font-family="sans-serif" font-size="11" lengthAdjust="spacingAndGlyphs" textLength="111" x="964" y="98.562">start unsigned long</text><ellipse cx="955" cy="108.1563" fill="none" rx="3" ry="3" style="stroke: #038048; stroke-width: 1.0;"/><text fill="#000000" font-family="sans-serif" font-size="11" lengthAdjust="spacingAndGlyphs" textLength="105" x="964" y="111.3667">end unsigned long</text><ellipse cx="955" cy="120.9609" fill="none" rx="3" ry="3" style="stroke: #038048; stroke-width: 1.0;"/><text fill="#000000" font-family="sans-serif" font-size="11" lengthAdjust="spacingAndGlyphs" textLength="273" x="964" y="124.1714">children std::list&lt;boost::shared_ptr&lt;metrics&gt;&gt;</text><line style="stroke: #A80036; stroke-width: 1.5;" x1="945" x2="1242" y1="130.7656" y2="130.7656"/><!--MD5=[f16d5dfe89f9b25229add2328b2ef56a]
class metrics_builder--><rect fill="#FFFACD" filter="url(#f1hsgkfbvb6gaf)" height="53.9375" id="metrics_builder" style="stroke: #A80036; stroke-width: 1.5;" width="230" x="1278.5" y="46.5"/><rect fill="#FFFACD" height="37.9375" style="stroke: #A80036; stroke-width: 1.5;" width="230" x="1278.5" y="46.5"/><ellipse cx="1293.5" cy="65.4688" fill="#ADD1B2" rx="11" ry="11" style="stroke: #A80036; stroke-width: 1.0;"/><path d="M1296.4688,71.1094 Q1295.8906,71.4063 1295.25,71.5547 Q1294.6094,71.7031 1293.9063,71.7031 Q1291.4063,71.7031 1290.0859,70.0547 Q1288.7656,68.4063 1288.7656,65.2813 Q1288.7656,62.1563 1290.0859,60.5 Q1291.4063,58.8438 1293.9063,58.8438 Q1294.6094,58.8438 1295.2578,59 Q1295.9063,59.1563 1296.4688,59.4531 L1296.4688,62.1719 Q1295.8438,61.5938 1295.25,61.3203 Q1294.6563,61.0469 1294.0313,61.0469 Q1292.6875,61.0469 1292,62.1172 Q1291.3125,63.1875 1291.3125,65.2813 Q1291.3125,67.375 1292,68.4453 Q1292.6875,69.5156 1294.0313,69.5156 Q1294.6563,69.5156 1295.25,69.2422 Q1295.8438,68.9688 1296.4688,68.3906 L1296.4688,71.1094 Z "/><text fill="#000000" font-family="sans-serif" font-size="12" font-style="italic" lengthAdjust="spacingAndGlyphs" textLength="202" x="1305.5" y="62.6387">«dogen::handcrafted::typeable»</text><text fill="#000000" font-family="sans-serif" font-size="12" lengthAdjust="spacingAndGlyphs" textLength="95" x="1359" y="76.6074">metrics_builder</text><line style="stroke: #A80036; stroke-width: 1.5;" x1="1279.5" x2="1507.5" y1="84.4375" y2="84.4375"/><line style="stroke: #A80036; stroke-width: 1.5;" x1="1279.5" x2="1507.5" y1="92.4375" y2="92.4375"/><!--MD5=[a0321f498e31c01f78af3f75a6091be2]
class metrics_printer--><rect fill="#FFFACD" filter="url(#f1hsgkfbvb6gaf)" height="53.9375" id="metrics_printer" style="stroke: #A80036; stroke-width: 1.5;" width="230" x="131.5" y="205.5"/><rect fill="#FFFACD" height="37.9375" style="stroke: #A80036; stroke-width: 1.5;" width="230" x="131.5" y="205.5"/><ellipse cx="146.5" cy="224.4688" fill="#ADD1B2" rx="11" ry="11" style="stroke: #A80036; stroke-width: 1.0;"/><path d="M149.4688,230.1094 Q148.8906,230.4063 148.25,230.5547 Q147.6094,230.7031 146.9063,230.7031 Q144.4063,230.7031 143.0859,229.0547 Q141.7656,227.4063 141.7656,224.2813 Q141.7656,221.1563 143.0859,219.5 Q144.4063,217.8438 146.9063,217.8438 Q147.6094,217.8438 148.2578,218 Q148.9063,218.1563 149.4688,218.4531 L149.4688,221.1719 Q148.8438,220.5938 148.25,220.3203 Q147.6563,220.0469 147.0313,220.0469 Q145.6875,220.0469 145,221.1172 Q144.3125,222.1875 144.3125,224.2813 Q144.3125,226.375 145,227.4453 Q145.6875,228.5156 147.0313,228.5156 Q147.6563,228.5156 148.25,228.2422 Q148.8438,227.9688 149.4688,227.3906 L149.4688,230.1094 Z "/><text fill="#000000" font-family="sans-serif" font-size="12" font-style="italic" lengthAdjust="spacingAndGlyphs" textLength="202" x="158.5" y="221.6387">«dogen::handcrafted::typeable»</text><text fill="#000000" font-family="sans-serif" font-size="12" lengthAdjust="spacingAndGlyphs" textLength="94" x="212.5" y="235.6074">metrics_printer</text><line style="stroke: #A80036; stroke-width: 1.5;" x1="132.5" x2="360.5" y1="243.4375" y2="243.4375"/><line style="stroke: #A80036; stroke-width: 1.5;" x1="132.5" x2="360.5" y1="251.4375" y2="251.4375"/><!--MD5=[d474be06505ec909b849f40792534f3d]
class tracing_error--><rect fill="#E8C2F8" filter="url(#f1hsgkfbvb6gaf)" height="53.9375" id="tracing_error" style="stroke: #A80036; stroke-width: 1.5;" width="145" x="1658" y="205.5"/><rect fill="#E8C2F8" height="37.9375" style="stroke: #A80036; stroke-width: 1.5;" width="145" x="1658" y="205.5"/><ellipse cx="1673" cy="224.4688" fill="#ADD1B2" rx="11" ry="11" style="stroke: #A80036; stroke-width: 1.0;"/><path d="M1675.9688,230.1094 Q1675.3906,230.4063 1674.75,230.5547 Q1674.1094,230.7031 1673.4063,230.7031 Q1670.9063,230.7031 1669.5859,229.0547 Q1668.2656,227.4063 1668.2656,224.2813 Q1668.2656,221.1563 1669.5859,219.5 Q1670.9063,217.8438 1673.4063,217.8438 Q1674.1094,217.8438 1674.7578,218 Q1675.4063,218.1563 1675.9688,218.4531 L1675.9688,221.1719 Q1675.3438,220.5938 1674.75,220.3203 Q1674.1563,220.0469 1673.5313,220.0469 Q1672.1875,220.0469 1671.5,221.1172 Q1670.8125,222.1875 1670.8125,224.2813 Q1670.8125,226.375 1671.5,227.4453 Q1672.1875,228.5156 1673.5313,228.5156 Q1674.1563,228.5156 1674.75,228.2422 Q1675.3438,227.9688 1675.9688,227.3906 L1675.9688,230.1094 Z "/><text fill="#000000" font-family="sans-serif" font-size="12" font-style="italic" lengthAdjust="spacingAndGlyphs" textLength="117" x="1685" y="221.6387">«masd::exception»</text><text fill="#000000" font-family="sans-serif" font-size="12" lengthAdjust="spacingAndGlyphs" textLength="81" x="1703" y="235.6074">tracing_error</text><line style="stroke: #A80036; stroke-width: 1.5;" x1="1659" x2="1802" y1="243.4375" y2="243.4375"/><line style="stroke: #A80036; stroke-width: 1.5;" x1="1659" x2="1802" y1="251.4375" y2="251.4375"/><path d="M1543.5,61 L1543.5,86.1328 A0,0 0 0 0 1543.5,86.1328 L1726.5,86.1328 L1730.5,205.36 L1734.5,86.1328 L1917.5,86.1328 A0,0 0 0 0 1917.5,86.1328 L1917.5,71 L1907.5,61 L1543.5,61 A0,0 0 0 0 1543.5,61 " fill="#FBFB77" filter="url(#f1hsgkfbvb6gaf)" style="stroke: #A80036; stroke-width: 1.0;"/><path d="M1907.5,61 L1907.5,71 L1917.5,71 L1907.5,61 " fill="#FBFB77" style="stroke: #A80036; stroke-width: 1.0;"/><text fill="#000000" font-family="sans-serif" font-size="13" lengthAdjust="spacingAndGlyphs" textLength="353" x="1549.5" y="78.0669">An error occurred when trying to generate tracing data.</text><!--MD5=[a1eadb59f5e9b2e591c1e6d5145d8899]
class scoped_tracer--><rect fill="#FFFACD" filter="url(#f1hsgkfbvb6gaf)" height="53.9375" id="scoped_tracer" style="stroke: #A80036; stroke-width: 1.5;" width="230" x="396.5" y="205.5"/><rect fill="#FFFACD" height="37.9375" style="stroke: #A80036; stroke-width: 1.5;" width="230" x="396.5" y="205.5"/><ellipse cx="411.5" cy="224.4688" fill="#ADD1B2" rx="11" ry="11" style="stroke: #A80036; stroke-width: 1.0;"/><path d="M414.4688,230.1094 Q413.8906,230.4063 413.25,230.5547 Q412.6094,230.7031 411.9063,230.7031 Q409.4063,230.7031 408.0859,229.0547 Q406.7656,227.4063 406.7656,224.2813 Q406.7656,221.1563 408.0859,219.5 Q409.4063,217.8438 411.9063,217.8438 Q412.6094,217.8438 413.2578,218 Q413.9063,218.1563 414.4688,218.4531 L414.4688,221.1719 Q413.8438,220.5938 413.25,220.3203 Q412.6563,220.0469 412.0313,220.0469 Q410.6875,220.0469 410,221.1172 Q409.3125,222.1875 409.3125,224.2813 Q409.3125,226.375 410,227.4453 Q410.6875,228.5156 412.0313,228.5156 Q412.6563,228.5156 413.25,228.2422 Q413.8438,227.9688 414.4688,227.3906 L414.4688,230.1094 Z "/><text fill="#000000" font-family="sans-serif" font-size="12" font-style="italic" lengthAdjust="spacingAndGlyphs" textLength="202" x="423.5" y="221.6387">«dogen::handcrafted::typeable»</text><text fill="#000000" font-family="sans-serif" font-size="12" lengthAdjust="spacingAndGlyphs" textLength="90" x="479.5" y="235.6074">scoped_tracer</text><line style="stroke: #A80036; stroke-width: 1.5;" x1="397.5" x2="625.5" y1="243.4375" y2="243.4375"/><line style="stroke: #A80036; stroke-width: 1.5;" x1="397.5" x2="625.5" y1="251.4375" y2="251.4375"/><!--MD5=[7bfc384eafaeb69e61ec7962bd84b75f]
class references_printer--><rect fill="#FFFACD" filter="url(#f1hsgkfbvb6gaf)" height="53.9375" id="references_printer" style="stroke: #A80036; stroke-width: 1.5;" width="230" x="661.5" y="205.5"/><rect fill="#FFFACD" height="37.9375" style="stroke: #A80036; stroke-width: 1.5;" width="230" x="661.5" y="205.5"/><ellipse cx="676.5" cy="224.4688" fill="#ADD1B2" rx="11" ry="11" style="stroke: #A80036; stroke-width: 1.0;"/><path d="M679.4688,230.1094 Q678.8906,230.4063 678.25,230.5547 Q677.6094,230.7031 676.9063,230.7031 Q674.4063,230.7031 673.0859,229.0547 Q671.7656,227.4063 671.7656,224.2813 Q671.7656,221.1563 673.0859,219.5 Q674.4063,217.8438 676.9063,217.8438 Q677.6094,217.8438 678.2578,218 Q678.9063,218.1563 679.4688,218.4531 L679.4688,221.1719 Q678.8438,220.5938 678.25,220.3203 Q677.6563,220.0469 677.0313,220.0469 Q675.6875,220.0469 675,221.1172 Q674.3125,222.1875 674.3125,224.2813 Q674.3125,226.375 675,227.4453 Q675.6875,228.5156 677.0313,228.5156 Q677.6563,228.5156 678.25,228.2422 Q678.8438,227.9688 679.4688,227.3906 L679.4688,230.1094 Z "/><text fill="#000000" font-family="sans-serif" font-size="12" font-style="italic" lengthAdjust="spacingAndGlyphs" textLength="202" x="688.5" y="221.6387">«dogen::handcrafted::typeable»</text><text fill="#000000" font-family="sans-serif" font-size="12" lengthAdjust="spacingAndGlyphs" textLength="116" x="731.5" y="235.6074">references_printer</text><line style="stroke: #A80036; stroke-width: 1.5;" x1="662.5" x2="890.5" y1="243.4375" y2="243.4375"/><line style="stroke: #A80036; stroke-width: 1.5;" x1="662.5" x2="890.5" y1="251.4375" y2="251.4375"/><!--MD5=[a090a731b91a147e463886be75cc2071]
class backend--><rect fill="#FFFACD" filter="url(#f1hsgkfbvb6gaf)" height="53.9375" id="backend" style="stroke: #A80036; stroke-width: 1.5;" width="386" x="1952.5" y="46.5"/><rect fill="#FFFACD" height="37.9375" style="stroke: #A80036; stroke-width: 1.5;" width="386" x="1952.5" y="46.5"/><ellipse cx="1967.5" cy="65.4688" fill="#ADD1B2" rx="11" ry="11" style="stroke: #A80036; stroke-width: 1.0;"/><path d="M1970.4688,71.1094 Q1969.8906,71.4063 1969.25,71.5547 Q1968.6094,71.7031 1967.9063,71.7031 Q1965.4063,71.7031 1964.0859,70.0547 Q1962.7656,68.4063 1962.7656,65.2813 Q1962.7656,62.1563 1964.0859,60.5 Q1965.4063,58.8438 1967.9063,58.8438 Q1968.6094,58.8438 1969.2578,59 Q1969.9063,59.1563 1970.4688,59.4531 L1970.4688,62.1719 Q1969.8438,61.5938 1969.25,61.3203 Q1968.6563,61.0469 1968.0313,61.0469 Q1966.6875,61.0469 1966,62.1172 Q1965.3125,63.1875 1965.3125,65.2813 Q1965.3125,67.375 1966,68.4453 Q1966.6875,69.5156 1968.0313,69.5156 Q1968.6563,69.5156 1969.25,69.2422 Q1969.8438,68.9688 1970.4688,68.3906 L1970.4688,71.1094 Z "/><text fill="#000000" font-family="sans-serif" font-size="12" font-style="italic" lengthAdjust="spacingAndGlyphs" textLength="358" x="1979.5" y="62.6387">«dogen::handcrafted::typeable, dogen::pretty_printable»</text><text fill="#000000" font-family="sans-serif" font-size="12" lengthAdjust="spacingAndGlyphs" textLength="54" x="2131.5" y="76.6074">backend</text><line style="stroke: #A80036; stroke-width: 1.5;" x1="1953.5" x2="2337.5" y1="84.4375" y2="84.4375"/><line style="stroke: #A80036; stroke-width: 1.5;" x1="1953.5" x2="2337.5" y1="92.4375" y2="92.4375"/><!--MD5=[01161fabbbee70e6be97358f80cc36fc]
class file_backend--><rect fill="#FFFACD" filter="url(#f1hsgkfbvb6gaf)" height="53.9375" id="file_backend" style="stroke: #A80036; stroke-width: 1.5;" width="386" x="1952.5" y="205.5"/><rect fill="#FFFACD" height="37.9375" style="stroke: #A80036; stroke-width: 1.5;" width="386" x="1952.5" y="205.5"/><ellipse cx="1967.5" cy="224.4688" fill="#ADD1B2" rx="11" ry="11" style="stroke: #A80036; stroke-width: 1.0;"/><path d="M1970.4688,230.1094 Q1969.8906,230.4063 1969.25,230.5547 Q1968.6094,230.7031 1967.9063,230.7031 Q1965.4063,230.7031 1964.0859,229.0547 Q1962.7656,227.4063 1962.7656,224.2813 Q1962.7656,221.1563 1964.0859,219.5 Q1965.4063,217.8438 1967.9063,217.8438 Q1968.6094,217.8438 1969.2578,218 Q1969.9063,218.1563 1970.4688,218.4531 L1970.4688,221.1719 Q1969.8438,220.5938 1969.25,220.3203 Q1968.6563,220.0469 1968.0313,220.0469 Q1966.6875,220.0469 1966,221.1172 Q1965.3125,222.1875 1965.3125,224.2813 Q1965.3125,226.375 1966,227.4453 Q1966.6875,228.5156 1968.0313,228.5156 Q1968.6563,228.5156 1969.25,228.2422 Q1969.8438,227.9688 1970.4688,227.3906 L1970.4688,230.1094 Z "/><text fill="#000000" font-family="sans-serif" font-size="12" font-style="italic" lengthAdjust="spacingAndGlyphs" textLength="358" x="1979.5" y="221.6387">«dogen::handcrafted::typeable, dogen::pretty_printable»</text><text fill="#000000" font-family="sans-serif" font-size="12" lengthAdjust="spacingAndGlyphs" textLength="78" x="2119.5" y="235.6074">file_backend</text><line style="stroke: #A80036; stroke-width: 1.5;" x1="1953.5" x2="2337.5" y1="243.4375" y2="243.4375"/><line style="stroke: #A80036; stroke-width: 1.5;" x1="1953.5" x2="2337.5" y1="251.4375" y2="251.4375"/><!--MD5=[d524613c4436b85785baa31fb15d8676]
class backend_factory_registrar--><rect fill="#FFFACD" filter="url(#f1hsgkfbvb6gaf)" height="66.7422" id="backend_factory_registrar" style="stroke: #A80036; stroke-width: 1.5;" width="579" x="927" y="199"/><rect fill="#FFFACD" height="37.9375" style="stroke: #A80036; stroke-width: 1.5;" width="579" x="927" y="199"/><ellipse cx="1113.25" cy="217.9688" fill="#ADD1B2" rx="11" ry="11" style="stroke: #A80036; stroke-width: 1.0;"/><path d="M1116.2188,223.6094 Q1115.6406,223.9063 1115,224.0547 Q1114.3594,224.2031 1113.6563,224.2031 Q1111.1563,224.2031 1109.8359,222.5547 Q1108.5156,220.9063 1108.5156,217.7813 Q1108.5156,214.6563 1109.8359,213 Q1111.1563,211.3438 1113.6563,211.3438 Q1114.3594,211.3438 1115.0078,211.5 Q1115.6563,211.6563 1116.2188,211.9531 L1116.2188,214.6719 Q1115.5938,214.0938 1115,213.8203 Q1114.4063,213.5469 1113.7813,213.5469 Q1112.4375,213.5469 1111.75,214.6172 Q1111.0625,215.6875 1111.0625,217.7813 Q1111.0625,219.875 1111.75,220.9453 Q1112.4375,222.0156 1113.7813,222.0156 Q1114.4063,222.0156 1115,221.7422 Q1115.5938,221.4688 1116.2188,220.8906 L1116.2188,223.6094 Z "/><text fill="#000000" font-family="sans-serif" font-size="12" font-style="italic" lengthAdjust="spacingAndGlyphs" textLength="202" x="1131.75" y="215.1387">«dogen::handcrafted::typeable»</text><text fill="#000000" font-family="sans-serif" font-size="12" lengthAdjust="spacingAndGlyphs" textLength="163" x="1151.25" y="229.1074">backend_factory_registrar</text><line style="stroke: #A80036; stroke-width: 1.5;" x1="928" x2="1505" y1="236.9375" y2="236.9375"/><ellipse cx="938" cy="247.9375" fill="none" rx="3" ry="3" style="stroke: #038048; stroke-width: 1.0;"/><text fill="#000000" font-family="sans-serif" font-size="11" lengthAdjust="spacingAndGlyphs" textLength="553" x="947" y="251.1479">backend_factories std::unordered_map&lt;tracing_backend, boost::shared_ptr&lt;backend_factory&gt;&gt;</text><line style="stroke: #A80036; stroke-width: 1.5;" x1="928" x2="1505" y1="257.7422" y2="257.7422"/><!--MD5=[16791588a3f9a6423d02eb0079812554]
class registrar_error--><rect fill="#E8C2F8" filter="url(#f1hsgkfbvb6gaf)" height="53.9375" id="registrar_error" style="stroke: #A80036; stroke-width: 1.5;" width="145" x="174" y="326"/><rect fill="#E8C2F8" height="37.9375" style="stroke: #A80036; stroke-width: 1.5;" width="145" x="174" y="326"/><ellipse cx="189" cy="344.9688" fill="#ADD1B2" rx="11" ry="11" style="stroke: #A80036; stroke-width: 1.0;"/><path d="M191.9688,350.6094 Q191.3906,350.9063 190.75,351.0547 Q190.1094,351.2031 189.4063,351.2031 Q186.9063,351.2031 185.5859,349.5547 Q184.2656,347.9063 184.2656,344.7813 Q184.2656,341.6563 185.5859,340 Q186.9063,338.3438 189.4063,338.3438 Q190.1094,338.3438 190.7578,338.5 Q191.4063,338.6563 191.9688,338.9531 L191.9688,341.6719 Q191.3438,341.0938 190.75,340.8203 Q190.1563,340.5469 189.5313,340.5469 Q188.1875,340.5469 187.5,341.6172 Q186.8125,342.6875 186.8125,344.7813 Q186.8125,346.875 187.5,347.9453 Q188.1875,349.0156 189.5313,349.0156 Q190.1563,349.0156 190.75,348.7422 Q191.3438,348.4688 191.9688,347.8906 L191.9688,350.6094 Z "/><text fill="#000000" font-family="sans-serif" font-size="12" font-style="italic" lengthAdjust="spacingAndGlyphs" textLength="117" x="201" y="342.1387">«masd::exception»</text><text fill="#000000" font-family="sans-serif" font-size="12" lengthAdjust="spacingAndGlyphs" textLength="91" x="214" y="356.1074">registrar_error</text><line style="stroke: #A80036; stroke-width: 1.5;" x1="175" x2="318" y1="363.9375" y2="363.9375"/><line style="stroke: #A80036; stroke-width: 1.5;" x1="175" x2="318" y1="371.9375" y2="371.9375"/><!--MD5=[380f2d53f9f425092d878b711630915b]
class backend_factory--><rect fill="#FFFACD" filter="url(#f1hsgkfbvb6gaf)" height="53.9375" id="backend_factory" style="stroke: #A80036; stroke-width: 1.5;" width="315" x="2374" y="46.5"/><rect fill="#FFFACD" height="37.9375" style="stroke: #A80036; stroke-width: 1.5;" width="315" x="2374" y="46.5"/><ellipse cx="2389" cy="65.4688" fill="#ADD1B2" rx="11" ry="11" style="stroke: #A80036; stroke-width: 1.0;"/><path d="M2391.9688,71.1094 Q2391.3906,71.4063 2390.75,71.5547 Q2390.1094,71.7031 2389.4063,71.7031 Q2386.9063,71.7031 2385.5859,70.0547 Q2384.2656,68.4063 2384.2656,65.2813 Q2384.2656,62.1563 2385.5859,60.5 Q2386.9063,58.8438 2389.4063,58.8438 Q2390.1094,58.8438 2390.7578,59 Q2391.4063,59.1563 2391.9688,59.4531 L2391.9688,62.1719 Q2391.3438,61.5938 2390.75,61.3203 Q2390.1563,61.0469 2389.5313,61.0469 Q2388.1875,61.0469 2387.5,62.1172 Q2386.8125,63.1875 2386.8125,65.2813 Q2386.8125,67.375 2387.5,68.4453 Q2388.1875,69.5156 2389.5313,69.5156 Q2390.1563,69.5156 2390.75,69.2422 Q2391.3438,68.9688 2391.9688,68.3906 L2391.9688,71.1094 Z "/><text fill="#000000" font-family="sans-serif" font-size="12" font-style="italic" lengthAdjust="spacingAndGlyphs" textLength="287" x="2401" y="62.6387">«dogen::handcrafted::typeable::header_only»</text><text fill="#000000" font-family="sans-serif" font-size="12" lengthAdjust="spacingAndGlyphs" textLength="103" x="2493" y="76.6074">backend_factory</text><line style="stroke: #A80036; stroke-width: 1.5;" x1="2375" x2="2688" y1="84.4375" y2="84.4375"/><line style="stroke: #A80036; stroke-width: 1.5;" x1="2375" x2="2688" y1="92.4375" y2="92.4375"/><!--MD5=[ea1cba3cfb774dab2e48b89932cf097d]
class file_backend_factory--><rect fill="#FFFACD" filter="url(#f1hsgkfbvb6gaf)" height="53.9375" id="file_backend_factory" style="stroke: #A80036; stroke-width: 1.5;" width="230" x="2416.5" y="205.5"/><rect fill="#FFFACD" height="37.9375" style="stroke: #A80036; stroke-width: 1.5;" width="230" x="2416.5" y="205.5"/><ellipse cx="2431.5" cy="224.4688" fill="#ADD1B2" rx="11" ry="11" style="stroke: #A80036; stroke-width: 1.0;"/><path d="M2434.4688,230.1094 Q2433.8906,230.4063 2433.25,230.5547 Q2432.6094,230.7031 2431.9063,230.7031 Q2429.4063,230.7031 2428.0859,229.0547 Q2426.7656,227.4063 2426.7656,224.2813 Q2426.7656,221.1563 2428.0859,219.5 Q2429.4063,217.8438 2431.9063,217.8438 Q2432.6094,217.8438 2433.2578,218 Q2433.9063,218.1563 2434.4688,218.4531 L2434.4688,221.1719 Q2433.8438,220.5938 2433.25,220.3203 Q2432.6563,220.0469 2432.0313,220.0469 Q2430.6875,220.0469 2430,221.1172 Q2429.3125,222.1875 2429.3125,224.2813 Q2429.3125,226.375 2430,227.4453 Q2430.6875,228.5156 2432.0313,228.5156 Q2432.6563,228.5156 2433.25,228.2422 Q2433.8438,227.9688 2434.4688,227.3906 L2434.4688,230.1094 Z "/><text fill="#000000" font-family="sans-serif" font-size="12" font-style="italic" lengthAdjust="spacingAndGlyphs" textLength="202" x="2443.5" y="221.6387">«dogen::handcrafted::typeable»</text><text fill="#000000" font-family="sans-serif" font-size="12" lengthAdjust="spacingAndGlyphs" textLength="127" x="2481" y="235.6074">file_backend_factory</text><line style="stroke: #A80036; stroke-width: 1.5;" x1="2417.5" x2="2645.5" y1="243.4375" y2="243.4375"/><line style="stroke: #A80036; stroke-width: 1.5;" x1="2417.5" x2="2645.5" y1="251.4375" y2="251.4375"/><!--MD5=[d54e5852ecfe164bbba509d3a9352ed8]
class initializer--><rect fill="#FFFACD" filter="url(#f1hsgkfbvb6gaf)" height="53.9375" id="initializer" style="stroke: #A80036; stroke-width: 1.5;" width="230" x="354.5" y="326"/><rect fill="#FFFACD" height="37.9375" style="stroke: #A80036; stroke-width: 1.5;" width="230" x="354.5" y="326"/><ellipse cx="369.5" cy="344.9688" fill="#ADD1B2" rx="11" ry="11" style="stroke: #A80036; stroke-width: 1.0;"/><path d="M372.4688,350.6094 Q371.8906,350.9063 371.25,351.0547 Q370.6094,351.2031 369.9063,351.2031 Q367.4063,351.2031 366.0859,349.5547 Q364.7656,347.9063 364.7656,344.7813 Q364.7656,341.6563 366.0859,340 Q367.4063,338.3438 369.9063,338.3438 Q370.6094,338.3438 371.2578,338.5 Q371.9063,338.6563 372.4688,338.9531 L372.4688,341.6719 Q371.8438,341.0938 371.25,340.8203 Q370.6563,340.5469 370.0313,340.5469 Q368.6875,340.5469 368,341.6172 Q367.3125,342.6875 367.3125,344.7813 Q367.3125,346.875 368,347.9453 Q368.6875,349.0156 370.0313,349.0156 Q370.6563,349.0156 371.25,348.7422 Q371.8438,348.4688 372.4688,347.8906 L372.4688,350.6094 Z "/><text fill="#000000" font-family="sans-serif" font-size="12" font-style="italic" lengthAdjust="spacingAndGlyphs" textLength="202" x="381.5" y="342.1387">«dogen::handcrafted::typeable»</text><text fill="#000000" font-family="sans-serif" font-size="12" lengthAdjust="spacingAndGlyphs" textLength="54" x="455.5" y="356.1074">initializer</text><line style="stroke: #A80036; stroke-width: 1.5;" x1="355.5" x2="583.5" y1="363.9375" y2="363.9375"/><line style="stroke: #A80036; stroke-width: 1.5;" x1="355.5" x2="583.5" y1="371.9375" y2="371.9375"/><!--MD5=[4520fda4e10d4d791ce48fe025810cd4]
class main--><rect fill="#DDA9F3" filter="url(#f1hsgkfbvb6gaf)" height="53.9375" id="main" style="stroke: #A80036; stroke-width: 1.5;" width="273" x="620" y="326"/><rect fill="#DDA9F3" height="37.9375" style="stroke: #A80036; stroke-width: 1.5;" width="273" x="620" y="326"/><ellipse cx="635" cy="344.9688" fill="#ADD1B2" rx="11" ry="11" style="stroke: #A80036; stroke-width: 1.0;"/><path d="M637.9688,350.6094 Q637.3906,350.9063 636.75,351.0547 Q636.1094,351.2031 635.4063,351.2031 Q632.9063,351.2031 631.5859,349.5547 Q630.2656,347.9063 630.2656,344.7813 Q630.2656,341.6563 631.5859,340 Q632.9063,338.3438 635.4063,338.3438 Q636.1094,338.3438 636.7578,338.5 Q637.4063,338.6563 637.9688,338.9531 L637.9688,341.6719 Q637.3438,341.0938 636.75,340.8203 Q636.1563,340.5469 635.5313,340.5469 Q634.1875,340.5469 633.5,341.6172 Q632.8125,342.6875 632.8125,344.7813 Q632.8125,346.875 633.5,347.9453 Q634.1875,349.0156 635.5313,349.0156 Q636.1563,349.0156 636.75,348.7422 Q637.3438,348.4688 637.9688,347.8906 L637.9688,350.6094 Z "/><text fill="#000000" font-family="sans-serif" font-size="12" font-style="italic" lengthAdjust="spacingAndGlyphs" textLength="245" x="647" y="342.1387">«masd::entry_point, dogen::untypable»</text><text fill="#000000" font-family="sans-serif" font-size="12" lengthAdjust="spacingAndGlyphs" textLength="30" x="754.5" y="356.1074">main</text><line style="stroke: #A80036; stroke-width: 1.5;" x1="621" x2="892" y1="363.9375" y2="363.9375"/><line style="stroke: #A80036; stroke-width: 1.5;" x1="621" x2="892" y1="371.9375" y2="371.9375"/><!--MD5=[ba83386d426114557685538e96aa6f68]
class CMakeLists--><rect fill="#99CB99" filter="url(#f1hsgkfbvb6gaf)" height="53.9375" id="CMakeLists" style="stroke: #A80036; stroke-width: 1.5;" width="367" x="928" y="326"/><rect fill="#99CB99" height="37.9375" style="stroke: #A80036; stroke-width: 1.5;" width="367" x="928" y="326"/><ellipse cx="943" cy="344.9688" fill="#ADD1B2" rx="11" ry="11" style="stroke: #A80036; stroke-width: 1.0;"/><path d="M945.9688,350.6094 Q945.3906,350.9063 944.75,351.0547 Q944.1094,351.2031 943.4063,351.2031 Q940.9063,351.2031 939.5859,349.5547 Q938.2656,347.9063 938.2656,344.7813 Q938.2656,341.6563 939.5859,340 Q940.9063,338.3438 943.4063,338.3438 Q944.1094,338.3438 944.7578,338.5 Q945.4063,338.6563 945.9688,338.9531 L945.9688,341.6719 Q945.3438,341.0938 944.75,340.8203 Q944.1563,340.5469 943.5313,340.5469 Q942.1875,340.5469 941.5,341.6172 Q940.8125,342.6875 940.8125,344.7813 Q940.8125,346.875 941.5,347.9453 Q942.1875,349.0156 943.5313,349.0156 Q944.1563,349.0156 944.75,348.7422 Q945.3438,348.4688 945.9688,347.8906 L945.9688,350.6094 Z "/><text fill="#000000" font-family="sans-serif" font-size="12" font-style="italic" lengthAdjust="spacingAndGlyphs" textLength="339" x="955" y="342.1387">«masd::build::cmakelists, dogen::handcrafted::cmake»</text><text fill="#000000" font-family="sans-serif" font-size="12" lengthAdjust="spacingAndGlyphs" textLength="69" x="1090" y="356.1074">CMakeLists</text><line style="stroke: #A80036; stroke-width: 1.5;" x1="929" x2="1294" y1="363.9375" y2="363.9375"/><line style="stroke: #A80036; stroke-width: 1.5;" x1="929" x2="1294" y1="371.9375" y2="371.9375"/><!--MD5=[e0088094388be214025e11d199a7616f]
reverse link backend to file_backend--><path d="M2145.5,121.18 C2145.5,148.71 2145.5,182.52 2145.5,205.4 " fill="none" id="backend&lt;-file_backend" style="stroke: #A80036; stroke-width: 1.0;"/><polygon fill="none" points="2138.5,120.78,2145.5,100.78,2152.5,120.78,2138.5,120.78" style="stroke: #A80036; stroke-width: 1.0;"/><!--MD5=[b2f00ac79e73d0c2935b9e8ecfdb021f]
reverse link backend_factory to file_backend_factory--><path d="M2531.5,121.18 C2531.5,148.71 2531.5,182.52 2531.5,205.4 " fill="none" id="backend_factory&lt;-file_backend_factory" style="stroke: #A80036; stroke-width: 1.0;"/><polygon fill="none" points="2524.5,120.78,2531.5,100.78,2538.5,120.78,2524.5,120.78" style="stroke: #A80036; stroke-width: 1.0;"/><!--MD5=[4369be315d1820126a1176d3a930006e]
link N1 to tracer--><!--MD5=[c34f450d703f09a703e9b64402a7f12d]
link tracer to metrics--><!--MD5=[3dc8a356470ea760fbb976203b20cfe7]
link metrics to metrics_builder--><!--MD5=[b43caa1a5b528e66bbc696f1d85be331]
link N1 to metrics_printer--><!--MD5=[5338338189d7eb4591472b3713ab9cd7]
link metrics_printer to scoped_tracer--><!--MD5=[a4a7b919b742a70ac81d06fe4ac4d624]
link scoped_tracer to references_printer--><!--MD5=[e8f9097fe556beef6e34b70a25ca7eca]
link references_printer to backend_factory_registrar--><!--MD5=[15e272c414bf0a90d18fd9a13140a57b]
link metrics_printer to registrar_error--><!--MD5=[6f6a140f23cd8573651731f0ac14468f]
link registrar_error to initializer--><!--MD5=[5653eca4263751759b7327e12ef7a0aa]
link initializer to main--><!--MD5=[367f0f7b9da0cd9a39366f1aecb3ca6d]
link main to CMakeLists--><!--MD5=[f1629686506193f8ebda4cf4b45b9e85]
@startuml
set namespaceSeparator ::
note as N1
Houses classes common to all transformations, in the transform tracing
domain.

UML representation:

\image html dogen.tracing/modeling/dogen.tracing.svg
end note

class tracer <<dogen::handcrafted::typeable, dogen::pretty_printable>> #FFFACD {
    +{field} backend boost::shared_ptr<backend>
}

class metrics <<dogen::untestable>> #ED8181 {
    +{field} transform_id std::string
    +{field} model_id std::string
    +{field} guid std::string
    +{field} start unsigned long
    +{field} end unsigned long
    +{field} children std::list<boost::shared_ptr<metrics>>
}

class metrics_builder <<dogen::handcrafted::typeable>> #FFFACD {
}

class metrics_printer <<dogen::handcrafted::typeable>> #FFFACD {
}

class tracing_error <<masd::exception>> #E8C2F8 {
}

note top of  tracing_error
    An error occurred when trying to generate tracing data.
end note

class scoped_tracer <<dogen::handcrafted::typeable>> #FFFACD {
}

class references_printer <<dogen::handcrafted::typeable>> #FFFACD {
}

class backend <<dogen::handcrafted::typeable, dogen::pretty_printable>> #FFFACD {
}

class file_backend <<dogen::handcrafted::typeable, dogen::pretty_printable>> #FFFACD {
}

backend <|- - file_backend
class backend_factory_registrar <<dogen::handcrafted::typeable>> #FFFACD {
    +{field} backend_factories std::unordered_map<tracing_backend, boost::shared_ptr<backend_factory>>
}

class registrar_error <<masd::exception>> #E8C2F8 {
}

class backend_factory <<dogen::handcrafted::typeable::header_only>> #FFFACD {
}

class file_backend_factory <<dogen::handcrafted::typeable>> #FFFACD {
}

backend_factory <|- - file_backend_factory
class initializer <<dogen::handcrafted::typeable>> #FFFACD {
}

class main <<masd::entry_point, dogen::untypable>> #DDA9F3 {
}

class CMakeLists <<masd::build::cmakelists, dogen::handcrafted::cmake>> #99CB99 {
}

@enduml

PlantUML version 1.2020.02(Sun Mar 01 10:22:07 GMT 2020)
(GPL source distribution)
Java Runtime: OpenJDK Runtime Environment
JVM: OpenJDK 64-Bit Server VM
Java Version: 1.8.0_212-8u212-b03-2~deb9u1-b03
Operating System: Linux
Default Encoding: UTF-8
Language: en
Country: GB
--></g></svg>