<?xml version="1.0" encoding="UTF-8" standalone="no"?><svg xmlns="http://www.w3.org/2000/svg" xmlns:xlink="http://www.w3.org/1999/xlink" contentStyleType="text/css" height="631px" preserveAspectRatio="none" style="width:2210px;height:631px;background:#FFFFFF;" version="1.1" viewBox="0 0 2210 631" width="2210px" zoomAndPan="magnify"><defs/><g><g id="elem_N1"><path d="M1660,12 L1660,112.7969 L2149,112.7969 L2149,22 L2139,12 L1660,12 " fill="#FEFFDD" style="stroke:#181818;stroke-width:0.5;"/><path d="M2139,12 L2139,22 L2149,22 L2139,12 " fill="#FEFFDD" style="stroke:#181818;stroke-width:1.0;"/><text fill="#000000" font-family="sans-serif" font-size="13" lengthAdjust="spacing" textLength="468" x="1666" y="29.0669">Houses classes common to all transformations, in the transform tracing</text><text fill="#000000" font-family="sans-serif" font-size="13" lengthAdjust="spacing" textLength="53" x="1666" y="44.1997">domain.</text><text fill="#000000" font-family="sans-serif" font-size="13" lengthAdjust="spacing" textLength="4" x="1666" y="59.3325"> </text><text fill="#000000" font-family="sans-serif" font-size="13" lengthAdjust="spacing" textLength="131" x="1666" y="74.4653">UML representation:</text><text fill="#000000" font-family="sans-serif" font-size="13" lengthAdjust="spacing" textLength="4" x="1666" y="89.5981"> </text><text fill="#000000" font-family="sans-serif" font-size="13" lengthAdjust="spacing" textLength="357" x="1666" y="104.731">\image html dogen.tracing/modeling/dogen.tracing.svg</text></g><!--MD5=[db14d85f9facaa591f9fc719a65607f4]
class tracer--><g id="elem_tracer"><rect codeLine="11" fill="#FFFACD" height="72.5625" id="tracer" rx="2.5" ry="2.5" style="stroke:#181818;stroke-width:0.5;" width="373" x="1008.5" y="132.7969"/><ellipse cx="1023.5" cy="152.9297" fill="#ADD1B2" rx="11" ry="11" style="stroke:#181818;stroke-width:1.0;"/><path d="M1026.4688,158.5703 Q1025.8906,158.8672 1025.25,159.0156 Q1024.6094,159.1641 1023.9063,159.1641 Q1021.4063,159.1641 1020.0859,157.5156 Q1018.7656,155.8672 1018.7656,152.7422 Q1018.7656,149.6172 1020.0859,147.9609 Q1021.4063,146.3047 1023.9063,146.3047 Q1024.6094,146.3047 1025.2578,146.4609 Q1025.9063,146.6172 1026.4688,146.9141 L1026.4688,149.6328 Q1025.8438,149.0547 1025.25,148.7813 Q1024.6563,148.5078 1024.0313,148.5078 Q1022.6875,148.5078 1022,149.5781 Q1021.3125,150.6484 1021.3125,152.7422 Q1021.3125,154.8359 1022,155.9063 Q1022.6875,156.9766 1024.0313,156.9766 Q1024.6563,156.9766 1025.25,156.7031 Q1025.8438,156.4297 1026.4688,155.8516 L1026.4688,158.5703 Z " fill="#000000"/><text fill="#000000" font-family="sans-serif" font-size="12" font-style="italic" lengthAdjust="spacing" textLength="345" x="1035.5" y="148.9355">«dogen::handcrafted::typeable, dogen::pretty_printable»</text><text fill="#000000" font-family="sans-serif" font-size="14" lengthAdjust="spacing" textLength="43" x="1186.5" y="164.7607">tracer</text><line style="stroke:#181818;stroke-width:0.5;" x1="1009.5" x2="1380.5" y1="173.0625" y2="173.0625"/><ellipse cx="1019.5" cy="186.7109" fill="none" rx="3" ry="3" style="stroke:#038048;stroke-width:1.0;"/><text fill="#000000" font-family="sans-serif" font-size="14" lengthAdjust="spacing" textLength="275" x="1028.5" y="190.0576">backend boost::shared_ptr&lt;backend&gt;</text><line style="stroke:#181818;stroke-width:0.5;" x1="1009.5" x2="1380.5" y1="197.3594" y2="197.3594"/></g><!--MD5=[4604a5c0aa4f6696b3bab992d4743b64]
class metrics--><g id="elem_metrics"><rect codeLine="15" fill="#ED8181" height="154.0469" id="metrics" rx="2.5" ry="2.5" style="stroke:#181818;stroke-width:0.5;" width="365" x="1012.5" y="225.3594"/><ellipse cx="1130.75" cy="245.4922" fill="#ADD1B2" rx="11" ry="11" style="stroke:#181818;stroke-width:1.0;"/><path d="M1133.7188,251.1328 Q1133.1406,251.4297 1132.5,251.5781 Q1131.8594,251.7266 1131.1563,251.7266 Q1128.6563,251.7266 1127.3359,250.0781 Q1126.0156,248.4297 1126.0156,245.3047 Q1126.0156,242.1797 1127.3359,240.5234 Q1128.6563,238.8672 1131.1563,238.8672 Q1131.8594,238.8672 1132.5078,239.0234 Q1133.1563,239.1797 1133.7188,239.4766 L1133.7188,242.1953 Q1133.0938,241.6172 1132.5,241.3438 Q1131.9063,241.0703 1131.2813,241.0703 Q1129.9375,241.0703 1129.25,242.1406 Q1128.5625,243.2109 1128.5625,245.3047 Q1128.5625,247.3984 1129.25,248.4688 Q1129.9375,249.5391 1131.2813,249.5391 Q1131.9063,249.5391 1132.5,249.2656 Q1133.0938,248.9922 1133.7188,248.4141 L1133.7188,251.1328 Z " fill="#000000"/><text fill="#000000" font-family="sans-serif" font-size="12" font-style="italic" lengthAdjust="spacing" textLength="124" x="1149.25" y="241.498">«dogen::untestable»</text><text fill="#000000" font-family="sans-serif" font-size="14" lengthAdjust="spacing" textLength="53" x="1184.75" y="257.3232">metrics</text><line style="stroke:#181818;stroke-width:0.5;" x1="1013.5" x2="1376.5" y1="265.625" y2="265.625"/><ellipse cx="1023.5" cy="279.2734" fill="none" rx="3" ry="3" style="stroke:#038048;stroke-width:1.0;"/><text fill="#000000" font-family="sans-serif" font-size="14" lengthAdjust="spacing" textLength="165" x="1032.5" y="282.6201">transform_id std::string</text><ellipse cx="1023.5" cy="295.5703" fill="none" rx="3" ry="3" style="stroke:#038048;stroke-width:1.0;"/><text fill="#000000" font-family="sans-serif" font-size="14" lengthAdjust="spacing" textLength="140" x="1032.5" y="298.917">model_id std::string</text><ellipse cx="1023.5" cy="311.8672" fill="none" rx="3" ry="3" style="stroke:#038048;stroke-width:1.0;"/><text fill="#000000" font-family="sans-serif" font-size="14" lengthAdjust="spacing" textLength="106" x="1032.5" y="315.2139">guid std::string</text><ellipse cx="1023.5" cy="328.1641" fill="none" rx="3" ry="3" style="stroke:#038048;stroke-width:1.0;"/><text fill="#000000" font-family="sans-serif" font-size="14" lengthAdjust="spacing" textLength="136" x="1032.5" y="331.5107">start unsigned long</text><ellipse cx="1023.5" cy="344.4609" fill="none" rx="3" ry="3" style="stroke:#038048;stroke-width:1.0;"/><text fill="#000000" font-family="sans-serif" font-size="14" lengthAdjust="spacing" textLength="131" x="1032.5" y="347.8076">end unsigned long</text><ellipse cx="1023.5" cy="360.7578" fill="none" rx="3" ry="3" style="stroke:#038048;stroke-width:1.0;"/><text fill="#000000" font-family="sans-serif" font-size="14" lengthAdjust="spacing" textLength="339" x="1032.5" y="364.1045">children std::list&lt;boost::shared_ptr&lt;metrics&gt;&gt;</text><line style="stroke:#181818;stroke-width:0.5;" x1="1013.5" x2="1376.5" y1="371.4063" y2="371.4063"/></g><!--MD5=[f16d5dfe89f9b25229add2328b2ef56a]
class metrics_builder--><g id="elem_metrics_builder"><rect codeLine="24" fill="#FFFACD" height="56.2656" id="metrics_builder" rx="2.5" ry="2.5" style="stroke:#181818;stroke-width:0.5;" width="222" x="1084" y="399.4063"/><ellipse cx="1099" cy="419.5391" fill="#ADD1B2" rx="11" ry="11" style="stroke:#181818;stroke-width:1.0;"/><path d="M1101.9688,425.1797 Q1101.3906,425.4766 1100.75,425.625 Q1100.1094,425.7734 1099.4063,425.7734 Q1096.9063,425.7734 1095.5859,424.125 Q1094.2656,422.4766 1094.2656,419.3516 Q1094.2656,416.2266 1095.5859,414.5703 Q1096.9063,412.9141 1099.4063,412.9141 Q1100.1094,412.9141 1100.7578,413.0703 Q1101.4063,413.2266 1101.9688,413.5234 L1101.9688,416.2422 Q1101.3438,415.6641 1100.75,415.3906 Q1100.1563,415.1172 1099.5313,415.1172 Q1098.1875,415.1172 1097.5,416.1875 Q1096.8125,417.2578 1096.8125,419.3516 Q1096.8125,421.4453 1097.5,422.5156 Q1098.1875,423.5859 1099.5313,423.5859 Q1100.1563,423.5859 1100.75,423.3125 Q1101.3438,423.0391 1101.9688,422.4609 L1101.9688,425.1797 Z " fill="#000000"/><text fill="#000000" font-family="sans-serif" font-size="12" font-style="italic" lengthAdjust="spacing" textLength="194" x="1111" y="415.5449">«dogen::handcrafted::typeable»</text><text fill="#000000" font-family="sans-serif" font-size="14" lengthAdjust="spacing" textLength="110" x="1153" y="431.3701">metrics_builder</text><line style="stroke:#181818;stroke-width:0.5;" x1="1085" x2="1305" y1="439.6719" y2="439.6719"/><line style="stroke:#181818;stroke-width:0.5;" x1="1085" x2="1305" y1="447.6719" y2="447.6719"/></g><!--MD5=[a0321f498e31c01f78af3f75a6091be2]
class metrics_printer--><g id="elem_metrics_printer"><rect codeLine="27" fill="#FFFACD" height="56.2656" id="metrics_printer" rx="2.5" ry="2.5" style="stroke:#181818;stroke-width:0.5;" width="222" x="1875" y="143.6615"/><ellipse cx="1890" cy="163.7943" fill="#ADD1B2" rx="11" ry="11" style="stroke:#181818;stroke-width:1.0;"/><path d="M1892.9688,169.4349 Q1892.3906,169.7318 1891.75,169.8802 Q1891.1094,170.0286 1890.4063,170.0286 Q1887.9063,170.0286 1886.5859,168.3802 Q1885.2656,166.7318 1885.2656,163.6068 Q1885.2656,160.4818 1886.5859,158.8255 Q1887.9063,157.1693 1890.4063,157.1693 Q1891.1094,157.1693 1891.7578,157.3255 Q1892.4063,157.4818 1892.9688,157.7786 L1892.9688,160.4974 Q1892.3438,159.9193 1891.75,159.6458 Q1891.1563,159.3724 1890.5313,159.3724 Q1889.1875,159.3724 1888.5,160.4427 Q1887.8125,161.513 1887.8125,163.6068 Q1887.8125,165.7005 1888.5,166.7708 Q1889.1875,167.8411 1890.5313,167.8411 Q1891.1563,167.8411 1891.75,167.5677 Q1892.3438,167.2943 1892.9688,166.7161 L1892.9688,169.4349 Z " fill="#000000"/><text fill="#000000" font-family="sans-serif" font-size="12" font-style="italic" lengthAdjust="spacing" textLength="194" x="1902" y="159.8001">«dogen::handcrafted::typeable»</text><text fill="#000000" font-family="sans-serif" font-size="14" lengthAdjust="spacing" textLength="108" x="1945" y="175.6253">metrics_printer</text><line style="stroke:#181818;stroke-width:0.5;" x1="1876" x2="2096" y1="183.9271" y2="183.9271"/><line style="stroke:#181818;stroke-width:0.5;" x1="1876" x2="2096" y1="191.9271" y2="191.9271"/></g><!--MD5=[d474be06505ec909b849f40792534f3d]
class tracing_error--><g id="elem_tracing_error"><rect codeLine="30" fill="#E8C2F8" height="56.2656" id="tracing_error" rx="2.5" ry="2.5" style="stroke:#181818;stroke-width:0.5;" width="142" x="846.5" y="132.7969"/><ellipse cx="861.5" cy="152.9297" fill="#ADD1B2" rx="11" ry="11" style="stroke:#181818;stroke-width:1.0;"/><path d="M864.4688,158.5703 Q863.8906,158.8672 863.25,159.0156 Q862.6094,159.1641 861.9063,159.1641 Q859.4063,159.1641 858.0859,157.5156 Q856.7656,155.8672 856.7656,152.7422 Q856.7656,149.6172 858.0859,147.9609 Q859.4063,146.3047 861.9063,146.3047 Q862.6094,146.3047 863.2578,146.4609 Q863.9063,146.6172 864.4688,146.9141 L864.4688,149.6328 Q863.8438,149.0547 863.25,148.7813 Q862.6563,148.5078 862.0313,148.5078 Q860.6875,148.5078 860,149.5781 Q859.3125,150.6484 859.3125,152.7422 Q859.3125,154.8359 860,155.9063 Q860.6875,156.9766 862.0313,156.9766 Q862.6563,156.9766 863.25,156.7031 Q863.8438,156.4297 864.4688,155.8516 L864.4688,158.5703 Z " fill="#000000"/><text fill="#000000" font-family="sans-serif" font-size="12" font-style="italic" lengthAdjust="spacing" textLength="114" x="873.5" y="148.9355">«masd::exception»</text><text fill="#000000" font-family="sans-serif" font-size="14" lengthAdjust="spacing" textLength="93" x="884" y="164.7607">tracing_error</text><line style="stroke:#181818;stroke-width:0.5;" x1="847.5" x2="987.5" y1="173.0625" y2="173.0625"/><line style="stroke:#181818;stroke-width:0.5;" x1="847.5" x2="987.5" y1="181.0625" y2="181.0625"/></g><g id="elem_GMN8"><path d="M728,87.6641 L728,112.7969 L1107,112.7969 L1107,97.6641 L1097,87.6641 L728,87.6641 " fill="#FEFFDD" style="stroke:#181818;stroke-width:0.5;"/><path d="M1097,87.6641 L1097,97.6641 L1107,97.6641 L1097,87.6641 " fill="#FEFFDD" style="stroke:#181818;stroke-width:1.0;"/><text fill="#000000" font-family="sans-serif" font-size="13" lengthAdjust="spacing" textLength="358" x="734" y="104.731">An error occurred when trying to generate tracing data.</text></g><!--MD5=[a1eadb59f5e9b2e591c1e6d5145d8899]
class scoped_tracer--><g id="elem_scoped_tracer"><rect codeLine="37" fill="#FFFACD" height="56.2656" id="scoped_tracer" rx="2.5" ry="2.5" style="stroke:#181818;stroke-width:0.5;" width="222" x="1397.5" y="274.25"/><ellipse cx="1412.5" cy="294.3828" fill="#ADD1B2" rx="11" ry="11" style="stroke:#181818;stroke-width:1.0;"/><path d="M1415.4688,300.0234 Q1414.8906,300.3203 1414.25,300.4688 Q1413.6094,300.6172 1412.9063,300.6172 Q1410.4063,300.6172 1409.0859,298.9688 Q1407.7656,297.3203 1407.7656,294.1953 Q1407.7656,291.0703 1409.0859,289.4141 Q1410.4063,287.7578 1412.9063,287.7578 Q1413.6094,287.7578 1414.2578,287.9141 Q1414.9063,288.0703 1415.4688,288.3672 L1415.4688,291.0859 Q1414.8438,290.5078 1414.25,290.2344 Q1413.6563,289.9609 1413.0313,289.9609 Q1411.6875,289.9609 1411,291.0313 Q1410.3125,292.1016 1410.3125,294.1953 Q1410.3125,296.2891 1411,297.3594 Q1411.6875,298.4297 1413.0313,298.4297 Q1413.6563,298.4297 1414.25,298.1563 Q1414.8438,297.8828 1415.4688,297.3047 L1415.4688,300.0234 Z " fill="#000000"/><text fill="#000000" font-family="sans-serif" font-size="12" font-style="italic" lengthAdjust="spacing" textLength="194" x="1424.5" y="290.3887">«dogen::handcrafted::typeable»</text><text fill="#000000" font-family="sans-serif" font-size="14" lengthAdjust="spacing" textLength="101" x="1471" y="306.2139">scoped_tracer</text><line style="stroke:#181818;stroke-width:0.5;" x1="1398.5" x2="1618.5" y1="314.5156" y2="314.5156"/><line style="stroke:#181818;stroke-width:0.5;" x1="1398.5" x2="1618.5" y1="322.5156" y2="322.5156"/></g><!--MD5=[7bfc384eafaeb69e61ec7962bd84b75f]
class references_printer--><g id="elem_references_printer"><rect codeLine="40" fill="#FFFACD" height="56.2656" id="references_printer" rx="2.5" ry="2.5" style="stroke:#181818;stroke-width:0.5;" width="222" x="1397.5" y="399.4063"/><ellipse cx="1412.5" cy="419.5391" fill="#ADD1B2" rx="11" ry="11" style="stroke:#181818;stroke-width:1.0;"/><path d="M1415.4688,425.1797 Q1414.8906,425.4766 1414.25,425.625 Q1413.6094,425.7734 1412.9063,425.7734 Q1410.4063,425.7734 1409.0859,424.125 Q1407.7656,422.4766 1407.7656,419.3516 Q1407.7656,416.2266 1409.0859,414.5703 Q1410.4063,412.9141 1412.9063,412.9141 Q1413.6094,412.9141 1414.2578,413.0703 Q1414.9063,413.2266 1415.4688,413.5234 L1415.4688,416.2422 Q1414.8438,415.6641 1414.25,415.3906 Q1413.6563,415.1172 1413.0313,415.1172 Q1411.6875,415.1172 1411,416.1875 Q1410.3125,417.2578 1410.3125,419.3516 Q1410.3125,421.4453 1411,422.5156 Q1411.6875,423.5859 1413.0313,423.5859 Q1413.6563,423.5859 1414.25,423.3125 Q1414.8438,423.0391 1415.4688,422.4609 L1415.4688,425.1797 Z " fill="#000000"/><text fill="#000000" font-family="sans-serif" font-size="12" font-style="italic" lengthAdjust="spacing" textLength="194" x="1424.5" y="415.5449">«dogen::handcrafted::typeable»</text><text fill="#000000" font-family="sans-serif" font-size="14" lengthAdjust="spacing" textLength="132" x="1455.5" y="431.3701">references_printer</text><line style="stroke:#181818;stroke-width:0.5;" x1="1398.5" x2="1618.5" y1="439.6719" y2="439.6719"/><line style="stroke:#181818;stroke-width:0.5;" x1="1398.5" x2="1618.5" y1="447.6719" y2="447.6719"/></g><!--MD5=[a090a731b91a147e463886be75cc2071]
class backend--><g id="elem_backend"><rect codeLine="43" fill="#FFFACD" height="56.2656" id="backend" rx="2.5" ry="2.5" style="stroke:#181818;stroke-width:0.5;" width="373" x="12" y="56.5313"/><ellipse cx="27" cy="76.6641" fill="#ADD1B2" rx="11" ry="11" style="stroke:#181818;stroke-width:1.0;"/><path d="M29.9688,82.3047 Q29.3906,82.6016 28.75,82.75 Q28.1094,82.8984 27.4063,82.8984 Q24.9063,82.8984 23.5859,81.25 Q22.2656,79.6016 22.2656,76.4766 Q22.2656,73.3516 23.5859,71.6953 Q24.9063,70.0391 27.4063,70.0391 Q28.1094,70.0391 28.7578,70.1953 Q29.4063,70.3516 29.9688,70.6484 L29.9688,73.3672 Q29.3438,72.7891 28.75,72.5156 Q28.1563,72.2422 27.5313,72.2422 Q26.1875,72.2422 25.5,73.3125 Q24.8125,74.3828 24.8125,76.4766 Q24.8125,78.5703 25.5,79.6406 Q26.1875,80.7109 27.5313,80.7109 Q28.1563,80.7109 28.75,80.4375 Q29.3438,80.1641 29.9688,79.5859 L29.9688,82.3047 Z " fill="#000000"/><text fill="#000000" font-family="sans-serif" font-size="12" font-style="italic" lengthAdjust="spacing" textLength="345" x="39" y="72.6699">«dogen::handcrafted::typeable, dogen::pretty_printable»</text><text fill="#000000" font-family="sans-serif" font-size="14" lengthAdjust="spacing" textLength="61" x="181" y="88.4951">backend</text><line style="stroke:#181818;stroke-width:0.5;" x1="13" x2="384" y1="96.7969" y2="96.7969"/><line style="stroke:#181818;stroke-width:0.5;" x1="13" x2="384" y1="104.7969" y2="104.7969"/></g><!--MD5=[01161fabbbee70e6be97358f80cc36fc]
class file_backend--><g id="elem_file_backend"><rect codeLine="46" fill="#FFFACD" height="56.2656" id="file_backend" rx="2.5" ry="2.5" style="stroke:#181818;stroke-width:0.5;" width="373" x="12" y="132.7969"/><ellipse cx="27" cy="152.9297" fill="#ADD1B2" rx="11" ry="11" style="stroke:#181818;stroke-width:1.0;"/><path d="M29.9688,158.5703 Q29.3906,158.8672 28.75,159.0156 Q28.1094,159.1641 27.4063,159.1641 Q24.9063,159.1641 23.5859,157.5156 Q22.2656,155.8672 22.2656,152.7422 Q22.2656,149.6172 23.5859,147.9609 Q24.9063,146.3047 27.4063,146.3047 Q28.1094,146.3047 28.7578,146.4609 Q29.4063,146.6172 29.9688,146.9141 L29.9688,149.6328 Q29.3438,149.0547 28.75,148.7813 Q28.1563,148.5078 27.5313,148.5078 Q26.1875,148.5078 25.5,149.5781 Q24.8125,150.6484 24.8125,152.7422 Q24.8125,154.8359 25.5,155.9063 Q26.1875,156.9766 27.5313,156.9766 Q28.1563,156.9766 28.75,156.7031 Q29.3438,156.4297 29.9688,155.8516 L29.9688,158.5703 Z " fill="#000000"/><text fill="#000000" font-family="sans-serif" font-size="12" font-style="italic" lengthAdjust="spacing" textLength="345" x="39" y="148.9355">«dogen::handcrafted::typeable, dogen::pretty_printable»</text><text fill="#000000" font-family="sans-serif" font-size="14" lengthAdjust="spacing" textLength="90" x="166.5" y="164.7607">file_backend</text><line style="stroke:#181818;stroke-width:0.5;" x1="13" x2="384" y1="173.0625" y2="173.0625"/><line style="stroke:#181818;stroke-width:0.5;" x1="13" x2="384" y1="181.0625" y2="181.0625"/></g><!--MD5=[d524613c4436b85785baa31fb15d8676]
class backend_factory_registrar--><g id="elem_backend_factory_registrar"><rect codeLine="50" fill="#FFFACD" height="72.5625" id="backend_factory_registrar" rx="2.5" ry="2.5" style="stroke:#181818;stroke-width:0.5;" width="722" x="1147.5" y="475.6719"/><ellipse cx="1409.25" cy="495.8047" fill="#ADD1B2" rx="11" ry="11" style="stroke:#181818;stroke-width:1.0;"/><path d="M1412.2188,501.4453 Q1411.6406,501.7422 1411,501.8906 Q1410.3594,502.0391 1409.6563,502.0391 Q1407.1563,502.0391 1405.8359,500.3906 Q1404.5156,498.7422 1404.5156,495.6172 Q1404.5156,492.4922 1405.8359,490.8359 Q1407.1563,489.1797 1409.6563,489.1797 Q1410.3594,489.1797 1411.0078,489.3359 Q1411.6563,489.4922 1412.2188,489.7891 L1412.2188,492.5078 Q1411.5938,491.9297 1411,491.6563 Q1410.4063,491.3828 1409.7813,491.3828 Q1408.4375,491.3828 1407.75,492.4531 Q1407.0625,493.5234 1407.0625,495.6172 Q1407.0625,497.7109 1407.75,498.7813 Q1408.4375,499.8516 1409.7813,499.8516 Q1410.4063,499.8516 1411,499.5781 Q1411.5938,499.3047 1412.2188,498.7266 L1412.2188,501.4453 Z " fill="#000000"/><text fill="#000000" font-family="sans-serif" font-size="12" font-style="italic" lengthAdjust="spacing" textLength="194" x="1427.75" y="491.8105">«dogen::handcrafted::typeable»</text><text fill="#000000" font-family="sans-serif" font-size="14" lengthAdjust="spacing" textLength="186" x="1431.75" y="507.6357">backend_factory_registrar</text><line style="stroke:#181818;stroke-width:0.5;" x1="1148.5" x2="1868.5" y1="515.9375" y2="515.9375"/><ellipse cx="1158.5" cy="529.5859" fill="none" rx="3" ry="3" style="stroke:#038048;stroke-width:1.0;"/><text fill="#000000" font-family="sans-serif" font-size="14" lengthAdjust="spacing" textLength="696" x="1167.5" y="532.9326">backend_factories std::unordered_map&lt;tracing_backend, boost::shared_ptr&lt;backend_factory&gt;&gt;</text><line style="stroke:#181818;stroke-width:0.5;" x1="1148.5" x2="1868.5" y1="540.2344" y2="540.2344"/></g><!--MD5=[16791588a3f9a6423d02eb0079812554]
class registrar_error--><g id="elem_registrar_error"><rect codeLine="54" fill="#E8C2F8" height="56.2656" id="registrar_error" rx="2.5" ry="2.5" style="stroke:#181818;stroke-width:0.5;" width="142" x="1952" y="274.25"/><ellipse cx="1967" cy="294.3828" fill="#ADD1B2" rx="11" ry="11" style="stroke:#181818;stroke-width:1.0;"/><path d="M1969.9688,300.0234 Q1969.3906,300.3203 1968.75,300.4688 Q1968.1094,300.6172 1967.4063,300.6172 Q1964.9063,300.6172 1963.5859,298.9688 Q1962.2656,297.3203 1962.2656,294.1953 Q1962.2656,291.0703 1963.5859,289.4141 Q1964.9063,287.7578 1967.4063,287.7578 Q1968.1094,287.7578 1968.7578,287.9141 Q1969.4063,288.0703 1969.9688,288.3672 L1969.9688,291.0859 Q1969.3438,290.5078 1968.75,290.2344 Q1968.1563,289.9609 1967.5313,289.9609 Q1966.1875,289.9609 1965.5,291.0313 Q1964.8125,292.1016 1964.8125,294.1953 Q1964.8125,296.2891 1965.5,297.3594 Q1966.1875,298.4297 1967.5313,298.4297 Q1968.1563,298.4297 1968.75,298.1563 Q1969.3438,297.8828 1969.9688,297.3047 L1969.9688,300.0234 Z " fill="#000000"/><text fill="#000000" font-family="sans-serif" font-size="12" font-style="italic" lengthAdjust="spacing" textLength="114" x="1979" y="290.3887">«masd::exception»</text><text fill="#000000" font-family="sans-serif" font-size="14" lengthAdjust="spacing" textLength="104" x="1984" y="306.2139">registrar_error</text><line style="stroke:#181818;stroke-width:0.5;" x1="1953" x2="2093" y1="314.5156" y2="314.5156"/><line style="stroke:#181818;stroke-width:0.5;" x1="1953" x2="2093" y1="322.5156" y2="322.5156"/></g><!--MD5=[380f2d53f9f425092d878b711630915b]
class backend_factory--><g id="elem_backend_factory"><rect codeLine="57" fill="#FFFACD" height="56.2656" id="backend_factory" rx="2.5" ry="2.5" style="stroke:#181818;stroke-width:0.5;" width="303" x="405" y="56.5313"/><ellipse cx="420" cy="76.6641" fill="#ADD1B2" rx="11" ry="11" style="stroke:#181818;stroke-width:1.0;"/><path d="M422.9688,82.3047 Q422.3906,82.6016 421.75,82.75 Q421.1094,82.8984 420.4063,82.8984 Q417.9063,82.8984 416.5859,81.25 Q415.2656,79.6016 415.2656,76.4766 Q415.2656,73.3516 416.5859,71.6953 Q417.9063,70.0391 420.4063,70.0391 Q421.1094,70.0391 421.7578,70.1953 Q422.4063,70.3516 422.9688,70.6484 L422.9688,73.3672 Q422.3438,72.7891 421.75,72.5156 Q421.1563,72.2422 420.5313,72.2422 Q419.1875,72.2422 418.5,73.3125 Q417.8125,74.3828 417.8125,76.4766 Q417.8125,78.5703 418.5,79.6406 Q419.1875,80.7109 420.5313,80.7109 Q421.1563,80.7109 421.75,80.4375 Q422.3438,80.1641 422.9688,79.5859 L422.9688,82.3047 Z " fill="#000000"/><text fill="#000000" font-family="sans-serif" font-size="12" font-style="italic" lengthAdjust="spacing" textLength="275" x="432" y="72.6699">«dogen::handcrafted::typeable::header_only»</text><text fill="#000000" font-family="sans-serif" font-size="14" lengthAdjust="spacing" textLength="118" x="510.5" y="88.4951">backend_factory</text><line style="stroke:#181818;stroke-width:0.5;" x1="406" x2="707" y1="96.7969" y2="96.7969"/><line style="stroke:#181818;stroke-width:0.5;" x1="406" x2="707" y1="104.7969" y2="104.7969"/></g><!--MD5=[ea1cba3cfb774dab2e48b89932cf097d]
class file_backend_factory--><g id="elem_file_backend_factory"><rect codeLine="60" fill="#FFFACD" height="56.2656" id="file_backend_factory" rx="2.5" ry="2.5" style="stroke:#181818;stroke-width:0.5;" width="222" x="445.5" y="132.7969"/><ellipse cx="460.5" cy="152.9297" fill="#ADD1B2" rx="11" ry="11" style="stroke:#181818;stroke-width:1.0;"/><path d="M463.4688,158.5703 Q462.8906,158.8672 462.25,159.0156 Q461.6094,159.1641 460.9063,159.1641 Q458.4063,159.1641 457.0859,157.5156 Q455.7656,155.8672 455.7656,152.7422 Q455.7656,149.6172 457.0859,147.9609 Q458.4063,146.3047 460.9063,146.3047 Q461.6094,146.3047 462.2578,146.4609 Q462.9063,146.6172 463.4688,146.9141 L463.4688,149.6328 Q462.8438,149.0547 462.25,148.7813 Q461.6563,148.5078 461.0313,148.5078 Q459.6875,148.5078 459,149.5781 Q458.3125,150.6484 458.3125,152.7422 Q458.3125,154.8359 459,155.9063 Q459.6875,156.9766 461.0313,156.9766 Q461.6563,156.9766 462.25,156.7031 Q462.8438,156.4297 463.4688,155.8516 L463.4688,158.5703 Z " fill="#000000"/><text fill="#000000" font-family="sans-serif" font-size="12" font-style="italic" lengthAdjust="spacing" textLength="194" x="472.5" y="148.9355">«dogen::handcrafted::typeable»</text><text fill="#000000" font-family="sans-serif" font-size="14" lengthAdjust="spacing" textLength="147" x="496" y="164.7607">file_backend_factory</text><line style="stroke:#181818;stroke-width:0.5;" x1="446.5" x2="666.5" y1="173.0625" y2="173.0625"/><line style="stroke:#181818;stroke-width:0.5;" x1="446.5" x2="666.5" y1="181.0625" y2="181.0625"/></g><!--MD5=[d54e5852ecfe164bbba509d3a9352ed8]
class initializer--><g id="elem_initializer"><rect codeLine="64" fill="#FFFACD" height="56.2656" id="initializer" rx="2.5" ry="2.5" style="stroke:#181818;stroke-width:0.5;" width="222" x="1912" y="399.4063"/><ellipse cx="1927" cy="419.5391" fill="#ADD1B2" rx="11" ry="11" style="stroke:#181818;stroke-width:1.0;"/><path d="M1929.9688,425.1797 Q1929.3906,425.4766 1928.75,425.625 Q1928.1094,425.7734 1927.4063,425.7734 Q1924.9063,425.7734 1923.5859,424.125 Q1922.2656,422.4766 1922.2656,419.3516 Q1922.2656,416.2266 1923.5859,414.5703 Q1924.9063,412.9141 1927.4063,412.9141 Q1928.1094,412.9141 1928.7578,413.0703 Q1929.4063,413.2266 1929.9688,413.5234 L1929.9688,416.2422 Q1929.3438,415.6641 1928.75,415.3906 Q1928.1563,415.1172 1927.5313,415.1172 Q1926.1875,415.1172 1925.5,416.1875 Q1924.8125,417.2578 1924.8125,419.3516 Q1924.8125,421.4453 1925.5,422.5156 Q1926.1875,423.5859 1927.5313,423.5859 Q1928.1563,423.5859 1928.75,423.3125 Q1929.3438,423.0391 1929.9688,422.4609 L1929.9688,425.1797 Z " fill="#000000"/><text fill="#000000" font-family="sans-serif" font-size="12" font-style="italic" lengthAdjust="spacing" textLength="194" x="1939" y="415.5449">«dogen::handcrafted::typeable»</text><text fill="#000000" font-family="sans-serif" font-size="14" lengthAdjust="spacing" textLength="65" x="2003.5" y="431.3701">initializer</text><line style="stroke:#181818;stroke-width:0.5;" x1="1913" x2="2133" y1="439.6719" y2="439.6719"/><line style="stroke:#181818;stroke-width:0.5;" x1="1913" x2="2133" y1="447.6719" y2="447.6719"/></g><!--MD5=[4520fda4e10d4d791ce48fe025810cd4]
class main--><g id="elem_main"><rect codeLine="67" fill="#DDA9F3" height="56.2656" id="main" rx="2.5" ry="2.5" style="stroke:#181818;stroke-width:0.5;" width="267" x="1889.5" y="483.8203"/><ellipse cx="1904.5" cy="503.9531" fill="#ADD1B2" rx="11" ry="11" style="stroke:#181818;stroke-width:1.0;"/><path d="M1907.4688,509.5938 Q1906.8906,509.8906 1906.25,510.0391 Q1905.6094,510.1875 1904.9063,510.1875 Q1902.4063,510.1875 1901.0859,508.5391 Q1899.7656,506.8906 1899.7656,503.7656 Q1899.7656,500.6406 1901.0859,498.9844 Q1902.4063,497.3281 1904.9063,497.3281 Q1905.6094,497.3281 1906.2578,497.4844 Q1906.9063,497.6406 1907.4688,497.9375 L1907.4688,500.6563 Q1906.8438,500.0781 1906.25,499.8047 Q1905.6563,499.5313 1905.0313,499.5313 Q1903.6875,499.5313 1903,500.6016 Q1902.3125,501.6719 1902.3125,503.7656 Q1902.3125,505.8594 1903,506.9297 Q1903.6875,508 1905.0313,508 Q1905.6563,508 1906.25,507.7266 Q1906.8438,507.4531 1907.4688,506.875 L1907.4688,509.5938 Z " fill="#000000"/><text fill="#000000" font-family="sans-serif" font-size="12" font-style="italic" lengthAdjust="spacing" textLength="239" x="1916.5" y="499.959">«masd::entry_point, dogen::untypable»</text><text fill="#000000" font-family="sans-serif" font-size="14" lengthAdjust="spacing" textLength="36" x="2018" y="515.7842">main</text><line style="stroke:#181818;stroke-width:0.5;" x1="1890.5" x2="2155.5" y1="524.0859" y2="524.0859"/><line style="stroke:#181818;stroke-width:0.5;" x1="1890.5" x2="2155.5" y1="532.0859" y2="532.0859"/></g><!--MD5=[ba83386d426114557685538e96aa6f68]
class CMakeLists--><g id="elem_CMakeLists"><rect codeLine="70" fill="#99CB99" height="56.2656" id="CMakeLists" rx="2.5" ry="2.5" style="stroke:#181818;stroke-width:0.5;" width="360" x="1843" y="568.2344"/><ellipse cx="1858" cy="588.3672" fill="#ADD1B2" rx="11" ry="11" style="stroke:#181818;stroke-width:1.0;"/><path d="M1860.9688,594.0078 Q1860.3906,594.3047 1859.75,594.4531 Q1859.1094,594.6016 1858.4063,594.6016 Q1855.9063,594.6016 1854.5859,592.9531 Q1853.2656,591.3047 1853.2656,588.1797 Q1853.2656,585.0547 1854.5859,583.3984 Q1855.9063,581.7422 1858.4063,581.7422 Q1859.1094,581.7422 1859.7578,581.8984 Q1860.4063,582.0547 1860.9688,582.3516 L1860.9688,585.0703 Q1860.3438,584.4922 1859.75,584.2188 Q1859.1563,583.9453 1858.5313,583.9453 Q1857.1875,583.9453 1856.5,585.0156 Q1855.8125,586.0859 1855.8125,588.1797 Q1855.8125,590.2734 1856.5,591.3438 Q1857.1875,592.4141 1858.5313,592.4141 Q1859.1563,592.4141 1859.75,592.1406 Q1860.3438,591.8672 1860.9688,591.2891 L1860.9688,594.0078 Z " fill="#000000"/><text fill="#000000" font-family="sans-serif" font-size="12" font-style="italic" lengthAdjust="spacing" textLength="332" x="1870" y="584.373">«masd::build::cmakelists, dogen::handcrafted::cmake»</text><text fill="#000000" font-family="sans-serif" font-size="14" lengthAdjust="spacing" textLength="79" x="1996.5" y="600.1982">CMakeLists</text><line style="stroke:#181818;stroke-width:0.5;" x1="1844" x2="2202" y1="608.5" y2="608.5"/><line style="stroke:#181818;stroke-width:0.5;" x1="1844" x2="2202" y1="616.5" y2="616.5"/></g><line style="stroke:#181818;stroke-width:1.0;stroke-dasharray:7.0,7.0;" x1="917.5" x2="917.5" y1="112.7969" y2="132.7969"/><line style="stroke:#181818;stroke-width:1.0;" x1="198.5" x2="198.5" y1="112.7969" y2="132.7969"/><polygon fill="#FFFFFF" points="198.5,112.7969,191.5,131.7969,205.5,131.7969,198.5,112.7969" style="stroke:#181818;stroke-width:1.0;"/><line style="stroke:#181818;stroke-width:1.0;" x1="556.5" x2="556.5" y1="112.7969" y2="132.7969"/><polygon fill="#FFFFFF" points="556.5,112.7969,549.5,131.7969,563.5,131.7969,556.5,112.7969" style="stroke:#181818;stroke-width:1.0;"/><!--MD5=[dac6d898ba39c5b9b2717c6d8c4aa0b4]
@startuml
!pragma layout elk
set namespaceSeparator ::
note as N1
Houses classes common to all transformations, in the transform tracing
domain.

UML representation:

\image html dogen.tracing/modeling/dogen.tracing.svg
end note

class tracer <<dogen::handcrafted::typeable, dogen::pretty_printable>> #FFFACD {
    +{field} backend boost::shared_ptr<backend>
}

class metrics <<dogen::untestable>> #ED8181 {
    +{field} transform_id std::string
    +{field} model_id std::string
    +{field} guid std::string
    +{field} start unsigned long
    +{field} end unsigned long
    +{field} children std::list<boost::shared_ptr<metrics>>
}

class metrics_builder <<dogen::handcrafted::typeable>> #FFFACD {
}

class metrics_printer <<dogen::handcrafted::typeable>> #FFFACD {
}

class tracing_error <<masd::exception>> #E8C2F8 {
}

note top of tracing_error
An error occurred when trying to generate tracing data.
end note

class scoped_tracer <<dogen::handcrafted::typeable>> #FFFACD {
}

class references_printer <<dogen::handcrafted::typeable>> #FFFACD {
}

class backend <<dogen::handcrafted::typeable, dogen::pretty_printable>> #FFFACD {
}

class file_backend <<dogen::handcrafted::typeable, dogen::pretty_printable>> #FFFACD {
}

backend <|- - file_backend
class backend_factory_registrar <<dogen::handcrafted::typeable>> #FFFACD {
    +{field} backend_factories std::unordered_map<tracing_backend, boost::shared_ptr<backend_factory>>
}

class registrar_error <<masd::exception>> #E8C2F8 {
}

class backend_factory <<dogen::handcrafted::typeable::header_only>> #FFFACD {
}

class file_backend_factory <<dogen::handcrafted::typeable>> #FFFACD {
}

backend_factory <|- - file_backend_factory
class initializer <<dogen::handcrafted::typeable>> #FFFACD {
}

class main <<masd::entry_point, dogen::untypable>> #DDA9F3 {
}

class CMakeLists <<masd::build::cmakelists, dogen::handcrafted::cmake>> #99CB99 {
}

@enduml

PlantUML version 1.2022.9(Tue Sep 27 17:10:06 BST 2022)
(GPL source distribution)
Java Runtime: OpenJDK Runtime Environment
JVM: OpenJDK 64-Bit Server VM
Default Encoding: UTF-8
Language: en
Country: GB
--></g></svg>