<?xml version="1.0" encoding="UTF-8" standalone="no"?><svg xmlns="http://www.w3.org/2000/svg" xmlns:xlink="http://www.w3.org/1999/xlink" contentScriptType="application/ecmascript" contentStyleType="text/css" height="504px" preserveAspectRatio="none" style="width:2262px;height:504px;" version="1.1" viewBox="0 0 2262 504" width="2262px" zoomAndPan="magnify"><defs><filter height="300%" id="f527v4gkkuvnz" width="300%" x="-1" y="-1"><feGaussianBlur result="blurOut" stdDeviation="2.0"/><feColorMatrix in="blurOut" result="blurOut2" type="matrix" values="0 0 0 0 0 0 0 0 0 0 0 0 0 0 0 0 0 0 .4 0"/><feOffset dx="4.0" dy="4.0" in="blurOut2" result="blurOut3"/><feBlend in="SourceGraphic" in2="blurOut3" mode="normal"/></filter></defs><g><path d="M132.5,46 L132.5,101.3984 L458.5,101.3984 L458.5,56 L448.5,46 L132.5,46 " fill="#FBFB77" filter="url(#f527v4gkkuvnz)" style="stroke: #A80036; stroke-width: 1.0;"/><path d="M448.5,46 L448.5,56 L458.5,56 L448.5,46 " fill="#FBFB77" style="stroke: #A80036; stroke-width: 1.0;"/><text fill="#000000" font-family="sans-serif" font-size="13" lengthAdjust="spacingAndGlyphs" textLength="0" x="142.5" y="63.0669"/><text fill="#000000" font-family="sans-serif" font-size="13" lengthAdjust="spacingAndGlyphs" textLength="305" x="138.5" y="78.1997">Houses classes common to all transformations.</text><text fill="#000000" font-family="sans-serif" font-size="13" lengthAdjust="spacingAndGlyphs" textLength="0" x="142.5" y="93.3325"/><!--MD5=[db14d85f9facaa591f9fc719a65607f4]
class tracer--><rect fill="#FFFACD" filter="url(#f527v4gkkuvnz)" height="66.7422" id="tracer" style="stroke: #A80036; stroke-width: 1.5;" width="386" x="493.5" y="40"/><rect fill="#FFFACD" height="37.9375" style="stroke: #A80036; stroke-width: 1.5;" width="386" x="493.5" y="40"/><ellipse cx="508.5" cy="58.9688" fill="#ADD1B2" rx="11" ry="11" style="stroke: #A80036; stroke-width: 1.0;"/><path d="M511.4688,64.6094 Q510.8906,64.9063 510.25,65.0547 Q509.6094,65.2031 508.9063,65.2031 Q506.4063,65.2031 505.0859,63.5547 Q503.7656,61.9063 503.7656,58.7813 Q503.7656,55.6563 505.0859,54 Q506.4063,52.3438 508.9063,52.3438 Q509.6094,52.3438 510.2578,52.5 Q510.9063,52.6563 511.4688,52.9531 L511.4688,55.6719 Q510.8438,55.0938 510.25,54.8203 Q509.6563,54.5469 509.0313,54.5469 Q507.6875,54.5469 507,55.6172 Q506.3125,56.6875 506.3125,58.7813 Q506.3125,60.875 507,61.9453 Q507.6875,63.0156 509.0313,63.0156 Q509.6563,63.0156 510.25,62.7422 Q510.8438,62.4688 511.4688,61.8906 L511.4688,64.6094 Z "/><text fill="#000000" font-family="sans-serif" font-size="12" font-style="italic" lengthAdjust="spacingAndGlyphs" textLength="358" x="520.5" y="56.1387">«dogen::handcrafted::typeable, dogen::pretty_printable»</text><text fill="#000000" font-family="sans-serif" font-size="12" lengthAdjust="spacingAndGlyphs" textLength="38" x="680.5" y="70.1074">tracer</text><line style="stroke: #A80036; stroke-width: 1.5;" x1="494.5" x2="878.5" y1="77.9375" y2="77.9375"/><ellipse cx="504.5" cy="88.9375" fill="none" rx="3" ry="3" style="stroke: #038048; stroke-width: 1.0;"/><text fill="#000000" font-family="sans-serif" font-size="11" lengthAdjust="spacingAndGlyphs" textLength="218" x="513.5" y="92.1479">backend boost::shared_ptr&lt;backend&gt;</text><line style="stroke: #A80036; stroke-width: 1.5;" x1="494.5" x2="878.5" y1="98.7422" y2="98.7422"/><!--MD5=[4604a5c0aa4f6696b3bab992d4743b64]
class metrics--><rect fill="#ED8181" filter="url(#f527v4gkkuvnz)" height="130.7656" id="metrics" style="stroke: #A80036; stroke-width: 1.5;" width="299" x="915" y="8"/><rect fill="#ED8181" height="37.9375" style="stroke: #A80036; stroke-width: 1.5;" width="299" x="915" y="8"/><ellipse cx="997.75" cy="26.9688" fill="#ADD1B2" rx="11" ry="11" style="stroke: #A80036; stroke-width: 1.0;"/><path d="M1000.7188,32.6094 Q1000.1406,32.9063 999.5,33.0547 Q998.8594,33.2031 998.1563,33.2031 Q995.6563,33.2031 994.3359,31.5547 Q993.0156,29.9063 993.0156,26.7813 Q993.0156,23.6563 994.3359,22 Q995.6563,20.3438 998.1563,20.3438 Q998.8594,20.3438 999.5078,20.5 Q1000.1563,20.6563 1000.7188,20.9531 L1000.7188,23.6719 Q1000.0938,23.0938 999.5,22.8203 Q998.9063,22.5469 998.2813,22.5469 Q996.9375,22.5469 996.25,23.6172 Q995.5625,24.6875 995.5625,26.7813 Q995.5625,28.875 996.25,29.9453 Q996.9375,31.0156 998.2813,31.0156 Q998.9063,31.0156 999.5,30.7422 Q1000.0938,30.4688 1000.7188,29.8906 L1000.7188,32.6094 Z "/><text fill="#000000" font-family="sans-serif" font-size="12" font-style="italic" lengthAdjust="spacingAndGlyphs" textLength="129" x="1016.25" y="24.1387">«dogen::untestable»</text><text fill="#000000" font-family="sans-serif" font-size="12" lengthAdjust="spacingAndGlyphs" textLength="46" x="1057.75" y="38.1074">metrics</text><line style="stroke: #A80036; stroke-width: 1.5;" x1="916" x2="1213" y1="45.9375" y2="45.9375"/><ellipse cx="926" cy="56.9375" fill="none" rx="3" ry="3" style="stroke: #038048; stroke-width: 1.0;"/><text fill="#000000" font-family="sans-serif" font-size="11" lengthAdjust="spacingAndGlyphs" textLength="136" x="935" y="60.1479">transform_id std::string</text><ellipse cx="926" cy="69.7422" fill="none" rx="3" ry="3" style="stroke: #038048; stroke-width: 1.0;"/><text fill="#000000" font-family="sans-serif" font-size="11" lengthAdjust="spacingAndGlyphs" textLength="114" x="935" y="72.9526">model_id std::string</text><ellipse cx="926" cy="82.5469" fill="none" rx="3" ry="3" style="stroke: #038048; stroke-width: 1.0;"/><text fill="#000000" font-family="sans-serif" font-size="11" lengthAdjust="spacingAndGlyphs" textLength="87" x="935" y="85.7573">guid std::string</text><ellipse cx="926" cy="95.3516" fill="none" rx="3" ry="3" style="stroke: #038048; stroke-width: 1.0;"/><text fill="#000000" font-family="sans-serif" font-size="11" lengthAdjust="spacingAndGlyphs" textLength="111" x="935" y="98.562">start unsigned long</text><ellipse cx="926" cy="108.1563" fill="none" rx="3" ry="3" style="stroke: #038048; stroke-width: 1.0;"/><text fill="#000000" font-family="sans-serif" font-size="11" lengthAdjust="spacingAndGlyphs" textLength="105" x="935" y="111.3667">end unsigned long</text><ellipse cx="926" cy="120.9609" fill="none" rx="3" ry="3" style="stroke: #038048; stroke-width: 1.0;"/><text fill="#000000" font-family="sans-serif" font-size="11" lengthAdjust="spacingAndGlyphs" textLength="273" x="935" y="124.1714">children std::list&lt;boost::shared_ptr&lt;metrics&gt;&gt;</text><line style="stroke: #A80036; stroke-width: 1.5;" x1="916" x2="1213" y1="130.7656" y2="130.7656"/><!--MD5=[f16d5dfe89f9b25229add2328b2ef56a]
class metrics_builder--><rect fill="#FFFACD" filter="url(#f527v4gkkuvnz)" height="53.9375" id="metrics_builder" style="stroke: #A80036; stroke-width: 1.5;" width="230" x="1249.5" y="46.5"/><rect fill="#FFFACD" height="37.9375" style="stroke: #A80036; stroke-width: 1.5;" width="230" x="1249.5" y="46.5"/><ellipse cx="1264.5" cy="65.4688" fill="#ADD1B2" rx="11" ry="11" style="stroke: #A80036; stroke-width: 1.0;"/><path d="M1267.4688,71.1094 Q1266.8906,71.4063 1266.25,71.5547 Q1265.6094,71.7031 1264.9063,71.7031 Q1262.4063,71.7031 1261.0859,70.0547 Q1259.7656,68.4063 1259.7656,65.2813 Q1259.7656,62.1563 1261.0859,60.5 Q1262.4063,58.8438 1264.9063,58.8438 Q1265.6094,58.8438 1266.2578,59 Q1266.9063,59.1563 1267.4688,59.4531 L1267.4688,62.1719 Q1266.8438,61.5938 1266.25,61.3203 Q1265.6563,61.0469 1265.0313,61.0469 Q1263.6875,61.0469 1263,62.1172 Q1262.3125,63.1875 1262.3125,65.2813 Q1262.3125,67.375 1263,68.4453 Q1263.6875,69.5156 1265.0313,69.5156 Q1265.6563,69.5156 1266.25,69.2422 Q1266.8438,68.9688 1267.4688,68.3906 L1267.4688,71.1094 Z "/><text fill="#000000" font-family="sans-serif" font-size="12" font-style="italic" lengthAdjust="spacingAndGlyphs" textLength="202" x="1276.5" y="62.6387">«dogen::handcrafted::typeable»</text><text fill="#000000" font-family="sans-serif" font-size="12" lengthAdjust="spacingAndGlyphs" textLength="95" x="1330" y="76.6074">metrics_builder</text><line style="stroke: #A80036; stroke-width: 1.5;" x1="1250.5" x2="1478.5" y1="84.4375" y2="84.4375"/><line style="stroke: #A80036; stroke-width: 1.5;" x1="1250.5" x2="1478.5" y1="92.4375" y2="92.4375"/><!--MD5=[a0321f498e31c01f78af3f75a6091be2]
class metrics_printer--><rect fill="#FFFACD" filter="url(#f527v4gkkuvnz)" height="53.9375" id="metrics_printer" style="stroke: #A80036; stroke-width: 1.5;" width="230" x="180.5" y="199"/><rect fill="#FFFACD" height="37.9375" style="stroke: #A80036; stroke-width: 1.5;" width="230" x="180.5" y="199"/><ellipse cx="195.5" cy="217.9688" fill="#ADD1B2" rx="11" ry="11" style="stroke: #A80036; stroke-width: 1.0;"/><path d="M198.4688,223.6094 Q197.8906,223.9063 197.25,224.0547 Q196.6094,224.2031 195.9063,224.2031 Q193.4063,224.2031 192.0859,222.5547 Q190.7656,220.9063 190.7656,217.7813 Q190.7656,214.6563 192.0859,213 Q193.4063,211.3438 195.9063,211.3438 Q196.6094,211.3438 197.2578,211.5 Q197.9063,211.6563 198.4688,211.9531 L198.4688,214.6719 Q197.8438,214.0938 197.25,213.8203 Q196.6563,213.5469 196.0313,213.5469 Q194.6875,213.5469 194,214.6172 Q193.3125,215.6875 193.3125,217.7813 Q193.3125,219.875 194,220.9453 Q194.6875,222.0156 196.0313,222.0156 Q196.6563,222.0156 197.25,221.7422 Q197.8438,221.4688 198.4688,220.8906 L198.4688,223.6094 Z "/><text fill="#000000" font-family="sans-serif" font-size="12" font-style="italic" lengthAdjust="spacingAndGlyphs" textLength="202" x="207.5" y="215.1387">«dogen::handcrafted::typeable»</text><text fill="#000000" font-family="sans-serif" font-size="12" lengthAdjust="spacingAndGlyphs" textLength="94" x="261.5" y="229.1074">metrics_printer</text><line style="stroke: #A80036; stroke-width: 1.5;" x1="181.5" x2="409.5" y1="236.9375" y2="236.9375"/><line style="stroke: #A80036; stroke-width: 1.5;" x1="181.5" x2="409.5" y1="244.9375" y2="244.9375"/><!--MD5=[d474be06505ec909b849f40792534f3d]
class tracing_error--><rect fill="#E8C2F8" filter="url(#f527v4gkkuvnz)" height="53.9375" id="tracing_error" style="stroke: #A80036; stroke-width: 1.5;" width="145" x="446" y="199"/><rect fill="#E8C2F8" height="37.9375" style="stroke: #A80036; stroke-width: 1.5;" width="145" x="446" y="199"/><ellipse cx="461" cy="217.9688" fill="#ADD1B2" rx="11" ry="11" style="stroke: #A80036; stroke-width: 1.0;"/><path d="M463.9688,223.6094 Q463.3906,223.9063 462.75,224.0547 Q462.1094,224.2031 461.4063,224.2031 Q458.9063,224.2031 457.5859,222.5547 Q456.2656,220.9063 456.2656,217.7813 Q456.2656,214.6563 457.5859,213 Q458.9063,211.3438 461.4063,211.3438 Q462.1094,211.3438 462.7578,211.5 Q463.4063,211.6563 463.9688,211.9531 L463.9688,214.6719 Q463.3438,214.0938 462.75,213.8203 Q462.1563,213.5469 461.5313,213.5469 Q460.1875,213.5469 459.5,214.6172 Q458.8125,215.6875 458.8125,217.7813 Q458.8125,219.875 459.5,220.9453 Q460.1875,222.0156 461.5313,222.0156 Q462.1563,222.0156 462.75,221.7422 Q463.3438,221.4688 463.9688,220.8906 L463.9688,223.6094 Z "/><text fill="#000000" font-family="sans-serif" font-size="12" font-style="italic" lengthAdjust="spacingAndGlyphs" textLength="117" x="473" y="215.1387">«masd::exception»</text><text fill="#000000" font-family="sans-serif" font-size="12" lengthAdjust="spacingAndGlyphs" textLength="81" x="491" y="229.1074">tracing_error</text><line style="stroke: #A80036; stroke-width: 1.5;" x1="447" x2="590" y1="236.9375" y2="236.9375"/><line style="stroke: #A80036; stroke-width: 1.5;" x1="447" x2="590" y1="244.9375" y2="244.9375"/><!--MD5=[a1eadb59f5e9b2e591c1e6d5145d8899]
class scoped_tracer--><rect fill="#FFFACD" filter="url(#f527v4gkkuvnz)" height="53.9375" id="scoped_tracer" style="stroke: #A80036; stroke-width: 1.5;" width="230" x="626.5" y="199"/><rect fill="#FFFACD" height="37.9375" style="stroke: #A80036; stroke-width: 1.5;" width="230" x="626.5" y="199"/><ellipse cx="641.5" cy="217.9688" fill="#ADD1B2" rx="11" ry="11" style="stroke: #A80036; stroke-width: 1.0;"/><path d="M644.4688,223.6094 Q643.8906,223.9063 643.25,224.0547 Q642.6094,224.2031 641.9063,224.2031 Q639.4063,224.2031 638.0859,222.5547 Q636.7656,220.9063 636.7656,217.7813 Q636.7656,214.6563 638.0859,213 Q639.4063,211.3438 641.9063,211.3438 Q642.6094,211.3438 643.2578,211.5 Q643.9063,211.6563 644.4688,211.9531 L644.4688,214.6719 Q643.8438,214.0938 643.25,213.8203 Q642.6563,213.5469 642.0313,213.5469 Q640.6875,213.5469 640,214.6172 Q639.3125,215.6875 639.3125,217.7813 Q639.3125,219.875 640,220.9453 Q640.6875,222.0156 642.0313,222.0156 Q642.6563,222.0156 643.25,221.7422 Q643.8438,221.4688 644.4688,220.8906 L644.4688,223.6094 Z "/><text fill="#000000" font-family="sans-serif" font-size="12" font-style="italic" lengthAdjust="spacingAndGlyphs" textLength="202" x="653.5" y="215.1387">«dogen::handcrafted::typeable»</text><text fill="#000000" font-family="sans-serif" font-size="12" lengthAdjust="spacingAndGlyphs" textLength="90" x="709.5" y="229.1074">scoped_tracer</text><line style="stroke: #A80036; stroke-width: 1.5;" x1="627.5" x2="855.5" y1="236.9375" y2="236.9375"/><line style="stroke: #A80036; stroke-width: 1.5;" x1="627.5" x2="855.5" y1="244.9375" y2="244.9375"/><!--MD5=[7bfc384eafaeb69e61ec7962bd84b75f]
class references_printer--><rect fill="#FFFACD" filter="url(#f527v4gkkuvnz)" height="53.9375" id="references_printer" style="stroke: #A80036; stroke-width: 1.5;" width="230" x="891.5" y="199"/><rect fill="#FFFACD" height="37.9375" style="stroke: #A80036; stroke-width: 1.5;" width="230" x="891.5" y="199"/><ellipse cx="906.5" cy="217.9688" fill="#ADD1B2" rx="11" ry="11" style="stroke: #A80036; stroke-width: 1.0;"/><path d="M909.4688,223.6094 Q908.8906,223.9063 908.25,224.0547 Q907.6094,224.2031 906.9063,224.2031 Q904.4063,224.2031 903.0859,222.5547 Q901.7656,220.9063 901.7656,217.7813 Q901.7656,214.6563 903.0859,213 Q904.4063,211.3438 906.9063,211.3438 Q907.6094,211.3438 908.2578,211.5 Q908.9063,211.6563 909.4688,211.9531 L909.4688,214.6719 Q908.8438,214.0938 908.25,213.8203 Q907.6563,213.5469 907.0313,213.5469 Q905.6875,213.5469 905,214.6172 Q904.3125,215.6875 904.3125,217.7813 Q904.3125,219.875 905,220.9453 Q905.6875,222.0156 907.0313,222.0156 Q907.6563,222.0156 908.25,221.7422 Q908.8438,221.4688 909.4688,220.8906 L909.4688,223.6094 Z "/><text fill="#000000" font-family="sans-serif" font-size="12" font-style="italic" lengthAdjust="spacingAndGlyphs" textLength="202" x="918.5" y="215.1387">«dogen::handcrafted::typeable»</text><text fill="#000000" font-family="sans-serif" font-size="12" lengthAdjust="spacingAndGlyphs" textLength="116" x="961.5" y="229.1074">references_printer</text><line style="stroke: #A80036; stroke-width: 1.5;" x1="892.5" x2="1120.5" y1="236.9375" y2="236.9375"/><line style="stroke: #A80036; stroke-width: 1.5;" x1="892.5" x2="1120.5" y1="244.9375" y2="244.9375"/><!--MD5=[a090a731b91a147e463886be75cc2071]
class backend--><rect fill="#FFFACD" filter="url(#f527v4gkkuvnz)" height="53.9375" id="backend" style="stroke: #A80036; stroke-width: 1.5;" width="386" x="1514.5" y="46.5"/><rect fill="#FFFACD" height="37.9375" style="stroke: #A80036; stroke-width: 1.5;" width="386" x="1514.5" y="46.5"/><ellipse cx="1529.5" cy="65.4688" fill="#ADD1B2" rx="11" ry="11" style="stroke: #A80036; stroke-width: 1.0;"/><path d="M1532.4688,71.1094 Q1531.8906,71.4063 1531.25,71.5547 Q1530.6094,71.7031 1529.9063,71.7031 Q1527.4063,71.7031 1526.0859,70.0547 Q1524.7656,68.4063 1524.7656,65.2813 Q1524.7656,62.1563 1526.0859,60.5 Q1527.4063,58.8438 1529.9063,58.8438 Q1530.6094,58.8438 1531.2578,59 Q1531.9063,59.1563 1532.4688,59.4531 L1532.4688,62.1719 Q1531.8438,61.5938 1531.25,61.3203 Q1530.6563,61.0469 1530.0313,61.0469 Q1528.6875,61.0469 1528,62.1172 Q1527.3125,63.1875 1527.3125,65.2813 Q1527.3125,67.375 1528,68.4453 Q1528.6875,69.5156 1530.0313,69.5156 Q1530.6563,69.5156 1531.25,69.2422 Q1531.8438,68.9688 1532.4688,68.3906 L1532.4688,71.1094 Z "/><text fill="#000000" font-family="sans-serif" font-size="12" font-style="italic" lengthAdjust="spacingAndGlyphs" textLength="358" x="1541.5" y="62.6387">«dogen::handcrafted::typeable, dogen::pretty_printable»</text><text fill="#000000" font-family="sans-serif" font-size="12" lengthAdjust="spacingAndGlyphs" textLength="54" x="1693.5" y="76.6074">backend</text><line style="stroke: #A80036; stroke-width: 1.5;" x1="1515.5" x2="1899.5" y1="84.4375" y2="84.4375"/><line style="stroke: #A80036; stroke-width: 1.5;" x1="1515.5" x2="1899.5" y1="92.4375" y2="92.4375"/><!--MD5=[01161fabbbee70e6be97358f80cc36fc]
class file_backend--><rect fill="#FFFACD" filter="url(#f527v4gkkuvnz)" height="53.9375" id="file_backend" style="stroke: #A80036; stroke-width: 1.5;" width="386" x="1514.5" y="199"/><rect fill="#FFFACD" height="37.9375" style="stroke: #A80036; stroke-width: 1.5;" width="386" x="1514.5" y="199"/><ellipse cx="1529.5" cy="217.9688" fill="#ADD1B2" rx="11" ry="11" style="stroke: #A80036; stroke-width: 1.0;"/><path d="M1532.4688,223.6094 Q1531.8906,223.9063 1531.25,224.0547 Q1530.6094,224.2031 1529.9063,224.2031 Q1527.4063,224.2031 1526.0859,222.5547 Q1524.7656,220.9063 1524.7656,217.7813 Q1524.7656,214.6563 1526.0859,213 Q1527.4063,211.3438 1529.9063,211.3438 Q1530.6094,211.3438 1531.2578,211.5 Q1531.9063,211.6563 1532.4688,211.9531 L1532.4688,214.6719 Q1531.8438,214.0938 1531.25,213.8203 Q1530.6563,213.5469 1530.0313,213.5469 Q1528.6875,213.5469 1528,214.6172 Q1527.3125,215.6875 1527.3125,217.7813 Q1527.3125,219.875 1528,220.9453 Q1528.6875,222.0156 1530.0313,222.0156 Q1530.6563,222.0156 1531.25,221.7422 Q1531.8438,221.4688 1532.4688,220.8906 L1532.4688,223.6094 Z "/><text fill="#000000" font-family="sans-serif" font-size="12" font-style="italic" lengthAdjust="spacingAndGlyphs" textLength="358" x="1541.5" y="215.1387">«dogen::handcrafted::typeable, dogen::pretty_printable»</text><text fill="#000000" font-family="sans-serif" font-size="12" lengthAdjust="spacingAndGlyphs" textLength="78" x="1681.5" y="229.1074">file_backend</text><line style="stroke: #A80036; stroke-width: 1.5;" x1="1515.5" x2="1899.5" y1="236.9375" y2="236.9375"/><line style="stroke: #A80036; stroke-width: 1.5;" x1="1515.5" x2="1899.5" y1="244.9375" y2="244.9375"/><!--MD5=[d524613c4436b85785baa31fb15d8676]
class backend_factory_registrar--><rect fill="#FFFACD" filter="url(#f527v4gkkuvnz)" height="66.7422" id="backend_factory_registrar" style="stroke: #A80036; stroke-width: 1.5;" width="579" x="6" y="313"/><rect fill="#FFFACD" height="37.9375" style="stroke: #A80036; stroke-width: 1.5;" width="579" x="6" y="313"/><ellipse cx="192.25" cy="331.9688" fill="#ADD1B2" rx="11" ry="11" style="stroke: #A80036; stroke-width: 1.0;"/><path d="M195.2188,337.6094 Q194.6406,337.9063 194,338.0547 Q193.3594,338.2031 192.6563,338.2031 Q190.1563,338.2031 188.8359,336.5547 Q187.5156,334.9063 187.5156,331.7813 Q187.5156,328.6563 188.8359,327 Q190.1563,325.3438 192.6563,325.3438 Q193.3594,325.3438 194.0078,325.5 Q194.6563,325.6563 195.2188,325.9531 L195.2188,328.6719 Q194.5938,328.0938 194,327.8203 Q193.4063,327.5469 192.7813,327.5469 Q191.4375,327.5469 190.75,328.6172 Q190.0625,329.6875 190.0625,331.7813 Q190.0625,333.875 190.75,334.9453 Q191.4375,336.0156 192.7813,336.0156 Q193.4063,336.0156 194,335.7422 Q194.5938,335.4688 195.2188,334.8906 L195.2188,337.6094 Z "/><text fill="#000000" font-family="sans-serif" font-size="12" font-style="italic" lengthAdjust="spacingAndGlyphs" textLength="202" x="210.75" y="329.1387">«dogen::handcrafted::typeable»</text><text fill="#000000" font-family="sans-serif" font-size="12" lengthAdjust="spacingAndGlyphs" textLength="163" x="230.25" y="343.1074">backend_factory_registrar</text><line style="stroke: #A80036; stroke-width: 1.5;" x1="7" x2="584" y1="350.9375" y2="350.9375"/><ellipse cx="17" cy="361.9375" fill="none" rx="3" ry="3" style="stroke: #038048; stroke-width: 1.0;"/><text fill="#000000" font-family="sans-serif" font-size="11" lengthAdjust="spacingAndGlyphs" textLength="553" x="26" y="365.1479">backend_factories std::unordered_map&lt;tracing_backend, boost::shared_ptr&lt;backend_factory&gt;&gt;</text><line style="stroke: #A80036; stroke-width: 1.5;" x1="7" x2="584" y1="371.7422" y2="371.7422"/><!--MD5=[16791588a3f9a6423d02eb0079812554]
class registrar_error--><rect fill="#E8C2F8" filter="url(#f527v4gkkuvnz)" height="53.9375" id="registrar_error" style="stroke: #A80036; stroke-width: 1.5;" width="145" x="620" y="319.5"/><rect fill="#E8C2F8" height="37.9375" style="stroke: #A80036; stroke-width: 1.5;" width="145" x="620" y="319.5"/><ellipse cx="635" cy="338.4688" fill="#ADD1B2" rx="11" ry="11" style="stroke: #A80036; stroke-width: 1.0;"/><path d="M637.9688,344.1094 Q637.3906,344.4063 636.75,344.5547 Q636.1094,344.7031 635.4063,344.7031 Q632.9063,344.7031 631.5859,343.0547 Q630.2656,341.4063 630.2656,338.2813 Q630.2656,335.1563 631.5859,333.5 Q632.9063,331.8438 635.4063,331.8438 Q636.1094,331.8438 636.7578,332 Q637.4063,332.1563 637.9688,332.4531 L637.9688,335.1719 Q637.3438,334.5938 636.75,334.3203 Q636.1563,334.0469 635.5313,334.0469 Q634.1875,334.0469 633.5,335.1172 Q632.8125,336.1875 632.8125,338.2813 Q632.8125,340.375 633.5,341.4453 Q634.1875,342.5156 635.5313,342.5156 Q636.1563,342.5156 636.75,342.2422 Q637.3438,341.9688 637.9688,341.3906 L637.9688,344.1094 Z "/><text fill="#000000" font-family="sans-serif" font-size="12" font-style="italic" lengthAdjust="spacingAndGlyphs" textLength="117" x="647" y="335.6387">«masd::exception»</text><text fill="#000000" font-family="sans-serif" font-size="12" lengthAdjust="spacingAndGlyphs" textLength="91" x="660" y="349.6074">registrar_error</text><line style="stroke: #A80036; stroke-width: 1.5;" x1="621" x2="764" y1="357.4375" y2="357.4375"/><line style="stroke: #A80036; stroke-width: 1.5;" x1="621" x2="764" y1="365.4375" y2="365.4375"/><!--MD5=[380f2d53f9f425092d878b711630915b]
class backend_factory--><rect fill="#FFFACD" filter="url(#f527v4gkkuvnz)" height="53.9375" id="backend_factory" style="stroke: #A80036; stroke-width: 1.5;" width="315" x="1936" y="46.5"/><rect fill="#FFFACD" height="37.9375" style="stroke: #A80036; stroke-width: 1.5;" width="315" x="1936" y="46.5"/><ellipse cx="1951" cy="65.4688" fill="#ADD1B2" rx="11" ry="11" style="stroke: #A80036; stroke-width: 1.0;"/><path d="M1953.9688,71.1094 Q1953.3906,71.4063 1952.75,71.5547 Q1952.1094,71.7031 1951.4063,71.7031 Q1948.9063,71.7031 1947.5859,70.0547 Q1946.2656,68.4063 1946.2656,65.2813 Q1946.2656,62.1563 1947.5859,60.5 Q1948.9063,58.8438 1951.4063,58.8438 Q1952.1094,58.8438 1952.7578,59 Q1953.4063,59.1563 1953.9688,59.4531 L1953.9688,62.1719 Q1953.3438,61.5938 1952.75,61.3203 Q1952.1563,61.0469 1951.5313,61.0469 Q1950.1875,61.0469 1949.5,62.1172 Q1948.8125,63.1875 1948.8125,65.2813 Q1948.8125,67.375 1949.5,68.4453 Q1950.1875,69.5156 1951.5313,69.5156 Q1952.1563,69.5156 1952.75,69.2422 Q1953.3438,68.9688 1953.9688,68.3906 L1953.9688,71.1094 Z "/><text fill="#000000" font-family="sans-serif" font-size="12" font-style="italic" lengthAdjust="spacingAndGlyphs" textLength="287" x="1963" y="62.6387">«dogen::handcrafted::typeable::header_only»</text><text fill="#000000" font-family="sans-serif" font-size="12" lengthAdjust="spacingAndGlyphs" textLength="103" x="2055" y="76.6074">backend_factory</text><line style="stroke: #A80036; stroke-width: 1.5;" x1="1937" x2="2250" y1="84.4375" y2="84.4375"/><line style="stroke: #A80036; stroke-width: 1.5;" x1="1937" x2="2250" y1="92.4375" y2="92.4375"/><!--MD5=[ea1cba3cfb774dab2e48b89932cf097d]
class file_backend_factory--><rect fill="#FFFACD" filter="url(#f527v4gkkuvnz)" height="53.9375" id="file_backend_factory" style="stroke: #A80036; stroke-width: 1.5;" width="230" x="1978.5" y="199"/><rect fill="#FFFACD" height="37.9375" style="stroke: #A80036; stroke-width: 1.5;" width="230" x="1978.5" y="199"/><ellipse cx="1993.5" cy="217.9688" fill="#ADD1B2" rx="11" ry="11" style="stroke: #A80036; stroke-width: 1.0;"/><path d="M1996.4688,223.6094 Q1995.8906,223.9063 1995.25,224.0547 Q1994.6094,224.2031 1993.9063,224.2031 Q1991.4063,224.2031 1990.0859,222.5547 Q1988.7656,220.9063 1988.7656,217.7813 Q1988.7656,214.6563 1990.0859,213 Q1991.4063,211.3438 1993.9063,211.3438 Q1994.6094,211.3438 1995.2578,211.5 Q1995.9063,211.6563 1996.4688,211.9531 L1996.4688,214.6719 Q1995.8438,214.0938 1995.25,213.8203 Q1994.6563,213.5469 1994.0313,213.5469 Q1992.6875,213.5469 1992,214.6172 Q1991.3125,215.6875 1991.3125,217.7813 Q1991.3125,219.875 1992,220.9453 Q1992.6875,222.0156 1994.0313,222.0156 Q1994.6563,222.0156 1995.25,221.7422 Q1995.8438,221.4688 1996.4688,220.8906 L1996.4688,223.6094 Z "/><text fill="#000000" font-family="sans-serif" font-size="12" font-style="italic" lengthAdjust="spacingAndGlyphs" textLength="202" x="2005.5" y="215.1387">«dogen::handcrafted::typeable»</text><text fill="#000000" font-family="sans-serif" font-size="12" lengthAdjust="spacingAndGlyphs" textLength="127" x="2043" y="229.1074">file_backend_factory</text><line style="stroke: #A80036; stroke-width: 1.5;" x1="1979.5" x2="2207.5" y1="236.9375" y2="236.9375"/><line style="stroke: #A80036; stroke-width: 1.5;" x1="1979.5" x2="2207.5" y1="244.9375" y2="244.9375"/><!--MD5=[d54e5852ecfe164bbba509d3a9352ed8]
class initializer--><rect fill="#FFFACD" filter="url(#f527v4gkkuvnz)" height="53.9375" id="initializer" style="stroke: #A80036; stroke-width: 1.5;" width="230" x="800.5" y="319.5"/><rect fill="#FFFACD" height="37.9375" style="stroke: #A80036; stroke-width: 1.5;" width="230" x="800.5" y="319.5"/><ellipse cx="815.5" cy="338.4688" fill="#ADD1B2" rx="11" ry="11" style="stroke: #A80036; stroke-width: 1.0;"/><path d="M818.4688,344.1094 Q817.8906,344.4063 817.25,344.5547 Q816.6094,344.7031 815.9063,344.7031 Q813.4063,344.7031 812.0859,343.0547 Q810.7656,341.4063 810.7656,338.2813 Q810.7656,335.1563 812.0859,333.5 Q813.4063,331.8438 815.9063,331.8438 Q816.6094,331.8438 817.2578,332 Q817.9063,332.1563 818.4688,332.4531 L818.4688,335.1719 Q817.8438,334.5938 817.25,334.3203 Q816.6563,334.0469 816.0313,334.0469 Q814.6875,334.0469 814,335.1172 Q813.3125,336.1875 813.3125,338.2813 Q813.3125,340.375 814,341.4453 Q814.6875,342.5156 816.0313,342.5156 Q816.6563,342.5156 817.25,342.2422 Q817.8438,341.9688 818.4688,341.3906 L818.4688,344.1094 Z "/><text fill="#000000" font-family="sans-serif" font-size="12" font-style="italic" lengthAdjust="spacingAndGlyphs" textLength="202" x="827.5" y="335.6387">«dogen::handcrafted::typeable»</text><text fill="#000000" font-family="sans-serif" font-size="12" lengthAdjust="spacingAndGlyphs" textLength="54" x="901.5" y="349.6074">initializer</text><line style="stroke: #A80036; stroke-width: 1.5;" x1="801.5" x2="1029.5" y1="357.4375" y2="357.4375"/><line style="stroke: #A80036; stroke-width: 1.5;" x1="801.5" x2="1029.5" y1="365.4375" y2="365.4375"/><!--MD5=[4520fda4e10d4d791ce48fe025810cd4]
class main--><rect fill="#DDA9F3" filter="url(#f527v4gkkuvnz)" height="53.9375" id="main" style="stroke: #A80036; stroke-width: 1.5;" width="273" x="1066" y="319.5"/><rect fill="#DDA9F3" height="37.9375" style="stroke: #A80036; stroke-width: 1.5;" width="273" x="1066" y="319.5"/><ellipse cx="1081" cy="338.4688" fill="#ADD1B2" rx="11" ry="11" style="stroke: #A80036; stroke-width: 1.0;"/><path d="M1083.9688,344.1094 Q1083.3906,344.4063 1082.75,344.5547 Q1082.1094,344.7031 1081.4063,344.7031 Q1078.9063,344.7031 1077.5859,343.0547 Q1076.2656,341.4063 1076.2656,338.2813 Q1076.2656,335.1563 1077.5859,333.5 Q1078.9063,331.8438 1081.4063,331.8438 Q1082.1094,331.8438 1082.7578,332 Q1083.4063,332.1563 1083.9688,332.4531 L1083.9688,335.1719 Q1083.3438,334.5938 1082.75,334.3203 Q1082.1563,334.0469 1081.5313,334.0469 Q1080.1875,334.0469 1079.5,335.1172 Q1078.8125,336.1875 1078.8125,338.2813 Q1078.8125,340.375 1079.5,341.4453 Q1080.1875,342.5156 1081.5313,342.5156 Q1082.1563,342.5156 1082.75,342.2422 Q1083.3438,341.9688 1083.9688,341.3906 L1083.9688,344.1094 Z "/><text fill="#000000" font-family="sans-serif" font-size="12" font-style="italic" lengthAdjust="spacingAndGlyphs" textLength="245" x="1093" y="335.6387">«masd::entry_point, dogen::untypable»</text><text fill="#000000" font-family="sans-serif" font-size="12" lengthAdjust="spacingAndGlyphs" textLength="30" x="1200.5" y="349.6074">main</text><line style="stroke: #A80036; stroke-width: 1.5;" x1="1067" x2="1338" y1="357.4375" y2="357.4375"/><line style="stroke: #A80036; stroke-width: 1.5;" x1="1067" x2="1338" y1="365.4375" y2="365.4375"/><!--MD5=[ba83386d426114557685538e96aa6f68]
class CMakeLists--><rect fill="#99CB99" filter="url(#f527v4gkkuvnz)" height="53.9375" id="CMakeLists" style="stroke: #A80036; stroke-width: 1.5;" width="367" x="112" y="440"/><rect fill="#99CB99" height="37.9375" style="stroke: #A80036; stroke-width: 1.5;" width="367" x="112" y="440"/><ellipse cx="127" cy="458.9688" fill="#ADD1B2" rx="11" ry="11" style="stroke: #A80036; stroke-width: 1.0;"/><path d="M129.9688,464.6094 Q129.3906,464.9063 128.75,465.0547 Q128.1094,465.2031 127.4063,465.2031 Q124.9063,465.2031 123.5859,463.5547 Q122.2656,461.9063 122.2656,458.7813 Q122.2656,455.6563 123.5859,454 Q124.9063,452.3438 127.4063,452.3438 Q128.1094,452.3438 128.7578,452.5 Q129.4063,452.6563 129.9688,452.9531 L129.9688,455.6719 Q129.3438,455.0938 128.75,454.8203 Q128.1563,454.5469 127.5313,454.5469 Q126.1875,454.5469 125.5,455.6172 Q124.8125,456.6875 124.8125,458.7813 Q124.8125,460.875 125.5,461.9453 Q126.1875,463.0156 127.5313,463.0156 Q128.1563,463.0156 128.75,462.7422 Q129.3438,462.4688 129.9688,461.8906 L129.9688,464.6094 Z "/><text fill="#000000" font-family="sans-serif" font-size="12" font-style="italic" lengthAdjust="spacingAndGlyphs" textLength="339" x="139" y="456.1387">«masd::build::cmakelists, dogen::handcrafted::cmake»</text><text fill="#000000" font-family="sans-serif" font-size="12" lengthAdjust="spacingAndGlyphs" textLength="69" x="274" y="470.1074">CMakeLists</text><line style="stroke: #A80036; stroke-width: 1.5;" x1="113" x2="478" y1="477.9375" y2="477.9375"/><line style="stroke: #A80036; stroke-width: 1.5;" x1="113" x2="478" y1="485.9375" y2="485.9375"/><!--MD5=[e0088094388be214025e11d199a7616f]
reverse link backend to file_backend--><path d="M1707.5,121.08 C1707.5,146.66 1707.5,177.44 1707.5,198.83 " fill="none" id="backend&lt;-file_backend" style="stroke: #A80036; stroke-width: 1.0;"/><polygon fill="none" points="1700.5,120.72,1707.5,100.72,1714.5,120.72,1700.5,120.72" style="stroke: #A80036; stroke-width: 1.0;"/><!--MD5=[b2f00ac79e73d0c2935b9e8ecfdb021f]
reverse link backend_factory to file_backend_factory--><path d="M2093.5,121.08 C2093.5,146.66 2093.5,177.44 2093.5,198.83 " fill="none" id="backend_factory&lt;-file_backend_factory" style="stroke: #A80036; stroke-width: 1.0;"/><polygon fill="none" points="2086.5,120.72,2093.5,100.72,2100.5,120.72,2086.5,120.72" style="stroke: #A80036; stroke-width: 1.0;"/><!--MD5=[4369be315d1820126a1176d3a930006e]
link N1 to tracer--><!--MD5=[c34f450d703f09a703e9b64402a7f12d]
link tracer to metrics--><!--MD5=[3dc8a356470ea760fbb976203b20cfe7]
link metrics to metrics_builder--><!--MD5=[b43caa1a5b528e66bbc696f1d85be331]
link N1 to metrics_printer--><!--MD5=[d07ef4148907a52a06a29a0fc6fa1c5e]
link metrics_printer to tracing_error--><!--MD5=[99fd25163412ffe9f1b95d590883709e]
link tracing_error to scoped_tracer--><!--MD5=[a4a7b919b742a70ac81d06fe4ac4d624]
link scoped_tracer to references_printer--><!--MD5=[382d0f60559617c29a119e190a0fd99b]
link metrics_printer to backend_factory_registrar--><!--MD5=[fb9c276edc565c615fc3390c7c348c86]
link backend_factory_registrar to registrar_error--><!--MD5=[6f6a140f23cd8573651731f0ac14468f]
link registrar_error to initializer--><!--MD5=[5653eca4263751759b7327e12ef7a0aa]
link initializer to main--><!--MD5=[05bfa5f0f088ac298c6bcd43c22276e1]
link backend_factory_registrar to CMakeLists--><!--MD5=[532cfd9ee70534089fdfd43e964613fb]
@startuml
set namespaceSeparator ::
note as N1

Houses classes common to all transformations.

end note

class tracer <<dogen::handcrafted::typeable, dogen::pretty_printable>> #FFFACD {
        +{field} backend boost::shared_ptr<backend>
}

class metrics <<dogen::untestable>> #ED8181 {
        +{field} transform_id std::string
        +{field} model_id std::string
        +{field} guid std::string
        +{field} start unsigned long
        +{field} end unsigned long
        +{field} children std::list<boost::shared_ptr<metrics>>
}

class metrics_builder <<dogen::handcrafted::typeable>> #FFFACD {
}

class metrics_printer <<dogen::handcrafted::typeable>> #FFFACD {
}

class tracing_error <<masd::exception>> #E8C2F8 {
}

class scoped_tracer <<dogen::handcrafted::typeable>> #FFFACD {
}

class references_printer <<dogen::handcrafted::typeable>> #FFFACD {
}

class backend <<dogen::handcrafted::typeable, dogen::pretty_printable>> #FFFACD {
}

class file_backend <<dogen::handcrafted::typeable, dogen::pretty_printable>> #FFFACD {
}

backend <|- - file_backend
class backend_factory_registrar <<dogen::handcrafted::typeable>> #FFFACD {
        +{field} backend_factories std::unordered_map<tracing_backend, boost::shared_ptr<backend_factory>>
}

class registrar_error <<masd::exception>> #E8C2F8 {
}

class backend_factory <<dogen::handcrafted::typeable::header_only>> #FFFACD {
}

class file_backend_factory <<dogen::handcrafted::typeable>> #FFFACD {
}

backend_factory <|- - file_backend_factory
class initializer <<dogen::handcrafted::typeable>> #FFFACD {
}

class main <<masd::entry_point, dogen::untypable>> #DDA9F3 {
}

class CMakeLists <<masd::build::cmakelists, dogen::handcrafted::cmake>> #99CB99 {
}

@enduml

PlantUML version 1.2020.02(Sun Mar 01 10:22:07 GMT 2020)
(GPL source distribution)
Java Runtime: OpenJDK Runtime Environment
JVM: OpenJDK 64-Bit Server VM
Java Version: 1.8.0_212-8u212-b03-2~deb9u1-b03
Operating System: Linux
Default Encoding: UTF-8
Language: en
Country: GB
--></g></svg>