<?xml version="1.0" encoding="UTF-8" standalone="no"?><svg xmlns="http://www.w3.org/2000/svg" xmlns:xlink="http://www.w3.org/1999/xlink" contentStyleType="text/css" height="417px" preserveAspectRatio="none" style="width:2727px;height:417px;background:#FFFFFF;" version="1.1" viewBox="0 0 2727 417" width="2727px" zoomAndPan="magnify"><defs/><g><g id="elem_N1"><path d="M6,33.5 L6,134.2969 L495,134.2969 L495,43.5 L485,33.5 L6,33.5 " fill="#FEFFDD" style="stroke:#181818;stroke-width:0.5;"/><path d="M485,33.5 L485,43.5 L495,43.5 L485,33.5 " fill="#FEFFDD" style="stroke:#181818;stroke-width:1.0;"/><text fill="#000000" font-family="sans-serif" font-size="13" lengthAdjust="spacing" textLength="468" x="12" y="50.5669">Houses classes common to all transformations, in the transform tracing</text><text fill="#000000" font-family="sans-serif" font-size="13" lengthAdjust="spacing" textLength="53" x="12" y="65.6997">domain.</text><text fill="#000000" font-family="sans-serif" font-size="13" lengthAdjust="spacing" textLength="4" x="12" y="80.8325"> </text><text fill="#000000" font-family="sans-serif" font-size="13" lengthAdjust="spacing" textLength="131" x="12" y="95.9653">UML representation:</text><text fill="#000000" font-family="sans-serif" font-size="13" lengthAdjust="spacing" textLength="4" x="12" y="111.0981"> </text><text fill="#000000" font-family="sans-serif" font-size="13" lengthAdjust="spacing" textLength="357" x="12" y="126.231">\image html dogen.tracing/modeling/dogen.tracing.svg</text></g><!--MD5=[db14d85f9facaa591f9fc719a65607f4]
class tracer--><g id="elem_tracer"><rect codeLine="11" fill="#FFFACD" height="72.5625" id="tracer" rx="2.5" ry="2.5" style="stroke:#181818;stroke-width:0.5;" width="373" x="530" y="47.5"/><ellipse cx="545" cy="67.6328" fill="#ADD1B2" rx="11" ry="11" style="stroke:#181818;stroke-width:1.0;"/><path d="M547.9688,73.2734 Q547.3906,73.5703 546.75,73.7188 Q546.1094,73.8672 545.4063,73.8672 Q542.9063,73.8672 541.5859,72.2188 Q540.2656,70.5703 540.2656,67.4453 Q540.2656,64.3203 541.5859,62.6641 Q542.9063,61.0078 545.4063,61.0078 Q546.1094,61.0078 546.7578,61.1641 Q547.4063,61.3203 547.9688,61.6172 L547.9688,64.3359 Q547.3438,63.7578 546.75,63.4844 Q546.1563,63.2109 545.5313,63.2109 Q544.1875,63.2109 543.5,64.2813 Q542.8125,65.3516 542.8125,67.4453 Q542.8125,69.5391 543.5,70.6094 Q544.1875,71.6797 545.5313,71.6797 Q546.1563,71.6797 546.75,71.4063 Q547.3438,71.1328 547.9688,70.5547 L547.9688,73.2734 Z " fill="#000000"/><text fill="#000000" font-family="sans-serif" font-size="12" font-style="italic" lengthAdjust="spacing" textLength="345" x="557" y="63.6387">«dogen::handcrafted::typeable, dogen::pretty_printable»</text><text fill="#000000" font-family="sans-serif" font-size="14" lengthAdjust="spacing" textLength="43" x="708" y="79.4639">tracer</text><line style="stroke:#181818;stroke-width:0.5;" x1="531" x2="902" y1="87.7656" y2="87.7656"/><ellipse cx="541" cy="98.7656" fill="none" rx="3" ry="3" style="stroke:#038048;stroke-width:1.0;"/><text fill="#000000" font-family="sans-serif" font-size="14" lengthAdjust="spacing" textLength="275" x="550" y="104.7607">backend boost::shared_ptr&lt;backend&gt;</text><line style="stroke:#181818;stroke-width:0.5;" x1="531" x2="902" y1="112.0625" y2="112.0625"/></g><!--MD5=[4604a5c0aa4f6696b3bab992d4743b64]
class metrics--><g id="elem_metrics"><rect codeLine="15" fill="#ED8181" height="154.0469" id="metrics" rx="2.5" ry="2.5" style="stroke:#181818;stroke-width:0.5;" width="365" x="938" y="7"/><ellipse cx="1056.25" cy="27.1328" fill="#ADD1B2" rx="11" ry="11" style="stroke:#181818;stroke-width:1.0;"/><path d="M1059.2188,32.7734 Q1058.6406,33.0703 1058,33.2188 Q1057.3594,33.3672 1056.6563,33.3672 Q1054.1563,33.3672 1052.8359,31.7188 Q1051.5156,30.0703 1051.5156,26.9453 Q1051.5156,23.8203 1052.8359,22.1641 Q1054.1563,20.5078 1056.6563,20.5078 Q1057.3594,20.5078 1058.0078,20.6641 Q1058.6563,20.8203 1059.2188,21.1172 L1059.2188,23.8359 Q1058.5938,23.2578 1058,22.9844 Q1057.4063,22.7109 1056.7813,22.7109 Q1055.4375,22.7109 1054.75,23.7813 Q1054.0625,24.8516 1054.0625,26.9453 Q1054.0625,29.0391 1054.75,30.1094 Q1055.4375,31.1797 1056.7813,31.1797 Q1057.4063,31.1797 1058,30.9063 Q1058.5938,30.6328 1059.2188,30.0547 L1059.2188,32.7734 Z " fill="#000000"/><text fill="#000000" font-family="sans-serif" font-size="12" font-style="italic" lengthAdjust="spacing" textLength="124" x="1074.75" y="23.1387">«dogen::untestable»</text><text fill="#000000" font-family="sans-serif" font-size="14" lengthAdjust="spacing" textLength="53" x="1110.25" y="38.9639">metrics</text><line style="stroke:#181818;stroke-width:0.5;" x1="939" x2="1302" y1="47.2656" y2="47.2656"/><ellipse cx="949" cy="58.2656" fill="none" rx="3" ry="3" style="stroke:#038048;stroke-width:1.0;"/><text fill="#000000" font-family="sans-serif" font-size="14" lengthAdjust="spacing" textLength="165" x="958" y="64.2607">transform_id std::string</text><ellipse cx="949" cy="74.5625" fill="none" rx="3" ry="3" style="stroke:#038048;stroke-width:1.0;"/><text fill="#000000" font-family="sans-serif" font-size="14" lengthAdjust="spacing" textLength="140" x="958" y="80.5576">model_id std::string</text><ellipse cx="949" cy="90.8594" fill="none" rx="3" ry="3" style="stroke:#038048;stroke-width:1.0;"/><text fill="#000000" font-family="sans-serif" font-size="14" lengthAdjust="spacing" textLength="106" x="958" y="96.8545">guid std::string</text><ellipse cx="949" cy="107.1563" fill="none" rx="3" ry="3" style="stroke:#038048;stroke-width:1.0;"/><text fill="#000000" font-family="sans-serif" font-size="14" lengthAdjust="spacing" textLength="136" x="958" y="113.1514">start unsigned long</text><ellipse cx="949" cy="123.4531" fill="none" rx="3" ry="3" style="stroke:#038048;stroke-width:1.0;"/><text fill="#000000" font-family="sans-serif" font-size="14" lengthAdjust="spacing" textLength="131" x="958" y="129.4482">end unsigned long</text><ellipse cx="949" cy="139.75" fill="none" rx="3" ry="3" style="stroke:#038048;stroke-width:1.0;"/><text fill="#000000" font-family="sans-serif" font-size="14" lengthAdjust="spacing" textLength="339" x="958" y="145.7451">children std::list&lt;boost::shared_ptr&lt;metrics&gt;&gt;</text><line style="stroke:#181818;stroke-width:0.5;" x1="939" x2="1302" y1="153.0469" y2="153.0469"/></g><!--MD5=[f16d5dfe89f9b25229add2328b2ef56a]
class metrics_builder--><g id="elem_metrics_builder"><rect codeLine="24" fill="#FFFACD" height="56.2656" id="metrics_builder" rx="2.5" ry="2.5" style="stroke:#181818;stroke-width:0.5;" width="222" x="1337.5" y="56"/><ellipse cx="1352.5" cy="76.1328" fill="#ADD1B2" rx="11" ry="11" style="stroke:#181818;stroke-width:1.0;"/><path d="M1355.4688,81.7734 Q1354.8906,82.0703 1354.25,82.2188 Q1353.6094,82.3672 1352.9063,82.3672 Q1350.4063,82.3672 1349.0859,80.7188 Q1347.7656,79.0703 1347.7656,75.9453 Q1347.7656,72.8203 1349.0859,71.1641 Q1350.4063,69.5078 1352.9063,69.5078 Q1353.6094,69.5078 1354.2578,69.6641 Q1354.9063,69.8203 1355.4688,70.1172 L1355.4688,72.8359 Q1354.8438,72.2578 1354.25,71.9844 Q1353.6563,71.7109 1353.0313,71.7109 Q1351.6875,71.7109 1351,72.7813 Q1350.3125,73.8516 1350.3125,75.9453 Q1350.3125,78.0391 1351,79.1094 Q1351.6875,80.1797 1353.0313,80.1797 Q1353.6563,80.1797 1354.25,79.9063 Q1354.8438,79.6328 1355.4688,79.0547 L1355.4688,81.7734 Z " fill="#000000"/><text fill="#000000" font-family="sans-serif" font-size="12" font-style="italic" lengthAdjust="spacing" textLength="194" x="1364.5" y="72.1387">«dogen::handcrafted::typeable»</text><text fill="#000000" font-family="sans-serif" font-size="14" lengthAdjust="spacing" textLength="110" x="1406.5" y="87.9639">metrics_builder</text><line style="stroke:#181818;stroke-width:0.5;" x1="1338.5" x2="1558.5" y1="96.2656" y2="96.2656"/><line style="stroke:#181818;stroke-width:0.5;" x1="1338.5" x2="1558.5" y1="104.2656" y2="104.2656"/></g><!--MD5=[a0321f498e31c01f78af3f75a6091be2]
class metrics_printer--><g id="elem_metrics_printer"><rect codeLine="27" fill="#FFFACD" height="56.2656" id="metrics_printer" rx="2.5" ry="2.5" style="stroke:#181818;stroke-width:0.5;" width="222" x="139.5" y="229.5"/><ellipse cx="154.5" cy="249.6328" fill="#ADD1B2" rx="11" ry="11" style="stroke:#181818;stroke-width:1.0;"/><path d="M157.4688,255.2734 Q156.8906,255.5703 156.25,255.7188 Q155.6094,255.8672 154.9063,255.8672 Q152.4063,255.8672 151.0859,254.2188 Q149.7656,252.5703 149.7656,249.4453 Q149.7656,246.3203 151.0859,244.6641 Q152.4063,243.0078 154.9063,243.0078 Q155.6094,243.0078 156.2578,243.1641 Q156.9063,243.3203 157.4688,243.6172 L157.4688,246.3359 Q156.8438,245.7578 156.25,245.4844 Q155.6563,245.2109 155.0313,245.2109 Q153.6875,245.2109 153,246.2813 Q152.3125,247.3516 152.3125,249.4453 Q152.3125,251.5391 153,252.6094 Q153.6875,253.6797 155.0313,253.6797 Q155.6563,253.6797 156.25,253.4063 Q156.8438,253.1328 157.4688,252.5547 L157.4688,255.2734 Z " fill="#000000"/><text fill="#000000" font-family="sans-serif" font-size="12" font-style="italic" lengthAdjust="spacing" textLength="194" x="166.5" y="245.6387">«dogen::handcrafted::typeable»</text><text fill="#000000" font-family="sans-serif" font-size="14" lengthAdjust="spacing" textLength="108" x="209.5" y="261.4639">metrics_printer</text><line style="stroke:#181818;stroke-width:0.5;" x1="140.5" x2="360.5" y1="269.7656" y2="269.7656"/><line style="stroke:#181818;stroke-width:0.5;" x1="140.5" x2="360.5" y1="277.7656" y2="277.7656"/></g><!--MD5=[d474be06505ec909b849f40792534f3d]
class tracing_error--><g id="elem_tracing_error"><rect codeLine="30" fill="#E8C2F8" height="56.2656" id="tracing_error" rx="2.5" ry="2.5" style="stroke:#181818;stroke-width:0.5;" width="142" x="1713.5" y="229.5"/><ellipse cx="1728.5" cy="249.6328" fill="#ADD1B2" rx="11" ry="11" style="stroke:#181818;stroke-width:1.0;"/><path d="M1731.4688,255.2734 Q1730.8906,255.5703 1730.25,255.7188 Q1729.6094,255.8672 1728.9063,255.8672 Q1726.4063,255.8672 1725.0859,254.2188 Q1723.7656,252.5703 1723.7656,249.4453 Q1723.7656,246.3203 1725.0859,244.6641 Q1726.4063,243.0078 1728.9063,243.0078 Q1729.6094,243.0078 1730.2578,243.1641 Q1730.9063,243.3203 1731.4688,243.6172 L1731.4688,246.3359 Q1730.8438,245.7578 1730.25,245.4844 Q1729.6563,245.2109 1729.0313,245.2109 Q1727.6875,245.2109 1727,246.2813 Q1726.3125,247.3516 1726.3125,249.4453 Q1726.3125,251.5391 1727,252.6094 Q1727.6875,253.6797 1729.0313,253.6797 Q1729.6563,253.6797 1730.25,253.4063 Q1730.8438,253.1328 1731.4688,252.5547 L1731.4688,255.2734 Z " fill="#000000"/><text fill="#000000" font-family="sans-serif" font-size="12" font-style="italic" lengthAdjust="spacing" textLength="114" x="1740.5" y="245.6387">«masd::exception»</text><text fill="#000000" font-family="sans-serif" font-size="14" lengthAdjust="spacing" textLength="93" x="1751" y="261.4639">tracing_error</text><line style="stroke:#181818;stroke-width:0.5;" x1="1714.5" x2="1854.5" y1="269.7656" y2="269.7656"/><line style="stroke:#181818;stroke-width:0.5;" x1="1714.5" x2="1854.5" y1="277.7656" y2="277.7656"/></g><g id="elem_GMN8"><path d="M1595,71.5 L1595,96.6328 A0,0 0 0 0 1595,96.6328 L1780.5,96.6328 L1784.5,229.4 L1788.5,96.6328 L1974,96.6328 A0,0 0 0 0 1974,96.6328 L1974,81.5 L1964,71.5 L1595,71.5 A0,0 0 0 0 1595,71.5 " fill="#FEFFDD" style="stroke:#181818;stroke-width:0.5;"/><path d="M1964,71.5 L1964,81.5 L1974,81.5 L1964,71.5 " fill="#FEFFDD" style="stroke:#181818;stroke-width:0.5;"/><text fill="#000000" font-family="sans-serif" font-size="13" lengthAdjust="spacing" textLength="358" x="1601" y="88.5669">An error occurred when trying to generate tracing data.</text></g><!--MD5=[a1eadb59f5e9b2e591c1e6d5145d8899]
class scoped_tracer--><g id="elem_scoped_tracer"><rect codeLine="37" fill="#FFFACD" height="56.2656" id="scoped_tracer" rx="2.5" ry="2.5" style="stroke:#181818;stroke-width:0.5;" width="222" x="396.5" y="229.5"/><ellipse cx="411.5" cy="249.6328" fill="#ADD1B2" rx="11" ry="11" style="stroke:#181818;stroke-width:1.0;"/><path d="M414.4688,255.2734 Q413.8906,255.5703 413.25,255.7188 Q412.6094,255.8672 411.9063,255.8672 Q409.4063,255.8672 408.0859,254.2188 Q406.7656,252.5703 406.7656,249.4453 Q406.7656,246.3203 408.0859,244.6641 Q409.4063,243.0078 411.9063,243.0078 Q412.6094,243.0078 413.2578,243.1641 Q413.9063,243.3203 414.4688,243.6172 L414.4688,246.3359 Q413.8438,245.7578 413.25,245.4844 Q412.6563,245.2109 412.0313,245.2109 Q410.6875,245.2109 410,246.2813 Q409.3125,247.3516 409.3125,249.4453 Q409.3125,251.5391 410,252.6094 Q410.6875,253.6797 412.0313,253.6797 Q412.6563,253.6797 413.25,253.4063 Q413.8438,253.1328 414.4688,252.5547 L414.4688,255.2734 Z " fill="#000000"/><text fill="#000000" font-family="sans-serif" font-size="12" font-style="italic" lengthAdjust="spacing" textLength="194" x="423.5" y="245.6387">«dogen::handcrafted::typeable»</text><text fill="#000000" font-family="sans-serif" font-size="14" lengthAdjust="spacing" textLength="101" x="470" y="261.4639">scoped_tracer</text><line style="stroke:#181818;stroke-width:0.5;" x1="397.5" x2="617.5" y1="269.7656" y2="269.7656"/><line style="stroke:#181818;stroke-width:0.5;" x1="397.5" x2="617.5" y1="277.7656" y2="277.7656"/></g><!--MD5=[7bfc384eafaeb69e61ec7962bd84b75f]
class references_printer--><g id="elem_references_printer"><rect codeLine="40" fill="#FFFACD" height="56.2656" id="references_printer" rx="2.5" ry="2.5" style="stroke:#181818;stroke-width:0.5;" width="222" x="653.5" y="229.5"/><ellipse cx="668.5" cy="249.6328" fill="#ADD1B2" rx="11" ry="11" style="stroke:#181818;stroke-width:1.0;"/><path d="M671.4688,255.2734 Q670.8906,255.5703 670.25,255.7188 Q669.6094,255.8672 668.9063,255.8672 Q666.4063,255.8672 665.0859,254.2188 Q663.7656,252.5703 663.7656,249.4453 Q663.7656,246.3203 665.0859,244.6641 Q666.4063,243.0078 668.9063,243.0078 Q669.6094,243.0078 670.2578,243.1641 Q670.9063,243.3203 671.4688,243.6172 L671.4688,246.3359 Q670.8438,245.7578 670.25,245.4844 Q669.6563,245.2109 669.0313,245.2109 Q667.6875,245.2109 667,246.2813 Q666.3125,247.3516 666.3125,249.4453 Q666.3125,251.5391 667,252.6094 Q667.6875,253.6797 669.0313,253.6797 Q669.6563,253.6797 670.25,253.4063 Q670.8438,253.1328 671.4688,252.5547 L671.4688,255.2734 Z " fill="#000000"/><text fill="#000000" font-family="sans-serif" font-size="12" font-style="italic" lengthAdjust="spacing" textLength="194" x="680.5" y="245.6387">«dogen::handcrafted::typeable»</text><text fill="#000000" font-family="sans-serif" font-size="14" lengthAdjust="spacing" textLength="132" x="711.5" y="261.4639">references_printer</text><line style="stroke:#181818;stroke-width:0.5;" x1="654.5" x2="874.5" y1="269.7656" y2="269.7656"/><line style="stroke:#181818;stroke-width:0.5;" x1="654.5" x2="874.5" y1="277.7656" y2="277.7656"/></g><!--MD5=[a090a731b91a147e463886be75cc2071]
class backend--><g id="elem_backend"><rect codeLine="43" fill="#FFFACD" height="56.2656" id="backend" rx="2.5" ry="2.5" style="stroke:#181818;stroke-width:0.5;" width="373" x="2009" y="56"/><ellipse cx="2024" cy="76.1328" fill="#ADD1B2" rx="11" ry="11" style="stroke:#181818;stroke-width:1.0;"/><path d="M2026.9688,81.7734 Q2026.3906,82.0703 2025.75,82.2188 Q2025.1094,82.3672 2024.4063,82.3672 Q2021.9063,82.3672 2020.5859,80.7188 Q2019.2656,79.0703 2019.2656,75.9453 Q2019.2656,72.8203 2020.5859,71.1641 Q2021.9063,69.5078 2024.4063,69.5078 Q2025.1094,69.5078 2025.7578,69.6641 Q2026.4063,69.8203 2026.9688,70.1172 L2026.9688,72.8359 Q2026.3438,72.2578 2025.75,71.9844 Q2025.1563,71.7109 2024.5313,71.7109 Q2023.1875,71.7109 2022.5,72.7813 Q2021.8125,73.8516 2021.8125,75.9453 Q2021.8125,78.0391 2022.5,79.1094 Q2023.1875,80.1797 2024.5313,80.1797 Q2025.1563,80.1797 2025.75,79.9063 Q2026.3438,79.6328 2026.9688,79.0547 L2026.9688,81.7734 Z " fill="#000000"/><text fill="#000000" font-family="sans-serif" font-size="12" font-style="italic" lengthAdjust="spacing" textLength="345" x="2036" y="72.1387">«dogen::handcrafted::typeable, dogen::pretty_printable»</text><text fill="#000000" font-family="sans-serif" font-size="14" lengthAdjust="spacing" textLength="61" x="2178" y="87.9639">backend</text><line style="stroke:#181818;stroke-width:0.5;" x1="2010" x2="2381" y1="96.2656" y2="96.2656"/><line style="stroke:#181818;stroke-width:0.5;" x1="2010" x2="2381" y1="104.2656" y2="104.2656"/></g><!--MD5=[01161fabbbee70e6be97358f80cc36fc]
class file_backend--><g id="elem_file_backend"><rect codeLine="46" fill="#FFFACD" height="56.2656" id="file_backend" rx="2.5" ry="2.5" style="stroke:#181818;stroke-width:0.5;" width="373" x="2009" y="229.5"/><ellipse cx="2024" cy="249.6328" fill="#ADD1B2" rx="11" ry="11" style="stroke:#181818;stroke-width:1.0;"/><path d="M2026.9688,255.2734 Q2026.3906,255.5703 2025.75,255.7188 Q2025.1094,255.8672 2024.4063,255.8672 Q2021.9063,255.8672 2020.5859,254.2188 Q2019.2656,252.5703 2019.2656,249.4453 Q2019.2656,246.3203 2020.5859,244.6641 Q2021.9063,243.0078 2024.4063,243.0078 Q2025.1094,243.0078 2025.7578,243.1641 Q2026.4063,243.3203 2026.9688,243.6172 L2026.9688,246.3359 Q2026.3438,245.7578 2025.75,245.4844 Q2025.1563,245.2109 2024.5313,245.2109 Q2023.1875,245.2109 2022.5,246.2813 Q2021.8125,247.3516 2021.8125,249.4453 Q2021.8125,251.5391 2022.5,252.6094 Q2023.1875,253.6797 2024.5313,253.6797 Q2025.1563,253.6797 2025.75,253.4063 Q2026.3438,253.1328 2026.9688,252.5547 L2026.9688,255.2734 Z " fill="#000000"/><text fill="#000000" font-family="sans-serif" font-size="12" font-style="italic" lengthAdjust="spacing" textLength="345" x="2036" y="245.6387">«dogen::handcrafted::typeable, dogen::pretty_printable»</text><text fill="#000000" font-family="sans-serif" font-size="14" lengthAdjust="spacing" textLength="90" x="2163.5" y="261.4639">file_backend</text><line style="stroke:#181818;stroke-width:0.5;" x1="2010" x2="2381" y1="269.7656" y2="269.7656"/><line style="stroke:#181818;stroke-width:0.5;" x1="2010" x2="2381" y1="277.7656" y2="277.7656"/></g><!--MD5=[d524613c4436b85785baa31fb15d8676]
class backend_factory_registrar--><g id="elem_backend_factory_registrar"><rect codeLine="50" fill="#FFFACD" height="72.5625" id="backend_factory_registrar" rx="2.5" ry="2.5" style="stroke:#181818;stroke-width:0.5;" width="722" x="910.5" y="221"/><ellipse cx="1172.25" cy="241.1328" fill="#ADD1B2" rx="11" ry="11" style="stroke:#181818;stroke-width:1.0;"/><path d="M1175.2188,246.7734 Q1174.6406,247.0703 1174,247.2188 Q1173.3594,247.3672 1172.6563,247.3672 Q1170.1563,247.3672 1168.8359,245.7188 Q1167.5156,244.0703 1167.5156,240.9453 Q1167.5156,237.8203 1168.8359,236.1641 Q1170.1563,234.5078 1172.6563,234.5078 Q1173.3594,234.5078 1174.0078,234.6641 Q1174.6563,234.8203 1175.2188,235.1172 L1175.2188,237.8359 Q1174.5938,237.2578 1174,236.9844 Q1173.4063,236.7109 1172.7813,236.7109 Q1171.4375,236.7109 1170.75,237.7813 Q1170.0625,238.8516 1170.0625,240.9453 Q1170.0625,243.0391 1170.75,244.1094 Q1171.4375,245.1797 1172.7813,245.1797 Q1173.4063,245.1797 1174,244.9063 Q1174.5938,244.6328 1175.2188,244.0547 L1175.2188,246.7734 Z " fill="#000000"/><text fill="#000000" font-family="sans-serif" font-size="12" font-style="italic" lengthAdjust="spacing" textLength="194" x="1190.75" y="237.1387">«dogen::handcrafted::typeable»</text><text fill="#000000" font-family="sans-serif" font-size="14" lengthAdjust="spacing" textLength="186" x="1194.75" y="252.9639">backend_factory_registrar</text><line style="stroke:#181818;stroke-width:0.5;" x1="911.5" x2="1631.5" y1="261.2656" y2="261.2656"/><ellipse cx="921.5" cy="272.2656" fill="none" rx="3" ry="3" style="stroke:#038048;stroke-width:1.0;"/><text fill="#000000" font-family="sans-serif" font-size="14" lengthAdjust="spacing" textLength="696" x="930.5" y="278.2607">backend_factories std::unordered_map&lt;tracing_backend, boost::shared_ptr&lt;backend_factory&gt;&gt;</text><line style="stroke:#181818;stroke-width:0.5;" x1="911.5" x2="1631.5" y1="285.5625" y2="285.5625"/></g><!--MD5=[16791588a3f9a6423d02eb0079812554]
class registrar_error--><g id="elem_registrar_error"><rect codeLine="54" fill="#E8C2F8" height="56.2656" id="registrar_error" rx="2.5" ry="2.5" style="stroke:#181818;stroke-width:0.5;" width="142" x="179.5" y="354"/><ellipse cx="194.5" cy="374.1328" fill="#ADD1B2" rx="11" ry="11" style="stroke:#181818;stroke-width:1.0;"/><path d="M197.4688,379.7734 Q196.8906,380.0703 196.25,380.2188 Q195.6094,380.3672 194.9063,380.3672 Q192.4063,380.3672 191.0859,378.7188 Q189.7656,377.0703 189.7656,373.9453 Q189.7656,370.8203 191.0859,369.1641 Q192.4063,367.5078 194.9063,367.5078 Q195.6094,367.5078 196.2578,367.6641 Q196.9063,367.8203 197.4688,368.1172 L197.4688,370.8359 Q196.8438,370.2578 196.25,369.9844 Q195.6563,369.7109 195.0313,369.7109 Q193.6875,369.7109 193,370.7813 Q192.3125,371.8516 192.3125,373.9453 Q192.3125,376.0391 193,377.1094 Q193.6875,378.1797 195.0313,378.1797 Q195.6563,378.1797 196.25,377.9063 Q196.8438,377.6328 197.4688,377.0547 L197.4688,379.7734 Z " fill="#000000"/><text fill="#000000" font-family="sans-serif" font-size="12" font-style="italic" lengthAdjust="spacing" textLength="114" x="206.5" y="370.1387">«masd::exception»</text><text fill="#000000" font-family="sans-serif" font-size="14" lengthAdjust="spacing" textLength="104" x="211.5" y="385.9639">registrar_error</text><line style="stroke:#181818;stroke-width:0.5;" x1="180.5" x2="320.5" y1="394.2656" y2="394.2656"/><line style="stroke:#181818;stroke-width:0.5;" x1="180.5" x2="320.5" y1="402.2656" y2="402.2656"/></g><!--MD5=[380f2d53f9f425092d878b711630915b]
class backend_factory--><g id="elem_backend_factory"><rect codeLine="57" fill="#FFFACD" height="56.2656" id="backend_factory" rx="2.5" ry="2.5" style="stroke:#181818;stroke-width:0.5;" width="303" x="2417" y="56"/><ellipse cx="2432" cy="76.1328" fill="#ADD1B2" rx="11" ry="11" style="stroke:#181818;stroke-width:1.0;"/><path d="M2434.9688,81.7734 Q2434.3906,82.0703 2433.75,82.2188 Q2433.1094,82.3672 2432.4063,82.3672 Q2429.9063,82.3672 2428.5859,80.7188 Q2427.2656,79.0703 2427.2656,75.9453 Q2427.2656,72.8203 2428.5859,71.1641 Q2429.9063,69.5078 2432.4063,69.5078 Q2433.1094,69.5078 2433.7578,69.6641 Q2434.4063,69.8203 2434.9688,70.1172 L2434.9688,72.8359 Q2434.3438,72.2578 2433.75,71.9844 Q2433.1563,71.7109 2432.5313,71.7109 Q2431.1875,71.7109 2430.5,72.7813 Q2429.8125,73.8516 2429.8125,75.9453 Q2429.8125,78.0391 2430.5,79.1094 Q2431.1875,80.1797 2432.5313,80.1797 Q2433.1563,80.1797 2433.75,79.9063 Q2434.3438,79.6328 2434.9688,79.0547 L2434.9688,81.7734 Z " fill="#000000"/><text fill="#000000" font-family="sans-serif" font-size="12" font-style="italic" lengthAdjust="spacing" textLength="275" x="2444" y="72.1387">«dogen::handcrafted::typeable::header_only»</text><text fill="#000000" font-family="sans-serif" font-size="14" lengthAdjust="spacing" textLength="118" x="2522.5" y="87.9639">backend_factory</text><line style="stroke:#181818;stroke-width:0.5;" x1="2418" x2="2719" y1="96.2656" y2="96.2656"/><line style="stroke:#181818;stroke-width:0.5;" x1="2418" x2="2719" y1="104.2656" y2="104.2656"/></g><!--MD5=[ea1cba3cfb774dab2e48b89932cf097d]
class file_backend_factory--><g id="elem_file_backend_factory"><rect codeLine="60" fill="#FFFACD" height="56.2656" id="file_backend_factory" rx="2.5" ry="2.5" style="stroke:#181818;stroke-width:0.5;" width="222" x="2457.5" y="229.5"/><ellipse cx="2472.5" cy="249.6328" fill="#ADD1B2" rx="11" ry="11" style="stroke:#181818;stroke-width:1.0;"/><path d="M2475.4688,255.2734 Q2474.8906,255.5703 2474.25,255.7188 Q2473.6094,255.8672 2472.9063,255.8672 Q2470.4063,255.8672 2469.0859,254.2188 Q2467.7656,252.5703 2467.7656,249.4453 Q2467.7656,246.3203 2469.0859,244.6641 Q2470.4063,243.0078 2472.9063,243.0078 Q2473.6094,243.0078 2474.2578,243.1641 Q2474.9063,243.3203 2475.4688,243.6172 L2475.4688,246.3359 Q2474.8438,245.7578 2474.25,245.4844 Q2473.6563,245.2109 2473.0313,245.2109 Q2471.6875,245.2109 2471,246.2813 Q2470.3125,247.3516 2470.3125,249.4453 Q2470.3125,251.5391 2471,252.6094 Q2471.6875,253.6797 2473.0313,253.6797 Q2473.6563,253.6797 2474.25,253.4063 Q2474.8438,253.1328 2475.4688,252.5547 L2475.4688,255.2734 Z " fill="#000000"/><text fill="#000000" font-family="sans-serif" font-size="12" font-style="italic" lengthAdjust="spacing" textLength="194" x="2484.5" y="245.6387">«dogen::handcrafted::typeable»</text><text fill="#000000" font-family="sans-serif" font-size="14" lengthAdjust="spacing" textLength="147" x="2508" y="261.4639">file_backend_factory</text><line style="stroke:#181818;stroke-width:0.5;" x1="2458.5" x2="2678.5" y1="269.7656" y2="269.7656"/><line style="stroke:#181818;stroke-width:0.5;" x1="2458.5" x2="2678.5" y1="277.7656" y2="277.7656"/></g><!--MD5=[d54e5852ecfe164bbba509d3a9352ed8]
class initializer--><g id="elem_initializer"><rect codeLine="64" fill="#FFFACD" height="56.2656" id="initializer" rx="2.5" ry="2.5" style="stroke:#181818;stroke-width:0.5;" width="222" x="356.5" y="354"/><ellipse cx="371.5" cy="374.1328" fill="#ADD1B2" rx="11" ry="11" style="stroke:#181818;stroke-width:1.0;"/><path d="M374.4688,379.7734 Q373.8906,380.0703 373.25,380.2188 Q372.6094,380.3672 371.9063,380.3672 Q369.4063,380.3672 368.0859,378.7188 Q366.7656,377.0703 366.7656,373.9453 Q366.7656,370.8203 368.0859,369.1641 Q369.4063,367.5078 371.9063,367.5078 Q372.6094,367.5078 373.2578,367.6641 Q373.9063,367.8203 374.4688,368.1172 L374.4688,370.8359 Q373.8438,370.2578 373.25,369.9844 Q372.6563,369.7109 372.0313,369.7109 Q370.6875,369.7109 370,370.7813 Q369.3125,371.8516 369.3125,373.9453 Q369.3125,376.0391 370,377.1094 Q370.6875,378.1797 372.0313,378.1797 Q372.6563,378.1797 373.25,377.9063 Q373.8438,377.6328 374.4688,377.0547 L374.4688,379.7734 Z " fill="#000000"/><text fill="#000000" font-family="sans-serif" font-size="12" font-style="italic" lengthAdjust="spacing" textLength="194" x="383.5" y="370.1387">«dogen::handcrafted::typeable»</text><text fill="#000000" font-family="sans-serif" font-size="14" lengthAdjust="spacing" textLength="65" x="448" y="385.9639">initializer</text><line style="stroke:#181818;stroke-width:0.5;" x1="357.5" x2="577.5" y1="394.2656" y2="394.2656"/><line style="stroke:#181818;stroke-width:0.5;" x1="357.5" x2="577.5" y1="402.2656" y2="402.2656"/></g><!--MD5=[4520fda4e10d4d791ce48fe025810cd4]
class main--><g id="elem_main"><rect codeLine="67" fill="#DDA9F3" height="56.2656" id="main" rx="2.5" ry="2.5" style="stroke:#181818;stroke-width:0.5;" width="267" x="614" y="354"/><ellipse cx="629" cy="374.1328" fill="#ADD1B2" rx="11" ry="11" style="stroke:#181818;stroke-width:1.0;"/><path d="M631.9688,379.7734 Q631.3906,380.0703 630.75,380.2188 Q630.1094,380.3672 629.4063,380.3672 Q626.9063,380.3672 625.5859,378.7188 Q624.2656,377.0703 624.2656,373.9453 Q624.2656,370.8203 625.5859,369.1641 Q626.9063,367.5078 629.4063,367.5078 Q630.1094,367.5078 630.7578,367.6641 Q631.4063,367.8203 631.9688,368.1172 L631.9688,370.8359 Q631.3438,370.2578 630.75,369.9844 Q630.1563,369.7109 629.5313,369.7109 Q628.1875,369.7109 627.5,370.7813 Q626.8125,371.8516 626.8125,373.9453 Q626.8125,376.0391 627.5,377.1094 Q628.1875,378.1797 629.5313,378.1797 Q630.1563,378.1797 630.75,377.9063 Q631.3438,377.6328 631.9688,377.0547 L631.9688,379.7734 Z " fill="#000000"/><text fill="#000000" font-family="sans-serif" font-size="12" font-style="italic" lengthAdjust="spacing" textLength="239" x="641" y="370.1387">«masd::entry_point, dogen::untypable»</text><text fill="#000000" font-family="sans-serif" font-size="14" lengthAdjust="spacing" textLength="36" x="742.5" y="385.9639">main</text><line style="stroke:#181818;stroke-width:0.5;" x1="615" x2="880" y1="394.2656" y2="394.2656"/><line style="stroke:#181818;stroke-width:0.5;" x1="615" x2="880" y1="402.2656" y2="402.2656"/></g><!--MD5=[ba83386d426114557685538e96aa6f68]
class CMakeLists--><g id="elem_CMakeLists"><rect codeLine="70" fill="#99CB99" height="56.2656" id="CMakeLists" rx="2.5" ry="2.5" style="stroke:#181818;stroke-width:0.5;" width="360" x="916.5" y="354"/><ellipse cx="931.5" cy="374.1328" fill="#ADD1B2" rx="11" ry="11" style="stroke:#181818;stroke-width:1.0;"/><path d="M934.4688,379.7734 Q933.8906,380.0703 933.25,380.2188 Q932.6094,380.3672 931.9063,380.3672 Q929.4063,380.3672 928.0859,378.7188 Q926.7656,377.0703 926.7656,373.9453 Q926.7656,370.8203 928.0859,369.1641 Q929.4063,367.5078 931.9063,367.5078 Q932.6094,367.5078 933.2578,367.6641 Q933.9063,367.8203 934.4688,368.1172 L934.4688,370.8359 Q933.8438,370.2578 933.25,369.9844 Q932.6563,369.7109 932.0313,369.7109 Q930.6875,369.7109 930,370.7813 Q929.3125,371.8516 929.3125,373.9453 Q929.3125,376.0391 930,377.1094 Q930.6875,378.1797 932.0313,378.1797 Q932.6563,378.1797 933.25,377.9063 Q933.8438,377.6328 934.4688,377.0547 L934.4688,379.7734 Z " fill="#000000"/><text fill="#000000" font-family="sans-serif" font-size="12" font-style="italic" lengthAdjust="spacing" textLength="332" x="943.5" y="370.1387">«masd::build::cmakelists, dogen::handcrafted::cmake»</text><text fill="#000000" font-family="sans-serif" font-size="14" lengthAdjust="spacing" textLength="79" x="1070" y="385.9639">CMakeLists</text><line style="stroke:#181818;stroke-width:0.5;" x1="917.5" x2="1275.5" y1="394.2656" y2="394.2656"/><line style="stroke:#181818;stroke-width:0.5;" x1="917.5" x2="1275.5" y1="402.2656" y2="402.2656"/></g><!--MD5=[e0088094388be214025e11d199a7616f]
reverse link backend to file_backend--><g id="link_backend_file_backend"><path codeLine="49" d="M2195.5,132.18 C2195.5,163.46 2195.5,203.41 2195.5,229.45 " fill="none" id="backend-backto-file_backend" style="stroke:#181818;stroke-width:1.0;"/><polygon fill="none" points="2188.5,132.17,2195.5,112.17,2202.5,132.17,2188.5,132.17" style="stroke:#181818;stroke-width:1.0;"/></g><!--MD5=[b2f00ac79e73d0c2935b9e8ecfdb021f]
reverse link backend_factory to file_backend_factory--><g id="link_backend_factory_file_backend_factory"><path codeLine="63" d="M2568.5,132.18 C2568.5,163.46 2568.5,203.41 2568.5,229.45 " fill="none" id="backend_factory-backto-file_backend_factory" style="stroke:#181818;stroke-width:1.0;"/><polygon fill="none" points="2561.5,132.17,2568.5,112.17,2575.5,132.17,2561.5,132.17" style="stroke:#181818;stroke-width:1.0;"/></g><!--MD5=[4369be315d1820126a1176d3a930006e]
link N1 to tracer--></g></svg>