<?xml version="1.0" encoding="UTF-8" standalone="no"?><svg xmlns="http://www.w3.org/2000/svg" xmlns:xlink="http://www.w3.org/1999/xlink" contentScriptType="application/ecmascript" contentStyleType="text/css" height="390px" preserveAspectRatio="none" style="width:2904px;height:390px;" version="1.1" viewBox="0 0 2904 390" width="2904px" zoomAndPan="magnify"><defs><filter height="300%" id="fdu7vx9zjz3qw" width="300%" x="-1" y="-1"><feGaussianBlur result="blurOut" stdDeviation="2.0"/><feColorMatrix in="blurOut" result="blurOut2" type="matrix" values="0 0 0 0 0 0 0 0 0 0 0 0 0 0 0 0 0 0 .4 0"/><feOffset dx="4.0" dy="4.0" in="blurOut2" result="blurOut3"/><feBlend in="SourceGraphic" in2="blurOut3" mode="normal"/></filter></defs><g><path d="M6,46 L6,101.3984 L332,101.3984 L332,56 L322,46 L6,46 " fill="#FBFB77" filter="url(#fdu7vx9zjz3qw)" style="stroke: #A80036; stroke-width: 1.0;"/><path d="M322,46 L322,56 L332,56 L322,46 " fill="#FBFB77" style="stroke: #A80036; stroke-width: 1.0;"/><text fill="#000000" font-family="sans-serif" font-size="13" lengthAdjust="spacingAndGlyphs" textLength="0" x="16" y="63.0669"/><text fill="#000000" font-family="sans-serif" font-size="13" lengthAdjust="spacingAndGlyphs" textLength="305" x="12" y="78.1997">Houses classes common to all transformations.</text><text fill="#000000" font-family="sans-serif" font-size="13" lengthAdjust="spacingAndGlyphs" textLength="0" x="16" y="93.3325"/><!--MD5=[db14d85f9facaa591f9fc719a65607f4]
class tracer--><rect fill="#FFFACD" filter="url(#fdu7vx9zjz3qw)" height="66.7422" id="tracer" style="stroke: #A80036; stroke-width: 1.5;" width="386" x="367" y="40"/><rect fill="#FFFACD" height="37.9375" style="stroke: #A80036; stroke-width: 1.5;" width="386" x="367" y="40"/><ellipse cx="382" cy="58.9688" fill="#ADD1B2" rx="11" ry="11" style="stroke: #A80036; stroke-width: 1.0;"/><path d="M384.9688,64.6094 Q384.3906,64.9063 383.75,65.0547 Q383.1094,65.2031 382.4063,65.2031 Q379.9063,65.2031 378.5859,63.5547 Q377.2656,61.9063 377.2656,58.7813 Q377.2656,55.6563 378.5859,54 Q379.9063,52.3438 382.4063,52.3438 Q383.1094,52.3438 383.7578,52.5 Q384.4063,52.6563 384.9688,52.9531 L384.9688,55.6719 Q384.3438,55.0938 383.75,54.8203 Q383.1563,54.5469 382.5313,54.5469 Q381.1875,54.5469 380.5,55.6172 Q379.8125,56.6875 379.8125,58.7813 Q379.8125,60.875 380.5,61.9453 Q381.1875,63.0156 382.5313,63.0156 Q383.1563,63.0156 383.75,62.7422 Q384.3438,62.4688 384.9688,61.8906 L384.9688,64.6094 Z "/><text fill="#000000" font-family="sans-serif" font-size="12" font-style="italic" lengthAdjust="spacingAndGlyphs" textLength="358" x="394" y="56.1387">«dogen::handcrafted::typeable, dogen::pretty_printable»</text><text fill="#000000" font-family="sans-serif" font-size="12" lengthAdjust="spacingAndGlyphs" textLength="38" x="554" y="70.1074">tracer</text><line style="stroke: #A80036; stroke-width: 1.5;" x1="368" x2="752" y1="77.9375" y2="77.9375"/><ellipse cx="378" cy="88.9375" fill="none" rx="3" ry="3" style="stroke: #038048; stroke-width: 1.0;"/><text fill="#000000" font-family="sans-serif" font-size="11" lengthAdjust="spacingAndGlyphs" textLength="218" x="387" y="92.1479">backend boost::shared_ptr&lt;backend&gt;</text><line style="stroke: #A80036; stroke-width: 1.5;" x1="368" x2="752" y1="98.7422" y2="98.7422"/><!--MD5=[4604a5c0aa4f6696b3bab992d4743b64]
class metrics--><rect fill="#ED8181" filter="url(#fdu7vx9zjz3qw)" height="130.7656" id="metrics" style="stroke: #A80036; stroke-width: 1.5;" width="299" x="788.5" y="8"/><rect fill="#ED8181" height="37.9375" style="stroke: #A80036; stroke-width: 1.5;" width="299" x="788.5" y="8"/><ellipse cx="871.25" cy="26.9688" fill="#ADD1B2" rx="11" ry="11" style="stroke: #A80036; stroke-width: 1.0;"/><path d="M874.2188,32.6094 Q873.6406,32.9063 873,33.0547 Q872.3594,33.2031 871.6563,33.2031 Q869.1563,33.2031 867.8359,31.5547 Q866.5156,29.9063 866.5156,26.7813 Q866.5156,23.6563 867.8359,22 Q869.1563,20.3438 871.6563,20.3438 Q872.3594,20.3438 873.0078,20.5 Q873.6563,20.6563 874.2188,20.9531 L874.2188,23.6719 Q873.5938,23.0938 873,22.8203 Q872.4063,22.5469 871.7813,22.5469 Q870.4375,22.5469 869.75,23.6172 Q869.0625,24.6875 869.0625,26.7813 Q869.0625,28.875 869.75,29.9453 Q870.4375,31.0156 871.7813,31.0156 Q872.4063,31.0156 873,30.7422 Q873.5938,30.4688 874.2188,29.8906 L874.2188,32.6094 Z "/><text fill="#000000" font-family="sans-serif" font-size="12" font-style="italic" lengthAdjust="spacingAndGlyphs" textLength="129" x="889.75" y="24.1387">«dogen::untestable»</text><text fill="#000000" font-family="sans-serif" font-size="12" lengthAdjust="spacingAndGlyphs" textLength="46" x="931.25" y="38.1074">metrics</text><line style="stroke: #A80036; stroke-width: 1.5;" x1="789.5" x2="1086.5" y1="45.9375" y2="45.9375"/><ellipse cx="799.5" cy="56.9375" fill="none" rx="3" ry="3" style="stroke: #038048; stroke-width: 1.0;"/><text fill="#000000" font-family="sans-serif" font-size="11" lengthAdjust="spacingAndGlyphs" textLength="136" x="808.5" y="60.1479">transform_id std::string</text><ellipse cx="799.5" cy="69.7422" fill="none" rx="3" ry="3" style="stroke: #038048; stroke-width: 1.0;"/><text fill="#000000" font-family="sans-serif" font-size="11" lengthAdjust="spacingAndGlyphs" textLength="114" x="808.5" y="72.9526">model_id std::string</text><ellipse cx="799.5" cy="82.5469" fill="none" rx="3" ry="3" style="stroke: #038048; stroke-width: 1.0;"/><text fill="#000000" font-family="sans-serif" font-size="11" lengthAdjust="spacingAndGlyphs" textLength="87" x="808.5" y="85.7573">guid std::string</text><ellipse cx="799.5" cy="95.3516" fill="none" rx="3" ry="3" style="stroke: #038048; stroke-width: 1.0;"/><text fill="#000000" font-family="sans-serif" font-size="11" lengthAdjust="spacingAndGlyphs" textLength="111" x="808.5" y="98.562">start unsigned long</text><ellipse cx="799.5" cy="108.1563" fill="none" rx="3" ry="3" style="stroke: #038048; stroke-width: 1.0;"/><text fill="#000000" font-family="sans-serif" font-size="11" lengthAdjust="spacingAndGlyphs" textLength="105" x="808.5" y="111.3667">end unsigned long</text><ellipse cx="799.5" cy="120.9609" fill="none" rx="3" ry="3" style="stroke: #038048; stroke-width: 1.0;"/><text fill="#000000" font-family="sans-serif" font-size="11" lengthAdjust="spacingAndGlyphs" textLength="273" x="808.5" y="124.1714">children std::list&lt;boost::shared_ptr&lt;metrics&gt;&gt;</text><line style="stroke: #A80036; stroke-width: 1.5;" x1="789.5" x2="1086.5" y1="130.7656" y2="130.7656"/><!--MD5=[f16d5dfe89f9b25229add2328b2ef56a]
class metrics_builder--><rect fill="#FFFACD" filter="url(#fdu7vx9zjz3qw)" height="53.9375" id="metrics_builder" style="stroke: #A80036; stroke-width: 1.5;" width="230" x="1123" y="46.5"/><rect fill="#FFFACD" height="37.9375" style="stroke: #A80036; stroke-width: 1.5;" width="230" x="1123" y="46.5"/><ellipse cx="1138" cy="65.4688" fill="#ADD1B2" rx="11" ry="11" style="stroke: #A80036; stroke-width: 1.0;"/><path d="M1140.9688,71.1094 Q1140.3906,71.4063 1139.75,71.5547 Q1139.1094,71.7031 1138.4063,71.7031 Q1135.9063,71.7031 1134.5859,70.0547 Q1133.2656,68.4063 1133.2656,65.2813 Q1133.2656,62.1563 1134.5859,60.5 Q1135.9063,58.8438 1138.4063,58.8438 Q1139.1094,58.8438 1139.7578,59 Q1140.4063,59.1563 1140.9688,59.4531 L1140.9688,62.1719 Q1140.3438,61.5938 1139.75,61.3203 Q1139.1563,61.0469 1138.5313,61.0469 Q1137.1875,61.0469 1136.5,62.1172 Q1135.8125,63.1875 1135.8125,65.2813 Q1135.8125,67.375 1136.5,68.4453 Q1137.1875,69.5156 1138.5313,69.5156 Q1139.1563,69.5156 1139.75,69.2422 Q1140.3438,68.9688 1140.9688,68.3906 L1140.9688,71.1094 Z "/><text fill="#000000" font-family="sans-serif" font-size="12" font-style="italic" lengthAdjust="spacingAndGlyphs" textLength="202" x="1150" y="62.6387">«dogen::handcrafted::typeable»</text><text fill="#000000" font-family="sans-serif" font-size="12" lengthAdjust="spacingAndGlyphs" textLength="95" x="1203.5" y="76.6074">metrics_builder</text><line style="stroke: #A80036; stroke-width: 1.5;" x1="1124" x2="1352" y1="84.4375" y2="84.4375"/><line style="stroke: #A80036; stroke-width: 1.5;" x1="1124" x2="1352" y1="92.4375" y2="92.4375"/><!--MD5=[a0321f498e31c01f78af3f75a6091be2]
class metrics_printer--><rect fill="#FFFACD" filter="url(#fdu7vx9zjz3qw)" height="53.9375" id="metrics_printer" style="stroke: #A80036; stroke-width: 1.5;" width="230" x="54" y="205.5"/><rect fill="#FFFACD" height="37.9375" style="stroke: #A80036; stroke-width: 1.5;" width="230" x="54" y="205.5"/><ellipse cx="69" cy="224.4688" fill="#ADD1B2" rx="11" ry="11" style="stroke: #A80036; stroke-width: 1.0;"/><path d="M71.9688,230.1094 Q71.3906,230.4063 70.75,230.5547 Q70.1094,230.7031 69.4063,230.7031 Q66.9063,230.7031 65.5859,229.0547 Q64.2656,227.4063 64.2656,224.2813 Q64.2656,221.1563 65.5859,219.5 Q66.9063,217.8438 69.4063,217.8438 Q70.1094,217.8438 70.7578,218 Q71.4063,218.1563 71.9688,218.4531 L71.9688,221.1719 Q71.3438,220.5938 70.75,220.3203 Q70.1563,220.0469 69.5313,220.0469 Q68.1875,220.0469 67.5,221.1172 Q66.8125,222.1875 66.8125,224.2813 Q66.8125,226.375 67.5,227.4453 Q68.1875,228.5156 69.5313,228.5156 Q70.1563,228.5156 70.75,228.2422 Q71.3438,227.9688 71.9688,227.3906 L71.9688,230.1094 Z "/><text fill="#000000" font-family="sans-serif" font-size="12" font-style="italic" lengthAdjust="spacingAndGlyphs" textLength="202" x="81" y="221.6387">«dogen::handcrafted::typeable»</text><text fill="#000000" font-family="sans-serif" font-size="12" lengthAdjust="spacingAndGlyphs" textLength="94" x="135" y="235.6074">metrics_printer</text><line style="stroke: #A80036; stroke-width: 1.5;" x1="55" x2="283" y1="243.4375" y2="243.4375"/><line style="stroke: #A80036; stroke-width: 1.5;" x1="55" x2="283" y1="251.4375" y2="251.4375"/><!--MD5=[d474be06505ec909b849f40792534f3d]
class tracing_error--><rect fill="#E8C2F8" filter="url(#fdu7vx9zjz3qw)" height="53.9375" id="tracing_error" style="stroke: #A80036; stroke-width: 1.5;" width="145" x="1502.5" y="205.5"/><rect fill="#E8C2F8" height="37.9375" style="stroke: #A80036; stroke-width: 1.5;" width="145" x="1502.5" y="205.5"/><ellipse cx="1517.5" cy="224.4688" fill="#ADD1B2" rx="11" ry="11" style="stroke: #A80036; stroke-width: 1.0;"/><path d="M1520.4688,230.1094 Q1519.8906,230.4063 1519.25,230.5547 Q1518.6094,230.7031 1517.9063,230.7031 Q1515.4063,230.7031 1514.0859,229.0547 Q1512.7656,227.4063 1512.7656,224.2813 Q1512.7656,221.1563 1514.0859,219.5 Q1515.4063,217.8438 1517.9063,217.8438 Q1518.6094,217.8438 1519.2578,218 Q1519.9063,218.1563 1520.4688,218.4531 L1520.4688,221.1719 Q1519.8438,220.5938 1519.25,220.3203 Q1518.6563,220.0469 1518.0313,220.0469 Q1516.6875,220.0469 1516,221.1172 Q1515.3125,222.1875 1515.3125,224.2813 Q1515.3125,226.375 1516,227.4453 Q1516.6875,228.5156 1518.0313,228.5156 Q1518.6563,228.5156 1519.25,228.2422 Q1519.8438,227.9688 1520.4688,227.3906 L1520.4688,230.1094 Z "/><text fill="#000000" font-family="sans-serif" font-size="12" font-style="italic" lengthAdjust="spacingAndGlyphs" textLength="117" x="1529.5" y="221.6387">«masd::exception»</text><text fill="#000000" font-family="sans-serif" font-size="12" lengthAdjust="spacingAndGlyphs" textLength="81" x="1547.5" y="235.6074">tracing_error</text><line style="stroke: #A80036; stroke-width: 1.5;" x1="1503.5" x2="1646.5" y1="243.4375" y2="243.4375"/><line style="stroke: #A80036; stroke-width: 1.5;" x1="1503.5" x2="1646.5" y1="251.4375" y2="251.4375"/><path d="M1388,46 L1388,101.3984 A0,0 0 0 0 1388,101.3984 L1571,101.3984 L1575,205.26 L1579,101.3984 L1762,101.3984 A0,0 0 0 0 1762,101.3984 L1762,56 L1752,46 L1388,46 A0,0 0 0 0 1388,46 " fill="#FBFB77" filter="url(#fdu7vx9zjz3qw)" style="stroke: #A80036; stroke-width: 1.0;"/><path d="M1752,46 L1752,56 L1762,56 L1752,46 " fill="#FBFB77" style="stroke: #A80036; stroke-width: 1.0;"/><text fill="#000000" font-family="sans-serif" font-size="13" lengthAdjust="spacingAndGlyphs" textLength="0" x="1398" y="63.0669"/><text fill="#000000" font-family="sans-serif" font-size="13" lengthAdjust="spacingAndGlyphs" textLength="353" x="1394" y="78.1997">An error occurred when trying to generate tracing data.</text><text fill="#000000" font-family="sans-serif" font-size="13" lengthAdjust="spacingAndGlyphs" textLength="0" x="1398" y="93.3325"/><!--MD5=[a1eadb59f5e9b2e591c1e6d5145d8899]
class scoped_tracer--><rect fill="#FFFACD" filter="url(#fdu7vx9zjz3qw)" height="53.9375" id="scoped_tracer" style="stroke: #A80036; stroke-width: 1.5;" width="230" x="319" y="205.5"/><rect fill="#FFFACD" height="37.9375" style="stroke: #A80036; stroke-width: 1.5;" width="230" x="319" y="205.5"/><ellipse cx="334" cy="224.4688" fill="#ADD1B2" rx="11" ry="11" style="stroke: #A80036; stroke-width: 1.0;"/><path d="M336.9688,230.1094 Q336.3906,230.4063 335.75,230.5547 Q335.1094,230.7031 334.4063,230.7031 Q331.9063,230.7031 330.5859,229.0547 Q329.2656,227.4063 329.2656,224.2813 Q329.2656,221.1563 330.5859,219.5 Q331.9063,217.8438 334.4063,217.8438 Q335.1094,217.8438 335.7578,218 Q336.4063,218.1563 336.9688,218.4531 L336.9688,221.1719 Q336.3438,220.5938 335.75,220.3203 Q335.1563,220.0469 334.5313,220.0469 Q333.1875,220.0469 332.5,221.1172 Q331.8125,222.1875 331.8125,224.2813 Q331.8125,226.375 332.5,227.4453 Q333.1875,228.5156 334.5313,228.5156 Q335.1563,228.5156 335.75,228.2422 Q336.3438,227.9688 336.9688,227.3906 L336.9688,230.1094 Z "/><text fill="#000000" font-family="sans-serif" font-size="12" font-style="italic" lengthAdjust="spacingAndGlyphs" textLength="202" x="346" y="221.6387">«dogen::handcrafted::typeable»</text><text fill="#000000" font-family="sans-serif" font-size="12" lengthAdjust="spacingAndGlyphs" textLength="90" x="402" y="235.6074">scoped_tracer</text><line style="stroke: #A80036; stroke-width: 1.5;" x1="320" x2="548" y1="243.4375" y2="243.4375"/><line style="stroke: #A80036; stroke-width: 1.5;" x1="320" x2="548" y1="251.4375" y2="251.4375"/><!--MD5=[7bfc384eafaeb69e61ec7962bd84b75f]
class references_printer--><rect fill="#FFFACD" filter="url(#fdu7vx9zjz3qw)" height="53.9375" id="references_printer" style="stroke: #A80036; stroke-width: 1.5;" width="230" x="584" y="205.5"/><rect fill="#FFFACD" height="37.9375" style="stroke: #A80036; stroke-width: 1.5;" width="230" x="584" y="205.5"/><ellipse cx="599" cy="224.4688" fill="#ADD1B2" rx="11" ry="11" style="stroke: #A80036; stroke-width: 1.0;"/><path d="M601.9688,230.1094 Q601.3906,230.4063 600.75,230.5547 Q600.1094,230.7031 599.4063,230.7031 Q596.9063,230.7031 595.5859,229.0547 Q594.2656,227.4063 594.2656,224.2813 Q594.2656,221.1563 595.5859,219.5 Q596.9063,217.8438 599.4063,217.8438 Q600.1094,217.8438 600.7578,218 Q601.4063,218.1563 601.9688,218.4531 L601.9688,221.1719 Q601.3438,220.5938 600.75,220.3203 Q600.1563,220.0469 599.5313,220.0469 Q598.1875,220.0469 597.5,221.1172 Q596.8125,222.1875 596.8125,224.2813 Q596.8125,226.375 597.5,227.4453 Q598.1875,228.5156 599.5313,228.5156 Q600.1563,228.5156 600.75,228.2422 Q601.3438,227.9688 601.9688,227.3906 L601.9688,230.1094 Z "/><text fill="#000000" font-family="sans-serif" font-size="12" font-style="italic" lengthAdjust="spacingAndGlyphs" textLength="202" x="611" y="221.6387">«dogen::handcrafted::typeable»</text><text fill="#000000" font-family="sans-serif" font-size="12" lengthAdjust="spacingAndGlyphs" textLength="116" x="654" y="235.6074">references_printer</text><line style="stroke: #A80036; stroke-width: 1.5;" x1="585" x2="813" y1="243.4375" y2="243.4375"/><line style="stroke: #A80036; stroke-width: 1.5;" x1="585" x2="813" y1="251.4375" y2="251.4375"/><!--MD5=[a090a731b91a147e463886be75cc2071]
class backend--><rect fill="#FFFACD" filter="url(#fdu7vx9zjz3qw)" height="53.9375" id="backend" style="stroke: #A80036; stroke-width: 1.5;" width="386" x="1797" y="46.5"/><rect fill="#FFFACD" height="37.9375" style="stroke: #A80036; stroke-width: 1.5;" width="386" x="1797" y="46.5"/><ellipse cx="1812" cy="65.4688" fill="#ADD1B2" rx="11" ry="11" style="stroke: #A80036; stroke-width: 1.0;"/><path d="M1814.9688,71.1094 Q1814.3906,71.4063 1813.75,71.5547 Q1813.1094,71.7031 1812.4063,71.7031 Q1809.9063,71.7031 1808.5859,70.0547 Q1807.2656,68.4063 1807.2656,65.2813 Q1807.2656,62.1563 1808.5859,60.5 Q1809.9063,58.8438 1812.4063,58.8438 Q1813.1094,58.8438 1813.7578,59 Q1814.4063,59.1563 1814.9688,59.4531 L1814.9688,62.1719 Q1814.3438,61.5938 1813.75,61.3203 Q1813.1563,61.0469 1812.5313,61.0469 Q1811.1875,61.0469 1810.5,62.1172 Q1809.8125,63.1875 1809.8125,65.2813 Q1809.8125,67.375 1810.5,68.4453 Q1811.1875,69.5156 1812.5313,69.5156 Q1813.1563,69.5156 1813.75,69.2422 Q1814.3438,68.9688 1814.9688,68.3906 L1814.9688,71.1094 Z "/><text fill="#000000" font-family="sans-serif" font-size="12" font-style="italic" lengthAdjust="spacingAndGlyphs" textLength="358" x="1824" y="62.6387">«dogen::handcrafted::typeable, dogen::pretty_printable»</text><text fill="#000000" font-family="sans-serif" font-size="12" lengthAdjust="spacingAndGlyphs" textLength="54" x="1976" y="76.6074">backend</text><line style="stroke: #A80036; stroke-width: 1.5;" x1="1798" x2="2182" y1="84.4375" y2="84.4375"/><line style="stroke: #A80036; stroke-width: 1.5;" x1="1798" x2="2182" y1="92.4375" y2="92.4375"/><!--MD5=[01161fabbbee70e6be97358f80cc36fc]
class file_backend--><rect fill="#FFFACD" filter="url(#fdu7vx9zjz3qw)" height="53.9375" id="file_backend" style="stroke: #A80036; stroke-width: 1.5;" width="386" x="1797" y="205.5"/><rect fill="#FFFACD" height="37.9375" style="stroke: #A80036; stroke-width: 1.5;" width="386" x="1797" y="205.5"/><ellipse cx="1812" cy="224.4688" fill="#ADD1B2" rx="11" ry="11" style="stroke: #A80036; stroke-width: 1.0;"/><path d="M1814.9688,230.1094 Q1814.3906,230.4063 1813.75,230.5547 Q1813.1094,230.7031 1812.4063,230.7031 Q1809.9063,230.7031 1808.5859,229.0547 Q1807.2656,227.4063 1807.2656,224.2813 Q1807.2656,221.1563 1808.5859,219.5 Q1809.9063,217.8438 1812.4063,217.8438 Q1813.1094,217.8438 1813.7578,218 Q1814.4063,218.1563 1814.9688,218.4531 L1814.9688,221.1719 Q1814.3438,220.5938 1813.75,220.3203 Q1813.1563,220.0469 1812.5313,220.0469 Q1811.1875,220.0469 1810.5,221.1172 Q1809.8125,222.1875 1809.8125,224.2813 Q1809.8125,226.375 1810.5,227.4453 Q1811.1875,228.5156 1812.5313,228.5156 Q1813.1563,228.5156 1813.75,228.2422 Q1814.3438,227.9688 1814.9688,227.3906 L1814.9688,230.1094 Z "/><text fill="#000000" font-family="sans-serif" font-size="12" font-style="italic" lengthAdjust="spacingAndGlyphs" textLength="358" x="1824" y="221.6387">«dogen::handcrafted::typeable, dogen::pretty_printable»</text><text fill="#000000" font-family="sans-serif" font-size="12" lengthAdjust="spacingAndGlyphs" textLength="78" x="1964" y="235.6074">file_backend</text><line style="stroke: #A80036; stroke-width: 1.5;" x1="1798" x2="2182" y1="243.4375" y2="243.4375"/><line style="stroke: #A80036; stroke-width: 1.5;" x1="1798" x2="2182" y1="251.4375" y2="251.4375"/><!--MD5=[d524613c4436b85785baa31fb15d8676]
class backend_factory_registrar--><rect fill="#FFFACD" filter="url(#fdu7vx9zjz3qw)" height="66.7422" id="backend_factory_registrar" style="stroke: #A80036; stroke-width: 1.5;" width="579" x="849.5" y="199"/><rect fill="#FFFACD" height="37.9375" style="stroke: #A80036; stroke-width: 1.5;" width="579" x="849.5" y="199"/><ellipse cx="1035.75" cy="217.9688" fill="#ADD1B2" rx="11" ry="11" style="stroke: #A80036; stroke-width: 1.0;"/><path d="M1038.7188,223.6094 Q1038.1406,223.9063 1037.5,224.0547 Q1036.8594,224.2031 1036.1563,224.2031 Q1033.6563,224.2031 1032.3359,222.5547 Q1031.0156,220.9063 1031.0156,217.7813 Q1031.0156,214.6563 1032.3359,213 Q1033.6563,211.3438 1036.1563,211.3438 Q1036.8594,211.3438 1037.5078,211.5 Q1038.1563,211.6563 1038.7188,211.9531 L1038.7188,214.6719 Q1038.0938,214.0938 1037.5,213.8203 Q1036.9063,213.5469 1036.2813,213.5469 Q1034.9375,213.5469 1034.25,214.6172 Q1033.5625,215.6875 1033.5625,217.7813 Q1033.5625,219.875 1034.25,220.9453 Q1034.9375,222.0156 1036.2813,222.0156 Q1036.9063,222.0156 1037.5,221.7422 Q1038.0938,221.4688 1038.7188,220.8906 L1038.7188,223.6094 Z "/><text fill="#000000" font-family="sans-serif" font-size="12" font-style="italic" lengthAdjust="spacingAndGlyphs" textLength="202" x="1054.25" y="215.1387">«dogen::handcrafted::typeable»</text><text fill="#000000" font-family="sans-serif" font-size="12" lengthAdjust="spacingAndGlyphs" textLength="163" x="1073.75" y="229.1074">backend_factory_registrar</text><line style="stroke: #A80036; stroke-width: 1.5;" x1="850.5" x2="1427.5" y1="236.9375" y2="236.9375"/><ellipse cx="860.5" cy="247.9375" fill="none" rx="3" ry="3" style="stroke: #038048; stroke-width: 1.0;"/><text fill="#000000" font-family="sans-serif" font-size="11" lengthAdjust="spacingAndGlyphs" textLength="553" x="869.5" y="251.1479">backend_factories std::unordered_map&lt;tracing_backend, boost::shared_ptr&lt;backend_factory&gt;&gt;</text><line style="stroke: #A80036; stroke-width: 1.5;" x1="850.5" x2="1427.5" y1="257.7422" y2="257.7422"/><!--MD5=[16791588a3f9a6423d02eb0079812554]
class registrar_error--><rect fill="#E8C2F8" filter="url(#fdu7vx9zjz3qw)" height="53.9375" id="registrar_error" style="stroke: #A80036; stroke-width: 1.5;" width="145" x="96.5" y="326"/><rect fill="#E8C2F8" height="37.9375" style="stroke: #A80036; stroke-width: 1.5;" width="145" x="96.5" y="326"/><ellipse cx="111.5" cy="344.9688" fill="#ADD1B2" rx="11" ry="11" style="stroke: #A80036; stroke-width: 1.0;"/><path d="M114.4688,350.6094 Q113.8906,350.9063 113.25,351.0547 Q112.6094,351.2031 111.9063,351.2031 Q109.4063,351.2031 108.0859,349.5547 Q106.7656,347.9063 106.7656,344.7813 Q106.7656,341.6563 108.0859,340 Q109.4063,338.3438 111.9063,338.3438 Q112.6094,338.3438 113.2578,338.5 Q113.9063,338.6563 114.4688,338.9531 L114.4688,341.6719 Q113.8438,341.0938 113.25,340.8203 Q112.6563,340.5469 112.0313,340.5469 Q110.6875,340.5469 110,341.6172 Q109.3125,342.6875 109.3125,344.7813 Q109.3125,346.875 110,347.9453 Q110.6875,349.0156 112.0313,349.0156 Q112.6563,349.0156 113.25,348.7422 Q113.8438,348.4688 114.4688,347.8906 L114.4688,350.6094 Z "/><text fill="#000000" font-family="sans-serif" font-size="12" font-style="italic" lengthAdjust="spacingAndGlyphs" textLength="117" x="123.5" y="342.1387">«masd::exception»</text><text fill="#000000" font-family="sans-serif" font-size="12" lengthAdjust="spacingAndGlyphs" textLength="91" x="136.5" y="356.1074">registrar_error</text><line style="stroke: #A80036; stroke-width: 1.5;" x1="97.5" x2="240.5" y1="363.9375" y2="363.9375"/><line style="stroke: #A80036; stroke-width: 1.5;" x1="97.5" x2="240.5" y1="371.9375" y2="371.9375"/><!--MD5=[380f2d53f9f425092d878b711630915b]
class backend_factory--><rect fill="#FFFACD" filter="url(#fdu7vx9zjz3qw)" height="53.9375" id="backend_factory" style="stroke: #A80036; stroke-width: 1.5;" width="315" x="2218.5" y="46.5"/><rect fill="#FFFACD" height="37.9375" style="stroke: #A80036; stroke-width: 1.5;" width="315" x="2218.5" y="46.5"/><ellipse cx="2233.5" cy="65.4688" fill="#ADD1B2" rx="11" ry="11" style="stroke: #A80036; stroke-width: 1.0;"/><path d="M2236.4688,71.1094 Q2235.8906,71.4063 2235.25,71.5547 Q2234.6094,71.7031 2233.9063,71.7031 Q2231.4063,71.7031 2230.0859,70.0547 Q2228.7656,68.4063 2228.7656,65.2813 Q2228.7656,62.1563 2230.0859,60.5 Q2231.4063,58.8438 2233.9063,58.8438 Q2234.6094,58.8438 2235.2578,59 Q2235.9063,59.1563 2236.4688,59.4531 L2236.4688,62.1719 Q2235.8438,61.5938 2235.25,61.3203 Q2234.6563,61.0469 2234.0313,61.0469 Q2232.6875,61.0469 2232,62.1172 Q2231.3125,63.1875 2231.3125,65.2813 Q2231.3125,67.375 2232,68.4453 Q2232.6875,69.5156 2234.0313,69.5156 Q2234.6563,69.5156 2235.25,69.2422 Q2235.8438,68.9688 2236.4688,68.3906 L2236.4688,71.1094 Z "/><text fill="#000000" font-family="sans-serif" font-size="12" font-style="italic" lengthAdjust="spacingAndGlyphs" textLength="287" x="2245.5" y="62.6387">«dogen::handcrafted::typeable::header_only»</text><text fill="#000000" font-family="sans-serif" font-size="12" lengthAdjust="spacingAndGlyphs" textLength="103" x="2337.5" y="76.6074">backend_factory</text><line style="stroke: #A80036; stroke-width: 1.5;" x1="2219.5" x2="2532.5" y1="84.4375" y2="84.4375"/><line style="stroke: #A80036; stroke-width: 1.5;" x1="2219.5" x2="2532.5" y1="92.4375" y2="92.4375"/><!--MD5=[ea1cba3cfb774dab2e48b89932cf097d]
class file_backend_factory--><rect fill="#FFFACD" filter="url(#fdu7vx9zjz3qw)" height="53.9375" id="file_backend_factory" style="stroke: #A80036; stroke-width: 1.5;" width="230" x="2261" y="205.5"/><rect fill="#FFFACD" height="37.9375" style="stroke: #A80036; stroke-width: 1.5;" width="230" x="2261" y="205.5"/><ellipse cx="2276" cy="224.4688" fill="#ADD1B2" rx="11" ry="11" style="stroke: #A80036; stroke-width: 1.0;"/><path d="M2278.9688,230.1094 Q2278.3906,230.4063 2277.75,230.5547 Q2277.1094,230.7031 2276.4063,230.7031 Q2273.9063,230.7031 2272.5859,229.0547 Q2271.2656,227.4063 2271.2656,224.2813 Q2271.2656,221.1563 2272.5859,219.5 Q2273.9063,217.8438 2276.4063,217.8438 Q2277.1094,217.8438 2277.7578,218 Q2278.4063,218.1563 2278.9688,218.4531 L2278.9688,221.1719 Q2278.3438,220.5938 2277.75,220.3203 Q2277.1563,220.0469 2276.5313,220.0469 Q2275.1875,220.0469 2274.5,221.1172 Q2273.8125,222.1875 2273.8125,224.2813 Q2273.8125,226.375 2274.5,227.4453 Q2275.1875,228.5156 2276.5313,228.5156 Q2277.1563,228.5156 2277.75,228.2422 Q2278.3438,227.9688 2278.9688,227.3906 L2278.9688,230.1094 Z "/><text fill="#000000" font-family="sans-serif" font-size="12" font-style="italic" lengthAdjust="spacingAndGlyphs" textLength="202" x="2288" y="221.6387">«dogen::handcrafted::typeable»</text><text fill="#000000" font-family="sans-serif" font-size="12" lengthAdjust="spacingAndGlyphs" textLength="127" x="2325.5" y="235.6074">file_backend_factory</text><line style="stroke: #A80036; stroke-width: 1.5;" x1="2262" x2="2490" y1="243.4375" y2="243.4375"/><line style="stroke: #A80036; stroke-width: 1.5;" x1="2262" x2="2490" y1="251.4375" y2="251.4375"/><!--MD5=[d54e5852ecfe164bbba509d3a9352ed8]
class initializer--><rect fill="#FFFACD" filter="url(#fdu7vx9zjz3qw)" height="53.9375" id="initializer" style="stroke: #A80036; stroke-width: 1.5;" width="230" x="277" y="326"/><rect fill="#FFFACD" height="37.9375" style="stroke: #A80036; stroke-width: 1.5;" width="230" x="277" y="326"/><ellipse cx="292" cy="344.9688" fill="#ADD1B2" rx="11" ry="11" style="stroke: #A80036; stroke-width: 1.0;"/><path d="M294.9688,350.6094 Q294.3906,350.9063 293.75,351.0547 Q293.1094,351.2031 292.4063,351.2031 Q289.9063,351.2031 288.5859,349.5547 Q287.2656,347.9063 287.2656,344.7813 Q287.2656,341.6563 288.5859,340 Q289.9063,338.3438 292.4063,338.3438 Q293.1094,338.3438 293.7578,338.5 Q294.4063,338.6563 294.9688,338.9531 L294.9688,341.6719 Q294.3438,341.0938 293.75,340.8203 Q293.1563,340.5469 292.5313,340.5469 Q291.1875,340.5469 290.5,341.6172 Q289.8125,342.6875 289.8125,344.7813 Q289.8125,346.875 290.5,347.9453 Q291.1875,349.0156 292.5313,349.0156 Q293.1563,349.0156 293.75,348.7422 Q294.3438,348.4688 294.9688,347.8906 L294.9688,350.6094 Z "/><text fill="#000000" font-family="sans-serif" font-size="12" font-style="italic" lengthAdjust="spacingAndGlyphs" textLength="202" x="304" y="342.1387">«dogen::handcrafted::typeable»</text><text fill="#000000" font-family="sans-serif" font-size="12" lengthAdjust="spacingAndGlyphs" textLength="54" x="378" y="356.1074">initializer</text><line style="stroke: #A80036; stroke-width: 1.5;" x1="278" x2="506" y1="363.9375" y2="363.9375"/><line style="stroke: #A80036; stroke-width: 1.5;" x1="278" x2="506" y1="371.9375" y2="371.9375"/><!--MD5=[4520fda4e10d4d791ce48fe025810cd4]
class main--><rect fill="#DDA9F3" filter="url(#fdu7vx9zjz3qw)" height="53.9375" id="main" style="stroke: #A80036; stroke-width: 1.5;" width="273" x="542.5" y="326"/><rect fill="#DDA9F3" height="37.9375" style="stroke: #A80036; stroke-width: 1.5;" width="273" x="542.5" y="326"/><ellipse cx="557.5" cy="344.9688" fill="#ADD1B2" rx="11" ry="11" style="stroke: #A80036; stroke-width: 1.0;"/><path d="M560.4688,350.6094 Q559.8906,350.9063 559.25,351.0547 Q558.6094,351.2031 557.9063,351.2031 Q555.4063,351.2031 554.0859,349.5547 Q552.7656,347.9063 552.7656,344.7813 Q552.7656,341.6563 554.0859,340 Q555.4063,338.3438 557.9063,338.3438 Q558.6094,338.3438 559.2578,338.5 Q559.9063,338.6563 560.4688,338.9531 L560.4688,341.6719 Q559.8438,341.0938 559.25,340.8203 Q558.6563,340.5469 558.0313,340.5469 Q556.6875,340.5469 556,341.6172 Q555.3125,342.6875 555.3125,344.7813 Q555.3125,346.875 556,347.9453 Q556.6875,349.0156 558.0313,349.0156 Q558.6563,349.0156 559.25,348.7422 Q559.8438,348.4688 560.4688,347.8906 L560.4688,350.6094 Z "/><text fill="#000000" font-family="sans-serif" font-size="12" font-style="italic" lengthAdjust="spacingAndGlyphs" textLength="245" x="569.5" y="342.1387">«masd::entry_point, dogen::untypable»</text><text fill="#000000" font-family="sans-serif" font-size="12" lengthAdjust="spacingAndGlyphs" textLength="30" x="677" y="356.1074">main</text><line style="stroke: #A80036; stroke-width: 1.5;" x1="543.5" x2="814.5" y1="363.9375" y2="363.9375"/><line style="stroke: #A80036; stroke-width: 1.5;" x1="543.5" x2="814.5" y1="371.9375" y2="371.9375"/><!--MD5=[ba83386d426114557685538e96aa6f68]
class CMakeLists--><rect fill="#99CB99" filter="url(#fdu7vx9zjz3qw)" height="53.9375" id="CMakeLists" style="stroke: #A80036; stroke-width: 1.5;" width="367" x="2526.5" y="205.5"/><rect fill="#99CB99" height="37.9375" style="stroke: #A80036; stroke-width: 1.5;" width="367" x="2526.5" y="205.5"/><ellipse cx="2541.5" cy="224.4688" fill="#ADD1B2" rx="11" ry="11" style="stroke: #A80036; stroke-width: 1.0;"/><path d="M2544.4688,230.1094 Q2543.8906,230.4063 2543.25,230.5547 Q2542.6094,230.7031 2541.9063,230.7031 Q2539.4063,230.7031 2538.0859,229.0547 Q2536.7656,227.4063 2536.7656,224.2813 Q2536.7656,221.1563 2538.0859,219.5 Q2539.4063,217.8438 2541.9063,217.8438 Q2542.6094,217.8438 2543.2578,218 Q2543.9063,218.1563 2544.4688,218.4531 L2544.4688,221.1719 Q2543.8438,220.5938 2543.25,220.3203 Q2542.6563,220.0469 2542.0313,220.0469 Q2540.6875,220.0469 2540,221.1172 Q2539.3125,222.1875 2539.3125,224.2813 Q2539.3125,226.375 2540,227.4453 Q2540.6875,228.5156 2542.0313,228.5156 Q2542.6563,228.5156 2543.25,228.2422 Q2543.8438,227.9688 2544.4688,227.3906 L2544.4688,230.1094 Z "/><text fill="#000000" font-family="sans-serif" font-size="12" font-style="italic" lengthAdjust="spacingAndGlyphs" textLength="339" x="2553.5" y="221.6387">«masd::build::cmakelists, dogen::handcrafted::cmake»</text><text fill="#000000" font-family="sans-serif" font-size="12" lengthAdjust="spacingAndGlyphs" textLength="69" x="2688.5" y="235.6074">CMakeLists</text><line style="stroke: #A80036; stroke-width: 1.5;" x1="2527.5" x2="2892.5" y1="243.4375" y2="243.4375"/><line style="stroke: #A80036; stroke-width: 1.5;" x1="2527.5" x2="2892.5" y1="251.4375" y2="251.4375"/><path d="M2697.5,53.5 L2697.5,93.7656 A0,0 0 0 0 2697.5,93.7656 L2706,93.7656 L2710,205.29 L2714,93.7656 L2722.5,93.7656 A0,0 0 0 0 2722.5,93.7656 L2722.5,63.5 L2712.5,53.5 L2697.5,53.5 A0,0 0 0 0 2697.5,53.5 " fill="#FBFB77" filter="url(#fdu7vx9zjz3qw)" style="stroke: #A80036; stroke-width: 1.0;"/><path d="M2712.5,53.5 L2712.5,63.5 L2722.5,63.5 L2712.5,53.5 " fill="#FBFB77" style="stroke: #A80036; stroke-width: 1.0;"/><text fill="#000000" font-family="sans-serif" font-size="13" lengthAdjust="spacingAndGlyphs" textLength="0" x="2707.5" y="70.5669"/><text fill="#000000" font-family="sans-serif" font-size="13" lengthAdjust="spacingAndGlyphs" textLength="0" x="2707.5" y="85.6997"/><!--MD5=[e0088094388be214025e11d199a7616f]
reverse link backend to file_backend--><path d="M1990,121.18 C1990,148.71 1990,182.52 1990,205.4 " fill="none" id="backend&lt;-file_backend" style="stroke: #A80036; stroke-width: 1.0;"/><polygon fill="none" points="1983,120.78,1990,100.78,1997,120.78,1983,120.78" style="stroke: #A80036; stroke-width: 1.0;"/><!--MD5=[b2f00ac79e73d0c2935b9e8ecfdb021f]
reverse link backend_factory to file_backend_factory--><path d="M2376,121.18 C2376,148.71 2376,182.52 2376,205.4 " fill="none" id="backend_factory&lt;-file_backend_factory" style="stroke: #A80036; stroke-width: 1.0;"/><polygon fill="none" points="2369,120.78,2376,100.78,2383,120.78,2369,120.78" style="stroke: #A80036; stroke-width: 1.0;"/><!--MD5=[4369be315d1820126a1176d3a930006e]
link N1 to tracer--><!--MD5=[c34f450d703f09a703e9b64402a7f12d]
link tracer to metrics--><!--MD5=[3dc8a356470ea760fbb976203b20cfe7]
link metrics to metrics_builder--><!--MD5=[b43caa1a5b528e66bbc696f1d85be331]
link N1 to metrics_printer--><!--MD5=[5338338189d7eb4591472b3713ab9cd7]
link metrics_printer to scoped_tracer--><!--MD5=[a4a7b919b742a70ac81d06fe4ac4d624]
link scoped_tracer to references_printer--><!--MD5=[e8f9097fe556beef6e34b70a25ca7eca]
link references_printer to backend_factory_registrar--><!--MD5=[15e272c414bf0a90d18fd9a13140a57b]
link metrics_printer to registrar_error--><!--MD5=[6f6a140f23cd8573651731f0ac14468f]
link registrar_error to initializer--><!--MD5=[5653eca4263751759b7327e12ef7a0aa]
link initializer to main--><!--MD5=[f6789c221779abbc886dad3eec625db4]
@startuml
set namespaceSeparator ::
note as N1

Houses classes common to all transformations.

end note

class tracer <<dogen::handcrafted::typeable, dogen::pretty_printable>> #FFFACD {
        +{field} backend boost::shared_ptr<backend>
}

class metrics <<dogen::untestable>> #ED8181 {
        +{field} transform_id std::string
        +{field} model_id std::string
        +{field} guid std::string
        +{field} start unsigned long
        +{field} end unsigned long
        +{field} children std::list<boost::shared_ptr<metrics>>
}

class metrics_builder <<dogen::handcrafted::typeable>> #FFFACD {
}

class metrics_printer <<dogen::handcrafted::typeable>> #FFFACD {
}

class tracing_error <<masd::exception>> #E8C2F8 {
}

note top of  tracing_error

An error occurred when trying to generate tracing data.

end note

class scoped_tracer <<dogen::handcrafted::typeable>> #FFFACD {
}

class references_printer <<dogen::handcrafted::typeable>> #FFFACD {
}

class backend <<dogen::handcrafted::typeable, dogen::pretty_printable>> #FFFACD {
}

class file_backend <<dogen::handcrafted::typeable, dogen::pretty_printable>> #FFFACD {
}

backend <|- - file_backend
class backend_factory_registrar <<dogen::handcrafted::typeable>> #FFFACD {
        +{field} backend_factories std::unordered_map<tracing_backend, boost::shared_ptr<backend_factory>>
}

class registrar_error <<masd::exception>> #E8C2F8 {
}

class backend_factory <<dogen::handcrafted::typeable::header_only>> #FFFACD {
}

class file_backend_factory <<dogen::handcrafted::typeable>> #FFFACD {
}

backend_factory <|- - file_backend_factory
class initializer <<dogen::handcrafted::typeable>> #FFFACD {
}

class main <<masd::entry_point, dogen::untypable>> #DDA9F3 {
}

class CMakeLists <<masd::build::cmakelists, dogen::handcrafted::cmake>> #99CB99 {
}

note top of  CMakeLists


end note

@enduml

PlantUML version 1.2020.02(Sun Mar 01 10:22:07 GMT 2020)
(GPL source distribution)
Java Runtime: OpenJDK Runtime Environment
JVM: OpenJDK 64-Bit Server VM
Java Version: 1.8.0_212-8u212-b03-2~deb9u1-b03
Operating System: Linux
Default Encoding: UTF-8
Language: en
Country: GB
--></g></svg>