<?xml version="1.0" encoding="UTF-8" standalone="no"?><svg xmlns="http://www.w3.org/2000/svg" xmlns:xlink="http://www.w3.org/1999/xlink" contentScriptType="application/ecmascript" contentStyleType="text/css" height="492px" preserveAspectRatio="none" style="width:1661px;height:492px;" version="1.1" viewBox="0 0 1661 492" width="1661px" zoomAndPan="magnify"><defs><filter height="300%" id="f4drugxti8t4i" width="300%" x="-1" y="-1"><feGaussianBlur result="blurOut" stdDeviation="2.0"/><feColorMatrix in="blurOut" result="blurOut2" type="matrix" values="0 0 0 0 0 0 0 0 0 0 0 0 0 0 0 0 0 0 .4 0"/><feOffset dx="4.0" dy="4.0" in="blurOut2" result="blurOut3"/><feBlend in="SourceGraphic" in2="blurOut3" mode="normal"/></filter></defs><g><path d="M15,8 L15,63.3984 L364,63.3984 L364,18 L354,8 L15,8 " fill="#FBFB77" filter="url(#f4drugxti8t4i)" style="stroke: #A80036; stroke-width: 1.0;"/><path d="M354,8 L354,18 L364,18 L354,8 " fill="#FBFB77" style="stroke: #A80036; stroke-width: 1.0;"/><text fill="#000000" font-family="sans-serif" font-size="13" lengthAdjust="spacingAndGlyphs" textLength="0" x="25" y="25.0669"/><text fill="#000000" font-family="sans-serif" font-size="13" lengthAdjust="spacingAndGlyphs" textLength="328" x="21" y="40.1997">Implements the command-line interface for Dogen.</text><text fill="#000000" font-family="sans-serif" font-size="13" lengthAdjust="spacingAndGlyphs" textLength="0" x="25" y="55.3325"/><!--MD5=[19d92d75b2be9a5f372e551632eaad56]
class parser_exception--><rect fill="#E8C2F8" filter="url(#f4drugxti8t4i)" height="53.9375" id="parser_exception" style="stroke: #A80036; stroke-width: 1.5;" width="145" x="399" y="8.5"/><rect fill="#E8C2F8" height="37.9375" style="stroke: #A80036; stroke-width: 1.5;" width="145" x="399" y="8.5"/><ellipse cx="414" cy="27.4688" fill="#ADD1B2" rx="11" ry="11" style="stroke: #A80036; stroke-width: 1.0;"/><path d="M416.9688,33.1094 Q416.3906,33.4063 415.75,33.5547 Q415.1094,33.7031 414.4063,33.7031 Q411.9063,33.7031 410.5859,32.0547 Q409.2656,30.4063 409.2656,27.2813 Q409.2656,24.1563 410.5859,22.5 Q411.9063,20.8438 414.4063,20.8438 Q415.1094,20.8438 415.7578,21 Q416.4063,21.1563 416.9688,21.4531 L416.9688,24.1719 Q416.3438,23.5938 415.75,23.3203 Q415.1563,23.0469 414.5313,23.0469 Q413.1875,23.0469 412.5,24.1172 Q411.8125,25.1875 411.8125,27.2813 Q411.8125,29.375 412.5,30.4453 Q413.1875,31.5156 414.5313,31.5156 Q415.1563,31.5156 415.75,31.2422 Q416.3438,30.9688 416.9688,30.3906 L416.9688,33.1094 Z "/><text fill="#000000" font-family="sans-serif" font-size="12" font-style="italic" lengthAdjust="spacingAndGlyphs" textLength="117" x="426" y="24.6387">«masd::exception»</text><text fill="#000000" font-family="sans-serif" font-size="12" lengthAdjust="spacingAndGlyphs" textLength="108" x="430.5" y="38.6074">parser_exception</text><line style="stroke: #A80036; stroke-width: 1.5;" x1="400" x2="543" y1="46.4375" y2="46.4375"/><line style="stroke: #A80036; stroke-width: 1.5;" x1="400" x2="543" y1="54.4375" y2="54.4375"/><!--MD5=[1700babc4216d044a93a74805c70996c]
class application--><rect fill="#FFFACD" filter="url(#f4drugxti8t4i)" height="53.9375" id="application" style="stroke: #A80036; stroke-width: 1.5;" width="230" x="579.5" y="8.5"/><rect fill="#FFFACD" height="37.9375" style="stroke: #A80036; stroke-width: 1.5;" width="230" x="579.5" y="8.5"/><ellipse cx="594.5" cy="27.4688" fill="#ADD1B2" rx="11" ry="11" style="stroke: #A80036; stroke-width: 1.0;"/><path d="M597.4688,33.1094 Q596.8906,33.4063 596.25,33.5547 Q595.6094,33.7031 594.9063,33.7031 Q592.4063,33.7031 591.0859,32.0547 Q589.7656,30.4063 589.7656,27.2813 Q589.7656,24.1563 591.0859,22.5 Q592.4063,20.8438 594.9063,20.8438 Q595.6094,20.8438 596.2578,21 Q596.9063,21.1563 597.4688,21.4531 L597.4688,24.1719 Q596.8438,23.5938 596.25,23.3203 Q595.6563,23.0469 595.0313,23.0469 Q593.6875,23.0469 593,24.1172 Q592.3125,25.1875 592.3125,27.2813 Q592.3125,29.375 593,30.4453 Q593.6875,31.5156 595.0313,31.5156 Q595.6563,31.5156 596.25,31.2422 Q596.8438,30.9688 597.4688,30.3906 L597.4688,33.1094 Z "/><text fill="#000000" font-family="sans-serif" font-size="12" font-style="italic" lengthAdjust="spacingAndGlyphs" textLength="202" x="606.5" y="24.6387">«dogen::handcrafted::typeable»</text><text fill="#000000" font-family="sans-serif" font-size="12" lengthAdjust="spacingAndGlyphs" textLength="69" x="673" y="38.6074">application</text><line style="stroke: #A80036; stroke-width: 1.5;" x1="580.5" x2="808.5" y1="46.4375" y2="46.4375"/><line style="stroke: #A80036; stroke-width: 1.5;" x1="580.5" x2="808.5" y1="54.4375" y2="54.4375"/><!--MD5=[31e2917de18cd947063b84aa2c6f9552]
class command_line_parser--><rect fill="#FFFACD" filter="url(#f4drugxti8t4i)" height="53.9375" id="command_line_parser" style="stroke: #A80036; stroke-width: 1.5;" width="315" x="1335" y="8.5"/><rect fill="#FFFACD" height="37.9375" style="stroke: #A80036; stroke-width: 1.5;" width="315" x="1335" y="8.5"/><ellipse cx="1350" cy="27.4688" fill="#ADD1B2" rx="11" ry="11" style="stroke: #A80036; stroke-width: 1.0;"/><path d="M1352.9688,33.1094 Q1352.3906,33.4063 1351.75,33.5547 Q1351.1094,33.7031 1350.4063,33.7031 Q1347.9063,33.7031 1346.5859,32.0547 Q1345.2656,30.4063 1345.2656,27.2813 Q1345.2656,24.1563 1346.5859,22.5 Q1347.9063,20.8438 1350.4063,20.8438 Q1351.1094,20.8438 1351.7578,21 Q1352.4063,21.1563 1352.9688,21.4531 L1352.9688,24.1719 Q1352.3438,23.5938 1351.75,23.3203 Q1351.1563,23.0469 1350.5313,23.0469 Q1349.1875,23.0469 1348.5,24.1172 Q1347.8125,25.1875 1347.8125,27.2813 Q1347.8125,29.375 1348.5,30.4453 Q1349.1875,31.5156 1350.5313,31.5156 Q1351.1563,31.5156 1351.75,31.2422 Q1352.3438,30.9688 1352.9688,30.3906 L1352.9688,33.1094 Z "/><text fill="#000000" font-family="sans-serif" font-size="12" font-style="italic" lengthAdjust="spacingAndGlyphs" textLength="287" x="1362" y="24.6387">«dogen::handcrafted::typeable::header_only»</text><text fill="#000000" font-family="sans-serif" font-size="12" lengthAdjust="spacingAndGlyphs" textLength="136" x="1437.5" y="38.6074">command_line_parser</text><line style="stroke: #A80036; stroke-width: 1.5;" x1="1336" x2="1649" y1="46.4375" y2="46.4375"/><line style="stroke: #A80036; stroke-width: 1.5;" x1="1336" x2="1649" y1="54.4375" y2="54.4375"/><!--MD5=[125701c02a148bb9f8af9b45c45251cb]
class program_options_parser--><rect fill="#FFFACD" filter="url(#f4drugxti8t4i)" height="53.9375" id="program_options_parser" style="stroke: #A80036; stroke-width: 1.5;" width="230" x="1377.5" y="142"/><rect fill="#FFFACD" height="37.9375" style="stroke: #A80036; stroke-width: 1.5;" width="230" x="1377.5" y="142"/><ellipse cx="1392.5" cy="160.9688" fill="#ADD1B2" rx="11" ry="11" style="stroke: #A80036; stroke-width: 1.0;"/><path d="M1395.4688,166.6094 Q1394.8906,166.9063 1394.25,167.0547 Q1393.6094,167.2031 1392.9063,167.2031 Q1390.4063,167.2031 1389.0859,165.5547 Q1387.7656,163.9063 1387.7656,160.7813 Q1387.7656,157.6563 1389.0859,156 Q1390.4063,154.3438 1392.9063,154.3438 Q1393.6094,154.3438 1394.2578,154.5 Q1394.9063,154.6563 1395.4688,154.9531 L1395.4688,157.6719 Q1394.8438,157.0938 1394.25,156.8203 Q1393.6563,156.5469 1393.0313,156.5469 Q1391.6875,156.5469 1391,157.6172 Q1390.3125,158.6875 1390.3125,160.7813 Q1390.3125,162.875 1391,163.9453 Q1391.6875,165.0156 1393.0313,165.0156 Q1393.6563,165.0156 1394.25,164.7422 Q1394.8438,164.4688 1395.4688,163.8906 L1395.4688,166.6094 Z "/><text fill="#000000" font-family="sans-serif" font-size="12" font-style="italic" lengthAdjust="spacingAndGlyphs" textLength="202" x="1404.5" y="158.1387">«dogen::handcrafted::typeable»</text><text fill="#000000" font-family="sans-serif" font-size="12" lengthAdjust="spacingAndGlyphs" textLength="153" x="1429" y="172.1074">program_options_parser</text><line style="stroke: #A80036; stroke-width: 1.5;" x1="1378.5" x2="1606.5" y1="179.9375" y2="179.9375"/><line style="stroke: #A80036; stroke-width: 1.5;" x1="1378.5" x2="1606.5" y1="187.9375" y2="187.9375"/><!--MD5=[32b5f1a360ddc948a263330cc82d5dc3]
class injector_factory--><rect fill="#FFFACD" filter="url(#f4drugxti8t4i)" height="53.9375" id="injector_factory" style="stroke: #A80036; stroke-width: 1.5;" width="315" x="845" y="8.5"/><rect fill="#FFFACD" height="37.9375" style="stroke: #A80036; stroke-width: 1.5;" width="315" x="845" y="8.5"/><ellipse cx="860" cy="27.4688" fill="#ADD1B2" rx="11" ry="11" style="stroke: #A80036; stroke-width: 1.0;"/><path d="M862.9688,33.1094 Q862.3906,33.4063 861.75,33.5547 Q861.1094,33.7031 860.4063,33.7031 Q857.9063,33.7031 856.5859,32.0547 Q855.2656,30.4063 855.2656,27.2813 Q855.2656,24.1563 856.5859,22.5 Q857.9063,20.8438 860.4063,20.8438 Q861.1094,20.8438 861.7578,21 Q862.4063,21.1563 862.9688,21.4531 L862.9688,24.1719 Q862.3438,23.5938 861.75,23.3203 Q861.1563,23.0469 860.5313,23.0469 Q859.1875,23.0469 858.5,24.1172 Q857.8125,25.1875 857.8125,27.2813 Q857.8125,29.375 858.5,30.4453 Q859.1875,31.5156 860.5313,31.5156 Q861.1563,31.5156 861.75,31.2422 Q862.3438,30.9688 862.9688,30.3906 L862.9688,33.1094 Z "/><text fill="#000000" font-family="sans-serif" font-size="12" font-style="italic" lengthAdjust="spacingAndGlyphs" textLength="287" x="872" y="24.6387">«dogen::handcrafted::typeable::header_only»</text><text fill="#000000" font-family="sans-serif" font-size="12" lengthAdjust="spacingAndGlyphs" textLength="96" x="967.5" y="38.6074">injector_factory</text><line style="stroke: #A80036; stroke-width: 1.5;" x1="846" x2="1159" y1="46.4375" y2="46.4375"/><line style="stroke: #A80036; stroke-width: 1.5;" x1="846" x2="1159" y1="54.4375" y2="54.4375"/><!--MD5=[39e485302053a8075caa6c13ab91b957]
class application_exception--><rect fill="#E8C2F8" filter="url(#f4drugxti8t4i)" height="53.9375" id="application_exception" style="stroke: #A80036; stroke-width: 1.5;" width="168" x="105.5" y="142"/><rect fill="#E8C2F8" height="37.9375" style="stroke: #A80036; stroke-width: 1.5;" width="168" x="105.5" y="142"/><ellipse cx="120.5" cy="160.9688" fill="#ADD1B2" rx="11" ry="11" style="stroke: #A80036; stroke-width: 1.0;"/><path d="M123.4688,166.6094 Q122.8906,166.9063 122.25,167.0547 Q121.6094,167.2031 120.9063,167.2031 Q118.4063,167.2031 117.0859,165.5547 Q115.7656,163.9063 115.7656,160.7813 Q115.7656,157.6563 117.0859,156 Q118.4063,154.3438 120.9063,154.3438 Q121.6094,154.3438 122.2578,154.5 Q122.9063,154.6563 123.4688,154.9531 L123.4688,157.6719 Q122.8438,157.0938 122.25,156.8203 Q121.6563,156.5469 121.0313,156.5469 Q119.6875,156.5469 119,157.6172 Q118.3125,158.6875 118.3125,160.7813 Q118.3125,162.875 119,163.9453 Q119.6875,165.0156 121.0313,165.0156 Q121.6563,165.0156 122.25,164.7422 Q122.8438,164.4688 123.4688,163.8906 L123.4688,166.6094 Z "/><text fill="#000000" font-family="sans-serif" font-size="12" font-style="italic" lengthAdjust="spacingAndGlyphs" textLength="117" x="144" y="158.1387">«masd::exception»</text><text fill="#000000" font-family="sans-serif" font-size="12" lengthAdjust="spacingAndGlyphs" textLength="136" x="134.5" y="172.1074">application_exception</text><line style="stroke: #A80036; stroke-width: 1.5;" x1="106.5" x2="272.5" y1="179.9375" y2="179.9375"/><line style="stroke: #A80036; stroke-width: 1.5;" x1="106.5" x2="272.5" y1="187.9375" y2="187.9375"/><!--MD5=[5bbd3befcf1686b7fd148cc582657d1c]
class configuration--><rect fill="#F7E5FF" filter="url(#f4drugxti8t4i)" height="86.4141" id="configuration" style="stroke: #A80036; stroke-width: 1.5;" width="358" x="308.5" y="126"/><rect fill="#F7E5FF" height="32" style="stroke: #A80036; stroke-width: 1.5;" width="358" x="308.5" y="126"/><ellipse cx="441.75" cy="142" fill="#ADD1B2" rx="11" ry="11" style="stroke: #A80036; stroke-width: 1.0;"/><path d="M444.7188,147.6406 Q444.1406,147.9375 443.5,148.0859 Q442.8594,148.2344 442.1563,148.2344 Q439.6563,148.2344 438.3359,146.5859 Q437.0156,144.9375 437.0156,141.8125 Q437.0156,138.6875 438.3359,137.0313 Q439.6563,135.375 442.1563,135.375 Q442.8594,135.375 443.5078,135.5313 Q444.1563,135.6875 444.7188,135.9844 L444.7188,138.7031 Q444.0938,138.125 443.5,137.8516 Q442.9063,137.5781 442.2813,137.5781 Q440.9375,137.5781 440.25,138.6484 Q439.5625,139.7188 439.5625,141.8125 Q439.5625,143.9063 440.25,144.9766 Q440.9375,146.0469 442.2813,146.0469 Q442.9063,146.0469 443.5,145.7734 Q444.0938,145.5 444.7188,144.9219 L444.7188,147.6406 Z "/><text fill="#000000" font-family="sans-serif" font-size="12" lengthAdjust="spacingAndGlyphs" textLength="83" x="462.25" y="146.1543">configuration</text><line style="stroke: #A80036; stroke-width: 1.5;" x1="309.5" x2="665.5" y1="158" y2="158"/><ellipse cx="319.5" cy="169" fill="none" rx="3" ry="3" style="stroke: #038048; stroke-width: 1.0;"/><text fill="#000000" font-family="sans-serif" font-size="11" lengthAdjust="spacingAndGlyphs" textLength="332" x="328.5" y="172.2104">logging boost::optional&lt;utility::log::logging_configuration&gt;</text><ellipse cx="319.5" cy="181.8047" fill="none" rx="3" ry="3" style="stroke: #038048; stroke-width: 1.0;"/><text fill="#000000" font-family="sans-serif" font-size="11" lengthAdjust="spacingAndGlyphs" textLength="138" x="328.5" y="185.0151">api dogen::configuration</text><ellipse cx="319.5" cy="194.6094" fill="none" rx="3" ry="3" style="stroke: #038048; stroke-width: 1.0;"/><text fill="#000000" font-family="sans-serif" font-size="11" lengthAdjust="spacingAndGlyphs" textLength="108" x="328.5" y="197.8198">cli cli_configuration</text><line style="stroke: #A80036; stroke-width: 1.5;" x1="309.5" x2="665.5" y1="204.4141" y2="204.4141"/><!--MD5=[e9a1f03b73bb165adbbef1025b775e42]
class generation_configuration--><rect fill="#F7E5FF" filter="url(#f4drugxti8t4i)" height="92.3516" id="generation_configuration" style="stroke: #A80036; stroke-width: 1.5;" width="404" x="701.5" y="123"/><rect fill="#F7E5FF" height="37.9375" style="stroke: #A80036; stroke-width: 1.5;" width="404" x="701.5" y="123"/><ellipse cx="820.25" cy="141.9688" fill="#ADD1B2" rx="11" ry="11" style="stroke: #A80036; stroke-width: 1.0;"/><path d="M823.2188,147.6094 Q822.6406,147.9063 822,148.0547 Q821.3594,148.2031 820.6563,148.2031 Q818.1563,148.2031 816.8359,146.5547 Q815.5156,144.9063 815.5156,141.7813 Q815.5156,138.6563 816.8359,137 Q818.1563,135.3438 820.6563,135.3438 Q821.3594,135.3438 822.0078,135.5 Q822.6563,135.6563 823.2188,135.9531 L823.2188,138.6719 Q822.5938,138.0938 822,137.8203 Q821.4063,137.5469 820.7813,137.5469 Q819.4375,137.5469 818.75,138.6172 Q818.0625,139.6875 818.0625,141.7813 Q818.0625,143.875 818.75,144.9453 Q819.4375,146.0156 820.7813,146.0156 Q821.4063,146.0156 822,145.7422 Q822.5938,145.4688 823.2188,144.8906 L823.2188,147.6094 Z "/><text fill="#000000" font-family="sans-serif" font-size="12" font-style="italic" lengthAdjust="spacingAndGlyphs" textLength="91" x="874.25" y="139.1387">«masd::fluent»</text><text fill="#000000" font-family="sans-serif" font-size="12" lengthAdjust="spacingAndGlyphs" textLength="158" x="840.75" y="153.1074">generation_configuration</text><line style="stroke: #A80036; stroke-width: 1.5;" x1="702.5" x2="1104.5" y1="160.9375" y2="160.9375"/><ellipse cx="712.5" cy="171.9375" fill="none" rx="3" ry="3" style="stroke: #038048; stroke-width: 1.0;"/><text fill="#000000" font-family="sans-serif" font-size="11" lengthAdjust="spacingAndGlyphs" textLength="378" x="721.5" y="175.1479">reference_model_directories std::vector&lt;boost::filesystem::path&gt;</text><ellipse cx="712.5" cy="184.7422" fill="none" rx="3" ry="3" style="stroke: #038048; stroke-width: 1.0;"/><text fill="#000000" font-family="sans-serif" font-size="11" lengthAdjust="spacingAndGlyphs" textLength="170" x="721.5" y="187.9526">target boost::filesystem::path</text><ellipse cx="712.5" cy="197.5469" fill="none" rx="3" ry="3" style="stroke: #038048; stroke-width: 1.0;"/><text fill="#000000" font-family="sans-serif" font-size="11" lengthAdjust="spacingAndGlyphs" textLength="228" x="721.5" y="200.7573">output_directory boost::filesystem::path</text><line style="stroke: #A80036; stroke-width: 1.5;" x1="702.5" x2="1104.5" y1="207.3516" y2="207.3516"/><!--MD5=[6223d9c3f34e8a15271f3a089fb0a351]
class conversion_configuration--><rect fill="#F7E5FF" filter="url(#f4drugxti8t4i)" height="79.5469" id="conversion_configuration" style="stroke: #A80036; stroke-width: 1.5;" width="201" x="1141" y="129"/><rect fill="#F7E5FF" height="37.9375" style="stroke: #A80036; stroke-width: 1.5;" width="201" x="1141" y="129"/><ellipse cx="1161.4" cy="147.9688" fill="#ADD1B2" rx="11" ry="11" style="stroke: #A80036; stroke-width: 1.0;"/><path d="M1164.3688,153.6094 Q1163.7906,153.9063 1163.15,154.0547 Q1162.5094,154.2031 1161.8063,154.2031 Q1159.3063,154.2031 1157.9859,152.5547 Q1156.6656,150.9063 1156.6656,147.7813 Q1156.6656,144.6563 1157.9859,143 Q1159.3063,141.3438 1161.8063,141.3438 Q1162.5094,141.3438 1163.1578,141.5 Q1163.8063,141.6563 1164.3688,141.9531 L1164.3688,144.6719 Q1163.7438,144.0938 1163.15,143.8203 Q1162.5563,143.5469 1161.9313,143.5469 Q1160.5875,143.5469 1159.9,144.6172 Q1159.2125,145.6875 1159.2125,147.7813 Q1159.2125,149.875 1159.9,150.9453 Q1160.5875,152.0156 1161.9313,152.0156 Q1162.5563,152.0156 1163.15,151.7422 Q1163.7438,151.4688 1164.3688,150.8906 L1164.3688,153.6094 Z "/><text fill="#000000" font-family="sans-serif" font-size="12" font-style="italic" lengthAdjust="spacingAndGlyphs" textLength="91" x="1209.6" y="145.1387">«masd::fluent»</text><text fill="#000000" font-family="sans-serif" font-size="12" lengthAdjust="spacingAndGlyphs" textLength="157" x="1176.6" y="159.1074">conversion_configuration</text><line style="stroke: #A80036; stroke-width: 1.5;" x1="1142" x2="1341" y1="166.9375" y2="166.9375"/><ellipse cx="1152" cy="177.9375" fill="none" rx="3" ry="3" style="stroke: #038048; stroke-width: 1.0;"/><text fill="#000000" font-family="sans-serif" font-size="11" lengthAdjust="spacingAndGlyphs" textLength="175" x="1161" y="181.1479">source boost::filesystem::path</text><ellipse cx="1152" cy="190.7422" fill="none" rx="3" ry="3" style="stroke: #038048; stroke-width: 1.0;"/><text fill="#000000" font-family="sans-serif" font-size="11" lengthAdjust="spacingAndGlyphs" textLength="126" x="1161" y="193.9526">destination std::string</text><line style="stroke: #A80036; stroke-width: 1.5;" x1="1142" x2="1341" y1="200.5469" y2="200.5469"/><!--MD5=[0347ab94eab96366268c1ddf569cc58d]
class configuration_validator--><rect fill="#FFFACD" filter="url(#f4drugxti8t4i)" height="53.9375" id="configuration_validator" style="stroke: #A80036; stroke-width: 1.5;" width="230" x="74.5" y="288"/><rect fill="#FFFACD" height="37.9375" style="stroke: #A80036; stroke-width: 1.5;" width="230" x="74.5" y="288"/><ellipse cx="89.5" cy="306.9688" fill="#ADD1B2" rx="11" ry="11" style="stroke: #A80036; stroke-width: 1.0;"/><path d="M92.4688,312.6094 Q91.8906,312.9063 91.25,313.0547 Q90.6094,313.2031 89.9063,313.2031 Q87.4063,313.2031 86.0859,311.5547 Q84.7656,309.9063 84.7656,306.7813 Q84.7656,303.6563 86.0859,302 Q87.4063,300.3438 89.9063,300.3438 Q90.6094,300.3438 91.2578,300.5 Q91.9063,300.6563 92.4688,300.9531 L92.4688,303.6719 Q91.8438,303.0938 91.25,302.8203 Q90.6563,302.5469 90.0313,302.5469 Q88.6875,302.5469 88,303.6172 Q87.3125,304.6875 87.3125,306.7813 Q87.3125,308.875 88,309.9453 Q88.6875,311.0156 90.0313,311.0156 Q90.6563,311.0156 91.25,310.7422 Q91.8438,310.4688 92.4688,309.8906 L92.4688,312.6094 Z "/><text fill="#000000" font-family="sans-serif" font-size="12" font-style="italic" lengthAdjust="spacingAndGlyphs" textLength="202" x="101.5" y="304.1387">«dogen::handcrafted::typeable»</text><text fill="#000000" font-family="sans-serif" font-size="12" lengthAdjust="spacingAndGlyphs" textLength="143" x="131" y="318.1074">configuration_validator</text><line style="stroke: #A80036; stroke-width: 1.5;" x1="75.5" x2="303.5" y1="325.9375" y2="325.9375"/><line style="stroke: #A80036; stroke-width: 1.5;" x1="75.5" x2="303.5" y1="333.9375" y2="333.9375"/><!--MD5=[d54e5852ecfe164bbba509d3a9352ed8]
class initializer--><rect fill="#FFFACD" filter="url(#f4drugxti8t4i)" height="53.9375" id="initializer" style="stroke: #A80036; stroke-width: 1.5;" width="230" x="339.5" y="288"/><rect fill="#FFFACD" height="37.9375" style="stroke: #A80036; stroke-width: 1.5;" width="230" x="339.5" y="288"/><ellipse cx="354.5" cy="306.9688" fill="#ADD1B2" rx="11" ry="11" style="stroke: #A80036; stroke-width: 1.0;"/><path d="M357.4688,312.6094 Q356.8906,312.9063 356.25,313.0547 Q355.6094,313.2031 354.9063,313.2031 Q352.4063,313.2031 351.0859,311.5547 Q349.7656,309.9063 349.7656,306.7813 Q349.7656,303.6563 351.0859,302 Q352.4063,300.3438 354.9063,300.3438 Q355.6094,300.3438 356.2578,300.5 Q356.9063,300.6563 357.4688,300.9531 L357.4688,303.6719 Q356.8438,303.0938 356.25,302.8203 Q355.6563,302.5469 355.0313,302.5469 Q353.6875,302.5469 353,303.6172 Q352.3125,304.6875 352.3125,306.7813 Q352.3125,308.875 353,309.9453 Q353.6875,311.0156 355.0313,311.0156 Q355.6563,311.0156 356.25,310.7422 Q356.8438,310.4688 357.4688,309.8906 L357.4688,312.6094 Z "/><text fill="#000000" font-family="sans-serif" font-size="12" font-style="italic" lengthAdjust="spacingAndGlyphs" textLength="202" x="366.5" y="304.1387">«dogen::handcrafted::typeable»</text><text fill="#000000" font-family="sans-serif" font-size="12" lengthAdjust="spacingAndGlyphs" textLength="54" x="440.5" y="318.1074">initializer</text><line style="stroke: #A80036; stroke-width: 1.5;" x1="340.5" x2="568.5" y1="325.9375" y2="325.9375"/><line style="stroke: #A80036; stroke-width: 1.5;" x1="340.5" x2="568.5" y1="333.9375" y2="333.9375"/><!--MD5=[38493dad98929d929ee10f8669b423ff]
class cli_configuration--><rect fill="#F7E5FF" filter="url(#f4drugxti8t4i)" height="79.5469" id="cli_configuration" style="stroke: #A80036; stroke-width: 1.5;" width="611" x="605" y="275"/><rect fill="#F7E5FF" height="37.9375" style="stroke: #A80036; stroke-width: 1.5;" width="611" x="605" y="275"/><ellipse cx="855.25" cy="293.9688" fill="#ADD1B2" rx="11" ry="11" style="stroke: #A80036; stroke-width: 1.0;"/><path d="M858.2188,299.6094 Q857.6406,299.9063 857,300.0547 Q856.3594,300.2031 855.6563,300.2031 Q853.1563,300.2031 851.8359,298.5547 Q850.5156,296.9063 850.5156,293.7813 Q850.5156,290.6563 851.8359,289 Q853.1563,287.3438 855.6563,287.3438 Q856.3594,287.3438 857.0078,287.5 Q857.6563,287.6563 858.2188,287.9531 L858.2188,290.6719 Q857.5938,290.0938 857,289.8203 Q856.4063,289.5469 855.7813,289.5469 Q854.4375,289.5469 853.75,290.6172 Q853.0625,291.6875 853.0625,293.7813 Q853.0625,295.875 853.75,296.9453 Q854.4375,298.0156 855.7813,298.0156 Q856.4063,298.0156 857,297.7422 Q857.5938,297.4688 858.2188,296.8906 L858.2188,299.6094 Z "/><text fill="#000000" font-family="sans-serif" font-size="12" font-style="italic" lengthAdjust="spacingAndGlyphs" textLength="91" x="881.25" y="291.1387">«masd::fluent»</text><text fill="#000000" font-family="sans-serif" font-size="12" lengthAdjust="spacingAndGlyphs" textLength="102" x="875.75" y="305.1074">cli_configuration</text><line style="stroke: #A80036; stroke-width: 1.5;" x1="606" x2="1215" y1="312.9375" y2="312.9375"/><ellipse cx="616" cy="323.9375" fill="none" rx="3" ry="3" style="stroke: #038048; stroke-width: 1.0;"/><text fill="#000000" font-family="sans-serif" font-size="11" lengthAdjust="spacingAndGlyphs" textLength="585" x="625" y="327.1479">activity boost::variant&lt;generation_configuration, conversion_configuration, dumpspecs_configuration&gt;</text><ellipse cx="616" cy="336.7422" fill="none" rx="3" ry="3" style="stroke: #038048; stroke-width: 1.0;"/><text fill="#000000" font-family="sans-serif" font-size="11" lengthAdjust="spacingAndGlyphs" textLength="248" x="625" y="339.9526">byproduct_directory boost::filesystem::path</text><line style="stroke: #A80036; stroke-width: 1.5;" x1="606" x2="1215" y1="346.5469" y2="346.5469"/><!--MD5=[4520fda4e10d4d791ce48fe025810cd4]
class main--><rect fill="#DDA9F3" filter="url(#f4drugxti8t4i)" height="53.9375" id="main" style="stroke: #A80036; stroke-width: 1.5;" width="154" x="1251.5" y="288"/><rect fill="#DDA9F3" height="37.9375" style="stroke: #A80036; stroke-width: 1.5;" width="154" x="1251.5" y="288"/><ellipse cx="1266.5" cy="306.9688" fill="#ADD1B2" rx="11" ry="11" style="stroke: #A80036; stroke-width: 1.0;"/><path d="M1269.4688,312.6094 Q1268.8906,312.9063 1268.25,313.0547 Q1267.6094,313.2031 1266.9063,313.2031 Q1264.4063,313.2031 1263.0859,311.5547 Q1261.7656,309.9063 1261.7656,306.7813 Q1261.7656,303.6563 1263.0859,302 Q1264.4063,300.3438 1266.9063,300.3438 Q1267.6094,300.3438 1268.2578,300.5 Q1268.9063,300.6563 1269.4688,300.9531 L1269.4688,303.6719 Q1268.8438,303.0938 1268.25,302.8203 Q1267.6563,302.5469 1267.0313,302.5469 Q1265.6875,302.5469 1265,303.6172 Q1264.3125,304.6875 1264.3125,306.7813 Q1264.3125,308.875 1265,309.9453 Q1265.6875,311.0156 1267.0313,311.0156 Q1267.6563,311.0156 1268.25,310.7422 Q1268.8438,310.4688 1269.4688,309.8906 L1269.4688,312.6094 Z "/><text fill="#000000" font-family="sans-serif" font-size="12" font-style="italic" lengthAdjust="spacingAndGlyphs" textLength="126" x="1278.5" y="304.1387">«masd::entry_point»</text><text fill="#000000" font-family="sans-serif" font-size="12" lengthAdjust="spacingAndGlyphs" textLength="30" x="1326.5" y="318.1074">main</text><line style="stroke: #A80036; stroke-width: 1.5;" x1="1252.5" x2="1404.5" y1="325.9375" y2="325.9375"/><line style="stroke: #A80036; stroke-width: 1.5;" x1="1252.5" x2="1404.5" y1="333.9375" y2="333.9375"/><!--MD5=[ba83386d426114557685538e96aa6f68]
class CMakeLists--><rect fill="#99CB99" filter="url(#f4drugxti8t4i)" height="53.9375" id="CMakeLists" style="stroke: #A80036; stroke-width: 1.5;" width="367" x="6" y="421.5"/><rect fill="#99CB99" height="37.9375" style="stroke: #A80036; stroke-width: 1.5;" width="367" x="6" y="421.5"/><ellipse cx="21" cy="440.4688" fill="#ADD1B2" rx="11" ry="11" style="stroke: #A80036; stroke-width: 1.0;"/><path d="M23.9688,446.1094 Q23.3906,446.4063 22.75,446.5547 Q22.1094,446.7031 21.4063,446.7031 Q18.9063,446.7031 17.5859,445.0547 Q16.2656,443.4063 16.2656,440.2813 Q16.2656,437.1563 17.5859,435.5 Q18.9063,433.8438 21.4063,433.8438 Q22.1094,433.8438 22.7578,434 Q23.4063,434.1563 23.9688,434.4531 L23.9688,437.1719 Q23.3438,436.5938 22.75,436.3203 Q22.1563,436.0469 21.5313,436.0469 Q20.1875,436.0469 19.5,437.1172 Q18.8125,438.1875 18.8125,440.2813 Q18.8125,442.375 19.5,443.4453 Q20.1875,444.5156 21.5313,444.5156 Q22.1563,444.5156 22.75,444.2422 Q23.3438,443.9688 23.9688,443.3906 L23.9688,446.1094 Z "/><text fill="#000000" font-family="sans-serif" font-size="12" font-style="italic" lengthAdjust="spacingAndGlyphs" textLength="339" x="33" y="437.6387">«masd::build::cmakelists, dogen::handcrafted::cmake»</text><text fill="#000000" font-family="sans-serif" font-size="12" lengthAdjust="spacingAndGlyphs" textLength="69" x="168" y="451.6074">CMakeLists</text><line style="stroke: #A80036; stroke-width: 1.5;" x1="7" x2="372" y1="459.4375" y2="459.4375"/><line style="stroke: #A80036; stroke-width: 1.5;" x1="7" x2="372" y1="467.4375" y2="467.4375"/><!--MD5=[2a9c6b040fa43722a67025e2e82f0947]
class dumpspecs_configuration--><rect fill="#F7E5FF" filter="url(#f4drugxti8t4i)" height="66.7422" id="dumpspecs_configuration" style="stroke: #A80036; stroke-width: 1.5;" width="193" x="408" y="415"/><rect fill="#F7E5FF" height="37.9375" style="stroke: #A80036; stroke-width: 1.5;" width="193" x="408" y="415"/><ellipse cx="423" cy="433.9688" fill="#ADD1B2" rx="11" ry="11" style="stroke: #A80036; stroke-width: 1.0;"/><path d="M425.9688,439.6094 Q425.3906,439.9063 424.75,440.0547 Q424.1094,440.2031 423.4063,440.2031 Q420.9063,440.2031 419.5859,438.5547 Q418.2656,436.9063 418.2656,433.7813 Q418.2656,430.6563 419.5859,429 Q420.9063,427.3438 423.4063,427.3438 Q424.1094,427.3438 424.7578,427.5 Q425.4063,427.6563 425.9688,427.9531 L425.9688,430.6719 Q425.3438,430.0938 424.75,429.8203 Q424.1563,429.5469 423.5313,429.5469 Q422.1875,429.5469 421.5,430.6172 Q420.8125,431.6875 420.8125,433.7813 Q420.8125,435.875 421.5,436.9453 Q422.1875,438.0156 423.5313,438.0156 Q424.1563,438.0156 424.75,437.7422 Q425.3438,437.4688 425.9688,436.8906 L425.9688,439.6094 Z "/><text fill="#000000" font-family="sans-serif" font-size="12" font-style="italic" lengthAdjust="spacingAndGlyphs" textLength="91" x="472" y="431.1387">«masd::fluent»</text><text fill="#000000" font-family="sans-serif" font-size="12" lengthAdjust="spacingAndGlyphs" textLength="161" x="437" y="445.1074">dumpspecs_configuration</text><line style="stroke: #A80036; stroke-width: 1.5;" x1="409" x2="600" y1="452.9375" y2="452.9375"/><ellipse cx="419" cy="463.9375" fill="none" rx="3" ry="3" style="stroke: #038048; stroke-width: 1.0;"/><text fill="#000000" font-family="sans-serif" font-size="11" lengthAdjust="spacingAndGlyphs" textLength="116" x="428" y="467.1479">style reporting_style</text><line style="stroke: #A80036; stroke-width: 1.5;" x1="409" x2="600" y1="473.7422" y2="473.7422"/><!--MD5=[397d303c4aab79a49b7a62974140bade]
reverse link command_line_parser to program_options_parser--><path d="M1492.5,82.84 C1492.5,102.6 1492.5,124.92 1492.5,141.75 " fill="none" id="command_line_parser&lt;-program_options_parser" style="stroke: #A80036; stroke-width: 1.0;"/><polygon fill="none" points="1485.5,82.79,1492.5,62.79,1499.5,82.79,1485.5,82.79" style="stroke: #A80036; stroke-width: 1.0;"/><!--MD5=[1bb03485c2f23dc01a829d80018152bd]
link N1 to parser_exception--><!--MD5=[1769875d82f32962e941f03de0a521d7]
link parser_exception to application--><!--MD5=[033776c0ad4adeb4491ff99639e273a7]
link application to injector_factory--><!--MD5=[61bfd4e34d362b72e28ed6d0950afbc5]
link N1 to application_exception--><!--MD5=[5937e1019b605c732a7f0becd4dbb369]
link application_exception to configuration--><!--MD5=[004192abd8cfb69d24fdd830cd2608eb]
link configuration to generation_configuration--><!--MD5=[62d2e60af5686cd923b80f686556b5c5]
link generation_configuration to conversion_configuration--><!--MD5=[6c73a2eac03f71af8b9d0696362e0ad5]
link application_exception to configuration_validator--><!--MD5=[0b472ea8be862a3c05c5edab71e712b1]
link configuration_validator to initializer--><!--MD5=[907168909cfe8ebff78c549d654568e8]
link initializer to cli_configuration--><!--MD5=[bc3710eac528ada4537cc3dd0a21adee]
link cli_configuration to main--><!--MD5=[4aada21be9edfdbd4388308182f8d38a]
link configuration_validator to CMakeLists--><!--MD5=[3cca5b85e7585acfcc5727609d47fd04]
link CMakeLists to dumpspecs_configuration--><!--MD5=[e38e4964e8c64dbdebe1bc9f68037d5d]
@startuml
set namespaceSeparator ::
note as N1

Implements the command-line interface for Dogen.

end note

class parser_exception <<masd::exception>> #E8C2F8 {
}

class application <<dogen::handcrafted::typeable>> #FFFACD {
}

class command_line_parser <<dogen::handcrafted::typeable::header_only>> #FFFACD {
}

class program_options_parser <<dogen::handcrafted::typeable>> #FFFACD {
}

command_line_parser <|- - program_options_parser
class injector_factory <<dogen::handcrafted::typeable::header_only>> #FFFACD {
}

class application_exception <<masd::exception>> #E8C2F8 {
}

class configuration #F7E5FF {
        +{field} logging boost::optional<utility::log::logging_configuration>
        +{field} api dogen::configuration
        +{field} cli cli_configuration
}

class generation_configuration <<masd::fluent>> #F7E5FF {
        +{field} reference_model_directories std::vector<boost::filesystem::path>
        +{field} target boost::filesystem::path
        +{field} output_directory boost::filesystem::path
}

class conversion_configuration <<masd::fluent>> #F7E5FF {
        +{field} source boost::filesystem::path
        +{field} destination std::string
}

class configuration_validator <<dogen::handcrafted::typeable>> #FFFACD {
}

class initializer <<dogen::handcrafted::typeable>> #FFFACD {
}

class cli_configuration <<masd::fluent>> #F7E5FF {
        +{field} activity boost::variant<generation_configuration, conversion_configuration, dumpspecs_configuration>
        +{field} byproduct_directory boost::filesystem::path
}

class main <<masd::entry_point>> #DDA9F3 {
}

class CMakeLists <<masd::build::cmakelists, dogen::handcrafted::cmake>> #99CB99 {
}

class dumpspecs_configuration <<masd::fluent>> #F7E5FF {
        +{field} style reporting_style
}

@enduml

PlantUML version 1.2020.02(Sun Mar 01 10:22:07 GMT 2020)
(GPL source distribution)
Java Runtime: OpenJDK Runtime Environment
JVM: OpenJDK 64-Bit Server VM
Java Version: 1.8.0_212-8u212-b03-2~deb9u1-b03
Operating System: Linux
Default Encoding: UTF-8
Language: en
Country: GB
--></g></svg>