<?xml version="1.0" encoding="UTF-8" standalone="no"?><svg xmlns="http://www.w3.org/2000/svg" xmlns:xlink="http://www.w3.org/1999/xlink" contentStyleType="text/css" height="264px" preserveAspectRatio="none" style="width:4430px;height:264px;background:#FFFFFF;" version="1.1" viewBox="0 0 4430 264" width="4430px" zoomAndPan="magnify"><defs/><g><g id="elem_N1"><path d="M6,6 L6,91.6641 L362,91.6641 L362,16 L352,6 L6,6 " fill="#FEFFDD" style="stroke:#181818;stroke-width:0.5;"/><path d="M352,6 L352,16 L362,16 L352,6 " fill="#FEFFDD" style="stroke:#181818;stroke-width:1.0;"/><text fill="#000000" font-family="sans-serif" font-size="13" lengthAdjust="spacing" textLength="335" x="12" y="23.0669">Implements the command-line interface for Dogen.</text><text fill="#000000" font-family="sans-serif" font-size="13" lengthAdjust="spacing" textLength="4" x="12" y="38.1997"> </text><text fill="#000000" font-family="sans-serif" font-size="13" lengthAdjust="spacing" textLength="131" x="12" y="53.3325">UML representation:</text><text fill="#000000" font-family="sans-serif" font-size="13" lengthAdjust="spacing" textLength="4" x="12" y="68.4653"> </text><text fill="#000000" font-family="sans-serif" font-size="13" lengthAdjust="spacing" textLength="297" x="12" y="83.5981">\image html dogen.cli/modeling/dogen.cli.svg</text></g><!--MD5=[19d92d75b2be9a5f372e551632eaad56]
class parser_exception--><g id="elem_parser_exception"><rect codeLine="10" fill="#E8C2F8" height="56.2656" id="parser_exception" rx="2.5" ry="2.5" style="stroke:#181818;stroke-width:0.5;" width="155" x="999.5" y="176.5"/><ellipse cx="1014.5" cy="196.6328" fill="#ADD1B2" rx="11" ry="11" style="stroke:#181818;stroke-width:1.0;"/><path d="M1017.4688,202.2734 Q1016.8906,202.5703 1016.25,202.7188 Q1015.6094,202.8672 1014.9063,202.8672 Q1012.4063,202.8672 1011.0859,201.2188 Q1009.7656,199.5703 1009.7656,196.4453 Q1009.7656,193.3203 1011.0859,191.6641 Q1012.4063,190.0078 1014.9063,190.0078 Q1015.6094,190.0078 1016.2578,190.1641 Q1016.9063,190.3203 1017.4688,190.6172 L1017.4688,193.3359 Q1016.8438,192.7578 1016.25,192.4844 Q1015.6563,192.2109 1015.0313,192.2109 Q1013.6875,192.2109 1013,193.2813 Q1012.3125,194.3516 1012.3125,196.4453 Q1012.3125,198.5391 1013,199.6094 Q1013.6875,200.6797 1015.0313,200.6797 Q1015.6563,200.6797 1016.25,200.4063 Q1016.8438,200.1328 1017.4688,199.5547 L1017.4688,202.2734 Z " fill="#000000"/><text fill="#000000" font-family="sans-serif" font-size="12" font-style="italic" lengthAdjust="spacing" textLength="114" x="1033" y="192.6387">«masd::exception»</text><text fill="#000000" font-family="sans-serif" font-size="14" lengthAdjust="spacing" textLength="123" x="1028.5" y="208.4639">parser_exception</text><line style="stroke:#181818;stroke-width:0.5;" x1="1000.5" x2="1153.5" y1="216.7656" y2="216.7656"/><line style="stroke:#181818;stroke-width:0.5;" x1="1000.5" x2="1153.5" y1="224.7656" y2="224.7656"/></g><g id="elem_GMN4"><path d="M911,36.5 L911,61.6328 A0,0 0 0 0 911,61.6328 L1073,61.6328 L1077,176.31 L1081,61.6328 L1243,61.6328 A0,0 0 0 0 1243,61.6328 L1243,46.5 L1233,36.5 L911,36.5 A0,0 0 0 0 911,36.5 " fill="#FEFFDD" style="stroke:#181818;stroke-width:0.5;"/><path d="M1233,36.5 L1233,46.5 L1243,46.5 L1233,36.5 " fill="#FEFFDD" style="stroke:#181818;stroke-width:0.5;"/><text fill="#000000" font-family="sans-serif" font-size="13" lengthAdjust="spacing" textLength="311" x="917" y="53.5669">A fatal error has occurred during option parsing.</text></g><!--MD5=[1700babc4216d044a93a74805c70996c]
class application--><g id="elem_application"><rect codeLine="17" fill="#FFFACD" height="56.2656" id="application" rx="2.5" ry="2.5" style="stroke:#181818;stroke-width:0.5;" width="222" x="397" y="21"/><ellipse cx="412" cy="41.1328" fill="#ADD1B2" rx="11" ry="11" style="stroke:#181818;stroke-width:1.0;"/><path d="M414.9688,46.7734 Q414.3906,47.0703 413.75,47.2188 Q413.1094,47.3672 412.4063,47.3672 Q409.9063,47.3672 408.5859,45.7188 Q407.2656,44.0703 407.2656,40.9453 Q407.2656,37.8203 408.5859,36.1641 Q409.9063,34.5078 412.4063,34.5078 Q413.1094,34.5078 413.7578,34.6641 Q414.4063,34.8203 414.9688,35.1172 L414.9688,37.8359 Q414.3438,37.2578 413.75,36.9844 Q413.1563,36.7109 412.5313,36.7109 Q411.1875,36.7109 410.5,37.7813 Q409.8125,38.8516 409.8125,40.9453 Q409.8125,43.0391 410.5,44.1094 Q411.1875,45.1797 412.5313,45.1797 Q413.1563,45.1797 413.75,44.9063 Q414.3438,44.6328 414.9688,44.0547 L414.9688,46.7734 Z " fill="#000000"/><text fill="#000000" font-family="sans-serif" font-size="12" font-style="italic" lengthAdjust="spacing" textLength="194" x="424" y="37.1387">«dogen::handcrafted::typeable»</text><text fill="#000000" font-family="sans-serif" font-size="14" lengthAdjust="spacing" textLength="79" x="481.5" y="52.9639">application</text><line style="stroke:#181818;stroke-width:0.5;" x1="398" x2="618" y1="61.2656" y2="61.2656"/><line style="stroke:#181818;stroke-width:0.5;" x1="398" x2="618" y1="69.2656" y2="69.2656"/></g><!--MD5=[31e2917de18cd947063b84aa2c6f9552]
class command_line_parser--><g id="elem_command_line_parser"><rect codeLine="20" fill="#FFFACD" height="56.2656" id="command_line_parser" rx="2.5" ry="2.5" style="stroke:#181818;stroke-width:0.5;" width="303" x="1278.5" y="21"/><ellipse cx="1293.5" cy="41.1328" fill="#ADD1B2" rx="11" ry="11" style="stroke:#181818;stroke-width:1.0;"/><path d="M1296.4688,46.7734 Q1295.8906,47.0703 1295.25,47.2188 Q1294.6094,47.3672 1293.9063,47.3672 Q1291.4063,47.3672 1290.0859,45.7188 Q1288.7656,44.0703 1288.7656,40.9453 Q1288.7656,37.8203 1290.0859,36.1641 Q1291.4063,34.5078 1293.9063,34.5078 Q1294.6094,34.5078 1295.2578,34.6641 Q1295.9063,34.8203 1296.4688,35.1172 L1296.4688,37.8359 Q1295.8438,37.2578 1295.25,36.9844 Q1294.6563,36.7109 1294.0313,36.7109 Q1292.6875,36.7109 1292,37.7813 Q1291.3125,38.8516 1291.3125,40.9453 Q1291.3125,43.0391 1292,44.1094 Q1292.6875,45.1797 1294.0313,45.1797 Q1294.6563,45.1797 1295.25,44.9063 Q1295.8438,44.6328 1296.4688,44.0547 L1296.4688,46.7734 Z " fill="#000000"/><text fill="#000000" font-family="sans-serif" font-size="12" font-style="italic" lengthAdjust="spacing" textLength="275" x="1305.5" y="37.1387">«dogen::handcrafted::typeable::header_only»</text><text fill="#000000" font-family="sans-serif" font-size="14" lengthAdjust="spacing" textLength="158" x="1364" y="52.9639">command_line_parser</text><line style="stroke:#181818;stroke-width:0.5;" x1="1279.5" x2="1580.5" y1="61.2656" y2="61.2656"/><line style="stroke:#181818;stroke-width:0.5;" x1="1279.5" x2="1580.5" y1="69.2656" y2="69.2656"/></g><!--MD5=[125701c02a148bb9f8af9b45c45251cb]
class program_options_parser--><g id="elem_program_options_parser"><rect codeLine="23" fill="#FFFACD" height="56.2656" id="program_options_parser" rx="2.5" ry="2.5" style="stroke:#181818;stroke-width:0.5;" width="222" x="1319" y="176.5"/><ellipse cx="1334" cy="196.6328" fill="#ADD1B2" rx="11" ry="11" style="stroke:#181818;stroke-width:1.0;"/><path d="M1336.9688,202.2734 Q1336.3906,202.5703 1335.75,202.7188 Q1335.1094,202.8672 1334.4063,202.8672 Q1331.9063,202.8672 1330.5859,201.2188 Q1329.2656,199.5703 1329.2656,196.4453 Q1329.2656,193.3203 1330.5859,191.6641 Q1331.9063,190.0078 1334.4063,190.0078 Q1335.1094,190.0078 1335.7578,190.1641 Q1336.4063,190.3203 1336.9688,190.6172 L1336.9688,193.3359 Q1336.3438,192.7578 1335.75,192.4844 Q1335.1563,192.2109 1334.5313,192.2109 Q1333.1875,192.2109 1332.5,193.2813 Q1331.8125,194.3516 1331.8125,196.4453 Q1331.8125,198.5391 1332.5,199.6094 Q1333.1875,200.6797 1334.5313,200.6797 Q1335.1563,200.6797 1335.75,200.4063 Q1336.3438,200.1328 1336.9688,199.5547 L1336.9688,202.2734 Z " fill="#000000"/><text fill="#000000" font-family="sans-serif" font-size="12" font-style="italic" lengthAdjust="spacing" textLength="194" x="1346" y="192.6387">«dogen::handcrafted::typeable»</text><text fill="#000000" font-family="sans-serif" font-size="14" lengthAdjust="spacing" textLength="174" x="1356" y="208.4639">program_options_parser</text><line style="stroke:#181818;stroke-width:0.5;" x1="1320" x2="1540" y1="216.7656" y2="216.7656"/><line style="stroke:#181818;stroke-width:0.5;" x1="1320" x2="1540" y1="224.7656" y2="224.7656"/></g><!--MD5=[39e485302053a8075caa6c13ab91b957]
class application_exception--><g id="elem_application_exception"><rect codeLine="27" fill="#E8C2F8" height="56.2656" id="application_exception" rx="2.5" ry="2.5" style="stroke:#181818;stroke-width:0.5;" width="188" x="1724" y="176.5"/><ellipse cx="1739" cy="196.6328" fill="#ADD1B2" rx="11" ry="11" style="stroke:#181818;stroke-width:1.0;"/><path d="M1741.9688,202.2734 Q1741.3906,202.5703 1740.75,202.7188 Q1740.1094,202.8672 1739.4063,202.8672 Q1736.9063,202.8672 1735.5859,201.2188 Q1734.2656,199.5703 1734.2656,196.4453 Q1734.2656,193.3203 1735.5859,191.6641 Q1736.9063,190.0078 1739.4063,190.0078 Q1740.1094,190.0078 1740.7578,190.1641 Q1741.4063,190.3203 1741.9688,190.6172 L1741.9688,193.3359 Q1741.3438,192.7578 1740.75,192.4844 Q1740.1563,192.2109 1739.5313,192.2109 Q1738.1875,192.2109 1737.5,193.2813 Q1736.8125,194.3516 1736.8125,196.4453 Q1736.8125,198.5391 1737.5,199.6094 Q1738.1875,200.6797 1739.5313,200.6797 Q1740.1563,200.6797 1740.75,200.4063 Q1741.3438,200.1328 1741.9688,199.5547 L1741.9688,202.2734 Z " fill="#000000"/><text fill="#000000" font-family="sans-serif" font-size="12" font-style="italic" lengthAdjust="spacing" textLength="114" x="1774" y="192.6387">«masd::exception»</text><text fill="#000000" font-family="sans-serif" font-size="14" lengthAdjust="spacing" textLength="156" x="1753" y="208.4639">application_exception</text><line style="stroke:#181818;stroke-width:0.5;" x1="1725" x2="1911" y1="216.7656" y2="216.7656"/><line style="stroke:#181818;stroke-width:0.5;" x1="1725" x2="1911" y1="224.7656" y2="224.7656"/></g><g id="elem_GMN12"><path d="M1617,36.5 L1617,61.6328 A0,0 0 0 0 1617,61.6328 L1814,61.6328 L1818,176.31 L1822,61.6328 L2019,61.6328 A0,0 0 0 0 2019,61.6328 L2019,46.5 L2009,36.5 L1617,36.5 A0,0 0 0 0 1617,36.5 " fill="#FEFFDD" style="stroke:#181818;stroke-width:0.5;"/><path d="M2009,36.5 L2009,46.5 L2019,46.5 L2009,36.5 " fill="#FEFFDD" style="stroke:#181818;stroke-width:0.5;"/><text fill="#000000" font-family="sans-serif" font-size="13" lengthAdjust="spacing" textLength="381" x="1623" y="53.5669">A fatal error has occurred whilst executing the application.</text></g><!--MD5=[5bbd3befcf1686b7fd148cc582657d1c]
class configuration--><g id="elem_configuration"><rect codeLine="34" fill="#F7E5FF" height="96.8906" id="configuration" rx="2.5" ry="2.5" style="stroke:#181818;stroke-width:0.5;" width="450" x="2054" y="156"/><ellipse cx="2227.25" cy="172" fill="#ADD1B2" rx="11" ry="11" style="stroke:#181818;stroke-width:1.0;"/><path d="M2230.2188,177.6406 Q2229.6406,177.9375 2229,178.0859 Q2228.3594,178.2344 2227.6563,178.2344 Q2225.1563,178.2344 2223.8359,176.5859 Q2222.5156,174.9375 2222.5156,171.8125 Q2222.5156,168.6875 2223.8359,167.0313 Q2225.1563,165.375 2227.6563,165.375 Q2228.3594,165.375 2229.0078,165.5313 Q2229.6563,165.6875 2230.2188,165.9844 L2230.2188,168.7031 Q2229.5938,168.125 2229,167.8516 Q2228.4063,167.5781 2227.7813,167.5781 Q2226.4375,167.5781 2225.75,168.6484 Q2225.0625,169.7188 2225.0625,171.8125 Q2225.0625,173.9063 2225.75,174.9766 Q2226.4375,176.0469 2227.7813,176.0469 Q2228.4063,176.0469 2229,175.7734 Q2229.5938,175.5 2230.2188,174.9219 L2230.2188,177.6406 Z " fill="#000000"/><text fill="#000000" font-family="sans-serif" font-size="14" lengthAdjust="spacing" textLength="95" x="2247.75" y="176.8467">configuration</text><line style="stroke:#181818;stroke-width:0.5;" x1="2055" x2="2503" y1="188" y2="188"/><ellipse cx="2065" cy="199" fill="none" rx="3" ry="3" style="stroke:#038048;stroke-width:1.0;"/><text fill="#000000" font-family="sans-serif" font-size="14" lengthAdjust="spacing" textLength="424" x="2074" y="204.9951">logging boost::optional&lt;utility::log::logging_configuration&gt;</text><ellipse cx="2065" cy="215.2969" fill="none" rx="3" ry="3" style="stroke:#038048;stroke-width:1.0;"/><text fill="#000000" font-family="sans-serif" font-size="14" lengthAdjust="spacing" textLength="176" x="2074" y="221.292">api dogen::configuration</text><ellipse cx="2065" cy="231.5938" fill="none" rx="3" ry="3" style="stroke:#038048;stroke-width:1.0;"/><text fill="#000000" font-family="sans-serif" font-size="14" lengthAdjust="spacing" textLength="138" x="2074" y="237.5889">cli cli_configuration</text><line style="stroke:#181818;stroke-width:0.5;" x1="2055" x2="2503" y1="244.8906" y2="244.8906"/></g><g id="elem_GMN16"><path d="M2054,36.5 L2054,61.6328 A0,0 0 0 0 2054,61.6328 L2275,61.6328 L2279,155.9 L2283,61.6328 L2504,61.6328 A0,0 0 0 0 2504,61.6328 L2504,46.5 L2494,36.5 L2054,36.5 A0,0 0 0 0 2054,36.5 " fill="#FEFFDD" style="stroke:#181818;stroke-width:0.5;"/><path d="M2494,36.5 L2494,46.5 L2504,46.5 L2494,36.5 " fill="#FEFFDD" style="stroke:#181818;stroke-width:0.5;"/><text fill="#000000" font-family="sans-serif" font-size="13" lengthAdjust="spacing" textLength="429" x="2060" y="53.5669">All of the configuration required by the command line application.</text></g><!--MD5=[e9a1f03b73bb165adbbef1025b775e42]
class generation_configuration--><g id="elem_generation_configuration"><rect codeLine="44" fill="#F7E5FF" height="105.1563" id="generation_configuration" rx="2.5" ry="2.5" style="stroke:#181818;stroke-width:0.5;" width="498" x="2539" y="152"/><ellipse cx="2693.75" cy="172.1328" fill="#ADD1B2" rx="11" ry="11" style="stroke:#181818;stroke-width:1.0;"/><path d="M2696.7188,177.7734 Q2696.1406,178.0703 2695.5,178.2188 Q2694.8594,178.3672 2694.1563,178.3672 Q2691.6563,178.3672 2690.3359,176.7188 Q2689.0156,175.0703 2689.0156,171.9453 Q2689.0156,168.8203 2690.3359,167.1641 Q2691.6563,165.5078 2694.1563,165.5078 Q2694.8594,165.5078 2695.5078,165.6641 Q2696.1563,165.8203 2696.7188,166.1172 L2696.7188,168.8359 Q2696.0938,168.2578 2695.5,167.9844 Q2694.9063,167.7109 2694.2813,167.7109 Q2692.9375,167.7109 2692.25,168.7813 Q2691.5625,169.8516 2691.5625,171.9453 Q2691.5625,174.0391 2692.25,175.1094 Q2692.9375,176.1797 2694.2813,176.1797 Q2694.9063,176.1797 2695.5,175.9063 Q2696.0938,175.6328 2696.7188,175.0547 L2696.7188,177.7734 Z " fill="#000000"/><text fill="#000000" font-family="sans-serif" font-size="12" font-style="italic" lengthAdjust="spacing" textLength="90" x="2759.25" y="168.1387">«masd::fluent»</text><text fill="#000000" font-family="sans-serif" font-size="14" lengthAdjust="spacing" textLength="180" x="2714.25" y="183.9639">generation_configuration</text><line style="stroke:#181818;stroke-width:0.5;" x1="2540" x2="3036" y1="192.2656" y2="192.2656"/><ellipse cx="2550" cy="203.2656" fill="none" rx="3" ry="3" style="stroke:#038048;stroke-width:1.0;"/><text fill="#000000" font-family="sans-serif" font-size="14" lengthAdjust="spacing" textLength="472" x="2559" y="209.2607">reference_model_directories std::vector&lt;boost::filesystem::path&gt;</text><ellipse cx="2550" cy="219.5625" fill="none" rx="3" ry="3" style="stroke:#038048;stroke-width:1.0;"/><text fill="#000000" font-family="sans-serif" font-size="14" lengthAdjust="spacing" textLength="210" x="2559" y="225.5576">target boost::filesystem::path</text><ellipse cx="2550" cy="235.8594" fill="none" rx="3" ry="3" style="stroke:#038048;stroke-width:1.0;"/><text fill="#000000" font-family="sans-serif" font-size="14" lengthAdjust="spacing" textLength="284" x="2559" y="241.8545">output_directory boost::filesystem::path</text><line style="stroke:#181818;stroke-width:0.5;" x1="2540" x2="3036" y1="249.1563" y2="249.1563"/></g><g id="elem_GMN20"><path d="M2643.5,36.5 L2643.5,61.6328 A0,0 0 0 0 2643.5,61.6328 L2784,61.6328 L2788,151.67 L2792,61.6328 L2932.5,61.6328 A0,0 0 0 0 2932.5,61.6328 L2932.5,46.5 L2922.5,36.5 L2643.5,36.5 A0,0 0 0 0 2643.5,36.5 " fill="#FEFFDD" style="stroke:#181818;stroke-width:0.5;"/><path d="M2922.5,36.5 L2922.5,46.5 L2932.5,46.5 L2922.5,36.5 " fill="#FEFFDD" style="stroke:#181818;stroke-width:0.5;"/><text fill="#000000" font-family="sans-serif" font-size="13" lengthAdjust="spacing" textLength="268" x="2649.5" y="53.5669">Configuration related to code generation.</text></g><!--MD5=[6223d9c3f34e8a15271f3a089fb0a351]
class conversion_configuration--><g id="elem_conversion_configuration"><rect codeLine="54" fill="#F7E5FF" height="88.8594" id="conversion_configuration" rx="2.5" ry="2.5" style="stroke:#181818;stroke-width:0.5;" width="241" x="3072.5" y="160"/><ellipse cx="3100.55" cy="180.1328" fill="#ADD1B2" rx="11" ry="11" style="stroke:#181818;stroke-width:1.0;"/><path d="M3103.5188,185.7734 Q3102.9406,186.0703 3102.3,186.2188 Q3101.6594,186.3672 3100.9563,186.3672 Q3098.4563,186.3672 3097.1359,184.7188 Q3095.8156,183.0703 3095.8156,179.9453 Q3095.8156,176.8203 3097.1359,175.1641 Q3098.4563,173.5078 3100.9563,173.5078 Q3101.6594,173.5078 3102.3078,173.6641 Q3102.9563,173.8203 3103.5188,174.1172 L3103.5188,176.8359 Q3102.8938,176.2578 3102.3,175.9844 Q3101.7063,175.7109 3101.0813,175.7109 Q3099.7375,175.7109 3099.05,176.7813 Q3098.3625,177.8516 3098.3625,179.9453 Q3098.3625,182.0391 3099.05,183.1094 Q3099.7375,184.1797 3101.0813,184.1797 Q3101.7063,184.1797 3102.3,183.9063 Q3102.8938,183.6328 3103.5188,183.0547 L3103.5188,185.7734 Z " fill="#000000"/><text fill="#000000" font-family="sans-serif" font-size="12" font-style="italic" lengthAdjust="spacing" textLength="90" x="3162.45" y="176.1387">«masd::fluent»</text><text fill="#000000" font-family="sans-serif" font-size="14" lengthAdjust="spacing" textLength="180" x="3117.45" y="191.9639">conversion_configuration</text><line style="stroke:#181818;stroke-width:0.5;" x1="3073.5" x2="3312.5" y1="200.2656" y2="200.2656"/><ellipse cx="3083.5" cy="211.2656" fill="none" rx="3" ry="3" style="stroke:#038048;stroke-width:1.0;"/><text fill="#000000" font-family="sans-serif" font-size="14" lengthAdjust="spacing" textLength="215" x="3092.5" y="217.2607">source boost::filesystem::path</text><ellipse cx="3083.5" cy="227.5625" fill="none" rx="3" ry="3" style="stroke:#038048;stroke-width:1.0;"/><text fill="#000000" font-family="sans-serif" font-size="14" lengthAdjust="spacing" textLength="154" x="3092.5" y="233.5576">destination std::string</text><line style="stroke:#181818;stroke-width:0.5;" x1="3073.5" x2="3312.5" y1="240.8594" y2="240.8594"/></g><g id="elem_GMN24"><path d="M3053,36.5 L3053,61.6328 A0,0 0 0 0 3053,61.6328 L3189,61.6328 L3193,159.7 L3197,61.6328 L3333,61.6328 A0,0 0 0 0 3333,61.6328 L3333,46.5 L3323,36.5 L3053,36.5 A0,0 0 0 0 3053,36.5 " fill="#FEFFDD" style="stroke:#181818;stroke-width:0.5;"/><path d="M3323,36.5 L3323,46.5 L3333,46.5 L3323,36.5 " fill="#FEFFDD" style="stroke:#181818;stroke-width:0.5;"/><text fill="#000000" font-family="sans-serif" font-size="13" lengthAdjust="spacing" textLength="259" x="3059" y="53.5669">Configuration for the model conversion.</text></g><!--MD5=[0347ab94eab96366268c1ddf569cc58d]
class configuration_validator--><g id="elem_configuration_validator"><rect codeLine="63" fill="#FFFACD" height="56.2656" id="configuration_validator" rx="2.5" ry="2.5" style="stroke:#181818;stroke-width:0.5;" width="222" x="654" y="21"/><ellipse cx="669" cy="41.1328" fill="#ADD1B2" rx="11" ry="11" style="stroke:#181818;stroke-width:1.0;"/><path d="M671.9688,46.7734 Q671.3906,47.0703 670.75,47.2188 Q670.1094,47.3672 669.4063,47.3672 Q666.9063,47.3672 665.5859,45.7188 Q664.2656,44.0703 664.2656,40.9453 Q664.2656,37.8203 665.5859,36.1641 Q666.9063,34.5078 669.4063,34.5078 Q670.1094,34.5078 670.7578,34.6641 Q671.4063,34.8203 671.9688,35.1172 L671.9688,37.8359 Q671.3438,37.2578 670.75,36.9844 Q670.1563,36.7109 669.5313,36.7109 Q668.1875,36.7109 667.5,37.7813 Q666.8125,38.8516 666.8125,40.9453 Q666.8125,43.0391 667.5,44.1094 Q668.1875,45.1797 669.5313,45.1797 Q670.1563,45.1797 670.75,44.9063 Q671.3438,44.6328 671.9688,44.0547 L671.9688,46.7734 Z " fill="#000000"/><text fill="#000000" font-family="sans-serif" font-size="12" font-style="italic" lengthAdjust="spacing" textLength="194" x="681" y="37.1387">«dogen::handcrafted::typeable»</text><text fill="#000000" font-family="sans-serif" font-size="14" lengthAdjust="spacing" textLength="165" x="695.5" y="52.9639">configuration_validator</text><line style="stroke:#181818;stroke-width:0.5;" x1="655" x2="875" y1="61.2656" y2="61.2656"/><line style="stroke:#181818;stroke-width:0.5;" x1="655" x2="875" y1="69.2656" y2="69.2656"/></g><!--MD5=[d54e5852ecfe164bbba509d3a9352ed8]
class initializer--><g id="elem_initializer"><rect codeLine="66" fill="#FFFACD" height="56.2656" id="initializer" rx="2.5" ry="2.5" style="stroke:#181818;stroke-width:0.5;" width="222" x="73" y="176.5"/><ellipse cx="88" cy="196.6328" fill="#ADD1B2" rx="11" ry="11" style="stroke:#181818;stroke-width:1.0;"/><path d="M90.9688,202.2734 Q90.3906,202.5703 89.75,202.7188 Q89.1094,202.8672 88.4063,202.8672 Q85.9063,202.8672 84.5859,201.2188 Q83.2656,199.5703 83.2656,196.4453 Q83.2656,193.3203 84.5859,191.6641 Q85.9063,190.0078 88.4063,190.0078 Q89.1094,190.0078 89.7578,190.1641 Q90.4063,190.3203 90.9688,190.6172 L90.9688,193.3359 Q90.3438,192.7578 89.75,192.4844 Q89.1563,192.2109 88.5313,192.2109 Q87.1875,192.2109 86.5,193.2813 Q85.8125,194.3516 85.8125,196.4453 Q85.8125,198.5391 86.5,199.6094 Q87.1875,200.6797 88.5313,200.6797 Q89.1563,200.6797 89.75,200.4063 Q90.3438,200.1328 90.9688,199.5547 L90.9688,202.2734 Z " fill="#000000"/><text fill="#000000" font-family="sans-serif" font-size="12" font-style="italic" lengthAdjust="spacing" textLength="194" x="100" y="192.6387">«dogen::handcrafted::typeable»</text><text fill="#000000" font-family="sans-serif" font-size="14" lengthAdjust="spacing" textLength="65" x="164.5" y="208.4639">initializer</text><line style="stroke:#181818;stroke-width:0.5;" x1="74" x2="294" y1="216.7656" y2="216.7656"/><line style="stroke:#181818;stroke-width:0.5;" x1="74" x2="294" y1="224.7656" y2="224.7656"/></g><!--MD5=[38493dad98929d929ee10f8669b423ff]
class cli_configuration--><g id="elem_cli_configuration"><rect codeLine="69" fill="#F7E5FF" height="88.8594" id="cli_configuration" rx="2.5" ry="2.5" style="stroke:#181818;stroke-width:0.5;" width="763" x="3348.5" y="160"/><ellipse cx="3666.75" cy="180.1328" fill="#ADD1B2" rx="11" ry="11" style="stroke:#181818;stroke-width:1.0;"/><path d="M3669.7188,185.7734 Q3669.1406,186.0703 3668.5,186.2188 Q3667.8594,186.3672 3667.1563,186.3672 Q3664.6563,186.3672 3663.3359,184.7188 Q3662.0156,183.0703 3662.0156,179.9453 Q3662.0156,176.8203 3663.3359,175.1641 Q3664.6563,173.5078 3667.1563,173.5078 Q3667.8594,173.5078 3668.5078,173.6641 Q3669.1563,173.8203 3669.7188,174.1172 L3669.7188,176.8359 Q3669.0938,176.2578 3668.5,175.9844 Q3667.9063,175.7109 3667.2813,175.7109 Q3665.9375,175.7109 3665.25,176.7813 Q3664.5625,177.8516 3664.5625,179.9453 Q3664.5625,182.0391 3665.25,183.1094 Q3665.9375,184.1797 3667.2813,184.1797 Q3667.9063,184.1797 3668.5,183.9063 Q3669.0938,183.6328 3669.7188,183.0547 L3669.7188,185.7734 Z " fill="#000000"/><text fill="#000000" font-family="sans-serif" font-size="12" font-style="italic" lengthAdjust="spacing" textLength="90" x="3701.25" y="176.1387">«masd::fluent»</text><text fill="#000000" font-family="sans-serif" font-size="14" lengthAdjust="spacing" textLength="118" x="3687.25" y="191.9639">cli_configuration</text><line style="stroke:#181818;stroke-width:0.5;" x1="3349.5" x2="4110.5" y1="200.2656" y2="200.2656"/><ellipse cx="3359.5" cy="211.2656" fill="none" rx="3" ry="3" style="stroke:#038048;stroke-width:1.0;"/><text fill="#000000" font-family="sans-serif" font-size="14" lengthAdjust="spacing" textLength="737" x="3368.5" y="217.2607">activity boost::variant&lt;generation_configuration, conversion_configuration, dumpspecs_configuration&gt;</text><ellipse cx="3359.5" cy="227.5625" fill="none" rx="3" ry="3" style="stroke:#038048;stroke-width:1.0;"/><text fill="#000000" font-family="sans-serif" font-size="14" lengthAdjust="spacing" textLength="310" x="3368.5" y="233.5576">byproduct_directory boost::filesystem::path</text><line style="stroke:#181818;stroke-width:0.5;" x1="3349.5" x2="4110.5" y1="240.8594" y2="240.8594"/></g><g id="elem_GMN30"><path d="M3575.5,36.5 L3575.5,61.6328 A0,0 0 0 0 3575.5,61.6328 L3726,61.6328 L3730,159.7 L3734,61.6328 L3884.5,61.6328 A0,0 0 0 0 3884.5,61.6328 L3884.5,46.5 L3874.5,36.5 L3575.5,36.5 A0,0 0 0 0 3575.5,36.5 " fill="#FEFFDD" style="stroke:#181818;stroke-width:0.5;"/><path d="M3874.5,36.5 L3874.5,46.5 L3884.5,46.5 L3874.5,36.5 " fill="#FEFFDD" style="stroke:#181818;stroke-width:0.5;"/><text fill="#000000" font-family="sans-serif" font-size="13" lengthAdjust="spacing" textLength="288" x="3581.5" y="53.5669">Configuration specific to the CLI application.</text></g><!--MD5=[4520fda4e10d4d791ce48fe025810cd4]
class main--><g id="elem_main"><rect codeLine="78" fill="#DDA9F3" height="56.2656" id="main" rx="2.5" ry="2.5" style="stroke:#181818;stroke-width:0.5;" width="152" x="330" y="176.5"/><ellipse cx="345" cy="196.6328" fill="#ADD1B2" rx="11" ry="11" style="stroke:#181818;stroke-width:1.0;"/><path d="M347.9688,202.2734 Q347.3906,202.5703 346.75,202.7188 Q346.1094,202.8672 345.4063,202.8672 Q342.9063,202.8672 341.5859,201.2188 Q340.2656,199.5703 340.2656,196.4453 Q340.2656,193.3203 341.5859,191.6641 Q342.9063,190.0078 345.4063,190.0078 Q346.1094,190.0078 346.7578,190.1641 Q347.4063,190.3203 347.9688,190.6172 L347.9688,193.3359 Q347.3438,192.7578 346.75,192.4844 Q346.1563,192.2109 345.5313,192.2109 Q344.1875,192.2109 343.5,193.2813 Q342.8125,194.3516 342.8125,196.4453 Q342.8125,198.5391 343.5,199.6094 Q344.1875,200.6797 345.5313,200.6797 Q346.1563,200.6797 346.75,200.4063 Q347.3438,200.1328 347.9688,199.5547 L347.9688,202.2734 Z " fill="#000000"/><text fill="#000000" font-family="sans-serif" font-size="12" font-style="italic" lengthAdjust="spacing" textLength="124" x="357" y="192.6387">«masd::entry_point»</text><text fill="#000000" font-family="sans-serif" font-size="14" lengthAdjust="spacing" textLength="36" x="401" y="208.4639">main</text><line style="stroke:#181818;stroke-width:0.5;" x1="331" x2="481" y1="216.7656" y2="216.7656"/><line style="stroke:#181818;stroke-width:0.5;" x1="331" x2="481" y1="224.7656" y2="224.7656"/></g><!--MD5=[ba83386d426114557685538e96aa6f68]
class CMakeLists--><g id="elem_CMakeLists"><rect codeLine="81" fill="#99CB99" height="56.2656" id="CMakeLists" rx="2.5" ry="2.5" style="stroke:#181818;stroke-width:0.5;" width="360" x="517" y="176.5"/><ellipse cx="532" cy="196.6328" fill="#ADD1B2" rx="11" ry="11" style="stroke:#181818;stroke-width:1.0;"/><path d="M534.9688,202.2734 Q534.3906,202.5703 533.75,202.7188 Q533.1094,202.8672 532.4063,202.8672 Q529.9063,202.8672 528.5859,201.2188 Q527.2656,199.5703 527.2656,196.4453 Q527.2656,193.3203 528.5859,191.6641 Q529.9063,190.0078 532.4063,190.0078 Q533.1094,190.0078 533.7578,190.1641 Q534.4063,190.3203 534.9688,190.6172 L534.9688,193.3359 Q534.3438,192.7578 533.75,192.4844 Q533.1563,192.2109 532.5313,192.2109 Q531.1875,192.2109 530.5,193.2813 Q529.8125,194.3516 529.8125,196.4453 Q529.8125,198.5391 530.5,199.6094 Q531.1875,200.6797 532.5313,200.6797 Q533.1563,200.6797 533.75,200.4063 Q534.3438,200.1328 534.9688,199.5547 L534.9688,202.2734 Z " fill="#000000"/><text fill="#000000" font-family="sans-serif" font-size="12" font-style="italic" lengthAdjust="spacing" textLength="332" x="544" y="192.6387">«masd::build::cmakelists, dogen::handcrafted::cmake»</text><text fill="#000000" font-family="sans-serif" font-size="14" lengthAdjust="spacing" textLength="79" x="670.5" y="208.4639">CMakeLists</text><line style="stroke:#181818;stroke-width:0.5;" x1="518" x2="876" y1="216.7656" y2="216.7656"/><line style="stroke:#181818;stroke-width:0.5;" x1="518" x2="876" y1="224.7656" y2="224.7656"/></g><!--MD5=[2a9c6b040fa43722a67025e2e82f0947]
class dumpspecs_configuration--><g id="elem_dumpspecs_configuration"><rect codeLine="84" fill="#F7E5FF" height="72.5625" id="dumpspecs_configuration" rx="2.5" ry="2.5" style="stroke:#181818;stroke-width:0.5;" width="215" x="4146.5" y="168"/><ellipse cx="4161.5" cy="188.1328" fill="#ADD1B2" rx="11" ry="11" style="stroke:#181818;stroke-width:1.0;"/><path d="M4164.4688,193.7734 Q4163.8906,194.0703 4163.25,194.2188 Q4162.6094,194.3672 4161.9063,194.3672 Q4159.4063,194.3672 4158.0859,192.7188 Q4156.7656,191.0703 4156.7656,187.9453 Q4156.7656,184.8203 4158.0859,183.1641 Q4159.4063,181.5078 4161.9063,181.5078 Q4162.6094,181.5078 4163.2578,181.6641 Q4163.9063,181.8203 4164.4688,182.1172 L4164.4688,184.8359 Q4163.8438,184.2578 4163.25,183.9844 Q4162.6563,183.7109 4162.0313,183.7109 Q4160.6875,183.7109 4160,184.7813 Q4159.3125,185.8516 4159.3125,187.9453 Q4159.3125,190.0391 4160,191.1094 Q4160.6875,192.1797 4162.0313,192.1797 Q4162.6563,192.1797 4163.25,191.9063 Q4163.8438,191.6328 4164.4688,191.0547 L4164.4688,193.7734 Z " fill="#000000"/><text fill="#000000" font-family="sans-serif" font-size="12" font-style="italic" lengthAdjust="spacing" textLength="90" x="4222" y="184.1387">«masd::fluent»</text><text fill="#000000" font-family="sans-serif" font-size="14" lengthAdjust="spacing" textLength="183" x="4175.5" y="199.9639">dumpspecs_configuration</text><line style="stroke:#181818;stroke-width:0.5;" x1="4147.5" x2="4360.5" y1="208.2656" y2="208.2656"/><ellipse cx="4157.5" cy="219.2656" fill="none" rx="3" ry="3" style="stroke:#038048;stroke-width:1.0;"/><text fill="#000000" font-family="sans-serif" font-size="14" lengthAdjust="spacing" textLength="143" x="4166.5" y="225.2607">style reporting_style</text><line style="stroke:#181818;stroke-width:0.5;" x1="4147.5" x2="4360.5" y1="232.5625" y2="232.5625"/></g><g id="elem_GMN36"><path d="M4084.5,36.5 L4084.5,61.6328 A0,0 0 0 0 4084.5,61.6328 L4250,61.6328 L4254,167.99 L4258,61.6328 L4423.5,61.6328 A0,0 0 0 0 4423.5,61.6328 L4423.5,46.5 L4413.5,36.5 L4084.5,36.5 A0,0 0 0 0 4084.5,36.5 " fill="#FEFFDD" style="stroke:#181818;stroke-width:0.5;"/><path d="M4413.5,36.5 L4413.5,46.5 L4423.5,46.5 L4413.5,36.5 " fill="#FEFFDD" style="stroke:#181818;stroke-width:0.5;"/><text fill="#000000" font-family="sans-serif" font-size="13" lengthAdjust="spacing" textLength="318" x="4090.5" y="53.5669">Dumps all the specs about this version of dogen.</text></g><!--MD5=[397d303c4aab79a49b7a62974140bade]
reverse link command_line_parser to program_options_parser--><g id="link_command_line_parser_program_options_parser"><path codeLine="26" d="M1430,97.34 C1430,123.31 1430,154.57 1430,176.42 " fill="none" id="command_line_parser-backto-program_options_parser" style="stroke:#181818;stroke-width:1.0;"/><polygon fill="none" points="1423,97.09,1430,77.09,1437,97.09,1423,97.09" style="stroke:#181818;stroke-width:1.0;"/></g><!--MD5=[5e2cba153fc0abc57fbc295bdfce38f2]
link N1 to application--></g></svg>