<?xml version="1.0" encoding="UTF-8" standalone="no"?><svg xmlns="http://www.w3.org/2000/svg" xmlns:xlink="http://www.w3.org/1999/xlink" contentScriptType="application/ecmascript" contentStyleType="text/css" height="693px" preserveAspectRatio="none" style="width:2930px;height:693px;" version="1.1" viewBox="0 0 2930 693" width="2930px" zoomAndPan="magnify"><defs><filter height="300%" id="f1j6nx59iqf4kz" width="300%" x="-1" y="-1"><feGaussianBlur result="blurOut" stdDeviation="2.0"/><feColorMatrix in="blurOut" result="blurOut2" type="matrix" values="0 0 0 0 0 0 0 0 0 0 0 0 0 0 0 0 0 0 .4 0"/><feOffset dx="4.0" dy="4.0" in="blurOut2" result="blurOut3"/><feBlend in="SourceGraphic" in2="blurOut3" mode="normal"/></filter></defs><g><path d="M68,8 L68,93.6641 L417,93.6641 L417,18 L407,8 L68,8 " fill="#FBFB77" filter="url(#f1j6nx59iqf4kz)" style="stroke: #A80036; stroke-width: 1.0;"/><path d="M407,8 L407,18 L417,18 L407,8 " fill="#FBFB77" style="stroke: #A80036; stroke-width: 1.0;"/><text fill="#000000" font-family="sans-serif" font-size="13" lengthAdjust="spacingAndGlyphs" textLength="328" x="74" y="25.0669">Implements the command-line interface for Dogen.</text><text fill="#000000" font-family="sans-serif" font-size="13" lengthAdjust="spacingAndGlyphs" textLength="0" x="78" y="40.1997"/><text fill="#000000" font-family="sans-serif" font-size="13" lengthAdjust="spacingAndGlyphs" textLength="130" x="74" y="55.3325">UML representation:</text><text fill="#000000" font-family="sans-serif" font-size="13" lengthAdjust="spacingAndGlyphs" textLength="0" x="78" y="70.4653"/><text fill="#000000" font-family="sans-serif" font-size="13" lengthAdjust="spacingAndGlyphs" textLength="288" x="74" y="85.5981">\image html dogen.cli/modeling/dogen.cli.svg</text><!--MD5=[5bbd3befcf1686b7fd148cc582657d1c]
class configuration--><rect fill="#F7E5FF" filter="url(#f1j6nx59iqf4kz)" height="86.4141" id="configuration" style="stroke: #A80036; stroke-width: 1.5;" width="357" x="1306" y="302"/><rect fill="#F7E5FF" height="32" style="stroke: #A80036; stroke-width: 1.5;" width="357" x="1306" y="302"/><ellipse cx="1438.75" cy="318" fill="#ADD1B2" rx="11" ry="11" style="stroke: #A80036; stroke-width: 1.0;"/><path d="M1441.7188,323.6406 Q1441.1406,323.9375 1440.5,324.0859 Q1439.8594,324.2344 1439.1563,324.2344 Q1436.6563,324.2344 1435.3359,322.5859 Q1434.0156,320.9375 1434.0156,317.8125 Q1434.0156,314.6875 1435.3359,313.0313 Q1436.6563,311.375 1439.1563,311.375 Q1439.8594,311.375 1440.5078,311.5313 Q1441.1563,311.6875 1441.7188,311.9844 L1441.7188,314.7031 Q1441.0938,314.125 1440.5,313.8516 Q1439.9063,313.5781 1439.2813,313.5781 Q1437.9375,313.5781 1437.25,314.6484 Q1436.5625,315.7188 1436.5625,317.8125 Q1436.5625,319.9063 1437.25,320.9766 Q1437.9375,322.0469 1439.2813,322.0469 Q1439.9063,322.0469 1440.5,321.7734 Q1441.0938,321.5 1441.7188,320.9219 L1441.7188,323.6406 Z "/><text fill="#000000" font-family="sans-serif" font-size="12" lengthAdjust="spacingAndGlyphs" textLength="83" x="1459.25" y="322.1543">configuration</text><line style="stroke: #A80036; stroke-width: 1.5;" x1="1307" x2="1662" y1="334" y2="334"/><ellipse cx="1317" cy="345" fill="none" rx="3" ry="3" style="stroke: #038048; stroke-width: 1.0;"/><text fill="#000000" font-family="sans-serif" font-size="11" lengthAdjust="spacingAndGlyphs" textLength="331" x="1326" y="348.2104">logging boost::optional&lt;utility::log::logging_configuration&gt;</text><ellipse cx="1317" cy="357.8047" fill="none" rx="3" ry="3" style="stroke: #038048; stroke-width: 1.0;"/><text fill="#000000" font-family="sans-serif" font-size="11" lengthAdjust="spacingAndGlyphs" textLength="137" x="1326" y="361.0151">api dogen::configuration</text><ellipse cx="1317" cy="370.6094" fill="none" rx="3" ry="3" style="stroke: #038048; stroke-width: 1.0;"/><text fill="#000000" font-family="sans-serif" font-size="11" lengthAdjust="spacingAndGlyphs" textLength="107" x="1326" y="373.8198">cli cli_configuration</text><line style="stroke: #A80036; stroke-width: 1.5;" x1="1307" x2="1662" y1="380.4141" y2="380.4141"/><!--MD5=[38493dad98929d929ee10f8669b423ff]
class cli_configuration--><rect fill="#F7E5FF" filter="url(#f1j6nx59iqf4kz)" height="79.5469" id="cli_configuration" style="stroke: #A80036; stroke-width: 1.5;" width="608" x="342.5" y="449"/><rect fill="#F7E5FF" height="37.9375" style="stroke: #A80036; stroke-width: 1.5;" width="608" x="342.5" y="449"/><ellipse cx="591.25" cy="467.9688" fill="#ADD1B2" rx="11" ry="11" style="stroke: #A80036; stroke-width: 1.0;"/><path d="M594.2188,473.6094 Q593.6406,473.9063 593,474.0547 Q592.3594,474.2031 591.6563,474.2031 Q589.1563,474.2031 587.8359,472.5547 Q586.5156,470.9063 586.5156,467.7813 Q586.5156,464.6563 587.8359,463 Q589.1563,461.3438 591.6563,461.3438 Q592.3594,461.3438 593.0078,461.5 Q593.6563,461.6563 594.2188,461.9531 L594.2188,464.6719 Q593.5938,464.0938 593,463.8203 Q592.4063,463.5469 591.7813,463.5469 Q590.4375,463.5469 589.75,464.6172 Q589.0625,465.6875 589.0625,467.7813 Q589.0625,469.875 589.75,470.9453 Q590.4375,472.0156 591.7813,472.0156 Q592.4063,472.0156 593,471.7422 Q593.5938,471.4688 594.2188,470.8906 L594.2188,473.6094 Z "/><text fill="#000000" font-family="sans-serif" font-size="12" font-style="italic" lengthAdjust="spacingAndGlyphs" textLength="88" x="618.75" y="465.1387">«masd::fluent»</text><text fill="#000000" font-family="sans-serif" font-size="12" lengthAdjust="spacingAndGlyphs" textLength="102" x="611.75" y="479.1074">cli_configuration</text><line style="stroke: #A80036; stroke-width: 1.5;" x1="343.5" x2="949.5" y1="486.9375" y2="486.9375"/><ellipse cx="353.5" cy="497.9375" fill="none" rx="3" ry="3" style="stroke: #038048; stroke-width: 1.0;"/><text fill="#000000" font-family="sans-serif" font-size="11" lengthAdjust="spacingAndGlyphs" textLength="582" x="362.5" y="501.1479">activity boost::variant&lt;generation_configuration, conversion_configuration, dumpspecs_configuration&gt;</text><ellipse cx="353.5" cy="510.7422" fill="none" rx="3" ry="3" style="stroke: #038048; stroke-width: 1.0;"/><text fill="#000000" font-family="sans-serif" font-size="11" lengthAdjust="spacingAndGlyphs" textLength="247" x="362.5" y="513.9526">byproduct_directory boost::filesystem::path</text><line style="stroke: #A80036; stroke-width: 1.5;" x1="343.5" x2="949.5" y1="520.5469" y2="520.5469"/><path d="M1447,185.5 L1447,210.6328 A0,0 0 0 0 1447,210.6328 L1646.99,210.6328 L1537.14,301.83 L1654.99,210.6328 L1884,210.6328 A0,0 0 0 0 1884,210.6328 L1884,195.5 L1874,185.5 L1447,185.5 A0,0 0 0 0 1447,185.5 " fill="#FBFB77" filter="url(#f1j6nx59iqf4kz)" style="stroke: #A80036; stroke-width: 1.0;"/><path d="M1874,185.5 L1874,195.5 L1884,195.5 L1874,185.5 " fill="#FBFB77" style="stroke: #A80036; stroke-width: 1.0;"/><text fill="#000000" font-family="sans-serif" font-size="13" lengthAdjust="spacingAndGlyphs" textLength="416" x="1453" y="202.5669">All of the configuration required by the command line application.</text><!--MD5=[e9a1f03b73bb165adbbef1025b775e42]
class generation_configuration--><rect fill="#F7E5FF" filter="url(#f1j6nx59iqf4kz)" height="92.3516" id="generation_configuration" style="stroke: #A80036; stroke-width: 1.5;" width="403" x="226" y="590"/><rect fill="#F7E5FF" height="37.9375" style="stroke: #A80036; stroke-width: 1.5;" width="403" x="226" y="590"/><ellipse cx="344.25" cy="608.9688" fill="#ADD1B2" rx="11" ry="11" style="stroke: #A80036; stroke-width: 1.0;"/><path d="M347.2188,614.6094 Q346.6406,614.9063 346,615.0547 Q345.3594,615.2031 344.6563,615.2031 Q342.1563,615.2031 340.8359,613.5547 Q339.5156,611.9063 339.5156,608.7813 Q339.5156,605.6563 340.8359,604 Q342.1563,602.3438 344.6563,602.3438 Q345.3594,602.3438 346.0078,602.5 Q346.6563,602.6563 347.2188,602.9531 L347.2188,605.6719 Q346.5938,605.0938 346,604.8203 Q345.4063,604.5469 344.7813,604.5469 Q343.4375,604.5469 342.75,605.6172 Q342.0625,606.6875 342.0625,608.7813 Q342.0625,610.875 342.75,611.9453 Q343.4375,613.0156 344.7813,613.0156 Q345.4063,613.0156 346,612.7422 Q346.5938,612.4688 347.2188,611.8906 L347.2188,614.6094 Z "/><text fill="#000000" font-family="sans-serif" font-size="12" font-style="italic" lengthAdjust="spacingAndGlyphs" textLength="88" x="399.75" y="606.1387">«masd::fluent»</text><text fill="#000000" font-family="sans-serif" font-size="12" lengthAdjust="spacingAndGlyphs" textLength="158" x="364.75" y="620.1074">generation_configuration</text><line style="stroke: #A80036; stroke-width: 1.5;" x1="227" x2="628" y1="627.9375" y2="627.9375"/><ellipse cx="237" cy="638.9375" fill="none" rx="3" ry="3" style="stroke: #038048; stroke-width: 1.0;"/><text fill="#000000" font-family="sans-serif" font-size="11" lengthAdjust="spacingAndGlyphs" textLength="377" x="246" y="642.1479">reference_model_directories std::vector&lt;boost::filesystem::path&gt;</text><ellipse cx="237" cy="651.7422" fill="none" rx="3" ry="3" style="stroke: #038048; stroke-width: 1.0;"/><text fill="#000000" font-family="sans-serif" font-size="11" lengthAdjust="spacingAndGlyphs" textLength="169" x="246" y="654.9526">target boost::filesystem::path</text><ellipse cx="237" cy="664.5469" fill="none" rx="3" ry="3" style="stroke: #038048; stroke-width: 1.0;"/><text fill="#000000" font-family="sans-serif" font-size="11" lengthAdjust="spacingAndGlyphs" textLength="227" x="246" y="667.7573">output_directory boost::filesystem::path</text><line style="stroke: #A80036; stroke-width: 1.5;" x1="227" x2="628" y1="674.3516" y2="674.3516"/><!--MD5=[6223d9c3f34e8a15271f3a089fb0a351]
class conversion_configuration--><rect fill="#F7E5FF" filter="url(#f1j6nx59iqf4kz)" height="79.5469" id="conversion_configuration" style="stroke: #A80036; stroke-width: 1.5;" width="200" x="736.5" y="596"/><rect fill="#F7E5FF" height="37.9375" style="stroke: #A80036; stroke-width: 1.5;" width="200" x="736.5" y="596"/><ellipse cx="756.45" cy="614.9688" fill="#ADD1B2" rx="11" ry="11" style="stroke: #A80036; stroke-width: 1.0;"/><path d="M759.4188,620.6094 Q758.8406,620.9063 758.2,621.0547 Q757.5594,621.2031 756.8563,621.2031 Q754.3563,621.2031 753.0359,619.5547 Q751.7156,617.9063 751.7156,614.7813 Q751.7156,611.6563 753.0359,610 Q754.3563,608.3438 756.8563,608.3438 Q757.5594,608.3438 758.2078,608.5 Q758.8563,608.6563 759.4188,608.9531 L759.4188,611.6719 Q758.7938,611.0938 758.2,610.8203 Q757.6063,610.5469 756.9813,610.5469 Q755.6375,610.5469 754.95,611.6172 Q754.2625,612.6875 754.2625,614.7813 Q754.2625,616.875 754.95,617.9453 Q755.6375,619.0156 756.9813,619.0156 Q757.6063,619.0156 758.2,618.7422 Q758.7938,618.4688 759.4188,617.8906 L759.4188,620.6094 Z "/><text fill="#000000" font-family="sans-serif" font-size="12" font-style="italic" lengthAdjust="spacingAndGlyphs" textLength="88" x="806.05" y="612.1387">«masd::fluent»</text><text fill="#000000" font-family="sans-serif" font-size="12" lengthAdjust="spacingAndGlyphs" textLength="157" x="771.55" y="626.1074">conversion_configuration</text><line style="stroke: #A80036; stroke-width: 1.5;" x1="737.5" x2="935.5" y1="633.9375" y2="633.9375"/><ellipse cx="747.5" cy="644.9375" fill="none" rx="3" ry="3" style="stroke: #038048; stroke-width: 1.0;"/><text fill="#000000" font-family="sans-serif" font-size="11" lengthAdjust="spacingAndGlyphs" textLength="174" x="756.5" y="648.1479">source boost::filesystem::path</text><ellipse cx="747.5" cy="657.7422" fill="none" rx="3" ry="3" style="stroke: #038048; stroke-width: 1.0;"/><text fill="#000000" font-family="sans-serif" font-size="11" lengthAdjust="spacingAndGlyphs" textLength="125" x="756.5" y="660.9526">destination std::string</text><line style="stroke: #A80036; stroke-width: 1.5;" x1="737.5" x2="935.5" y1="667.5469" y2="667.5469"/><!--MD5=[2a9c6b040fa43722a67025e2e82f0947]
class dumpspecs_configuration--><rect fill="#F7E5FF" filter="url(#f1j6nx59iqf4kz)" height="66.7422" id="dumpspecs_configuration" style="stroke: #A80036; stroke-width: 1.5;" width="193" x="1168" y="602.5"/><rect fill="#F7E5FF" height="37.9375" style="stroke: #A80036; stroke-width: 1.5;" width="193" x="1168" y="602.5"/><ellipse cx="1183" cy="621.4688" fill="#ADD1B2" rx="11" ry="11" style="stroke: #A80036; stroke-width: 1.0;"/><path d="M1185.9688,627.1094 Q1185.3906,627.4063 1184.75,627.5547 Q1184.1094,627.7031 1183.4063,627.7031 Q1180.9063,627.7031 1179.5859,626.0547 Q1178.2656,624.4063 1178.2656,621.2813 Q1178.2656,618.1563 1179.5859,616.5 Q1180.9063,614.8438 1183.4063,614.8438 Q1184.1094,614.8438 1184.7578,615 Q1185.4063,615.1563 1185.9688,615.4531 L1185.9688,618.1719 Q1185.3438,617.5938 1184.75,617.3203 Q1184.1563,617.0469 1183.5313,617.0469 Q1182.1875,617.0469 1181.5,618.1172 Q1180.8125,619.1875 1180.8125,621.2813 Q1180.8125,623.375 1181.5,624.4453 Q1182.1875,625.5156 1183.5313,625.5156 Q1184.1563,625.5156 1184.75,625.2422 Q1185.3438,624.9688 1185.9688,624.3906 L1185.9688,627.1094 Z "/><text fill="#000000" font-family="sans-serif" font-size="12" font-style="italic" lengthAdjust="spacingAndGlyphs" textLength="88" x="1233.5" y="618.6387">«masd::fluent»</text><text fill="#000000" font-family="sans-serif" font-size="12" lengthAdjust="spacingAndGlyphs" textLength="161" x="1197" y="632.6074">dumpspecs_configuration</text><line style="stroke: #A80036; stroke-width: 1.5;" x1="1169" x2="1360" y1="640.4375" y2="640.4375"/><ellipse cx="1179" cy="651.4375" fill="none" rx="3" ry="3" style="stroke: #038048; stroke-width: 1.0;"/><text fill="#000000" font-family="sans-serif" font-size="11" lengthAdjust="spacingAndGlyphs" textLength="115" x="1188" y="654.6479">style reporting_style</text><line style="stroke: #A80036; stroke-width: 1.5;" x1="1169" x2="1360" y1="661.2422" y2="661.2422"/><path d="M204,332.5 L204,357.6328 A0,0 0 0 0 204,357.6328 L373.48,357.6328 L565.82,448.9 L381.48,357.6328 L503,357.6328 A0,0 0 0 0 503,357.6328 L503,342.5 L493,332.5 L204,332.5 A0,0 0 0 0 204,332.5 " fill="#FBFB77" filter="url(#f1j6nx59iqf4kz)" style="stroke: #A80036; stroke-width: 1.0;"/><path d="M493,332.5 L493,342.5 L503,342.5 L493,332.5 " fill="#FBFB77" style="stroke: #A80036; stroke-width: 1.0;"/><text fill="#000000" font-family="sans-serif" font-size="13" lengthAdjust="spacingAndGlyphs" textLength="278" x="210" y="349.5669">Configuration specific to the CLI application.</text><path d="M23.5,476.5 L23.5,501.6328 A0,0 0 0 0 23.5,501.6328 L182.5,501.6328 L346.02,589.91 L190.5,501.6328 L307.5,501.6328 A0,0 0 0 0 307.5,501.6328 L307.5,486.5 L297.5,476.5 L23.5,476.5 A0,0 0 0 0 23.5,476.5 " fill="#FBFB77" filter="url(#f1j6nx59iqf4kz)" style="stroke: #A80036; stroke-width: 1.0;"/><path d="M297.5,476.5 L297.5,486.5 L307.5,486.5 L297.5,476.5 " fill="#FBFB77" style="stroke: #A80036; stroke-width: 1.0;"/><text fill="#000000" font-family="sans-serif" font-size="13" lengthAdjust="spacingAndGlyphs" textLength="263" x="29.5" y="493.5669">Configuration related to code generation.</text><path d="M986,476.5 L986,501.6328 A0,0 0 0 0 986,501.6328 L1095.58,501.6328 L913.7,595.86 L1103.58,501.6328 L1259,501.6328 A0,0 0 0 0 1259,501.6328 L1259,486.5 L1249,476.5 L986,476.5 A0,0 0 0 0 986,476.5 " fill="#FBFB77" filter="url(#f1j6nx59iqf4kz)" style="stroke: #A80036; stroke-width: 1.0;"/><path d="M1249,476.5 L1249,486.5 L1259,486.5 L1249,476.5 " fill="#FBFB77" style="stroke: #A80036; stroke-width: 1.0;"/><text fill="#000000" font-family="sans-serif" font-size="13" lengthAdjust="spacingAndGlyphs" textLength="252" x="992" y="493.5669">Configuration for the model conversion.</text><path d="M1294,476.5 L1294,501.6328 A0,0 0 0 0 1294,501.6328 L1440.79,501.6328 L1308.47,602.47 L1448.79,501.6328 L1627,501.6328 A0,0 0 0 0 1627,501.6328 L1627,486.5 L1617,476.5 L1294,476.5 A0,0 0 0 0 1294,476.5 " fill="#FBFB77" filter="url(#f1j6nx59iqf4kz)" style="stroke: #A80036; stroke-width: 1.0;"/><path d="M1617,476.5 L1617,486.5 L1627,486.5 L1617,476.5 " fill="#FBFB77" style="stroke: #A80036; stroke-width: 1.0;"/><text fill="#000000" font-family="sans-serif" font-size="13" lengthAdjust="spacingAndGlyphs" textLength="312" x="1300" y="493.5669">Dumps all the specs about this version of dogen.</text><!--MD5=[0347ab94eab96366268c1ddf569cc58d]
class configuration_validator--><rect fill="#FFFACD" filter="url(#f1j6nx59iqf4kz)" height="53.9375" id="configuration_validator" style="stroke: #A80036; stroke-width: 1.5;" width="219" x="1193" y="171"/><rect fill="#FFFACD" height="37.9375" style="stroke: #A80036; stroke-width: 1.5;" width="219" x="1193" y="171"/><ellipse cx="1208" cy="189.9688" fill="#ADD1B2" rx="11" ry="11" style="stroke: #A80036; stroke-width: 1.0;"/><path d="M1210.9688,195.6094 Q1210.3906,195.9063 1209.75,196.0547 Q1209.1094,196.2031 1208.4063,196.2031 Q1205.9063,196.2031 1204.5859,194.5547 Q1203.2656,192.9063 1203.2656,189.7813 Q1203.2656,186.6563 1204.5859,185 Q1205.9063,183.3438 1208.4063,183.3438 Q1209.1094,183.3438 1209.7578,183.5 Q1210.4063,183.6563 1210.9688,183.9531 L1210.9688,186.6719 Q1210.3438,186.0938 1209.75,185.8203 Q1209.1563,185.5469 1208.5313,185.5469 Q1207.1875,185.5469 1206.5,186.6172 Q1205.8125,187.6875 1205.8125,189.7813 Q1205.8125,191.875 1206.5,192.9453 Q1207.1875,194.0156 1208.5313,194.0156 Q1209.1563,194.0156 1209.75,193.7422 Q1210.3438,193.4688 1210.9688,192.8906 L1210.9688,195.6094 Z "/><text fill="#000000" font-family="sans-serif" font-size="12" font-style="italic" lengthAdjust="spacingAndGlyphs" textLength="191" x="1220" y="187.1387">«dogen::handcrafted::typeable»</text><text fill="#000000" font-family="sans-serif" font-size="12" lengthAdjust="spacingAndGlyphs" textLength="143" x="1244" y="201.1074">configuration_validator</text><line style="stroke: #A80036; stroke-width: 1.5;" x1="1194" x2="1411" y1="208.9375" y2="208.9375"/><line style="stroke: #A80036; stroke-width: 1.5;" x1="1194" x2="1411" y1="216.9375" y2="216.9375"/><!--MD5=[31e2917de18cd947063b84aa2c6f9552]
class command_line_parser--><rect fill="#FFFACD" filter="url(#f1j6nx59iqf4kz)" height="53.9375" id="command_line_parser" style="stroke: #A80036; stroke-width: 1.5;" width="298" x="498.5" y="171"/><rect fill="#FFFACD" height="37.9375" style="stroke: #A80036; stroke-width: 1.5;" width="298" x="498.5" y="171"/><ellipse cx="513.5" cy="189.9688" fill="#ADD1B2" rx="11" ry="11" style="stroke: #A80036; stroke-width: 1.0;"/><path d="M516.4688,195.6094 Q515.8906,195.9063 515.25,196.0547 Q514.6094,196.2031 513.9063,196.2031 Q511.4063,196.2031 510.0859,194.5547 Q508.7656,192.9063 508.7656,189.7813 Q508.7656,186.6563 510.0859,185 Q511.4063,183.3438 513.9063,183.3438 Q514.6094,183.3438 515.2578,183.5 Q515.9063,183.6563 516.4688,183.9531 L516.4688,186.6719 Q515.8438,186.0938 515.25,185.8203 Q514.6563,185.5469 514.0313,185.5469 Q512.6875,185.5469 512,186.6172 Q511.3125,187.6875 511.3125,189.7813 Q511.3125,191.875 512,192.9453 Q512.6875,194.0156 514.0313,194.0156 Q514.6563,194.0156 515.25,193.7422 Q515.8438,193.4688 516.4688,192.8906 L516.4688,195.6094 Z "/><text fill="#000000" font-family="sans-serif" font-size="12" font-style="italic" lengthAdjust="spacingAndGlyphs" textLength="270" x="525.5" y="187.1387">«dogen::handcrafted::typeable::header_only»</text><text fill="#000000" font-family="sans-serif" font-size="12" lengthAdjust="spacingAndGlyphs" textLength="136" x="592.5" y="201.1074">command_line_parser</text><line style="stroke: #A80036; stroke-width: 1.5;" x1="499.5" x2="795.5" y1="208.9375" y2="208.9375"/><line style="stroke: #A80036; stroke-width: 1.5;" x1="499.5" x2="795.5" y1="216.9375" y2="216.9375"/><!--MD5=[19d92d75b2be9a5f372e551632eaad56]
class parser_exception--><rect fill="#E8C2F8" filter="url(#f1j6nx59iqf4kz)" height="53.9375" id="parser_exception" style="stroke: #A80036; stroke-width: 1.5;" width="140" x="858.5" y="318"/><rect fill="#E8C2F8" height="37.9375" style="stroke: #A80036; stroke-width: 1.5;" width="140" x="858.5" y="318"/><ellipse cx="873.5" cy="336.9688" fill="#ADD1B2" rx="11" ry="11" style="stroke: #A80036; stroke-width: 1.0;"/><path d="M876.4688,342.6094 Q875.8906,342.9063 875.25,343.0547 Q874.6094,343.2031 873.9063,343.2031 Q871.4063,343.2031 870.0859,341.5547 Q868.7656,339.9063 868.7656,336.7813 Q868.7656,333.6563 870.0859,332 Q871.4063,330.3438 873.9063,330.3438 Q874.6094,330.3438 875.2578,330.5 Q875.9063,330.6563 876.4688,330.9531 L876.4688,333.6719 Q875.8438,333.0938 875.25,332.8203 Q874.6563,332.5469 874.0313,332.5469 Q872.6875,332.5469 872,333.6172 Q871.3125,334.6875 871.3125,336.7813 Q871.3125,338.875 872,339.9453 Q872.6875,341.0156 874.0313,341.0156 Q874.6563,341.0156 875.25,340.7422 Q875.8438,340.4688 876.4688,339.8906 L876.4688,342.6094 Z "/><text fill="#000000" font-family="sans-serif" font-size="12" font-style="italic" lengthAdjust="spacingAndGlyphs" textLength="112" x="885.5" y="334.1387">«masd::exception»</text><text fill="#000000" font-family="sans-serif" font-size="12" lengthAdjust="spacingAndGlyphs" textLength="108" x="887.5" y="348.1074">parser_exception</text><line style="stroke: #A80036; stroke-width: 1.5;" x1="859.5" x2="997.5" y1="355.9375" y2="355.9375"/><line style="stroke: #A80036; stroke-width: 1.5;" x1="859.5" x2="997.5" y1="363.9375" y2="363.9375"/><path d="M452,38.5 L452,63.6328 A0,0 0 0 0 452,63.6328 L643.5,63.6328 L647.5,170.92 L651.5,63.6328 L843,63.6328 A0,0 0 0 0 843,63.6328 L843,48.5 L833,38.5 L452,38.5 A0,0 0 0 0 452,38.5 " fill="#FBFB77" filter="url(#f1j6nx59iqf4kz)" style="stroke: #A80036; stroke-width: 1.0;"/><path d="M833,38.5 L833,48.5 L843,48.5 L833,38.5 " fill="#FBFB77" style="stroke: #A80036; stroke-width: 1.0;"/><text fill="#000000" font-family="sans-serif" font-size="13" lengthAdjust="spacingAndGlyphs" textLength="370" x="458" y="55.5669">Interface for a command-line parser of the dogen options.</text><path d="M831,185.5 L831,210.6328 A0,0 0 0 0 831,210.6328 L985.1,210.6328 L940.37,317.92 L993.1,210.6328 L1158,210.6328 A0,0 0 0 0 1158,210.6328 L1158,195.5 L1148,185.5 L831,185.5 A0,0 0 0 0 831,185.5 " fill="#FBFB77" filter="url(#f1j6nx59iqf4kz)" style="stroke: #A80036; stroke-width: 1.0;"/><path d="M1148,185.5 L1148,195.5 L1158,195.5 L1148,185.5 " fill="#FBFB77" style="stroke: #A80036; stroke-width: 1.0;"/><text fill="#000000" font-family="sans-serif" font-size="13" lengthAdjust="spacingAndGlyphs" textLength="306" x="837" y="202.5669">A fatal error has occurred during option parsing.</text><!--MD5=[1700babc4216d044a93a74805c70996c]
class application--><rect fill="#FFFACD" filter="url(#f1j6nx59iqf4kz)" height="53.9375" id="application" style="stroke: #A80036; stroke-width: 1.5;" width="219" x="2245" y="171"/><rect fill="#FFFACD" height="37.9375" style="stroke: #A80036; stroke-width: 1.5;" width="219" x="2245" y="171"/><ellipse cx="2260" cy="189.9688" fill="#ADD1B2" rx="11" ry="11" style="stroke: #A80036; stroke-width: 1.0;"/><path d="M2262.9688,195.6094 Q2262.3906,195.9063 2261.75,196.0547 Q2261.1094,196.2031 2260.4063,196.2031 Q2257.9063,196.2031 2256.5859,194.5547 Q2255.2656,192.9063 2255.2656,189.7813 Q2255.2656,186.6563 2256.5859,185 Q2257.9063,183.3438 2260.4063,183.3438 Q2261.1094,183.3438 2261.7578,183.5 Q2262.4063,183.6563 2262.9688,183.9531 L2262.9688,186.6719 Q2262.3438,186.0938 2261.75,185.8203 Q2261.1563,185.5469 2260.5313,185.5469 Q2259.1875,185.5469 2258.5,186.6172 Q2257.8125,187.6875 2257.8125,189.7813 Q2257.8125,191.875 2258.5,192.9453 Q2259.1875,194.0156 2260.5313,194.0156 Q2261.1563,194.0156 2261.75,193.7422 Q2262.3438,193.4688 2262.9688,192.8906 L2262.9688,195.6094 Z "/><text fill="#000000" font-family="sans-serif" font-size="12" font-style="italic" lengthAdjust="spacingAndGlyphs" textLength="191" x="2272" y="187.1387">«dogen::handcrafted::typeable»</text><text fill="#000000" font-family="sans-serif" font-size="12" lengthAdjust="spacingAndGlyphs" textLength="69" x="2333" y="201.1074">application</text><line style="stroke: #A80036; stroke-width: 1.5;" x1="2246" x2="2463" y1="208.9375" y2="208.9375"/><line style="stroke: #A80036; stroke-width: 1.5;" x1="2246" x2="2463" y1="216.9375" y2="216.9375"/><!--MD5=[39e485302053a8075caa6c13ab91b957]
class application_exception--><rect fill="#E8C2F8" filter="url(#f1j6nx59iqf4kz)" height="53.9375" id="application_exception" style="stroke: #A80036; stroke-width: 1.5;" width="168" x="2528.5" y="318"/><rect fill="#E8C2F8" height="37.9375" style="stroke: #A80036; stroke-width: 1.5;" width="168" x="2528.5" y="318"/><ellipse cx="2543.5" cy="336.9688" fill="#ADD1B2" rx="11" ry="11" style="stroke: #A80036; stroke-width: 1.0;"/><path d="M2546.4688,342.6094 Q2545.8906,342.9063 2545.25,343.0547 Q2544.6094,343.2031 2543.9063,343.2031 Q2541.4063,343.2031 2540.0859,341.5547 Q2538.7656,339.9063 2538.7656,336.7813 Q2538.7656,333.6563 2540.0859,332 Q2541.4063,330.3438 2543.9063,330.3438 Q2544.6094,330.3438 2545.2578,330.5 Q2545.9063,330.6563 2546.4688,330.9531 L2546.4688,333.6719 Q2545.8438,333.0938 2545.25,332.8203 Q2544.6563,332.5469 2544.0313,332.5469 Q2542.6875,332.5469 2542,333.6172 Q2541.3125,334.6875 2541.3125,336.7813 Q2541.3125,338.875 2542,339.9453 Q2542.6875,341.0156 2544.0313,341.0156 Q2544.6563,341.0156 2545.25,340.7422 Q2545.8438,340.4688 2546.4688,339.8906 L2546.4688,342.6094 Z "/><text fill="#000000" font-family="sans-serif" font-size="12" font-style="italic" lengthAdjust="spacingAndGlyphs" textLength="112" x="2569.5" y="334.1387">«masd::exception»</text><text fill="#000000" font-family="sans-serif" font-size="12" lengthAdjust="spacingAndGlyphs" textLength="136" x="2557.5" y="348.1074">application_exception</text><line style="stroke: #A80036; stroke-width: 1.5;" x1="2529.5" x2="2695.5" y1="355.9375" y2="355.9375"/><line style="stroke: #A80036; stroke-width: 1.5;" x1="2529.5" x2="2695.5" y1="363.9375" y2="363.9375"/><path d="M2178.5,38.5 L2178.5,63.6328 A0,0 0 0 0 2178.5,63.6328 L2350.5,63.6328 L2354.5,170.92 L2358.5,63.6328 L2530.5,63.6328 A0,0 0 0 0 2530.5,63.6328 L2530.5,48.5 L2520.5,38.5 L2178.5,38.5 A0,0 0 0 0 2178.5,38.5 " fill="#FBFB77" filter="url(#f1j6nx59iqf4kz)" style="stroke: #A80036; stroke-width: 1.0;"/><path d="M2520.5,38.5 L2520.5,48.5 L2530.5,48.5 L2520.5,38.5 " fill="#FBFB77" style="stroke: #A80036; stroke-width: 1.0;"/><text fill="#000000" font-family="sans-serif" font-size="13" lengthAdjust="spacingAndGlyphs" textLength="331" x="2184.5" y="55.5669">Entry point for the dogen command line application.</text><path d="M2499,185.5 L2499,210.6328 A0,0 0 0 0 2499,210.6328 L2683.79,210.6328 L2627.25,317.92 L2691.79,210.6328 L2890,210.6328 A0,0 0 0 0 2890,210.6328 L2890,195.5 L2880,185.5 L2499,185.5 A0,0 0 0 0 2499,185.5 " fill="#FBFB77" filter="url(#f1j6nx59iqf4kz)" style="stroke: #A80036; stroke-width: 1.0;"/><path d="M2880,185.5 L2880,195.5 L2890,195.5 L2880,185.5 " fill="#FBFB77" style="stroke: #A80036; stroke-width: 1.0;"/><text fill="#000000" font-family="sans-serif" font-size="13" lengthAdjust="spacingAndGlyphs" textLength="370" x="2505" y="202.5669">A fatal error has occurred whilst executing the application.</text><!--MD5=[125701c02a148bb9f8af9b45c45251cb]
class program_options_parser--><rect fill="#FFFACD" filter="url(#f1j6nx59iqf4kz)" height="53.9375" id="program_options_parser" style="stroke: #A80036; stroke-width: 1.5;" width="219" x="538" y="318"/><rect fill="#FFFACD" height="37.9375" style="stroke: #A80036; stroke-width: 1.5;" width="219" x="538" y="318"/><ellipse cx="553" cy="336.9688" fill="#ADD1B2" rx="11" ry="11" style="stroke: #A80036; stroke-width: 1.0;"/><path d="M555.9688,342.6094 Q555.3906,342.9063 554.75,343.0547 Q554.1094,343.2031 553.4063,343.2031 Q550.9063,343.2031 549.5859,341.5547 Q548.2656,339.9063 548.2656,336.7813 Q548.2656,333.6563 549.5859,332 Q550.9063,330.3438 553.4063,330.3438 Q554.1094,330.3438 554.7578,330.5 Q555.4063,330.6563 555.9688,330.9531 L555.9688,333.6719 Q555.3438,333.0938 554.75,332.8203 Q554.1563,332.5469 553.5313,332.5469 Q552.1875,332.5469 551.5,333.6172 Q550.8125,334.6875 550.8125,336.7813 Q550.8125,338.875 551.5,339.9453 Q552.1875,341.0156 553.5313,341.0156 Q554.1563,341.0156 554.75,340.7422 Q555.3438,340.4688 555.9688,339.8906 L555.9688,342.6094 Z "/><text fill="#000000" font-family="sans-serif" font-size="12" font-style="italic" lengthAdjust="spacingAndGlyphs" textLength="191" x="565" y="334.1387">«dogen::handcrafted::typeable»</text><text fill="#000000" font-family="sans-serif" font-size="12" lengthAdjust="spacingAndGlyphs" textLength="153" x="584" y="348.1074">program_options_parser</text><line style="stroke: #A80036; stroke-width: 1.5;" x1="539" x2="756" y1="355.9375" y2="355.9375"/><line style="stroke: #A80036; stroke-width: 1.5;" x1="539" x2="756" y1="363.9375" y2="363.9375"/><path d="M6,185.5 L6,210.6328 A0,0 0 0 0 6,210.6328 L263.6,210.6328 L573.3,317.95 L271.6,210.6328 L463,210.6328 A0,0 0 0 0 463,210.6328 L463,195.5 L453,185.5 L6,185.5 A0,0 0 0 0 6,185.5 " fill="#FBFB77" filter="url(#f1j6nx59iqf4kz)" style="stroke: #A80036; stroke-width: 1.0;"/><path d="M453,185.5 L453,195.5 L463,195.5 L453,185.5 " fill="#FBFB77" style="stroke: #A80036; stroke-width: 1.0;"/><text fill="#000000" font-family="sans-serif" font-size="13" lengthAdjust="spacingAndGlyphs" textLength="436" x="12" y="202.5669">Command-line parser implementation using boost program options.</text><!--MD5=[d54e5852ecfe164bbba509d3a9352ed8]
class initializer--><rect fill="#FFFACD" filter="url(#f1j6nx59iqf4kz)" height="53.9375" id="initializer" style="stroke: #A80036; stroke-width: 1.5;" width="219" x="1919" y="171"/><rect fill="#FFFACD" height="37.9375" style="stroke: #A80036; stroke-width: 1.5;" width="219" x="1919" y="171"/><ellipse cx="1934" cy="189.9688" fill="#ADD1B2" rx="11" ry="11" style="stroke: #A80036; stroke-width: 1.0;"/><path d="M1936.9688,195.6094 Q1936.3906,195.9063 1935.75,196.0547 Q1935.1094,196.2031 1934.4063,196.2031 Q1931.9063,196.2031 1930.5859,194.5547 Q1929.2656,192.9063 1929.2656,189.7813 Q1929.2656,186.6563 1930.5859,185 Q1931.9063,183.3438 1934.4063,183.3438 Q1935.1094,183.3438 1935.7578,183.5 Q1936.4063,183.6563 1936.9688,183.9531 L1936.9688,186.6719 Q1936.3438,186.0938 1935.75,185.8203 Q1935.1563,185.5469 1934.5313,185.5469 Q1933.1875,185.5469 1932.5,186.6172 Q1931.8125,187.6875 1931.8125,189.7813 Q1931.8125,191.875 1932.5,192.9453 Q1933.1875,194.0156 1934.5313,194.0156 Q1935.1563,194.0156 1935.75,193.7422 Q1936.3438,193.4688 1936.9688,192.8906 L1936.9688,195.6094 Z "/><text fill="#000000" font-family="sans-serif" font-size="12" font-style="italic" lengthAdjust="spacingAndGlyphs" textLength="191" x="1946" y="187.1387">«dogen::handcrafted::typeable»</text><text fill="#000000" font-family="sans-serif" font-size="12" lengthAdjust="spacingAndGlyphs" textLength="54" x="2014.5" y="201.1074">initializer</text><line style="stroke: #A80036; stroke-width: 1.5;" x1="1920" x2="2137" y1="208.9375" y2="208.9375"/><line style="stroke: #A80036; stroke-width: 1.5;" x1="1920" x2="2137" y1="216.9375" y2="216.9375"/><!--MD5=[4520fda4e10d4d791ce48fe025810cd4]
class main--><rect fill="#DDA9F3" filter="url(#f1j6nx59iqf4kz)" height="53.9375" id="main" style="stroke: #A80036; stroke-width: 1.5;" width="149" x="1974" y="24"/><rect fill="#DDA9F3" height="37.9375" style="stroke: #A80036; stroke-width: 1.5;" width="149" x="1974" y="24"/><ellipse cx="1989" cy="42.9688" fill="#ADD1B2" rx="11" ry="11" style="stroke: #A80036; stroke-width: 1.0;"/><path d="M1991.9688,48.6094 Q1991.3906,48.9063 1990.75,49.0547 Q1990.1094,49.2031 1989.4063,49.2031 Q1986.9063,49.2031 1985.5859,47.5547 Q1984.2656,45.9063 1984.2656,42.7813 Q1984.2656,39.6563 1985.5859,38 Q1986.9063,36.3438 1989.4063,36.3438 Q1990.1094,36.3438 1990.7578,36.5 Q1991.4063,36.6563 1991.9688,36.9531 L1991.9688,39.6719 Q1991.3438,39.0938 1990.75,38.8203 Q1990.1563,38.5469 1989.5313,38.5469 Q1988.1875,38.5469 1987.5,39.6172 Q1986.8125,40.6875 1986.8125,42.7813 Q1986.8125,44.875 1987.5,45.9453 Q1988.1875,47.0156 1989.5313,47.0156 Q1990.1563,47.0156 1990.75,46.7422 Q1991.3438,46.4688 1991.9688,45.8906 L1991.9688,48.6094 Z "/><text fill="#000000" font-family="sans-serif" font-size="12" font-style="italic" lengthAdjust="spacingAndGlyphs" textLength="121" x="2001" y="40.1387">«masd::entry_point»</text><text fill="#000000" font-family="sans-serif" font-size="12" lengthAdjust="spacingAndGlyphs" textLength="30" x="2046.5" y="54.1074">main</text><line style="stroke: #A80036; stroke-width: 1.5;" x1="1975" x2="2122" y1="61.9375" y2="61.9375"/><line style="stroke: #A80036; stroke-width: 1.5;" x1="1975" x2="2122" y1="69.9375" y2="69.9375"/><!--MD5=[ba83386d426114557685538e96aa6f68]
class CMakeLists--><rect fill="#99CB99" filter="url(#f1j6nx59iqf4kz)" height="53.9375" id="CMakeLists" style="stroke: #A80036; stroke-width: 1.5;" width="354" x="2565.5" y="24"/><rect fill="#99CB99" height="37.9375" style="stroke: #A80036; stroke-width: 1.5;" width="354" x="2565.5" y="24"/><ellipse cx="2580.5" cy="42.9688" fill="#ADD1B2" rx="11" ry="11" style="stroke: #A80036; stroke-width: 1.0;"/><path d="M2583.4688,48.6094 Q2582.8906,48.9063 2582.25,49.0547 Q2581.6094,49.2031 2580.9063,49.2031 Q2578.4063,49.2031 2577.0859,47.5547 Q2575.7656,45.9063 2575.7656,42.7813 Q2575.7656,39.6563 2577.0859,38 Q2578.4063,36.3438 2580.9063,36.3438 Q2581.6094,36.3438 2582.2578,36.5 Q2582.9063,36.6563 2583.4688,36.9531 L2583.4688,39.6719 Q2582.8438,39.0938 2582.25,38.8203 Q2581.6563,38.5469 2581.0313,38.5469 Q2579.6875,38.5469 2579,39.6172 Q2578.3125,40.6875 2578.3125,42.7813 Q2578.3125,44.875 2579,45.9453 Q2579.6875,47.0156 2581.0313,47.0156 Q2581.6563,47.0156 2582.25,46.7422 Q2582.8438,46.4688 2583.4688,45.8906 L2583.4688,48.6094 Z "/><text fill="#000000" font-family="sans-serif" font-size="12" font-style="italic" lengthAdjust="spacingAndGlyphs" textLength="326" x="2592.5" y="40.1387">«masd::build::cmakelists, dogen::handcrafted::cmake»</text><text fill="#000000" font-family="sans-serif" font-size="12" lengthAdjust="spacingAndGlyphs" textLength="69" x="2721" y="54.1074">CMakeLists</text><line style="stroke: #A80036; stroke-width: 1.5;" x1="2566.5" x2="2918.5" y1="61.9375" y2="61.9375"/><line style="stroke: #A80036; stroke-width: 1.5;" x1="2566.5" x2="2918.5" y1="69.9375" y2="69.9375"/><!--MD5=[ba180580ad95d230c2879bb9fe41a1f4]
reverse link configuration to cli_configuration--><path d="M1292.77,378.49 C1169.06,399.45 1007.46,426.84 876.8,448.98 " fill="none" id="configuration&lt;-cli_configuration" style="stroke: #A80036; stroke-width: 1.0;"/><polygon fill="#FFFFFF" points="1305.76,376.29,1299.1766,373.3474,1293.9283,378.2927,1300.5117,381.2352,1305.76,376.29" style="stroke: #A80036; stroke-width: 1.0;"/><!--MD5=[e9fc7eca6be093608683b116130c31f3]
reverse link cli_configuration to generation_configuration--><path d="M576.63,536.26 C550.68,553.45 521.29,572.9 495.5,589.98 " fill="none" id="cli_configuration&lt;-generation_configuration" style="stroke: #A80036; stroke-width: 1.0;"/><polygon fill="#FFFFFF" points="587.52,529.05,580.3089,529.0302,577.5172,535.679,584.7283,535.6988,587.52,529.05" style="stroke: #A80036; stroke-width: 1.0;"/><!--MD5=[eebc28fa6e674da571482d90a01a47f1]
reverse link cli_configuration to conversion_configuration--><path d="M708.11,537.02 C733.04,556.04 761.48,577.74 785.24,595.88 " fill="none" id="cli_configuration&lt;-conversion_configuration" style="stroke: #A80036; stroke-width: 1.0;"/><polygon fill="#FFFFFF" points="697.67,529.05,700.0116,535.8703,707.2079,536.3321,704.8663,529.5117,697.67,529.05" style="stroke: #A80036; stroke-width: 1.0;"/><!--MD5=[b347f0c37e4f4d7b1ecf77cc0946974c]
reverse link cli_configuration to dumpspecs_configuration--><path d="M825.69,532.04 C937.23,558.21 1076.33,590.85 1167.65,612.28 " fill="none" id="cli_configuration&lt;-dumpspecs_configuration" style="stroke: #A80036; stroke-width: 1.0;"/><polygon fill="#FFFFFF" points="812.93,529.05,817.857,534.3154,824.6124,531.7926,819.6854,526.5272,812.93,529.05" style="stroke: #A80036; stroke-width: 1.0;"/><!--MD5=[0c87b401cfba6408e33fd1b53bf61973]
reverse link configuration_validator to configuration--><path d="M1345.64,233.37 C1371.34,253.85 1404.16,279.99 1431.44,301.73 " fill="none" id="configuration_validator&lt;-configuration" style="stroke: #A80036; stroke-width: 1.0;"/><polygon fill="#FFFFFF" points="1335.46,225.26,1337.6618,232.1268,1344.8471,232.7354,1342.6454,225.8687,1335.46,225.26" style="stroke: #A80036; stroke-width: 1.0;"/><text fill="#000000" font-family="sans-serif" font-size="13" lengthAdjust="spacingAndGlyphs" textLength="57" x="1394.5" y="268.0669">validates</text><!--MD5=[8314b5e79e25c192b7c4dfc422677a8d]
reverse link command_line_parser to parser_exception--><path d="M709.82,231.16 C760.37,257.24 830.75,293.56 877.87,317.87 " fill="none" id="command_line_parser&lt;-parser_exception" style="stroke: #A80036; stroke-width: 1.0;"/><polygon fill="#FFFFFF" points="698.06,225.09,701.5605,231.3945,708.7264,230.588,705.2259,224.2835,698.06,225.09" style="stroke: #A80036; stroke-width: 1.0;"/><text fill="#000000" font-family="sans-serif" font-size="13" lengthAdjust="spacingAndGlyphs" textLength="42" x="789.5" y="268.0669">throws</text><!--MD5=[3efc224ec550cb13d49255403d212b8a]
reverse link command_line_parser to configuration--><path d="M809.8,227.12 C952.14,251.78 1158.76,287.57 1305.79,313.04 " fill="none" id="command_line_parser&lt;-configuration" style="stroke: #A80036; stroke-width: 1.0;"/><polygon fill="#FFFFFF" points="796.66,224.84,801.8904,229.8042,808.4844,226.8855,803.254,221.9213,796.66,224.84" style="stroke: #A80036; stroke-width: 1.0;"/><text fill="#000000" font-family="sans-serif" font-size="13" lengthAdjust="spacingAndGlyphs" textLength="48" x="1067.5" y="268.0669">creates</text><!--MD5=[c57371ade1975b1b1e6a0123b2385174]
reverse link application to application_exception--><path d="M2412.3,231.49 C2458.68,257.55 2522.93,293.66 2566.02,317.87 " fill="none" id="application&lt;-application_exception" style="stroke: #A80036; stroke-width: 1.0;"/><polygon fill="#FFFFFF" points="2400.92,225.09,2404.1923,231.5159,2411.3824,230.9669,2408.1102,224.541,2400.92,225.09" style="stroke: #A80036; stroke-width: 1.0;"/><text fill="#000000" font-family="sans-serif" font-size="13" lengthAdjust="spacingAndGlyphs" textLength="42" x="2484.5" y="268.0669">throws</text><!--MD5=[3d259779bcc0e554f60688e03f565a28]
reverse link application to configuration--><path d="M2304.15,231.97 C2279.11,246.73 2247.79,262.84 2217.5,272 C2117.44,302.27 1846.2,323.24 1663.25,334.45 " fill="none" id="application&lt;-configuration" style="stroke: #A80036; stroke-width: 1.0;"/><polygon fill="#FFFFFF" points="2315.54,225.09,2308.3362,224.7647,2305.2652,231.2891,2312.469,231.6145,2315.54,225.09" style="stroke: #A80036; stroke-width: 1.0;"/><text fill="#000000" font-family="sans-serif" font-size="13" lengthAdjust="spacingAndGlyphs" textLength="86" x="2257.5" y="268.0669">configured by</text><!--MD5=[397d303c4aab79a49b7a62974140bade]
reverse link command_line_parser to program_options_parser--><path d="M647.5,245.3 C647.5,269.32 647.5,297.77 647.5,317.94 " fill="none" id="command_line_parser&lt;-program_options_parser" style="stroke: #A80036; stroke-width: 1.0;"/><polygon fill="none" points="640.5,245.26,647.5,225.26,654.5,245.26,640.5,245.26" style="stroke: #A80036; stroke-width: 1.0;"/><!--MD5=[c3b4718077245bf6e14e29a01b633966]
reverse link main to command_line_parser--><path d="M1960.67,58.66 C1758.07,74.42 1242.49,116.79 813.5,171 C808,171.69 802.4,172.43 796.75,173.2 " fill="none" id="main&lt;-command_line_parser" style="stroke: #A80036; stroke-width: 1.0;"/><polygon fill="#FFFFFF" points="1973.85,57.64,1967.56,54.1136,1961.8856,58.5634,1968.1756,62.0898,1973.85,57.64" style="stroke: #A80036; stroke-width: 1.0;"/><text fill="#000000" font-family="sans-serif" font-size="13" lengthAdjust="spacingAndGlyphs" textLength="161" x="1221.5" y="137.0669">reads configuration using</text><!--MD5=[05637945eff6c7245241be2128f91b3c]
reverse link main to initializer--><path d="M2043.1,91.14 C2039.61,116.46 2035.16,148.72 2032.09,170.94 " fill="none" id="main&lt;-initializer" style="stroke: #A80036; stroke-width: 1.0;"/><polygon fill="#FFFFFF" points="2044.88,78.26,2040.0943,83.6541,2043.2328,90.1464,2048.0185,84.7523,2044.88,78.26" style="stroke: #A80036; stroke-width: 1.0;"/><!--MD5=[6a6fc54b18b977ab93e1f1216de448e8]
reverse link main to application--><path d="M2125.48,83.14 C2154.56,95.33 2187.79,109.79 2217.5,124 C2248.13,138.65 2281.8,156.57 2308.09,170.98 " fill="none" id="main&lt;-application" style="stroke: #A80036; stroke-width: 1.0;"/><polygon fill="#FFFFFF" points="2113.29,78.05,2117.29,84.05,2124.3669,82.6654,2120.3669,76.6654,2113.29,78.05" style="stroke: #A80036; stroke-width: 1.0;"/><text fill="#000000" font-family="sans-serif" font-size="13" lengthAdjust="spacingAndGlyphs" textLength="58" x="2248.5" y="137.0669">executes</text><!--MD5=[846bb8832f2ef22fb393f99041e3fafe]
reverse link main to configuration--><path d="M2095.29,86.48 C2139.03,122.86 2192.47,180.9 2155.5,225 C2093.79,298.61 1840.42,326.72 1663.34,337.43 " fill="none" id="main&lt;-configuration" style="stroke: #A80036; stroke-width: 1.0;"/><polygon fill="#FFFFFF" points="2085.01,78.17,2087.1586,85.0536,2094.3391,85.7177,2092.1905,78.8342,2085.01,78.17" style="stroke: #A80036; stroke-width: 1.0;"/><!--MD5=[1f2b5512e997725de36dff30462be1e0]
@startuml
set namespaceSeparator ::
note as N1
Implements the command-line interface for Dogen.

UML representation:

\image html dogen.cli/modeling/dogen.cli.svg
end note

class configuration #F7E5FF {
    +{field} logging boost::optional<utility::log::logging_configuration>
    +{field} api dogen::configuration
    +{field} cli cli_configuration
}

configuration o- - cli_configuration

note top of  configuration
All of the configuration required by the command line application.
end note

class cli_configuration <<masd::fluent>> #F7E5FF {
    +{field} activity boost::variant<generation_configuration, conversion_configuration, dumpspecs_configuration>
    +{field} byproduct_directory boost::filesystem::path
}

cli_configuration o- - generation_configuration
cli_configuration o- - conversion_configuration
cli_configuration o- - dumpspecs_configuration

note top of  cli_configuration
Configuration specific to the CLI application.
end note

class generation_configuration <<masd::fluent>> #F7E5FF {
    +{field} reference_model_directories std::vector<boost::filesystem::path>
    +{field} target boost::filesystem::path
    +{field} output_directory boost::filesystem::path
}

note top of  generation_configuration
Configuration related to code generation.
end note

class conversion_configuration <<masd::fluent>> #F7E5FF {
    +{field} source boost::filesystem::path
    +{field} destination std::string
}

note top of  conversion_configuration
Configuration for the model conversion.
end note

class dumpspecs_configuration <<masd::fluent>> #F7E5FF {
    +{field} style reporting_style
}

note top of  dumpspecs_configuration
Dumps all the specs about this version of dogen.
end note

class configuration_validator <<dogen::handcrafted::typeable>> #FFFACD {
}

configuration_validator o- - configuration: validates

class command_line_parser <<dogen::handcrafted::typeable::header_only>> #FFFACD {
}

command_line_parser o- - parser_exception: throws
command_line_parser o- - configuration: creates

note top of  command_line_parser
Interface for a command-line parser of the dogen options.
end note

class parser_exception <<masd::exception>> #E8C2F8 {
}

note top of  parser_exception
A fatal error has occurred during option parsing.
end note

class application <<dogen::handcrafted::typeable>> #FFFACD {
}

application o- - application_exception: throws
application o- - configuration: configured by

note top of  application
Entry point for the dogen command line application.
end note

class application_exception <<masd::exception>> #E8C2F8 {
}

note top of  application_exception
A fatal error has occurred whilst executing the application.
end note

class program_options_parser <<dogen::handcrafted::typeable>> #FFFACD {
}

command_line_parser <|- - program_options_parser
note top of  program_options_parser
Command-line parser implementation using boost program options.
end note

class initializer <<dogen::handcrafted::typeable>> #FFFACD {
}

class main <<masd::entry_point>> #DDA9F3 {
}

main o- - command_line_parser: reads configuration using
main o- - initializer
main o- - application: executes
main o- - configuration

class CMakeLists <<masd::build::cmakelists, dogen::handcrafted::cmake>> #99CB99 {
}

@enduml

PlantUML version 1.2020.02(Sun Mar 01 10:22:07 GMT 2020)
(GPL source distribution)
Java Runtime: OpenJDK Runtime Environment
JVM: OpenJDK 64-Bit Server VM
Java Version: 1.8.0_222-8u222-b10-1~deb9u1-b10
Operating System: Linux
Default Encoding: UTF-8
Language: en
Country: GB
--></g></svg>