<?xml version="1.0" encoding="UTF-8" standalone="no"?><svg xmlns="http://www.w3.org/2000/svg" xmlns:xlink="http://www.w3.org/1999/xlink" contentScriptType="application/ecmascript" contentStyleType="text/css" height="339px" preserveAspectRatio="none" style="width:4182px;height:339px;" version="1.1" viewBox="0 0 4182 339" width="4182px" zoomAndPan="magnify"><defs><filter height="300%" id="f1eskarktu187p" width="300%" x="-1" y="-1"><feGaussianBlur result="blurOut" stdDeviation="2.0"/><feColorMatrix in="blurOut" result="blurOut2" type="matrix" values="0 0 0 0 0 0 0 0 0 0 0 0 0 0 0 0 0 0 .4 0"/><feOffset dx="4.0" dy="4.0" in="blurOut2" result="blurOut3"/><feBlend in="SourceGraphic" in2="blurOut3" mode="normal"/></filter></defs><g><path d="M15,8 L15,63.3984 L364,63.3984 L364,18 L354,8 L15,8 " fill="#FBFB77" filter="url(#f1eskarktu187p)" style="stroke: #A80036; stroke-width: 1.0;"/><path d="M354,8 L354,18 L364,18 L354,8 " fill="#FBFB77" style="stroke: #A80036; stroke-width: 1.0;"/><text fill="#000000" font-family="sans-serif" font-size="13" lengthAdjust="spacingAndGlyphs" textLength="0" x="25" y="25.0669"/><text fill="#000000" font-family="sans-serif" font-size="13" lengthAdjust="spacingAndGlyphs" textLength="328" x="21" y="40.1997">Implements the command-line interface for Dogen.</text><text fill="#000000" font-family="sans-serif" font-size="13" lengthAdjust="spacingAndGlyphs" textLength="0" x="25" y="55.3325"/><!--MD5=[19d92d75b2be9a5f372e551632eaad56]
class parser_exception--><rect fill="#E8C2F8" filter="url(#f1eskarktu187p)" height="53.9375" id="parser_exception" style="stroke: #A80036; stroke-width: 1.5;" width="145" x="1106" y="142"/><rect fill="#E8C2F8" height="37.9375" style="stroke: #A80036; stroke-width: 1.5;" width="145" x="1106" y="142"/><ellipse cx="1121" cy="160.9688" fill="#ADD1B2" rx="11" ry="11" style="stroke: #A80036; stroke-width: 1.0;"/><path d="M1123.9688,166.6094 Q1123.3906,166.9063 1122.75,167.0547 Q1122.1094,167.2031 1121.4063,167.2031 Q1118.9063,167.2031 1117.5859,165.5547 Q1116.2656,163.9063 1116.2656,160.7813 Q1116.2656,157.6563 1117.5859,156 Q1118.9063,154.3438 1121.4063,154.3438 Q1122.1094,154.3438 1122.7578,154.5 Q1123.4063,154.6563 1123.9688,154.9531 L1123.9688,157.6719 Q1123.3438,157.0938 1122.75,156.8203 Q1122.1563,156.5469 1121.5313,156.5469 Q1120.1875,156.5469 1119.5,157.6172 Q1118.8125,158.6875 1118.8125,160.7813 Q1118.8125,162.875 1119.5,163.9453 Q1120.1875,165.0156 1121.5313,165.0156 Q1122.1563,165.0156 1122.75,164.7422 Q1123.3438,164.4688 1123.9688,163.8906 L1123.9688,166.6094 Z "/><text fill="#000000" font-family="sans-serif" font-size="12" font-style="italic" lengthAdjust="spacingAndGlyphs" textLength="117" x="1133" y="158.1387">«masd::exception»</text><text fill="#000000" font-family="sans-serif" font-size="12" lengthAdjust="spacingAndGlyphs" textLength="108" x="1137.5" y="172.1074">parser_exception</text><line style="stroke: #A80036; stroke-width: 1.5;" x1="1107" x2="1250" y1="179.9375" y2="179.9375"/><line style="stroke: #A80036; stroke-width: 1.5;" x1="1107" x2="1250" y1="187.9375" y2="187.9375"/><path d="M1015,8 L1015,63.3984 A0,0 0 0 0 1015,63.3984 L1174.5,63.3984 L1178.5,141.88 L1182.5,63.3984 L1342,63.3984 A0,0 0 0 0 1342,63.3984 L1342,18 L1332,8 L1015,8 A0,0 0 0 0 1015,8 " fill="#FBFB77" filter="url(#f1eskarktu187p)" style="stroke: #A80036; stroke-width: 1.0;"/><path d="M1332,8 L1332,18 L1342,18 L1332,8 " fill="#FBFB77" style="stroke: #A80036; stroke-width: 1.0;"/><text fill="#000000" font-family="sans-serif" font-size="13" lengthAdjust="spacingAndGlyphs" textLength="0" x="1025" y="25.0669"/><text fill="#000000" font-family="sans-serif" font-size="13" lengthAdjust="spacingAndGlyphs" textLength="306" x="1021" y="40.1997">A fatal error has occurred during option parsing.</text><text fill="#000000" font-family="sans-serif" font-size="13" lengthAdjust="spacingAndGlyphs" textLength="0" x="1025" y="55.3325"/><!--MD5=[1700babc4216d044a93a74805c70996c]
class application--><rect fill="#FFFACD" filter="url(#f1eskarktu187p)" height="53.9375" id="application" style="stroke: #A80036; stroke-width: 1.5;" width="230" x="399.5" y="8.5"/><rect fill="#FFFACD" height="37.9375" style="stroke: #A80036; stroke-width: 1.5;" width="230" x="399.5" y="8.5"/><ellipse cx="414.5" cy="27.4688" fill="#ADD1B2" rx="11" ry="11" style="stroke: #A80036; stroke-width: 1.0;"/><path d="M417.4688,33.1094 Q416.8906,33.4063 416.25,33.5547 Q415.6094,33.7031 414.9063,33.7031 Q412.4063,33.7031 411.0859,32.0547 Q409.7656,30.4063 409.7656,27.2813 Q409.7656,24.1563 411.0859,22.5 Q412.4063,20.8438 414.9063,20.8438 Q415.6094,20.8438 416.2578,21 Q416.9063,21.1563 417.4688,21.4531 L417.4688,24.1719 Q416.8438,23.5938 416.25,23.3203 Q415.6563,23.0469 415.0313,23.0469 Q413.6875,23.0469 413,24.1172 Q412.3125,25.1875 412.3125,27.2813 Q412.3125,29.375 413,30.4453 Q413.6875,31.5156 415.0313,31.5156 Q415.6563,31.5156 416.25,31.2422 Q416.8438,30.9688 417.4688,30.3906 L417.4688,33.1094 Z "/><text fill="#000000" font-family="sans-serif" font-size="12" font-style="italic" lengthAdjust="spacingAndGlyphs" textLength="202" x="426.5" y="24.6387">«dogen::handcrafted::typeable»</text><text fill="#000000" font-family="sans-serif" font-size="12" lengthAdjust="spacingAndGlyphs" textLength="69" x="493" y="38.6074">application</text><line style="stroke: #A80036; stroke-width: 1.5;" x1="400.5" x2="628.5" y1="46.4375" y2="46.4375"/><line style="stroke: #A80036; stroke-width: 1.5;" x1="400.5" x2="628.5" y1="54.4375" y2="54.4375"/><!--MD5=[31e2917de18cd947063b84aa2c6f9552]
class command_line_parser--><rect fill="#FFFACD" filter="url(#f1eskarktu187p)" height="53.9375" id="command_line_parser" style="stroke: #A80036; stroke-width: 1.5;" width="315" x="1377" y="8.5"/><rect fill="#FFFACD" height="37.9375" style="stroke: #A80036; stroke-width: 1.5;" width="315" x="1377" y="8.5"/><ellipse cx="1392" cy="27.4688" fill="#ADD1B2" rx="11" ry="11" style="stroke: #A80036; stroke-width: 1.0;"/><path d="M1394.9688,33.1094 Q1394.3906,33.4063 1393.75,33.5547 Q1393.1094,33.7031 1392.4063,33.7031 Q1389.9063,33.7031 1388.5859,32.0547 Q1387.2656,30.4063 1387.2656,27.2813 Q1387.2656,24.1563 1388.5859,22.5 Q1389.9063,20.8438 1392.4063,20.8438 Q1393.1094,20.8438 1393.7578,21 Q1394.4063,21.1563 1394.9688,21.4531 L1394.9688,24.1719 Q1394.3438,23.5938 1393.75,23.3203 Q1393.1563,23.0469 1392.5313,23.0469 Q1391.1875,23.0469 1390.5,24.1172 Q1389.8125,25.1875 1389.8125,27.2813 Q1389.8125,29.375 1390.5,30.4453 Q1391.1875,31.5156 1392.5313,31.5156 Q1393.1563,31.5156 1393.75,31.2422 Q1394.3438,30.9688 1394.9688,30.3906 L1394.9688,33.1094 Z "/><text fill="#000000" font-family="sans-serif" font-size="12" font-style="italic" lengthAdjust="spacingAndGlyphs" textLength="287" x="1404" y="24.6387">«dogen::handcrafted::typeable::header_only»</text><text fill="#000000" font-family="sans-serif" font-size="12" lengthAdjust="spacingAndGlyphs" textLength="136" x="1479.5" y="38.6074">command_line_parser</text><line style="stroke: #A80036; stroke-width: 1.5;" x1="1378" x2="1691" y1="46.4375" y2="46.4375"/><line style="stroke: #A80036; stroke-width: 1.5;" x1="1378" x2="1691" y1="54.4375" y2="54.4375"/><!--MD5=[125701c02a148bb9f8af9b45c45251cb]
class program_options_parser--><rect fill="#FFFACD" filter="url(#f1eskarktu187p)" height="53.9375" id="program_options_parser" style="stroke: #A80036; stroke-width: 1.5;" width="230" x="1419.5" y="142"/><rect fill="#FFFACD" height="37.9375" style="stroke: #A80036; stroke-width: 1.5;" width="230" x="1419.5" y="142"/><ellipse cx="1434.5" cy="160.9688" fill="#ADD1B2" rx="11" ry="11" style="stroke: #A80036; stroke-width: 1.0;"/><path d="M1437.4688,166.6094 Q1436.8906,166.9063 1436.25,167.0547 Q1435.6094,167.2031 1434.9063,167.2031 Q1432.4063,167.2031 1431.0859,165.5547 Q1429.7656,163.9063 1429.7656,160.7813 Q1429.7656,157.6563 1431.0859,156 Q1432.4063,154.3438 1434.9063,154.3438 Q1435.6094,154.3438 1436.2578,154.5 Q1436.9063,154.6563 1437.4688,154.9531 L1437.4688,157.6719 Q1436.8438,157.0938 1436.25,156.8203 Q1435.6563,156.5469 1435.0313,156.5469 Q1433.6875,156.5469 1433,157.6172 Q1432.3125,158.6875 1432.3125,160.7813 Q1432.3125,162.875 1433,163.9453 Q1433.6875,165.0156 1435.0313,165.0156 Q1435.6563,165.0156 1436.25,164.7422 Q1436.8438,164.4688 1437.4688,163.8906 L1437.4688,166.6094 Z "/><text fill="#000000" font-family="sans-serif" font-size="12" font-style="italic" lengthAdjust="spacingAndGlyphs" textLength="202" x="1446.5" y="158.1387">«dogen::handcrafted::typeable»</text><text fill="#000000" font-family="sans-serif" font-size="12" lengthAdjust="spacingAndGlyphs" textLength="153" x="1471" y="172.1074">program_options_parser</text><line style="stroke: #A80036; stroke-width: 1.5;" x1="1420.5" x2="1648.5" y1="179.9375" y2="179.9375"/><line style="stroke: #A80036; stroke-width: 1.5;" x1="1420.5" x2="1648.5" y1="187.9375" y2="187.9375"/><!--MD5=[32b5f1a360ddc948a263330cc82d5dc3]
class injector_factory--><rect fill="#FFFACD" filter="url(#f1eskarktu187p)" height="53.9375" id="injector_factory" style="stroke: #A80036; stroke-width: 1.5;" width="315" x="665" y="8.5"/><rect fill="#FFFACD" height="37.9375" style="stroke: #A80036; stroke-width: 1.5;" width="315" x="665" y="8.5"/><ellipse cx="680" cy="27.4688" fill="#ADD1B2" rx="11" ry="11" style="stroke: #A80036; stroke-width: 1.0;"/><path d="M682.9688,33.1094 Q682.3906,33.4063 681.75,33.5547 Q681.1094,33.7031 680.4063,33.7031 Q677.9063,33.7031 676.5859,32.0547 Q675.2656,30.4063 675.2656,27.2813 Q675.2656,24.1563 676.5859,22.5 Q677.9063,20.8438 680.4063,20.8438 Q681.1094,20.8438 681.7578,21 Q682.4063,21.1563 682.9688,21.4531 L682.9688,24.1719 Q682.3438,23.5938 681.75,23.3203 Q681.1563,23.0469 680.5313,23.0469 Q679.1875,23.0469 678.5,24.1172 Q677.8125,25.1875 677.8125,27.2813 Q677.8125,29.375 678.5,30.4453 Q679.1875,31.5156 680.5313,31.5156 Q681.1563,31.5156 681.75,31.2422 Q682.3438,30.9688 682.9688,30.3906 L682.9688,33.1094 Z "/><text fill="#000000" font-family="sans-serif" font-size="12" font-style="italic" lengthAdjust="spacingAndGlyphs" textLength="287" x="692" y="24.6387">«dogen::handcrafted::typeable::header_only»</text><text fill="#000000" font-family="sans-serif" font-size="12" lengthAdjust="spacingAndGlyphs" textLength="96" x="787.5" y="38.6074">injector_factory</text><line style="stroke: #A80036; stroke-width: 1.5;" x1="666" x2="979" y1="46.4375" y2="46.4375"/><line style="stroke: #A80036; stroke-width: 1.5;" x1="666" x2="979" y1="54.4375" y2="54.4375"/><!--MD5=[39e485302053a8075caa6c13ab91b957]
class application_exception--><rect fill="#E8C2F8" filter="url(#f1eskarktu187p)" height="53.9375" id="application_exception" style="stroke: #A80036; stroke-width: 1.5;" width="168" x="1838.5" y="142"/><rect fill="#E8C2F8" height="37.9375" style="stroke: #A80036; stroke-width: 1.5;" width="168" x="1838.5" y="142"/><ellipse cx="1853.5" cy="160.9688" fill="#ADD1B2" rx="11" ry="11" style="stroke: #A80036; stroke-width: 1.0;"/><path d="M1856.4688,166.6094 Q1855.8906,166.9063 1855.25,167.0547 Q1854.6094,167.2031 1853.9063,167.2031 Q1851.4063,167.2031 1850.0859,165.5547 Q1848.7656,163.9063 1848.7656,160.7813 Q1848.7656,157.6563 1850.0859,156 Q1851.4063,154.3438 1853.9063,154.3438 Q1854.6094,154.3438 1855.2578,154.5 Q1855.9063,154.6563 1856.4688,154.9531 L1856.4688,157.6719 Q1855.8438,157.0938 1855.25,156.8203 Q1854.6563,156.5469 1854.0313,156.5469 Q1852.6875,156.5469 1852,157.6172 Q1851.3125,158.6875 1851.3125,160.7813 Q1851.3125,162.875 1852,163.9453 Q1852.6875,165.0156 1854.0313,165.0156 Q1854.6563,165.0156 1855.25,164.7422 Q1855.8438,164.4688 1856.4688,163.8906 L1856.4688,166.6094 Z "/><text fill="#000000" font-family="sans-serif" font-size="12" font-style="italic" lengthAdjust="spacingAndGlyphs" textLength="117" x="1877" y="158.1387">«masd::exception»</text><text fill="#000000" font-family="sans-serif" font-size="12" lengthAdjust="spacingAndGlyphs" textLength="136" x="1867.5" y="172.1074">application_exception</text><line style="stroke: #A80036; stroke-width: 1.5;" x1="1839.5" x2="2005.5" y1="179.9375" y2="179.9375"/><line style="stroke: #A80036; stroke-width: 1.5;" x1="1839.5" x2="2005.5" y1="187.9375" y2="187.9375"/><path d="M1727,8 L1727,63.3984 A0,0 0 0 0 1727,63.3984 L1918.5,63.3984 L1922.5,141.88 L1926.5,63.3984 L2118,63.3984 A0,0 0 0 0 2118,63.3984 L2118,18 L2108,8 L1727,8 A0,0 0 0 0 1727,8 " fill="#FBFB77" filter="url(#f1eskarktu187p)" style="stroke: #A80036; stroke-width: 1.0;"/><path d="M2108,8 L2108,18 L2118,18 L2108,8 " fill="#FBFB77" style="stroke: #A80036; stroke-width: 1.0;"/><text fill="#000000" font-family="sans-serif" font-size="13" lengthAdjust="spacingAndGlyphs" textLength="0" x="1737" y="25.0669"/><text fill="#000000" font-family="sans-serif" font-size="13" lengthAdjust="spacingAndGlyphs" textLength="370" x="1733" y="40.1997">A fatal error has occurred whilst executing the application.</text><text fill="#000000" font-family="sans-serif" font-size="13" lengthAdjust="spacingAndGlyphs" textLength="0" x="1737" y="55.3325"/><!--MD5=[5bbd3befcf1686b7fd148cc582657d1c]
class configuration--><rect fill="#F7E5FF" filter="url(#f1eskarktu187p)" height="86.4141" id="configuration" style="stroke: #A80036; stroke-width: 1.5;" width="358" x="2192.5" y="126"/><rect fill="#F7E5FF" height="32" style="stroke: #A80036; stroke-width: 1.5;" width="358" x="2192.5" y="126"/><ellipse cx="2325.75" cy="142" fill="#ADD1B2" rx="11" ry="11" style="stroke: #A80036; stroke-width: 1.0;"/><path d="M2328.7188,147.6406 Q2328.1406,147.9375 2327.5,148.0859 Q2326.8594,148.2344 2326.1563,148.2344 Q2323.6563,148.2344 2322.3359,146.5859 Q2321.0156,144.9375 2321.0156,141.8125 Q2321.0156,138.6875 2322.3359,137.0313 Q2323.6563,135.375 2326.1563,135.375 Q2326.8594,135.375 2327.5078,135.5313 Q2328.1563,135.6875 2328.7188,135.9844 L2328.7188,138.7031 Q2328.0938,138.125 2327.5,137.8516 Q2326.9063,137.5781 2326.2813,137.5781 Q2324.9375,137.5781 2324.25,138.6484 Q2323.5625,139.7188 2323.5625,141.8125 Q2323.5625,143.9063 2324.25,144.9766 Q2324.9375,146.0469 2326.2813,146.0469 Q2326.9063,146.0469 2327.5,145.7734 Q2328.0938,145.5 2328.7188,144.9219 L2328.7188,147.6406 Z "/><text fill="#000000" font-family="sans-serif" font-size="12" lengthAdjust="spacingAndGlyphs" textLength="83" x="2346.25" y="146.1543">configuration</text><line style="stroke: #A80036; stroke-width: 1.5;" x1="2193.5" x2="2549.5" y1="158" y2="158"/><ellipse cx="2203.5" cy="169" fill="none" rx="3" ry="3" style="stroke: #038048; stroke-width: 1.0;"/><text fill="#000000" font-family="sans-serif" font-size="11" lengthAdjust="spacingAndGlyphs" textLength="332" x="2212.5" y="172.2104">logging boost::optional&lt;utility::log::logging_configuration&gt;</text><ellipse cx="2203.5" cy="181.8047" fill="none" rx="3" ry="3" style="stroke: #038048; stroke-width: 1.0;"/><text fill="#000000" font-family="sans-serif" font-size="11" lengthAdjust="spacingAndGlyphs" textLength="138" x="2212.5" y="185.0151">api dogen::configuration</text><ellipse cx="2203.5" cy="194.6094" fill="none" rx="3" ry="3" style="stroke: #038048; stroke-width: 1.0;"/><text fill="#000000" font-family="sans-serif" font-size="11" lengthAdjust="spacingAndGlyphs" textLength="108" x="2212.5" y="197.8198">cli cli_configuration</text><line style="stroke: #A80036; stroke-width: 1.5;" x1="2193.5" x2="2549.5" y1="204.4141" y2="204.4141"/><path d="M2153,8 L2153,63.3984 A0,0 0 0 0 2153,63.3984 L2367.5,63.3984 L2371.5,125.9 L2375.5,63.3984 L2590,63.3984 A0,0 0 0 0 2590,63.3984 L2590,18 L2580,8 L2153,8 A0,0 0 0 0 2153,8 " fill="#FBFB77" filter="url(#f1eskarktu187p)" style="stroke: #A80036; stroke-width: 1.0;"/><path d="M2580,8 L2580,18 L2590,18 L2580,8 " fill="#FBFB77" style="stroke: #A80036; stroke-width: 1.0;"/><text fill="#000000" font-family="sans-serif" font-size="13" lengthAdjust="spacingAndGlyphs" textLength="0" x="2163" y="25.0669"/><text fill="#000000" font-family="sans-serif" font-size="13" lengthAdjust="spacingAndGlyphs" textLength="416" x="2159" y="40.1997">All of the configuration required by the command line application.</text><text fill="#000000" font-family="sans-serif" font-size="13" lengthAdjust="spacingAndGlyphs" textLength="0" x="2163" y="55.3325"/><!--MD5=[e9a1f03b73bb165adbbef1025b775e42]
class generation_configuration--><rect fill="#F7E5FF" filter="url(#f1eskarktu187p)" height="92.3516" id="generation_configuration" style="stroke: #A80036; stroke-width: 1.5;" width="404" x="2585.5" y="123"/><rect fill="#F7E5FF" height="37.9375" style="stroke: #A80036; stroke-width: 1.5;" width="404" x="2585.5" y="123"/><ellipse cx="2704.25" cy="141.9688" fill="#ADD1B2" rx="11" ry="11" style="stroke: #A80036; stroke-width: 1.0;"/><path d="M2707.2188,147.6094 Q2706.6406,147.9063 2706,148.0547 Q2705.3594,148.2031 2704.6563,148.2031 Q2702.1563,148.2031 2700.8359,146.5547 Q2699.5156,144.9063 2699.5156,141.7813 Q2699.5156,138.6563 2700.8359,137 Q2702.1563,135.3438 2704.6563,135.3438 Q2705.3594,135.3438 2706.0078,135.5 Q2706.6563,135.6563 2707.2188,135.9531 L2707.2188,138.6719 Q2706.5938,138.0938 2706,137.8203 Q2705.4063,137.5469 2704.7813,137.5469 Q2703.4375,137.5469 2702.75,138.6172 Q2702.0625,139.6875 2702.0625,141.7813 Q2702.0625,143.875 2702.75,144.9453 Q2703.4375,146.0156 2704.7813,146.0156 Q2705.4063,146.0156 2706,145.7422 Q2706.5938,145.4688 2707.2188,144.8906 L2707.2188,147.6094 Z "/><text fill="#000000" font-family="sans-serif" font-size="12" font-style="italic" lengthAdjust="spacingAndGlyphs" textLength="91" x="2758.25" y="139.1387">«masd::fluent»</text><text fill="#000000" font-family="sans-serif" font-size="12" lengthAdjust="spacingAndGlyphs" textLength="158" x="2724.75" y="153.1074">generation_configuration</text><line style="stroke: #A80036; stroke-width: 1.5;" x1="2586.5" x2="2988.5" y1="160.9375" y2="160.9375"/><ellipse cx="2596.5" cy="171.9375" fill="none" rx="3" ry="3" style="stroke: #038048; stroke-width: 1.0;"/><text fill="#000000" font-family="sans-serif" font-size="11" lengthAdjust="spacingAndGlyphs" textLength="378" x="2605.5" y="175.1479">reference_model_directories std::vector&lt;boost::filesystem::path&gt;</text><ellipse cx="2596.5" cy="184.7422" fill="none" rx="3" ry="3" style="stroke: #038048; stroke-width: 1.0;"/><text fill="#000000" font-family="sans-serif" font-size="11" lengthAdjust="spacingAndGlyphs" textLength="170" x="2605.5" y="187.9526">target boost::filesystem::path</text><ellipse cx="2596.5" cy="197.5469" fill="none" rx="3" ry="3" style="stroke: #038048; stroke-width: 1.0;"/><text fill="#000000" font-family="sans-serif" font-size="11" lengthAdjust="spacingAndGlyphs" textLength="228" x="2605.5" y="200.7573">output_directory boost::filesystem::path</text><line style="stroke: #A80036; stroke-width: 1.5;" x1="2586.5" x2="2988.5" y1="207.3516" y2="207.3516"/><path d="M2645.5,8 L2645.5,63.3984 A0,0 0 0 0 2645.5,63.3984 L2783.5,63.3984 L2787.5,122.78 L2791.5,63.3984 L2929.5,63.3984 A0,0 0 0 0 2929.5,63.3984 L2929.5,18 L2919.5,8 L2645.5,8 A0,0 0 0 0 2645.5,8 " fill="#FBFB77" filter="url(#f1eskarktu187p)" style="stroke: #A80036; stroke-width: 1.0;"/><path d="M2919.5,8 L2919.5,18 L2929.5,18 L2919.5,8 " fill="#FBFB77" style="stroke: #A80036; stroke-width: 1.0;"/><text fill="#000000" font-family="sans-serif" font-size="13" lengthAdjust="spacingAndGlyphs" textLength="0" x="2655.5" y="25.0669"/><text fill="#000000" font-family="sans-serif" font-size="13" lengthAdjust="spacingAndGlyphs" textLength="263" x="2651.5" y="40.1997">Configuration related to code generation.</text><text fill="#000000" font-family="sans-serif" font-size="13" lengthAdjust="spacingAndGlyphs" textLength="0" x="2655.5" y="55.3325"/><!--MD5=[6223d9c3f34e8a15271f3a089fb0a351]
class conversion_configuration--><rect fill="#F7E5FF" filter="url(#f1eskarktu187p)" height="79.5469" id="conversion_configuration" style="stroke: #A80036; stroke-width: 1.5;" width="201" x="3025" y="129"/><rect fill="#F7E5FF" height="37.9375" style="stroke: #A80036; stroke-width: 1.5;" width="201" x="3025" y="129"/><ellipse cx="3045.4" cy="147.9688" fill="#ADD1B2" rx="11" ry="11" style="stroke: #A80036; stroke-width: 1.0;"/><path d="M3048.3688,153.6094 Q3047.7906,153.9063 3047.15,154.0547 Q3046.5094,154.2031 3045.8063,154.2031 Q3043.3063,154.2031 3041.9859,152.5547 Q3040.6656,150.9063 3040.6656,147.7813 Q3040.6656,144.6563 3041.9859,143 Q3043.3063,141.3438 3045.8063,141.3438 Q3046.5094,141.3438 3047.1578,141.5 Q3047.8063,141.6563 3048.3688,141.9531 L3048.3688,144.6719 Q3047.7438,144.0938 3047.15,143.8203 Q3046.5563,143.5469 3045.9313,143.5469 Q3044.5875,143.5469 3043.9,144.6172 Q3043.2125,145.6875 3043.2125,147.7813 Q3043.2125,149.875 3043.9,150.9453 Q3044.5875,152.0156 3045.9313,152.0156 Q3046.5563,152.0156 3047.15,151.7422 Q3047.7438,151.4688 3048.3688,150.8906 L3048.3688,153.6094 Z "/><text fill="#000000" font-family="sans-serif" font-size="12" font-style="italic" lengthAdjust="spacingAndGlyphs" textLength="91" x="3093.6" y="145.1387">«masd::fluent»</text><text fill="#000000" font-family="sans-serif" font-size="12" lengthAdjust="spacingAndGlyphs" textLength="157" x="3060.6" y="159.1074">conversion_configuration</text><line style="stroke: #A80036; stroke-width: 1.5;" x1="3026" x2="3225" y1="166.9375" y2="166.9375"/><ellipse cx="3036" cy="177.9375" fill="none" rx="3" ry="3" style="stroke: #038048; stroke-width: 1.0;"/><text fill="#000000" font-family="sans-serif" font-size="11" lengthAdjust="spacingAndGlyphs" textLength="175" x="3045" y="181.1479">source boost::filesystem::path</text><ellipse cx="3036" cy="190.7422" fill="none" rx="3" ry="3" style="stroke: #038048; stroke-width: 1.0;"/><text fill="#000000" font-family="sans-serif" font-size="11" lengthAdjust="spacingAndGlyphs" textLength="126" x="3045" y="193.9526">destination std::string</text><line style="stroke: #A80036; stroke-width: 1.5;" x1="3026" x2="3225" y1="200.5469" y2="200.5469"/><path d="M2989,8 L2989,63.3984 A0,0 0 0 0 2989,63.3984 L3121.5,63.3984 L3125.5,128.96 L3129.5,63.3984 L3262,63.3984 A0,0 0 0 0 3262,63.3984 L3262,18 L3252,8 L2989,8 A0,0 0 0 0 2989,8 " fill="#FBFB77" filter="url(#f1eskarktu187p)" style="stroke: #A80036; stroke-width: 1.0;"/><path d="M3252,8 L3252,18 L3262,18 L3252,8 " fill="#FBFB77" style="stroke: #A80036; stroke-width: 1.0;"/><text fill="#000000" font-family="sans-serif" font-size="13" lengthAdjust="spacingAndGlyphs" textLength="0" x="2999" y="25.0669"/><text fill="#000000" font-family="sans-serif" font-size="13" lengthAdjust="spacingAndGlyphs" textLength="252" x="2995" y="40.1997">Configuration for the model conversion.</text><text fill="#000000" font-family="sans-serif" font-size="13" lengthAdjust="spacingAndGlyphs" textLength="0" x="2999" y="55.3325"/><!--MD5=[0347ab94eab96366268c1ddf569cc58d]
class configuration_validator--><rect fill="#FFFACD" filter="url(#f1eskarktu187p)" height="53.9375" id="configuration_validator" style="stroke: #A80036; stroke-width: 1.5;" width="230" x="74.5" y="142"/><rect fill="#FFFACD" height="37.9375" style="stroke: #A80036; stroke-width: 1.5;" width="230" x="74.5" y="142"/><ellipse cx="89.5" cy="160.9688" fill="#ADD1B2" rx="11" ry="11" style="stroke: #A80036; stroke-width: 1.0;"/><path d="M92.4688,166.6094 Q91.8906,166.9063 91.25,167.0547 Q90.6094,167.2031 89.9063,167.2031 Q87.4063,167.2031 86.0859,165.5547 Q84.7656,163.9063 84.7656,160.7813 Q84.7656,157.6563 86.0859,156 Q87.4063,154.3438 89.9063,154.3438 Q90.6094,154.3438 91.2578,154.5 Q91.9063,154.6563 92.4688,154.9531 L92.4688,157.6719 Q91.8438,157.0938 91.25,156.8203 Q90.6563,156.5469 90.0313,156.5469 Q88.6875,156.5469 88,157.6172 Q87.3125,158.6875 87.3125,160.7813 Q87.3125,162.875 88,163.9453 Q88.6875,165.0156 90.0313,165.0156 Q90.6563,165.0156 91.25,164.7422 Q91.8438,164.4688 92.4688,163.8906 L92.4688,166.6094 Z "/><text fill="#000000" font-family="sans-serif" font-size="12" font-style="italic" lengthAdjust="spacingAndGlyphs" textLength="202" x="101.5" y="158.1387">«dogen::handcrafted::typeable»</text><text fill="#000000" font-family="sans-serif" font-size="12" lengthAdjust="spacingAndGlyphs" textLength="143" x="131" y="172.1074">configuration_validator</text><line style="stroke: #A80036; stroke-width: 1.5;" x1="75.5" x2="303.5" y1="179.9375" y2="179.9375"/><line style="stroke: #A80036; stroke-width: 1.5;" x1="75.5" x2="303.5" y1="187.9375" y2="187.9375"/><!--MD5=[d54e5852ecfe164bbba509d3a9352ed8]
class initializer--><rect fill="#FFFACD" filter="url(#f1eskarktu187p)" height="53.9375" id="initializer" style="stroke: #A80036; stroke-width: 1.5;" width="230" x="339.5" y="142"/><rect fill="#FFFACD" height="37.9375" style="stroke: #A80036; stroke-width: 1.5;" width="230" x="339.5" y="142"/><ellipse cx="354.5" cy="160.9688" fill="#ADD1B2" rx="11" ry="11" style="stroke: #A80036; stroke-width: 1.0;"/><path d="M357.4688,166.6094 Q356.8906,166.9063 356.25,167.0547 Q355.6094,167.2031 354.9063,167.2031 Q352.4063,167.2031 351.0859,165.5547 Q349.7656,163.9063 349.7656,160.7813 Q349.7656,157.6563 351.0859,156 Q352.4063,154.3438 354.9063,154.3438 Q355.6094,154.3438 356.2578,154.5 Q356.9063,154.6563 357.4688,154.9531 L357.4688,157.6719 Q356.8438,157.0938 356.25,156.8203 Q355.6563,156.5469 355.0313,156.5469 Q353.6875,156.5469 353,157.6172 Q352.3125,158.6875 352.3125,160.7813 Q352.3125,162.875 353,163.9453 Q353.6875,165.0156 355.0313,165.0156 Q355.6563,165.0156 356.25,164.7422 Q356.8438,164.4688 357.4688,163.8906 L357.4688,166.6094 Z "/><text fill="#000000" font-family="sans-serif" font-size="12" font-style="italic" lengthAdjust="spacingAndGlyphs" textLength="202" x="366.5" y="158.1387">«dogen::handcrafted::typeable»</text><text fill="#000000" font-family="sans-serif" font-size="12" lengthAdjust="spacingAndGlyphs" textLength="54" x="440.5" y="172.1074">initializer</text><line style="stroke: #A80036; stroke-width: 1.5;" x1="340.5" x2="568.5" y1="179.9375" y2="179.9375"/><line style="stroke: #A80036; stroke-width: 1.5;" x1="340.5" x2="568.5" y1="187.9375" y2="187.9375"/><!--MD5=[38493dad98929d929ee10f8669b423ff]
class cli_configuration--><rect fill="#F7E5FF" filter="url(#f1eskarktu187p)" height="79.5469" id="cli_configuration" style="stroke: #A80036; stroke-width: 1.5;" width="611" x="3261" y="129"/><rect fill="#F7E5FF" height="37.9375" style="stroke: #A80036; stroke-width: 1.5;" width="611" x="3261" y="129"/><ellipse cx="3511.25" cy="147.9688" fill="#ADD1B2" rx="11" ry="11" style="stroke: #A80036; stroke-width: 1.0;"/><path d="M3514.2188,153.6094 Q3513.6406,153.9063 3513,154.0547 Q3512.3594,154.2031 3511.6563,154.2031 Q3509.1563,154.2031 3507.8359,152.5547 Q3506.5156,150.9063 3506.5156,147.7813 Q3506.5156,144.6563 3507.8359,143 Q3509.1563,141.3438 3511.6563,141.3438 Q3512.3594,141.3438 3513.0078,141.5 Q3513.6563,141.6563 3514.2188,141.9531 L3514.2188,144.6719 Q3513.5938,144.0938 3513,143.8203 Q3512.4063,143.5469 3511.7813,143.5469 Q3510.4375,143.5469 3509.75,144.6172 Q3509.0625,145.6875 3509.0625,147.7813 Q3509.0625,149.875 3509.75,150.9453 Q3510.4375,152.0156 3511.7813,152.0156 Q3512.4063,152.0156 3513,151.7422 Q3513.5938,151.4688 3514.2188,150.8906 L3514.2188,153.6094 Z "/><text fill="#000000" font-family="sans-serif" font-size="12" font-style="italic" lengthAdjust="spacingAndGlyphs" textLength="91" x="3537.25" y="145.1387">«masd::fluent»</text><text fill="#000000" font-family="sans-serif" font-size="12" lengthAdjust="spacingAndGlyphs" textLength="102" x="3531.75" y="159.1074">cli_configuration</text><line style="stroke: #A80036; stroke-width: 1.5;" x1="3262" x2="3871" y1="166.9375" y2="166.9375"/><ellipse cx="3272" cy="177.9375" fill="none" rx="3" ry="3" style="stroke: #038048; stroke-width: 1.0;"/><text fill="#000000" font-family="sans-serif" font-size="11" lengthAdjust="spacingAndGlyphs" textLength="585" x="3281" y="181.1479">activity boost::variant&lt;generation_configuration, conversion_configuration, dumpspecs_configuration&gt;</text><ellipse cx="3272" cy="190.7422" fill="none" rx="3" ry="3" style="stroke: #038048; stroke-width: 1.0;"/><text fill="#000000" font-family="sans-serif" font-size="11" lengthAdjust="spacingAndGlyphs" textLength="248" x="3281" y="193.9526">byproduct_directory boost::filesystem::path</text><line style="stroke: #A80036; stroke-width: 1.5;" x1="3262" x2="3871" y1="200.5469" y2="200.5469"/><path d="M3417,8 L3417,63.3984 A0,0 0 0 0 3417,63.3984 L3562.5,63.3984 L3566.5,128.96 L3570.5,63.3984 L3716,63.3984 A0,0 0 0 0 3716,63.3984 L3716,18 L3706,8 L3417,8 A0,0 0 0 0 3417,8 " fill="#FBFB77" filter="url(#f1eskarktu187p)" style="stroke: #A80036; stroke-width: 1.0;"/><path d="M3706,8 L3706,18 L3716,18 L3706,8 " fill="#FBFB77" style="stroke: #A80036; stroke-width: 1.0;"/><text fill="#000000" font-family="sans-serif" font-size="13" lengthAdjust="spacingAndGlyphs" textLength="0" x="3427" y="25.0669"/><text fill="#000000" font-family="sans-serif" font-size="13" lengthAdjust="spacingAndGlyphs" textLength="278" x="3423" y="40.1997">Configuration specific to the CLI application.</text><text fill="#000000" font-family="sans-serif" font-size="13" lengthAdjust="spacingAndGlyphs" textLength="0" x="3427" y="55.3325"/><!--MD5=[4520fda4e10d4d791ce48fe025810cd4]
class main--><rect fill="#DDA9F3" filter="url(#f1eskarktu187p)" height="53.9375" id="main" style="stroke: #A80036; stroke-width: 1.5;" width="154" x="604.5" y="142"/><rect fill="#DDA9F3" height="37.9375" style="stroke: #A80036; stroke-width: 1.5;" width="154" x="604.5" y="142"/><ellipse cx="619.5" cy="160.9688" fill="#ADD1B2" rx="11" ry="11" style="stroke: #A80036; stroke-width: 1.0;"/><path d="M622.4688,166.6094 Q621.8906,166.9063 621.25,167.0547 Q620.6094,167.2031 619.9063,167.2031 Q617.4063,167.2031 616.0859,165.5547 Q614.7656,163.9063 614.7656,160.7813 Q614.7656,157.6563 616.0859,156 Q617.4063,154.3438 619.9063,154.3438 Q620.6094,154.3438 621.2578,154.5 Q621.9063,154.6563 622.4688,154.9531 L622.4688,157.6719 Q621.8438,157.0938 621.25,156.8203 Q620.6563,156.5469 620.0313,156.5469 Q618.6875,156.5469 618,157.6172 Q617.3125,158.6875 617.3125,160.7813 Q617.3125,162.875 618,163.9453 Q618.6875,165.0156 620.0313,165.0156 Q620.6563,165.0156 621.25,164.7422 Q621.8438,164.4688 622.4688,163.8906 L622.4688,166.6094 Z "/><text fill="#000000" font-family="sans-serif" font-size="12" font-style="italic" lengthAdjust="spacingAndGlyphs" textLength="126" x="631.5" y="158.1387">«masd::entry_point»</text><text fill="#000000" font-family="sans-serif" font-size="12" lengthAdjust="spacingAndGlyphs" textLength="30" x="679.5" y="172.1074">main</text><line style="stroke: #A80036; stroke-width: 1.5;" x1="605.5" x2="757.5" y1="179.9375" y2="179.9375"/><line style="stroke: #A80036; stroke-width: 1.5;" x1="605.5" x2="757.5" y1="187.9375" y2="187.9375"/><!--MD5=[ba83386d426114557685538e96aa6f68]
class CMakeLists--><rect fill="#99CB99" filter="url(#f1eskarktu187p)" height="53.9375" id="CMakeLists" style="stroke: #A80036; stroke-width: 1.5;" width="367" x="6" y="275"/><rect fill="#99CB99" height="37.9375" style="stroke: #A80036; stroke-width: 1.5;" width="367" x="6" y="275"/><ellipse cx="21" cy="293.9688" fill="#ADD1B2" rx="11" ry="11" style="stroke: #A80036; stroke-width: 1.0;"/><path d="M23.9688,299.6094 Q23.3906,299.9063 22.75,300.0547 Q22.1094,300.2031 21.4063,300.2031 Q18.9063,300.2031 17.5859,298.5547 Q16.2656,296.9063 16.2656,293.7813 Q16.2656,290.6563 17.5859,289 Q18.9063,287.3438 21.4063,287.3438 Q22.1094,287.3438 22.7578,287.5 Q23.4063,287.6563 23.9688,287.9531 L23.9688,290.6719 Q23.3438,290.0938 22.75,289.8203 Q22.1563,289.5469 21.5313,289.5469 Q20.1875,289.5469 19.5,290.6172 Q18.8125,291.6875 18.8125,293.7813 Q18.8125,295.875 19.5,296.9453 Q20.1875,298.0156 21.5313,298.0156 Q22.1563,298.0156 22.75,297.7422 Q23.3438,297.4688 23.9688,296.8906 L23.9688,299.6094 Z "/><text fill="#000000" font-family="sans-serif" font-size="12" font-style="italic" lengthAdjust="spacingAndGlyphs" textLength="339" x="33" y="291.1387">«masd::build::cmakelists, dogen::handcrafted::cmake»</text><text fill="#000000" font-family="sans-serif" font-size="12" lengthAdjust="spacingAndGlyphs" textLength="69" x="168" y="305.1074">CMakeLists</text><line style="stroke: #A80036; stroke-width: 1.5;" x1="7" x2="372" y1="312.9375" y2="312.9375"/><line style="stroke: #A80036; stroke-width: 1.5;" x1="7" x2="372" y1="320.9375" y2="320.9375"/><!--MD5=[2a9c6b040fa43722a67025e2e82f0947]
class dumpspecs_configuration--><rect fill="#F7E5FF" filter="url(#f1eskarktu187p)" height="66.7422" id="dumpspecs_configuration" style="stroke: #A80036; stroke-width: 1.5;" width="193" x="3907" y="135.5"/><rect fill="#F7E5FF" height="37.9375" style="stroke: #A80036; stroke-width: 1.5;" width="193" x="3907" y="135.5"/><ellipse cx="3922" cy="154.4688" fill="#ADD1B2" rx="11" ry="11" style="stroke: #A80036; stroke-width: 1.0;"/><path d="M3924.9688,160.1094 Q3924.3906,160.4063 3923.75,160.5547 Q3923.1094,160.7031 3922.4063,160.7031 Q3919.9063,160.7031 3918.5859,159.0547 Q3917.2656,157.4063 3917.2656,154.2813 Q3917.2656,151.1563 3918.5859,149.5 Q3919.9063,147.8438 3922.4063,147.8438 Q3923.1094,147.8438 3923.7578,148 Q3924.4063,148.1563 3924.9688,148.4531 L3924.9688,151.1719 Q3924.3438,150.5938 3923.75,150.3203 Q3923.1563,150.0469 3922.5313,150.0469 Q3921.1875,150.0469 3920.5,151.1172 Q3919.8125,152.1875 3919.8125,154.2813 Q3919.8125,156.375 3920.5,157.4453 Q3921.1875,158.5156 3922.5313,158.5156 Q3923.1563,158.5156 3923.75,158.2422 Q3924.3438,157.9688 3924.9688,157.3906 L3924.9688,160.1094 Z "/><text fill="#000000" font-family="sans-serif" font-size="12" font-style="italic" lengthAdjust="spacingAndGlyphs" textLength="91" x="3971" y="151.6387">«masd::fluent»</text><text fill="#000000" font-family="sans-serif" font-size="12" lengthAdjust="spacingAndGlyphs" textLength="161" x="3936" y="165.6074">dumpspecs_configuration</text><line style="stroke: #A80036; stroke-width: 1.5;" x1="3908" x2="4099" y1="173.4375" y2="173.4375"/><ellipse cx="3918" cy="184.4375" fill="none" rx="3" ry="3" style="stroke: #038048; stroke-width: 1.0;"/><text fill="#000000" font-family="sans-serif" font-size="11" lengthAdjust="spacingAndGlyphs" textLength="116" x="3927" y="187.6479">style reporting_style</text><line style="stroke: #A80036; stroke-width: 1.5;" x1="3908" x2="4099" y1="194.2422" y2="194.2422"/><path d="M3837,8 L3837,63.3984 A0,0 0 0 0 3837,63.3984 L3999.5,63.3984 L4003.5,135.37 L4007.5,63.3984 L4170,63.3984 A0,0 0 0 0 4170,63.3984 L4170,18 L4160,8 L3837,8 A0,0 0 0 0 3837,8 " fill="#FBFB77" filter="url(#f1eskarktu187p)" style="stroke: #A80036; stroke-width: 1.0;"/><path d="M4160,8 L4160,18 L4170,18 L4160,8 " fill="#FBFB77" style="stroke: #A80036; stroke-width: 1.0;"/><text fill="#000000" font-family="sans-serif" font-size="13" lengthAdjust="spacingAndGlyphs" textLength="0" x="3847" y="25.0669"/><text fill="#000000" font-family="sans-serif" font-size="13" lengthAdjust="spacingAndGlyphs" textLength="312" x="3843" y="40.1997">Dumps all the specs about this version of dogen.</text><text fill="#000000" font-family="sans-serif" font-size="13" lengthAdjust="spacingAndGlyphs" textLength="0" x="3847" y="55.3325"/><!--MD5=[397d303c4aab79a49b7a62974140bade]
reverse link command_line_parser to program_options_parser--><path d="M1534.5,82.84 C1534.5,102.6 1534.5,124.92 1534.5,141.75 " fill="none" id="command_line_parser&lt;-program_options_parser" style="stroke: #A80036; stroke-width: 1.0;"/><polygon fill="none" points="1527.5,82.79,1534.5,62.79,1541.5,82.79,1527.5,82.79" style="stroke: #A80036; stroke-width: 1.0;"/><!--MD5=[5e2cba153fc0abc57fbc295bdfce38f2]
link N1 to application--><!--MD5=[033776c0ad4adeb4491ff99639e273a7]
link application to injector_factory--><!--MD5=[32d063b567dc387265ef788e90bc1f00]
link N1 to configuration_validator--><!--MD5=[0b472ea8be862a3c05c5edab71e712b1]
link configuration_validator to initializer--><!--MD5=[5653eca4263751759b7327e12ef7a0aa]
link initializer to main--><!--MD5=[4aada21be9edfdbd4388308182f8d38a]
link configuration_validator to CMakeLists--><!--MD5=[f97517d045edf90b197a020b77c02be3]
@startuml
set namespaceSeparator ::
note as N1

Implements the command-line interface for Dogen.

end note

class parser_exception <<masd::exception>> #E8C2F8 {
}

note top of  parser_exception

A fatal error has occurred during option parsing.

end note

class application <<dogen::handcrafted::typeable>> #FFFACD {
}

class command_line_parser <<dogen::handcrafted::typeable::header_only>> #FFFACD {
}

class program_options_parser <<dogen::handcrafted::typeable>> #FFFACD {
}

command_line_parser <|- - program_options_parser
class injector_factory <<dogen::handcrafted::typeable::header_only>> #FFFACD {
}

class application_exception <<masd::exception>> #E8C2F8 {
}

note top of  application_exception

A fatal error has occurred whilst executing the application.

end note

class configuration #F7E5FF {
        +{field} logging boost::optional<utility::log::logging_configuration>
        +{field} api dogen::configuration
        +{field} cli cli_configuration
}

note top of  configuration

All of the configuration required by the command line application.

end note

class generation_configuration <<masd::fluent>> #F7E5FF {
        +{field} reference_model_directories std::vector<boost::filesystem::path>
        +{field} target boost::filesystem::path
        +{field} output_directory boost::filesystem::path
}

note top of  generation_configuration

Configuration related to code generation.

end note

class conversion_configuration <<masd::fluent>> #F7E5FF {
        +{field} source boost::filesystem::path
        +{field} destination std::string
}

note top of  conversion_configuration

Configuration for the model conversion.

end note

class configuration_validator <<dogen::handcrafted::typeable>> #FFFACD {
}

class initializer <<dogen::handcrafted::typeable>> #FFFACD {
}

class cli_configuration <<masd::fluent>> #F7E5FF {
        +{field} activity boost::variant<generation_configuration, conversion_configuration, dumpspecs_configuration>
        +{field} byproduct_directory boost::filesystem::path
}

note top of  cli_configuration

Configuration specific to the CLI application.

end note

class main <<masd::entry_point>> #DDA9F3 {
}

class CMakeLists <<masd::build::cmakelists, dogen::handcrafted::cmake>> #99CB99 {
}

class dumpspecs_configuration <<masd::fluent>> #F7E5FF {
        +{field} style reporting_style
}

note top of  dumpspecs_configuration

Dumps all the specs about this version of dogen.

end note

@enduml

PlantUML version 1.2020.02(Sun Mar 01 10:22:07 GMT 2020)
(GPL source distribution)
Java Runtime: OpenJDK Runtime Environment
JVM: OpenJDK 64-Bit Server VM
Java Version: 1.8.0_212-8u212-b03-2~deb9u1-b03
Operating System: Linux
Default Encoding: UTF-8
Language: en
Country: GB
--></g></svg>