<?xml version="1.0" encoding="UTF-8" standalone="no"?><svg xmlns="http://www.w3.org/2000/svg" xmlns:xlink="http://www.w3.org/1999/xlink" contentStyleType="text/css" height="734px" preserveAspectRatio="none" style="width:2623px;height:734px;background:#FFFFFF;" version="1.1" viewBox="0 0 2623 734" width="2623px" zoomAndPan="magnify"><defs/><g><g id="elem_N1"><path d="M1115.15,12 L1115.15,97.6641 L1471.15,97.6641 L1471.15,22 L1461.15,12 L1115.15,12 " fill="#FEFFDD" style="stroke:#181818;stroke-width:0.5;"/><path d="M1461.15,12 L1461.15,22 L1471.15,22 L1461.15,12 " fill="#FEFFDD" style="stroke:#181818;stroke-width:1.0;"/><text fill="#000000" font-family="sans-serif" font-size="13" lengthAdjust="spacing" textLength="335" x="1121.15" y="29.0669">Implements the command-line interface for Dogen.</text><text fill="#000000" font-family="sans-serif" font-size="13" lengthAdjust="spacing" textLength="4" x="1121.15" y="44.1997"> </text><text fill="#000000" font-family="sans-serif" font-size="13" lengthAdjust="spacing" textLength="131" x="1121.15" y="59.3325">UML representation:</text><text fill="#000000" font-family="sans-serif" font-size="13" lengthAdjust="spacing" textLength="4" x="1121.15" y="74.4653"> </text><text fill="#000000" font-family="sans-serif" font-size="13" lengthAdjust="spacing" textLength="297" x="1121.15" y="89.5981">\image html dogen.cli/modeling/dogen.cli.svg</text></g><!--MD5=[5bbd3befcf1686b7fd148cc582657d1c]
class configuration--><g id="elem_configuration"><rect codeLine="10" fill="#F7E5FF" height="96.8906" id="configuration" rx="2.5" ry="2.5" style="stroke:#181818;stroke-width:0.5;" width="450" x="1332.75" y="386.4609"/><ellipse cx="1506" cy="402.4609" fill="#ADD1B2" rx="11" ry="11" style="stroke:#181818;stroke-width:1.0;"/><path d="M1508.9688,408.1016 Q1508.3906,408.3984 1507.75,408.5469 Q1507.1094,408.6953 1506.4063,408.6953 Q1503.9063,408.6953 1502.5859,407.0469 Q1501.2656,405.3984 1501.2656,402.2734 Q1501.2656,399.1484 1502.5859,397.4922 Q1503.9063,395.8359 1506.4063,395.8359 Q1507.1094,395.8359 1507.7578,395.9922 Q1508.4063,396.1484 1508.9688,396.4453 L1508.9688,399.1641 Q1508.3438,398.5859 1507.75,398.3125 Q1507.1563,398.0391 1506.5313,398.0391 Q1505.1875,398.0391 1504.5,399.1094 Q1503.8125,400.1797 1503.8125,402.2734 Q1503.8125,404.3672 1504.5,405.4375 Q1505.1875,406.5078 1506.5313,406.5078 Q1507.1563,406.5078 1507.75,406.2344 Q1508.3438,405.9609 1508.9688,405.3828 L1508.9688,408.1016 Z " fill="#000000"/><text fill="#000000" font-family="sans-serif" font-size="14" lengthAdjust="spacing" textLength="95" x="1526.5" y="407.3076">configuration</text><line style="stroke:#181818;stroke-width:0.5;" x1="1333.75" x2="1781.75" y1="418.4609" y2="418.4609"/><ellipse cx="1343.75" cy="432.1094" fill="none" rx="3" ry="3" style="stroke:#038048;stroke-width:1.0;"/><text fill="#000000" font-family="sans-serif" font-size="14" lengthAdjust="spacing" textLength="424" x="1352.75" y="435.4561">logging boost::optional&lt;utility::log::logging_configuration&gt;</text><ellipse cx="1343.75" cy="448.4063" fill="none" rx="3" ry="3" style="stroke:#038048;stroke-width:1.0;"/><text fill="#000000" font-family="sans-serif" font-size="14" lengthAdjust="spacing" textLength="176" x="1352.75" y="451.7529">api dogen::configuration</text><ellipse cx="1343.75" cy="464.7031" fill="none" rx="3" ry="3" style="stroke:#038048;stroke-width:1.0;"/><text fill="#000000" font-family="sans-serif" font-size="14" lengthAdjust="spacing" textLength="138" x="1352.75" y="468.0498">cli cli_configuration</text><line style="stroke:#181818;stroke-width:0.5;" x1="1333.75" x2="1781.75" y1="475.3516" y2="475.3516"/></g><!--MD5=[38493dad98929d929ee10f8669b423ff]
class cli_configuration--><g id="elem_cli_configuration"><rect codeLine="22" fill="#F7E5FF" height="88.8594" id="cli_configuration" rx="2.5" ry="2.5" style="stroke:#181818;stroke-width:0.5;" width="763" x="1049.0833" y="503.3516"/><ellipse cx="1367.3333" cy="523.4844" fill="#ADD1B2" rx="11" ry="11" style="stroke:#181818;stroke-width:1.0;"/><path d="M1370.3021,529.125 Q1369.724,529.4219 1369.0833,529.5703 Q1368.4427,529.7188 1367.7396,529.7188 Q1365.2396,529.7188 1363.9193,528.0703 Q1362.599,526.4219 1362.599,523.2969 Q1362.599,520.1719 1363.9193,518.5156 Q1365.2396,516.8594 1367.7396,516.8594 Q1368.4427,516.8594 1369.0911,517.0156 Q1369.7396,517.1719 1370.3021,517.4688 L1370.3021,520.1875 Q1369.6771,519.6094 1369.0833,519.3359 Q1368.4896,519.0625 1367.8646,519.0625 Q1366.5208,519.0625 1365.8333,520.1328 Q1365.1458,521.2031 1365.1458,523.2969 Q1365.1458,525.3906 1365.8333,526.4609 Q1366.5208,527.5313 1367.8646,527.5313 Q1368.4896,527.5313 1369.0833,527.2578 Q1369.6771,526.9844 1370.3021,526.4063 L1370.3021,529.125 Z " fill="#000000"/><text fill="#000000" font-family="sans-serif" font-size="12" font-style="italic" lengthAdjust="spacing" textLength="90" x="1401.8333" y="519.4902">«masd::fluent»</text><text fill="#000000" font-family="sans-serif" font-size="14" lengthAdjust="spacing" textLength="118" x="1387.8333" y="535.3154">cli_configuration</text><line style="stroke:#181818;stroke-width:0.5;" x1="1050.0833" x2="1811.0833" y1="543.6172" y2="543.6172"/><ellipse cx="1060.0833" cy="557.2656" fill="none" rx="3" ry="3" style="stroke:#038048;stroke-width:1.0;"/><text fill="#000000" font-family="sans-serif" font-size="14" lengthAdjust="spacing" textLength="737" x="1069.0833" y="560.6123">activity boost::variant&lt;generation_configuration, conversion_configuration, dumpspecs_configuration&gt;</text><ellipse cx="1060.0833" cy="573.5625" fill="none" rx="3" ry="3" style="stroke:#038048;stroke-width:1.0;"/><text fill="#000000" font-family="sans-serif" font-size="14" lengthAdjust="spacing" textLength="310" x="1069.0833" y="576.9092">byproduct_directory boost::filesystem::path</text><line style="stroke:#181818;stroke-width:0.5;" x1="1050.0833" x2="1811.0833" y1="584.2109" y2="584.2109"/></g><g id="elem_GMN6"><path d="M831,331.3281 L831,356.4609 L1281,356.4609 L1281,341.3281 L1271,331.3281 L831,331.3281 " fill="#FEFFDD" style="stroke:#181818;stroke-width:0.5;"/><path d="M1271,331.3281 L1271,341.3281 L1281,341.3281 L1271,331.3281 " fill="#FEFFDD" style="stroke:#181818;stroke-width:1.0;"/><text fill="#000000" font-family="sans-serif" font-size="13" lengthAdjust="spacing" textLength="429" x="837" y="348.395">All of the configuration required by the command line application.</text></g><!--MD5=[e9a1f03b73bb165adbbef1025b775e42]
class generation_configuration--><g id="elem_generation_configuration"><rect codeLine="35" fill="#F7E5FF" height="105.1563" id="generation_configuration" rx="2.5" ry="2.5" style="stroke:#181818;stroke-width:0.5;" width="498" x="1644.5833" y="622.2109"/><ellipse cx="1799.3333" cy="642.3438" fill="#ADD1B2" rx="11" ry="11" style="stroke:#181818;stroke-width:1.0;"/><path d="M1802.3021,647.9844 Q1801.724,648.2813 1801.0833,648.4297 Q1800.4427,648.5781 1799.7396,648.5781 Q1797.2396,648.5781 1795.9193,646.9297 Q1794.599,645.2813 1794.599,642.1563 Q1794.599,639.0313 1795.9193,637.375 Q1797.2396,635.7188 1799.7396,635.7188 Q1800.4427,635.7188 1801.0911,635.875 Q1801.7396,636.0313 1802.3021,636.3281 L1802.3021,639.0469 Q1801.6771,638.4688 1801.0833,638.1953 Q1800.4896,637.9219 1799.8646,637.9219 Q1798.5208,637.9219 1797.8333,638.9922 Q1797.1458,640.0625 1797.1458,642.1563 Q1797.1458,644.25 1797.8333,645.3203 Q1798.5208,646.3906 1799.8646,646.3906 Q1800.4896,646.3906 1801.0833,646.1172 Q1801.6771,645.8438 1802.3021,645.2656 L1802.3021,647.9844 Z " fill="#000000"/><text fill="#000000" font-family="sans-serif" font-size="12" font-style="italic" lengthAdjust="spacing" textLength="90" x="1864.8333" y="638.3496">«masd::fluent»</text><text fill="#000000" font-family="sans-serif" font-size="14" lengthAdjust="spacing" textLength="180" x="1819.8333" y="654.1748">generation_configuration</text><line style="stroke:#181818;stroke-width:0.5;" x1="1645.5833" x2="2141.5833" y1="662.4766" y2="662.4766"/><ellipse cx="1655.5833" cy="676.125" fill="none" rx="3" ry="3" style="stroke:#038048;stroke-width:1.0;"/><text fill="#000000" font-family="sans-serif" font-size="14" lengthAdjust="spacing" textLength="472" x="1664.5833" y="679.4717">reference_model_directories std::vector&lt;boost::filesystem::path&gt;</text><ellipse cx="1655.5833" cy="692.4219" fill="none" rx="3" ry="3" style="stroke:#038048;stroke-width:1.0;"/><text fill="#000000" font-family="sans-serif" font-size="14" lengthAdjust="spacing" textLength="210" x="1664.5833" y="695.7686">target boost::filesystem::path</text><ellipse cx="1655.5833" cy="708.7188" fill="none" rx="3" ry="3" style="stroke:#038048;stroke-width:1.0;"/><text fill="#000000" font-family="sans-serif" font-size="14" lengthAdjust="spacing" textLength="284" x="1664.5833" y="712.0654">output_directory boost::filesystem::path</text><line style="stroke:#181818;stroke-width:0.5;" x1="1645.5833" x2="2141.5833" y1="719.3672" y2="719.3672"/></g><!--MD5=[6223d9c3f34e8a15271f3a089fb0a351]
class conversion_configuration--><g id="elem_conversion_configuration"><rect codeLine="45" fill="#F7E5FF" height="88.8594" id="conversion_configuration" rx="2.5" ry="2.5" style="stroke:#181818;stroke-width:0.5;" width="241" x="449.75" y="622.2109"/><ellipse cx="477.8" cy="642.3438" fill="#ADD1B2" rx="11" ry="11" style="stroke:#181818;stroke-width:1.0;"/><path d="M480.7688,647.9844 Q480.1906,648.2813 479.55,648.4297 Q478.9094,648.5781 478.2063,648.5781 Q475.7063,648.5781 474.3859,646.9297 Q473.0656,645.2813 473.0656,642.1563 Q473.0656,639.0313 474.3859,637.375 Q475.7063,635.7188 478.2063,635.7188 Q478.9094,635.7188 479.5578,635.875 Q480.2063,636.0313 480.7688,636.3281 L480.7688,639.0469 Q480.1438,638.4688 479.55,638.1953 Q478.9563,637.9219 478.3313,637.9219 Q476.9875,637.9219 476.3,638.9922 Q475.6125,640.0625 475.6125,642.1563 Q475.6125,644.25 476.3,645.3203 Q476.9875,646.3906 478.3313,646.3906 Q478.9563,646.3906 479.55,646.1172 Q480.1438,645.8438 480.7688,645.2656 L480.7688,647.9844 Z " fill="#000000"/><text fill="#000000" font-family="sans-serif" font-size="12" font-style="italic" lengthAdjust="spacing" textLength="90" x="539.7" y="638.3496">«masd::fluent»</text><text fill="#000000" font-family="sans-serif" font-size="14" lengthAdjust="spacing" textLength="180" x="494.7" y="654.1748">conversion_configuration</text><line style="stroke:#181818;stroke-width:0.5;" x1="450.75" x2="689.75" y1="662.4766" y2="662.4766"/><ellipse cx="460.75" cy="676.125" fill="none" rx="3" ry="3" style="stroke:#038048;stroke-width:1.0;"/><text fill="#000000" font-family="sans-serif" font-size="14" lengthAdjust="spacing" textLength="215" x="469.75" y="679.4717">source boost::filesystem::path</text><ellipse cx="460.75" cy="692.4219" fill="none" rx="3" ry="3" style="stroke:#038048;stroke-width:1.0;"/><text fill="#000000" font-family="sans-serif" font-size="14" lengthAdjust="spacing" textLength="154" x="469.75" y="695.7686">destination std::string</text><line style="stroke:#181818;stroke-width:0.5;" x1="450.75" x2="689.75" y1="703.0703" y2="703.0703"/></g><!--MD5=[2a9c6b040fa43722a67025e2e82f0947]
class dumpspecs_configuration--><g id="elem_dumpspecs_configuration"><rect codeLine="54" fill="#F7E5FF" height="72.5625" id="dumpspecs_configuration" rx="2.5" ry="2.5" style="stroke:#181818;stroke-width:0.5;" width="215" x="1287.25" y="622.2109"/><ellipse cx="1302.25" cy="642.3438" fill="#ADD1B2" rx="11" ry="11" style="stroke:#181818;stroke-width:1.0;"/><path d="M1305.2188,647.9844 Q1304.6406,648.2813 1304,648.4297 Q1303.3594,648.5781 1302.6563,648.5781 Q1300.1563,648.5781 1298.8359,646.9297 Q1297.5156,645.2813 1297.5156,642.1563 Q1297.5156,639.0313 1298.8359,637.375 Q1300.1563,635.7188 1302.6563,635.7188 Q1303.3594,635.7188 1304.0078,635.875 Q1304.6563,636.0313 1305.2188,636.3281 L1305.2188,639.0469 Q1304.5938,638.4688 1304,638.1953 Q1303.4063,637.9219 1302.7813,637.9219 Q1301.4375,637.9219 1300.75,638.9922 Q1300.0625,640.0625 1300.0625,642.1563 Q1300.0625,644.25 1300.75,645.3203 Q1301.4375,646.3906 1302.7813,646.3906 Q1303.4063,646.3906 1304,646.1172 Q1304.5938,645.8438 1305.2188,645.2656 L1305.2188,647.9844 Z " fill="#000000"/><text fill="#000000" font-family="sans-serif" font-size="12" font-style="italic" lengthAdjust="spacing" textLength="90" x="1362.75" y="638.3496">«masd::fluent»</text><text fill="#000000" font-family="sans-serif" font-size="14" lengthAdjust="spacing" textLength="183" x="1316.25" y="654.1748">dumpspecs_configuration</text><line style="stroke:#181818;stroke-width:0.5;" x1="1288.25" x2="1501.25" y1="662.4766" y2="662.4766"/><ellipse cx="1298.25" cy="676.125" fill="none" rx="3" ry="3" style="stroke:#038048;stroke-width:1.0;"/><text fill="#000000" font-family="sans-serif" font-size="14" lengthAdjust="spacing" textLength="143" x="1307.25" y="679.4717">style reporting_style</text><line style="stroke:#181818;stroke-width:0.5;" x1="1288.25" x2="1501.25" y1="686.7734" y2="686.7734"/></g><g id="elem_GMN15"><path d="M212.6667,458.2188 L212.6667,483.3516 L521.6667,483.3516 L521.6667,468.2188 L511.6667,458.2188 L212.6667,458.2188 " fill="#FEFFDD" style="stroke:#181818;stroke-width:0.5;"/><path d="M511.6667,458.2188 L511.6667,468.2188 L521.6667,468.2188 L511.6667,458.2188 " fill="#FEFFDD" style="stroke:#181818;stroke-width:1.0;"/><text fill="#000000" font-family="sans-serif" font-size="13" lengthAdjust="spacing" textLength="288" x="218.6667" y="475.2856">Configuration specific to the CLI application.</text></g><g id="elem_GMN18"><path d="M1832.0833,567.0781 L1832.0833,592.2109 L2121.0833,592.2109 L2121.0833,577.0781 L2111.0833,567.0781 L1832.0833,567.0781 " fill="#FEFFDD" style="stroke:#181818;stroke-width:0.5;"/><path d="M2111.0833,567.0781 L2111.0833,577.0781 L2121.0833,577.0781 L2111.0833,567.0781 " fill="#FEFFDD" style="stroke:#181818;stroke-width:1.0;"/><text fill="#000000" font-family="sans-serif" font-size="13" lengthAdjust="spacing" textLength="268" x="1838.0833" y="584.145">Configuration related to code generation.</text></g><g id="elem_GMN21"><path d="M390.0833,567.0781 L390.0833,592.2109 L670.0833,592.2109 L670.0833,577.0781 L660.0833,567.0781 L390.0833,567.0781 " fill="#FEFFDD" style="stroke:#181818;stroke-width:0.5;"/><path d="M660.0833,567.0781 L660.0833,577.0781 L670.0833,577.0781 L660.0833,567.0781 " fill="#FEFFDD" style="stroke:#181818;stroke-width:1.0;"/><text fill="#000000" font-family="sans-serif" font-size="13" lengthAdjust="spacing" textLength="259" x="396.0833" y="584.145">Configuration for the model conversion.</text></g><g id="elem_GMN24"><path d="M690.0833,567.0781 L690.0833,592.2109 L1029.0833,592.2109 L1029.0833,577.0781 L1019.0833,567.0781 L690.0833,567.0781 " fill="#FEFFDD" style="stroke:#181818;stroke-width:0.5;"/><path d="M1019.0833,567.0781 L1019.0833,577.0781 L1029.0833,577.0781 L1019.0833,567.0781 " fill="#FEFFDD" style="stroke:#181818;stroke-width:1.0;"/><text fill="#000000" font-family="sans-serif" font-size="13" lengthAdjust="spacing" textLength="318" x="696.0833" y="584.145">Dumps all the specs about this version of dogen.</text></g><!--MD5=[0347ab94eab96366268c1ddf569cc58d]
class configuration_validator--><g id="elem_configuration_validator"><rect codeLine="62" fill="#FFFACD" height="56.2656" id="configuration_validator" rx="2.5" ry="2.5" style="stroke:#181818;stroke-width:0.5;" width="222" x="1446.75" y="213.9297"/><ellipse cx="1461.75" cy="234.0625" fill="#ADD1B2" rx="11" ry="11" style="stroke:#181818;stroke-width:1.0;"/><path d="M1464.7188,239.7031 Q1464.1406,240 1463.5,240.1484 Q1462.8594,240.2969 1462.1563,240.2969 Q1459.6563,240.2969 1458.3359,238.6484 Q1457.0156,237 1457.0156,233.875 Q1457.0156,230.75 1458.3359,229.0938 Q1459.6563,227.4375 1462.1563,227.4375 Q1462.8594,227.4375 1463.5078,227.5938 Q1464.1563,227.75 1464.7188,228.0469 L1464.7188,230.7656 Q1464.0938,230.1875 1463.5,229.9141 Q1462.9063,229.6406 1462.2813,229.6406 Q1460.9375,229.6406 1460.25,230.7109 Q1459.5625,231.7813 1459.5625,233.875 Q1459.5625,235.9688 1460.25,237.0391 Q1460.9375,238.1094 1462.2813,238.1094 Q1462.9063,238.1094 1463.5,237.8359 Q1464.0938,237.5625 1464.7188,236.9844 L1464.7188,239.7031 Z " fill="#000000"/><text fill="#000000" font-family="sans-serif" font-size="12" font-style="italic" lengthAdjust="spacing" textLength="194" x="1473.75" y="230.0684">«dogen::handcrafted::typeable»</text><text fill="#000000" font-family="sans-serif" font-size="14" lengthAdjust="spacing" textLength="165" x="1488.25" y="245.8936">configuration_validator</text><line style="stroke:#181818;stroke-width:0.5;" x1="1447.75" x2="1667.75" y1="254.1953" y2="254.1953"/><line style="stroke:#181818;stroke-width:0.5;" x1="1447.75" x2="1667.75" y1="262.1953" y2="262.1953"/></g><!--MD5=[31e2917de18cd947063b84aa2c6f9552]
class command_line_parser--><g id="elem_command_line_parser"><rect codeLine="67" fill="#FFFACD" height="56.2656" id="command_line_parser" rx="2.5" ry="2.5" style="stroke:#181818;stroke-width:0.5;" width="303" x="1123.75" y="213.9297"/><ellipse cx="1138.75" cy="234.0625" fill="#ADD1B2" rx="11" ry="11" style="stroke:#181818;stroke-width:1.0;"/><path d="M1141.7188,239.7031 Q1141.1406,240 1140.5,240.1484 Q1139.8594,240.2969 1139.1563,240.2969 Q1136.6563,240.2969 1135.3359,238.6484 Q1134.0156,237 1134.0156,233.875 Q1134.0156,230.75 1135.3359,229.0938 Q1136.6563,227.4375 1139.1563,227.4375 Q1139.8594,227.4375 1140.5078,227.5938 Q1141.1563,227.75 1141.7188,228.0469 L1141.7188,230.7656 Q1141.0938,230.1875 1140.5,229.9141 Q1139.9063,229.6406 1139.2813,229.6406 Q1137.9375,229.6406 1137.25,230.7109 Q1136.5625,231.7813 1136.5625,233.875 Q1136.5625,235.9688 1137.25,237.0391 Q1137.9375,238.1094 1139.2813,238.1094 Q1139.9063,238.1094 1140.5,237.8359 Q1141.0938,237.5625 1141.7188,236.9844 L1141.7188,239.7031 Z " fill="#000000"/><text fill="#000000" font-family="sans-serif" font-size="12" font-style="italic" lengthAdjust="spacing" textLength="275" x="1150.75" y="230.0684">«dogen::handcrafted::typeable::header_only»</text><text fill="#000000" font-family="sans-serif" font-size="14" lengthAdjust="spacing" textLength="158" x="1209.25" y="245.8936">command_line_parser</text><line style="stroke:#181818;stroke-width:0.5;" x1="1124.75" x2="1425.75" y1="254.1953" y2="254.1953"/><line style="stroke:#181818;stroke-width:0.5;" x1="1124.75" x2="1425.75" y1="262.1953" y2="262.1953"/></g><!--MD5=[19d92d75b2be9a5f372e551632eaad56]
class parser_exception--><g id="elem_parser_exception"><rect codeLine="77" fill="#E8C2F8" height="56.2656" id="parser_exception" rx="2.5" ry="2.5" style="stroke:#181818;stroke-width:0.5;" width="155" x="541.6667" y="386.4609"/><ellipse cx="556.6667" cy="406.5938" fill="#ADD1B2" rx="11" ry="11" style="stroke:#181818;stroke-width:1.0;"/><path d="M559.6354,412.2344 Q559.0573,412.5313 558.4167,412.6797 Q557.776,412.8281 557.0729,412.8281 Q554.5729,412.8281 553.2526,411.1797 Q551.9323,409.5313 551.9323,406.4063 Q551.9323,403.2813 553.2526,401.625 Q554.5729,399.9688 557.0729,399.9688 Q557.776,399.9688 558.4245,400.125 Q559.0729,400.2813 559.6354,400.5781 L559.6354,403.2969 Q559.0104,402.7188 558.4167,402.4453 Q557.8229,402.1719 557.1979,402.1719 Q555.8542,402.1719 555.1667,403.2422 Q554.4792,404.3125 554.4792,406.4063 Q554.4792,408.5 555.1667,409.5703 Q555.8542,410.6406 557.1979,410.6406 Q557.8229,410.6406 558.4167,410.3672 Q559.0104,410.0938 559.6354,409.5156 L559.6354,412.2344 Z " fill="#000000"/><text fill="#000000" font-family="sans-serif" font-size="12" font-style="italic" lengthAdjust="spacing" textLength="114" x="575.1667" y="402.5996">«masd::exception»</text><text fill="#000000" font-family="sans-serif" font-size="14" lengthAdjust="spacing" textLength="123" x="570.6667" y="418.4248">parser_exception</text><line style="stroke:#181818;stroke-width:0.5;" x1="542.6667" x2="695.6667" y1="426.7266" y2="426.7266"/><line style="stroke:#181818;stroke-width:0.5;" x1="542.6667" x2="695.6667" y1="434.7266" y2="434.7266"/></g><g id="elem_GMN33"><path d="M1126.75,168.7969 L1126.75,193.9297 L1524.75,193.9297 L1524.75,178.7969 L1514.75,168.7969 L1126.75,168.7969 " fill="#FEFFDD" style="stroke:#181818;stroke-width:0.5;"/><path d="M1514.75,168.7969 L1514.75,178.7969 L1524.75,178.7969 L1514.75,168.7969 " fill="#FEFFDD" style="stroke:#181818;stroke-width:1.0;"/><text fill="#000000" font-family="sans-serif" font-size="13" lengthAdjust="spacing" textLength="377" x="1132.75" y="185.8638">Interface for a command-line parser of the dogen options.</text></g><g id="elem_GMN36"><path d="M479,331.3281 L479,356.4609 L811,356.4609 L811,341.3281 L801,331.3281 L479,331.3281 " fill="#FEFFDD" style="stroke:#181818;stroke-width:0.5;"/><path d="M801,331.3281 L801,341.3281 L811,341.3281 L801,331.3281 " fill="#FEFFDD" style="stroke:#181818;stroke-width:1.0;"/><text fill="#000000" font-family="sans-serif" font-size="13" lengthAdjust="spacing" textLength="311" x="485" y="348.395">A fatal error has occurred during option parsing.</text></g><!--MD5=[1700babc4216d044a93a74805c70996c]
class application--><g id="elem_application"><rect codeLine="84" fill="#FFFACD" height="56.2656" id="application" rx="2.5" ry="2.5" style="stroke:#181818;stroke-width:0.5;" width="222" x="2045.75" y="213.9297"/><ellipse cx="2060.75" cy="234.0625" fill="#ADD1B2" rx="11" ry="11" style="stroke:#181818;stroke-width:1.0;"/><path d="M2063.7188,239.7031 Q2063.1406,240 2062.5,240.1484 Q2061.8594,240.2969 2061.1563,240.2969 Q2058.6563,240.2969 2057.3359,238.6484 Q2056.0156,237 2056.0156,233.875 Q2056.0156,230.75 2057.3359,229.0938 Q2058.6563,227.4375 2061.1563,227.4375 Q2061.8594,227.4375 2062.5078,227.5938 Q2063.1563,227.75 2063.7188,228.0469 L2063.7188,230.7656 Q2063.0938,230.1875 2062.5,229.9141 Q2061.9063,229.6406 2061.2813,229.6406 Q2059.9375,229.6406 2059.25,230.7109 Q2058.5625,231.7813 2058.5625,233.875 Q2058.5625,235.9688 2059.25,237.0391 Q2059.9375,238.1094 2061.2813,238.1094 Q2061.9063,238.1094 2062.5,237.8359 Q2063.0938,237.5625 2063.7188,236.9844 L2063.7188,239.7031 Z " fill="#000000"/><text fill="#000000" font-family="sans-serif" font-size="12" font-style="italic" lengthAdjust="spacing" textLength="194" x="2072.75" y="230.0684">«dogen::handcrafted::typeable»</text><text fill="#000000" font-family="sans-serif" font-size="14" lengthAdjust="spacing" textLength="79" x="2130.25" y="245.8936">application</text><line style="stroke:#181818;stroke-width:0.5;" x1="2046.75" x2="2266.75" y1="254.1953" y2="254.1953"/><line style="stroke:#181818;stroke-width:0.5;" x1="2046.75" x2="2266.75" y1="262.1953" y2="262.1953"/></g><!--MD5=[39e485302053a8075caa6c13ab91b957]
class application_exception--><g id="elem_application_exception"><rect codeLine="94" fill="#E8C2F8" height="56.2656" id="application_exception" rx="2.5" ry="2.5" style="stroke:#181818;stroke-width:0.5;" width="188" x="2290.4167" y="386.4609"/><ellipse cx="2305.4167" cy="406.5938" fill="#ADD1B2" rx="11" ry="11" style="stroke:#181818;stroke-width:1.0;"/><path d="M2308.3854,412.2344 Q2307.8073,412.5313 2307.1667,412.6797 Q2306.526,412.8281 2305.8229,412.8281 Q2303.3229,412.8281 2302.0026,411.1797 Q2300.6823,409.5313 2300.6823,406.4063 Q2300.6823,403.2813 2302.0026,401.625 Q2303.3229,399.9688 2305.8229,399.9688 Q2306.526,399.9688 2307.1745,400.125 Q2307.8229,400.2813 2308.3854,400.5781 L2308.3854,403.2969 Q2307.7604,402.7188 2307.1667,402.4453 Q2306.5729,402.1719 2305.9479,402.1719 Q2304.6042,402.1719 2303.9167,403.2422 Q2303.2292,404.3125 2303.2292,406.4063 Q2303.2292,408.5 2303.9167,409.5703 Q2304.6042,410.6406 2305.9479,410.6406 Q2306.5729,410.6406 2307.1667,410.3672 Q2307.7604,410.0938 2308.3854,409.5156 L2308.3854,412.2344 Z " fill="#000000"/><text fill="#000000" font-family="sans-serif" font-size="12" font-style="italic" lengthAdjust="spacing" textLength="114" x="2340.4167" y="402.5996">«masd::exception»</text><text fill="#000000" font-family="sans-serif" font-size="14" lengthAdjust="spacing" textLength="156" x="2319.4167" y="418.4248">application_exception</text><line style="stroke:#181818;stroke-width:0.5;" x1="2291.4167" x2="2477.4167" y1="426.7266" y2="426.7266"/><line style="stroke:#181818;stroke-width:0.5;" x1="2291.4167" x2="2477.4167" y1="434.7266" y2="434.7266"/></g><g id="elem_GMN43"><path d="M2013.75,168.7969 L2013.75,193.9297 L2373.75,193.9297 L2373.75,178.7969 L2363.75,168.7969 L2013.75,168.7969 " fill="#FEFFDD" style="stroke:#181818;stroke-width:0.5;"/><path d="M2363.75,168.7969 L2363.75,178.7969 L2373.75,178.7969 L2363.75,168.7969 " fill="#FEFFDD" style="stroke:#181818;stroke-width:1.0;"/><text fill="#000000" font-family="sans-serif" font-size="13" lengthAdjust="spacing" textLength="339" x="2019.75" y="185.8638">Entry point for the dogen command line application.</text></g><g id="elem_GMN46"><path d="M2214.75,331.3281 L2214.75,356.4609 L2616.75,356.4609 L2616.75,341.3281 L2606.75,331.3281 L2214.75,331.3281 " fill="#FEFFDD" style="stroke:#181818;stroke-width:0.5;"/><path d="M2606.75,331.3281 L2606.75,341.3281 L2616.75,341.3281 L2606.75,331.3281 " fill="#FEFFDD" style="stroke:#181818;stroke-width:1.0;"/><text fill="#000000" font-family="sans-serif" font-size="13" lengthAdjust="spacing" textLength="381" x="2220.75" y="348.395">A fatal error has occurred whilst executing the application.</text></g><!--MD5=[125701c02a148bb9f8af9b45c45251cb]
class program_options_parser--><g id="elem_program_options_parser"><rect codeLine="101" fill="#FFFACD" height="56.2656" id="program_options_parser" rx="2.5" ry="2.5" style="stroke:#181818;stroke-width:0.5;" width="222" x="170" y="300.1953"/><ellipse cx="185" cy="320.3281" fill="#ADD1B2" rx="11" ry="11" style="stroke:#181818;stroke-width:1.0;"/><path d="M187.9688,325.9688 Q187.3906,326.2656 186.75,326.4141 Q186.1094,326.5625 185.4063,326.5625 Q182.9063,326.5625 181.5859,324.9141 Q180.2656,323.2656 180.2656,320.1406 Q180.2656,317.0156 181.5859,315.3594 Q182.9063,313.7031 185.4063,313.7031 Q186.1094,313.7031 186.7578,313.8594 Q187.4063,314.0156 187.9688,314.3125 L187.9688,317.0313 Q187.3438,316.4531 186.75,316.1797 Q186.1563,315.9063 185.5313,315.9063 Q184.1875,315.9063 183.5,316.9766 Q182.8125,318.0469 182.8125,320.1406 Q182.8125,322.2344 183.5,323.3047 Q184.1875,324.375 185.5313,324.375 Q186.1563,324.375 186.75,324.1016 Q187.3438,323.8281 187.9688,323.25 L187.9688,325.9688 Z " fill="#000000"/><text fill="#000000" font-family="sans-serif" font-size="12" font-style="italic" lengthAdjust="spacing" textLength="194" x="197" y="316.334">«dogen::handcrafted::typeable»</text><text fill="#000000" font-family="sans-serif" font-size="14" lengthAdjust="spacing" textLength="174" x="207" y="332.1592">program_options_parser</text><line style="stroke:#181818;stroke-width:0.5;" x1="171" x2="391" y1="340.4609" y2="340.4609"/><line style="stroke:#181818;stroke-width:0.5;" x1="171" x2="391" y1="348.4609" y2="348.4609"/></g><g id="elem_GMN51"><path d="M12,245.0625 L12,270.1953 L476,270.1953 L476,255.0625 L466,245.0625 L12,245.0625 " fill="#FEFFDD" style="stroke:#181818;stroke-width:0.5;"/><path d="M466,245.0625 L466,255.0625 L476,255.0625 L466,245.0625 " fill="#FEFFDD" style="stroke:#181818;stroke-width:1.0;"/><text fill="#000000" font-family="sans-serif" font-size="13" lengthAdjust="spacing" textLength="443" x="18" y="262.1294">Command-line parser implementation using boost program options.</text></g><!--MD5=[d54e5852ecfe164bbba509d3a9352ed8]
class initializer--><g id="elem_initializer"><rect codeLine="109" fill="#FFFACD" height="56.2656" id="initializer" rx="2.5" ry="2.5" style="stroke:#181818;stroke-width:0.5;" width="222" x="1689.75" y="137.6641"/><ellipse cx="1704.75" cy="157.7969" fill="#ADD1B2" rx="11" ry="11" style="stroke:#181818;stroke-width:1.0;"/><path d="M1707.7188,163.4375 Q1707.1406,163.7344 1706.5,163.8828 Q1705.8594,164.0313 1705.1563,164.0313 Q1702.6563,164.0313 1701.3359,162.3828 Q1700.0156,160.7344 1700.0156,157.6094 Q1700.0156,154.4844 1701.3359,152.8281 Q1702.6563,151.1719 1705.1563,151.1719 Q1705.8594,151.1719 1706.5078,151.3281 Q1707.1563,151.4844 1707.7188,151.7813 L1707.7188,154.5 Q1707.0938,153.9219 1706.5,153.6484 Q1705.9063,153.375 1705.2813,153.375 Q1703.9375,153.375 1703.25,154.4453 Q1702.5625,155.5156 1702.5625,157.6094 Q1702.5625,159.7031 1703.25,160.7734 Q1703.9375,161.8438 1705.2813,161.8438 Q1705.9063,161.8438 1706.5,161.5703 Q1707.0938,161.2969 1707.7188,160.7188 L1707.7188,163.4375 Z " fill="#000000"/><text fill="#000000" font-family="sans-serif" font-size="12" font-style="italic" lengthAdjust="spacing" textLength="194" x="1716.75" y="153.8027">«dogen::handcrafted::typeable»</text><text fill="#000000" font-family="sans-serif" font-size="14" lengthAdjust="spacing" textLength="65" x="1781.25" y="169.6279">initializer</text><line style="stroke:#181818;stroke-width:0.5;" x1="1690.75" x2="1910.75" y1="177.9297" y2="177.9297"/><line style="stroke:#181818;stroke-width:0.5;" x1="1690.75" x2="1910.75" y1="185.9297" y2="185.9297"/></g><!--MD5=[4520fda4e10d4d791ce48fe025810cd4]
class main--><g id="elem_main"><rect codeLine="112" fill="#DDA9F3" height="56.2656" id="main" rx="2.5" ry="2.5" style="stroke:#181818;stroke-width:0.5;" width="152" x="1871.15" y="41.3984"/><ellipse cx="1886.15" cy="61.5313" fill="#ADD1B2" rx="11" ry="11" style="stroke:#181818;stroke-width:1.0;"/><path d="M1889.1188,67.1719 Q1888.5406,67.4688 1887.9,67.6172 Q1887.2594,67.7656 1886.5563,67.7656 Q1884.0563,67.7656 1882.7359,66.1172 Q1881.4156,64.4688 1881.4156,61.3438 Q1881.4156,58.2188 1882.7359,56.5625 Q1884.0563,54.9063 1886.5563,54.9063 Q1887.2594,54.9063 1887.9078,55.0625 Q1888.5563,55.2188 1889.1188,55.5156 L1889.1188,58.2344 Q1888.4938,57.6563 1887.9,57.3828 Q1887.3063,57.1094 1886.6813,57.1094 Q1885.3375,57.1094 1884.65,58.1797 Q1883.9625,59.25 1883.9625,61.3438 Q1883.9625,63.4375 1884.65,64.5078 Q1885.3375,65.5781 1886.6813,65.5781 Q1887.3063,65.5781 1887.9,65.3047 Q1888.4938,65.0313 1889.1188,64.4531 L1889.1188,67.1719 Z " fill="#000000"/><text fill="#000000" font-family="sans-serif" font-size="12" font-style="italic" lengthAdjust="spacing" textLength="124" x="1898.15" y="57.5371">«masd::entry_point»</text><text fill="#000000" font-family="sans-serif" font-size="14" lengthAdjust="spacing" textLength="36" x="1942.15" y="73.3623">main</text><line style="stroke:#181818;stroke-width:0.5;" x1="1872.15" x2="2022.15" y1="81.6641" y2="81.6641"/><line style="stroke:#181818;stroke-width:0.5;" x1="1872.15" x2="2022.15" y1="89.6641" y2="89.6641"/></g><!--MD5=[ba83386d426114557685538e96aa6f68]
class CMakeLists--><g id="elem_CMakeLists"><rect codeLine="120" fill="#99CB99" height="56.2656" id="CMakeLists" rx="2.5" ry="2.5" style="stroke:#181818;stroke-width:0.5;" width="360" x="1491.15" y="26.6992"/><ellipse cx="1506.15" cy="46.832" fill="#ADD1B2" rx="11" ry="11" style="stroke:#181818;stroke-width:1.0;"/><path d="M1509.1188,52.4727 Q1508.5406,52.7695 1507.9,52.918 Q1507.2594,53.0664 1506.5563,53.0664 Q1504.0563,53.0664 1502.7359,51.418 Q1501.4156,49.7695 1501.4156,46.6445 Q1501.4156,43.5195 1502.7359,41.8633 Q1504.0563,40.207 1506.5563,40.207 Q1507.2594,40.207 1507.9078,40.3633 Q1508.5563,40.5195 1509.1188,40.8164 L1509.1188,43.5352 Q1508.4938,42.957 1507.9,42.6836 Q1507.3063,42.4102 1506.6813,42.4102 Q1505.3375,42.4102 1504.65,43.4805 Q1503.9625,44.5508 1503.9625,46.6445 Q1503.9625,48.7383 1504.65,49.8086 Q1505.3375,50.8789 1506.6813,50.8789 Q1507.3063,50.8789 1507.9,50.6055 Q1508.4938,50.332 1509.1188,49.7539 L1509.1188,52.4727 Z " fill="#000000"/><text fill="#000000" font-family="sans-serif" font-size="12" font-style="italic" lengthAdjust="spacing" textLength="332" x="1518.15" y="42.8379">«masd::build::cmakelists, dogen::handcrafted::cmake»</text><text fill="#000000" font-family="sans-serif" font-size="14" lengthAdjust="spacing" textLength="79" x="1644.65" y="58.6631">CMakeLists</text><line style="stroke:#181818;stroke-width:0.5;" x1="1492.15" x2="1850.15" y1="66.9648" y2="66.9648"/><line style="stroke:#181818;stroke-width:0.5;" x1="1492.15" x2="1850.15" y1="74.9648" y2="74.9648"/></g><line style="stroke:#181818;stroke-width:1.0;" x1="1557.75" x2="1557.75" y1="483.3516" y2="503.3516"/><polygon fill="none" points="1557.75,483.3516,1553.75,489.3516,1557.75,495.3516,1561.75,489.3516,1557.75,483.3516" style="stroke:#181818;stroke-width:1.0;"/><line style="stroke:#181818;stroke-width:1.0;stroke-dasharray:7.0,7.0;" x1="1056" x2="1056" y1="356.4609" y2="376.4609"/><line style="stroke:#181818;stroke-width:1.0;stroke-dasharray:7.0,7.0;" x1="1056" x2="1407.75" y1="376.4609" y2="376.4609"/><line style="stroke:#181818;stroke-width:1.0;stroke-dasharray:7.0,7.0;" x1="1407.75" x2="1407.75" y1="376.4609" y2="386.4609"/><line style="stroke:#181818;stroke-width:1.0;" x1="1621.3333" x2="1621.3333" y1="592.2109" y2="602.2109"/><line style="stroke:#181818;stroke-width:1.0;" x1="1621.3333" x2="1810.5833" y1="602.2109" y2="602.2109"/><line style="stroke:#181818;stroke-width:1.0;" x1="1810.5833" x2="1810.5833" y1="602.2109" y2="622.2109"/><polygon fill="none" points="1621.3333,592.2109,1617.3333,598.2109,1621.3333,604.2109,1625.3333,598.2109,1621.3333,592.2109" style="stroke:#181818;stroke-width:1.0;"/><line style="stroke:#181818;stroke-width:1.0;" x1="1239.8333" x2="1239.8333" y1="592.2109" y2="602.2109"/><line style="stroke:#181818;stroke-width:1.0;" x1="1239.8333" x2="610.4167" y1="602.2109" y2="602.2109"/><line style="stroke:#181818;stroke-width:1.0;" x1="610.4167" x2="610.4167" y1="602.2109" y2="622.2109"/><polygon fill="none" points="1239.8333,592.2109,1235.8333,598.2109,1239.8333,604.2109,1243.8333,598.2109,1239.8333,592.2109" style="stroke:#181818;stroke-width:1.0;"/><line style="stroke:#181818;stroke-width:1.0;" x1="1430.5833" x2="1430.5833" y1="592.2109" y2="622.2109"/><polygon fill="none" points="1430.5833,592.2109,1426.5833,598.2109,1430.5833,604.2109,1434.5833,598.2109,1430.5833,592.2109" style="stroke:#181818;stroke-width:1.0;"/><line style="stroke:#181818;stroke-width:1.0;stroke-dasharray:7.0,7.0;" x1="367.1667" x2="367.1667" y1="483.3516" y2="493.3516"/><line style="stroke:#181818;stroke-width:1.0;stroke-dasharray:7.0,7.0;" x1="367.1667" x2="1303.4167" y1="493.3516" y2="493.3516"/><line style="stroke:#181818;stroke-width:1.0;stroke-dasharray:7.0,7.0;" x1="1303.4167" x2="1303.4167" y1="493.3516" y2="503.3516"/><line style="stroke:#181818;stroke-width:1.0;stroke-dasharray:7.0,7.0;" x1="1976.5833" x2="1976.5833" y1="592.2109" y2="622.2109"/><line style="stroke:#181818;stroke-width:1.0;stroke-dasharray:7.0,7.0;" x1="530.0833" x2="530.0833" y1="592.2109" y2="622.2109"/><line style="stroke:#181818;stroke-width:1.0;stroke-dasharray:7.0,7.0;" x1="859.5833" x2="859.5833" y1="592.2109" y2="612.2109"/><line style="stroke:#181818;stroke-width:1.0;stroke-dasharray:7.0,7.0;" x1="859.5833" x2="1358.9167" y1="612.2109" y2="612.2109"/><line style="stroke:#181818;stroke-width:1.0;stroke-dasharray:7.0,7.0;" x1="1358.9167" x2="1358.9167" y1="612.2109" y2="622.2109"/><line style="stroke:#181818;stroke-width:1.0;" x1="1557.75" x2="1557.75" y1="270.1953" y2="386.4609"/><polygon fill="none" points="1557.75,270.1953,1553.75,276.1953,1557.75,282.1953,1561.75,276.1953,1557.75,270.1953" style="stroke:#181818;stroke-width:1.0;"/><text fill="#000000" font-family="sans-serif" font-size="13" lengthAdjust="spacing" textLength="60" x="1495.75" y="332.8286">validates</text><line style="stroke:#181818;stroke-width:1.0;" x1="1275.25" x2="1275.25" y1="270.1953" y2="290.1953"/><line style="stroke:#181818;stroke-width:1.0;" x1="1275.25" x2="458" y1="290.1953" y2="290.1953"/><line style="stroke:#181818;stroke-width:1.0;" x1="458" x2="458" y1="290.1953" y2="366.4609"/><line style="stroke:#181818;stroke-width:1.0;" x1="458" x2="593.3333" y1="366.4609" y2="366.4609"/><line style="stroke:#181818;stroke-width:1.0;" x1="593.3333" x2="593.3333" y1="366.4609" y2="386.4609"/><polygon fill="none" points="1275.25,270.1953,1271.25,276.1953,1275.25,282.1953,1279.25,276.1953,1275.25,270.1953" style="stroke:#181818;stroke-width:1.0;"/><text fill="#000000" font-family="sans-serif" font-size="13" lengthAdjust="spacing" textLength="44" x="412" y="332.8286">throws</text><line style="stroke:#181818;stroke-width:1.0;" x1="1351" x2="1351" y1="270.1953" y2="366.4609"/><line style="stroke:#181818;stroke-width:1.0;" x1="1351" x2="1482.75" y1="366.4609" y2="366.4609"/><line style="stroke:#181818;stroke-width:1.0;" x1="1482.75" x2="1482.75" y1="366.4609" y2="386.4609"/><polygon fill="none" points="1351,270.1953,1347,276.1953,1351,282.1953,1355,276.1953,1351,270.1953" style="stroke:#181818;stroke-width:1.0;"/><text fill="#000000" font-family="sans-serif" font-size="13" lengthAdjust="spacing" textLength="48" x="1301" y="332.8286">creates</text><line style="stroke:#181818;stroke-width:1.0;stroke-dasharray:7.0,7.0;" x1="1325.75" x2="1325.75" y1="193.9297" y2="213.9297"/><line style="stroke:#181818;stroke-width:1.0;stroke-dasharray:7.0,7.0;" x1="645" x2="645" y1="356.4609" y2="386.4609"/><line style="stroke:#181818;stroke-width:1.0;" x1="2193.75" x2="2193.75" y1="270.1953" y2="366.4609"/><line style="stroke:#181818;stroke-width:1.0;" x1="2193.75" x2="2353.0833" y1="366.4609" y2="366.4609"/><line style="stroke:#181818;stroke-width:1.0;" x1="2353.0833" x2="2353.0833" y1="366.4609" y2="386.4609"/><polygon fill="none" points="2193.75,270.1953,2189.75,276.1953,2193.75,282.1953,2197.75,276.1953,2193.75,270.1953" style="stroke:#181818;stroke-width:1.0;"/><text fill="#000000" font-family="sans-serif" font-size="13" lengthAdjust="spacing" textLength="44" x="2147.75" y="332.8286">throws</text><line style="stroke:#181818;stroke-width:1.0;" x1="2119.75" x2="2119.75" y1="270.1953" y2="366.4609"/><line style="stroke:#181818;stroke-width:1.0;" x1="2119.75" x2="1707.75" y1="366.4609" y2="366.4609"/><line style="stroke:#181818;stroke-width:1.0;" x1="1707.75" x2="1707.75" y1="366.4609" y2="386.4609"/><polygon fill="none" points="2119.75,270.1953,2115.75,276.1953,2119.75,282.1953,2123.75,276.1953,2119.75,270.1953" style="stroke:#181818;stroke-width:1.0;"/><text fill="#000000" font-family="sans-serif" font-size="13" lengthAdjust="spacing" textLength="89" x="2028.75" y="332.8286">configured by</text><line style="stroke:#181818;stroke-width:1.0;stroke-dasharray:7.0,7.0;" x1="2193.75" x2="2193.75" y1="193.9297" y2="213.9297"/><line style="stroke:#181818;stroke-width:1.0;stroke-dasharray:7.0,7.0;" x1="2415.75" x2="2415.75" y1="356.4609" y2="386.4609"/><line style="stroke:#181818;stroke-width:1.0;" x1="1199.5" x2="1199.5" y1="270.1953" y2="280.1953"/><line style="stroke:#181818;stroke-width:1.0;" x1="1199.5" x2="318" y1="280.1953" y2="280.1953"/><line style="stroke:#181818;stroke-width:1.0;" x1="318" x2="318" y1="280.1953" y2="300.1953"/><polygon fill="#FFFFFF" points="1199.5,270.1953,1192.5,289.1953,1206.5,289.1953,1199.5,270.1953" style="stroke:#181818;stroke-width:1.0;"/><line style="stroke:#181818;stroke-width:1.0;stroke-dasharray:7.0,7.0;" x1="244" x2="244" y1="270.1953" y2="300.1953"/><line style="stroke:#181818;stroke-width:1.0;" x1="1901.55" x2="1901.55" y1="97.6641" y2="107.6641"/><line style="stroke:#181818;stroke-width:1.0;" x1="1901.55" x2="1105.75" y1="107.6641" y2="107.6641"/><line style="stroke:#181818;stroke-width:1.0;" x1="1105.75" x2="1105.75" y1="107.6641" y2="203.9297"/><line style="stroke:#181818;stroke-width:1.0;" x1="1105.75" x2="1224.75" y1="203.9297" y2="203.9297"/><line style="stroke:#181818;stroke-width:1.0;" x1="1224.75" x2="1224.75" y1="203.9297" y2="213.9297"/><polygon fill="none" points="1901.55,97.6641,1897.55,103.6641,1901.55,109.6641,1905.55,103.6641,1901.55,97.6641" style="stroke:#181818;stroke-width:1.0;"/><text fill="#000000" font-family="sans-serif" font-size="13" lengthAdjust="spacing" textLength="165" x="938.75" y="170.2974">reads configuration using</text><line style="stroke:#181818;stroke-width:1.0;" x1="1962.35" x2="1962.35" y1="97.6641" y2="127.6641"/><line style="stroke:#181818;stroke-width:1.0;" x1="1962.35" x2="1800.75" y1="127.6641" y2="127.6641"/><line style="stroke:#181818;stroke-width:1.0;" x1="1800.75" x2="1800.75" y1="127.6641" y2="137.6641"/><polygon fill="none" points="1962.35,97.6641,1958.35,103.6641,1962.35,109.6641,1966.35,103.6641,1962.35,97.6641" style="stroke:#181818;stroke-width:1.0;"/><line style="stroke:#181818;stroke-width:1.0;" x1="1992.75" x2="1992.75" y1="97.6641" y2="203.9297"/><line style="stroke:#181818;stroke-width:1.0;" x1="1992.75" x2="2119.75" y1="203.9297" y2="203.9297"/><line style="stroke:#181818;stroke-width:1.0;" x1="2119.75" x2="2119.75" y1="203.9297" y2="213.9297"/><polygon fill="none" points="1992.75,97.6641,1988.75,103.6641,1992.75,109.6641,1996.75,103.6641,1992.75,97.6641" style="stroke:#181818;stroke-width:1.0;"/><text fill="#000000" font-family="sans-serif" font-size="13" lengthAdjust="spacing" textLength="59" x="1931.75" y="170.2974">executes</text><line style="stroke:#181818;stroke-width:1.0;" x1="1931.95" x2="1931.95" y1="97.6641" y2="117.6641"/><line style="stroke:#181818;stroke-width:1.0;" x1="1931.95" x2="1678.75" y1="117.6641" y2="117.6641"/><line style="stroke:#181818;stroke-width:1.0;" x1="1678.75" x2="1678.75" y1="117.6641" y2="366.4609"/><line style="stroke:#181818;stroke-width:1.0;" x1="1678.75" x2="1632.75" y1="366.4609" y2="366.4609"/><line style="stroke:#181818;stroke-width:1.0;" x1="1632.75" x2="1632.75" y1="366.4609" y2="386.4609"/><polygon fill="none" points="1931.95,97.6641,1927.95,103.6641,1931.95,109.6641,1935.95,103.6641,1931.95,97.6641" style="stroke:#181818;stroke-width:1.0;"/><!--MD5=[4537e7e69e6ce9363b71298f8ed0f08d]
@startuml
!pragma layout elk
set namespaceSeparator ::
note as N1
Implements the command-line interface for Dogen.

UML representation:

\image html dogen.cli/modeling/dogen.cli.svg
end note

class configuration #F7E5FF {
    +{field} logging boost::optional<utility::log::logging_configuration>
    +{field} api dogen::configuration
    +{field} cli cli_configuration
}

configuration o- - cli_configuration

note top of configuration
All of the configuration required by the command line application.
end note

class cli_configuration <<masd::fluent>> #F7E5FF {
    +{field} activity boost::variant<generation_configuration, conversion_configuration, dumpspecs_configuration>
    +{field} byproduct_directory boost::filesystem::path
}

cli_configuration o- - generation_configuration
cli_configuration o- - conversion_configuration
cli_configuration o- - dumpspecs_configuration

note top of cli_configuration
Configuration specific to the CLI application.
end note

class generation_configuration <<masd::fluent>> #F7E5FF {
    +{field} reference_model_directories std::vector<boost::filesystem::path>
    +{field} target boost::filesystem::path
    +{field} output_directory boost::filesystem::path
}

note top of generation_configuration
Configuration related to code generation.
end note

class conversion_configuration <<masd::fluent>> #F7E5FF {
    +{field} source boost::filesystem::path
    +{field} destination std::string
}

note top of conversion_configuration
Configuration for the model conversion.
end note

class dumpspecs_configuration <<masd::fluent>> #F7E5FF {
    +{field} style reporting_style
}

note top of dumpspecs_configuration
Dumps all the specs about this version of dogen.
end note

class configuration_validator <<dogen::handcrafted::typeable>> #FFFACD {
}

configuration_validator o- - configuration: validates

class command_line_parser <<dogen::handcrafted::typeable::header_only>> #FFFACD {
}

command_line_parser o- - parser_exception: throws
command_line_parser o- - configuration: creates

note top of command_line_parser
Interface for a command-line parser of the dogen options.
end note

class parser_exception <<masd::exception>> #E8C2F8 {
}

note top of parser_exception
A fatal error has occurred during option parsing.
end note

class application <<dogen::handcrafted::typeable>> #FFFACD {
}

application o- - application_exception: throws
application o- - configuration: configured by

note top of application
Entry point for the dogen command line application.
end note

class application_exception <<masd::exception>> #E8C2F8 {
}

note top of application_exception
A fatal error has occurred whilst executing the application.
end note

class program_options_parser <<dogen::handcrafted::typeable>> #FFFACD {
}

command_line_parser <|- - program_options_parser
note top of program_options_parser
Command-line parser implementation using boost program options.
end note

class initializer <<dogen::handcrafted::typeable>> #FFFACD {
}

class main <<masd::entry_point>> #DDA9F3 {
}

main o- - command_line_parser: reads configuration using
main o- - initializer
main o- - application: executes
main o- - configuration

class CMakeLists <<masd::build::cmakelists, dogen::handcrafted::cmake>> #99CB99 {
}

@enduml

PlantUML version 1.2022.12(Sun Oct 23 19:12:26 BST 2022)
(GPL source distribution)
Java Runtime: OpenJDK Runtime Environment
JVM: OpenJDK 64-Bit Server VM
Java Version: 1.8.0_212-8u212-b03-2~deb9u1-b03
Operating System: Linux
OS Version: 5.19.0-2-amd64
Default Encoding: UTF-8
Language: en
Country: GB
--></g></svg>