<?xml version="1.0" encoding="UTF-8" standalone="no"?><svg xmlns="http://www.w3.org/2000/svg" xmlns:xlink="http://www.w3.org/1999/xlink" contentStyleType="text/css" height="722px" preserveAspectRatio="none" style="width:3027px;height:722px;background:#FFFFFF;" version="1.1" viewBox="0 0 3027 722" width="3027px" zoomAndPan="magnify"><defs/><g><g id="elem_N1"><path d="M120.5,6 L120.5,91.6641 L476.5,91.6641 L476.5,16 L466.5,6 L120.5,6 " fill="#FEFFDD" style="stroke:#181818;stroke-width:0.5;"/><path d="M466.5,6 L466.5,16 L476.5,16 L466.5,6 " fill="#FEFFDD" style="stroke:#181818;stroke-width:1.0;"/><text fill="#000000" font-family="sans-serif" font-size="13" lengthAdjust="spacing" textLength="335" x="126.5" y="23.0669">Implements the command-line interface for Dogen.</text><text fill="#000000" font-family="sans-serif" font-size="13" lengthAdjust="spacing" textLength="4" x="126.5" y="38.1997"> </text><text fill="#000000" font-family="sans-serif" font-size="13" lengthAdjust="spacing" textLength="131" x="126.5" y="53.3325">UML representation:</text><text fill="#000000" font-family="sans-serif" font-size="13" lengthAdjust="spacing" textLength="4" x="126.5" y="68.4653"> </text><text fill="#000000" font-family="sans-serif" font-size="13" lengthAdjust="spacing" textLength="297" x="126.5" y="83.5981">\image html dogen.cli/modeling/dogen.cli.svg</text></g><!--MD5=[5bbd3befcf1686b7fd148cc582657d1c]
class configuration--><g id="elem_configuration"><rect codeLine="10" fill="#F7E5FF" height="96.8906" id="configuration" rx="2.5" ry="2.5" style="stroke:#181818;stroke-width:0.5;" width="450" x="1349.5" y="302"/><ellipse cx="1522.75" cy="318" fill="#ADD1B2" rx="11" ry="11" style="stroke:#181818;stroke-width:1.0;"/><path d="M1525.7188,323.6406 Q1525.1406,323.9375 1524.5,324.0859 Q1523.8594,324.2344 1523.1563,324.2344 Q1520.6563,324.2344 1519.3359,322.5859 Q1518.0156,320.9375 1518.0156,317.8125 Q1518.0156,314.6875 1519.3359,313.0313 Q1520.6563,311.375 1523.1563,311.375 Q1523.8594,311.375 1524.5078,311.5313 Q1525.1563,311.6875 1525.7188,311.9844 L1525.7188,314.7031 Q1525.0938,314.125 1524.5,313.8516 Q1523.9063,313.5781 1523.2813,313.5781 Q1521.9375,313.5781 1521.25,314.6484 Q1520.5625,315.7188 1520.5625,317.8125 Q1520.5625,319.9063 1521.25,320.9766 Q1521.9375,322.0469 1523.2813,322.0469 Q1523.9063,322.0469 1524.5,321.7734 Q1525.0938,321.5 1525.7188,320.9219 L1525.7188,323.6406 Z " fill="#000000"/><text fill="#000000" font-family="sans-serif" font-size="14" lengthAdjust="spacing" textLength="95" x="1543.25" y="322.8467">configuration</text><line style="stroke:#181818;stroke-width:0.5;" x1="1350.5" x2="1798.5" y1="334" y2="334"/><ellipse cx="1360.5" cy="345" fill="none" rx="3" ry="3" style="stroke:#038048;stroke-width:1.0;"/><text fill="#000000" font-family="sans-serif" font-size="14" lengthAdjust="spacing" textLength="424" x="1369.5" y="350.9951">logging boost::optional&lt;utility::log::logging_configuration&gt;</text><ellipse cx="1360.5" cy="361.2969" fill="none" rx="3" ry="3" style="stroke:#038048;stroke-width:1.0;"/><text fill="#000000" font-family="sans-serif" font-size="14" lengthAdjust="spacing" textLength="176" x="1369.5" y="367.292">api dogen::configuration</text><ellipse cx="1360.5" cy="377.5938" fill="none" rx="3" ry="3" style="stroke:#038048;stroke-width:1.0;"/><text fill="#000000" font-family="sans-serif" font-size="14" lengthAdjust="spacing" textLength="138" x="1369.5" y="383.5889">cli cli_configuration</text><line style="stroke:#181818;stroke-width:0.5;" x1="1350.5" x2="1798.5" y1="390.8906" y2="390.8906"/></g><!--MD5=[38493dad98929d929ee10f8669b423ff]
class cli_configuration--><g id="elem_cli_configuration"><rect codeLine="22" fill="#F7E5FF" height="88.8594" id="cli_configuration" rx="2.5" ry="2.5" style="stroke:#181818;stroke-width:0.5;" width="763" x="330" y="460"/><ellipse cx="648.25" cy="480.1328" fill="#ADD1B2" rx="11" ry="11" style="stroke:#181818;stroke-width:1.0;"/><path d="M651.2188,485.7734 Q650.6406,486.0703 650,486.2188 Q649.3594,486.3672 648.6563,486.3672 Q646.1563,486.3672 644.8359,484.7188 Q643.5156,483.0703 643.5156,479.9453 Q643.5156,476.8203 644.8359,475.1641 Q646.1563,473.5078 648.6563,473.5078 Q649.3594,473.5078 650.0078,473.6641 Q650.6563,473.8203 651.2188,474.1172 L651.2188,476.8359 Q650.5938,476.2578 650,475.9844 Q649.4063,475.7109 648.7813,475.7109 Q647.4375,475.7109 646.75,476.7813 Q646.0625,477.8516 646.0625,479.9453 Q646.0625,482.0391 646.75,483.1094 Q647.4375,484.1797 648.7813,484.1797 Q649.4063,484.1797 650,483.9063 Q650.5938,483.6328 651.2188,483.0547 L651.2188,485.7734 Z " fill="#000000"/><text fill="#000000" font-family="sans-serif" font-size="12" font-style="italic" lengthAdjust="spacing" textLength="90" x="682.75" y="476.1387">«masd::fluent»</text><text fill="#000000" font-family="sans-serif" font-size="14" lengthAdjust="spacing" textLength="118" x="668.75" y="491.9639">cli_configuration</text><line style="stroke:#181818;stroke-width:0.5;" x1="331" x2="1092" y1="500.2656" y2="500.2656"/><ellipse cx="341" cy="511.2656" fill="none" rx="3" ry="3" style="stroke:#038048;stroke-width:1.0;"/><text fill="#000000" font-family="sans-serif" font-size="14" lengthAdjust="spacing" textLength="737" x="350" y="517.2607">activity boost::variant&lt;generation_configuration, conversion_configuration, dumpspecs_configuration&gt;</text><ellipse cx="341" cy="527.5625" fill="none" rx="3" ry="3" style="stroke:#038048;stroke-width:1.0;"/><text fill="#000000" font-family="sans-serif" font-size="14" lengthAdjust="spacing" textLength="310" x="350" y="533.5576">byproduct_directory boost::filesystem::path</text><line style="stroke:#181818;stroke-width:0.5;" x1="331" x2="1092" y1="540.8594" y2="540.8594"/></g><g id="elem_GMN6"><path d="M1521.5,184.5 L1521.5,209.6328 A0,0 0 0 0 1521.5,209.6328 L1729.29,209.6328 L1628.8,301.67 L1737.29,209.6328 L1971.5,209.6328 A0,0 0 0 0 1971.5,209.6328 L1971.5,194.5 L1961.5,184.5 L1521.5,184.5 A0,0 0 0 0 1521.5,184.5 " fill="#FEFFDD" style="stroke:#181818;stroke-width:0.5;"/><path d="M1961.5,184.5 L1961.5,194.5 L1971.5,194.5 L1961.5,184.5 " fill="#FEFFDD" style="stroke:#181818;stroke-width:0.5;"/><text fill="#000000" font-family="sans-serif" font-size="13" lengthAdjust="spacing" textLength="429" x="1527.5" y="201.5669">All of the configuration required by the command line application.</text></g><!--MD5=[e9a1f03b73bb165adbbef1025b775e42]
class generation_configuration--><g id="elem_generation_configuration"><rect codeLine="35" fill="#F7E5FF" height="105.1563" id="generation_configuration" rx="2.5" ry="2.5" style="stroke:#181818;stroke-width:0.5;" width="498" x="208.5" y="610"/><ellipse cx="363.25" cy="630.1328" fill="#ADD1B2" rx="11" ry="11" style="stroke:#181818;stroke-width:1.0;"/><path d="M366.2188,635.7734 Q365.6406,636.0703 365,636.2188 Q364.3594,636.3672 363.6563,636.3672 Q361.1563,636.3672 359.8359,634.7188 Q358.5156,633.0703 358.5156,629.9453 Q358.5156,626.8203 359.8359,625.1641 Q361.1563,623.5078 363.6563,623.5078 Q364.3594,623.5078 365.0078,623.6641 Q365.6563,623.8203 366.2188,624.1172 L366.2188,626.8359 Q365.5938,626.2578 365,625.9844 Q364.4063,625.7109 363.7813,625.7109 Q362.4375,625.7109 361.75,626.7813 Q361.0625,627.8516 361.0625,629.9453 Q361.0625,632.0391 361.75,633.1094 Q362.4375,634.1797 363.7813,634.1797 Q364.4063,634.1797 365,633.9063 Q365.5938,633.6328 366.2188,633.0547 L366.2188,635.7734 Z " fill="#000000"/><text fill="#000000" font-family="sans-serif" font-size="12" font-style="italic" lengthAdjust="spacing" textLength="90" x="428.75" y="626.1387">«masd::fluent»</text><text fill="#000000" font-family="sans-serif" font-size="14" lengthAdjust="spacing" textLength="180" x="383.75" y="641.9639">generation_configuration</text><line style="stroke:#181818;stroke-width:0.5;" x1="209.5" x2="705.5" y1="650.2656" y2="650.2656"/><ellipse cx="219.5" cy="661.2656" fill="none" rx="3" ry="3" style="stroke:#038048;stroke-width:1.0;"/><text fill="#000000" font-family="sans-serif" font-size="14" lengthAdjust="spacing" textLength="472" x="228.5" y="667.2607">reference_model_directories std::vector&lt;boost::filesystem::path&gt;</text><ellipse cx="219.5" cy="677.5625" fill="none" rx="3" ry="3" style="stroke:#038048;stroke-width:1.0;"/><text fill="#000000" font-family="sans-serif" font-size="14" lengthAdjust="spacing" textLength="210" x="228.5" y="683.5576">target boost::filesystem::path</text><ellipse cx="219.5" cy="693.8594" fill="none" rx="3" ry="3" style="stroke:#038048;stroke-width:1.0;"/><text fill="#000000" font-family="sans-serif" font-size="14" lengthAdjust="spacing" textLength="284" x="228.5" y="699.8545">output_directory boost::filesystem::path</text><line style="stroke:#181818;stroke-width:0.5;" x1="209.5" x2="705.5" y1="707.1563" y2="707.1563"/></g><!--MD5=[6223d9c3f34e8a15271f3a089fb0a351]
class conversion_configuration--><g id="elem_conversion_configuration"><rect codeLine="45" fill="#F7E5FF" height="88.8594" id="conversion_configuration" rx="2.5" ry="2.5" style="stroke:#181818;stroke-width:0.5;" width="241" x="820" y="618"/><ellipse cx="848.05" cy="638.1328" fill="#ADD1B2" rx="11" ry="11" style="stroke:#181818;stroke-width:1.0;"/><path d="M851.0188,643.7734 Q850.4406,644.0703 849.8,644.2188 Q849.1594,644.3672 848.4563,644.3672 Q845.9563,644.3672 844.6359,642.7188 Q843.3156,641.0703 843.3156,637.9453 Q843.3156,634.8203 844.6359,633.1641 Q845.9563,631.5078 848.4563,631.5078 Q849.1594,631.5078 849.8078,631.6641 Q850.4563,631.8203 851.0188,632.1172 L851.0188,634.8359 Q850.3938,634.2578 849.8,633.9844 Q849.2063,633.7109 848.5813,633.7109 Q847.2375,633.7109 846.55,634.7813 Q845.8625,635.8516 845.8625,637.9453 Q845.8625,640.0391 846.55,641.1094 Q847.2375,642.1797 848.5813,642.1797 Q849.2063,642.1797 849.8,641.9063 Q850.3938,641.6328 851.0188,641.0547 L851.0188,643.7734 Z " fill="#000000"/><text fill="#000000" font-family="sans-serif" font-size="12" font-style="italic" lengthAdjust="spacing" textLength="90" x="909.95" y="634.1387">«masd::fluent»</text><text fill="#000000" font-family="sans-serif" font-size="14" lengthAdjust="spacing" textLength="180" x="864.95" y="649.9639">conversion_configuration</text><line style="stroke:#181818;stroke-width:0.5;" x1="821" x2="1060" y1="658.2656" y2="658.2656"/><ellipse cx="831" cy="669.2656" fill="none" rx="3" ry="3" style="stroke:#038048;stroke-width:1.0;"/><text fill="#000000" font-family="sans-serif" font-size="14" lengthAdjust="spacing" textLength="215" x="840" y="675.2607">source boost::filesystem::path</text><ellipse cx="831" cy="685.5625" fill="none" rx="3" ry="3" style="stroke:#038048;stroke-width:1.0;"/><text fill="#000000" font-family="sans-serif" font-size="14" lengthAdjust="spacing" textLength="154" x="840" y="691.5576">destination std::string</text><line style="stroke:#181818;stroke-width:0.5;" x1="821" x2="1060" y1="698.8594" y2="698.8594"/></g><!--MD5=[2a9c6b040fa43722a67025e2e82f0947]
class dumpspecs_configuration--><g id="elem_dumpspecs_configuration"><rect codeLine="54" fill="#F7E5FF" height="72.5625" id="dumpspecs_configuration" rx="2.5" ry="2.5" style="stroke:#181818;stroke-width:0.5;" width="215" x="1301" y="626"/><ellipse cx="1316" cy="646.1328" fill="#ADD1B2" rx="11" ry="11" style="stroke:#181818;stroke-width:1.0;"/><path d="M1318.9688,651.7734 Q1318.3906,652.0703 1317.75,652.2188 Q1317.1094,652.3672 1316.4063,652.3672 Q1313.9063,652.3672 1312.5859,650.7188 Q1311.2656,649.0703 1311.2656,645.9453 Q1311.2656,642.8203 1312.5859,641.1641 Q1313.9063,639.5078 1316.4063,639.5078 Q1317.1094,639.5078 1317.7578,639.6641 Q1318.4063,639.8203 1318.9688,640.1172 L1318.9688,642.8359 Q1318.3438,642.2578 1317.75,641.9844 Q1317.1563,641.7109 1316.5313,641.7109 Q1315.1875,641.7109 1314.5,642.7813 Q1313.8125,643.8516 1313.8125,645.9453 Q1313.8125,648.0391 1314.5,649.1094 Q1315.1875,650.1797 1316.5313,650.1797 Q1317.1563,650.1797 1317.75,649.9063 Q1318.3438,649.6328 1318.9688,649.0547 L1318.9688,651.7734 Z " fill="#000000"/><text fill="#000000" font-family="sans-serif" font-size="12" font-style="italic" lengthAdjust="spacing" textLength="90" x="1376.5" y="642.1387">«masd::fluent»</text><text fill="#000000" font-family="sans-serif" font-size="14" lengthAdjust="spacing" textLength="183" x="1330" y="657.9639">dumpspecs_configuration</text><line style="stroke:#181818;stroke-width:0.5;" x1="1302" x2="1515" y1="666.2656" y2="666.2656"/><ellipse cx="1312" cy="677.2656" fill="none" rx="3" ry="3" style="stroke:#038048;stroke-width:1.0;"/><text fill="#000000" font-family="sans-serif" font-size="14" lengthAdjust="spacing" textLength="143" x="1321" y="683.2607">style reporting_style</text><line style="stroke:#181818;stroke-width:0.5;" x1="1302" x2="1515" y1="690.5625" y2="690.5625"/></g><g id="elem_GMN15"><path d="M256,338 L256,363.1328 A0,0 0 0 0 256,363.1328 L429.62,363.1328 L625.28,459.96 L437.62,363.1328 L565,363.1328 A0,0 0 0 0 565,363.1328 L565,348 L555,338 L256,338 A0,0 0 0 0 256,338 " fill="#FEFFDD" style="stroke:#181818;stroke-width:0.5;"/><path d="M555,338 L555,348 L565,348 L555,338 " fill="#FEFFDD" style="stroke:#181818;stroke-width:0.5;"/><text fill="#000000" font-family="sans-serif" font-size="13" lengthAdjust="spacing" textLength="288" x="262" y="355.0669">Configuration specific to the CLI application.</text></g><g id="elem_GMN18"><path d="M6,492 L6,517.1328 A0,0 0 0 0 6,517.1328 L169.32,517.1328 L356.12,609.98 L177.32,517.1328 L295,517.1328 A0,0 0 0 0 295,517.1328 L295,502 L285,492 L6,492 A0,0 0 0 0 6,492 " fill="#FEFFDD" style="stroke:#181818;stroke-width:0.5;"/><path d="M285,492 L285,502 L295,502 L285,492 " fill="#FEFFDD" style="stroke:#181818;stroke-width:0.5;"/><text fill="#000000" font-family="sans-serif" font-size="13" lengthAdjust="spacing" textLength="268" x="12" y="509.0669">Configuration related to code generation.</text></g><g id="elem_GMN21"><path d="M1128.5,492 L1128.5,517.1328 A0,0 0 0 0 1128.5,517.1328 L1240.11,517.1328 L1032.1,617.94 L1248.11,517.1328 L1408.5,517.1328 A0,0 0 0 0 1408.5,517.1328 L1408.5,502 L1398.5,492 L1128.5,492 A0,0 0 0 0 1128.5,492 " fill="#FEFFDD" style="stroke:#181818;stroke-width:0.5;"/><path d="M1398.5,492 L1398.5,502 L1408.5,502 L1398.5,492 " fill="#FEFFDD" style="stroke:#181818;stroke-width:0.5;"/><text fill="#000000" font-family="sans-serif" font-size="13" lengthAdjust="spacing" textLength="259" x="1134.5" y="509.0669">Configuration for the model conversion.</text></g><g id="elem_GMN24"><path d="M1444,492 L1444,517.1328 A0,0 0 0 0 1444,517.1328 L1594.09,517.1328 L1455.49,625.74 L1602.09,517.1328 L1783,517.1328 A0,0 0 0 0 1783,517.1328 L1783,502 L1773,492 L1444,492 A0,0 0 0 0 1444,492 " fill="#FEFFDD" style="stroke:#181818;stroke-width:0.5;"/><path d="M1773,492 L1773,502 L1783,502 L1773,492 " fill="#FEFFDD" style="stroke:#181818;stroke-width:0.5;"/><text fill="#000000" font-family="sans-serif" font-size="13" lengthAdjust="spacing" textLength="318" x="1450" y="509.0669">Dumps all the specs about this version of dogen.</text></g><!--MD5=[0347ab94eab96366268c1ddf569cc58d]
class configuration_validator--><g id="elem_configuration_validator"><rect codeLine="62" fill="#FFFACD" height="56.2656" id="configuration_validator" rx="2.5" ry="2.5" style="stroke:#181818;stroke-width:0.5;" width="222" x="1264.5" y="169"/><ellipse cx="1279.5" cy="189.1328" fill="#ADD1B2" rx="11" ry="11" style="stroke:#181818;stroke-width:1.0;"/><path d="M1282.4688,194.7734 Q1281.8906,195.0703 1281.25,195.2188 Q1280.6094,195.3672 1279.9063,195.3672 Q1277.4063,195.3672 1276.0859,193.7188 Q1274.7656,192.0703 1274.7656,188.9453 Q1274.7656,185.8203 1276.0859,184.1641 Q1277.4063,182.5078 1279.9063,182.5078 Q1280.6094,182.5078 1281.2578,182.6641 Q1281.9063,182.8203 1282.4688,183.1172 L1282.4688,185.8359 Q1281.8438,185.2578 1281.25,184.9844 Q1280.6563,184.7109 1280.0313,184.7109 Q1278.6875,184.7109 1278,185.7813 Q1277.3125,186.8516 1277.3125,188.9453 Q1277.3125,191.0391 1278,192.1094 Q1278.6875,193.1797 1280.0313,193.1797 Q1280.6563,193.1797 1281.25,192.9063 Q1281.8438,192.6328 1282.4688,192.0547 L1282.4688,194.7734 Z " fill="#000000"/><text fill="#000000" font-family="sans-serif" font-size="12" font-style="italic" lengthAdjust="spacing" textLength="194" x="1291.5" y="185.1387">«dogen::handcrafted::typeable»</text><text fill="#000000" font-family="sans-serif" font-size="14" lengthAdjust="spacing" textLength="165" x="1306" y="200.9639">configuration_validator</text><line style="stroke:#181818;stroke-width:0.5;" x1="1265.5" x2="1485.5" y1="209.2656" y2="209.2656"/><line style="stroke:#181818;stroke-width:0.5;" x1="1265.5" x2="1485.5" y1="217.2656" y2="217.2656"/></g><!--MD5=[31e2917de18cd947063b84aa2c6f9552]
class command_line_parser--><g id="elem_command_line_parser"><rect codeLine="67" fill="#FFFACD" height="56.2656" id="command_line_parser" rx="2.5" ry="2.5" style="stroke:#181818;stroke-width:0.5;" width="303" x="559" y="169"/><ellipse cx="574" cy="189.1328" fill="#ADD1B2" rx="11" ry="11" style="stroke:#181818;stroke-width:1.0;"/><path d="M576.9688,194.7734 Q576.3906,195.0703 575.75,195.2188 Q575.1094,195.3672 574.4063,195.3672 Q571.9063,195.3672 570.5859,193.7188 Q569.2656,192.0703 569.2656,188.9453 Q569.2656,185.8203 570.5859,184.1641 Q571.9063,182.5078 574.4063,182.5078 Q575.1094,182.5078 575.7578,182.6641 Q576.4063,182.8203 576.9688,183.1172 L576.9688,185.8359 Q576.3438,185.2578 575.75,184.9844 Q575.1563,184.7109 574.5313,184.7109 Q573.1875,184.7109 572.5,185.7813 Q571.8125,186.8516 571.8125,188.9453 Q571.8125,191.0391 572.5,192.1094 Q573.1875,193.1797 574.5313,193.1797 Q575.1563,193.1797 575.75,192.9063 Q576.3438,192.6328 576.9688,192.0547 L576.9688,194.7734 Z " fill="#000000"/><text fill="#000000" font-family="sans-serif" font-size="12" font-style="italic" lengthAdjust="spacing" textLength="275" x="586" y="185.1387">«dogen::handcrafted::typeable::header_only»</text><text fill="#000000" font-family="sans-serif" font-size="14" lengthAdjust="spacing" textLength="158" x="644.5" y="200.9639">command_line_parser</text><line style="stroke:#181818;stroke-width:0.5;" x1="560" x2="861" y1="209.2656" y2="209.2656"/><line style="stroke:#181818;stroke-width:0.5;" x1="560" x2="861" y1="217.2656" y2="217.2656"/></g><!--MD5=[19d92d75b2be9a5f372e551632eaad56]
class parser_exception--><g id="elem_parser_exception"><rect codeLine="77" fill="#E8C2F8" height="56.2656" id="parser_exception" rx="2.5" ry="2.5" style="stroke:#181818;stroke-width:0.5;" width="155" x="922" y="322.5"/><ellipse cx="937" cy="342.6328" fill="#ADD1B2" rx="11" ry="11" style="stroke:#181818;stroke-width:1.0;"/><path d="M939.9688,348.2734 Q939.3906,348.5703 938.75,348.7188 Q938.1094,348.8672 937.4063,348.8672 Q934.9063,348.8672 933.5859,347.2188 Q932.2656,345.5703 932.2656,342.4453 Q932.2656,339.3203 933.5859,337.6641 Q934.9063,336.0078 937.4063,336.0078 Q938.1094,336.0078 938.7578,336.1641 Q939.4063,336.3203 939.9688,336.6172 L939.9688,339.3359 Q939.3438,338.7578 938.75,338.4844 Q938.1563,338.2109 937.5313,338.2109 Q936.1875,338.2109 935.5,339.2813 Q934.8125,340.3516 934.8125,342.4453 Q934.8125,344.5391 935.5,345.6094 Q936.1875,346.6797 937.5313,346.6797 Q938.1563,346.6797 938.75,346.4063 Q939.3438,346.1328 939.9688,345.5547 L939.9688,348.2734 Z " fill="#000000"/><text fill="#000000" font-family="sans-serif" font-size="12" font-style="italic" lengthAdjust="spacing" textLength="114" x="955.5" y="338.6387">«masd::exception»</text><text fill="#000000" font-family="sans-serif" font-size="14" lengthAdjust="spacing" textLength="123" x="951" y="354.4639">parser_exception</text><line style="stroke:#181818;stroke-width:0.5;" x1="923" x2="1076" y1="362.7656" y2="362.7656"/><line style="stroke:#181818;stroke-width:0.5;" x1="923" x2="1076" y1="370.7656" y2="370.7656"/></g><g id="elem_GMN33"><path d="M511.5,36.5 L511.5,61.6328 A0,0 0 0 0 511.5,61.6328 L706.5,61.6328 L710.5,168.79 L714.5,61.6328 L909.5,61.6328 A0,0 0 0 0 909.5,61.6328 L909.5,46.5 L899.5,36.5 L511.5,36.5 A0,0 0 0 0 511.5,36.5 " fill="#FEFFDD" style="stroke:#181818;stroke-width:0.5;"/><path d="M899.5,36.5 L899.5,46.5 L909.5,46.5 L899.5,36.5 " fill="#FEFFDD" style="stroke:#181818;stroke-width:0.5;"/><text fill="#000000" font-family="sans-serif" font-size="13" lengthAdjust="spacing" textLength="377" x="517.5" y="53.5669">Interface for a command-line parser of the dogen options.</text></g><g id="elem_GMN36"><path d="M897.5,184.5 L897.5,209.6328 A0,0 0 0 0 897.5,209.6328 L1054.48,209.6328 L1010.99,322.31 L1062.48,209.6328 L1229.5,209.6328 A0,0 0 0 0 1229.5,209.6328 L1229.5,194.5 L1219.5,184.5 L897.5,184.5 A0,0 0 0 0 897.5,184.5 " fill="#FEFFDD" style="stroke:#181818;stroke-width:0.5;"/><path d="M1219.5,184.5 L1219.5,194.5 L1229.5,194.5 L1219.5,184.5 " fill="#FEFFDD" style="stroke:#181818;stroke-width:0.5;"/><text fill="#000000" font-family="sans-serif" font-size="13" lengthAdjust="spacing" textLength="311" x="903.5" y="201.5669">A fatal error has occurred during option parsing.</text></g><!--MD5=[1700babc4216d044a93a74805c70996c]
class application--><g id="elem_application"><rect codeLine="84" fill="#FFFACD" height="56.2656" id="application" rx="2.5" ry="2.5" style="stroke:#181818;stroke-width:0.5;" width="222" x="2334.5" y="169"/><ellipse cx="2349.5" cy="189.1328" fill="#ADD1B2" rx="11" ry="11" style="stroke:#181818;stroke-width:1.0;"/><path d="M2352.4688,194.7734 Q2351.8906,195.0703 2351.25,195.2188 Q2350.6094,195.3672 2349.9063,195.3672 Q2347.4063,195.3672 2346.0859,193.7188 Q2344.7656,192.0703 2344.7656,188.9453 Q2344.7656,185.8203 2346.0859,184.1641 Q2347.4063,182.5078 2349.9063,182.5078 Q2350.6094,182.5078 2351.2578,182.6641 Q2351.9063,182.8203 2352.4688,183.1172 L2352.4688,185.8359 Q2351.8438,185.2578 2351.25,184.9844 Q2350.6563,184.7109 2350.0313,184.7109 Q2348.6875,184.7109 2348,185.7813 Q2347.3125,186.8516 2347.3125,188.9453 Q2347.3125,191.0391 2348,192.1094 Q2348.6875,193.1797 2350.0313,193.1797 Q2350.6563,193.1797 2351.25,192.9063 Q2351.8438,192.6328 2352.4688,192.0547 L2352.4688,194.7734 Z " fill="#000000"/><text fill="#000000" font-family="sans-serif" font-size="12" font-style="italic" lengthAdjust="spacing" textLength="194" x="2361.5" y="185.1387">«dogen::handcrafted::typeable»</text><text fill="#000000" font-family="sans-serif" font-size="14" lengthAdjust="spacing" textLength="79" x="2419" y="200.9639">application</text><line style="stroke:#181818;stroke-width:0.5;" x1="2335.5" x2="2555.5" y1="209.2656" y2="209.2656"/><line style="stroke:#181818;stroke-width:0.5;" x1="2335.5" x2="2555.5" y1="217.2656" y2="217.2656"/></g><!--MD5=[39e485302053a8075caa6c13ab91b957]
class application_exception--><g id="elem_application_exception"><rect codeLine="94" fill="#E8C2F8" height="56.2656" id="application_exception" rx="2.5" ry="2.5" style="stroke:#181818;stroke-width:0.5;" width="188" x="2614.5" y="322.5"/><ellipse cx="2629.5" cy="342.6328" fill="#ADD1B2" rx="11" ry="11" style="stroke:#181818;stroke-width:1.0;"/><path d="M2632.4688,348.2734 Q2631.8906,348.5703 2631.25,348.7188 Q2630.6094,348.8672 2629.9063,348.8672 Q2627.4063,348.8672 2626.0859,347.2188 Q2624.7656,345.5703 2624.7656,342.4453 Q2624.7656,339.3203 2626.0859,337.6641 Q2627.4063,336.0078 2629.9063,336.0078 Q2630.6094,336.0078 2631.2578,336.1641 Q2631.9063,336.3203 2632.4688,336.6172 L2632.4688,339.3359 Q2631.8438,338.7578 2631.25,338.4844 Q2630.6563,338.2109 2630.0313,338.2109 Q2628.6875,338.2109 2628,339.2813 Q2627.3125,340.3516 2627.3125,342.4453 Q2627.3125,344.5391 2628,345.6094 Q2628.6875,346.6797 2630.0313,346.6797 Q2630.6563,346.6797 2631.25,346.4063 Q2631.8438,346.1328 2632.4688,345.5547 L2632.4688,348.2734 Z " fill="#000000"/><text fill="#000000" font-family="sans-serif" font-size="12" font-style="italic" lengthAdjust="spacing" textLength="114" x="2664.5" y="338.6387">«masd::exception»</text><text fill="#000000" font-family="sans-serif" font-size="14" lengthAdjust="spacing" textLength="156" x="2643.5" y="354.4639">application_exception</text><line style="stroke:#181818;stroke-width:0.5;" x1="2615.5" x2="2801.5" y1="362.7656" y2="362.7656"/><line style="stroke:#181818;stroke-width:0.5;" x1="2615.5" x2="2801.5" y1="370.7656" y2="370.7656"/></g><g id="elem_GMN43"><path d="M2265.5,36.5 L2265.5,61.6328 A0,0 0 0 0 2265.5,61.6328 L2441.5,61.6328 L2445.5,168.79 L2449.5,61.6328 L2625.5,61.6328 A0,0 0 0 0 2625.5,61.6328 L2625.5,46.5 L2615.5,36.5 L2265.5,36.5 A0,0 0 0 0 2265.5,36.5 " fill="#FEFFDD" style="stroke:#181818;stroke-width:0.5;"/><path d="M2615.5,36.5 L2615.5,46.5 L2625.5,46.5 L2615.5,36.5 " fill="#FEFFDD" style="stroke:#181818;stroke-width:0.5;"/><text fill="#000000" font-family="sans-serif" font-size="13" lengthAdjust="spacing" textLength="339" x="2271.5" y="53.5669">Entry point for the dogen command line application.</text></g><g id="elem_GMN46"><path d="M2591.5,184.5 L2591.5,209.6328 A0,0 0 0 0 2591.5,209.6328 L2781.91,209.6328 L2723.58,322.31 L2789.91,209.6328 L2993.5,209.6328 A0,0 0 0 0 2993.5,209.6328 L2993.5,194.5 L2983.5,184.5 L2591.5,184.5 A0,0 0 0 0 2591.5,184.5 " fill="#FEFFDD" style="stroke:#181818;stroke-width:0.5;"/><path d="M2983.5,184.5 L2983.5,194.5 L2993.5,194.5 L2983.5,184.5 " fill="#FEFFDD" style="stroke:#181818;stroke-width:0.5;"/><text fill="#000000" font-family="sans-serif" font-size="13" lengthAdjust="spacing" textLength="381" x="2597.5" y="201.5669">A fatal error has occurred whilst executing the application.</text></g><!--MD5=[125701c02a148bb9f8af9b45c45251cb]
class program_options_parser--><g id="elem_program_options_parser"><rect codeLine="101" fill="#FFFACD" height="56.2656" id="program_options_parser" rx="2.5" ry="2.5" style="stroke:#181818;stroke-width:0.5;" width="222" x="599.5" y="322.5"/><ellipse cx="614.5" cy="342.6328" fill="#ADD1B2" rx="11" ry="11" style="stroke:#181818;stroke-width:1.0;"/><path d="M617.4688,348.2734 Q616.8906,348.5703 616.25,348.7188 Q615.6094,348.8672 614.9063,348.8672 Q612.4063,348.8672 611.0859,347.2188 Q609.7656,345.5703 609.7656,342.4453 Q609.7656,339.3203 611.0859,337.6641 Q612.4063,336.0078 614.9063,336.0078 Q615.6094,336.0078 616.2578,336.1641 Q616.9063,336.3203 617.4688,336.6172 L617.4688,339.3359 Q616.8438,338.7578 616.25,338.4844 Q615.6563,338.2109 615.0313,338.2109 Q613.6875,338.2109 613,339.2813 Q612.3125,340.3516 612.3125,342.4453 Q612.3125,344.5391 613,345.6094 Q613.6875,346.6797 615.0313,346.6797 Q615.6563,346.6797 616.25,346.4063 Q616.8438,346.1328 617.4688,345.5547 L617.4688,348.2734 Z " fill="#000000"/><text fill="#000000" font-family="sans-serif" font-size="12" font-style="italic" lengthAdjust="spacing" textLength="194" x="626.5" y="338.6387">«dogen::handcrafted::typeable»</text><text fill="#000000" font-family="sans-serif" font-size="14" lengthAdjust="spacing" textLength="174" x="636.5" y="354.4639">program_options_parser</text><line style="stroke:#181818;stroke-width:0.5;" x1="600.5" x2="820.5" y1="362.7656" y2="362.7656"/><line style="stroke:#181818;stroke-width:0.5;" x1="600.5" x2="820.5" y1="370.7656" y2="370.7656"/></g><g id="elem_GMN51"><path d="M59.5,184.5 L59.5,209.6328 L523.5,209.6328 L523.5,194.5 L513.5,184.5 L59.5,184.5 " fill="#FEFFDD" style="stroke:#181818;stroke-width:0.5;"/><path d="M513.5,184.5 L513.5,194.5 L523.5,194.5 L513.5,184.5 " fill="#FEFFDD" style="stroke:#181818;stroke-width:1.0;"/><text fill="#000000" font-family="sans-serif" font-size="13" lengthAdjust="spacing" textLength="443" x="65.5" y="201.5669">Command-line parser implementation using boost program options.</text></g><!--MD5=[d54e5852ecfe164bbba509d3a9352ed8]
class initializer--><g id="elem_initializer"><rect codeLine="109" fill="#FFFACD" height="56.2656" id="initializer" rx="2.5" ry="2.5" style="stroke:#181818;stroke-width:0.5;" width="222" x="2006.5" y="169"/><ellipse cx="2021.5" cy="189.1328" fill="#ADD1B2" rx="11" ry="11" style="stroke:#181818;stroke-width:1.0;"/><path d="M2024.4688,194.7734 Q2023.8906,195.0703 2023.25,195.2188 Q2022.6094,195.3672 2021.9063,195.3672 Q2019.4063,195.3672 2018.0859,193.7188 Q2016.7656,192.0703 2016.7656,188.9453 Q2016.7656,185.8203 2018.0859,184.1641 Q2019.4063,182.5078 2021.9063,182.5078 Q2022.6094,182.5078 2023.2578,182.6641 Q2023.9063,182.8203 2024.4688,183.1172 L2024.4688,185.8359 Q2023.8438,185.2578 2023.25,184.9844 Q2022.6563,184.7109 2022.0313,184.7109 Q2020.6875,184.7109 2020,185.7813 Q2019.3125,186.8516 2019.3125,188.9453 Q2019.3125,191.0391 2020,192.1094 Q2020.6875,193.1797 2022.0313,193.1797 Q2022.6563,193.1797 2023.25,192.9063 Q2023.8438,192.6328 2024.4688,192.0547 L2024.4688,194.7734 Z " fill="#000000"/><text fill="#000000" font-family="sans-serif" font-size="12" font-style="italic" lengthAdjust="spacing" textLength="194" x="2033.5" y="185.1387">«dogen::handcrafted::typeable»</text><text fill="#000000" font-family="sans-serif" font-size="14" lengthAdjust="spacing" textLength="65" x="2098" y="200.9639">initializer</text><line style="stroke:#181818;stroke-width:0.5;" x1="2007.5" x2="2227.5" y1="209.2656" y2="209.2656"/><line style="stroke:#181818;stroke-width:0.5;" x1="2007.5" x2="2227.5" y1="217.2656" y2="217.2656"/></g><!--MD5=[4520fda4e10d4d791ce48fe025810cd4]
class main--><g id="elem_main"><rect codeLine="112" fill="#DDA9F3" height="56.2656" id="main" rx="2.5" ry="2.5" style="stroke:#181818;stroke-width:0.5;" width="152" x="2059.5" y="21"/><ellipse cx="2074.5" cy="41.1328" fill="#ADD1B2" rx="11" ry="11" style="stroke:#181818;stroke-width:1.0;"/><path d="M2077.4688,46.7734 Q2076.8906,47.0703 2076.25,47.2188 Q2075.6094,47.3672 2074.9063,47.3672 Q2072.4063,47.3672 2071.0859,45.7188 Q2069.7656,44.0703 2069.7656,40.9453 Q2069.7656,37.8203 2071.0859,36.1641 Q2072.4063,34.5078 2074.9063,34.5078 Q2075.6094,34.5078 2076.2578,34.6641 Q2076.9063,34.8203 2077.4688,35.1172 L2077.4688,37.8359 Q2076.8438,37.2578 2076.25,36.9844 Q2075.6563,36.7109 2075.0313,36.7109 Q2073.6875,36.7109 2073,37.7813 Q2072.3125,38.8516 2072.3125,40.9453 Q2072.3125,43.0391 2073,44.1094 Q2073.6875,45.1797 2075.0313,45.1797 Q2075.6563,45.1797 2076.25,44.9063 Q2076.8438,44.6328 2077.4688,44.0547 L2077.4688,46.7734 Z " fill="#000000"/><text fill="#000000" font-family="sans-serif" font-size="12" font-style="italic" lengthAdjust="spacing" textLength="124" x="2086.5" y="37.1387">«masd::entry_point»</text><text fill="#000000" font-family="sans-serif" font-size="14" lengthAdjust="spacing" textLength="36" x="2130.5" y="52.9639">main</text><line style="stroke:#181818;stroke-width:0.5;" x1="2060.5" x2="2210.5" y1="61.2656" y2="61.2656"/><line style="stroke:#181818;stroke-width:0.5;" x1="2060.5" x2="2210.5" y1="69.2656" y2="69.2656"/></g><!--MD5=[ba83386d426114557685538e96aa6f68]
class CMakeLists--><g id="elem_CMakeLists"><rect codeLine="120" fill="#99CB99" height="56.2656" id="CMakeLists" rx="2.5" ry="2.5" style="stroke:#181818;stroke-width:0.5;" width="360" x="2660.5" y="21"/><ellipse cx="2675.5" cy="41.1328" fill="#ADD1B2" rx="11" ry="11" style="stroke:#181818;stroke-width:1.0;"/><path d="M2678.4688,46.7734 Q2677.8906,47.0703 2677.25,47.2188 Q2676.6094,47.3672 2675.9063,47.3672 Q2673.4063,47.3672 2672.0859,45.7188 Q2670.7656,44.0703 2670.7656,40.9453 Q2670.7656,37.8203 2672.0859,36.1641 Q2673.4063,34.5078 2675.9063,34.5078 Q2676.6094,34.5078 2677.2578,34.6641 Q2677.9063,34.8203 2678.4688,35.1172 L2678.4688,37.8359 Q2677.8438,37.2578 2677.25,36.9844 Q2676.6563,36.7109 2676.0313,36.7109 Q2674.6875,36.7109 2674,37.7813 Q2673.3125,38.8516 2673.3125,40.9453 Q2673.3125,43.0391 2674,44.1094 Q2674.6875,45.1797 2676.0313,45.1797 Q2676.6563,45.1797 2677.25,44.9063 Q2677.8438,44.6328 2678.4688,44.0547 L2678.4688,46.7734 Z " fill="#000000"/><text fill="#000000" font-family="sans-serif" font-size="12" font-style="italic" lengthAdjust="spacing" textLength="332" x="2687.5" y="37.1387">«masd::build::cmakelists, dogen::handcrafted::cmake»</text><text fill="#000000" font-family="sans-serif" font-size="14" lengthAdjust="spacing" textLength="79" x="2814" y="52.9639">CMakeLists</text><line style="stroke:#181818;stroke-width:0.5;" x1="2661.5" x2="3019.5" y1="61.2656" y2="61.2656"/><line style="stroke:#181818;stroke-width:0.5;" x1="2661.5" x2="3019.5" y1="69.2656" y2="69.2656"/></g><!--MD5=[ba180580ad95d230c2879bb9fe41a1f4]
reverse link configuration to cli_configuration--><g id="link_configuration_cli_configuration"><path codeLine="16" d="M1336.35,393.45 C1218.95,414.12 1077.48,439.04 958.86,459.93 " fill="none" id="configuration-backto-cli_configuration" style="stroke:#181818;stroke-width:1.0;"/><polygon fill="none" points="1349.45,391.14,1342.8465,388.2427,1337.6323,393.2239,1344.2358,396.1212,1349.45,391.14" style="stroke:#181818;stroke-width:1.0;"/></g><!--MD5=[e9fc7eca6be093608683b116130c31f3]
reverse link cli_configuration to generation_configuration--><g id="link_cli_configuration_generation_configuration"><path codeLine="27" d="M629.04,556.14 C601.05,573.33 569.75,592.56 541.63,609.83 " fill="none" id="cli_configuration-backto-generation_configuration" style="stroke:#181818;stroke-width:1.0;"/><polygon fill="none" points="640.41,549.16,633.2039,548.8917,630.1847,555.4403,637.3908,555.7086,640.41,549.16" style="stroke:#181818;stroke-width:1.0;"/></g><!--MD5=[eebc28fa6e674da571482d90a01a47f1]
reverse link cli_configuration to conversion_configuration--><g id="link_cli_configuration_conversion_configuration"><path codeLine="28" d="M786.52,556.61 C815.58,576.4 848.5,598.83 876.42,617.85 " fill="none" id="cli_configuration-backto-conversion_configuration" style="stroke:#181818;stroke-width:1.0;"/><polygon fill="none" points="775.59,549.16,778.2984,555.8431,785.5092,555.9135,782.8008,549.2303,775.59,549.16" style="stroke:#181818;stroke-width:1.0;"/></g><!--MD5=[b347f0c37e4f4d7b1ecf77cc0946974c]
reverse link cli_configuration to dumpspecs_configuration--><g id="link_cli_configuration_dumpspecs_configuration"><path codeLine="29" d="M918.95,551.93 C1044.5,580.03 1199.44,614.71 1300.95,637.43 " fill="none" id="cli_configuration-backto-dumpspecs_configuration" style="stroke:#181818;stroke-width:1.0;"/><polygon fill="none" points="906.12,549.06,911.1001,554.2752,917.8296,551.6841,912.8495,546.4689,906.12,549.06" style="stroke:#181818;stroke-width:1.0;"/></g><!--MD5=[0c87b401cfba6408e33fd1b53bf61973]
reverse link configuration_validator to configuration--><g id="link_configuration_validator_configuration"><path codeLine="65" d="M1421.71,233.18 C1448.53,253.6 1482.67,279.59 1511.87,301.82 " fill="none" id="configuration_validator-backto-configuration" style="stroke:#181818;stroke-width:1.0;"/><polygon fill="none" points="1411.08,225.09,1413.4261,231.9088,1420.6228,232.3657,1418.2766,225.5469,1411.08,225.09" style="stroke:#181818;stroke-width:1.0;"/><text fill="#000000" font-family="sans-serif" font-size="13" lengthAdjust="spacing" textLength="60" x="1470.5" y="268.0669">validates</text></g><!--MD5=[8314b5e79e25c192b7c4dfc422677a8d]
reverse link command_line_parser to parser_exception--><g id="link_command_line_parser_parser_exception"><path codeLine="70" d="M773.96,231.27 C826.13,258.62 899.13,296.88 947.79,322.39 " fill="none" id="command_line_parser-backto-parser_exception" style="stroke:#181818;stroke-width:1.0;"/><polygon fill="none" points="762.17,225.09,765.6301,231.4167,772.801,230.6561,769.3409,224.3294,762.17,225.09" style="stroke:#181818;stroke-width:1.0;"/><text fill="#000000" font-family="sans-serif" font-size="13" lengthAdjust="spacing" textLength="44" x="847.5" y="268.0669">throws</text></g><!--MD5=[3efc224ec550cb13d49255403d212b8a]
reverse link command_line_parser to configuration--><g id="link_command_line_parser_configuration"><path codeLine="71" d="M875.31,226.9 C1009.71,250.47 1200.94,284 1349.45,310.04 " fill="none" id="command_line_parser-backto-configuration" style="stroke:#181818;stroke-width:1.0;"/><polygon fill="none" points="862.48,224.65,867.7005,229.6245,874.3003,226.7189,869.0798,221.7443,862.48,224.65" style="stroke:#181818;stroke-width:1.0;"/><text fill="#000000" font-family="sans-serif" font-size="13" lengthAdjust="spacing" textLength="48" x="1118.5" y="268.0669">creates</text></g><!--MD5=[c57371ade1975b1b1e6a0123b2385174]
reverse link application to application_exception--><g id="link_application_application_exception"><path codeLine="87" d="M2503.85,231.61 C2551.29,258.94 2617.35,296.99 2661.45,322.39 " fill="none" id="application-backto-application_exception" style="stroke:#181818;stroke-width:1.0;"/><polygon fill="none" points="2492.52,225.09,2495.7256,231.5494,2502.921,231.0749,2499.7155,224.6154,2492.52,225.09" style="stroke:#181818;stroke-width:1.0;"/><text fill="#000000" font-family="sans-serif" font-size="13" lengthAdjust="spacing" textLength="44" x="2569.5" y="268.0669">throws</text></g><!--MD5=[3d259779bcc0e554f60688e03f565a28]
reverse link application to configuration--><g id="link_application_configuration"><path codeLine="88" d="M2393.66,231.98 C2368.63,246.74 2337.55,262.74 2307.5,272 C2215.7,300.27 1979.49,322.04 1799.82,335.21 " fill="none" id="application-backto-configuration" style="stroke:#181818;stroke-width:1.0;"/><polygon fill="none" points="2405.07,225.09,2397.8662,224.7647,2394.7952,231.2891,2401.999,231.6145,2405.07,225.09" style="stroke:#181818;stroke-width:1.0;"/><text fill="#000000" font-family="sans-serif" font-size="13" lengthAdjust="spacing" textLength="89" x="2347.5" y="268.0669">configured by</text></g><!--MD5=[397d303c4aab79a49b7a62974140bade]
reverse link command_line_parser to program_options_parser--><g id="link_command_line_parser_program_options_parser"><path codeLine="104" d="M710.5,245.33 C710.5,270.69 710.5,301.02 710.5,322.39 " fill="none" id="command_line_parser-backto-program_options_parser" style="stroke:#181818;stroke-width:1.0;"/><polygon fill="none" points="703.5,245.09,710.5,225.09,717.5,245.09,703.5,245.09" style="stroke:#181818;stroke-width:1.0;"/></g><!--MD5=[871e2f35e636990e808f4d1797562388]
link GMN51 to program_options_parser--><g id="link_GMN51_program_options_parser"><path d="M324.28,209.57 C378.2,228.63 488.99,267.94 582.5,302 C600.54,308.57 619.98,315.74 638.12,322.47 " fill="none" id="GMN51-program_options_parser" style="stroke:#181818;stroke-width:1.0;stroke-dasharray:7.0,7.0;"/></g><!--MD5=[c3b4718077245bf6e14e29a01b633966]
reverse link main to command_line_parser--><g id="link_main_command_line_parser"><path codeLine="115" d="M2046.1,56.49 C1839.97,71.9 1315.63,113.56 879.5,169 C873.9,169.71 868.2,170.47 862.45,171.25 " fill="none" id="main-backto-command_line_parser" style="stroke:#181818;stroke-width:1.0;"/><polygon fill="none" points="2059.21,55.52,2052.9316,51.9729,2047.2426,56.404,2053.521,59.9511,2059.21,55.52" style="stroke:#181818;stroke-width:1.0;"/><text fill="#000000" font-family="sans-serif" font-size="13" lengthAdjust="spacing" textLength="165" x="1294.5" y="135.0669">reads configuration using</text></g><!--MD5=[05637945eff6c7245241be2128f91b3c]
reverse link main to initializer--><g id="link_main_initializer"><path codeLine="116" d="M2130.54,90.2 C2127.47,115.1 2123.61,146.44 2120.89,168.53 " fill="none" id="main-backto-initializer" style="stroke:#181818;stroke-width:1.0;"/><polygon fill="none" points="2132.16,77.12,2127.4519,82.582,2130.6829,89.0287,2135.3911,83.5667,2132.16,77.12" style="stroke:#181818;stroke-width:1.0;"/></g><!--MD5=[6a6fc54b18b977ab93e1f1216de448e8]
reverse link main to application--><g id="link_main_application"><path codeLine="117" d="M2216.54,82.06 C2245.51,94 2278.22,108.06 2307.5,122 C2338.06,136.55 2371.53,154.45 2397.86,169 " fill="none" id="main-backto-application" style="stroke:#181818;stroke-width:1.0;"/><polygon fill="none" points="2204.38,77.07,2208.4154,83.0462,2215.484,81.6198,2211.4486,75.6435,2204.38,77.07" style="stroke:#181818;stroke-width:1.0;"/><text fill="#000000" font-family="sans-serif" font-size="13" lengthAdjust="spacing" textLength="59" x="2338.5" y="135.0669">executes</text></g><!--MD5=[846bb8832f2ef22fb393f99041e3fafe]
reverse link main to configuration--><g id="link_main_configuration"><path codeLine="118" d="M2184.23,85.45 C2228.82,122.17 2282.64,180.33 2245.5,225 C2189.21,292.7 1972.11,323.75 1799.9,337.9 " fill="none" id="main-backto-configuration" style="stroke:#181818;stroke-width:1.0;"/><polygon fill="none" points="2174.02,77.28,2176.2053,84.152,2183.3891,84.7779,2181.2039,77.9059,2174.02,77.28" style="stroke:#181818;stroke-width:1.0;"/></g><!--MD5=[89b5c408c2e98c595611dc911cf35482]
@startuml
set namespaceSeparator ::
note as N1
Implements the command-line interface for Dogen.

UML representation:

\image html dogen.cli/modeling/dogen.cli.svg
end note

class configuration #F7E5FF {
    +{field} logging boost::optional<utility::log::logging_configuration>
    +{field} api dogen::configuration
    +{field} cli cli_configuration
}

configuration o- - cli_configuration

note top of  configuration
    All of the configuration required by the command line application.
end note

class cli_configuration <<masd::fluent>> #F7E5FF {
    +{field} activity boost::variant<generation_configuration, conversion_configuration, dumpspecs_configuration>
    +{field} byproduct_directory boost::filesystem::path
}

cli_configuration o- - generation_configuration
cli_configuration o- - conversion_configuration
cli_configuration o- - dumpspecs_configuration

note top of  cli_configuration
    Configuration specific to the CLI application.
end note

class generation_configuration <<masd::fluent>> #F7E5FF {
    +{field} reference_model_directories std::vector<boost::filesystem::path>
    +{field} target boost::filesystem::path
    +{field} output_directory boost::filesystem::path
}

note top of  generation_configuration
    Configuration related to code generation.
end note

class conversion_configuration <<masd::fluent>> #F7E5FF {
    +{field} source boost::filesystem::path
    +{field} destination std::string
}

note top of  conversion_configuration
    Configuration for the model conversion.
end note

class dumpspecs_configuration <<masd::fluent>> #F7E5FF {
    +{field} style reporting_style
}

note top of  dumpspecs_configuration
    Dumps all the specs about this version of dogen.
end note

class configuration_validator <<dogen::handcrafted::typeable>> #FFFACD {
}

configuration_validator o- - configuration: validates

class command_line_parser <<dogen::handcrafted::typeable::header_only>> #FFFACD {
}

command_line_parser o- - parser_exception: throws
command_line_parser o- - configuration: creates

note top of  command_line_parser
    Interface for a command-line parser of the dogen options.
end note

class parser_exception <<masd::exception>> #E8C2F8 {
}

note top of  parser_exception
    A fatal error has occurred during option parsing.
end note

class application <<dogen::handcrafted::typeable>> #FFFACD {
}

application o- - application_exception: throws
application o- - configuration: configured by

note top of  application
    Entry point for the dogen command line application.
end note

class application_exception <<masd::exception>> #E8C2F8 {
}

note top of  application_exception
    A fatal error has occurred whilst executing the application.
end note

class program_options_parser <<dogen::handcrafted::typeable>> #FFFACD {
}

command_line_parser <|- - program_options_parser
note top of  program_options_parser
    Command-line parser implementation using boost program options.
end note

class initializer <<dogen::handcrafted::typeable>> #FFFACD {
}

class main <<masd::entry_point>> #DDA9F3 {
}

main o- - command_line_parser: reads configuration using
main o- - initializer
main o- - application: executes
main o- - configuration

class CMakeLists <<masd::build::cmakelists, dogen::handcrafted::cmake>> #99CB99 {
}

@enduml

PlantUML version 1.2022.3(Tue Mar 29 17:10:57 BST 2022)
(GPL source distribution)
Java Runtime: OpenJDK Runtime Environment
JVM: OpenJDK 64-Bit Server VM
Default Encoding: UTF-8
Language: en
Country: GB
--></g></svg>