<?xml version="1.0" encoding="UTF-8" standalone="no"?><svg xmlns="http://www.w3.org/2000/svg" xmlns:xlink="http://www.w3.org/1999/xlink" contentScriptType="application/ecmascript" contentStyleType="text/css" height="257px" preserveAspectRatio="none" style="width:4088px;height:257px;" version="1.1" viewBox="0 0 4088 257" width="4088px" zoomAndPan="magnify"><defs><filter height="300%" id="f143mctliu6s9t" width="300%" x="-1" y="-1"><feGaussianBlur result="blurOut" stdDeviation="2.0"/><feColorMatrix in="blurOut" result="blurOut2" type="matrix" values="0 0 0 0 0 0 0 0 0 0 0 0 0 0 0 0 0 0 .4 0"/><feOffset dx="4.0" dy="4.0" in="blurOut2" result="blurOut3"/><feBlend in="SourceGraphic" in2="blurOut3" mode="normal"/></filter></defs><g><path d="M6,8 L6,93.6641 L355,93.6641 L355,18 L345,8 L6,8 " fill="#FBFB77" filter="url(#f143mctliu6s9t)" style="stroke: #A80036; stroke-width: 1.0;"/><path d="M345,8 L345,18 L355,18 L345,8 " fill="#FBFB77" style="stroke: #A80036; stroke-width: 1.0;"/><text fill="#000000" font-family="sans-serif" font-size="13" lengthAdjust="spacingAndGlyphs" textLength="328" x="12" y="25.0669">Implements the command-line interface for Dogen.</text><text fill="#000000" font-family="sans-serif" font-size="13" lengthAdjust="spacingAndGlyphs" textLength="0" x="16" y="40.1997"/><text fill="#000000" font-family="sans-serif" font-size="13" lengthAdjust="spacingAndGlyphs" textLength="130" x="12" y="55.3325">UML representation:</text><text fill="#000000" font-family="sans-serif" font-size="13" lengthAdjust="spacingAndGlyphs" textLength="0" x="16" y="70.4653"/><text fill="#000000" font-family="sans-serif" font-size="13" lengthAdjust="spacingAndGlyphs" textLength="288" x="12" y="85.5981">\image html dogen.cli/modeling/dogen.cli.svg</text><!--MD5=[19d92d75b2be9a5f372e551632eaad56]
class parser_exception--><rect fill="#E8C2F8" filter="url(#f143mctliu6s9t)" height="53.9375" id="parser_exception" style="stroke: #A80036; stroke-width: 1.5;" width="145" x="1012" y="173"/><rect fill="#E8C2F8" height="37.9375" style="stroke: #A80036; stroke-width: 1.5;" width="145" x="1012" y="173"/><ellipse cx="1027" cy="191.9688" fill="#ADD1B2" rx="11" ry="11" style="stroke: #A80036; stroke-width: 1.0;"/><path d="M1029.9688,197.6094 Q1029.3906,197.9063 1028.75,198.0547 Q1028.1094,198.2031 1027.4063,198.2031 Q1024.9063,198.2031 1023.5859,196.5547 Q1022.2656,194.9063 1022.2656,191.7813 Q1022.2656,188.6563 1023.5859,187 Q1024.9063,185.3438 1027.4063,185.3438 Q1028.1094,185.3438 1028.7578,185.5 Q1029.4063,185.6563 1029.9688,185.9531 L1029.9688,188.6719 Q1029.3438,188.0938 1028.75,187.8203 Q1028.1563,187.5469 1027.5313,187.5469 Q1026.1875,187.5469 1025.5,188.6172 Q1024.8125,189.6875 1024.8125,191.7813 Q1024.8125,193.875 1025.5,194.9453 Q1026.1875,196.0156 1027.5313,196.0156 Q1028.1563,196.0156 1028.75,195.7422 Q1029.3438,195.4688 1029.9688,194.8906 L1029.9688,197.6094 Z "/><text fill="#000000" font-family="sans-serif" font-size="12" font-style="italic" lengthAdjust="spacingAndGlyphs" textLength="117" x="1039" y="189.1387">«masd::exception»</text><text fill="#000000" font-family="sans-serif" font-size="12" lengthAdjust="spacingAndGlyphs" textLength="108" x="1043.5" y="203.1074">parser_exception</text><line style="stroke: #A80036; stroke-width: 1.5;" x1="1013" x2="1156" y1="210.9375" y2="210.9375"/><line style="stroke: #A80036; stroke-width: 1.5;" x1="1013" x2="1156" y1="218.9375" y2="218.9375"/><path d="M921,38.5 L921,63.6328 A0,0 0 0 0 921,63.6328 L1080.5,63.6328 L1084.5,172.9 L1088.5,63.6328 L1248,63.6328 A0,0 0 0 0 1248,63.6328 L1248,48.5 L1238,38.5 L921,38.5 A0,0 0 0 0 921,38.5 " fill="#FBFB77" filter="url(#f143mctliu6s9t)" style="stroke: #A80036; stroke-width: 1.0;"/><path d="M1238,38.5 L1238,48.5 L1248,48.5 L1238,38.5 " fill="#FBFB77" style="stroke: #A80036; stroke-width: 1.0;"/><text fill="#000000" font-family="sans-serif" font-size="13" lengthAdjust="spacingAndGlyphs" textLength="306" x="927" y="55.5669">A fatal error has occurred during option parsing.</text><!--MD5=[1700babc4216d044a93a74805c70996c]
class application--><rect fill="#FFFACD" filter="url(#f143mctliu6s9t)" height="53.9375" id="application" style="stroke: #A80036; stroke-width: 1.5;" width="230" x="390.5" y="24"/><rect fill="#FFFACD" height="37.9375" style="stroke: #A80036; stroke-width: 1.5;" width="230" x="390.5" y="24"/><ellipse cx="405.5" cy="42.9688" fill="#ADD1B2" rx="11" ry="11" style="stroke: #A80036; stroke-width: 1.0;"/><path d="M408.4688,48.6094 Q407.8906,48.9063 407.25,49.0547 Q406.6094,49.2031 405.9063,49.2031 Q403.4063,49.2031 402.0859,47.5547 Q400.7656,45.9063 400.7656,42.7813 Q400.7656,39.6563 402.0859,38 Q403.4063,36.3438 405.9063,36.3438 Q406.6094,36.3438 407.2578,36.5 Q407.9063,36.6563 408.4688,36.9531 L408.4688,39.6719 Q407.8438,39.0938 407.25,38.8203 Q406.6563,38.5469 406.0313,38.5469 Q404.6875,38.5469 404,39.6172 Q403.3125,40.6875 403.3125,42.7813 Q403.3125,44.875 404,45.9453 Q404.6875,47.0156 406.0313,47.0156 Q406.6563,47.0156 407.25,46.7422 Q407.8438,46.4688 408.4688,45.8906 L408.4688,48.6094 Z "/><text fill="#000000" font-family="sans-serif" font-size="12" font-style="italic" lengthAdjust="spacingAndGlyphs" textLength="202" x="417.5" y="40.1387">«dogen::handcrafted::typeable»</text><text fill="#000000" font-family="sans-serif" font-size="12" lengthAdjust="spacingAndGlyphs" textLength="69" x="484" y="54.1074">application</text><line style="stroke: #A80036; stroke-width: 1.5;" x1="391.5" x2="619.5" y1="61.9375" y2="61.9375"/><line style="stroke: #A80036; stroke-width: 1.5;" x1="391.5" x2="619.5" y1="69.9375" y2="69.9375"/><!--MD5=[31e2917de18cd947063b84aa2c6f9552]
class command_line_parser--><rect fill="#FFFACD" filter="url(#f143mctliu6s9t)" height="53.9375" id="command_line_parser" style="stroke: #A80036; stroke-width: 1.5;" width="315" x="1283" y="24"/><rect fill="#FFFACD" height="37.9375" style="stroke: #A80036; stroke-width: 1.5;" width="315" x="1283" y="24"/><ellipse cx="1298" cy="42.9688" fill="#ADD1B2" rx="11" ry="11" style="stroke: #A80036; stroke-width: 1.0;"/><path d="M1300.9688,48.6094 Q1300.3906,48.9063 1299.75,49.0547 Q1299.1094,49.2031 1298.4063,49.2031 Q1295.9063,49.2031 1294.5859,47.5547 Q1293.2656,45.9063 1293.2656,42.7813 Q1293.2656,39.6563 1294.5859,38 Q1295.9063,36.3438 1298.4063,36.3438 Q1299.1094,36.3438 1299.7578,36.5 Q1300.4063,36.6563 1300.9688,36.9531 L1300.9688,39.6719 Q1300.3438,39.0938 1299.75,38.8203 Q1299.1563,38.5469 1298.5313,38.5469 Q1297.1875,38.5469 1296.5,39.6172 Q1295.8125,40.6875 1295.8125,42.7813 Q1295.8125,44.875 1296.5,45.9453 Q1297.1875,47.0156 1298.5313,47.0156 Q1299.1563,47.0156 1299.75,46.7422 Q1300.3438,46.4688 1300.9688,45.8906 L1300.9688,48.6094 Z "/><text fill="#000000" font-family="sans-serif" font-size="12" font-style="italic" lengthAdjust="spacingAndGlyphs" textLength="287" x="1310" y="40.1387">«dogen::handcrafted::typeable::header_only»</text><text fill="#000000" font-family="sans-serif" font-size="12" lengthAdjust="spacingAndGlyphs" textLength="136" x="1385.5" y="54.1074">command_line_parser</text><line style="stroke: #A80036; stroke-width: 1.5;" x1="1284" x2="1597" y1="61.9375" y2="61.9375"/><line style="stroke: #A80036; stroke-width: 1.5;" x1="1284" x2="1597" y1="69.9375" y2="69.9375"/><!--MD5=[125701c02a148bb9f8af9b45c45251cb]
class program_options_parser--><rect fill="#FFFACD" filter="url(#f143mctliu6s9t)" height="53.9375" id="program_options_parser" style="stroke: #A80036; stroke-width: 1.5;" width="230" x="1325.5" y="173"/><rect fill="#FFFACD" height="37.9375" style="stroke: #A80036; stroke-width: 1.5;" width="230" x="1325.5" y="173"/><ellipse cx="1340.5" cy="191.9688" fill="#ADD1B2" rx="11" ry="11" style="stroke: #A80036; stroke-width: 1.0;"/><path d="M1343.4688,197.6094 Q1342.8906,197.9063 1342.25,198.0547 Q1341.6094,198.2031 1340.9063,198.2031 Q1338.4063,198.2031 1337.0859,196.5547 Q1335.7656,194.9063 1335.7656,191.7813 Q1335.7656,188.6563 1337.0859,187 Q1338.4063,185.3438 1340.9063,185.3438 Q1341.6094,185.3438 1342.2578,185.5 Q1342.9063,185.6563 1343.4688,185.9531 L1343.4688,188.6719 Q1342.8438,188.0938 1342.25,187.8203 Q1341.6563,187.5469 1341.0313,187.5469 Q1339.6875,187.5469 1339,188.6172 Q1338.3125,189.6875 1338.3125,191.7813 Q1338.3125,193.875 1339,194.9453 Q1339.6875,196.0156 1341.0313,196.0156 Q1341.6563,196.0156 1342.25,195.7422 Q1342.8438,195.4688 1343.4688,194.8906 L1343.4688,197.6094 Z "/><text fill="#000000" font-family="sans-serif" font-size="12" font-style="italic" lengthAdjust="spacingAndGlyphs" textLength="202" x="1352.5" y="189.1387">«dogen::handcrafted::typeable»</text><text fill="#000000" font-family="sans-serif" font-size="12" lengthAdjust="spacingAndGlyphs" textLength="153" x="1377" y="203.1074">program_options_parser</text><line style="stroke: #A80036; stroke-width: 1.5;" x1="1326.5" x2="1554.5" y1="210.9375" y2="210.9375"/><line style="stroke: #A80036; stroke-width: 1.5;" x1="1326.5" x2="1554.5" y1="218.9375" y2="218.9375"/><!--MD5=[39e485302053a8075caa6c13ab91b957]
class application_exception--><rect fill="#E8C2F8" filter="url(#f143mctliu6s9t)" height="53.9375" id="application_exception" style="stroke: #A80036; stroke-width: 1.5;" width="168" x="1744.5" y="173"/><rect fill="#E8C2F8" height="37.9375" style="stroke: #A80036; stroke-width: 1.5;" width="168" x="1744.5" y="173"/><ellipse cx="1759.5" cy="191.9688" fill="#ADD1B2" rx="11" ry="11" style="stroke: #A80036; stroke-width: 1.0;"/><path d="M1762.4688,197.6094 Q1761.8906,197.9063 1761.25,198.0547 Q1760.6094,198.2031 1759.9063,198.2031 Q1757.4063,198.2031 1756.0859,196.5547 Q1754.7656,194.9063 1754.7656,191.7813 Q1754.7656,188.6563 1756.0859,187 Q1757.4063,185.3438 1759.9063,185.3438 Q1760.6094,185.3438 1761.2578,185.5 Q1761.9063,185.6563 1762.4688,185.9531 L1762.4688,188.6719 Q1761.8438,188.0938 1761.25,187.8203 Q1760.6563,187.5469 1760.0313,187.5469 Q1758.6875,187.5469 1758,188.6172 Q1757.3125,189.6875 1757.3125,191.7813 Q1757.3125,193.875 1758,194.9453 Q1758.6875,196.0156 1760.0313,196.0156 Q1760.6563,196.0156 1761.25,195.7422 Q1761.8438,195.4688 1762.4688,194.8906 L1762.4688,197.6094 Z "/><text fill="#000000" font-family="sans-serif" font-size="12" font-style="italic" lengthAdjust="spacingAndGlyphs" textLength="117" x="1783" y="189.1387">«masd::exception»</text><text fill="#000000" font-family="sans-serif" font-size="12" lengthAdjust="spacingAndGlyphs" textLength="136" x="1773.5" y="203.1074">application_exception</text><line style="stroke: #A80036; stroke-width: 1.5;" x1="1745.5" x2="1911.5" y1="210.9375" y2="210.9375"/><line style="stroke: #A80036; stroke-width: 1.5;" x1="1745.5" x2="1911.5" y1="218.9375" y2="218.9375"/><path d="M1633,38.5 L1633,63.6328 A0,0 0 0 0 1633,63.6328 L1824.5,63.6328 L1828.5,172.9 L1832.5,63.6328 L2024,63.6328 A0,0 0 0 0 2024,63.6328 L2024,48.5 L2014,38.5 L1633,38.5 A0,0 0 0 0 1633,38.5 " fill="#FBFB77" filter="url(#f143mctliu6s9t)" style="stroke: #A80036; stroke-width: 1.0;"/><path d="M2014,38.5 L2014,48.5 L2024,48.5 L2014,38.5 " fill="#FBFB77" style="stroke: #A80036; stroke-width: 1.0;"/><text fill="#000000" font-family="sans-serif" font-size="13" lengthAdjust="spacingAndGlyphs" textLength="370" x="1639" y="55.5669">A fatal error has occurred whilst executing the application.</text><!--MD5=[5bbd3befcf1686b7fd148cc582657d1c]
class configuration--><rect fill="#F7E5FF" filter="url(#f143mctliu6s9t)" height="86.4141" id="configuration" style="stroke: #A80036; stroke-width: 1.5;" width="358" x="2098.5" y="157"/><rect fill="#F7E5FF" height="32" style="stroke: #A80036; stroke-width: 1.5;" width="358" x="2098.5" y="157"/><ellipse cx="2231.75" cy="173" fill="#ADD1B2" rx="11" ry="11" style="stroke: #A80036; stroke-width: 1.0;"/><path d="M2234.7188,178.6406 Q2234.1406,178.9375 2233.5,179.0859 Q2232.8594,179.2344 2232.1563,179.2344 Q2229.6563,179.2344 2228.3359,177.5859 Q2227.0156,175.9375 2227.0156,172.8125 Q2227.0156,169.6875 2228.3359,168.0313 Q2229.6563,166.375 2232.1563,166.375 Q2232.8594,166.375 2233.5078,166.5313 Q2234.1563,166.6875 2234.7188,166.9844 L2234.7188,169.7031 Q2234.0938,169.125 2233.5,168.8516 Q2232.9063,168.5781 2232.2813,168.5781 Q2230.9375,168.5781 2230.25,169.6484 Q2229.5625,170.7188 2229.5625,172.8125 Q2229.5625,174.9063 2230.25,175.9766 Q2230.9375,177.0469 2232.2813,177.0469 Q2232.9063,177.0469 2233.5,176.7734 Q2234.0938,176.5 2234.7188,175.9219 L2234.7188,178.6406 Z "/><text fill="#000000" font-family="sans-serif" font-size="12" lengthAdjust="spacingAndGlyphs" textLength="83" x="2252.25" y="177.1543">configuration</text><line style="stroke: #A80036; stroke-width: 1.5;" x1="2099.5" x2="2455.5" y1="189" y2="189"/><ellipse cx="2109.5" cy="200" fill="none" rx="3" ry="3" style="stroke: #038048; stroke-width: 1.0;"/><text fill="#000000" font-family="sans-serif" font-size="11" lengthAdjust="spacingAndGlyphs" textLength="332" x="2118.5" y="203.2104">logging boost::optional&lt;utility::log::logging_configuration&gt;</text><ellipse cx="2109.5" cy="212.8047" fill="none" rx="3" ry="3" style="stroke: #038048; stroke-width: 1.0;"/><text fill="#000000" font-family="sans-serif" font-size="11" lengthAdjust="spacingAndGlyphs" textLength="138" x="2118.5" y="216.0151">api dogen::configuration</text><ellipse cx="2109.5" cy="225.6094" fill="none" rx="3" ry="3" style="stroke: #038048; stroke-width: 1.0;"/><text fill="#000000" font-family="sans-serif" font-size="11" lengthAdjust="spacingAndGlyphs" textLength="108" x="2118.5" y="228.8198">cli cli_configuration</text><line style="stroke: #A80036; stroke-width: 1.5;" x1="2099.5" x2="2455.5" y1="235.4141" y2="235.4141"/><path d="M2059,38.5 L2059,63.6328 A0,0 0 0 0 2059,63.6328 L2273.5,63.6328 L2277.5,156.73 L2281.5,63.6328 L2496,63.6328 A0,0 0 0 0 2496,63.6328 L2496,48.5 L2486,38.5 L2059,38.5 A0,0 0 0 0 2059,38.5 " fill="#FBFB77" filter="url(#f143mctliu6s9t)" style="stroke: #A80036; stroke-width: 1.0;"/><path d="M2486,38.5 L2486,48.5 L2496,48.5 L2486,38.5 " fill="#FBFB77" style="stroke: #A80036; stroke-width: 1.0;"/><text fill="#000000" font-family="sans-serif" font-size="13" lengthAdjust="spacingAndGlyphs" textLength="416" x="2065" y="55.5669">All of the configuration required by the command line application.</text><!--MD5=[e9a1f03b73bb165adbbef1025b775e42]
class generation_configuration--><rect fill="#F7E5FF" filter="url(#f143mctliu6s9t)" height="92.3516" id="generation_configuration" style="stroke: #A80036; stroke-width: 1.5;" width="404" x="2491.5" y="154"/><rect fill="#F7E5FF" height="37.9375" style="stroke: #A80036; stroke-width: 1.5;" width="404" x="2491.5" y="154"/><ellipse cx="2610.25" cy="172.9688" fill="#ADD1B2" rx="11" ry="11" style="stroke: #A80036; stroke-width: 1.0;"/><path d="M2613.2188,178.6094 Q2612.6406,178.9063 2612,179.0547 Q2611.3594,179.2031 2610.6563,179.2031 Q2608.1563,179.2031 2606.8359,177.5547 Q2605.5156,175.9063 2605.5156,172.7813 Q2605.5156,169.6563 2606.8359,168 Q2608.1563,166.3438 2610.6563,166.3438 Q2611.3594,166.3438 2612.0078,166.5 Q2612.6563,166.6563 2613.2188,166.9531 L2613.2188,169.6719 Q2612.5938,169.0938 2612,168.8203 Q2611.4063,168.5469 2610.7813,168.5469 Q2609.4375,168.5469 2608.75,169.6172 Q2608.0625,170.6875 2608.0625,172.7813 Q2608.0625,174.875 2608.75,175.9453 Q2609.4375,177.0156 2610.7813,177.0156 Q2611.4063,177.0156 2612,176.7422 Q2612.5938,176.4688 2613.2188,175.8906 L2613.2188,178.6094 Z "/><text fill="#000000" font-family="sans-serif" font-size="12" font-style="italic" lengthAdjust="spacingAndGlyphs" textLength="91" x="2664.25" y="170.1387">«masd::fluent»</text><text fill="#000000" font-family="sans-serif" font-size="12" lengthAdjust="spacingAndGlyphs" textLength="158" x="2630.75" y="184.1074">generation_configuration</text><line style="stroke: #A80036; stroke-width: 1.5;" x1="2492.5" x2="2894.5" y1="191.9375" y2="191.9375"/><ellipse cx="2502.5" cy="202.9375" fill="none" rx="3" ry="3" style="stroke: #038048; stroke-width: 1.0;"/><text fill="#000000" font-family="sans-serif" font-size="11" lengthAdjust="spacingAndGlyphs" textLength="378" x="2511.5" y="206.1479">reference_model_directories std::vector&lt;boost::filesystem::path&gt;</text><ellipse cx="2502.5" cy="215.7422" fill="none" rx="3" ry="3" style="stroke: #038048; stroke-width: 1.0;"/><text fill="#000000" font-family="sans-serif" font-size="11" lengthAdjust="spacingAndGlyphs" textLength="170" x="2511.5" y="218.9526">target boost::filesystem::path</text><ellipse cx="2502.5" cy="228.5469" fill="none" rx="3" ry="3" style="stroke: #038048; stroke-width: 1.0;"/><text fill="#000000" font-family="sans-serif" font-size="11" lengthAdjust="spacingAndGlyphs" textLength="228" x="2511.5" y="231.7573">output_directory boost::filesystem::path</text><line style="stroke: #A80036; stroke-width: 1.5;" x1="2492.5" x2="2894.5" y1="238.3516" y2="238.3516"/><path d="M2551.5,38.5 L2551.5,63.6328 A0,0 0 0 0 2551.5,63.6328 L2689.5,63.6328 L2693.5,153.77 L2697.5,63.6328 L2835.5,63.6328 A0,0 0 0 0 2835.5,63.6328 L2835.5,48.5 L2825.5,38.5 L2551.5,38.5 A0,0 0 0 0 2551.5,38.5 " fill="#FBFB77" filter="url(#f143mctliu6s9t)" style="stroke: #A80036; stroke-width: 1.0;"/><path d="M2825.5,38.5 L2825.5,48.5 L2835.5,48.5 L2825.5,38.5 " fill="#FBFB77" style="stroke: #A80036; stroke-width: 1.0;"/><text fill="#000000" font-family="sans-serif" font-size="13" lengthAdjust="spacingAndGlyphs" textLength="263" x="2557.5" y="55.5669">Configuration related to code generation.</text><!--MD5=[6223d9c3f34e8a15271f3a089fb0a351]
class conversion_configuration--><rect fill="#F7E5FF" filter="url(#f143mctliu6s9t)" height="79.5469" id="conversion_configuration" style="stroke: #A80036; stroke-width: 1.5;" width="201" x="2931" y="160"/><rect fill="#F7E5FF" height="37.9375" style="stroke: #A80036; stroke-width: 1.5;" width="201" x="2931" y="160"/><ellipse cx="2951.4" cy="178.9688" fill="#ADD1B2" rx="11" ry="11" style="stroke: #A80036; stroke-width: 1.0;"/><path d="M2954.3688,184.6094 Q2953.7906,184.9063 2953.15,185.0547 Q2952.5094,185.2031 2951.8063,185.2031 Q2949.3063,185.2031 2947.9859,183.5547 Q2946.6656,181.9063 2946.6656,178.7813 Q2946.6656,175.6563 2947.9859,174 Q2949.3063,172.3438 2951.8063,172.3438 Q2952.5094,172.3438 2953.1578,172.5 Q2953.8063,172.6563 2954.3688,172.9531 L2954.3688,175.6719 Q2953.7438,175.0938 2953.15,174.8203 Q2952.5563,174.5469 2951.9313,174.5469 Q2950.5875,174.5469 2949.9,175.6172 Q2949.2125,176.6875 2949.2125,178.7813 Q2949.2125,180.875 2949.9,181.9453 Q2950.5875,183.0156 2951.9313,183.0156 Q2952.5563,183.0156 2953.15,182.7422 Q2953.7438,182.4688 2954.3688,181.8906 L2954.3688,184.6094 Z "/><text fill="#000000" font-family="sans-serif" font-size="12" font-style="italic" lengthAdjust="spacingAndGlyphs" textLength="91" x="2999.6" y="176.1387">«masd::fluent»</text><text fill="#000000" font-family="sans-serif" font-size="12" lengthAdjust="spacingAndGlyphs" textLength="157" x="2966.6" y="190.1074">conversion_configuration</text><line style="stroke: #A80036; stroke-width: 1.5;" x1="2932" x2="3131" y1="197.9375" y2="197.9375"/><ellipse cx="2942" cy="208.9375" fill="none" rx="3" ry="3" style="stroke: #038048; stroke-width: 1.0;"/><text fill="#000000" font-family="sans-serif" font-size="11" lengthAdjust="spacingAndGlyphs" textLength="175" x="2951" y="212.1479">source boost::filesystem::path</text><ellipse cx="2942" cy="221.7422" fill="none" rx="3" ry="3" style="stroke: #038048; stroke-width: 1.0;"/><text fill="#000000" font-family="sans-serif" font-size="11" lengthAdjust="spacingAndGlyphs" textLength="126" x="2951" y="224.9526">destination std::string</text><line style="stroke: #A80036; stroke-width: 1.5;" x1="2932" x2="3131" y1="231.5469" y2="231.5469"/><path d="M2895,38.5 L2895,63.6328 A0,0 0 0 0 2895,63.6328 L3027.5,63.6328 L3031.5,159.96 L3035.5,63.6328 L3168,63.6328 A0,0 0 0 0 3168,63.6328 L3168,48.5 L3158,38.5 L2895,38.5 A0,0 0 0 0 2895,38.5 " fill="#FBFB77" filter="url(#f143mctliu6s9t)" style="stroke: #A80036; stroke-width: 1.0;"/><path d="M3158,38.5 L3158,48.5 L3168,48.5 L3158,38.5 " fill="#FBFB77" style="stroke: #A80036; stroke-width: 1.0;"/><text fill="#000000" font-family="sans-serif" font-size="13" lengthAdjust="spacingAndGlyphs" textLength="252" x="2901" y="55.5669">Configuration for the model conversion.</text><!--MD5=[0347ab94eab96366268c1ddf569cc58d]
class configuration_validator--><rect fill="#FFFACD" filter="url(#f143mctliu6s9t)" height="53.9375" id="configuration_validator" style="stroke: #A80036; stroke-width: 1.5;" width="230" x="655.5" y="24"/><rect fill="#FFFACD" height="37.9375" style="stroke: #A80036; stroke-width: 1.5;" width="230" x="655.5" y="24"/><ellipse cx="670.5" cy="42.9688" fill="#ADD1B2" rx="11" ry="11" style="stroke: #A80036; stroke-width: 1.0;"/><path d="M673.4688,48.6094 Q672.8906,48.9063 672.25,49.0547 Q671.6094,49.2031 670.9063,49.2031 Q668.4063,49.2031 667.0859,47.5547 Q665.7656,45.9063 665.7656,42.7813 Q665.7656,39.6563 667.0859,38 Q668.4063,36.3438 670.9063,36.3438 Q671.6094,36.3438 672.2578,36.5 Q672.9063,36.6563 673.4688,36.9531 L673.4688,39.6719 Q672.8438,39.0938 672.25,38.8203 Q671.6563,38.5469 671.0313,38.5469 Q669.6875,38.5469 669,39.6172 Q668.3125,40.6875 668.3125,42.7813 Q668.3125,44.875 669,45.9453 Q669.6875,47.0156 671.0313,47.0156 Q671.6563,47.0156 672.25,46.7422 Q672.8438,46.4688 673.4688,45.8906 L673.4688,48.6094 Z "/><text fill="#000000" font-family="sans-serif" font-size="12" font-style="italic" lengthAdjust="spacingAndGlyphs" textLength="202" x="682.5" y="40.1387">«dogen::handcrafted::typeable»</text><text fill="#000000" font-family="sans-serif" font-size="12" lengthAdjust="spacingAndGlyphs" textLength="143" x="712" y="54.1074">configuration_validator</text><line style="stroke: #A80036; stroke-width: 1.5;" x1="656.5" x2="884.5" y1="61.9375" y2="61.9375"/><line style="stroke: #A80036; stroke-width: 1.5;" x1="656.5" x2="884.5" y1="69.9375" y2="69.9375"/><!--MD5=[d54e5852ecfe164bbba509d3a9352ed8]
class initializer--><rect fill="#FFFACD" filter="url(#f143mctliu6s9t)" height="53.9375" id="initializer" style="stroke: #A80036; stroke-width: 1.5;" width="230" x="65.5" y="173"/><rect fill="#FFFACD" height="37.9375" style="stroke: #A80036; stroke-width: 1.5;" width="230" x="65.5" y="173"/><ellipse cx="80.5" cy="191.9688" fill="#ADD1B2" rx="11" ry="11" style="stroke: #A80036; stroke-width: 1.0;"/><path d="M83.4688,197.6094 Q82.8906,197.9063 82.25,198.0547 Q81.6094,198.2031 80.9063,198.2031 Q78.4063,198.2031 77.0859,196.5547 Q75.7656,194.9063 75.7656,191.7813 Q75.7656,188.6563 77.0859,187 Q78.4063,185.3438 80.9063,185.3438 Q81.6094,185.3438 82.2578,185.5 Q82.9063,185.6563 83.4688,185.9531 L83.4688,188.6719 Q82.8438,188.0938 82.25,187.8203 Q81.6563,187.5469 81.0313,187.5469 Q79.6875,187.5469 79,188.6172 Q78.3125,189.6875 78.3125,191.7813 Q78.3125,193.875 79,194.9453 Q79.6875,196.0156 81.0313,196.0156 Q81.6563,196.0156 82.25,195.7422 Q82.8438,195.4688 83.4688,194.8906 L83.4688,197.6094 Z "/><text fill="#000000" font-family="sans-serif" font-size="12" font-style="italic" lengthAdjust="spacingAndGlyphs" textLength="202" x="92.5" y="189.1387">«dogen::handcrafted::typeable»</text><text fill="#000000" font-family="sans-serif" font-size="12" lengthAdjust="spacingAndGlyphs" textLength="54" x="166.5" y="203.1074">initializer</text><line style="stroke: #A80036; stroke-width: 1.5;" x1="66.5" x2="294.5" y1="210.9375" y2="210.9375"/><line style="stroke: #A80036; stroke-width: 1.5;" x1="66.5" x2="294.5" y1="218.9375" y2="218.9375"/><!--MD5=[38493dad98929d929ee10f8669b423ff]
class cli_configuration--><rect fill="#F7E5FF" filter="url(#f143mctliu6s9t)" height="79.5469" id="cli_configuration" style="stroke: #A80036; stroke-width: 1.5;" width="611" x="3167" y="160"/><rect fill="#F7E5FF" height="37.9375" style="stroke: #A80036; stroke-width: 1.5;" width="611" x="3167" y="160"/><ellipse cx="3417.25" cy="178.9688" fill="#ADD1B2" rx="11" ry="11" style="stroke: #A80036; stroke-width: 1.0;"/><path d="M3420.2188,184.6094 Q3419.6406,184.9063 3419,185.0547 Q3418.3594,185.2031 3417.6563,185.2031 Q3415.1563,185.2031 3413.8359,183.5547 Q3412.5156,181.9063 3412.5156,178.7813 Q3412.5156,175.6563 3413.8359,174 Q3415.1563,172.3438 3417.6563,172.3438 Q3418.3594,172.3438 3419.0078,172.5 Q3419.6563,172.6563 3420.2188,172.9531 L3420.2188,175.6719 Q3419.5938,175.0938 3419,174.8203 Q3418.4063,174.5469 3417.7813,174.5469 Q3416.4375,174.5469 3415.75,175.6172 Q3415.0625,176.6875 3415.0625,178.7813 Q3415.0625,180.875 3415.75,181.9453 Q3416.4375,183.0156 3417.7813,183.0156 Q3418.4063,183.0156 3419,182.7422 Q3419.5938,182.4688 3420.2188,181.8906 L3420.2188,184.6094 Z "/><text fill="#000000" font-family="sans-serif" font-size="12" font-style="italic" lengthAdjust="spacingAndGlyphs" textLength="91" x="3443.25" y="176.1387">«masd::fluent»</text><text fill="#000000" font-family="sans-serif" font-size="12" lengthAdjust="spacingAndGlyphs" textLength="102" x="3437.75" y="190.1074">cli_configuration</text><line style="stroke: #A80036; stroke-width: 1.5;" x1="3168" x2="3777" y1="197.9375" y2="197.9375"/><ellipse cx="3178" cy="208.9375" fill="none" rx="3" ry="3" style="stroke: #038048; stroke-width: 1.0;"/><text fill="#000000" font-family="sans-serif" font-size="11" lengthAdjust="spacingAndGlyphs" textLength="585" x="3187" y="212.1479">activity boost::variant&lt;generation_configuration, conversion_configuration, dumpspecs_configuration&gt;</text><ellipse cx="3178" cy="221.7422" fill="none" rx="3" ry="3" style="stroke: #038048; stroke-width: 1.0;"/><text fill="#000000" font-family="sans-serif" font-size="11" lengthAdjust="spacingAndGlyphs" textLength="248" x="3187" y="224.9526">byproduct_directory boost::filesystem::path</text><line style="stroke: #A80036; stroke-width: 1.5;" x1="3168" x2="3777" y1="231.5469" y2="231.5469"/><path d="M3323,38.5 L3323,63.6328 A0,0 0 0 0 3323,63.6328 L3468.5,63.6328 L3472.5,159.96 L3476.5,63.6328 L3622,63.6328 A0,0 0 0 0 3622,63.6328 L3622,48.5 L3612,38.5 L3323,38.5 A0,0 0 0 0 3323,38.5 " fill="#FBFB77" filter="url(#f143mctliu6s9t)" style="stroke: #A80036; stroke-width: 1.0;"/><path d="M3612,38.5 L3612,48.5 L3622,48.5 L3612,38.5 " fill="#FBFB77" style="stroke: #A80036; stroke-width: 1.0;"/><text fill="#000000" font-family="sans-serif" font-size="13" lengthAdjust="spacingAndGlyphs" textLength="278" x="3329" y="55.5669">Configuration specific to the CLI application.</text><!--MD5=[4520fda4e10d4d791ce48fe025810cd4]
class main--><rect fill="#DDA9F3" filter="url(#f143mctliu6s9t)" height="53.9375" id="main" style="stroke: #A80036; stroke-width: 1.5;" width="154" x="330.5" y="173"/><rect fill="#DDA9F3" height="37.9375" style="stroke: #A80036; stroke-width: 1.5;" width="154" x="330.5" y="173"/><ellipse cx="345.5" cy="191.9688" fill="#ADD1B2" rx="11" ry="11" style="stroke: #A80036; stroke-width: 1.0;"/><path d="M348.4688,197.6094 Q347.8906,197.9063 347.25,198.0547 Q346.6094,198.2031 345.9063,198.2031 Q343.4063,198.2031 342.0859,196.5547 Q340.7656,194.9063 340.7656,191.7813 Q340.7656,188.6563 342.0859,187 Q343.4063,185.3438 345.9063,185.3438 Q346.6094,185.3438 347.2578,185.5 Q347.9063,185.6563 348.4688,185.9531 L348.4688,188.6719 Q347.8438,188.0938 347.25,187.8203 Q346.6563,187.5469 346.0313,187.5469 Q344.6875,187.5469 344,188.6172 Q343.3125,189.6875 343.3125,191.7813 Q343.3125,193.875 344,194.9453 Q344.6875,196.0156 346.0313,196.0156 Q346.6563,196.0156 347.25,195.7422 Q347.8438,195.4688 348.4688,194.8906 L348.4688,197.6094 Z "/><text fill="#000000" font-family="sans-serif" font-size="12" font-style="italic" lengthAdjust="spacingAndGlyphs" textLength="126" x="357.5" y="189.1387">«masd::entry_point»</text><text fill="#000000" font-family="sans-serif" font-size="12" lengthAdjust="spacingAndGlyphs" textLength="30" x="405.5" y="203.1074">main</text><line style="stroke: #A80036; stroke-width: 1.5;" x1="331.5" x2="483.5" y1="210.9375" y2="210.9375"/><line style="stroke: #A80036; stroke-width: 1.5;" x1="331.5" x2="483.5" y1="218.9375" y2="218.9375"/><!--MD5=[ba83386d426114557685538e96aa6f68]
class CMakeLists--><rect fill="#99CB99" filter="url(#f143mctliu6s9t)" height="53.9375" id="CMakeLists" style="stroke: #A80036; stroke-width: 1.5;" width="367" x="520" y="173"/><rect fill="#99CB99" height="37.9375" style="stroke: #A80036; stroke-width: 1.5;" width="367" x="520" y="173"/><ellipse cx="535" cy="191.9688" fill="#ADD1B2" rx="11" ry="11" style="stroke: #A80036; stroke-width: 1.0;"/><path d="M537.9688,197.6094 Q537.3906,197.9063 536.75,198.0547 Q536.1094,198.2031 535.4063,198.2031 Q532.9063,198.2031 531.5859,196.5547 Q530.2656,194.9063 530.2656,191.7813 Q530.2656,188.6563 531.5859,187 Q532.9063,185.3438 535.4063,185.3438 Q536.1094,185.3438 536.7578,185.5 Q537.4063,185.6563 537.9688,185.9531 L537.9688,188.6719 Q537.3438,188.0938 536.75,187.8203 Q536.1563,187.5469 535.5313,187.5469 Q534.1875,187.5469 533.5,188.6172 Q532.8125,189.6875 532.8125,191.7813 Q532.8125,193.875 533.5,194.9453 Q534.1875,196.0156 535.5313,196.0156 Q536.1563,196.0156 536.75,195.7422 Q537.3438,195.4688 537.9688,194.8906 L537.9688,197.6094 Z "/><text fill="#000000" font-family="sans-serif" font-size="12" font-style="italic" lengthAdjust="spacingAndGlyphs" textLength="339" x="547" y="189.1387">«masd::build::cmakelists, dogen::handcrafted::cmake»</text><text fill="#000000" font-family="sans-serif" font-size="12" lengthAdjust="spacingAndGlyphs" textLength="69" x="682" y="203.1074">CMakeLists</text><line style="stroke: #A80036; stroke-width: 1.5;" x1="521" x2="886" y1="210.9375" y2="210.9375"/><line style="stroke: #A80036; stroke-width: 1.5;" x1="521" x2="886" y1="218.9375" y2="218.9375"/><!--MD5=[2a9c6b040fa43722a67025e2e82f0947]
class dumpspecs_configuration--><rect fill="#F7E5FF" filter="url(#f143mctliu6s9t)" height="66.7422" id="dumpspecs_configuration" style="stroke: #A80036; stroke-width: 1.5;" width="193" x="3813" y="166.5"/><rect fill="#F7E5FF" height="37.9375" style="stroke: #A80036; stroke-width: 1.5;" width="193" x="3813" y="166.5"/><ellipse cx="3828" cy="185.4688" fill="#ADD1B2" rx="11" ry="11" style="stroke: #A80036; stroke-width: 1.0;"/><path d="M3830.9688,191.1094 Q3830.3906,191.4063 3829.75,191.5547 Q3829.1094,191.7031 3828.4063,191.7031 Q3825.9063,191.7031 3824.5859,190.0547 Q3823.2656,188.4063 3823.2656,185.2813 Q3823.2656,182.1563 3824.5859,180.5 Q3825.9063,178.8438 3828.4063,178.8438 Q3829.1094,178.8438 3829.7578,179 Q3830.4063,179.1563 3830.9688,179.4531 L3830.9688,182.1719 Q3830.3438,181.5938 3829.75,181.3203 Q3829.1563,181.0469 3828.5313,181.0469 Q3827.1875,181.0469 3826.5,182.1172 Q3825.8125,183.1875 3825.8125,185.2813 Q3825.8125,187.375 3826.5,188.4453 Q3827.1875,189.5156 3828.5313,189.5156 Q3829.1563,189.5156 3829.75,189.2422 Q3830.3438,188.9688 3830.9688,188.3906 L3830.9688,191.1094 Z "/><text fill="#000000" font-family="sans-serif" font-size="12" font-style="italic" lengthAdjust="spacingAndGlyphs" textLength="91" x="3877" y="182.6387">«masd::fluent»</text><text fill="#000000" font-family="sans-serif" font-size="12" lengthAdjust="spacingAndGlyphs" textLength="161" x="3842" y="196.6074">dumpspecs_configuration</text><line style="stroke: #A80036; stroke-width: 1.5;" x1="3814" x2="4005" y1="204.4375" y2="204.4375"/><ellipse cx="3824" cy="215.4375" fill="none" rx="3" ry="3" style="stroke: #038048; stroke-width: 1.0;"/><text fill="#000000" font-family="sans-serif" font-size="11" lengthAdjust="spacingAndGlyphs" textLength="116" x="3833" y="218.6479">style reporting_style</text><line style="stroke: #A80036; stroke-width: 1.5;" x1="3814" x2="4005" y1="225.2422" y2="225.2422"/><path d="M3743,38.5 L3743,63.6328 A0,0 0 0 0 3743,63.6328 L3905.5,63.6328 L3909.5,166.49 L3913.5,63.6328 L4076,63.6328 A0,0 0 0 0 4076,63.6328 L4076,48.5 L4066,38.5 L3743,38.5 A0,0 0 0 0 3743,38.5 " fill="#FBFB77" filter="url(#f143mctliu6s9t)" style="stroke: #A80036; stroke-width: 1.0;"/><path d="M4066,38.5 L4066,48.5 L4076,48.5 L4066,38.5 " fill="#FBFB77" style="stroke: #A80036; stroke-width: 1.0;"/><text fill="#000000" font-family="sans-serif" font-size="13" lengthAdjust="spacingAndGlyphs" textLength="312" x="3749" y="55.5669">Dumps all the specs about this version of dogen.</text><!--MD5=[397d303c4aab79a49b7a62974140bade]
reverse link command_line_parser to program_options_parser--><path d="M1440.5,98.36 C1440.5,122.97 1440.5,152.32 1440.5,172.95 " fill="none" id="command_line_parser&lt;-program_options_parser" style="stroke: #A80036; stroke-width: 1.0;"/><polygon fill="none" points="1433.5,98.28,1440.5,78.28,1447.5,98.28,1433.5,98.28" style="stroke: #A80036; stroke-width: 1.0;"/><!--MD5=[5e2cba153fc0abc57fbc295bdfce38f2]
link N1 to application--><!--MD5=[d5ffb432a80ba3784fc109f158aab950]
link application to configuration_validator--><!--MD5=[a670184fc0a6675ca07fa83e28132626]
link N1 to initializer--><!--MD5=[5653eca4263751759b7327e12ef7a0aa]
link initializer to main--><!--MD5=[367f0f7b9da0cd9a39366f1aecb3ca6d]
link main to CMakeLists--><!--MD5=[b5615214c81368c394b9d196be7af15c]
@startuml
set namespaceSeparator ::
note as N1
Implements the command-line interface for Dogen.

UML representation:

\image html dogen.cli/modeling/dogen.cli.svg
end note

class parser_exception <<masd::exception>> #E8C2F8 {
}

note top of  parser_exception
    A fatal error has occurred during option parsing.
end note

class application <<dogen::handcrafted::typeable>> #FFFACD {
}

class command_line_parser <<dogen::handcrafted::typeable::header_only>> #FFFACD {
}

class program_options_parser <<dogen::handcrafted::typeable>> #FFFACD {
}

command_line_parser <|- - program_options_parser
class application_exception <<masd::exception>> #E8C2F8 {
}

note top of  application_exception
    A fatal error has occurred whilst executing the application.
end note

class configuration #F7E5FF {
    +{field} logging boost::optional<utility::log::logging_configuration>
    +{field} api dogen::configuration
    +{field} cli cli_configuration
}

note top of  configuration
    All of the configuration required by the command line application.
end note

class generation_configuration <<masd::fluent>> #F7E5FF {
    +{field} reference_model_directories std::vector<boost::filesystem::path>
    +{field} target boost::filesystem::path
    +{field} output_directory boost::filesystem::path
}

note top of  generation_configuration
    Configuration related to code generation.
end note

class conversion_configuration <<masd::fluent>> #F7E5FF {
    +{field} source boost::filesystem::path
    +{field} destination std::string
}

note top of  conversion_configuration
    Configuration for the model conversion.
end note

class configuration_validator <<dogen::handcrafted::typeable>> #FFFACD {
}

class initializer <<dogen::handcrafted::typeable>> #FFFACD {
}

class cli_configuration <<masd::fluent>> #F7E5FF {
    +{field} activity boost::variant<generation_configuration, conversion_configuration, dumpspecs_configuration>
    +{field} byproduct_directory boost::filesystem::path
}

note top of  cli_configuration
    Configuration specific to the CLI application.
end note

class main <<masd::entry_point>> #DDA9F3 {
}

class CMakeLists <<masd::build::cmakelists, dogen::handcrafted::cmake>> #99CB99 {
}

class dumpspecs_configuration <<masd::fluent>> #F7E5FF {
    +{field} style reporting_style
}

note top of  dumpspecs_configuration
    Dumps all the specs about this version of dogen.
end note

@enduml

PlantUML version 1.2020.02(Sun Mar 01 10:22:07 GMT 2020)
(GPL source distribution)
Java Runtime: OpenJDK Runtime Environment
JVM: OpenJDK 64-Bit Server VM
Java Version: 1.8.0_212-8u212-b03-2~deb9u1-b03
Operating System: Linux
Default Encoding: UTF-8
Language: en
Country: GB
--></g></svg>