<?xml version="1.0" encoding="UTF-8" standalone="no"?><svg xmlns="http://www.w3.org/2000/svg" xmlns:xlink="http://www.w3.org/1999/xlink" contentScriptType="application/ecmascript" contentStyleType="text/css" height="338px" preserveAspectRatio="none" style="width:4182px;height:338px;" version="1.1" viewBox="0 0 4182 338" width="4182px" zoomAndPan="magnify"><defs><filter height="300%" id="fzsemw48ryve5" width="300%" x="-1" y="-1"><feGaussianBlur result="blurOut" stdDeviation="2.0"/><feColorMatrix in="blurOut" result="blurOut2" type="matrix" values="0 0 0 0 0 0 0 0 0 0 0 0 0 0 0 0 0 0 .4 0"/><feOffset dx="4.0" dy="4.0" in="blurOut2" result="blurOut3"/><feBlend in="SourceGraphic" in2="blurOut3" mode="normal"/></filter></defs><g><path d="M15,22.5 L15,47.6328 L364,47.6328 L364,32.5 L354,22.5 L15,22.5 " fill="#FBFB77" filter="url(#fzsemw48ryve5)" style="stroke: #A80036; stroke-width: 1.0;"/><path d="M354,22.5 L354,32.5 L364,32.5 L354,22.5 " fill="#FBFB77" style="stroke: #A80036; stroke-width: 1.0;"/><text fill="#000000" font-family="sans-serif" font-size="13" lengthAdjust="spacingAndGlyphs" textLength="328" x="21" y="39.5669">Implements the command-line interface for Dogen.</text><!--MD5=[19d92d75b2be9a5f372e551632eaad56]
class parser_exception--><rect fill="#E8C2F8" filter="url(#fzsemw48ryve5)" height="53.9375" id="parser_exception" style="stroke: #A80036; stroke-width: 1.5;" width="145" x="1106" y="141"/><rect fill="#E8C2F8" height="37.9375" style="stroke: #A80036; stroke-width: 1.5;" width="145" x="1106" y="141"/><ellipse cx="1121" cy="159.9688" fill="#ADD1B2" rx="11" ry="11" style="stroke: #A80036; stroke-width: 1.0;"/><path d="M1123.9688,165.6094 Q1123.3906,165.9063 1122.75,166.0547 Q1122.1094,166.2031 1121.4063,166.2031 Q1118.9063,166.2031 1117.5859,164.5547 Q1116.2656,162.9063 1116.2656,159.7813 Q1116.2656,156.6563 1117.5859,155 Q1118.9063,153.3438 1121.4063,153.3438 Q1122.1094,153.3438 1122.7578,153.5 Q1123.4063,153.6563 1123.9688,153.9531 L1123.9688,156.6719 Q1123.3438,156.0938 1122.75,155.8203 Q1122.1563,155.5469 1121.5313,155.5469 Q1120.1875,155.5469 1119.5,156.6172 Q1118.8125,157.6875 1118.8125,159.7813 Q1118.8125,161.875 1119.5,162.9453 Q1120.1875,164.0156 1121.5313,164.0156 Q1122.1563,164.0156 1122.75,163.7422 Q1123.3438,163.4688 1123.9688,162.8906 L1123.9688,165.6094 Z "/><text fill="#000000" font-family="sans-serif" font-size="12" font-style="italic" lengthAdjust="spacingAndGlyphs" textLength="117" x="1133" y="157.1387">«masd::exception»</text><text fill="#000000" font-family="sans-serif" font-size="12" lengthAdjust="spacingAndGlyphs" textLength="108" x="1137.5" y="171.1074">parser_exception</text><line style="stroke: #A80036; stroke-width: 1.5;" x1="1107" x2="1250" y1="178.9375" y2="178.9375"/><line style="stroke: #A80036; stroke-width: 1.5;" x1="1107" x2="1250" y1="186.9375" y2="186.9375"/><path d="M1015,22.5 L1015,47.6328 A0,0 0 0 0 1015,47.6328 L1174.5,47.6328 L1178.5,140.82 L1182.5,47.6328 L1342,47.6328 A0,0 0 0 0 1342,47.6328 L1342,32.5 L1332,22.5 L1015,22.5 A0,0 0 0 0 1015,22.5 " fill="#FBFB77" filter="url(#fzsemw48ryve5)" style="stroke: #A80036; stroke-width: 1.0;"/><path d="M1332,22.5 L1332,32.5 L1342,32.5 L1332,22.5 " fill="#FBFB77" style="stroke: #A80036; stroke-width: 1.0;"/><text fill="#000000" font-family="sans-serif" font-size="13" lengthAdjust="spacingAndGlyphs" textLength="306" x="1021" y="39.5669">A fatal error has occurred during option parsing.</text><!--MD5=[1700babc4216d044a93a74805c70996c]
class application--><rect fill="#FFFACD" filter="url(#fzsemw48ryve5)" height="53.9375" id="application" style="stroke: #A80036; stroke-width: 1.5;" width="230" x="399.5" y="8"/><rect fill="#FFFACD" height="37.9375" style="stroke: #A80036; stroke-width: 1.5;" width="230" x="399.5" y="8"/><ellipse cx="414.5" cy="26.9688" fill="#ADD1B2" rx="11" ry="11" style="stroke: #A80036; stroke-width: 1.0;"/><path d="M417.4688,32.6094 Q416.8906,32.9063 416.25,33.0547 Q415.6094,33.2031 414.9063,33.2031 Q412.4063,33.2031 411.0859,31.5547 Q409.7656,29.9063 409.7656,26.7813 Q409.7656,23.6563 411.0859,22 Q412.4063,20.3438 414.9063,20.3438 Q415.6094,20.3438 416.2578,20.5 Q416.9063,20.6563 417.4688,20.9531 L417.4688,23.6719 Q416.8438,23.0938 416.25,22.8203 Q415.6563,22.5469 415.0313,22.5469 Q413.6875,22.5469 413,23.6172 Q412.3125,24.6875 412.3125,26.7813 Q412.3125,28.875 413,29.9453 Q413.6875,31.0156 415.0313,31.0156 Q415.6563,31.0156 416.25,30.7422 Q416.8438,30.4688 417.4688,29.8906 L417.4688,32.6094 Z "/><text fill="#000000" font-family="sans-serif" font-size="12" font-style="italic" lengthAdjust="spacingAndGlyphs" textLength="202" x="426.5" y="24.1387">«dogen::handcrafted::typeable»</text><text fill="#000000" font-family="sans-serif" font-size="12" lengthAdjust="spacingAndGlyphs" textLength="69" x="493" y="38.1074">application</text><line style="stroke: #A80036; stroke-width: 1.5;" x1="400.5" x2="628.5" y1="45.9375" y2="45.9375"/><line style="stroke: #A80036; stroke-width: 1.5;" x1="400.5" x2="628.5" y1="53.9375" y2="53.9375"/><!--MD5=[31e2917de18cd947063b84aa2c6f9552]
class command_line_parser--><rect fill="#FFFACD" filter="url(#fzsemw48ryve5)" height="53.9375" id="command_line_parser" style="stroke: #A80036; stroke-width: 1.5;" width="315" x="1377" y="8"/><rect fill="#FFFACD" height="37.9375" style="stroke: #A80036; stroke-width: 1.5;" width="315" x="1377" y="8"/><ellipse cx="1392" cy="26.9688" fill="#ADD1B2" rx="11" ry="11" style="stroke: #A80036; stroke-width: 1.0;"/><path d="M1394.9688,32.6094 Q1394.3906,32.9063 1393.75,33.0547 Q1393.1094,33.2031 1392.4063,33.2031 Q1389.9063,33.2031 1388.5859,31.5547 Q1387.2656,29.9063 1387.2656,26.7813 Q1387.2656,23.6563 1388.5859,22 Q1389.9063,20.3438 1392.4063,20.3438 Q1393.1094,20.3438 1393.7578,20.5 Q1394.4063,20.6563 1394.9688,20.9531 L1394.9688,23.6719 Q1394.3438,23.0938 1393.75,22.8203 Q1393.1563,22.5469 1392.5313,22.5469 Q1391.1875,22.5469 1390.5,23.6172 Q1389.8125,24.6875 1389.8125,26.7813 Q1389.8125,28.875 1390.5,29.9453 Q1391.1875,31.0156 1392.5313,31.0156 Q1393.1563,31.0156 1393.75,30.7422 Q1394.3438,30.4688 1394.9688,29.8906 L1394.9688,32.6094 Z "/><text fill="#000000" font-family="sans-serif" font-size="12" font-style="italic" lengthAdjust="spacingAndGlyphs" textLength="287" x="1404" y="24.1387">«dogen::handcrafted::typeable::header_only»</text><text fill="#000000" font-family="sans-serif" font-size="12" lengthAdjust="spacingAndGlyphs" textLength="136" x="1479.5" y="38.1074">command_line_parser</text><line style="stroke: #A80036; stroke-width: 1.5;" x1="1378" x2="1691" y1="45.9375" y2="45.9375"/><line style="stroke: #A80036; stroke-width: 1.5;" x1="1378" x2="1691" y1="53.9375" y2="53.9375"/><!--MD5=[125701c02a148bb9f8af9b45c45251cb]
class program_options_parser--><rect fill="#FFFACD" filter="url(#fzsemw48ryve5)" height="53.9375" id="program_options_parser" style="stroke: #A80036; stroke-width: 1.5;" width="230" x="1419.5" y="141"/><rect fill="#FFFACD" height="37.9375" style="stroke: #A80036; stroke-width: 1.5;" width="230" x="1419.5" y="141"/><ellipse cx="1434.5" cy="159.9688" fill="#ADD1B2" rx="11" ry="11" style="stroke: #A80036; stroke-width: 1.0;"/><path d="M1437.4688,165.6094 Q1436.8906,165.9063 1436.25,166.0547 Q1435.6094,166.2031 1434.9063,166.2031 Q1432.4063,166.2031 1431.0859,164.5547 Q1429.7656,162.9063 1429.7656,159.7813 Q1429.7656,156.6563 1431.0859,155 Q1432.4063,153.3438 1434.9063,153.3438 Q1435.6094,153.3438 1436.2578,153.5 Q1436.9063,153.6563 1437.4688,153.9531 L1437.4688,156.6719 Q1436.8438,156.0938 1436.25,155.8203 Q1435.6563,155.5469 1435.0313,155.5469 Q1433.6875,155.5469 1433,156.6172 Q1432.3125,157.6875 1432.3125,159.7813 Q1432.3125,161.875 1433,162.9453 Q1433.6875,164.0156 1435.0313,164.0156 Q1435.6563,164.0156 1436.25,163.7422 Q1436.8438,163.4688 1437.4688,162.8906 L1437.4688,165.6094 Z "/><text fill="#000000" font-family="sans-serif" font-size="12" font-style="italic" lengthAdjust="spacingAndGlyphs" textLength="202" x="1446.5" y="157.1387">«dogen::handcrafted::typeable»</text><text fill="#000000" font-family="sans-serif" font-size="12" lengthAdjust="spacingAndGlyphs" textLength="153" x="1471" y="171.1074">program_options_parser</text><line style="stroke: #A80036; stroke-width: 1.5;" x1="1420.5" x2="1648.5" y1="178.9375" y2="178.9375"/><line style="stroke: #A80036; stroke-width: 1.5;" x1="1420.5" x2="1648.5" y1="186.9375" y2="186.9375"/><!--MD5=[32b5f1a360ddc948a263330cc82d5dc3]
class injector_factory--><rect fill="#FFFACD" filter="url(#fzsemw48ryve5)" height="53.9375" id="injector_factory" style="stroke: #A80036; stroke-width: 1.5;" width="315" x="665" y="8"/><rect fill="#FFFACD" height="37.9375" style="stroke: #A80036; stroke-width: 1.5;" width="315" x="665" y="8"/><ellipse cx="680" cy="26.9688" fill="#ADD1B2" rx="11" ry="11" style="stroke: #A80036; stroke-width: 1.0;"/><path d="M682.9688,32.6094 Q682.3906,32.9063 681.75,33.0547 Q681.1094,33.2031 680.4063,33.2031 Q677.9063,33.2031 676.5859,31.5547 Q675.2656,29.9063 675.2656,26.7813 Q675.2656,23.6563 676.5859,22 Q677.9063,20.3438 680.4063,20.3438 Q681.1094,20.3438 681.7578,20.5 Q682.4063,20.6563 682.9688,20.9531 L682.9688,23.6719 Q682.3438,23.0938 681.75,22.8203 Q681.1563,22.5469 680.5313,22.5469 Q679.1875,22.5469 678.5,23.6172 Q677.8125,24.6875 677.8125,26.7813 Q677.8125,28.875 678.5,29.9453 Q679.1875,31.0156 680.5313,31.0156 Q681.1563,31.0156 681.75,30.7422 Q682.3438,30.4688 682.9688,29.8906 L682.9688,32.6094 Z "/><text fill="#000000" font-family="sans-serif" font-size="12" font-style="italic" lengthAdjust="spacingAndGlyphs" textLength="287" x="692" y="24.1387">«dogen::handcrafted::typeable::header_only»</text><text fill="#000000" font-family="sans-serif" font-size="12" lengthAdjust="spacingAndGlyphs" textLength="96" x="787.5" y="38.1074">injector_factory</text><line style="stroke: #A80036; stroke-width: 1.5;" x1="666" x2="979" y1="45.9375" y2="45.9375"/><line style="stroke: #A80036; stroke-width: 1.5;" x1="666" x2="979" y1="53.9375" y2="53.9375"/><!--MD5=[39e485302053a8075caa6c13ab91b957]
class application_exception--><rect fill="#E8C2F8" filter="url(#fzsemw48ryve5)" height="53.9375" id="application_exception" style="stroke: #A80036; stroke-width: 1.5;" width="168" x="1838.5" y="141"/><rect fill="#E8C2F8" height="37.9375" style="stroke: #A80036; stroke-width: 1.5;" width="168" x="1838.5" y="141"/><ellipse cx="1853.5" cy="159.9688" fill="#ADD1B2" rx="11" ry="11" style="stroke: #A80036; stroke-width: 1.0;"/><path d="M1856.4688,165.6094 Q1855.8906,165.9063 1855.25,166.0547 Q1854.6094,166.2031 1853.9063,166.2031 Q1851.4063,166.2031 1850.0859,164.5547 Q1848.7656,162.9063 1848.7656,159.7813 Q1848.7656,156.6563 1850.0859,155 Q1851.4063,153.3438 1853.9063,153.3438 Q1854.6094,153.3438 1855.2578,153.5 Q1855.9063,153.6563 1856.4688,153.9531 L1856.4688,156.6719 Q1855.8438,156.0938 1855.25,155.8203 Q1854.6563,155.5469 1854.0313,155.5469 Q1852.6875,155.5469 1852,156.6172 Q1851.3125,157.6875 1851.3125,159.7813 Q1851.3125,161.875 1852,162.9453 Q1852.6875,164.0156 1854.0313,164.0156 Q1854.6563,164.0156 1855.25,163.7422 Q1855.8438,163.4688 1856.4688,162.8906 L1856.4688,165.6094 Z "/><text fill="#000000" font-family="sans-serif" font-size="12" font-style="italic" lengthAdjust="spacingAndGlyphs" textLength="117" x="1877" y="157.1387">«masd::exception»</text><text fill="#000000" font-family="sans-serif" font-size="12" lengthAdjust="spacingAndGlyphs" textLength="136" x="1867.5" y="171.1074">application_exception</text><line style="stroke: #A80036; stroke-width: 1.5;" x1="1839.5" x2="2005.5" y1="178.9375" y2="178.9375"/><line style="stroke: #A80036; stroke-width: 1.5;" x1="1839.5" x2="2005.5" y1="186.9375" y2="186.9375"/><path d="M1727,22.5 L1727,47.6328 A0,0 0 0 0 1727,47.6328 L1918.5,47.6328 L1922.5,140.82 L1926.5,47.6328 L2118,47.6328 A0,0 0 0 0 2118,47.6328 L2118,32.5 L2108,22.5 L1727,22.5 A0,0 0 0 0 1727,22.5 " fill="#FBFB77" filter="url(#fzsemw48ryve5)" style="stroke: #A80036; stroke-width: 1.0;"/><path d="M2108,22.5 L2108,32.5 L2118,32.5 L2108,22.5 " fill="#FBFB77" style="stroke: #A80036; stroke-width: 1.0;"/><text fill="#000000" font-family="sans-serif" font-size="13" lengthAdjust="spacingAndGlyphs" textLength="370" x="1733" y="39.5669">A fatal error has occurred whilst executing the application.</text><!--MD5=[5bbd3befcf1686b7fd148cc582657d1c]
class configuration--><rect fill="#F7E5FF" filter="url(#fzsemw48ryve5)" height="86.4141" id="configuration" style="stroke: #A80036; stroke-width: 1.5;" width="358" x="2192.5" y="125"/><rect fill="#F7E5FF" height="32" style="stroke: #A80036; stroke-width: 1.5;" width="358" x="2192.5" y="125"/><ellipse cx="2325.75" cy="141" fill="#ADD1B2" rx="11" ry="11" style="stroke: #A80036; stroke-width: 1.0;"/><path d="M2328.7188,146.6406 Q2328.1406,146.9375 2327.5,147.0859 Q2326.8594,147.2344 2326.1563,147.2344 Q2323.6563,147.2344 2322.3359,145.5859 Q2321.0156,143.9375 2321.0156,140.8125 Q2321.0156,137.6875 2322.3359,136.0313 Q2323.6563,134.375 2326.1563,134.375 Q2326.8594,134.375 2327.5078,134.5313 Q2328.1563,134.6875 2328.7188,134.9844 L2328.7188,137.7031 Q2328.0938,137.125 2327.5,136.8516 Q2326.9063,136.5781 2326.2813,136.5781 Q2324.9375,136.5781 2324.25,137.6484 Q2323.5625,138.7188 2323.5625,140.8125 Q2323.5625,142.9063 2324.25,143.9766 Q2324.9375,145.0469 2326.2813,145.0469 Q2326.9063,145.0469 2327.5,144.7734 Q2328.0938,144.5 2328.7188,143.9219 L2328.7188,146.6406 Z "/><text fill="#000000" font-family="sans-serif" font-size="12" lengthAdjust="spacingAndGlyphs" textLength="83" x="2346.25" y="145.1543">configuration</text><line style="stroke: #A80036; stroke-width: 1.5;" x1="2193.5" x2="2549.5" y1="157" y2="157"/><ellipse cx="2203.5" cy="168" fill="none" rx="3" ry="3" style="stroke: #038048; stroke-width: 1.0;"/><text fill="#000000" font-family="sans-serif" font-size="11" lengthAdjust="spacingAndGlyphs" textLength="332" x="2212.5" y="171.2104">logging boost::optional&lt;utility::log::logging_configuration&gt;</text><ellipse cx="2203.5" cy="180.8047" fill="none" rx="3" ry="3" style="stroke: #038048; stroke-width: 1.0;"/><text fill="#000000" font-family="sans-serif" font-size="11" lengthAdjust="spacingAndGlyphs" textLength="138" x="2212.5" y="184.0151">api dogen::configuration</text><ellipse cx="2203.5" cy="193.6094" fill="none" rx="3" ry="3" style="stroke: #038048; stroke-width: 1.0;"/><text fill="#000000" font-family="sans-serif" font-size="11" lengthAdjust="spacingAndGlyphs" textLength="108" x="2212.5" y="196.8198">cli cli_configuration</text><line style="stroke: #A80036; stroke-width: 1.5;" x1="2193.5" x2="2549.5" y1="203.4141" y2="203.4141"/><path d="M2153,22.5 L2153,47.6328 A0,0 0 0 0 2153,47.6328 L2367.5,47.6328 L2371.5,124.72 L2375.5,47.6328 L2590,47.6328 A0,0 0 0 0 2590,47.6328 L2590,32.5 L2580,22.5 L2153,22.5 A0,0 0 0 0 2153,22.5 " fill="#FBFB77" filter="url(#fzsemw48ryve5)" style="stroke: #A80036; stroke-width: 1.0;"/><path d="M2580,22.5 L2580,32.5 L2590,32.5 L2580,22.5 " fill="#FBFB77" style="stroke: #A80036; stroke-width: 1.0;"/><text fill="#000000" font-family="sans-serif" font-size="13" lengthAdjust="spacingAndGlyphs" textLength="416" x="2159" y="39.5669">All of the configuration required by the command line application.</text><!--MD5=[e9a1f03b73bb165adbbef1025b775e42]
class generation_configuration--><rect fill="#F7E5FF" filter="url(#fzsemw48ryve5)" height="92.3516" id="generation_configuration" style="stroke: #A80036; stroke-width: 1.5;" width="404" x="2585.5" y="122"/><rect fill="#F7E5FF" height="37.9375" style="stroke: #A80036; stroke-width: 1.5;" width="404" x="2585.5" y="122"/><ellipse cx="2704.25" cy="140.9688" fill="#ADD1B2" rx="11" ry="11" style="stroke: #A80036; stroke-width: 1.0;"/><path d="M2707.2188,146.6094 Q2706.6406,146.9063 2706,147.0547 Q2705.3594,147.2031 2704.6563,147.2031 Q2702.1563,147.2031 2700.8359,145.5547 Q2699.5156,143.9063 2699.5156,140.7813 Q2699.5156,137.6563 2700.8359,136 Q2702.1563,134.3438 2704.6563,134.3438 Q2705.3594,134.3438 2706.0078,134.5 Q2706.6563,134.6563 2707.2188,134.9531 L2707.2188,137.6719 Q2706.5938,137.0938 2706,136.8203 Q2705.4063,136.5469 2704.7813,136.5469 Q2703.4375,136.5469 2702.75,137.6172 Q2702.0625,138.6875 2702.0625,140.7813 Q2702.0625,142.875 2702.75,143.9453 Q2703.4375,145.0156 2704.7813,145.0156 Q2705.4063,145.0156 2706,144.7422 Q2706.5938,144.4688 2707.2188,143.8906 L2707.2188,146.6094 Z "/><text fill="#000000" font-family="sans-serif" font-size="12" font-style="italic" lengthAdjust="spacingAndGlyphs" textLength="91" x="2758.25" y="138.1387">«masd::fluent»</text><text fill="#000000" font-family="sans-serif" font-size="12" lengthAdjust="spacingAndGlyphs" textLength="158" x="2724.75" y="152.1074">generation_configuration</text><line style="stroke: #A80036; stroke-width: 1.5;" x1="2586.5" x2="2988.5" y1="159.9375" y2="159.9375"/><ellipse cx="2596.5" cy="170.9375" fill="none" rx="3" ry="3" style="stroke: #038048; stroke-width: 1.0;"/><text fill="#000000" font-family="sans-serif" font-size="11" lengthAdjust="spacingAndGlyphs" textLength="378" x="2605.5" y="174.1479">reference_model_directories std::vector&lt;boost::filesystem::path&gt;</text><ellipse cx="2596.5" cy="183.7422" fill="none" rx="3" ry="3" style="stroke: #038048; stroke-width: 1.0;"/><text fill="#000000" font-family="sans-serif" font-size="11" lengthAdjust="spacingAndGlyphs" textLength="170" x="2605.5" y="186.9526">target boost::filesystem::path</text><ellipse cx="2596.5" cy="196.5469" fill="none" rx="3" ry="3" style="stroke: #038048; stroke-width: 1.0;"/><text fill="#000000" font-family="sans-serif" font-size="11" lengthAdjust="spacingAndGlyphs" textLength="228" x="2605.5" y="199.7573">output_directory boost::filesystem::path</text><line style="stroke: #A80036; stroke-width: 1.5;" x1="2586.5" x2="2988.5" y1="206.3516" y2="206.3516"/><path d="M2645.5,22.5 L2645.5,47.6328 A0,0 0 0 0 2645.5,47.6328 L2783.5,47.6328 L2787.5,121.75 L2791.5,47.6328 L2929.5,47.6328 A0,0 0 0 0 2929.5,47.6328 L2929.5,32.5 L2919.5,22.5 L2645.5,22.5 A0,0 0 0 0 2645.5,22.5 " fill="#FBFB77" filter="url(#fzsemw48ryve5)" style="stroke: #A80036; stroke-width: 1.0;"/><path d="M2919.5,22.5 L2919.5,32.5 L2929.5,32.5 L2919.5,22.5 " fill="#FBFB77" style="stroke: #A80036; stroke-width: 1.0;"/><text fill="#000000" font-family="sans-serif" font-size="13" lengthAdjust="spacingAndGlyphs" textLength="263" x="2651.5" y="39.5669">Configuration related to code generation.</text><!--MD5=[6223d9c3f34e8a15271f3a089fb0a351]
class conversion_configuration--><rect fill="#F7E5FF" filter="url(#fzsemw48ryve5)" height="79.5469" id="conversion_configuration" style="stroke: #A80036; stroke-width: 1.5;" width="201" x="3025" y="128"/><rect fill="#F7E5FF" height="37.9375" style="stroke: #A80036; stroke-width: 1.5;" width="201" x="3025" y="128"/><ellipse cx="3045.4" cy="146.9688" fill="#ADD1B2" rx="11" ry="11" style="stroke: #A80036; stroke-width: 1.0;"/><path d="M3048.3688,152.6094 Q3047.7906,152.9063 3047.15,153.0547 Q3046.5094,153.2031 3045.8063,153.2031 Q3043.3063,153.2031 3041.9859,151.5547 Q3040.6656,149.9063 3040.6656,146.7813 Q3040.6656,143.6563 3041.9859,142 Q3043.3063,140.3438 3045.8063,140.3438 Q3046.5094,140.3438 3047.1578,140.5 Q3047.8063,140.6563 3048.3688,140.9531 L3048.3688,143.6719 Q3047.7438,143.0938 3047.15,142.8203 Q3046.5563,142.5469 3045.9313,142.5469 Q3044.5875,142.5469 3043.9,143.6172 Q3043.2125,144.6875 3043.2125,146.7813 Q3043.2125,148.875 3043.9,149.9453 Q3044.5875,151.0156 3045.9313,151.0156 Q3046.5563,151.0156 3047.15,150.7422 Q3047.7438,150.4688 3048.3688,149.8906 L3048.3688,152.6094 Z "/><text fill="#000000" font-family="sans-serif" font-size="12" font-style="italic" lengthAdjust="spacingAndGlyphs" textLength="91" x="3093.6" y="144.1387">«masd::fluent»</text><text fill="#000000" font-family="sans-serif" font-size="12" lengthAdjust="spacingAndGlyphs" textLength="157" x="3060.6" y="158.1074">conversion_configuration</text><line style="stroke: #A80036; stroke-width: 1.5;" x1="3026" x2="3225" y1="165.9375" y2="165.9375"/><ellipse cx="3036" cy="176.9375" fill="none" rx="3" ry="3" style="stroke: #038048; stroke-width: 1.0;"/><text fill="#000000" font-family="sans-serif" font-size="11" lengthAdjust="spacingAndGlyphs" textLength="175" x="3045" y="180.1479">source boost::filesystem::path</text><ellipse cx="3036" cy="189.7422" fill="none" rx="3" ry="3" style="stroke: #038048; stroke-width: 1.0;"/><text fill="#000000" font-family="sans-serif" font-size="11" lengthAdjust="spacingAndGlyphs" textLength="126" x="3045" y="192.9526">destination std::string</text><line style="stroke: #A80036; stroke-width: 1.5;" x1="3026" x2="3225" y1="199.5469" y2="199.5469"/><path d="M2989,22.5 L2989,47.6328 A0,0 0 0 0 2989,47.6328 L3121.5,47.6328 L3125.5,127.94 L3129.5,47.6328 L3262,47.6328 A0,0 0 0 0 3262,47.6328 L3262,32.5 L3252,22.5 L2989,22.5 A0,0 0 0 0 2989,22.5 " fill="#FBFB77" filter="url(#fzsemw48ryve5)" style="stroke: #A80036; stroke-width: 1.0;"/><path d="M3252,22.5 L3252,32.5 L3262,32.5 L3252,22.5 " fill="#FBFB77" style="stroke: #A80036; stroke-width: 1.0;"/><text fill="#000000" font-family="sans-serif" font-size="13" lengthAdjust="spacingAndGlyphs" textLength="252" x="2995" y="39.5669">Configuration for the model conversion.</text><!--MD5=[0347ab94eab96366268c1ddf569cc58d]
class configuration_validator--><rect fill="#FFFACD" filter="url(#fzsemw48ryve5)" height="53.9375" id="configuration_validator" style="stroke: #A80036; stroke-width: 1.5;" width="230" x="74.5" y="141"/><rect fill="#FFFACD" height="37.9375" style="stroke: #A80036; stroke-width: 1.5;" width="230" x="74.5" y="141"/><ellipse cx="89.5" cy="159.9688" fill="#ADD1B2" rx="11" ry="11" style="stroke: #A80036; stroke-width: 1.0;"/><path d="M92.4688,165.6094 Q91.8906,165.9063 91.25,166.0547 Q90.6094,166.2031 89.9063,166.2031 Q87.4063,166.2031 86.0859,164.5547 Q84.7656,162.9063 84.7656,159.7813 Q84.7656,156.6563 86.0859,155 Q87.4063,153.3438 89.9063,153.3438 Q90.6094,153.3438 91.2578,153.5 Q91.9063,153.6563 92.4688,153.9531 L92.4688,156.6719 Q91.8438,156.0938 91.25,155.8203 Q90.6563,155.5469 90.0313,155.5469 Q88.6875,155.5469 88,156.6172 Q87.3125,157.6875 87.3125,159.7813 Q87.3125,161.875 88,162.9453 Q88.6875,164.0156 90.0313,164.0156 Q90.6563,164.0156 91.25,163.7422 Q91.8438,163.4688 92.4688,162.8906 L92.4688,165.6094 Z "/><text fill="#000000" font-family="sans-serif" font-size="12" font-style="italic" lengthAdjust="spacingAndGlyphs" textLength="202" x="101.5" y="157.1387">«dogen::handcrafted::typeable»</text><text fill="#000000" font-family="sans-serif" font-size="12" lengthAdjust="spacingAndGlyphs" textLength="143" x="131" y="171.1074">configuration_validator</text><line style="stroke: #A80036; stroke-width: 1.5;" x1="75.5" x2="303.5" y1="178.9375" y2="178.9375"/><line style="stroke: #A80036; stroke-width: 1.5;" x1="75.5" x2="303.5" y1="186.9375" y2="186.9375"/><!--MD5=[d54e5852ecfe164bbba509d3a9352ed8]
class initializer--><rect fill="#FFFACD" filter="url(#fzsemw48ryve5)" height="53.9375" id="initializer" style="stroke: #A80036; stroke-width: 1.5;" width="230" x="339.5" y="141"/><rect fill="#FFFACD" height="37.9375" style="stroke: #A80036; stroke-width: 1.5;" width="230" x="339.5" y="141"/><ellipse cx="354.5" cy="159.9688" fill="#ADD1B2" rx="11" ry="11" style="stroke: #A80036; stroke-width: 1.0;"/><path d="M357.4688,165.6094 Q356.8906,165.9063 356.25,166.0547 Q355.6094,166.2031 354.9063,166.2031 Q352.4063,166.2031 351.0859,164.5547 Q349.7656,162.9063 349.7656,159.7813 Q349.7656,156.6563 351.0859,155 Q352.4063,153.3438 354.9063,153.3438 Q355.6094,153.3438 356.2578,153.5 Q356.9063,153.6563 357.4688,153.9531 L357.4688,156.6719 Q356.8438,156.0938 356.25,155.8203 Q355.6563,155.5469 355.0313,155.5469 Q353.6875,155.5469 353,156.6172 Q352.3125,157.6875 352.3125,159.7813 Q352.3125,161.875 353,162.9453 Q353.6875,164.0156 355.0313,164.0156 Q355.6563,164.0156 356.25,163.7422 Q356.8438,163.4688 357.4688,162.8906 L357.4688,165.6094 Z "/><text fill="#000000" font-family="sans-serif" font-size="12" font-style="italic" lengthAdjust="spacingAndGlyphs" textLength="202" x="366.5" y="157.1387">«dogen::handcrafted::typeable»</text><text fill="#000000" font-family="sans-serif" font-size="12" lengthAdjust="spacingAndGlyphs" textLength="54" x="440.5" y="171.1074">initializer</text><line style="stroke: #A80036; stroke-width: 1.5;" x1="340.5" x2="568.5" y1="178.9375" y2="178.9375"/><line style="stroke: #A80036; stroke-width: 1.5;" x1="340.5" x2="568.5" y1="186.9375" y2="186.9375"/><!--MD5=[38493dad98929d929ee10f8669b423ff]
class cli_configuration--><rect fill="#F7E5FF" filter="url(#fzsemw48ryve5)" height="79.5469" id="cli_configuration" style="stroke: #A80036; stroke-width: 1.5;" width="611" x="3261" y="128"/><rect fill="#F7E5FF" height="37.9375" style="stroke: #A80036; stroke-width: 1.5;" width="611" x="3261" y="128"/><ellipse cx="3511.25" cy="146.9688" fill="#ADD1B2" rx="11" ry="11" style="stroke: #A80036; stroke-width: 1.0;"/><path d="M3514.2188,152.6094 Q3513.6406,152.9063 3513,153.0547 Q3512.3594,153.2031 3511.6563,153.2031 Q3509.1563,153.2031 3507.8359,151.5547 Q3506.5156,149.9063 3506.5156,146.7813 Q3506.5156,143.6563 3507.8359,142 Q3509.1563,140.3438 3511.6563,140.3438 Q3512.3594,140.3438 3513.0078,140.5 Q3513.6563,140.6563 3514.2188,140.9531 L3514.2188,143.6719 Q3513.5938,143.0938 3513,142.8203 Q3512.4063,142.5469 3511.7813,142.5469 Q3510.4375,142.5469 3509.75,143.6172 Q3509.0625,144.6875 3509.0625,146.7813 Q3509.0625,148.875 3509.75,149.9453 Q3510.4375,151.0156 3511.7813,151.0156 Q3512.4063,151.0156 3513,150.7422 Q3513.5938,150.4688 3514.2188,149.8906 L3514.2188,152.6094 Z "/><text fill="#000000" font-family="sans-serif" font-size="12" font-style="italic" lengthAdjust="spacingAndGlyphs" textLength="91" x="3537.25" y="144.1387">«masd::fluent»</text><text fill="#000000" font-family="sans-serif" font-size="12" lengthAdjust="spacingAndGlyphs" textLength="102" x="3531.75" y="158.1074">cli_configuration</text><line style="stroke: #A80036; stroke-width: 1.5;" x1="3262" x2="3871" y1="165.9375" y2="165.9375"/><ellipse cx="3272" cy="176.9375" fill="none" rx="3" ry="3" style="stroke: #038048; stroke-width: 1.0;"/><text fill="#000000" font-family="sans-serif" font-size="11" lengthAdjust="spacingAndGlyphs" textLength="585" x="3281" y="180.1479">activity boost::variant&lt;generation_configuration, conversion_configuration, dumpspecs_configuration&gt;</text><ellipse cx="3272" cy="189.7422" fill="none" rx="3" ry="3" style="stroke: #038048; stroke-width: 1.0;"/><text fill="#000000" font-family="sans-serif" font-size="11" lengthAdjust="spacingAndGlyphs" textLength="248" x="3281" y="192.9526">byproduct_directory boost::filesystem::path</text><line style="stroke: #A80036; stroke-width: 1.5;" x1="3262" x2="3871" y1="199.5469" y2="199.5469"/><path d="M3417,22.5 L3417,47.6328 A0,0 0 0 0 3417,47.6328 L3562.5,47.6328 L3566.5,127.94 L3570.5,47.6328 L3716,47.6328 A0,0 0 0 0 3716,47.6328 L3716,32.5 L3706,22.5 L3417,22.5 A0,0 0 0 0 3417,22.5 " fill="#FBFB77" filter="url(#fzsemw48ryve5)" style="stroke: #A80036; stroke-width: 1.0;"/><path d="M3706,22.5 L3706,32.5 L3716,32.5 L3706,22.5 " fill="#FBFB77" style="stroke: #A80036; stroke-width: 1.0;"/><text fill="#000000" font-family="sans-serif" font-size="13" lengthAdjust="spacingAndGlyphs" textLength="278" x="3423" y="39.5669">Configuration specific to the CLI application.</text><!--MD5=[4520fda4e10d4d791ce48fe025810cd4]
class main--><rect fill="#DDA9F3" filter="url(#fzsemw48ryve5)" height="53.9375" id="main" style="stroke: #A80036; stroke-width: 1.5;" width="154" x="604.5" y="141"/><rect fill="#DDA9F3" height="37.9375" style="stroke: #A80036; stroke-width: 1.5;" width="154" x="604.5" y="141"/><ellipse cx="619.5" cy="159.9688" fill="#ADD1B2" rx="11" ry="11" style="stroke: #A80036; stroke-width: 1.0;"/><path d="M622.4688,165.6094 Q621.8906,165.9063 621.25,166.0547 Q620.6094,166.2031 619.9063,166.2031 Q617.4063,166.2031 616.0859,164.5547 Q614.7656,162.9063 614.7656,159.7813 Q614.7656,156.6563 616.0859,155 Q617.4063,153.3438 619.9063,153.3438 Q620.6094,153.3438 621.2578,153.5 Q621.9063,153.6563 622.4688,153.9531 L622.4688,156.6719 Q621.8438,156.0938 621.25,155.8203 Q620.6563,155.5469 620.0313,155.5469 Q618.6875,155.5469 618,156.6172 Q617.3125,157.6875 617.3125,159.7813 Q617.3125,161.875 618,162.9453 Q618.6875,164.0156 620.0313,164.0156 Q620.6563,164.0156 621.25,163.7422 Q621.8438,163.4688 622.4688,162.8906 L622.4688,165.6094 Z "/><text fill="#000000" font-family="sans-serif" font-size="12" font-style="italic" lengthAdjust="spacingAndGlyphs" textLength="126" x="631.5" y="157.1387">«masd::entry_point»</text><text fill="#000000" font-family="sans-serif" font-size="12" lengthAdjust="spacingAndGlyphs" textLength="30" x="679.5" y="171.1074">main</text><line style="stroke: #A80036; stroke-width: 1.5;" x1="605.5" x2="757.5" y1="178.9375" y2="178.9375"/><line style="stroke: #A80036; stroke-width: 1.5;" x1="605.5" x2="757.5" y1="186.9375" y2="186.9375"/><!--MD5=[ba83386d426114557685538e96aa6f68]
class CMakeLists--><rect fill="#99CB99" filter="url(#fzsemw48ryve5)" height="53.9375" id="CMakeLists" style="stroke: #A80036; stroke-width: 1.5;" width="367" x="6" y="274"/><rect fill="#99CB99" height="37.9375" style="stroke: #A80036; stroke-width: 1.5;" width="367" x="6" y="274"/><ellipse cx="21" cy="292.9688" fill="#ADD1B2" rx="11" ry="11" style="stroke: #A80036; stroke-width: 1.0;"/><path d="M23.9688,298.6094 Q23.3906,298.9063 22.75,299.0547 Q22.1094,299.2031 21.4063,299.2031 Q18.9063,299.2031 17.5859,297.5547 Q16.2656,295.9063 16.2656,292.7813 Q16.2656,289.6563 17.5859,288 Q18.9063,286.3438 21.4063,286.3438 Q22.1094,286.3438 22.7578,286.5 Q23.4063,286.6563 23.9688,286.9531 L23.9688,289.6719 Q23.3438,289.0938 22.75,288.8203 Q22.1563,288.5469 21.5313,288.5469 Q20.1875,288.5469 19.5,289.6172 Q18.8125,290.6875 18.8125,292.7813 Q18.8125,294.875 19.5,295.9453 Q20.1875,297.0156 21.5313,297.0156 Q22.1563,297.0156 22.75,296.7422 Q23.3438,296.4688 23.9688,295.8906 L23.9688,298.6094 Z "/><text fill="#000000" font-family="sans-serif" font-size="12" font-style="italic" lengthAdjust="spacingAndGlyphs" textLength="339" x="33" y="290.1387">«masd::build::cmakelists, dogen::handcrafted::cmake»</text><text fill="#000000" font-family="sans-serif" font-size="12" lengthAdjust="spacingAndGlyphs" textLength="69" x="168" y="304.1074">CMakeLists</text><line style="stroke: #A80036; stroke-width: 1.5;" x1="7" x2="372" y1="311.9375" y2="311.9375"/><line style="stroke: #A80036; stroke-width: 1.5;" x1="7" x2="372" y1="319.9375" y2="319.9375"/><!--MD5=[2a9c6b040fa43722a67025e2e82f0947]
class dumpspecs_configuration--><rect fill="#F7E5FF" filter="url(#fzsemw48ryve5)" height="66.7422" id="dumpspecs_configuration" style="stroke: #A80036; stroke-width: 1.5;" width="193" x="3907" y="134.5"/><rect fill="#F7E5FF" height="37.9375" style="stroke: #A80036; stroke-width: 1.5;" width="193" x="3907" y="134.5"/><ellipse cx="3922" cy="153.4688" fill="#ADD1B2" rx="11" ry="11" style="stroke: #A80036; stroke-width: 1.0;"/><path d="M3924.9688,159.1094 Q3924.3906,159.4063 3923.75,159.5547 Q3923.1094,159.7031 3922.4063,159.7031 Q3919.9063,159.7031 3918.5859,158.0547 Q3917.2656,156.4063 3917.2656,153.2813 Q3917.2656,150.1563 3918.5859,148.5 Q3919.9063,146.8438 3922.4063,146.8438 Q3923.1094,146.8438 3923.7578,147 Q3924.4063,147.1563 3924.9688,147.4531 L3924.9688,150.1719 Q3924.3438,149.5938 3923.75,149.3203 Q3923.1563,149.0469 3922.5313,149.0469 Q3921.1875,149.0469 3920.5,150.1172 Q3919.8125,151.1875 3919.8125,153.2813 Q3919.8125,155.375 3920.5,156.4453 Q3921.1875,157.5156 3922.5313,157.5156 Q3923.1563,157.5156 3923.75,157.2422 Q3924.3438,156.9688 3924.9688,156.3906 L3924.9688,159.1094 Z "/><text fill="#000000" font-family="sans-serif" font-size="12" font-style="italic" lengthAdjust="spacingAndGlyphs" textLength="91" x="3971" y="150.6387">«masd::fluent»</text><text fill="#000000" font-family="sans-serif" font-size="12" lengthAdjust="spacingAndGlyphs" textLength="161" x="3936" y="164.6074">dumpspecs_configuration</text><line style="stroke: #A80036; stroke-width: 1.5;" x1="3908" x2="4099" y1="172.4375" y2="172.4375"/><ellipse cx="3918" cy="183.4375" fill="none" rx="3" ry="3" style="stroke: #038048; stroke-width: 1.0;"/><text fill="#000000" font-family="sans-serif" font-size="11" lengthAdjust="spacingAndGlyphs" textLength="116" x="3927" y="186.6479">style reporting_style</text><line style="stroke: #A80036; stroke-width: 1.5;" x1="3908" x2="4099" y1="193.2422" y2="193.2422"/><path d="M3837,22.5 L3837,47.6328 A0,0 0 0 0 3837,47.6328 L3999.5,47.6328 L4003.5,134.43 L4007.5,47.6328 L4170,47.6328 A0,0 0 0 0 4170,47.6328 L4170,32.5 L4160,22.5 L3837,22.5 A0,0 0 0 0 3837,22.5 " fill="#FBFB77" filter="url(#fzsemw48ryve5)" style="stroke: #A80036; stroke-width: 1.0;"/><path d="M4160,22.5 L4160,32.5 L4170,32.5 L4160,22.5 " fill="#FBFB77" style="stroke: #A80036; stroke-width: 1.0;"/><text fill="#000000" font-family="sans-serif" font-size="13" lengthAdjust="spacingAndGlyphs" textLength="312" x="3843" y="39.5669">Dumps all the specs about this version of dogen.</text><!--MD5=[397d303c4aab79a49b7a62974140bade]
reverse link command_line_parser to program_options_parser--><path d="M1534.5,82.48 C1534.5,102.08 1534.5,124.17 1534.5,140.85 " fill="none" id="command_line_parser&lt;-program_options_parser" style="stroke: #A80036; stroke-width: 1.0;"/><polygon fill="none" points="1527.5,82.19,1534.5,62.19,1541.5,82.19,1527.5,82.19" style="stroke: #A80036; stroke-width: 1.0;"/><!--MD5=[5e2cba153fc0abc57fbc295bdfce38f2]
link N1 to application--><!--MD5=[033776c0ad4adeb4491ff99639e273a7]
link application to injector_factory--><!--MD5=[32d063b567dc387265ef788e90bc1f00]
link N1 to configuration_validator--><!--MD5=[0b472ea8be862a3c05c5edab71e712b1]
link configuration_validator to initializer--><!--MD5=[5653eca4263751759b7327e12ef7a0aa]
link initializer to main--><!--MD5=[4aada21be9edfdbd4388308182f8d38a]
link configuration_validator to CMakeLists--><!--MD5=[7144fc6b1fffbd3763b14bce20d7fa2b]
@startuml
set namespaceSeparator ::
note as N1
Implements the command-line interface for Dogen.
end note

class parser_exception <<masd::exception>> #E8C2F8 {
}

note top of  parser_exception
A fatal error has occurred during option parsing.
end note

class application <<dogen::handcrafted::typeable>> #FFFACD {
}

class command_line_parser <<dogen::handcrafted::typeable::header_only>> #FFFACD {
}

class program_options_parser <<dogen::handcrafted::typeable>> #FFFACD {
}

command_line_parser <|- - program_options_parser
class injector_factory <<dogen::handcrafted::typeable::header_only>> #FFFACD {
}

class application_exception <<masd::exception>> #E8C2F8 {
}

note top of  application_exception
A fatal error has occurred whilst executing the application.
end note

class configuration #F7E5FF {
        +{field} logging boost::optional<utility::log::logging_configuration>
        +{field} api dogen::configuration
        +{field} cli cli_configuration
}

note top of  configuration
All of the configuration required by the command line application.
end note

class generation_configuration <<masd::fluent>> #F7E5FF {
        +{field} reference_model_directories std::vector<boost::filesystem::path>
        +{field} target boost::filesystem::path
        +{field} output_directory boost::filesystem::path
}

note top of  generation_configuration
Configuration related to code generation.
end note

class conversion_configuration <<masd::fluent>> #F7E5FF {
        +{field} source boost::filesystem::path
        +{field} destination std::string
}

note top of  conversion_configuration
Configuration for the model conversion.
end note

class configuration_validator <<dogen::handcrafted::typeable>> #FFFACD {
}

class initializer <<dogen::handcrafted::typeable>> #FFFACD {
}

class cli_configuration <<masd::fluent>> #F7E5FF {
        +{field} activity boost::variant<generation_configuration, conversion_configuration, dumpspecs_configuration>
        +{field} byproduct_directory boost::filesystem::path
}

note top of  cli_configuration
Configuration specific to the CLI application.
end note

class main <<masd::entry_point>> #DDA9F3 {
}

class CMakeLists <<masd::build::cmakelists, dogen::handcrafted::cmake>> #99CB99 {
}

class dumpspecs_configuration <<masd::fluent>> #F7E5FF {
        +{field} style reporting_style
}

note top of  dumpspecs_configuration
Dumps all the specs about this version of dogen.
end note

@enduml

PlantUML version 1.2020.02(Sun Mar 01 10:22:07 GMT 2020)
(GPL source distribution)
Java Runtime: OpenJDK Runtime Environment
JVM: OpenJDK 64-Bit Server VM
Java Version: 1.8.0_212-8u212-b03-2~deb9u1-b03
Operating System: Linux
Default Encoding: UTF-8
Language: en
Country: GB
--></g></svg>