<?xml version="1.0" encoding="UTF-8" standalone="no"?><svg xmlns="http://www.w3.org/2000/svg" xmlns:xlink="http://www.w3.org/1999/xlink" contentScriptType="application/ecmascript" contentStyleType="text/css" height="1608px" preserveAspectRatio="none" style="width:1383px;height:1608px;" version="1.1" viewBox="0 0 1383 1608" width="1383px" zoomAndPan="magnify"><defs><filter height="300%" id="f1pve08rksv019" width="300%" x="-1" y="-1"><feGaussianBlur result="blurOut" stdDeviation="2.0"/><feColorMatrix in="blurOut" result="blurOut2" type="matrix" values="0 0 0 0 0 0 0 0 0 0 0 0 0 0 0 0 0 0 .4 0"/><feOffset dx="4.0" dy="4.0" in="blurOut2" result="blurOut3"/><feBlend in="SourceGraphic" in2="blurOut3" mode="normal"/></filter></defs><g><path d="M6,8 L6,1152.9609 L558,1152.9609 L558,18 L548,8 L6,8 " fill="#FBFB77" filter="url(#f1pve08rksv019)" style="stroke: #A80036; stroke-width: 1.0;"/><path d="M548,8 L548,18 L558,18 L548,8 " fill="#FBFB77" style="stroke: #A80036; stroke-width: 1.0;"/><text fill="#000000" font-family="sans-serif" font-size="13" lengthAdjust="spacingAndGlyphs" textLength="0" x="16" y="25.0669"/><text fill="#000000" font-family="sans-serif" font-size="13" lengthAdjust="spacingAndGlyphs" textLength="427" x="12" y="40.1997">Codec.Dia is a unidirectional transformation model that transforms</text><text fill="#000000" font-family="sans-serif" font-size="13" lengthAdjust="spacingAndGlyphs" textLength="278" x="12" y="55.3325">a Dia @e diagram into an codec @e model.</text><text fill="#000000" font-family="sans-serif" font-size="13" lengthAdjust="spacingAndGlyphs" textLength="0" x="16" y="70.4653"/><text fill="#000000" font-family="sans-serif" font-size="13" lengthAdjust="spacingAndGlyphs" textLength="492" x="12" y="85.5981">By that we mean that it is a model designed to transform a representation of</text><text fill="#000000" font-family="sans-serif" font-size="13" lengthAdjust="spacingAndGlyphs" textLength="476" x="12" y="100.731">a user model in Dia diagram format to its counterpart in the codec format,</text><text fill="#000000" font-family="sans-serif" font-size="13" lengthAdjust="spacingAndGlyphs" textLength="531" x="12" y="115.8638">taking into account any special masd meta-data which the user may have encoded</text><text fill="#000000" font-family="sans-serif" font-size="13" lengthAdjust="spacingAndGlyphs" textLength="522" x="12" y="130.9966">into the Dia diagram. Note that the Dia diagram format contains a representation</text><text fill="#000000" font-family="sans-serif" font-size="13" lengthAdjust="spacingAndGlyphs" textLength="457" x="12" y="146.1294">of UML. We pass that meta-data straight through into the codec model,</text><text fill="#000000" font-family="sans-serif" font-size="13" lengthAdjust="spacingAndGlyphs" textLength="197" x="12" y="161.2622">without any further processing.</text><text fill="#000000" font-family="sans-serif" font-size="13" lengthAdjust="spacingAndGlyphs" textLength="0" x="16" y="176.395"/><text fill="#000000" font-family="sans-serif" font-size="13" lengthAdjust="spacingAndGlyphs" textLength="290" x="12" y="191.5278">@section codec_dia_0 Dia diagrams as DAGs</text><text fill="#000000" font-family="sans-serif" font-size="13" lengthAdjust="spacingAndGlyphs" textLength="0" x="16" y="206.6606"/><text fill="#000000" font-family="sans-serif" font-size="13" lengthAdjust="spacingAndGlyphs" textLength="467" x="12" y="221.7935">Dia diagrams are made up of @e objects, identified by IDs. These objects</text><text fill="#000000" font-family="sans-serif" font-size="13" lengthAdjust="spacingAndGlyphs" textLength="470" x="12" y="236.9263">contain a number of UML model elements, which we are interested in. For</text><text fill="#000000" font-family="sans-serif" font-size="13" lengthAdjust="spacingAndGlyphs" textLength="58" x="12" y="252.0591">instance:</text><text fill="#000000" font-family="sans-serif" font-size="13" lengthAdjust="spacingAndGlyphs" textLength="0" x="16" y="267.1919"/><text fill="#000000" font-family="sans-serif" font-size="13" lengthAdjust="spacingAndGlyphs" textLength="87" x="12" y="282.3247">@li UML class</text><text fill="#000000" font-family="sans-serif" font-size="13" lengthAdjust="spacingAndGlyphs" textLength="145" x="12" y="297.4575">@li UML generalisation</text><text fill="#000000" font-family="sans-serif" font-size="13" lengthAdjust="spacingAndGlyphs" textLength="91" x="12" y="312.5903">@li UML notes</text><text fill="#000000" font-family="sans-serif" font-size="13" lengthAdjust="spacingAndGlyphs" textLength="0" x="16" y="327.7231"/><text fill="#000000" font-family="sans-serif" font-size="13" lengthAdjust="spacingAndGlyphs" textLength="444" x="12" y="342.856">and so on. Each of these objects will contribute to am codec element.</text><text fill="#000000" font-family="sans-serif" font-size="13" lengthAdjust="spacingAndGlyphs" textLength="449" x="12" y="357.9888">However, we need to be aware of object containment - e.g. if a class is</text><text fill="#000000" font-family="sans-serif" font-size="13" lengthAdjust="spacingAndGlyphs" textLength="500" x="12" y="373.1216">contained in a package. This is because the codec element names are scoped</text><text fill="#000000" font-family="sans-serif" font-size="13" lengthAdjust="spacingAndGlyphs" textLength="491" x="12" y="388.2544">by the packages. So, to make our life easier we created a DAG of Dia objects</text><text fill="#000000" font-family="sans-serif" font-size="13" lengthAdjust="spacingAndGlyphs" textLength="498" x="12" y="403.3872">that provides us with the information in dependency order. That is, we process</text><text fill="#000000" font-family="sans-serif" font-size="13" lengthAdjust="spacingAndGlyphs" textLength="519" x="12" y="418.52">dia objects in such a way that when a dependency exists, we know that the object</text><text fill="#000000" font-family="sans-serif" font-size="13" lengthAdjust="spacingAndGlyphs" textLength="525" x="12" y="433.6528">in which we depend on has already been processed. Please note that to ensure no</text><text fill="#000000" font-family="sans-serif" font-size="13" lengthAdjust="spacingAndGlyphs" textLength="487" x="12" y="448.7856">cycles we had to ignore some of the UML objects such as UML aggregation -</text><text fill="#000000" font-family="sans-serif" font-size="13" lengthAdjust="spacingAndGlyphs" textLength="441" x="12" y="463.9185">but fortunately, these objects do not provide sufficient information as</text><text fill="#000000" font-family="sans-serif" font-size="13" lengthAdjust="spacingAndGlyphs" textLength="491" x="12" y="479.0513">required for dogen transformations, so not much was lost. Instead, one must</text><text fill="#000000" font-family="sans-serif" font-size="13" lengthAdjust="spacingAndGlyphs" textLength="242" x="12" y="494.1841">manually declare attributes in a class.</text><text fill="#000000" font-family="sans-serif" font-size="13" lengthAdjust="spacingAndGlyphs" textLength="0" x="16" y="509.3169"/><text fill="#000000" font-family="sans-serif" font-size="13" lengthAdjust="spacingAndGlyphs" textLength="361" x="12" y="524.4497">See @ref grapher for details on how the the DAG is built.</text><text fill="#000000" font-family="sans-serif" font-size="13" lengthAdjust="spacingAndGlyphs" textLength="0" x="16" y="539.5825"/><text fill="#000000" font-family="sans-serif" font-size="13" lengthAdjust="spacingAndGlyphs" textLength="301" x="12" y="554.7153">@section codec_dia_1 Intermediate processing</text><text fill="#000000" font-family="sans-serif" font-size="13" lengthAdjust="spacingAndGlyphs" textLength="0" x="16" y="569.8481"/><text fill="#000000" font-family="sans-serif" font-size="13" lengthAdjust="spacingAndGlyphs" textLength="464" x="12" y="584.981">To make the code easier to read and maintain, we created a numeber of</text><text fill="#000000" font-family="sans-serif" font-size="13" lengthAdjust="spacingAndGlyphs" textLength="419" x="12" y="600.1138">intermediate stages between a Dia diagram and an codec model:</text><text fill="#000000" font-family="sans-serif" font-size="13" lengthAdjust="spacingAndGlyphs" textLength="0" x="16" y="615.2466"/><text fill="#000000" font-family="sans-serif" font-size="13" lengthAdjust="spacingAndGlyphs" textLength="402" x="12" y="630.3794">@li Dia object -&gt; processed object -&gt; profile -&gt; codec element</text><text fill="#000000" font-family="sans-serif" font-size="13" lengthAdjust="spacingAndGlyphs" textLength="0" x="16" y="645.5122"/><text fill="#000000" font-family="sans-serif" font-size="13" lengthAdjust="spacingAndGlyphs" textLength="439" x="12" y="660.645">This may look a bit excessive at first glance, but it was done because</text><text fill="#000000" font-family="sans-serif" font-size="13" lengthAdjust="spacingAndGlyphs" textLength="443" x="12" y="675.7778">the shape of the Dia objects is a bit too generic for our purposes, and</text><text fill="#000000" font-family="sans-serif" font-size="13" lengthAdjust="spacingAndGlyphs" textLength="437" x="12" y="690.9106">the resulting processing code was full of loops and look-ups. Instead,</text><text fill="#000000" font-family="sans-serif" font-size="13" lengthAdjust="spacingAndGlyphs" textLength="454" x="12" y="706.0435">we make the generic Dia object into a very concrete processed object -</text><text fill="#000000" font-family="sans-serif" font-size="13" lengthAdjust="spacingAndGlyphs" textLength="446" x="12" y="721.1763">still preserving most of the semantics of Dia - and then from those we</text><text fill="#000000" font-family="sans-serif" font-size="13" lengthAdjust="spacingAndGlyphs" textLength="425" x="12" y="736.3091">build a profile. A profile allows us to quickly scan for UML and masd</text><text fill="#000000" font-family="sans-serif" font-size="13" lengthAdjust="spacingAndGlyphs" textLength="431" x="12" y="751.4419">type information without getting lost in the intricacies of the generic</text><text fill="#000000" font-family="sans-serif" font-size="13" lengthAdjust="spacingAndGlyphs" textLength="414" x="12" y="766.5747">Dia structure. With these in hand, the @ref transformer is able to</text><text fill="#000000" font-family="sans-serif" font-size="13" lengthAdjust="spacingAndGlyphs" textLength="446" x="12" y="781.7075">create the corresponding masd entity, and the transformation code is</text><text fill="#000000" font-family="sans-serif" font-size="13" lengthAdjust="spacingAndGlyphs" textLength="88" x="12" y="796.8403">not obscured.</text><text fill="#000000" font-family="sans-serif" font-size="13" lengthAdjust="spacingAndGlyphs" textLength="0" x="16" y="811.9731"/><text fill="#000000" font-family="sans-serif" font-size="13" lengthAdjust="spacingAndGlyphs" textLength="239" x="12" y="827.106">@section codec_dia_2 Dia meta-data</text><text fill="#000000" font-family="sans-serif" font-size="13" lengthAdjust="spacingAndGlyphs" textLength="0" x="16" y="842.2388"/><text fill="#000000" font-family="sans-serif" font-size="13" lengthAdjust="spacingAndGlyphs" textLength="424" x="12" y="857.3716">There are a couple of conventions on how to model in Dia that one</text><text fill="#000000" font-family="sans-serif" font-size="13" lengthAdjust="spacingAndGlyphs" textLength="294" x="12" y="872.5044">needs to follow in order to comply with Dogen:</text><text fill="#000000" font-family="sans-serif" font-size="13" lengthAdjust="spacingAndGlyphs" textLength="0" x="16" y="887.6372"/><text fill="#000000" font-family="sans-serif" font-size="13" lengthAdjust="spacingAndGlyphs" textLength="421" x="12" y="902.77">@li any public attribute in a class is automatically converted into a</text><text fill="#000000" font-family="sans-serif" font-size="13" lengthAdjust="spacingAndGlyphs" textLength="432" x="12" y="917.9028">masd property rather than a member variable. This means that it is</text><text fill="#000000" font-family="sans-serif" font-size="13" lengthAdjust="spacingAndGlyphs" textLength="342" x="12" y="933.0356">expected that a getter and a setter will be generated.</text><text fill="#000000" font-family="sans-serif" font-size="13" lengthAdjust="spacingAndGlyphs" textLength="0" x="16" y="948.1685"/><text fill="#000000" font-family="sans-serif" font-size="13" lengthAdjust="spacingAndGlyphs" textLength="441" x="12" y="963.3013">@li a number of stereotypes were added, as per the definitions in the</text><text fill="#000000" font-family="sans-serif" font-size="13" lengthAdjust="spacingAndGlyphs" textLength="369" x="12" y="978.4341">MASD UML profile. For details, see the Dogen UML profile.</text><text fill="#000000" font-family="sans-serif" font-size="13" lengthAdjust="spacingAndGlyphs" textLength="0" x="16" y="993.5669"/><text fill="#000000" font-family="sans-serif" font-size="13" lengthAdjust="spacingAndGlyphs" textLength="466" x="12" y="1008.6997">@li any type without any stereotype assumes a default stereotype, again</text><text fill="#000000" font-family="sans-serif" font-size="13" lengthAdjust="spacingAndGlyphs" textLength="162" x="12" y="1023.8325">as per MASD UML profile.</text><text fill="#000000" font-family="sans-serif" font-size="13" lengthAdjust="spacingAndGlyphs" textLength="0" x="16" y="1038.9653"/><text fill="#000000" font-family="sans-serif" font-size="13" lengthAdjust="spacingAndGlyphs" textLength="510" x="12" y="1054.0981">@li any UML Note with the marker #DOGEN masd.codec.dia.comment=true will</text><text fill="#000000" font-family="sans-serif" font-size="13" lengthAdjust="spacingAndGlyphs" textLength="455" x="12" y="1069.231">be used as the documentation of the current package - or the model, if</text><text fill="#000000" font-family="sans-serif" font-size="13" lengthAdjust="spacingAndGlyphs" textLength="438" x="12" y="1084.3638">place at the top-level. Only one such note is expected per containing</text><text fill="#000000" font-family="sans-serif" font-size="13" lengthAdjust="spacingAndGlyphs" textLength="40" x="12" y="1099.4966">entity.</text><text fill="#000000" font-family="sans-serif" font-size="13" lengthAdjust="spacingAndGlyphs" textLength="0" x="16" y="1114.6294"/><text fill="#000000" font-family="sans-serif" font-size="13" lengthAdjust="spacingAndGlyphs" textLength="365" x="12" y="1129.7622">For details on the stereotypes see the MASD UML profile.</text><text fill="#000000" font-family="sans-serif" font-size="13" lengthAdjust="spacingAndGlyphs" textLength="0" x="16" y="1144.895"/><!--MD5=[23e630ca6c82b7c7dc851c94ac635fd8]
class adaptation_error--><rect fill="#E8C2F8" filter="url(#f1pve08rksv019)" height="53.9375" id="adaptation_error" style="stroke: #A80036; stroke-width: 1.5;" width="145" x="593.5" y="553.5"/><rect fill="#E8C2F8" height="37.9375" style="stroke: #A80036; stroke-width: 1.5;" width="145" x="593.5" y="553.5"/><ellipse cx="608.5" cy="572.4688" fill="#ADD1B2" rx="11" ry="11" style="stroke: #A80036; stroke-width: 1.0;"/><path d="M611.4688,578.1094 Q610.8906,578.4063 610.25,578.5547 Q609.6094,578.7031 608.9063,578.7031 Q606.4063,578.7031 605.0859,577.0547 Q603.7656,575.4063 603.7656,572.2813 Q603.7656,569.1563 605.0859,567.5 Q606.4063,565.8438 608.9063,565.8438 Q609.6094,565.8438 610.2578,566 Q610.9063,566.1563 611.4688,566.4531 L611.4688,569.1719 Q610.8438,568.5938 610.25,568.3203 Q609.6563,568.0469 609.0313,568.0469 Q607.6875,568.0469 607,569.1172 Q606.3125,570.1875 606.3125,572.2813 Q606.3125,574.375 607,575.4453 Q607.6875,576.5156 609.0313,576.5156 Q609.6563,576.5156 610.25,576.2422 Q610.8438,575.9688 611.4688,575.3906 L611.4688,578.1094 Z "/><text fill="#000000" font-family="sans-serif" font-size="12" font-style="italic" lengthAdjust="spacingAndGlyphs" textLength="117" x="620.5" y="569.6387">«masd::exception»</text><text fill="#000000" font-family="sans-serif" font-size="12" lengthAdjust="spacingAndGlyphs" textLength="106" x="626" y="583.6074">adaptation_error</text><line style="stroke: #A80036; stroke-width: 1.5;" x1="594.5" x2="737.5" y1="591.4375" y2="591.4375"/><line style="stroke: #A80036; stroke-width: 1.5;" x1="594.5" x2="737.5" y1="599.4375" y2="599.4375"/><!--MD5=[48691ffdecf0bb84b50fe17624489db4]
class grapher--><rect fill="#FFFACD" filter="url(#f1pve08rksv019)" height="53.9375" id="grapher" style="stroke: #A80036; stroke-width: 1.5;" width="230" x="774" y="553.5"/><rect fill="#FFFACD" height="37.9375" style="stroke: #A80036; stroke-width: 1.5;" width="230" x="774" y="553.5"/><ellipse cx="789" cy="572.4688" fill="#ADD1B2" rx="11" ry="11" style="stroke: #A80036; stroke-width: 1.0;"/><path d="M791.9688,578.1094 Q791.3906,578.4063 790.75,578.5547 Q790.1094,578.7031 789.4063,578.7031 Q786.9063,578.7031 785.5859,577.0547 Q784.2656,575.4063 784.2656,572.2813 Q784.2656,569.1563 785.5859,567.5 Q786.9063,565.8438 789.4063,565.8438 Q790.1094,565.8438 790.7578,566 Q791.4063,566.1563 791.9688,566.4531 L791.9688,569.1719 Q791.3438,568.5938 790.75,568.3203 Q790.1563,568.0469 789.5313,568.0469 Q788.1875,568.0469 787.5,569.1172 Q786.8125,570.1875 786.8125,572.2813 Q786.8125,574.375 787.5,575.4453 Q788.1875,576.5156 789.5313,576.5156 Q790.1563,576.5156 790.75,576.2422 Q791.3438,575.9688 791.9688,575.3906 L791.9688,578.1094 Z "/><text fill="#000000" font-family="sans-serif" font-size="12" font-style="italic" lengthAdjust="spacingAndGlyphs" textLength="202" x="801" y="569.6387">«dogen::handcrafted::typeable»</text><text fill="#000000" font-family="sans-serif" font-size="12" lengthAdjust="spacingAndGlyphs" textLength="50" x="877" y="583.6074">grapher</text><line style="stroke: #A80036; stroke-width: 1.5;" x1="775" x2="1003" y1="591.4375" y2="591.4375"/><line style="stroke: #A80036; stroke-width: 1.5;" x1="775" x2="1003" y1="599.4375" y2="599.4375"/><!--MD5=[51493b6577cae51e930d5f0ef0b9be70]
class graphing_error--><rect fill="#E8C2F8" filter="url(#f1pve08rksv019)" height="53.9375" id="graphing_error" style="stroke: #A80036; stroke-width: 1.5;" width="145" x="1039.5" y="553.5"/><rect fill="#E8C2F8" height="37.9375" style="stroke: #A80036; stroke-width: 1.5;" width="145" x="1039.5" y="553.5"/><ellipse cx="1054.5" cy="572.4688" fill="#ADD1B2" rx="11" ry="11" style="stroke: #A80036; stroke-width: 1.0;"/><path d="M1057.4688,578.1094 Q1056.8906,578.4063 1056.25,578.5547 Q1055.6094,578.7031 1054.9063,578.7031 Q1052.4063,578.7031 1051.0859,577.0547 Q1049.7656,575.4063 1049.7656,572.2813 Q1049.7656,569.1563 1051.0859,567.5 Q1052.4063,565.8438 1054.9063,565.8438 Q1055.6094,565.8438 1056.2578,566 Q1056.9063,566.1563 1057.4688,566.4531 L1057.4688,569.1719 Q1056.8438,568.5938 1056.25,568.3203 Q1055.6563,568.0469 1055.0313,568.0469 Q1053.6875,568.0469 1053,569.1172 Q1052.3125,570.1875 1052.3125,572.2813 Q1052.3125,574.375 1053,575.4453 Q1053.6875,576.5156 1055.0313,576.5156 Q1055.6563,576.5156 1056.25,576.2422 Q1056.8438,575.9688 1057.4688,575.3906 L1057.4688,578.1094 Z "/><text fill="#000000" font-family="sans-serif" font-size="12" font-style="italic" lengthAdjust="spacingAndGlyphs" textLength="117" x="1066.5" y="569.6387">«masd::exception»</text><text fill="#000000" font-family="sans-serif" font-size="12" lengthAdjust="spacingAndGlyphs" textLength="93" x="1078.5" y="583.6074">graphing_error</text><line style="stroke: #A80036; stroke-width: 1.5;" x1="1040.5" x2="1183.5" y1="591.4375" y2="591.4375"/><line style="stroke: #A80036; stroke-width: 1.5;" x1="1040.5" x2="1183.5" y1="599.4375" y2="599.4375"/><!--MD5=[f2b5b02ff9086b2c47c96fbb0d01b42f]
class processed_comment_factory--><rect fill="#FFFACD" filter="url(#f1pve08rksv019)" height="53.9375" id="processed_comment_factory" style="stroke: #A80036; stroke-width: 1.5;" width="230" x="167" y="1258"/><rect fill="#FFFACD" height="37.9375" style="stroke: #A80036; stroke-width: 1.5;" width="230" x="167" y="1258"/><ellipse cx="182" cy="1276.9688" fill="#ADD1B2" rx="11" ry="11" style="stroke: #A80036; stroke-width: 1.0;"/><path d="M184.9688,1282.6094 Q184.3906,1282.9063 183.75,1283.0547 Q183.1094,1283.2031 182.4063,1283.2031 Q179.9063,1283.2031 178.5859,1281.5547 Q177.2656,1279.9063 177.2656,1276.7813 Q177.2656,1273.6563 178.5859,1272 Q179.9063,1270.3438 182.4063,1270.3438 Q183.1094,1270.3438 183.7578,1270.5 Q184.4063,1270.6563 184.9688,1270.9531 L184.9688,1273.6719 Q184.3438,1273.0938 183.75,1272.8203 Q183.1563,1272.5469 182.5313,1272.5469 Q181.1875,1272.5469 180.5,1273.6172 Q179.8125,1274.6875 179.8125,1276.7813 Q179.8125,1278.875 180.5,1279.9453 Q181.1875,1281.0156 182.5313,1281.0156 Q183.1563,1281.0156 183.75,1280.7422 Q184.3438,1280.4688 184.9688,1279.8906 L184.9688,1282.6094 Z "/><text fill="#000000" font-family="sans-serif" font-size="12" font-style="italic" lengthAdjust="spacingAndGlyphs" textLength="202" x="194" y="1274.1387">«dogen::handcrafted::typeable»</text><text fill="#000000" font-family="sans-serif" font-size="12" lengthAdjust="spacingAndGlyphs" textLength="179" x="205.5" y="1288.1074">processed_comment_factory</text><line style="stroke: #A80036; stroke-width: 1.5;" x1="168" x2="396" y1="1295.9375" y2="1295.9375"/><line style="stroke: #A80036; stroke-width: 1.5;" x1="168" x2="396" y1="1303.9375" y2="1303.9375"/><!--MD5=[e5e3399aff559066195c1891e711dd2f]
class processed_object_factory--><rect fill="#FFFACD" filter="url(#f1pve08rksv019)" height="53.9375" id="processed_object_factory" style="stroke: #A80036; stroke-width: 1.5;" width="230" x="432" y="1258"/><rect fill="#FFFACD" height="37.9375" style="stroke: #A80036; stroke-width: 1.5;" width="230" x="432" y="1258"/><ellipse cx="447" cy="1276.9688" fill="#ADD1B2" rx="11" ry="11" style="stroke: #A80036; stroke-width: 1.0;"/><path d="M449.9688,1282.6094 Q449.3906,1282.9063 448.75,1283.0547 Q448.1094,1283.2031 447.4063,1283.2031 Q444.9063,1283.2031 443.5859,1281.5547 Q442.2656,1279.9063 442.2656,1276.7813 Q442.2656,1273.6563 443.5859,1272 Q444.9063,1270.3438 447.4063,1270.3438 Q448.1094,1270.3438 448.7578,1270.5 Q449.4063,1270.6563 449.9688,1270.9531 L449.9688,1273.6719 Q449.3438,1273.0938 448.75,1272.8203 Q448.1563,1272.5469 447.5313,1272.5469 Q446.1875,1272.5469 445.5,1273.6172 Q444.8125,1274.6875 444.8125,1276.7813 Q444.8125,1278.875 445.5,1279.9453 Q446.1875,1281.0156 447.5313,1281.0156 Q448.1563,1281.0156 448.75,1280.7422 Q449.3438,1280.4688 449.9688,1279.8906 L449.9688,1282.6094 Z "/><text fill="#000000" font-family="sans-serif" font-size="12" font-style="italic" lengthAdjust="spacingAndGlyphs" textLength="202" x="459" y="1274.1387">«dogen::handcrafted::typeable»</text><text fill="#000000" font-family="sans-serif" font-size="12" lengthAdjust="spacingAndGlyphs" textLength="160" x="480" y="1288.1074">processed_object_factory</text><line style="stroke: #A80036; stroke-width: 1.5;" x1="433" x2="661" y1="1295.9375" y2="1295.9375"/><line style="stroke: #A80036; stroke-width: 1.5;" x1="433" x2="661" y1="1303.9375" y2="1303.9375"/><!--MD5=[db5ff0407019eb4d0b5a194f15714493]
class dia_object_types--><rect fill="#F2DAFD" filter="url(#f1pve08rksv019)" height="143.5703" id="dia_object_types" style="stroke: #A80036; stroke-width: 1.5;" width="163" x="697.5" y="1213"/><rect fill="#F2DAFD" height="37.9375" style="stroke: #A80036; stroke-width: 1.5;" width="163" x="697.5" y="1213"/><ellipse cx="712.5" cy="1231.9688" fill="#EB937F" rx="11" ry="11" style="stroke: #A80036; stroke-width: 1.0;"/><path d="M716.6094,1237.9688 L708.8906,1237.9688 L708.8906,1225.5781 L716.6094,1225.5781 L716.6094,1227.7344 L711.3438,1227.7344 L711.3438,1230.4063 L716.1094,1230.4063 L716.1094,1232.5625 L711.3438,1232.5625 L711.3438,1235.8125 L716.6094,1235.8125 L716.6094,1237.9688 Z "/><text fill="#000000" font-family="sans-serif" font-size="12" font-style="italic" lengthAdjust="spacingAndGlyphs" textLength="135" x="724.5" y="1229.1387">«masd::enumeration»</text><text fill="#000000" font-family="sans-serif" font-size="12" lengthAdjust="spacingAndGlyphs" textLength="104" x="740" y="1243.1074">dia_object_types</text><line style="stroke: #A80036; stroke-width: 1.5;" x1="698.5" x2="859.5" y1="1250.9375" y2="1250.9375"/><ellipse cx="708.5" cy="1261.9375" fill="none" rx="3" ry="3" style="stroke: #038048; stroke-width: 1.0;"/><text fill="#000000" font-family="sans-serif" font-size="11" lengthAdjust="spacingAndGlyphs" textLength="109" x="717.5" y="1265.1479">uml_large_package</text><ellipse cx="708.5" cy="1274.7422" fill="none" rx="3" ry="3" style="stroke: #038048; stroke-width: 1.0;"/><text fill="#000000" font-family="sans-serif" font-size="11" lengthAdjust="spacingAndGlyphs" textLength="57" x="717.5" y="1277.9526">uml_class</text><ellipse cx="708.5" cy="1287.5469" fill="none" rx="3" ry="3" style="stroke: #038048; stroke-width: 1.0;"/><text fill="#000000" font-family="sans-serif" font-size="11" lengthAdjust="spacingAndGlyphs" textLength="106" x="717.5" y="1290.7573">uml_generalization</text><ellipse cx="708.5" cy="1300.3516" fill="none" rx="3" ry="3" style="stroke: #038048; stroke-width: 1.0;"/><text fill="#000000" font-family="sans-serif" font-size="11" lengthAdjust="spacingAndGlyphs" textLength="92" x="717.5" y="1303.562">uml_association</text><ellipse cx="708.5" cy="1313.1563" fill="none" rx="3" ry="3" style="stroke: #038048; stroke-width: 1.0;"/><text fill="#000000" font-family="sans-serif" font-size="11" lengthAdjust="spacingAndGlyphs" textLength="52" x="717.5" y="1316.3667">uml_note</text><ellipse cx="708.5" cy="1325.9609" fill="none" rx="3" ry="3" style="stroke: #038048; stroke-width: 1.0;"/><text fill="#000000" font-family="sans-serif" font-size="11" lengthAdjust="spacingAndGlyphs" textLength="80" x="717.5" y="1329.1714">uml_message</text><ellipse cx="708.5" cy="1338.7656" fill="none" rx="3" ry="3" style="stroke: #038048; stroke-width: 1.0;"/><text fill="#000000" font-family="sans-serif" font-size="11" lengthAdjust="spacingAndGlyphs" textLength="85" x="717.5" y="1341.9761">uml_realization</text><line style="stroke: #A80036; stroke-width: 1.5;" x1="698.5" x2="859.5" y1="1348.5703" y2="1348.5703"/><!--MD5=[ee46f31f5c48a20c020492ba54f8a441]
class validator--><rect fill="#FFFACD" filter="url(#f1pve08rksv019)" height="53.9375" id="validator" style="stroke: #A80036; stroke-width: 1.5;" width="230" x="896" y="1258"/><rect fill="#FFFACD" height="37.9375" style="stroke: #A80036; stroke-width: 1.5;" width="230" x="896" y="1258"/><ellipse cx="911" cy="1276.9688" fill="#ADD1B2" rx="11" ry="11" style="stroke: #A80036; stroke-width: 1.0;"/><path d="M913.9688,1282.6094 Q913.3906,1282.9063 912.75,1283.0547 Q912.1094,1283.2031 911.4063,1283.2031 Q908.9063,1283.2031 907.5859,1281.5547 Q906.2656,1279.9063 906.2656,1276.7813 Q906.2656,1273.6563 907.5859,1272 Q908.9063,1270.3438 911.4063,1270.3438 Q912.1094,1270.3438 912.7578,1270.5 Q913.4063,1270.6563 913.9688,1270.9531 L913.9688,1273.6719 Q913.3438,1273.0938 912.75,1272.8203 Q912.1563,1272.5469 911.5313,1272.5469 Q910.1875,1272.5469 909.5,1273.6172 Q908.8125,1274.6875 908.8125,1276.7813 Q908.8125,1278.875 909.5,1279.9453 Q910.1875,1281.0156 911.5313,1281.0156 Q912.1563,1281.0156 912.75,1280.7422 Q913.3438,1280.4688 913.9688,1279.8906 L913.9688,1282.6094 Z "/><text fill="#000000" font-family="sans-serif" font-size="12" font-style="italic" lengthAdjust="spacingAndGlyphs" textLength="202" x="923" y="1274.1387">«dogen::handcrafted::typeable»</text><text fill="#000000" font-family="sans-serif" font-size="12" lengthAdjust="spacingAndGlyphs" textLength="54" x="997" y="1288.1074">validator</text><line style="stroke: #A80036; stroke-width: 1.5;" x1="897" x2="1125" y1="1295.9375" y2="1295.9375"/><line style="stroke: #A80036; stroke-width: 1.5;" x1="897" x2="1125" y1="1303.9375" y2="1303.9375"/><!--MD5=[944a2762daaee675a67a33b84c2dd070]
class validation_error--><rect fill="#E8C2F8" filter="url(#f1pve08rksv019)" height="53.9375" id="validation_error" style="stroke: #A80036; stroke-width: 1.5;" width="145" x="209.5" y="1423.5"/><rect fill="#E8C2F8" height="37.9375" style="stroke: #A80036; stroke-width: 1.5;" width="145" x="209.5" y="1423.5"/><ellipse cx="224.5" cy="1442.4688" fill="#ADD1B2" rx="11" ry="11" style="stroke: #A80036; stroke-width: 1.0;"/><path d="M227.4688,1448.1094 Q226.8906,1448.4063 226.25,1448.5547 Q225.6094,1448.7031 224.9063,1448.7031 Q222.4063,1448.7031 221.0859,1447.0547 Q219.7656,1445.4063 219.7656,1442.2813 Q219.7656,1439.1563 221.0859,1437.5 Q222.4063,1435.8438 224.9063,1435.8438 Q225.6094,1435.8438 226.2578,1436 Q226.9063,1436.1563 227.4688,1436.4531 L227.4688,1439.1719 Q226.8438,1438.5938 226.25,1438.3203 Q225.6563,1438.0469 225.0313,1438.0469 Q223.6875,1438.0469 223,1439.1172 Q222.3125,1440.1875 222.3125,1442.2813 Q222.3125,1444.375 223,1445.4453 Q223.6875,1446.5156 225.0313,1446.5156 Q225.6563,1446.5156 226.25,1446.2422 Q226.8438,1445.9688 227.4688,1445.3906 L227.4688,1448.1094 Z "/><text fill="#000000" font-family="sans-serif" font-size="12" font-style="italic" lengthAdjust="spacingAndGlyphs" textLength="117" x="236.5" y="1439.6387">«masd::exception»</text><text fill="#000000" font-family="sans-serif" font-size="12" lengthAdjust="spacingAndGlyphs" textLength="97" x="246.5" y="1453.6074">validation_error</text><line style="stroke: #A80036; stroke-width: 1.5;" x1="210.5" x2="353.5" y1="1461.4375" y2="1461.4375"/><line style="stroke: #A80036; stroke-width: 1.5;" x1="210.5" x2="353.5" y1="1469.4375" y2="1469.4375"/><!--MD5=[2136067f80ce4b125f4864303cba3a7d]
class traits--><rect fill="#FFFACD" filter="url(#f1pve08rksv019)" height="53.9375" id="traits" style="stroke: #A80036; stroke-width: 1.5;" width="230" x="390" y="1423.5"/><rect fill="#FFFACD" height="37.9375" style="stroke: #A80036; stroke-width: 1.5;" width="230" x="390" y="1423.5"/><ellipse cx="405" cy="1442.4688" fill="#ADD1B2" rx="11" ry="11" style="stroke: #A80036; stroke-width: 1.0;"/><path d="M407.9688,1448.1094 Q407.3906,1448.4063 406.75,1448.5547 Q406.1094,1448.7031 405.4063,1448.7031 Q402.9063,1448.7031 401.5859,1447.0547 Q400.2656,1445.4063 400.2656,1442.2813 Q400.2656,1439.1563 401.5859,1437.5 Q402.9063,1435.8438 405.4063,1435.8438 Q406.1094,1435.8438 406.7578,1436 Q407.4063,1436.1563 407.9688,1436.4531 L407.9688,1439.1719 Q407.3438,1438.5938 406.75,1438.3203 Q406.1563,1438.0469 405.5313,1438.0469 Q404.1875,1438.0469 403.5,1439.1172 Q402.8125,1440.1875 402.8125,1442.2813 Q402.8125,1444.375 403.5,1445.4453 Q404.1875,1446.5156 405.5313,1446.5156 Q406.1563,1446.5156 406.75,1446.2422 Q407.3438,1445.9688 407.9688,1445.3906 L407.9688,1448.1094 Z "/><text fill="#000000" font-family="sans-serif" font-size="12" font-style="italic" lengthAdjust="spacingAndGlyphs" textLength="202" x="417" y="1439.6387">«dogen::handcrafted::typeable»</text><text fill="#000000" font-family="sans-serif" font-size="12" lengthAdjust="spacingAndGlyphs" textLength="33" x="501.5" y="1453.6074">traits</text><line style="stroke: #A80036; stroke-width: 1.5;" x1="391" x2="619" y1="1461.4375" y2="1461.4375"/><line style="stroke: #A80036; stroke-width: 1.5;" x1="391" x2="619" y1="1469.4375" y2="1469.4375"/><!--MD5=[4ee9d126d0901dfa903f88c66be25600]
class building_error--><rect fill="#E8C2F8" filter="url(#f1pve08rksv019)" height="53.9375" id="building_error" style="stroke: #A80036; stroke-width: 1.5;" width="145" x="655.5" y="1423.5"/><rect fill="#E8C2F8" height="37.9375" style="stroke: #A80036; stroke-width: 1.5;" width="145" x="655.5" y="1423.5"/><ellipse cx="670.5" cy="1442.4688" fill="#ADD1B2" rx="11" ry="11" style="stroke: #A80036; stroke-width: 1.0;"/><path d="M673.4688,1448.1094 Q672.8906,1448.4063 672.25,1448.5547 Q671.6094,1448.7031 670.9063,1448.7031 Q668.4063,1448.7031 667.0859,1447.0547 Q665.7656,1445.4063 665.7656,1442.2813 Q665.7656,1439.1563 667.0859,1437.5 Q668.4063,1435.8438 670.9063,1435.8438 Q671.6094,1435.8438 672.2578,1436 Q672.9063,1436.1563 673.4688,1436.4531 L673.4688,1439.1719 Q672.8438,1438.5938 672.25,1438.3203 Q671.6563,1438.0469 671.0313,1438.0469 Q669.6875,1438.0469 669,1439.1172 Q668.3125,1440.1875 668.3125,1442.2813 Q668.3125,1444.375 669,1445.4453 Q669.6875,1446.5156 671.0313,1446.5156 Q671.6563,1446.5156 672.25,1446.2422 Q672.8438,1445.9688 673.4688,1445.3906 L673.4688,1448.1094 Z "/><text fill="#000000" font-family="sans-serif" font-size="12" font-style="italic" lengthAdjust="spacingAndGlyphs" textLength="117" x="682.5" y="1439.6387">«masd::exception»</text><text fill="#000000" font-family="sans-serif" font-size="12" lengthAdjust="spacingAndGlyphs" textLength="86" x="698" y="1453.6074">building_error</text><line style="stroke: #A80036; stroke-width: 1.5;" x1="656.5" x2="799.5" y1="1461.4375" y2="1461.4375"/><line style="stroke: #A80036; stroke-width: 1.5;" x1="656.5" x2="799.5" y1="1469.4375" y2="1469.4375"/><!--MD5=[2bbca285c5998b88001867d52242bd59]
class visitor--><rect fill="#FFFACD" filter="url(#f1pve08rksv019)" height="66.7422" id="visitor" style="stroke: #A80036; stroke-width: 1.5;" width="315" x="835.5" y="1417"/><rect fill="#FFFACD" height="37.9375" style="stroke: #A80036; stroke-width: 1.5;" width="315" x="835.5" y="1417"/><ellipse cx="850.5" cy="1435.9688" fill="#ADD1B2" rx="11" ry="11" style="stroke: #A80036; stroke-width: 1.0;"/><path d="M853.4688,1441.6094 Q852.8906,1441.9063 852.25,1442.0547 Q851.6094,1442.2031 850.9063,1442.2031 Q848.4063,1442.2031 847.0859,1440.5547 Q845.7656,1438.9063 845.7656,1435.7813 Q845.7656,1432.6563 847.0859,1431 Q848.4063,1429.3438 850.9063,1429.3438 Q851.6094,1429.3438 852.2578,1429.5 Q852.9063,1429.6563 853.4688,1429.9531 L853.4688,1432.6719 Q852.8438,1432.0938 852.25,1431.8203 Q851.6563,1431.5469 851.0313,1431.5469 Q849.6875,1431.5469 849,1432.6172 Q848.3125,1433.6875 848.3125,1435.7813 Q848.3125,1437.875 849,1438.9453 Q849.6875,1440.0156 851.0313,1440.0156 Q851.6563,1440.0156 852.25,1439.7422 Q852.8438,1439.4688 853.4688,1438.8906 L853.4688,1441.6094 Z "/><text fill="#000000" font-family="sans-serif" font-size="12" font-style="italic" lengthAdjust="spacingAndGlyphs" textLength="287" x="862.5" y="1433.1387">«dogen::handcrafted::typeable::header_only»</text><text fill="#000000" font-family="sans-serif" font-size="12" lengthAdjust="spacingAndGlyphs" textLength="37" x="987.5" y="1447.1074">visitor</text><line style="stroke: #A80036; stroke-width: 1.5;" x1="836.5" x2="1149.5" y1="1454.9375" y2="1454.9375"/><ellipse cx="846.5" cy="1465.9375" fill="none" rx="3" ry="3" style="stroke: #038048; stroke-width: 1.0;"/><text fill="#000000" font-family="sans-serif" font-size="11" lengthAdjust="spacingAndGlyphs" textLength="82" x="855.5" y="1469.1479">builder builder</text><line style="stroke: #A80036; stroke-width: 1.5;" x1="836.5" x2="1149.5" y1="1475.7422" y2="1475.7422"/><!--MD5=[240e21b7cc4dfe0b0a0be7b0ae6adbaa]
class builder--><rect fill="#FFFACD" filter="url(#f1pve08rksv019)" height="53.9375" id="builder" style="stroke: #A80036; stroke-width: 1.5;" width="230" x="167" y="1544"/><rect fill="#FFFACD" height="37.9375" style="stroke: #A80036; stroke-width: 1.5;" width="230" x="167" y="1544"/><ellipse cx="182" cy="1562.9688" fill="#ADD1B2" rx="11" ry="11" style="stroke: #A80036; stroke-width: 1.0;"/><path d="M184.9688,1568.6094 Q184.3906,1568.9063 183.75,1569.0547 Q183.1094,1569.2031 182.4063,1569.2031 Q179.9063,1569.2031 178.5859,1567.5547 Q177.2656,1565.9063 177.2656,1562.7813 Q177.2656,1559.6563 178.5859,1558 Q179.9063,1556.3438 182.4063,1556.3438 Q183.1094,1556.3438 183.7578,1556.5 Q184.4063,1556.6563 184.9688,1556.9531 L184.9688,1559.6719 Q184.3438,1559.0938 183.75,1558.8203 Q183.1563,1558.5469 182.5313,1558.5469 Q181.1875,1558.5469 180.5,1559.6172 Q179.8125,1560.6875 179.8125,1562.7813 Q179.8125,1564.875 180.5,1565.9453 Q181.1875,1567.0156 182.5313,1567.0156 Q183.1563,1567.0156 183.75,1566.7422 Q184.3438,1566.4688 184.9688,1565.8906 L184.9688,1568.6094 Z "/><text fill="#000000" font-family="sans-serif" font-size="12" font-style="italic" lengthAdjust="spacingAndGlyphs" textLength="202" x="194" y="1560.1387">«dogen::handcrafted::typeable»</text><text fill="#000000" font-family="sans-serif" font-size="12" lengthAdjust="spacingAndGlyphs" textLength="43" x="273.5" y="1574.1074">builder</text><line style="stroke: #A80036; stroke-width: 1.5;" x1="168" x2="396" y1="1581.9375" y2="1581.9375"/><line style="stroke: #A80036; stroke-width: 1.5;" x1="168" x2="396" y1="1589.9375" y2="1589.9375"/><!--MD5=[5c5f137819e61af1d255172a7cc10d7e]
class adapter--><rect fill="#FFFACD" filter="url(#f1pve08rksv019)" height="53.9375" id="adapter" style="stroke: #A80036; stroke-width: 1.5;" width="230" x="432" y="1544"/><rect fill="#FFFACD" height="37.9375" style="stroke: #A80036; stroke-width: 1.5;" width="230" x="432" y="1544"/><ellipse cx="447" cy="1562.9688" fill="#ADD1B2" rx="11" ry="11" style="stroke: #A80036; stroke-width: 1.0;"/><path d="M449.9688,1568.6094 Q449.3906,1568.9063 448.75,1569.0547 Q448.1094,1569.2031 447.4063,1569.2031 Q444.9063,1569.2031 443.5859,1567.5547 Q442.2656,1565.9063 442.2656,1562.7813 Q442.2656,1559.6563 443.5859,1558 Q444.9063,1556.3438 447.4063,1556.3438 Q448.1094,1556.3438 448.7578,1556.5 Q449.4063,1556.6563 449.9688,1556.9531 L449.9688,1559.6719 Q449.3438,1559.0938 448.75,1558.8203 Q448.1563,1558.5469 447.5313,1558.5469 Q446.1875,1558.5469 445.5,1559.6172 Q444.8125,1560.6875 444.8125,1562.7813 Q444.8125,1564.875 445.5,1565.9453 Q446.1875,1567.0156 447.5313,1567.0156 Q448.1563,1567.0156 448.75,1566.7422 Q449.3438,1566.4688 449.9688,1565.8906 L449.9688,1568.6094 Z "/><text fill="#000000" font-family="sans-serif" font-size="12" font-style="italic" lengthAdjust="spacingAndGlyphs" textLength="202" x="459" y="1560.1387">«dogen::handcrafted::typeable»</text><text fill="#000000" font-family="sans-serif" font-size="12" lengthAdjust="spacingAndGlyphs" textLength="50" x="535" y="1574.1074">adapter</text><line style="stroke: #A80036; stroke-width: 1.5;" x1="433" x2="661" y1="1581.9375" y2="1581.9375"/><line style="stroke: #A80036; stroke-width: 1.5;" x1="433" x2="661" y1="1589.9375" y2="1589.9375"/><!--MD5=[4520fda4e10d4d791ce48fe025810cd4]
class main--><rect fill="#DDA9F3" filter="url(#f1pve08rksv019)" height="53.9375" id="main" style="stroke: #A80036; stroke-width: 1.5;" width="273" x="697.5" y="1544"/><rect fill="#DDA9F3" height="37.9375" style="stroke: #A80036; stroke-width: 1.5;" width="273" x="697.5" y="1544"/><ellipse cx="712.5" cy="1562.9688" fill="#ADD1B2" rx="11" ry="11" style="stroke: #A80036; stroke-width: 1.0;"/><path d="M715.4688,1568.6094 Q714.8906,1568.9063 714.25,1569.0547 Q713.6094,1569.2031 712.9063,1569.2031 Q710.4063,1569.2031 709.0859,1567.5547 Q707.7656,1565.9063 707.7656,1562.7813 Q707.7656,1559.6563 709.0859,1558 Q710.4063,1556.3438 712.9063,1556.3438 Q713.6094,1556.3438 714.2578,1556.5 Q714.9063,1556.6563 715.4688,1556.9531 L715.4688,1559.6719 Q714.8438,1559.0938 714.25,1558.8203 Q713.6563,1558.5469 713.0313,1558.5469 Q711.6875,1558.5469 711,1559.6172 Q710.3125,1560.6875 710.3125,1562.7813 Q710.3125,1564.875 711,1565.9453 Q711.6875,1567.0156 713.0313,1567.0156 Q713.6563,1567.0156 714.25,1566.7422 Q714.8438,1566.4688 715.4688,1565.8906 L715.4688,1568.6094 Z "/><text fill="#000000" font-family="sans-serif" font-size="12" font-style="italic" lengthAdjust="spacingAndGlyphs" textLength="245" x="724.5" y="1560.1387">«masd::entry_point, dogen::untypable»</text><text fill="#000000" font-family="sans-serif" font-size="12" lengthAdjust="spacingAndGlyphs" textLength="30" x="832" y="1574.1074">main</text><line style="stroke: #A80036; stroke-width: 1.5;" x1="698.5" x2="969.5" y1="1581.9375" y2="1581.9375"/><line style="stroke: #A80036; stroke-width: 1.5;" x1="698.5" x2="969.5" y1="1589.9375" y2="1589.9375"/><!--MD5=[ba83386d426114557685538e96aa6f68]
class CMakeLists--><rect fill="#99CB99" filter="url(#f1pve08rksv019)" height="53.9375" id="CMakeLists" style="stroke: #A80036; stroke-width: 1.5;" width="367" x="1005.5" y="1544"/><rect fill="#99CB99" height="37.9375" style="stroke: #A80036; stroke-width: 1.5;" width="367" x="1005.5" y="1544"/><ellipse cx="1020.5" cy="1562.9688" fill="#ADD1B2" rx="11" ry="11" style="stroke: #A80036; stroke-width: 1.0;"/><path d="M1023.4688,1568.6094 Q1022.8906,1568.9063 1022.25,1569.0547 Q1021.6094,1569.2031 1020.9063,1569.2031 Q1018.4063,1569.2031 1017.0859,1567.5547 Q1015.7656,1565.9063 1015.7656,1562.7813 Q1015.7656,1559.6563 1017.0859,1558 Q1018.4063,1556.3438 1020.9063,1556.3438 Q1021.6094,1556.3438 1022.2578,1556.5 Q1022.9063,1556.6563 1023.4688,1556.9531 L1023.4688,1559.6719 Q1022.8438,1559.0938 1022.25,1558.8203 Q1021.6563,1558.5469 1021.0313,1558.5469 Q1019.6875,1558.5469 1019,1559.6172 Q1018.3125,1560.6875 1018.3125,1562.7813 Q1018.3125,1564.875 1019,1565.9453 Q1019.6875,1567.0156 1021.0313,1567.0156 Q1021.6563,1567.0156 1022.25,1566.7422 Q1022.8438,1566.4688 1023.4688,1565.8906 L1023.4688,1568.6094 Z "/><text fill="#000000" font-family="sans-serif" font-size="12" font-style="italic" lengthAdjust="spacingAndGlyphs" textLength="339" x="1032.5" y="1560.1387">«masd::build::cmakelists, dogen::handcrafted::cmake»</text><text fill="#000000" font-family="sans-serif" font-size="12" lengthAdjust="spacingAndGlyphs" textLength="69" x="1167.5" y="1574.1074">CMakeLists</text><line style="stroke: #A80036; stroke-width: 1.5;" x1="1006.5" x2="1371.5" y1="1581.9375" y2="1581.9375"/><line style="stroke: #A80036; stroke-width: 1.5;" x1="1006.5" x2="1371.5" y1="1589.9375" y2="1589.9375"/><!--MD5=[80e788f43c0c8e750f53651f2cf99c38]
link N1 to adaptation_error--><!--MD5=[f0b3151430bfcbd5ee97aa288681dd61]
link adaptation_error to grapher--><!--MD5=[6243af3c9888810c8855f9c63c849a18]
link grapher to graphing_error--><!--MD5=[2df82446e1ebfe87b26e4a644ccf0cd8]
link N1 to processed_comment_factory--><!--MD5=[0c2cbd3c8703ce69dcc9e7f6b2e6aecf]
link processed_comment_factory to processed_object_factory--><!--MD5=[6b2b85682cee982226a69f59568d5db8]
link processed_object_factory to dia_object_types--><!--MD5=[e0beb09579e256e405f267f444e9cc3e]
link dia_object_types to validator--><!--MD5=[4084e86e696cbb39440ddd4ecbc8a1bd]
link processed_comment_factory to validation_error--><!--MD5=[ab5e49c4c95aa70c80354c9e7a3f83cf]
link validation_error to traits--><!--MD5=[322bbd73a6383b0f265d942d92b8af26]
link traits to building_error--><!--MD5=[fa3dfd252825d960897aa30b38d86e40]
link building_error to visitor--><!--MD5=[098e818044aac6906e705b212ac9c931]
link validation_error to builder--><!--MD5=[6fa4d497e4f51418393862fff5a22d44]
link builder to adapter--><!--MD5=[66620105c858fa67425598cc73b557a4]
link adapter to main--><!--MD5=[367f0f7b9da0cd9a39366f1aecb3ca6d]
link main to CMakeLists--><!--MD5=[69fba6d651b0fdaeef580627b4e47e1f]
@startuml
set namespaceSeparator ::
note as N1

Codec.Dia is a unidirectional transformation model that transforms
a Dia @e diagram into an codec @e model.

By that we mean that it is a model designed to transform a representation of
a user model in Dia diagram format to its counterpart in the codec format,
taking into account any special masd meta-data which the user may have encoded
into the Dia diagram. Note that the Dia diagram format contains a representation
of UML. We pass that meta-data straight through into the codec model,
without any further processing.

@section codec_dia_0 Dia diagrams as DAGs

Dia diagrams are made up of @e objects, identified by IDs. These objects
contain a number of UML model elements, which we are interested in. For
instance:

@li UML class
@li UML generalisation
@li UML notes

and so on. Each of these objects will contribute to am codec element.
However, we need to be aware of object containment - e.g. if a class is
contained in a package. This is because the codec element names are scoped
by the packages. So, to make our life easier we created a DAG of Dia objects
that provides us with the information in dependency order. That is, we process
dia objects in such a way that when a dependency exists, we know that the object
in which we depend on has already been processed. Please note that to ensure no
cycles we had to ignore some of the UML objects such as UML aggregation -
but fortunately, these objects do not provide sufficient information as
required for dogen transformations, so not much was lost. Instead, one must
manually declare attributes in a class.

See @ref grapher for details on how the the DAG is built.

@section codec_dia_1 Intermediate processing

To make the code easier to read and maintain, we created a numeber of
intermediate stages between a Dia diagram and an codec model:

@li Dia object -> processed object -> profile -> codec element

This may look a bit excessive at first glance, but it was done because
the shape of the Dia objects is a bit too generic for our purposes, and
the resulting processing code was full of loops and look-ups. Instead,
we make the generic Dia object into a very concrete processed object -
still preserving most of the semantics of Dia - and then from those we
build a profile. A profile allows us to quickly scan for UML and masd
type information without getting lost in the intricacies of the generic
Dia structure. With these in hand, the @ref transformer is able to
create the corresponding masd entity, and the transformation code is
not obscured.

@section codec_dia_2 Dia meta-data

There are a couple of conventions on how to model in Dia that one
needs to follow in order to comply with Dogen:

@li any public attribute in a class is automatically converted into a
masd property rather than a member variable. This means that it is
expected that a getter and a setter will be generated.

@li a number of stereotypes were added, as per the definitions in the
MASD UML profile. For details, see the Dogen UML profile.

@li any type without any stereotype assumes a default stereotype, again
as per MASD UML profile.

@li any UML Note with the marker #DOGEN masd.codec.dia.comment=true will
be used as the documentation of the current package - or the model, if
place at the top-level. Only one such note is expected per containing
entity.

For details on the stereotypes see the MASD UML profile.

end note

class adaptation_error <<masd::exception>> #E8C2F8 {
}

class grapher <<dogen::handcrafted::typeable>> #FFFACD {
}

class graphing_error <<masd::exception>> #E8C2F8 {
}

class processed_comment_factory <<dogen::handcrafted::typeable>> #FFFACD {
}

class processed_object_factory <<dogen::handcrafted::typeable>> #FFFACD {
}

enum dia_object_types <<masd::enumeration>> #F2DAFD {
        +{field} uml_large_package
        +{field} uml_class
        +{field} uml_generalization
        +{field} uml_association
        +{field} uml_note
        +{field} uml_message
        +{field} uml_realization
}

class validator <<dogen::handcrafted::typeable>> #FFFACD {
}

class validation_error <<masd::exception>> #E8C2F8 {
}

class traits <<dogen::handcrafted::typeable>> #FFFACD {
}

class building_error <<masd::exception>> #E8C2F8 {
}

class visitor <<dogen::handcrafted::typeable::header_only>> #FFFACD {
        +{field} builder builder
}

class builder <<dogen::handcrafted::typeable>> #FFFACD {
}

class adapter <<dogen::handcrafted::typeable>> #FFFACD {
}

class main <<masd::entry_point, dogen::untypable>> #DDA9F3 {
}

class CMakeLists <<masd::build::cmakelists, dogen::handcrafted::cmake>> #99CB99 {
}

@enduml

PlantUML version 1.2020.02(Sun Mar 01 10:22:07 GMT 2020)
(GPL source distribution)
Java Runtime: OpenJDK Runtime Environment
JVM: OpenJDK 64-Bit Server VM
Java Version: 1.8.0_212-8u212-b03-2~deb9u1-b03
Operating System: Linux
Default Encoding: UTF-8
Language: en
Country: GB
--></g></svg>