<?xml version="1.0" encoding="UTF-8" standalone="no"?><svg xmlns="http://www.w3.org/2000/svg" xmlns:xlink="http://www.w3.org/1999/xlink" contentStyleType="text/css" height="1058px" preserveAspectRatio="none" style="width:4726px;height:1058px;background:#FFFFFF;" version="1.1" viewBox="0 0 4726 1058" width="4726px" zoomAndPan="magnify"><defs/><g><!--MD5=[2a013135f1f90689be40a3c084fed702]
cluster entities--><g id="cluster_entities"><path d="M819,6 L882,6 A3.75,3.75 0 0 1 884.5,8.5 L891.5,28.2969 L2476,28.2969 A2.5,2.5 0 0 1 2478.5,30.7969 L2478.5,1048.5 A2.5,2.5 0 0 1 2476,1051 L819,1051 A2.5,2.5 0 0 1 816.5,1048.5 L816.5,8.5 A2.5,2.5 0 0 1 819,6 " fill="#F2F2F2" style="stroke:#000000;stroke-width:1.5;"/><line style="stroke:#000000;stroke-width:1.5;" x1="816.5" x2="891.5" y1="28.2969" y2="28.2969"/><text fill="#000000" font-family="sans-serif" font-size="14" font-weight="bold" lengthAdjust="spacing" textLength="62" x="820.5" y="20.9951">entities</text></g><!--MD5=[e8c14457c5ec3409b346b9ce068df3a0]
cluster transforms--><g id="cluster_transforms"><path d="M3853,195 L3941,195 A3.75,3.75 0 0 1 3943.5,197.5 L3950.5,217.2969 L4717,217.2969 A2.5,2.5 0 0 1 4719.5,219.7969 L4719.5,682 A2.5,2.5 0 0 1 4717,684.5 L3853,684.5 A2.5,2.5 0 0 1 3850.5,682 L3850.5,197.5 A2.5,2.5 0 0 1 3853,195 " fill="#F2F2F2" style="stroke:#000000;stroke-width:1.5;"/><line style="stroke:#000000;stroke-width:1.5;" x1="3850.5" x2="3950.5" y1="217.2969" y2="217.2969"/><text fill="#000000" font-family="sans-serif" font-size="14" font-weight="bold" lengthAdjust="spacing" textLength="87" x="3854.5" y="209.9951">transforms</text></g><!--MD5=[9b2039c9cbc9b36eebe6e360cb295121]
cluster helpers--><g id="cluster_helpers"><path d="M2505,178.5 L2566,178.5 A3.75,3.75 0 0 1 2568.5,181 L2575.5,200.7969 L3824,200.7969 A2.5,2.5 0 0 1 3826.5,203.2969 L3826.5,690.5 A2.5,2.5 0 0 1 3824,693 L2505,693 A2.5,2.5 0 0 1 2502.5,690.5 L2502.5,181 A2.5,2.5 0 0 1 2505,178.5 " fill="#F2F2F2" style="stroke:#000000;stroke-width:1.5;"/><line style="stroke:#000000;stroke-width:1.5;" x1="2502.5" x2="2575.5" y1="200.7969" y2="200.7969"/><text fill="#000000" font-family="sans-serif" font-size="14" font-weight="bold" lengthAdjust="spacing" textLength="60" x="2506.5" y="193.4951">helpers</text></g><g id="elem_entities::entities_1"><path d="M1357.5,245.5 L1357.5,270.6328 L1661.5,270.6328 L1661.5,255.5 L1651.5,245.5 L1357.5,245.5 " fill="#FEFFDD" style="stroke:#181818;stroke-width:0.5;"/><path d="M1651.5,245.5 L1651.5,255.5 L1661.5,255.5 L1651.5,245.5 " fill="#FEFFDD" style="stroke:#181818;stroke-width:1.0;"/><text fill="#000000" font-family="sans-serif" font-size="13" lengthAdjust="spacing" textLength="283" x="1363.5" y="262.5669">Represents entities from Emacs' org-mode.</text></g><!--MD5=[9f1c02ac10d1347d42f94f9a61fcd508]
class entities::section--><g id="elem_entities::section"><rect codeLine="18" fill="#F7E5FF" height="64.2969" id="entities::section" rx="2.5" ry="2.5" style="stroke:#181818;stroke-width:0.5;" width="188" x="1696.5" y="226"/><ellipse cx="1760.75" cy="242" fill="#ADD1B2" rx="11" ry="11" style="stroke:#181818;stroke-width:1.0;"/><path d="M1763.7188,247.6406 Q1763.1406,247.9375 1762.5,248.0859 Q1761.8594,248.2344 1761.1563,248.2344 Q1758.6563,248.2344 1757.3359,246.5859 Q1756.0156,244.9375 1756.0156,241.8125 Q1756.0156,238.6875 1757.3359,237.0313 Q1758.6563,235.375 1761.1563,235.375 Q1761.8594,235.375 1762.5078,235.5313 Q1763.1563,235.6875 1763.7188,235.9844 L1763.7188,238.7031 Q1763.0938,238.125 1762.5,237.8516 Q1761.9063,237.5781 1761.2813,237.5781 Q1759.9375,237.5781 1759.25,238.6484 Q1758.5625,239.7188 1758.5625,241.8125 Q1758.5625,243.9063 1759.25,244.9766 Q1759.9375,246.0469 1761.2813,246.0469 Q1761.9063,246.0469 1762.5,245.7734 Q1763.0938,245.5 1763.7188,244.9219 L1763.7188,247.6406 Z " fill="#000000"/><text fill="#000000" font-family="sans-serif" font-size="14" lengthAdjust="spacing" textLength="51" x="1781.25" y="246.8467">section</text><line style="stroke:#181818;stroke-width:0.5;" x1="1697.5" x2="1883.5" y1="258" y2="258"/><ellipse cx="1707.5" cy="269" fill="none" rx="3" ry="3" style="stroke:#038048;stroke-width:1.0;"/><text fill="#000000" font-family="sans-serif" font-size="14" lengthAdjust="spacing" textLength="162" x="1716.5" y="274.9951">blocks std::list&lt;block&gt;</text><line style="stroke:#181818;stroke-width:0.5;" x1="1697.5" x2="1883.5" y1="282.2969" y2="282.2969"/></g><!--MD5=[a070c872468bb8964450f80aeb7fd3c4]
class entities::document--><g id="elem_entities::document"><rect codeLine="22" fill="#F7E5FF" height="113.1875" id="entities::document" rx="2.5" ry="2.5" style="stroke:#181818;stroke-width:0.5;" width="372" x="1919.5" y="201.5"/><ellipse cx="2065.25" cy="217.5" fill="#ADD1B2" rx="11" ry="11" style="stroke:#181818;stroke-width:1.0;"/><path d="M2068.2188,223.1406 Q2067.6406,223.4375 2067,223.5859 Q2066.3594,223.7344 2065.6563,223.7344 Q2063.1563,223.7344 2061.8359,222.0859 Q2060.5156,220.4375 2060.5156,217.3125 Q2060.5156,214.1875 2061.8359,212.5313 Q2063.1563,210.875 2065.6563,210.875 Q2066.3594,210.875 2067.0078,211.0313 Q2067.6563,211.1875 2068.2188,211.4844 L2068.2188,214.2031 Q2067.5938,213.625 2067,213.3516 Q2066.4063,213.0781 2065.7813,213.0781 Q2064.4375,213.0781 2063.75,214.1484 Q2063.0625,215.2188 2063.0625,217.3125 Q2063.0625,219.4063 2063.75,220.4766 Q2064.4375,221.5469 2065.7813,221.5469 Q2066.4063,221.5469 2067,221.2734 Q2067.5938,221 2068.2188,220.4219 L2068.2188,223.1406 Z " fill="#000000"/><text fill="#000000" font-family="sans-serif" font-size="14" lengthAdjust="spacing" textLength="72" x="2085.75" y="222.3467">document</text><line style="stroke:#181818;stroke-width:0.5;" x1="1920.5" x2="2290.5" y1="233.5" y2="233.5"/><ellipse cx="1930.5" cy="244.5" fill="none" rx="3" ry="3" style="stroke:#038048;stroke-width:1.0;"/><text fill="#000000" font-family="sans-serif" font-size="14" lengthAdjust="spacing" textLength="346" x="1939.5" y="250.4951">affiliated_keywords std::list&lt;affiliated_keyword&gt;</text><ellipse cx="1930.5" cy="260.7969" fill="none" rx="3" ry="3" style="stroke:#038048;stroke-width:1.0;"/><text fill="#000000" font-family="sans-serif" font-size="14" lengthAdjust="spacing" textLength="186" x="1939.5" y="266.792">drawers std::list&lt;drawer&gt;</text><ellipse cx="1930.5" cy="277.0938" fill="none" rx="3" ry="3" style="stroke:#038048;stroke-width:1.0;"/><text fill="#000000" font-family="sans-serif" font-size="14" lengthAdjust="spacing" textLength="106" x="1939.5" y="283.0889">section section</text><ellipse cx="1930.5" cy="293.3906" fill="none" rx="3" ry="3" style="stroke:#038048;stroke-width:1.0;"/><text fill="#000000" font-family="sans-serif" font-size="14" lengthAdjust="spacing" textLength="210" x="1939.5" y="299.3857">headlines std::list&lt;headline&gt;</text><line style="stroke:#181818;stroke-width:0.5;" x1="1920.5" x2="2290.5" y1="306.6875" y2="306.6875"/></g><!--MD5=[1ea52bc0866f3e53fb7fda6c4f2ac00a]
class entities::headline--><g id="elem_entities::headline"><rect codeLine="29" fill="#F7E5FF" height="210.9688" id="entities::headline" rx="2.5" ry="2.5" style="stroke:#181818;stroke-width:0.5;" width="372" x="891.5" y="535"/><ellipse cx="1042.25" cy="551" fill="#ADD1B2" rx="11" ry="11" style="stroke:#181818;stroke-width:1.0;"/><path d="M1045.2188,556.6406 Q1044.6406,556.9375 1044,557.0859 Q1043.3594,557.2344 1042.6563,557.2344 Q1040.1563,557.2344 1038.8359,555.5859 Q1037.5156,553.9375 1037.5156,550.8125 Q1037.5156,547.6875 1038.8359,546.0313 Q1040.1563,544.375 1042.6563,544.375 Q1043.3594,544.375 1044.0078,544.5313 Q1044.6563,544.6875 1045.2188,544.9844 L1045.2188,547.7031 Q1044.5938,547.125 1044,546.8516 Q1043.4063,546.5781 1042.7813,546.5781 Q1041.4375,546.5781 1040.75,547.6484 Q1040.0625,548.7188 1040.0625,550.8125 Q1040.0625,552.9063 1040.75,553.9766 Q1041.4375,555.0469 1042.7813,555.0469 Q1043.4063,555.0469 1044,554.7734 Q1044.5938,554.5 1045.2188,553.9219 L1045.2188,556.6406 Z " fill="#000000"/><text fill="#000000" font-family="sans-serif" font-size="14" lengthAdjust="spacing" textLength="62" x="1062.75" y="555.8467">headline</text><line style="stroke:#181818;stroke-width:0.5;" x1="892.5" x2="1262.5" y1="567" y2="567"/><ellipse cx="902.5" cy="578" fill="none" rx="3" ry="3" style="stroke:#038048;stroke-width:1.0;"/><text fill="#000000" font-family="sans-serif" font-size="14" lengthAdjust="spacing" textLength="180" x="911.5" y="583.9951">line_number unsigned int</text><ellipse cx="902.5" cy="594.2969" fill="none" rx="3" ry="3" style="stroke:#038048;stroke-width:1.0;"/><text fill="#000000" font-family="sans-serif" font-size="14" lengthAdjust="spacing" textLength="346" x="911.5" y="600.292">affiliated_keywords std::list&lt;affiliated_keyword&gt;</text><ellipse cx="902.5" cy="610.5938" fill="none" rx="3" ry="3" style="stroke:#038048;stroke-width:1.0;"/><text fill="#000000" font-family="sans-serif" font-size="14" lengthAdjust="spacing" textLength="186" x="911.5" y="616.5889">drawers std::list&lt;drawer&gt;</text><ellipse cx="902.5" cy="626.8906" fill="none" rx="3" ry="3" style="stroke:#038048;stroke-width:1.0;"/><text fill="#000000" font-family="sans-serif" font-size="14" lengthAdjust="spacing" textLength="106" x="911.5" y="632.8857">section section</text><ellipse cx="902.5" cy="643.1875" fill="none" rx="3" ry="3" style="stroke:#038048;stroke-width:1.0;"/><text fill="#000000" font-family="sans-serif" font-size="14" lengthAdjust="spacing" textLength="210" x="911.5" y="649.1826">headlines std::list&lt;headline&gt;</text><ellipse cx="902.5" cy="659.4844" fill="none" rx="3" ry="3" style="stroke:#038048;stroke-width:1.0;"/><text fill="#000000" font-family="sans-serif" font-size="14" lengthAdjust="spacing" textLength="125" x="911.5" y="665.4795">level unsigned int</text><ellipse cx="902.5" cy="675.7813" fill="none" rx="3" ry="3" style="stroke:#038048;stroke-width:1.0;"/><text fill="#000000" font-family="sans-serif" font-size="14" lengthAdjust="spacing" textLength="160" x="911.5" y="681.7764">priority priority_cookie</text><ellipse cx="902.5" cy="692.0781" fill="none" rx="3" ry="3" style="stroke:#038048;stroke-width:1.0;"/><text fill="#000000" font-family="sans-serif" font-size="14" lengthAdjust="spacing" textLength="102" x="911.5" y="698.0732">title std::string</text><ellipse cx="902.5" cy="708.375" fill="none" rx="3" ry="3" style="stroke:#038048;stroke-width:1.0;"/><text fill="#000000" font-family="sans-serif" font-size="14" lengthAdjust="spacing" textLength="132" x="911.5" y="714.3701">tags std::list&lt;tag&gt;</text><ellipse cx="902.5" cy="724.6719" fill="none" rx="3" ry="3" style="stroke:#038048;stroke-width:1.0;"/><text fill="#000000" font-family="sans-serif" font-size="14" lengthAdjust="spacing" textLength="202" x="911.5" y="730.667">todo_keyword todo_keyword</text><line style="stroke:#181818;stroke-width:0.5;" x1="892.5" x2="1262.5" y1="737.9688" y2="737.9688"/></g><g id="elem_entities::GMN8"><path d="M832.5,41 L832.5,474.7188 A0,0 0 0 0 832.5,474.7188 L1073.5,474.7188 L1077.5,534.69 L1081.5,474.7188 L1322.5,474.7188 A0,0 0 0 0 1322.5,474.7188 L1322.5,51 L1312.5,41 L832.5,41 A0,0 0 0 0 832.5,41 " fill="#FEFFDD" style="stroke:#181818;stroke-width:0.5;"/><path d="M1312.5,41 L1312.5,51 L1322.5,51 L1312.5,41 " fill="#FEFFDD" style="stroke:#181818;stroke-width:0.5;"/><text fill="#000000" font-family="sans-serif" font-size="13" lengthAdjust="spacing" textLength="231" x="838.5" y="58.0669">Represents a headline in org mode.</text><text fill="#000000" font-family="sans-serif" font-size="13" lengthAdjust="spacing" textLength="4" x="838.5" y="73.1997"> </text><text fill="#000000" font-family="sans-serif" font-size="13" lengthAdjust="spacing" textLength="152" x="838.5" y="88.3325">Headlines and Sections</text><text fill="#000000" font-family="sans-serif" font-size="13" lengthAdjust="spacing" textLength="4" x="838.5" y="103.4653"> </text><text fill="#000000" font-family="sans-serif" font-size="13" lengthAdjust="spacing" textLength="469" x="838.5" y="118.5981">https://orgmode.org/worg/dev/org-syntax.html#Headlines_and_Sections</text><text fill="#000000" font-family="sans-serif" font-size="13" lengthAdjust="spacing" textLength="4" x="838.5" y="133.731"> </text><text fill="#000000" font-family="sans-serif" font-size="13" lengthAdjust="spacing" textLength="160" x="838.5" y="148.8638">A headline is defined as:</text><text fill="#000000" font-family="sans-serif" font-size="13" lengthAdjust="spacing" textLength="4" x="838.5" y="163.9966"> </text><text fill="#000000" font-family="sans-serif" font-size="13" lengthAdjust="spacing" textLength="255" x="838.5" y="179.1294">STARS KEYWORD PRIORITY TITLE TAGS</text><text fill="#000000" font-family="sans-serif" font-size="13" lengthAdjust="spacing" textLength="4" x="838.5" y="194.2622"> </text><text fill="#000000" font-family="sans-serif" font-size="13" lengthAdjust="spacing" textLength="402" x="838.5" y="209.395">STARS is a string starting at column 0, containing at least one</text><text fill="#000000" font-family="sans-serif" font-size="13" lengthAdjust="spacing" textLength="436" x="838.5" y="224.5278">asterisk (and up to org-inlinetask-min-level if org-inlinetask library</text><text fill="#000000" font-family="sans-serif" font-size="13" lengthAdjust="spacing" textLength="456" x="838.5" y="239.6606">is loaded) and ended by a space character. The number of asterisks is</text><text fill="#000000" font-family="sans-serif" font-size="13" lengthAdjust="spacing" textLength="420" x="838.5" y="254.7935">used to define the level of the headline. It’s the sole compulsory</text><text fill="#000000" font-family="sans-serif" font-size="13" lengthAdjust="spacing" textLength="119" x="838.5" y="269.9263">part of a headline.</text><text fill="#000000" font-family="sans-serif" font-size="13" lengthAdjust="spacing" textLength="4" x="838.5" y="285.0591"> </text><text fill="#000000" font-family="sans-serif" font-size="13" lengthAdjust="spacing" textLength="469" x="838.5" y="300.1919">KEYWORD is a TODO keyword, which has to belong to the list defined in</text><text fill="#000000" font-family="sans-serif" font-size="13" lengthAdjust="spacing" textLength="267" x="838.5" y="315.3247">org-todo-keywords-1. Case is significant.</text><text fill="#000000" font-family="sans-serif" font-size="13" lengthAdjust="spacing" textLength="4" x="838.5" y="330.4575"> </text><text fill="#000000" font-family="sans-serif" font-size="13" lengthAdjust="spacing" textLength="438" x="838.5" y="345.5903">PRIORITY is a priority cookie, i.e. a single letter preceded by a hash</text><text fill="#000000" font-family="sans-serif" font-size="13" lengthAdjust="spacing" textLength="288" x="838.5" y="360.7231">sign # and enclosed within square brackets.</text><text fill="#000000" font-family="sans-serif" font-size="13" lengthAdjust="spacing" textLength="4" x="838.5" y="375.856"> </text><text fill="#000000" font-family="sans-serif" font-size="13" lengthAdjust="spacing" textLength="429" x="838.5" y="390.9888">TITLE can be made of any character but a new line. Though, it will</text><text fill="#000000" font-family="sans-serif" font-size="13" lengthAdjust="spacing" textLength="322" x="838.5" y="406.1216">match after every other part have been matched.</text><text fill="#000000" font-family="sans-serif" font-size="13" lengthAdjust="spacing" textLength="4" x="838.5" y="421.2544"> </text><text fill="#000000" font-family="sans-serif" font-size="13" lengthAdjust="spacing" textLength="418" x="838.5" y="436.3872">TAGS is made of words containing any alpha-numeric character,</text><text fill="#000000" font-family="sans-serif" font-size="13" lengthAdjust="spacing" textLength="428" x="838.5" y="451.52">underscore, at sign, hash sign or percent sign, and separated with</text><text fill="#000000" font-family="sans-serif" font-size="13" lengthAdjust="spacing" textLength="46" x="838.5" y="466.6528">colons.</text></g><!--MD5=[b541731b73cd715a3a09bd0ee99a6087]
class entities::tag--><g id="elem_entities::tag"><rect codeLine="73" fill="#EDCEFB" height="56.2656" id="entities::tag" rx="2.5" ry="2.5" style="stroke:#181818;stroke-width:0.5;" width="136" x="2326.5" y="230"/><ellipse cx="2341.5" cy="250.1328" fill="#ADD1B2" rx="11" ry="11" style="stroke:#181818;stroke-width:1.0;"/><path d="M2344.4688,255.7734 Q2343.8906,256.0703 2343.25,256.2188 Q2342.6094,256.3672 2341.9063,256.3672 Q2339.4063,256.3672 2338.0859,254.7188 Q2336.7656,253.0703 2336.7656,249.9453 Q2336.7656,246.8203 2338.0859,245.1641 Q2339.4063,243.5078 2341.9063,243.5078 Q2342.6094,243.5078 2343.2578,243.6641 Q2343.9063,243.8203 2344.4688,244.1172 L2344.4688,246.8359 Q2343.8438,246.2578 2343.25,245.9844 Q2342.6563,245.7109 2342.0313,245.7109 Q2340.6875,245.7109 2340,246.7813 Q2339.3125,247.8516 2339.3125,249.9453 Q2339.3125,252.0391 2340,253.1094 Q2340.6875,254.1797 2342.0313,254.1797 Q2342.6563,254.1797 2343.25,253.9063 Q2343.8438,253.6328 2344.4688,253.0547 L2344.4688,255.7734 Z " fill="#000000"/><text fill="#000000" font-family="sans-serif" font-size="12" font-style="italic" lengthAdjust="spacing" textLength="108" x="2353.5" y="246.1387">«masd::primitive»</text><text fill="#000000" font-family="sans-serif" font-size="14" lengthAdjust="spacing" textLength="23" x="2396" y="261.9639">tag</text><line style="stroke:#181818;stroke-width:0.5;" x1="2327.5" x2="2461.5" y1="270.2656" y2="270.2656"/><line style="stroke:#181818;stroke-width:0.5;" x1="2327.5" x2="2461.5" y1="278.2656" y2="278.2656"/></g><!--MD5=[08ad3cfbdb050381196fce34c7cc9afd]
class entities::todo_keyword--><g id="elem_entities::todo_keyword"><rect codeLine="76" fill="#EDCEFB" height="56.2656" id="entities::todo_keyword" rx="2.5" ry="2.5" style="stroke:#181818;stroke-width:0.5;" width="136" x="1441.5" y="612.5"/><ellipse cx="1456.5" cy="632.6328" fill="#ADD1B2" rx="11" ry="11" style="stroke:#181818;stroke-width:1.0;"/><path d="M1459.4688,638.2734 Q1458.8906,638.5703 1458.25,638.7188 Q1457.6094,638.8672 1456.9063,638.8672 Q1454.4063,638.8672 1453.0859,637.2188 Q1451.7656,635.5703 1451.7656,632.4453 Q1451.7656,629.3203 1453.0859,627.6641 Q1454.4063,626.0078 1456.9063,626.0078 Q1457.6094,626.0078 1458.2578,626.1641 Q1458.9063,626.3203 1459.4688,626.6172 L1459.4688,629.3359 Q1458.8438,628.7578 1458.25,628.4844 Q1457.6563,628.2109 1457.0313,628.2109 Q1455.6875,628.2109 1455,629.2813 Q1454.3125,630.3516 1454.3125,632.4453 Q1454.3125,634.5391 1455,635.6094 Q1455.6875,636.6797 1457.0313,636.6797 Q1457.6563,636.6797 1458.25,636.4063 Q1458.8438,636.1328 1459.4688,635.5547 L1459.4688,638.2734 Z " fill="#000000"/><text fill="#000000" font-family="sans-serif" font-size="12" font-style="italic" lengthAdjust="spacing" textLength="108" x="1468.5" y="628.6387">«masd::primitive»</text><text fill="#000000" font-family="sans-serif" font-size="14" lengthAdjust="spacing" textLength="99" x="1473" y="644.4639">todo_keyword</text><line style="stroke:#181818;stroke-width:0.5;" x1="1442.5" x2="1576.5" y1="652.7656" y2="652.7656"/><line style="stroke:#181818;stroke-width:0.5;" x1="1442.5" x2="1576.5" y1="660.7656" y2="660.7656"/></g><!--MD5=[f2cf8e4a55f0bd4e2ce0373ca81619e6]
class entities::drawer--><g id="elem_entities::drawer"><rect codeLine="79" fill="#F7E5FF" height="96.8906" id="entities::drawer" rx="2.5" ry="2.5" style="stroke:#181818;stroke-width:0.5;" width="277" x="1613" y="592"/><ellipse cx="1722.25" cy="608" fill="#ADD1B2" rx="11" ry="11" style="stroke:#181818;stroke-width:1.0;"/><path d="M1725.2188,613.6406 Q1724.6406,613.9375 1724,614.0859 Q1723.3594,614.2344 1722.6563,614.2344 Q1720.1563,614.2344 1718.8359,612.5859 Q1717.5156,610.9375 1717.5156,607.8125 Q1717.5156,604.6875 1718.8359,603.0313 Q1720.1563,601.375 1722.6563,601.375 Q1723.3594,601.375 1724.0078,601.5313 Q1724.6563,601.6875 1725.2188,601.9844 L1725.2188,604.7031 Q1724.5938,604.125 1724,603.8516 Q1723.4063,603.5781 1722.7813,603.5781 Q1721.4375,603.5781 1720.75,604.6484 Q1720.0625,605.7188 1720.0625,607.8125 Q1720.0625,609.9063 1720.75,610.9766 Q1721.4375,612.0469 1722.7813,612.0469 Q1723.4063,612.0469 1724,611.7734 Q1724.5938,611.5 1725.2188,610.9219 L1725.2188,613.6406 Z " fill="#000000"/><text fill="#000000" font-family="sans-serif" font-size="14" lengthAdjust="spacing" textLength="50" x="1742.75" y="612.8467">drawer</text><line style="stroke:#181818;stroke-width:0.5;" x1="1614" x2="1889" y1="624" y2="624"/><ellipse cx="1624" cy="635" fill="none" rx="3" ry="3" style="stroke:#038048;stroke-width:1.0;"/><text fill="#000000" font-family="sans-serif" font-size="14" lengthAdjust="spacing" textLength="116" x="1633" y="640.9951">name std::string</text><ellipse cx="1624" cy="651.2969" fill="none" rx="3" ry="3" style="stroke:#038048;stroke-width:1.0;"/><text fill="#000000" font-family="sans-serif" font-size="14" lengthAdjust="spacing" textLength="123" x="1633" y="657.292">type drawer_type</text><ellipse cx="1624" cy="667.5938" fill="none" rx="3" ry="3" style="stroke:#038048;stroke-width:1.0;"/><text fill="#000000" font-family="sans-serif" font-size="14" lengthAdjust="spacing" textLength="251" x="1633" y="673.5889">contents std::list&lt;drawer_content&gt;</text><line style="stroke:#181818;stroke-width:0.5;" x1="1614" x2="1889" y1="680.8906" y2="680.8906"/></g><!--MD5=[df21582ce3c8bccdff05fc2e7be61b94]
class entities::drawer_content--><g id="elem_entities::drawer_content"><rect codeLine="85" fill="#F7E5FF" height="80.5938" id="entities::drawer_content" rx="2.5" ry="2.5" style="stroke:#181818;stroke-width:0.5;" width="143" x="1925" y="600"/><ellipse cx="1940" cy="616" fill="#ADD1B2" rx="11" ry="11" style="stroke:#181818;stroke-width:1.0;"/><path d="M1942.9688,621.6406 Q1942.3906,621.9375 1941.75,622.0859 Q1941.1094,622.2344 1940.4063,622.2344 Q1937.9063,622.2344 1936.5859,620.5859 Q1935.2656,618.9375 1935.2656,615.8125 Q1935.2656,612.6875 1936.5859,611.0313 Q1937.9063,609.375 1940.4063,609.375 Q1941.1094,609.375 1941.7578,609.5313 Q1942.4063,609.6875 1942.9688,609.9844 L1942.9688,612.7031 Q1942.3438,612.125 1941.75,611.8516 Q1941.1563,611.5781 1940.5313,611.5781 Q1939.1875,611.5781 1938.5,612.6484 Q1937.8125,613.7188 1937.8125,615.8125 Q1937.8125,617.9063 1938.5,618.9766 Q1939.1875,620.0469 1940.5313,620.0469 Q1941.1563,620.0469 1941.75,619.7734 Q1942.3438,619.5 1942.9688,618.9219 L1942.9688,621.6406 Z " fill="#000000"/><text fill="#000000" font-family="sans-serif" font-size="14" lengthAdjust="spacing" textLength="111" x="1954" y="620.8467">drawer_content</text><line style="stroke:#181818;stroke-width:0.5;" x1="1926" x2="2067" y1="632" y2="632"/><ellipse cx="1936" cy="643" fill="none" rx="3" ry="3" style="stroke:#038048;stroke-width:1.0;"/><text fill="#000000" font-family="sans-serif" font-size="14" lengthAdjust="spacing" textLength="100" x="1945" y="648.9951">key std::string</text><ellipse cx="1936" cy="659.2969" fill="none" rx="3" ry="3" style="stroke:#038048;stroke-width:1.0;"/><text fill="#000000" font-family="sans-serif" font-size="14" lengthAdjust="spacing" textLength="114" x="1945" y="665.292">value std::string</text><line style="stroke:#181818;stroke-width:0.5;" x1="1926" x2="2067" y1="672.5938" y2="672.5938"/></g><!--MD5=[5ebdf77270ee54b8b56c0206f94804fa]
class entities::affiliated_keyword--><g id="elem_entities::affiliated_keyword"><rect codeLine="90" fill="#F7E5FF" height="80.5938" id="entities::affiliated_keyword" rx="2.5" ry="2.5" style="stroke:#181818;stroke-width:0.5;" width="162" x="2103.5" y="600"/><ellipse cx="2118.5" cy="616" fill="#ADD1B2" rx="11" ry="11" style="stroke:#181818;stroke-width:1.0;"/><path d="M2121.4688,621.6406 Q2120.8906,621.9375 2120.25,622.0859 Q2119.6094,622.2344 2118.9063,622.2344 Q2116.4063,622.2344 2115.0859,620.5859 Q2113.7656,618.9375 2113.7656,615.8125 Q2113.7656,612.6875 2115.0859,611.0313 Q2116.4063,609.375 2118.9063,609.375 Q2119.6094,609.375 2120.2578,609.5313 Q2120.9063,609.6875 2121.4688,609.9844 L2121.4688,612.7031 Q2120.8438,612.125 2120.25,611.8516 Q2119.6563,611.5781 2119.0313,611.5781 Q2117.6875,611.5781 2117,612.6484 Q2116.3125,613.7188 2116.3125,615.8125 Q2116.3125,617.9063 2117,618.9766 Q2117.6875,620.0469 2119.0313,620.0469 Q2119.6563,620.0469 2120.25,619.7734 Q2120.8438,619.5 2121.4688,618.9219 L2121.4688,621.6406 Z " fill="#000000"/><text fill="#000000" font-family="sans-serif" font-size="14" lengthAdjust="spacing" textLength="130" x="2132.5" y="620.8467">affiliated_keyword</text><line style="stroke:#181818;stroke-width:0.5;" x1="2104.5" x2="2264.5" y1="632" y2="632"/><ellipse cx="2114.5" cy="643" fill="none" rx="3" ry="3" style="stroke:#038048;stroke-width:1.0;"/><text fill="#000000" font-family="sans-serif" font-size="14" lengthAdjust="spacing" textLength="100" x="2123.5" y="648.9951">key std::string</text><ellipse cx="2114.5" cy="659.2969" fill="none" rx="3" ry="3" style="stroke:#038048;stroke-width:1.0;"/><text fill="#000000" font-family="sans-serif" font-size="14" lengthAdjust="spacing" textLength="114" x="2123.5" y="665.292">value std::string</text><line style="stroke:#181818;stroke-width:0.5;" x1="2104.5" x2="2264.5" y1="672.5938" y2="672.5938"/></g><!--MD5=[dd341396ccfbc72c7fc4b3e9e9068935]
class entities::drawer_type--><g id="elem_entities::drawer_type"><rect codeLine="95" fill="#F2DAFD" height="88.8594" id="entities::drawer_type" rx="2.5" ry="2.5" style="stroke:#181818;stroke-width:0.5;" width="160" x="1429.5" y="818"/><ellipse cx="1444.5" cy="838.1328" fill="#EB937F" rx="11" ry="11" style="stroke:#181818;stroke-width:1.0;"/><path d="M1448.6094,844.1328 L1440.8906,844.1328 L1440.8906,831.7422 L1448.6094,831.7422 L1448.6094,833.8984 L1443.3438,833.8984 L1443.3438,836.5703 L1448.1094,836.5703 L1448.1094,838.7266 L1443.3438,838.7266 L1443.3438,841.9766 L1448.6094,841.9766 L1448.6094,844.1328 Z " fill="#000000"/><text fill="#000000" font-family="sans-serif" font-size="12" font-style="italic" lengthAdjust="spacing" textLength="132" x="1456.5" y="834.1387">«masd::enumeration»</text><text fill="#000000" font-family="sans-serif" font-size="14" lengthAdjust="spacing" textLength="88" x="1478.5" y="849.9639">drawer_type</text><line style="stroke:#181818;stroke-width:0.5;" x1="1430.5" x2="1588.5" y1="858.2656" y2="858.2656"/><ellipse cx="1440.5" cy="869.2656" fill="none" rx="3" ry="3" style="stroke:#038048;stroke-width:1.0;"/><text fill="#000000" font-family="sans-serif" font-size="14" lengthAdjust="spacing" textLength="52" x="1449.5" y="875.2607">regular</text><ellipse cx="1440.5" cy="885.5625" fill="none" rx="3" ry="3" style="stroke:#038048;stroke-width:1.0;"/><text fill="#000000" font-family="sans-serif" font-size="14" lengthAdjust="spacing" textLength="118" x="1449.5" y="891.5576">property_drawer</text><line style="stroke:#181818;stroke-width:0.5;" x1="1430.5" x2="1588.5" y1="898.8594" y2="898.8594"/></g><!--MD5=[3c07cef84e6cfa5919e42cc8e7de022f]
class entities::priority_cookie--><g id="elem_entities::priority_cookie"><rect codeLine="100" fill="#EDCEFB" height="56.2656" id="entities::priority_cookie" rx="2.5" ry="2.5" style="stroke:#181818;stroke-width:0.5;" width="137" x="1625" y="834.5"/><ellipse cx="1640" cy="854.6328" fill="#ADD1B2" rx="11" ry="11" style="stroke:#181818;stroke-width:1.0;"/><path d="M1642.9688,860.2734 Q1642.3906,860.5703 1641.75,860.7188 Q1641.1094,860.8672 1640.4063,860.8672 Q1637.9063,860.8672 1636.5859,859.2188 Q1635.2656,857.5703 1635.2656,854.4453 Q1635.2656,851.3203 1636.5859,849.6641 Q1637.9063,848.0078 1640.4063,848.0078 Q1641.1094,848.0078 1641.7578,848.1641 Q1642.4063,848.3203 1642.9688,848.6172 L1642.9688,851.3359 Q1642.3438,850.7578 1641.75,850.4844 Q1641.1563,850.2109 1640.5313,850.2109 Q1639.1875,850.2109 1638.5,851.2813 Q1637.8125,852.3516 1637.8125,854.4453 Q1637.8125,856.5391 1638.5,857.6094 Q1639.1875,858.6797 1640.5313,858.6797 Q1641.1563,858.6797 1641.75,858.4063 Q1642.3438,858.1328 1642.9688,857.5547 L1642.9688,860.2734 Z " fill="#000000"/><text fill="#000000" font-family="sans-serif" font-size="12" font-style="italic" lengthAdjust="spacing" textLength="108" x="1652.5" y="850.6387">«masd::primitive»</text><text fill="#000000" font-family="sans-serif" font-size="14" lengthAdjust="spacing" textLength="105" x="1654" y="866.4639">priority_cookie</text><line style="stroke:#181818;stroke-width:0.5;" x1="1626" x2="1761" y1="874.7656" y2="874.7656"/><line style="stroke:#181818;stroke-width:0.5;" x1="1626" x2="1761" y1="882.7656" y2="882.7656"/></g><!--MD5=[43446cddb58501e620ee01c0e5294ca5]
class entities::block--><g id="elem_entities::block"><rect codeLine="103" fill="#F7E5FF" height="113.1875" id="entities::block" rx="2.5" ry="2.5" style="stroke:#181818;stroke-width:0.5;" width="264" x="1797.5" y="806"/><ellipse cx="1906.25" cy="822" fill="#ADD1B2" rx="11" ry="11" style="stroke:#181818;stroke-width:1.0;"/><path d="M1909.2188,827.6406 Q1908.6406,827.9375 1908,828.0859 Q1907.3594,828.2344 1906.6563,828.2344 Q1904.1563,828.2344 1902.8359,826.5859 Q1901.5156,824.9375 1901.5156,821.8125 Q1901.5156,818.6875 1902.8359,817.0313 Q1904.1563,815.375 1906.6563,815.375 Q1907.3594,815.375 1908.0078,815.5313 Q1908.6563,815.6875 1909.2188,815.9844 L1909.2188,818.7031 Q1908.5938,818.125 1908,817.8516 Q1907.4063,817.5781 1906.7813,817.5781 Q1905.4375,817.5781 1904.75,818.6484 Q1904.0625,819.7188 1904.0625,821.8125 Q1904.0625,823.9063 1904.75,824.9766 Q1905.4375,826.0469 1906.7813,826.0469 Q1907.4063,826.0469 1908,825.7734 Q1908.5938,825.5 1909.2188,824.9219 L1909.2188,827.6406 Z " fill="#000000"/><text fill="#000000" font-family="sans-serif" font-size="14" lengthAdjust="spacing" textLength="38" x="1926.75" y="826.8467">block</text><line style="stroke:#181818;stroke-width:0.5;" x1="1798.5" x2="2060.5" y1="838" y2="838"/><ellipse cx="1808.5" cy="849" fill="none" rx="3" ry="3" style="stroke:#038048;stroke-width:1.0;"/><text fill="#000000" font-family="sans-serif" font-size="14" lengthAdjust="spacing" textLength="116" x="1817.5" y="854.9951">name std::string</text><ellipse cx="1808.5" cy="865.2969" fill="none" rx="3" ry="3" style="stroke:#038048;stroke-width:1.0;"/><text fill="#000000" font-family="sans-serif" font-size="14" lengthAdjust="spacing" textLength="238" x="1817.5" y="871.292">parameters std::list&lt;parameter&gt;</text><ellipse cx="1808.5" cy="881.5938" fill="none" rx="3" ry="3" style="stroke:#038048;stroke-width:1.0;"/><text fill="#000000" font-family="sans-serif" font-size="14" lengthAdjust="spacing" textLength="136" x="1817.5" y="887.5889">contents std::string</text><ellipse cx="1808.5" cy="897.8906" fill="none" rx="3" ry="3" style="stroke:#038048;stroke-width:1.0;"/><text fill="#000000" font-family="sans-serif" font-size="14" lengthAdjust="spacing" textLength="111" x="1817.5" y="903.8857">type block_type</text><line style="stroke:#181818;stroke-width:0.5;" x1="1798.5" x2="2060.5" y1="911.1875" y2="911.1875"/></g><!--MD5=[e2197173a6fdde6d546b5f22550b378e]
class entities::block_type--><g id="elem_entities::block_type"><rect codeLine="110" fill="#F2DAFD" height="88.8594" id="entities::block_type" rx="2.5" ry="2.5" style="stroke:#181818;stroke-width:0.5;" width="160" x="2096.5" y="818"/><ellipse cx="2111.5" cy="838.1328" fill="#EB937F" rx="11" ry="11" style="stroke:#181818;stroke-width:1.0;"/><path d="M2115.6094,844.1328 L2107.8906,844.1328 L2107.8906,831.7422 L2115.6094,831.7422 L2115.6094,833.8984 L2110.3438,833.8984 L2110.3438,836.5703 L2115.1094,836.5703 L2115.1094,838.7266 L2110.3438,838.7266 L2110.3438,841.9766 L2115.6094,841.9766 L2115.6094,844.1328 Z " fill="#000000"/><text fill="#000000" font-family="sans-serif" font-size="12" font-style="italic" lengthAdjust="spacing" textLength="132" x="2123.5" y="834.1387">«masd::enumeration»</text><text fill="#000000" font-family="sans-serif" font-size="14" lengthAdjust="spacing" textLength="76" x="2151.5" y="849.9639">block_type</text><line style="stroke:#181818;stroke-width:0.5;" x1="2097.5" x2="2255.5" y1="858.2656" y2="858.2656"/><ellipse cx="2107.5" cy="869.2656" fill="none" rx="3" ry="3" style="stroke:#038048;stroke-width:1.0;"/><text fill="#000000" font-family="sans-serif" font-size="14" lengthAdjust="spacing" textLength="72" x="2116.5" y="875.2607">text_block</text><ellipse cx="2107.5" cy="885.5625" fill="none" rx="3" ry="3" style="stroke:#038048;stroke-width:1.0;"/><text fill="#000000" font-family="sans-serif" font-size="14" lengthAdjust="spacing" textLength="98" x="2116.5" y="891.5576">greater_block</text><line style="stroke:#181818;stroke-width:0.5;" x1="2097.5" x2="2255.5" y1="898.8594" y2="898.8594"/></g><!--MD5=[c47cde30c55dd5b3ce311283ed04db5e]
class entities::parameter--><g id="elem_entities::parameter"><rect codeLine="115" fill="#EDCEFB" height="56.2656" id="entities::parameter" rx="2.5" ry="2.5" style="stroke:#181818;stroke-width:0.5;" width="136" x="1441.5" y="979"/><ellipse cx="1456.5" cy="999.1328" fill="#ADD1B2" rx="11" ry="11" style="stroke:#181818;stroke-width:1.0;"/><path d="M1459.4688,1004.7734 Q1458.8906,1005.0703 1458.25,1005.2188 Q1457.6094,1005.3672 1456.9063,1005.3672 Q1454.4063,1005.3672 1453.0859,1003.7188 Q1451.7656,1002.0703 1451.7656,998.9453 Q1451.7656,995.8203 1453.0859,994.1641 Q1454.4063,992.5078 1456.9063,992.5078 Q1457.6094,992.5078 1458.2578,992.6641 Q1458.9063,992.8203 1459.4688,993.1172 L1459.4688,995.8359 Q1458.8438,995.2578 1458.25,994.9844 Q1457.6563,994.7109 1457.0313,994.7109 Q1455.6875,994.7109 1455,995.7813 Q1454.3125,996.8516 1454.3125,998.9453 Q1454.3125,1001.0391 1455,1002.1094 Q1455.6875,1003.1797 1457.0313,1003.1797 Q1457.6563,1003.1797 1458.25,1002.9063 Q1458.8438,1002.6328 1459.4688,1002.0547 L1459.4688,1004.7734 Z " fill="#000000"/><text fill="#000000" font-family="sans-serif" font-size="12" font-style="italic" lengthAdjust="spacing" textLength="108" x="1468.5" y="995.1387">«masd::primitive»</text><text fill="#000000" font-family="sans-serif" font-size="14" lengthAdjust="spacing" textLength="76" x="1484.5" y="1010.9639">parameter</text><line style="stroke:#181818;stroke-width:0.5;" x1="1442.5" x2="1576.5" y1="1019.2656" y2="1019.2656"/><line style="stroke:#181818;stroke-width:0.5;" x1="1442.5" x2="1576.5" y1="1027.2656" y2="1027.2656"/></g><!--MD5=[b91d733714dc8ad0fbdbbb0d43776762]
class transforms::string_to_document_transform--><g id="elem_transforms::string_to_document_transform"><rect codeLine="130" fill="#FFFACD" height="56.2656" id="transforms::string_to_document_transform" rx="2.5" ry="2.5" style="stroke:#181818;stroke-width:0.5;" width="249" x="4454" y="230"/><ellipse cx="4469" cy="250.1328" fill="#ADD1B2" rx="11" ry="11" style="stroke:#181818;stroke-width:1.0;"/><path d="M4471.9688,255.7734 Q4471.3906,256.0703 4470.75,256.2188 Q4470.1094,256.3672 4469.4063,256.3672 Q4466.9063,256.3672 4465.5859,254.7188 Q4464.2656,253.0703 4464.2656,249.9453 Q4464.2656,246.8203 4465.5859,245.1641 Q4466.9063,243.5078 4469.4063,243.5078 Q4470.1094,243.5078 4470.7578,243.6641 Q4471.4063,243.8203 4471.9688,244.1172 L4471.9688,246.8359 Q4471.3438,246.2578 4470.75,245.9844 Q4470.1563,245.7109 4469.5313,245.7109 Q4468.1875,245.7109 4467.5,246.7813 Q4466.8125,247.8516 4466.8125,249.9453 Q4466.8125,252.0391 4467.5,253.1094 Q4468.1875,254.1797 4469.5313,254.1797 Q4470.1563,254.1797 4470.75,253.9063 Q4471.3438,253.6328 4471.9688,253.0547 L4471.9688,255.7734 Z " fill="#000000"/><text fill="#000000" font-family="sans-serif" font-size="12" font-style="italic" lengthAdjust="spacing" textLength="194" x="4494.5" y="246.1387">«dogen::handcrafted::typeable»</text><text fill="#000000" font-family="sans-serif" font-size="14" lengthAdjust="spacing" textLength="217" x="4483" y="261.9639">string_to_document_transform</text><line style="stroke:#181818;stroke-width:0.5;" x1="4455" x2="4702" y1="270.2656" y2="270.2656"/><line style="stroke:#181818;stroke-width:0.5;" x1="4455" x2="4702" y1="278.2656" y2="278.2656"/></g><!--MD5=[74c90bbefa82cfcc19b37ff16c043770]
class transforms::document_to_string_transform--><g id="elem_transforms::document_to_string_transform"><rect codeLine="133" fill="#FFFACD" height="56.2656" id="transforms::document_to_string_transform" rx="2.5" ry="2.5" style="stroke:#181818;stroke-width:0.5;" width="249" x="4170" y="230"/><ellipse cx="4185" cy="250.1328" fill="#ADD1B2" rx="11" ry="11" style="stroke:#181818;stroke-width:1.0;"/><path d="M4187.9688,255.7734 Q4187.3906,256.0703 4186.75,256.2188 Q4186.1094,256.3672 4185.4063,256.3672 Q4182.9063,256.3672 4181.5859,254.7188 Q4180.2656,253.0703 4180.2656,249.9453 Q4180.2656,246.8203 4181.5859,245.1641 Q4182.9063,243.5078 4185.4063,243.5078 Q4186.1094,243.5078 4186.7578,243.6641 Q4187.4063,243.8203 4187.9688,244.1172 L4187.9688,246.8359 Q4187.3438,246.2578 4186.75,245.9844 Q4186.1563,245.7109 4185.5313,245.7109 Q4184.1875,245.7109 4183.5,246.7813 Q4182.8125,247.8516 4182.8125,249.9453 Q4182.8125,252.0391 4183.5,253.1094 Q4184.1875,254.1797 4185.5313,254.1797 Q4186.1563,254.1797 4186.75,253.9063 Q4187.3438,253.6328 4187.9688,253.0547 L4187.9688,255.7734 Z " fill="#000000"/><text fill="#000000" font-family="sans-serif" font-size="12" font-style="italic" lengthAdjust="spacing" textLength="194" x="4210.5" y="246.1387">«dogen::handcrafted::typeable»</text><text fill="#000000" font-family="sans-serif" font-size="14" lengthAdjust="spacing" textLength="217" x="4199" y="261.9639">document_to_string_transform</text><line style="stroke:#181818;stroke-width:0.5;" x1="4171" x2="4418" y1="270.2656" y2="270.2656"/><line style="stroke:#181818;stroke-width:0.5;" x1="4171" x2="4418" y1="278.2656" y2="278.2656"/></g><!--MD5=[27b967e3889903e1a1923cf71ac10874]
class transforms::transformation_error--><g id="elem_transforms::transformation_error"><rect codeLine="136" fill="#E8C2F8" height="56.2656" id="transforms::transformation_error" rx="2.5" ry="2.5" style="stroke:#181818;stroke-width:0.5;" width="181" x="3910" y="612.5"/><ellipse cx="3925" cy="632.6328" fill="#ADD1B2" rx="11" ry="11" style="stroke:#181818;stroke-width:1.0;"/><path d="M3927.9688,638.2734 Q3927.3906,638.5703 3926.75,638.7188 Q3926.1094,638.8672 3925.4063,638.8672 Q3922.9063,638.8672 3921.5859,637.2188 Q3920.2656,635.5703 3920.2656,632.4453 Q3920.2656,629.3203 3921.5859,627.6641 Q3922.9063,626.0078 3925.4063,626.0078 Q3926.1094,626.0078 3926.7578,626.1641 Q3927.4063,626.3203 3927.9688,626.6172 L3927.9688,629.3359 Q3927.3438,628.7578 3926.75,628.4844 Q3926.1563,628.2109 3925.5313,628.2109 Q3924.1875,628.2109 3923.5,629.2813 Q3922.8125,630.3516 3922.8125,632.4453 Q3922.8125,634.5391 3923.5,635.6094 Q3924.1875,636.6797 3925.5313,636.6797 Q3926.1563,636.6797 3926.75,636.4063 Q3927.3438,636.1328 3927.9688,635.5547 L3927.9688,638.2734 Z " fill="#000000"/><text fill="#000000" font-family="sans-serif" font-size="12" font-style="italic" lengthAdjust="spacing" textLength="114" x="3956.5" y="628.6387">«masd::exception»</text><text fill="#000000" font-family="sans-serif" font-size="14" lengthAdjust="spacing" textLength="149" x="3939" y="644.4639">transformation_error</text><line style="stroke:#181818;stroke-width:0.5;" x1="3911" x2="4090" y1="652.7656" y2="652.7656"/><line style="stroke:#181818;stroke-width:0.5;" x1="3911" x2="4090" y1="660.7656" y2="660.7656"/></g><g id="elem_transforms::GMN28"><path d="M3866.5,245.5 L3866.5,270.6328 A0,0 0 0 0 3866.5,270.6328 L3996.5,270.6328 L4000.5,612.36 L4004.5,270.6328 L4134.5,270.6328 A0,0 0 0 0 4134.5,270.6328 L4134.5,255.5 L4124.5,245.5 L3866.5,245.5 A0,0 0 0 0 3866.5,245.5 " fill="#FEFFDD" style="stroke:#181818;stroke-width:0.5;"/><path d="M4124.5,245.5 L4124.5,255.5 L4134.5,255.5 L4124.5,245.5 " fill="#FEFFDD" style="stroke:#181818;stroke-width:0.5;"/><text fill="#000000" font-family="sans-serif" font-size="13" lengthAdjust="spacing" textLength="247" x="3872.5" y="262.5669">An error occurred whilst transforming.</text></g><!--MD5=[2180f8df467cb2a1f9d183146a9b0379]
class helpers::parser--><g id="elem_helpers::parser"><rect codeLine="146" fill="#FFFACD" height="56.2656" id="helpers::parser" rx="2.5" ry="2.5" style="stroke:#181818;stroke-width:0.5;" width="222" x="3205.5" y="230"/><ellipse cx="3220.5" cy="250.1328" fill="#ADD1B2" rx="11" ry="11" style="stroke:#181818;stroke-width:1.0;"/><path d="M3223.4688,255.7734 Q3222.8906,256.0703 3222.25,256.2188 Q3221.6094,256.3672 3220.9063,256.3672 Q3218.4063,256.3672 3217.0859,254.7188 Q3215.7656,253.0703 3215.7656,249.9453 Q3215.7656,246.8203 3217.0859,245.1641 Q3218.4063,243.5078 3220.9063,243.5078 Q3221.6094,243.5078 3222.2578,243.6641 Q3222.9063,243.8203 3223.4688,244.1172 L3223.4688,246.8359 Q3222.8438,246.2578 3222.25,245.9844 Q3221.6563,245.7109 3221.0313,245.7109 Q3219.6875,245.7109 3219,246.7813 Q3218.3125,247.8516 3218.3125,249.9453 Q3218.3125,252.0391 3219,253.1094 Q3219.6875,254.1797 3221.0313,254.1797 Q3221.6563,254.1797 3222.25,253.9063 Q3222.8438,253.6328 3223.4688,253.0547 L3223.4688,255.7734 Z " fill="#000000"/><text fill="#000000" font-family="sans-serif" font-size="12" font-style="italic" lengthAdjust="spacing" textLength="194" x="3232.5" y="246.1387">«dogen::handcrafted::typeable»</text><text fill="#000000" font-family="sans-serif" font-size="14" lengthAdjust="spacing" textLength="46" x="3306.5" y="261.9639">parser</text><line style="stroke:#181818;stroke-width:0.5;" x1="3206.5" x2="3426.5" y1="270.2656" y2="270.2656"/><line style="stroke:#181818;stroke-width:0.5;" x1="3206.5" x2="3426.5" y1="278.2656" y2="278.2656"/></g><!--MD5=[cda24c4a25eb92d275074d8b10436642]
class helpers::parsing_error--><g id="elem_helpers::parsing_error"><rect codeLine="149" fill="#E8C2F8" height="56.2656" id="helpers::parsing_error" rx="2.5" ry="2.5" style="stroke:#181818;stroke-width:0.5;" width="142" x="2909.5" y="612.5"/><ellipse cx="2924.5" cy="632.6328" fill="#ADD1B2" rx="11" ry="11" style="stroke:#181818;stroke-width:1.0;"/><path d="M2927.4688,638.2734 Q2926.8906,638.5703 2926.25,638.7188 Q2925.6094,638.8672 2924.9063,638.8672 Q2922.4063,638.8672 2921.0859,637.2188 Q2919.7656,635.5703 2919.7656,632.4453 Q2919.7656,629.3203 2921.0859,627.6641 Q2922.4063,626.0078 2924.9063,626.0078 Q2925.6094,626.0078 2926.2578,626.1641 Q2926.9063,626.3203 2927.4688,626.6172 L2927.4688,629.3359 Q2926.8438,628.7578 2926.25,628.4844 Q2925.6563,628.2109 2925.0313,628.2109 Q2923.6875,628.2109 2923,629.2813 Q2922.3125,630.3516 2922.3125,632.4453 Q2922.3125,634.5391 2923,635.6094 Q2923.6875,636.6797 2925.0313,636.6797 Q2925.6563,636.6797 2926.25,636.4063 Q2926.8438,636.1328 2927.4688,635.5547 L2927.4688,638.2734 Z " fill="#000000"/><text fill="#000000" font-family="sans-serif" font-size="12" font-style="italic" lengthAdjust="spacing" textLength="114" x="2936.5" y="628.6387">«masd::exception»</text><text fill="#000000" font-family="sans-serif" font-size="14" lengthAdjust="spacing" textLength="96" x="2945.5" y="644.4639">parsing_error</text><line style="stroke:#181818;stroke-width:0.5;" x1="2910.5" x2="3050.5" y1="652.7656" y2="652.7656"/><line style="stroke:#181818;stroke-width:0.5;" x1="2910.5" x2="3050.5" y1="660.7656" y2="660.7656"/></g><g id="elem_helpers::GMN34"><path d="M2790,245.5 L2790,270.6328 A0,0 0 0 0 2790,270.6328 L2976.5,270.6328 L2980.5,612.36 L2984.5,270.6328 L3171,270.6328 A0,0 0 0 0 3171,270.6328 L3171,255.5 L3161,245.5 L2790,245.5 A0,0 0 0 0 2790,245.5 " fill="#FEFFDD" style="stroke:#181818;stroke-width:0.5;"/><path d="M3161,245.5 L3161,255.5 L3171,255.5 L3161,245.5 " fill="#FEFFDD" style="stroke:#181818;stroke-width:0.5;"/><text fill="#000000" font-family="sans-serif" font-size="13" lengthAdjust="spacing" textLength="360" x="2796" y="262.5669">An error ocurred whilst parsing an org-mode document.</text></g><!--MD5=[8e51bc3e404e283503c29edeec16d10b]
class helpers::node--><g id="elem_helpers::node"><rect codeLine="156" fill="#ED8181" height="88.8594" id="helpers::node" rx="2.5" ry="2.5" style="stroke:#181818;stroke-width:0.5;" width="348" x="3462.5" y="213.5"/><ellipse cx="3572.25" cy="233.6328" fill="#ADD1B2" rx="11" ry="11" style="stroke:#181818;stroke-width:1.0;"/><path d="M3575.2188,239.2734 Q3574.6406,239.5703 3574,239.7188 Q3573.3594,239.8672 3572.6563,239.8672 Q3570.1563,239.8672 3568.8359,238.2188 Q3567.5156,236.5703 3567.5156,233.4453 Q3567.5156,230.3203 3568.8359,228.6641 Q3570.1563,227.0078 3572.6563,227.0078 Q3573.3594,227.0078 3574.0078,227.1641 Q3574.6563,227.3203 3575.2188,227.6172 L3575.2188,230.3359 Q3574.5938,229.7578 3574,229.4844 Q3573.4063,229.2109 3572.7813,229.2109 Q3571.4375,229.2109 3570.75,230.2813 Q3570.0625,231.3516 3570.0625,233.4453 Q3570.0625,235.5391 3570.75,236.6094 Q3571.4375,237.6797 3572.7813,237.6797 Q3573.4063,237.6797 3574,237.4063 Q3574.5938,237.1328 3575.2188,236.5547 L3575.2188,239.2734 Z " fill="#000000"/><text fill="#000000" font-family="sans-serif" font-size="12" font-style="italic" lengthAdjust="spacing" textLength="124" x="3590.75" y="229.6387">«dogen::untestable»</text><text fill="#000000" font-family="sans-serif" font-size="14" lengthAdjust="spacing" textLength="36" x="3634.75" y="245.4639">node</text><line style="stroke:#181818;stroke-width:0.5;" x1="3463.5" x2="3809.5" y1="253.7656" y2="253.7656"/><ellipse cx="3473.5" cy="264.7656" fill="none" rx="3" ry="3" style="stroke:#038048;stroke-width:1.0;"/><text fill="#000000" font-family="sans-serif" font-size="14" lengthAdjust="spacing" textLength="160" x="3482.5" y="270.7607">data entities::headline</text><ellipse cx="3473.5" cy="281.0625" fill="none" rx="3" ry="3" style="stroke:#038048;stroke-width:1.0;"/><text fill="#000000" font-family="sans-serif" font-size="14" lengthAdjust="spacing" textLength="322" x="3482.5" y="287.0576">children std::list&lt;boost::shared_ptr&lt;node&gt;&gt;</text><line style="stroke:#181818;stroke-width:0.5;" x1="3463.5" x2="3809.5" y1="294.3594" y2="294.3594"/></g><!--MD5=[aef46ec41b4e11f2e7af5d5b5bac8122]
class helpers::builder--><g id="elem_helpers::builder"><rect codeLine="161" fill="#FFFACD" height="72.5625" id="helpers::builder" rx="2.5" ry="2.5" style="stroke:#181818;stroke-width:0.5;" width="244" x="3194.5" y="604"/><ellipse cx="3219.4" cy="624.1328" fill="#ADD1B2" rx="11" ry="11" style="stroke:#181818;stroke-width:1.0;"/><path d="M3222.3688,629.7734 Q3221.7906,630.0703 3221.15,630.2188 Q3220.5094,630.3672 3219.8063,630.3672 Q3217.3063,630.3672 3215.9859,628.7188 Q3214.6656,627.0703 3214.6656,623.9453 Q3214.6656,620.8203 3215.9859,619.1641 Q3217.3063,617.5078 3219.8063,617.5078 Q3220.5094,617.5078 3221.1578,617.6641 Q3221.8063,617.8203 3222.3688,618.1172 L3222.3688,620.8359 Q3221.7438,620.2578 3221.15,619.9844 Q3220.5563,619.7109 3219.9313,619.7109 Q3218.5875,619.7109 3217.9,620.7813 Q3217.2125,621.8516 3217.2125,623.9453 Q3217.2125,626.0391 3217.9,627.1094 Q3218.5875,628.1797 3219.9313,628.1797 Q3220.5563,628.1797 3221.15,627.9063 Q3221.7438,627.6328 3222.3688,627.0547 L3222.3688,629.7734 Z " fill="#000000"/><text fill="#000000" font-family="sans-serif" font-size="12" font-style="italic" lengthAdjust="spacing" textLength="194" x="3233.6" y="620.1387">«dogen::handcrafted::typeable»</text><text fill="#000000" font-family="sans-serif" font-size="14" lengthAdjust="spacing" textLength="50" x="3305.6" y="635.9639">builder</text><line style="stroke:#181818;stroke-width:0.5;" x1="3195.5" x2="3437.5" y1="644.2656" y2="644.2656"/><ellipse cx="3205.5" cy="655.2656" fill="none" rx="3" ry="3" style="stroke:#038048;stroke-width:1.0;"/><text fill="#000000" font-family="sans-serif" font-size="14" lengthAdjust="spacing" textLength="218" x="3214.5" y="661.2607">root boost::shared_ptr&lt;node&gt;</text><line style="stroke:#181818;stroke-width:0.5;" x1="3195.5" x2="3437.5" y1="668.5625" y2="668.5625"/></g><!--MD5=[6fd13f622b1e010fae07eaa86c0895f5]
class helpers::building_error--><g id="elem_helpers::building_error"><rect codeLine="165" fill="#E8C2F8" height="56.2656" id="helpers::building_error" rx="2.5" ry="2.5" style="stroke:#181818;stroke-width:0.5;" width="142" x="2565.5" y="612.5"/><ellipse cx="2580.5" cy="632.6328" fill="#ADD1B2" rx="11" ry="11" style="stroke:#181818;stroke-width:1.0;"/><path d="M2583.4688,638.2734 Q2582.8906,638.5703 2582.25,638.7188 Q2581.6094,638.8672 2580.9063,638.8672 Q2578.4063,638.8672 2577.0859,637.2188 Q2575.7656,635.5703 2575.7656,632.4453 Q2575.7656,629.3203 2577.0859,627.6641 Q2578.4063,626.0078 2580.9063,626.0078 Q2581.6094,626.0078 2582.2578,626.1641 Q2582.9063,626.3203 2583.4688,626.6172 L2583.4688,629.3359 Q2582.8438,628.7578 2582.25,628.4844 Q2581.6563,628.2109 2581.0313,628.2109 Q2579.6875,628.2109 2579,629.2813 Q2578.3125,630.3516 2578.3125,632.4453 Q2578.3125,634.5391 2579,635.6094 Q2579.6875,636.6797 2581.0313,636.6797 Q2581.6563,636.6797 2582.25,636.4063 Q2582.8438,636.1328 2583.4688,635.5547 L2583.4688,638.2734 Z " fill="#000000"/><text fill="#000000" font-family="sans-serif" font-size="12" font-style="italic" lengthAdjust="spacing" textLength="114" x="2592.5" y="628.6387">«masd::exception»</text><text fill="#000000" font-family="sans-serif" font-size="14" lengthAdjust="spacing" textLength="100" x="2599.5" y="644.4639">building_error</text><line style="stroke:#181818;stroke-width:0.5;" x1="2566.5" x2="2706.5" y1="652.7656" y2="652.7656"/><line style="stroke:#181818;stroke-width:0.5;" x1="2566.5" x2="2706.5" y1="660.7656" y2="660.7656"/></g><g id="elem_helpers::GMN40"><path d="M2518.5,245.5 L2518.5,270.6328 A0,0 0 0 0 2518.5,270.6328 L2632.5,270.6328 L2636.5,612.36 L2640.5,270.6328 L2754.5,270.6328 A0,0 0 0 0 2754.5,270.6328 L2754.5,255.5 L2744.5,245.5 L2518.5,245.5 A0,0 0 0 0 2518.5,245.5 " fill="#FEFFDD" style="stroke:#181818;stroke-width:0.5;"/><path d="M2744.5,245.5 L2744.5,255.5 L2754.5,255.5 L2744.5,245.5 " fill="#FEFFDD" style="stroke:#181818;stroke-width:0.5;"/><text fill="#000000" font-family="sans-serif" font-size="13" lengthAdjust="spacing" textLength="215" x="2524.5" y="262.5669">An error occurred whilst building.</text></g><!--MD5=[194261232dfc7ab97825e524ed0c76bd]
class helpers::document_factory--><g id="elem_helpers::document_factory"><rect codeLine="172" fill="#FFFACD" height="56.2656" id="helpers::document_factory" rx="2.5" ry="2.5" style="stroke:#181818;stroke-width:0.5;" width="222" x="3473.5" y="612.5"/><ellipse cx="3488.5" cy="632.6328" fill="#ADD1B2" rx="11" ry="11" style="stroke:#181818;stroke-width:1.0;"/><path d="M3491.4688,638.2734 Q3490.8906,638.5703 3490.25,638.7188 Q3489.6094,638.8672 3488.9063,638.8672 Q3486.4063,638.8672 3485.0859,637.2188 Q3483.7656,635.5703 3483.7656,632.4453 Q3483.7656,629.3203 3485.0859,627.6641 Q3486.4063,626.0078 3488.9063,626.0078 Q3489.6094,626.0078 3490.2578,626.1641 Q3490.9063,626.3203 3491.4688,626.6172 L3491.4688,629.3359 Q3490.8438,628.7578 3490.25,628.4844 Q3489.6563,628.2109 3489.0313,628.2109 Q3487.6875,628.2109 3487,629.2813 Q3486.3125,630.3516 3486.3125,632.4453 Q3486.3125,634.5391 3487,635.6094 Q3487.6875,636.6797 3489.0313,636.6797 Q3489.6563,636.6797 3490.25,636.4063 Q3490.8438,636.1328 3491.4688,635.5547 L3491.4688,638.2734 Z " fill="#000000"/><text fill="#000000" font-family="sans-serif" font-size="12" font-style="italic" lengthAdjust="spacing" textLength="194" x="3500.5" y="628.6387">«dogen::handcrafted::typeable»</text><text fill="#000000" font-family="sans-serif" font-size="14" lengthAdjust="spacing" textLength="129" x="3533" y="644.4639">document_factory</text><line style="stroke:#181818;stroke-width:0.5;" x1="3474.5" x2="3694.5" y1="652.7656" y2="652.7656"/><line style="stroke:#181818;stroke-width:0.5;" x1="3474.5" x2="3694.5" y1="660.7656" y2="660.7656"/></g><g id="elem_N1"><path d="M6,192.5 L6,323.5625 L517,323.5625 L517,202.5 L507,192.5 L6,192.5 " fill="#FEFFDD" style="stroke:#181818;stroke-width:0.5;"/><path d="M507,192.5 L507,202.5 L517,202.5 L507,192.5 " fill="#FEFFDD" style="stroke:#181818;stroke-width:1.0;"/><text fill="#000000" font-family="sans-serif" font-size="13" lengthAdjust="spacing" textLength="490" x="12" y="209.5669">Provides support for encoding and decoding Emacs's org-mode documents.</text><text fill="#000000" font-family="sans-serif" font-size="13" lengthAdjust="spacing" textLength="4" x="12" y="224.6997"> </text><text fill="#000000" font-family="sans-serif" font-size="13" lengthAdjust="spacing" textLength="463" x="12" y="239.8325">The support is very basic and focuses only on the features of org mode</text><text fill="#000000" font-family="sans-serif" font-size="13" lengthAdjust="spacing" textLength="124" x="12" y="254.9653">required by Dogen.</text><text fill="#000000" font-family="sans-serif" font-size="13" lengthAdjust="spacing" textLength="4" x="12" y="270.0981"> </text><text fill="#000000" font-family="sans-serif" font-size="13" lengthAdjust="spacing" textLength="131" x="12" y="285.231">UML representation:</text><text fill="#000000" font-family="sans-serif" font-size="13" lengthAdjust="spacing" textLength="4" x="12" y="300.3638"> </text><text fill="#000000" font-family="sans-serif" font-size="13" lengthAdjust="spacing" textLength="309" x="12" y="315.4966">\image html dogen.org/modeling/dogen.org.svg</text></g><!--MD5=[191260866125489e686a52f29270ba5f]
class registrar--><g id="elem_registrar"><rect codeLine="120" fill="#00FF00" height="56.2656" id="registrar" rx="2.5" ry="2.5" style="stroke:#181818;stroke-width:0.5;" width="245" x="552" y="230"/><ellipse cx="567" cy="250.1328" fill="#ADD1B2" rx="11" ry="11" style="stroke:#181818;stroke-width:1.0;"/><path d="M569.9688,255.7734 Q569.3906,256.0703 568.75,256.2188 Q568.1094,256.3672 567.4063,256.3672 Q564.9063,256.3672 563.5859,254.7188 Q562.2656,253.0703 562.2656,249.9453 Q562.2656,246.8203 563.5859,245.1641 Q564.9063,243.5078 567.4063,243.5078 Q568.1094,243.5078 568.7578,243.6641 Q569.4063,243.8203 569.9688,244.1172 L569.9688,246.8359 Q569.3438,246.2578 568.75,245.9844 Q568.1563,245.7109 567.5313,245.7109 Q566.1875,245.7109 565.5,246.7813 Q564.8125,247.8516 564.8125,249.9453 Q564.8125,252.0391 565.5,253.1094 Q566.1875,254.1797 567.5313,254.1797 Q568.1563,254.1797 568.75,253.9063 Q569.3438,253.6328 569.9688,253.0547 L569.9688,255.7734 Z " fill="#000000"/><text fill="#000000" font-family="sans-serif" font-size="12" font-style="italic" lengthAdjust="spacing" textLength="217" x="579" y="246.1387">«masd::serialization::type_registrar»</text><text fill="#000000" font-family="sans-serif" font-size="14" lengthAdjust="spacing" textLength="61" x="657" y="261.9639">registrar</text><line style="stroke:#181818;stroke-width:0.5;" x1="553" x2="796" y1="270.2656" y2="270.2656"/><line style="stroke:#181818;stroke-width:0.5;" x1="553" x2="796" y1="278.2656" y2="278.2656"/></g><!--MD5=[4520fda4e10d4d791ce48fe025810cd4]
class main--><g id="elem_main"><rect codeLine="123" fill="#DDA9F3" height="56.2656" id="main" rx="2.5" ry="2.5" style="stroke:#181818;stroke-width:0.5;" width="267" x="128" y="612.5"/><ellipse cx="143" cy="632.6328" fill="#ADD1B2" rx="11" ry="11" style="stroke:#181818;stroke-width:1.0;"/><path d="M145.9688,638.2734 Q145.3906,638.5703 144.75,638.7188 Q144.1094,638.8672 143.4063,638.8672 Q140.9063,638.8672 139.5859,637.2188 Q138.2656,635.5703 138.2656,632.4453 Q138.2656,629.3203 139.5859,627.6641 Q140.9063,626.0078 143.4063,626.0078 Q144.1094,626.0078 144.7578,626.1641 Q145.4063,626.3203 145.9688,626.6172 L145.9688,629.3359 Q145.3438,628.7578 144.75,628.4844 Q144.1563,628.2109 143.5313,628.2109 Q142.1875,628.2109 141.5,629.2813 Q140.8125,630.3516 140.8125,632.4453 Q140.8125,634.5391 141.5,635.6094 Q142.1875,636.6797 143.5313,636.6797 Q144.1563,636.6797 144.75,636.4063 Q145.3438,636.1328 145.9688,635.5547 L145.9688,638.2734 Z " fill="#000000"/><text fill="#000000" font-family="sans-serif" font-size="12" font-style="italic" lengthAdjust="spacing" textLength="239" x="155" y="628.6387">«masd::entry_point, dogen::untypable»</text><text fill="#000000" font-family="sans-serif" font-size="14" lengthAdjust="spacing" textLength="36" x="256.5" y="644.4639">main</text><line style="stroke:#181818;stroke-width:0.5;" x1="129" x2="394" y1="652.7656" y2="652.7656"/><line style="stroke:#181818;stroke-width:0.5;" x1="129" x2="394" y1="660.7656" y2="660.7656"/></g><!--MD5=[ba83386d426114557685538e96aa6f68]
class CMakeLists--><g id="elem_CMakeLists"><rect codeLine="126" fill="#99CB99" height="56.2656" id="CMakeLists" rx="2.5" ry="2.5" style="stroke:#181818;stroke-width:0.5;" width="360" x="430.5" y="612.5"/><ellipse cx="445.5" cy="632.6328" fill="#ADD1B2" rx="11" ry="11" style="stroke:#181818;stroke-width:1.0;"/><path d="M448.4688,638.2734 Q447.8906,638.5703 447.25,638.7188 Q446.6094,638.8672 445.9063,638.8672 Q443.4063,638.8672 442.0859,637.2188 Q440.7656,635.5703 440.7656,632.4453 Q440.7656,629.3203 442.0859,627.6641 Q443.4063,626.0078 445.9063,626.0078 Q446.6094,626.0078 447.2578,626.1641 Q447.9063,626.3203 448.4688,626.6172 L448.4688,629.3359 Q447.8438,628.7578 447.25,628.4844 Q446.6563,628.2109 446.0313,628.2109 Q444.6875,628.2109 444,629.2813 Q443.3125,630.3516 443.3125,632.4453 Q443.3125,634.5391 444,635.6094 Q444.6875,636.6797 446.0313,636.6797 Q446.6563,636.6797 447.25,636.4063 Q447.8438,636.1328 448.4688,635.5547 L448.4688,638.2734 Z " fill="#000000"/><text fill="#000000" font-family="sans-serif" font-size="12" font-style="italic" lengthAdjust="spacing" textLength="332" x="457.5" y="628.6387">«masd::build::cmakelists, dogen::handcrafted::cmake»</text><text fill="#000000" font-family="sans-serif" font-size="14" lengthAdjust="spacing" textLength="79" x="584" y="644.4639">CMakeLists</text><line style="stroke:#181818;stroke-width:0.5;" x1="431.5" x2="789.5" y1="652.7656" y2="652.7656"/><line style="stroke:#181818;stroke-width:0.5;" x1="431.5" x2="789.5" y1="660.7656" y2="660.7656"/></g><!--MD5=[26860b4d9313c0d88107265bb34c89c1]
link N1 to registrar--></g></svg>