<?xml version="1.0" encoding="UTF-8" standalone="no"?><svg xmlns="http://www.w3.org/2000/svg" xmlns:xlink="http://www.w3.org/1999/xlink" contentStyleType="text/css" height="1127px" preserveAspectRatio="none" style="width:4761px;height:1127px;background:#FFFFFF;" version="1.1" viewBox="0 0 4761 1127" width="4761px" zoomAndPan="magnify"><defs/><g><!--MD5=[2a013135f1f90689be40a3c084fed702]
cluster entities--><g id="cluster_entities"><path d="M979,175 L1042,175 A3.75,3.75 0 0 1 1044.5,177.5 L1051.5,197.2969 L2503,197.2969 A2.5,2.5 0 0 1 2505.5,199.7969 L2505.5,1117.5 A2.5,2.5 0 0 1 2503,1120 L979,1120 A2.5,2.5 0 0 1 976.5,1117.5 L976.5,177.5 A2.5,2.5 0 0 1 979,175 " fill="#F2F2F2" style="stroke:#000000;stroke-width:1.5;"/><line style="stroke:#000000;stroke-width:1.5;" x1="976.5" x2="1051.5" y1="197.2969" y2="197.2969"/><text fill="#000000" font-family="sans-serif" font-size="14" font-weight="bold" lengthAdjust="spacing" textLength="62" x="980.5" y="189.9951">entities</text></g><!--MD5=[e8c14457c5ec3409b346b9ce068df3a0]
cluster transforms--><g id="cluster_transforms"><path d="M3888,22.5 L3976,22.5 A3.75,3.75 0 0 1 3978.5,25 L3985.5,44.7969 L4752,44.7969 A2.5,2.5 0 0 1 4754.5,47.2969 L4754.5,476.5 A2.5,2.5 0 0 1 4752,479 L3888,479 A2.5,2.5 0 0 1 3885.5,476.5 L3885.5,25 A2.5,2.5 0 0 1 3888,22.5 " fill="#F2F2F2" style="stroke:#000000;stroke-width:1.5;"/><line style="stroke:#000000;stroke-width:1.5;" x1="3885.5" x2="3985.5" y1="44.7969" y2="44.7969"/><text fill="#000000" font-family="sans-serif" font-size="14" font-weight="bold" lengthAdjust="spacing" textLength="87" x="3889.5" y="37.4951">transforms</text></g><!--MD5=[9b2039c9cbc9b36eebe6e360cb295121]
cluster helpers--><g id="cluster_helpers"><path d="M2540,6 L2601,6 A3.75,3.75 0 0 1 2603.5,8.5 L2610.5,28.2969 L3859,28.2969 A2.5,2.5 0 0 1 3861.5,30.7969 L3861.5,485 A2.5,2.5 0 0 1 3859,487.5 L2540,487.5 A2.5,2.5 0 0 1 2537.5,485 L2537.5,8.5 A2.5,2.5 0 0 1 2540,6 " fill="#F2F2F2" style="stroke:#000000;stroke-width:1.5;"/><line style="stroke:#000000;stroke-width:1.5;" x1="2537.5" x2="2610.5" y1="28.2969" y2="28.2969"/><text fill="#000000" font-family="sans-serif" font-size="14" font-weight="bold" lengthAdjust="spacing" textLength="60" x="2541.5" y="20.9951">helpers</text></g><!--MD5=[9f1c02ac10d1347d42f94f9a61fcd508]
class entities::section--><g id="elem_entities::section"><rect codeLine="14" fill="#F7E5FF" height="64.2969" id="entities::section" rx="2.5" ry="2.5" style="stroke:#181818;stroke-width:0.5;" width="188" x="1544.5" y="403"/><ellipse cx="1608.75" cy="419" fill="#ADD1B2" rx="11" ry="11" style="stroke:#181818;stroke-width:1.0;"/><path d="M1611.7188,424.6406 Q1611.1406,424.9375 1610.5,425.0859 Q1609.8594,425.2344 1609.1563,425.2344 Q1606.6563,425.2344 1605.3359,423.5859 Q1604.0156,421.9375 1604.0156,418.8125 Q1604.0156,415.6875 1605.3359,414.0313 Q1606.6563,412.375 1609.1563,412.375 Q1609.8594,412.375 1610.5078,412.5313 Q1611.1563,412.6875 1611.7188,412.9844 L1611.7188,415.7031 Q1611.0938,415.125 1610.5,414.8516 Q1609.9063,414.5781 1609.2813,414.5781 Q1607.9375,414.5781 1607.25,415.6484 Q1606.5625,416.7188 1606.5625,418.8125 Q1606.5625,420.9063 1607.25,421.9766 Q1607.9375,423.0469 1609.2813,423.0469 Q1609.9063,423.0469 1610.5,422.7734 Q1611.0938,422.5 1611.7188,421.9219 L1611.7188,424.6406 Z " fill="#000000"/><text fill="#000000" font-family="sans-serif" font-size="14" lengthAdjust="spacing" textLength="51" x="1629.25" y="423.8467">section</text><line style="stroke:#181818;stroke-width:0.5;" x1="1545.5" x2="1731.5" y1="435" y2="435"/><ellipse cx="1555.5" cy="446" fill="none" rx="3" ry="3" style="stroke:#038048;stroke-width:1.0;"/><text fill="#000000" font-family="sans-serif" font-size="14" lengthAdjust="spacing" textLength="162" x="1564.5" y="451.9951">blocks std::list&lt;block&gt;</text><line style="stroke:#181818;stroke-width:0.5;" x1="1545.5" x2="1731.5" y1="459.2969" y2="459.2969"/></g><!--MD5=[a070c872468bb8964450f80aeb7fd3c4]
class entities::document--><g id="elem_entities::document"><rect codeLine="18" fill="#F7E5FF" height="113.1875" id="entities::document" rx="2.5" ry="2.5" style="stroke:#181818;stroke-width:0.5;" width="372" x="1767.5" y="378.5"/><ellipse cx="1913.25" cy="394.5" fill="#ADD1B2" rx="11" ry="11" style="stroke:#181818;stroke-width:1.0;"/><path d="M1916.2188,400.1406 Q1915.6406,400.4375 1915,400.5859 Q1914.3594,400.7344 1913.6563,400.7344 Q1911.1563,400.7344 1909.8359,399.0859 Q1908.5156,397.4375 1908.5156,394.3125 Q1908.5156,391.1875 1909.8359,389.5313 Q1911.1563,387.875 1913.6563,387.875 Q1914.3594,387.875 1915.0078,388.0313 Q1915.6563,388.1875 1916.2188,388.4844 L1916.2188,391.2031 Q1915.5938,390.625 1915,390.3516 Q1914.4063,390.0781 1913.7813,390.0781 Q1912.4375,390.0781 1911.75,391.1484 Q1911.0625,392.2188 1911.0625,394.3125 Q1911.0625,396.4063 1911.75,397.4766 Q1912.4375,398.5469 1913.7813,398.5469 Q1914.4063,398.5469 1915,398.2734 Q1915.5938,398 1916.2188,397.4219 L1916.2188,400.1406 Z " fill="#000000"/><text fill="#000000" font-family="sans-serif" font-size="14" lengthAdjust="spacing" textLength="72" x="1933.75" y="399.3467">document</text><line style="stroke:#181818;stroke-width:0.5;" x1="1768.5" x2="2138.5" y1="410.5" y2="410.5"/><ellipse cx="1778.5" cy="421.5" fill="none" rx="3" ry="3" style="stroke:#038048;stroke-width:1.0;"/><text fill="#000000" font-family="sans-serif" font-size="14" lengthAdjust="spacing" textLength="346" x="1787.5" y="427.4951">affiliated_keywords std::list&lt;affiliated_keyword&gt;</text><ellipse cx="1778.5" cy="437.7969" fill="none" rx="3" ry="3" style="stroke:#038048;stroke-width:1.0;"/><text fill="#000000" font-family="sans-serif" font-size="14" lengthAdjust="spacing" textLength="186" x="1787.5" y="443.792">drawers std::list&lt;drawer&gt;</text><ellipse cx="1778.5" cy="454.0938" fill="none" rx="3" ry="3" style="stroke:#038048;stroke-width:1.0;"/><text fill="#000000" font-family="sans-serif" font-size="14" lengthAdjust="spacing" textLength="106" x="1787.5" y="460.0889">section section</text><ellipse cx="1778.5" cy="470.3906" fill="none" rx="3" ry="3" style="stroke:#038048;stroke-width:1.0;"/><text fill="#000000" font-family="sans-serif" font-size="14" lengthAdjust="spacing" textLength="210" x="1787.5" y="476.3857">headlines std::list&lt;headline&gt;</text><line style="stroke:#181818;stroke-width:0.5;" x1="1768.5" x2="2138.5" y1="483.6875" y2="483.6875"/></g><!--MD5=[1ea52bc0866f3e53fb7fda6c4f2ac00a]
class entities::headline--><g id="elem_entities::headline"><rect codeLine="25" fill="#F7E5FF" height="210.9688" id="entities::headline" rx="2.5" ry="2.5" style="stroke:#181818;stroke-width:0.5;" width="372" x="1078.5" y="712"/><ellipse cx="1229.25" cy="728" fill="#ADD1B2" rx="11" ry="11" style="stroke:#181818;stroke-width:1.0;"/><path d="M1232.2188,733.6406 Q1231.6406,733.9375 1231,734.0859 Q1230.3594,734.2344 1229.6563,734.2344 Q1227.1563,734.2344 1225.8359,732.5859 Q1224.5156,730.9375 1224.5156,727.8125 Q1224.5156,724.6875 1225.8359,723.0313 Q1227.1563,721.375 1229.6563,721.375 Q1230.3594,721.375 1231.0078,721.5313 Q1231.6563,721.6875 1232.2188,721.9844 L1232.2188,724.7031 Q1231.5938,724.125 1231,723.8516 Q1230.4063,723.5781 1229.7813,723.5781 Q1228.4375,723.5781 1227.75,724.6484 Q1227.0625,725.7188 1227.0625,727.8125 Q1227.0625,729.9063 1227.75,730.9766 Q1228.4375,732.0469 1229.7813,732.0469 Q1230.4063,732.0469 1231,731.7734 Q1231.5938,731.5 1232.2188,730.9219 L1232.2188,733.6406 Z " fill="#000000"/><text fill="#000000" font-family="sans-serif" font-size="14" lengthAdjust="spacing" textLength="62" x="1249.75" y="732.8467">headline</text><line style="stroke:#181818;stroke-width:0.5;" x1="1079.5" x2="1449.5" y1="744" y2="744"/><ellipse cx="1089.5" cy="755" fill="none" rx="3" ry="3" style="stroke:#038048;stroke-width:1.0;"/><text fill="#000000" font-family="sans-serif" font-size="14" lengthAdjust="spacing" textLength="180" x="1098.5" y="760.9951">line_number unsigned int</text><ellipse cx="1089.5" cy="771.2969" fill="none" rx="3" ry="3" style="stroke:#038048;stroke-width:1.0;"/><text fill="#000000" font-family="sans-serif" font-size="14" lengthAdjust="spacing" textLength="346" x="1098.5" y="777.292">affiliated_keywords std::list&lt;affiliated_keyword&gt;</text><ellipse cx="1089.5" cy="787.5938" fill="none" rx="3" ry="3" style="stroke:#038048;stroke-width:1.0;"/><text fill="#000000" font-family="sans-serif" font-size="14" lengthAdjust="spacing" textLength="186" x="1098.5" y="793.5889">drawers std::list&lt;drawer&gt;</text><ellipse cx="1089.5" cy="803.8906" fill="none" rx="3" ry="3" style="stroke:#038048;stroke-width:1.0;"/><text fill="#000000" font-family="sans-serif" font-size="14" lengthAdjust="spacing" textLength="106" x="1098.5" y="809.8857">section section</text><ellipse cx="1089.5" cy="820.1875" fill="none" rx="3" ry="3" style="stroke:#038048;stroke-width:1.0;"/><text fill="#000000" font-family="sans-serif" font-size="14" lengthAdjust="spacing" textLength="210" x="1098.5" y="826.1826">headlines std::list&lt;headline&gt;</text><ellipse cx="1089.5" cy="836.4844" fill="none" rx="3" ry="3" style="stroke:#038048;stroke-width:1.0;"/><text fill="#000000" font-family="sans-serif" font-size="14" lengthAdjust="spacing" textLength="125" x="1098.5" y="842.4795">level unsigned int</text><ellipse cx="1089.5" cy="852.7813" fill="none" rx="3" ry="3" style="stroke:#038048;stroke-width:1.0;"/><text fill="#000000" font-family="sans-serif" font-size="14" lengthAdjust="spacing" textLength="160" x="1098.5" y="858.7764">priority priority_cookie</text><ellipse cx="1089.5" cy="869.0781" fill="none" rx="3" ry="3" style="stroke:#038048;stroke-width:1.0;"/><text fill="#000000" font-family="sans-serif" font-size="14" lengthAdjust="spacing" textLength="102" x="1098.5" y="875.0732">title std::string</text><ellipse cx="1089.5" cy="885.375" fill="none" rx="3" ry="3" style="stroke:#038048;stroke-width:1.0;"/><text fill="#000000" font-family="sans-serif" font-size="14" lengthAdjust="spacing" textLength="132" x="1098.5" y="891.3701">tags std::list&lt;tag&gt;</text><ellipse cx="1089.5" cy="901.6719" fill="none" rx="3" ry="3" style="stroke:#038048;stroke-width:1.0;"/><text fill="#000000" font-family="sans-serif" font-size="14" lengthAdjust="spacing" textLength="202" x="1098.5" y="907.667">todo_keyword todo_keyword</text><line style="stroke:#181818;stroke-width:0.5;" x1="1079.5" x2="1449.5" y1="914.9688" y2="914.9688"/></g><g id="elem_entities::GMN7"><path d="M1019.5,218 L1019.5,651.7188 A0,0 0 0 0 1019.5,651.7188 L1260.5,651.7188 L1264.5,711.69 L1268.5,651.7188 L1509.5,651.7188 A0,0 0 0 0 1509.5,651.7188 L1509.5,228 L1499.5,218 L1019.5,218 A0,0 0 0 0 1019.5,218 " fill="#FEFFDD" style="stroke:#181818;stroke-width:0.5;"/><path d="M1499.5,218 L1499.5,228 L1509.5,228 L1499.5,218 " fill="#FEFFDD" style="stroke:#181818;stroke-width:0.5;"/><text fill="#000000" font-family="sans-serif" font-size="13" lengthAdjust="spacing" textLength="231" x="1057.5" y="235.0669">Represents a headline in org mode.</text><text fill="#000000" font-family="sans-serif" font-size="13" lengthAdjust="spacing" textLength="4" x="1025.5" y="250.1997"> </text><text fill="#000000" font-family="sans-serif" font-size="13" lengthAdjust="spacing" textLength="152" x="1025.5" y="265.3325">Headlines and Sections</text><text fill="#000000" font-family="sans-serif" font-size="13" lengthAdjust="spacing" textLength="4" x="1025.5" y="280.4653"> </text><text fill="#000000" font-family="sans-serif" font-size="13" lengthAdjust="spacing" textLength="469" x="1025.5" y="295.5981">https://orgmode.org/worg/dev/org-syntax.html#Headlines_and_Sections</text><text fill="#000000" font-family="sans-serif" font-size="13" lengthAdjust="spacing" textLength="4" x="1025.5" y="310.731"> </text><text fill="#000000" font-family="sans-serif" font-size="13" lengthAdjust="spacing" textLength="160" x="1025.5" y="325.8638">A headline is defined as:</text><text fill="#000000" font-family="sans-serif" font-size="13" lengthAdjust="spacing" textLength="4" x="1025.5" y="340.9966"> </text><text fill="#000000" font-family="sans-serif" font-size="13" lengthAdjust="spacing" textLength="255" x="1025.5" y="356.1294">STARS KEYWORD PRIORITY TITLE TAGS</text><text fill="#000000" font-family="sans-serif" font-size="13" lengthAdjust="spacing" textLength="4" x="1025.5" y="371.2622"> </text><text fill="#000000" font-family="sans-serif" font-size="13" lengthAdjust="spacing" textLength="402" x="1025.5" y="386.395">STARS is a string starting at column 0, containing at least one</text><text fill="#000000" font-family="sans-serif" font-size="13" lengthAdjust="spacing" textLength="436" x="1025.5" y="401.5278">asterisk (and up to org-inlinetask-min-level if org-inlinetask library</text><text fill="#000000" font-family="sans-serif" font-size="13" lengthAdjust="spacing" textLength="456" x="1025.5" y="416.6606">is loaded) and ended by a space character. The number of asterisks is</text><text fill="#000000" font-family="sans-serif" font-size="13" lengthAdjust="spacing" textLength="420" x="1025.5" y="431.7935">used to define the level of the headline. It’s the sole compulsory</text><text fill="#000000" font-family="sans-serif" font-size="13" lengthAdjust="spacing" textLength="119" x="1025.5" y="446.9263">part of a headline.</text><text fill="#000000" font-family="sans-serif" font-size="13" lengthAdjust="spacing" textLength="4" x="1025.5" y="462.0591"> </text><text fill="#000000" font-family="sans-serif" font-size="13" lengthAdjust="spacing" textLength="469" x="1025.5" y="477.1919">KEYWORD is a TODO keyword, which has to belong to the list defined in</text><text fill="#000000" font-family="sans-serif" font-size="13" lengthAdjust="spacing" textLength="267" x="1025.5" y="492.3247">org-todo-keywords-1. Case is significant.</text><text fill="#000000" font-family="sans-serif" font-size="13" lengthAdjust="spacing" textLength="4" x="1025.5" y="507.4575"> </text><text fill="#000000" font-family="sans-serif" font-size="13" lengthAdjust="spacing" textLength="438" x="1025.5" y="522.5903">PRIORITY is a priority cookie, i.e. a single letter preceded by a hash</text><text fill="#000000" font-family="sans-serif" font-size="13" lengthAdjust="spacing" textLength="288" x="1025.5" y="537.7231">sign # and enclosed within square brackets.</text><text fill="#000000" font-family="sans-serif" font-size="13" lengthAdjust="spacing" textLength="4" x="1025.5" y="552.856"> </text><text fill="#000000" font-family="sans-serif" font-size="13" lengthAdjust="spacing" textLength="429" x="1025.5" y="567.9888">TITLE can be made of any character but a new line. Though, it will</text><text fill="#000000" font-family="sans-serif" font-size="13" lengthAdjust="spacing" textLength="322" x="1025.5" y="583.1216">match after every other part have been matched.</text><text fill="#000000" font-family="sans-serif" font-size="13" lengthAdjust="spacing" textLength="4" x="1025.5" y="598.2544"> </text><text fill="#000000" font-family="sans-serif" font-size="13" lengthAdjust="spacing" textLength="418" x="1025.5" y="613.3872">TAGS is made of words containing any alpha-numeric character,</text><text fill="#000000" font-family="sans-serif" font-size="13" lengthAdjust="spacing" textLength="428" x="1025.5" y="628.52">underscore, at sign, hash sign or percent sign, and separated with</text><text fill="#000000" font-family="sans-serif" font-size="13" lengthAdjust="spacing" textLength="46" x="1025.5" y="643.6528">colons.</text></g><!--MD5=[b541731b73cd715a3a09bd0ee99a6087]
class entities::tag--><g id="elem_entities::tag"><rect codeLine="69" fill="#EDCEFB" height="56.2656" id="entities::tag" rx="2.5" ry="2.5" style="stroke:#181818;stroke-width:0.5;" width="136" x="2174.5" y="407"/><ellipse cx="2189.5" cy="427.1328" fill="#ADD1B2" rx="11" ry="11" style="stroke:#181818;stroke-width:1.0;"/><path d="M2192.4688,432.7734 Q2191.8906,433.0703 2191.25,433.2188 Q2190.6094,433.3672 2189.9063,433.3672 Q2187.4063,433.3672 2186.0859,431.7188 Q2184.7656,430.0703 2184.7656,426.9453 Q2184.7656,423.8203 2186.0859,422.1641 Q2187.4063,420.5078 2189.9063,420.5078 Q2190.6094,420.5078 2191.2578,420.6641 Q2191.9063,420.8203 2192.4688,421.1172 L2192.4688,423.8359 Q2191.8438,423.2578 2191.25,422.9844 Q2190.6563,422.7109 2190.0313,422.7109 Q2188.6875,422.7109 2188,423.7813 Q2187.3125,424.8516 2187.3125,426.9453 Q2187.3125,429.0391 2188,430.1094 Q2188.6875,431.1797 2190.0313,431.1797 Q2190.6563,431.1797 2191.25,430.9063 Q2191.8438,430.6328 2192.4688,430.0547 L2192.4688,432.7734 Z " fill="#000000"/><text fill="#000000" font-family="sans-serif" font-size="12" font-style="italic" lengthAdjust="spacing" textLength="108" x="2201.5" y="423.1387">«masd::primitive»</text><text fill="#000000" font-family="sans-serif" font-size="14" lengthAdjust="spacing" textLength="23" x="2244" y="438.9639">tag</text><line style="stroke:#181818;stroke-width:0.5;" x1="2175.5" x2="2309.5" y1="447.2656" y2="447.2656"/><line style="stroke:#181818;stroke-width:0.5;" x1="2175.5" x2="2309.5" y1="455.2656" y2="455.2656"/></g><!--MD5=[08ad3cfbdb050381196fce34c7cc9afd]
class entities::todo_keyword--><g id="elem_entities::todo_keyword"><rect codeLine="72" fill="#EDCEFB" height="56.2656" id="entities::todo_keyword" rx="2.5" ry="2.5" style="stroke:#181818;stroke-width:0.5;" width="136" x="2345.5" y="407"/><ellipse cx="2360.5" cy="427.1328" fill="#ADD1B2" rx="11" ry="11" style="stroke:#181818;stroke-width:1.0;"/><path d="M2363.4688,432.7734 Q2362.8906,433.0703 2362.25,433.2188 Q2361.6094,433.3672 2360.9063,433.3672 Q2358.4063,433.3672 2357.0859,431.7188 Q2355.7656,430.0703 2355.7656,426.9453 Q2355.7656,423.8203 2357.0859,422.1641 Q2358.4063,420.5078 2360.9063,420.5078 Q2361.6094,420.5078 2362.2578,420.6641 Q2362.9063,420.8203 2363.4688,421.1172 L2363.4688,423.8359 Q2362.8438,423.2578 2362.25,422.9844 Q2361.6563,422.7109 2361.0313,422.7109 Q2359.6875,422.7109 2359,423.7813 Q2358.3125,424.8516 2358.3125,426.9453 Q2358.3125,429.0391 2359,430.1094 Q2359.6875,431.1797 2361.0313,431.1797 Q2361.6563,431.1797 2362.25,430.9063 Q2362.8438,430.6328 2363.4688,430.0547 L2363.4688,432.7734 Z " fill="#000000"/><text fill="#000000" font-family="sans-serif" font-size="12" font-style="italic" lengthAdjust="spacing" textLength="108" x="2372.5" y="423.1387">«masd::primitive»</text><text fill="#000000" font-family="sans-serif" font-size="14" lengthAdjust="spacing" textLength="99" x="2377" y="438.9639">todo_keyword</text><line style="stroke:#181818;stroke-width:0.5;" x1="2346.5" x2="2480.5" y1="447.2656" y2="447.2656"/><line style="stroke:#181818;stroke-width:0.5;" x1="2346.5" x2="2480.5" y1="455.2656" y2="455.2656"/></g><!--MD5=[f2cf8e4a55f0bd4e2ce0373ca81619e6]
class entities::drawer--><g id="elem_entities::drawer"><rect codeLine="75" fill="#F7E5FF" height="96.8906" id="entities::drawer" rx="2.5" ry="2.5" style="stroke:#181818;stroke-width:0.5;" width="277" x="1500" y="769"/><ellipse cx="1609.25" cy="785" fill="#ADD1B2" rx="11" ry="11" style="stroke:#181818;stroke-width:1.0;"/><path d="M1612.2188,790.6406 Q1611.6406,790.9375 1611,791.0859 Q1610.3594,791.2344 1609.6563,791.2344 Q1607.1563,791.2344 1605.8359,789.5859 Q1604.5156,787.9375 1604.5156,784.8125 Q1604.5156,781.6875 1605.8359,780.0313 Q1607.1563,778.375 1609.6563,778.375 Q1610.3594,778.375 1611.0078,778.5313 Q1611.6563,778.6875 1612.2188,778.9844 L1612.2188,781.7031 Q1611.5938,781.125 1611,780.8516 Q1610.4063,780.5781 1609.7813,780.5781 Q1608.4375,780.5781 1607.75,781.6484 Q1607.0625,782.7188 1607.0625,784.8125 Q1607.0625,786.9063 1607.75,787.9766 Q1608.4375,789.0469 1609.7813,789.0469 Q1610.4063,789.0469 1611,788.7734 Q1611.5938,788.5 1612.2188,787.9219 L1612.2188,790.6406 Z " fill="#000000"/><text fill="#000000" font-family="sans-serif" font-size="14" lengthAdjust="spacing" textLength="50" x="1629.75" y="789.8467">drawer</text><line style="stroke:#181818;stroke-width:0.5;" x1="1501" x2="1776" y1="801" y2="801"/><ellipse cx="1511" cy="812" fill="none" rx="3" ry="3" style="stroke:#038048;stroke-width:1.0;"/><text fill="#000000" font-family="sans-serif" font-size="14" lengthAdjust="spacing" textLength="116" x="1520" y="817.9951">name std::string</text><ellipse cx="1511" cy="828.2969" fill="none" rx="3" ry="3" style="stroke:#038048;stroke-width:1.0;"/><text fill="#000000" font-family="sans-serif" font-size="14" lengthAdjust="spacing" textLength="123" x="1520" y="834.292">type drawer_type</text><ellipse cx="1511" cy="844.5938" fill="none" rx="3" ry="3" style="stroke:#038048;stroke-width:1.0;"/><text fill="#000000" font-family="sans-serif" font-size="14" lengthAdjust="spacing" textLength="251" x="1520" y="850.5889">contents std::list&lt;drawer_content&gt;</text><line style="stroke:#181818;stroke-width:0.5;" x1="1501" x2="1776" y1="857.8906" y2="857.8906"/></g><!--MD5=[df21582ce3c8bccdff05fc2e7be61b94]
class entities::drawer_content--><g id="elem_entities::drawer_content"><rect codeLine="81" fill="#F7E5FF" height="80.5938" id="entities::drawer_content" rx="2.5" ry="2.5" style="stroke:#181818;stroke-width:0.5;" width="143" x="1812" y="777"/><ellipse cx="1827" cy="793" fill="#ADD1B2" rx="11" ry="11" style="stroke:#181818;stroke-width:1.0;"/><path d="M1829.9688,798.6406 Q1829.3906,798.9375 1828.75,799.0859 Q1828.1094,799.2344 1827.4063,799.2344 Q1824.9063,799.2344 1823.5859,797.5859 Q1822.2656,795.9375 1822.2656,792.8125 Q1822.2656,789.6875 1823.5859,788.0313 Q1824.9063,786.375 1827.4063,786.375 Q1828.1094,786.375 1828.7578,786.5313 Q1829.4063,786.6875 1829.9688,786.9844 L1829.9688,789.7031 Q1829.3438,789.125 1828.75,788.8516 Q1828.1563,788.5781 1827.5313,788.5781 Q1826.1875,788.5781 1825.5,789.6484 Q1824.8125,790.7188 1824.8125,792.8125 Q1824.8125,794.9063 1825.5,795.9766 Q1826.1875,797.0469 1827.5313,797.0469 Q1828.1563,797.0469 1828.75,796.7734 Q1829.3438,796.5 1829.9688,795.9219 L1829.9688,798.6406 Z " fill="#000000"/><text fill="#000000" font-family="sans-serif" font-size="14" lengthAdjust="spacing" textLength="111" x="1841" y="797.8467">drawer_content</text><line style="stroke:#181818;stroke-width:0.5;" x1="1813" x2="1954" y1="809" y2="809"/><ellipse cx="1823" cy="820" fill="none" rx="3" ry="3" style="stroke:#038048;stroke-width:1.0;"/><text fill="#000000" font-family="sans-serif" font-size="14" lengthAdjust="spacing" textLength="100" x="1832" y="825.9951">key std::string</text><ellipse cx="1823" cy="836.2969" fill="none" rx="3" ry="3" style="stroke:#038048;stroke-width:1.0;"/><text fill="#000000" font-family="sans-serif" font-size="14" lengthAdjust="spacing" textLength="114" x="1832" y="842.292">value std::string</text><line style="stroke:#181818;stroke-width:0.5;" x1="1813" x2="1954" y1="849.5938" y2="849.5938"/></g><!--MD5=[5ebdf77270ee54b8b56c0206f94804fa]
class entities::affiliated_keyword--><g id="elem_entities::affiliated_keyword"><rect codeLine="86" fill="#F7E5FF" height="80.5938" id="entities::affiliated_keyword" rx="2.5" ry="2.5" style="stroke:#181818;stroke-width:0.5;" width="162" x="1990.5" y="777"/><ellipse cx="2005.5" cy="793" fill="#ADD1B2" rx="11" ry="11" style="stroke:#181818;stroke-width:1.0;"/><path d="M2008.4688,798.6406 Q2007.8906,798.9375 2007.25,799.0859 Q2006.6094,799.2344 2005.9063,799.2344 Q2003.4063,799.2344 2002.0859,797.5859 Q2000.7656,795.9375 2000.7656,792.8125 Q2000.7656,789.6875 2002.0859,788.0313 Q2003.4063,786.375 2005.9063,786.375 Q2006.6094,786.375 2007.2578,786.5313 Q2007.9063,786.6875 2008.4688,786.9844 L2008.4688,789.7031 Q2007.8438,789.125 2007.25,788.8516 Q2006.6563,788.5781 2006.0313,788.5781 Q2004.6875,788.5781 2004,789.6484 Q2003.3125,790.7188 2003.3125,792.8125 Q2003.3125,794.9063 2004,795.9766 Q2004.6875,797.0469 2006.0313,797.0469 Q2006.6563,797.0469 2007.25,796.7734 Q2007.8438,796.5 2008.4688,795.9219 L2008.4688,798.6406 Z " fill="#000000"/><text fill="#000000" font-family="sans-serif" font-size="14" lengthAdjust="spacing" textLength="130" x="2019.5" y="797.8467">affiliated_keyword</text><line style="stroke:#181818;stroke-width:0.5;" x1="1991.5" x2="2151.5" y1="809" y2="809"/><ellipse cx="2001.5" cy="820" fill="none" rx="3" ry="3" style="stroke:#038048;stroke-width:1.0;"/><text fill="#000000" font-family="sans-serif" font-size="14" lengthAdjust="spacing" textLength="100" x="2010.5" y="825.9951">key std::string</text><ellipse cx="2001.5" cy="836.2969" fill="none" rx="3" ry="3" style="stroke:#038048;stroke-width:1.0;"/><text fill="#000000" font-family="sans-serif" font-size="14" lengthAdjust="spacing" textLength="114" x="2010.5" y="842.292">value std::string</text><line style="stroke:#181818;stroke-width:0.5;" x1="1991.5" x2="2151.5" y1="849.5938" y2="849.5938"/></g><!--MD5=[dd341396ccfbc72c7fc4b3e9e9068935]
class entities::drawer_type--><g id="elem_entities::drawer_type"><rect codeLine="91" fill="#F2DAFD" height="88.8594" id="entities::drawer_type" rx="2.5" ry="2.5" style="stroke:#181818;stroke-width:0.5;" width="160" x="2187.5" y="773"/><ellipse cx="2202.5" cy="793.1328" fill="#EB937F" rx="11" ry="11" style="stroke:#181818;stroke-width:1.0;"/><path d="M2206.6094,799.1328 L2198.8906,799.1328 L2198.8906,786.7422 L2206.6094,786.7422 L2206.6094,788.8984 L2201.3438,788.8984 L2201.3438,791.5703 L2206.1094,791.5703 L2206.1094,793.7266 L2201.3438,793.7266 L2201.3438,796.9766 L2206.6094,796.9766 L2206.6094,799.1328 Z " fill="#000000"/><text fill="#000000" font-family="sans-serif" font-size="12" font-style="italic" lengthAdjust="spacing" textLength="132" x="2214.5" y="789.1387">«masd::enumeration»</text><text fill="#000000" font-family="sans-serif" font-size="14" lengthAdjust="spacing" textLength="88" x="2236.5" y="804.9639">drawer_type</text><line style="stroke:#181818;stroke-width:0.5;" x1="2188.5" x2="2346.5" y1="813.2656" y2="813.2656"/><ellipse cx="2198.5" cy="824.2656" fill="none" rx="3" ry="3" style="stroke:#038048;stroke-width:1.0;"/><text fill="#000000" font-family="sans-serif" font-size="14" lengthAdjust="spacing" textLength="52" x="2207.5" y="830.2607">regular</text><ellipse cx="2198.5" cy="840.5625" fill="none" rx="3" ry="3" style="stroke:#038048;stroke-width:1.0;"/><text fill="#000000" font-family="sans-serif" font-size="14" lengthAdjust="spacing" textLength="118" x="2207.5" y="846.5576">property_drawer</text><line style="stroke:#181818;stroke-width:0.5;" x1="2188.5" x2="2346.5" y1="853.8594" y2="853.8594"/></g><!--MD5=[3c07cef84e6cfa5919e42cc8e7de022f]
class entities::priority_cookie--><g id="elem_entities::priority_cookie"><rect codeLine="96" fill="#EDCEFB" height="56.2656" id="entities::priority_cookie" rx="2.5" ry="2.5" style="stroke:#181818;stroke-width:0.5;" width="137" x="1570" y="1011.5"/><ellipse cx="1585" cy="1031.6328" fill="#ADD1B2" rx="11" ry="11" style="stroke:#181818;stroke-width:1.0;"/><path d="M1587.9688,1037.2734 Q1587.3906,1037.5703 1586.75,1037.7188 Q1586.1094,1037.8672 1585.4063,1037.8672 Q1582.9063,1037.8672 1581.5859,1036.2188 Q1580.2656,1034.5703 1580.2656,1031.4453 Q1580.2656,1028.3203 1581.5859,1026.6641 Q1582.9063,1025.0078 1585.4063,1025.0078 Q1586.1094,1025.0078 1586.7578,1025.1641 Q1587.4063,1025.3203 1587.9688,1025.6172 L1587.9688,1028.3359 Q1587.3438,1027.7578 1586.75,1027.4844 Q1586.1563,1027.2109 1585.5313,1027.2109 Q1584.1875,1027.2109 1583.5,1028.2813 Q1582.8125,1029.3516 1582.8125,1031.4453 Q1582.8125,1033.5391 1583.5,1034.6094 Q1584.1875,1035.6797 1585.5313,1035.6797 Q1586.1563,1035.6797 1586.75,1035.4063 Q1587.3438,1035.1328 1587.9688,1034.5547 L1587.9688,1037.2734 Z " fill="#000000"/><text fill="#000000" font-family="sans-serif" font-size="12" font-style="italic" lengthAdjust="spacing" textLength="108" x="1597.5" y="1027.6387">«masd::primitive»</text><text fill="#000000" font-family="sans-serif" font-size="14" lengthAdjust="spacing" textLength="105" x="1599" y="1043.4639">priority_cookie</text><line style="stroke:#181818;stroke-width:0.5;" x1="1571" x2="1706" y1="1051.7656" y2="1051.7656"/><line style="stroke:#181818;stroke-width:0.5;" x1="1571" x2="1706" y1="1059.7656" y2="1059.7656"/></g><!--MD5=[43446cddb58501e620ee01c0e5294ca5]
class entities::block--><g id="elem_entities::block"><rect codeLine="99" fill="#F7E5FF" height="113.1875" id="entities::block" rx="2.5" ry="2.5" style="stroke:#181818;stroke-width:0.5;" width="264" x="1742.5" y="983"/><ellipse cx="1851.25" cy="999" fill="#ADD1B2" rx="11" ry="11" style="stroke:#181818;stroke-width:1.0;"/><path d="M1854.2188,1004.6406 Q1853.6406,1004.9375 1853,1005.0859 Q1852.3594,1005.2344 1851.6563,1005.2344 Q1849.1563,1005.2344 1847.8359,1003.5859 Q1846.5156,1001.9375 1846.5156,998.8125 Q1846.5156,995.6875 1847.8359,994.0313 Q1849.1563,992.375 1851.6563,992.375 Q1852.3594,992.375 1853.0078,992.5313 Q1853.6563,992.6875 1854.2188,992.9844 L1854.2188,995.7031 Q1853.5938,995.125 1853,994.8516 Q1852.4063,994.5781 1851.7813,994.5781 Q1850.4375,994.5781 1849.75,995.6484 Q1849.0625,996.7188 1849.0625,998.8125 Q1849.0625,1000.9063 1849.75,1001.9766 Q1850.4375,1003.0469 1851.7813,1003.0469 Q1852.4063,1003.0469 1853,1002.7734 Q1853.5938,1002.5 1854.2188,1001.9219 L1854.2188,1004.6406 Z " fill="#000000"/><text fill="#000000" font-family="sans-serif" font-size="14" lengthAdjust="spacing" textLength="38" x="1871.75" y="1003.8467">block</text><line style="stroke:#181818;stroke-width:0.5;" x1="1743.5" x2="2005.5" y1="1015" y2="1015"/><ellipse cx="1753.5" cy="1026" fill="none" rx="3" ry="3" style="stroke:#038048;stroke-width:1.0;"/><text fill="#000000" font-family="sans-serif" font-size="14" lengthAdjust="spacing" textLength="116" x="1762.5" y="1031.9951">name std::string</text><ellipse cx="1753.5" cy="1042.2969" fill="none" rx="3" ry="3" style="stroke:#038048;stroke-width:1.0;"/><text fill="#000000" font-family="sans-serif" font-size="14" lengthAdjust="spacing" textLength="238" x="1762.5" y="1048.292">parameters std::list&lt;parameter&gt;</text><ellipse cx="1753.5" cy="1058.5938" fill="none" rx="3" ry="3" style="stroke:#038048;stroke-width:1.0;"/><text fill="#000000" font-family="sans-serif" font-size="14" lengthAdjust="spacing" textLength="136" x="1762.5" y="1064.5889">contents std::string</text><ellipse cx="1753.5" cy="1074.8906" fill="none" rx="3" ry="3" style="stroke:#038048;stroke-width:1.0;"/><text fill="#000000" font-family="sans-serif" font-size="14" lengthAdjust="spacing" textLength="111" x="1762.5" y="1080.8857">type block_type</text><line style="stroke:#181818;stroke-width:0.5;" x1="1743.5" x2="2005.5" y1="1088.1875" y2="1088.1875"/></g><!--MD5=[e2197173a6fdde6d546b5f22550b378e]
class entities::block_type--><g id="elem_entities::block_type"><rect codeLine="106" fill="#F2DAFD" height="88.8594" id="entities::block_type" rx="2.5" ry="2.5" style="stroke:#181818;stroke-width:0.5;" width="160" x="2041.5" y="995"/><ellipse cx="2056.5" cy="1015.1328" fill="#EB937F" rx="11" ry="11" style="stroke:#181818;stroke-width:1.0;"/><path d="M2060.6094,1021.1328 L2052.8906,1021.1328 L2052.8906,1008.7422 L2060.6094,1008.7422 L2060.6094,1010.8984 L2055.3438,1010.8984 L2055.3438,1013.5703 L2060.1094,1013.5703 L2060.1094,1015.7266 L2055.3438,1015.7266 L2055.3438,1018.9766 L2060.6094,1018.9766 L2060.6094,1021.1328 Z " fill="#000000"/><text fill="#000000" font-family="sans-serif" font-size="12" font-style="italic" lengthAdjust="spacing" textLength="132" x="2068.5" y="1011.1387">«masd::enumeration»</text><text fill="#000000" font-family="sans-serif" font-size="14" lengthAdjust="spacing" textLength="76" x="2096.5" y="1026.9639">block_type</text><line style="stroke:#181818;stroke-width:0.5;" x1="2042.5" x2="2200.5" y1="1035.2656" y2="1035.2656"/><ellipse cx="2052.5" cy="1046.2656" fill="none" rx="3" ry="3" style="stroke:#038048;stroke-width:1.0;"/><text fill="#000000" font-family="sans-serif" font-size="14" lengthAdjust="spacing" textLength="72" x="2061.5" y="1052.2607">text_block</text><ellipse cx="2052.5" cy="1062.5625" fill="none" rx="3" ry="3" style="stroke:#038048;stroke-width:1.0;"/><text fill="#000000" font-family="sans-serif" font-size="14" lengthAdjust="spacing" textLength="98" x="2061.5" y="1068.5576">greater_block</text><line style="stroke:#181818;stroke-width:0.5;" x1="2042.5" x2="2200.5" y1="1075.8594" y2="1075.8594"/></g><!--MD5=[c47cde30c55dd5b3ce311283ed04db5e]
class entities::parameter--><g id="elem_entities::parameter"><rect codeLine="111" fill="#EDCEFB" height="56.2656" id="entities::parameter" rx="2.5" ry="2.5" style="stroke:#181818;stroke-width:0.5;" width="136" x="2236.5" y="1011.5"/><ellipse cx="2251.5" cy="1031.6328" fill="#ADD1B2" rx="11" ry="11" style="stroke:#181818;stroke-width:1.0;"/><path d="M2254.4688,1037.2734 Q2253.8906,1037.5703 2253.25,1037.7188 Q2252.6094,1037.8672 2251.9063,1037.8672 Q2249.4063,1037.8672 2248.0859,1036.2188 Q2246.7656,1034.5703 2246.7656,1031.4453 Q2246.7656,1028.3203 2248.0859,1026.6641 Q2249.4063,1025.0078 2251.9063,1025.0078 Q2252.6094,1025.0078 2253.2578,1025.1641 Q2253.9063,1025.3203 2254.4688,1025.6172 L2254.4688,1028.3359 Q2253.8438,1027.7578 2253.25,1027.4844 Q2252.6563,1027.2109 2252.0313,1027.2109 Q2250.6875,1027.2109 2250,1028.2813 Q2249.3125,1029.3516 2249.3125,1031.4453 Q2249.3125,1033.5391 2250,1034.6094 Q2250.6875,1035.6797 2252.0313,1035.6797 Q2252.6563,1035.6797 2253.25,1035.4063 Q2253.8438,1035.1328 2254.4688,1034.5547 L2254.4688,1037.2734 Z " fill="#000000"/><text fill="#000000" font-family="sans-serif" font-size="12" font-style="italic" lengthAdjust="spacing" textLength="108" x="2263.5" y="1027.6387">«masd::primitive»</text><text fill="#000000" font-family="sans-serif" font-size="14" lengthAdjust="spacing" textLength="76" x="2279.5" y="1043.4639">parameter</text><line style="stroke:#181818;stroke-width:0.5;" x1="2237.5" x2="2371.5" y1="1051.7656" y2="1051.7656"/><line style="stroke:#181818;stroke-width:0.5;" x1="2237.5" x2="2371.5" y1="1059.7656" y2="1059.7656"/></g><!--MD5=[b91d733714dc8ad0fbdbbb0d43776762]
class transforms::string_to_document_transform--><g id="elem_transforms::string_to_document_transform"><rect codeLine="130" fill="#FFFACD" height="56.2656" id="transforms::string_to_document_transform" rx="2.5" ry="2.5" style="stroke:#181818;stroke-width:0.5;" width="249" x="4489" y="57.5"/><ellipse cx="4504" cy="77.6328" fill="#ADD1B2" rx="11" ry="11" style="stroke:#181818;stroke-width:1.0;"/><path d="M4506.9688,83.2734 Q4506.3906,83.5703 4505.75,83.7188 Q4505.1094,83.8672 4504.4063,83.8672 Q4501.9063,83.8672 4500.5859,82.2188 Q4499.2656,80.5703 4499.2656,77.4453 Q4499.2656,74.3203 4500.5859,72.6641 Q4501.9063,71.0078 4504.4063,71.0078 Q4505.1094,71.0078 4505.7578,71.1641 Q4506.4063,71.3203 4506.9688,71.6172 L4506.9688,74.3359 Q4506.3438,73.7578 4505.75,73.4844 Q4505.1563,73.2109 4504.5313,73.2109 Q4503.1875,73.2109 4502.5,74.2813 Q4501.8125,75.3516 4501.8125,77.4453 Q4501.8125,79.5391 4502.5,80.6094 Q4503.1875,81.6797 4504.5313,81.6797 Q4505.1563,81.6797 4505.75,81.4063 Q4506.3438,81.1328 4506.9688,80.5547 L4506.9688,83.2734 Z " fill="#000000"/><text fill="#000000" font-family="sans-serif" font-size="12" font-style="italic" lengthAdjust="spacing" textLength="194" x="4529.5" y="73.6387">«dogen::handcrafted::typeable»</text><text fill="#000000" font-family="sans-serif" font-size="14" lengthAdjust="spacing" textLength="217" x="4518" y="89.4639">string_to_document_transform</text><line style="stroke:#181818;stroke-width:0.5;" x1="4490" x2="4737" y1="97.7656" y2="97.7656"/><line style="stroke:#181818;stroke-width:0.5;" x1="4490" x2="4737" y1="105.7656" y2="105.7656"/></g><!--MD5=[74c90bbefa82cfcc19b37ff16c043770]
class transforms::document_to_string_transform--><g id="elem_transforms::document_to_string_transform"><rect codeLine="133" fill="#FFFACD" height="56.2656" id="transforms::document_to_string_transform" rx="2.5" ry="2.5" style="stroke:#181818;stroke-width:0.5;" width="249" x="4205" y="57.5"/><ellipse cx="4220" cy="77.6328" fill="#ADD1B2" rx="11" ry="11" style="stroke:#181818;stroke-width:1.0;"/><path d="M4222.9688,83.2734 Q4222.3906,83.5703 4221.75,83.7188 Q4221.1094,83.8672 4220.4063,83.8672 Q4217.9063,83.8672 4216.5859,82.2188 Q4215.2656,80.5703 4215.2656,77.4453 Q4215.2656,74.3203 4216.5859,72.6641 Q4217.9063,71.0078 4220.4063,71.0078 Q4221.1094,71.0078 4221.7578,71.1641 Q4222.4063,71.3203 4222.9688,71.6172 L4222.9688,74.3359 Q4222.3438,73.7578 4221.75,73.4844 Q4221.1563,73.2109 4220.5313,73.2109 Q4219.1875,73.2109 4218.5,74.2813 Q4217.8125,75.3516 4217.8125,77.4453 Q4217.8125,79.5391 4218.5,80.6094 Q4219.1875,81.6797 4220.5313,81.6797 Q4221.1563,81.6797 4221.75,81.4063 Q4222.3438,81.1328 4222.9688,80.5547 L4222.9688,83.2734 Z " fill="#000000"/><text fill="#000000" font-family="sans-serif" font-size="12" font-style="italic" lengthAdjust="spacing" textLength="194" x="4245.5" y="73.6387">«dogen::handcrafted::typeable»</text><text fill="#000000" font-family="sans-serif" font-size="14" lengthAdjust="spacing" textLength="217" x="4234" y="89.4639">document_to_string_transform</text><line style="stroke:#181818;stroke-width:0.5;" x1="4206" x2="4453" y1="97.7656" y2="97.7656"/><line style="stroke:#181818;stroke-width:0.5;" x1="4206" x2="4453" y1="105.7656" y2="105.7656"/></g><!--MD5=[27b967e3889903e1a1923cf71ac10874]
class transforms::transformation_error--><g id="elem_transforms::transformation_error"><rect codeLine="136" fill="#E8C2F8" height="56.2656" id="transforms::transformation_error" rx="2.5" ry="2.5" style="stroke:#181818;stroke-width:0.5;" width="181" x="3945" y="407"/><ellipse cx="3960" cy="427.1328" fill="#ADD1B2" rx="11" ry="11" style="stroke:#181818;stroke-width:1.0;"/><path d="M3962.9688,432.7734 Q3962.3906,433.0703 3961.75,433.2188 Q3961.1094,433.3672 3960.4063,433.3672 Q3957.9063,433.3672 3956.5859,431.7188 Q3955.2656,430.0703 3955.2656,426.9453 Q3955.2656,423.8203 3956.5859,422.1641 Q3957.9063,420.5078 3960.4063,420.5078 Q3961.1094,420.5078 3961.7578,420.6641 Q3962.4063,420.8203 3962.9688,421.1172 L3962.9688,423.8359 Q3962.3438,423.2578 3961.75,422.9844 Q3961.1563,422.7109 3960.5313,422.7109 Q3959.1875,422.7109 3958.5,423.7813 Q3957.8125,424.8516 3957.8125,426.9453 Q3957.8125,429.0391 3958.5,430.1094 Q3959.1875,431.1797 3960.5313,431.1797 Q3961.1563,431.1797 3961.75,430.9063 Q3962.3438,430.6328 3962.9688,430.0547 L3962.9688,432.7734 Z " fill="#000000"/><text fill="#000000" font-family="sans-serif" font-size="12" font-style="italic" lengthAdjust="spacing" textLength="114" x="3991.5" y="423.1387">«masd::exception»</text><text fill="#000000" font-family="sans-serif" font-size="14" lengthAdjust="spacing" textLength="149" x="3974" y="438.9639">transformation_error</text><line style="stroke:#181818;stroke-width:0.5;" x1="3946" x2="4125" y1="447.2656" y2="447.2656"/><line style="stroke:#181818;stroke-width:0.5;" x1="3946" x2="4125" y1="455.2656" y2="455.2656"/></g><g id="elem_transforms::GMN30"><path d="M3901.5,73 L3901.5,98.1328 A0,0 0 0 0 3901.5,98.1328 L4031.5,98.1328 L4035.5,406.89 L4039.5,98.1328 L4169.5,98.1328 A0,0 0 0 0 4169.5,98.1328 L4169.5,83 L4159.5,73 L3901.5,73 A0,0 0 0 0 3901.5,73 " fill="#FEFFDD" style="stroke:#181818;stroke-width:0.5;"/><path d="M4159.5,73 L4159.5,83 L4169.5,83 L4159.5,73 " fill="#FEFFDD" style="stroke:#181818;stroke-width:0.5;"/><text fill="#000000" font-family="sans-serif" font-size="13" lengthAdjust="spacing" textLength="247" x="3907.5" y="90.0669">An error occurred whilst transforming.</text></g><!--MD5=[2180f8df467cb2a1f9d183146a9b0379]
class helpers::parser--><g id="elem_helpers::parser"><rect codeLine="146" fill="#FFFACD" height="56.2656" id="helpers::parser" rx="2.5" ry="2.5" style="stroke:#181818;stroke-width:0.5;" width="222" x="3240.5" y="57.5"/><ellipse cx="3255.5" cy="77.6328" fill="#ADD1B2" rx="11" ry="11" style="stroke:#181818;stroke-width:1.0;"/><path d="M3258.4688,83.2734 Q3257.8906,83.5703 3257.25,83.7188 Q3256.6094,83.8672 3255.9063,83.8672 Q3253.4063,83.8672 3252.0859,82.2188 Q3250.7656,80.5703 3250.7656,77.4453 Q3250.7656,74.3203 3252.0859,72.6641 Q3253.4063,71.0078 3255.9063,71.0078 Q3256.6094,71.0078 3257.2578,71.1641 Q3257.9063,71.3203 3258.4688,71.6172 L3258.4688,74.3359 Q3257.8438,73.7578 3257.25,73.4844 Q3256.6563,73.2109 3256.0313,73.2109 Q3254.6875,73.2109 3254,74.2813 Q3253.3125,75.3516 3253.3125,77.4453 Q3253.3125,79.5391 3254,80.6094 Q3254.6875,81.6797 3256.0313,81.6797 Q3256.6563,81.6797 3257.25,81.4063 Q3257.8438,81.1328 3258.4688,80.5547 L3258.4688,83.2734 Z " fill="#000000"/><text fill="#000000" font-family="sans-serif" font-size="12" font-style="italic" lengthAdjust="spacing" textLength="194" x="3267.5" y="73.6387">«dogen::handcrafted::typeable»</text><text fill="#000000" font-family="sans-serif" font-size="14" lengthAdjust="spacing" textLength="46" x="3341.5" y="89.4639">parser</text><line style="stroke:#181818;stroke-width:0.5;" x1="3241.5" x2="3461.5" y1="97.7656" y2="97.7656"/><line style="stroke:#181818;stroke-width:0.5;" x1="3241.5" x2="3461.5" y1="105.7656" y2="105.7656"/></g><!--MD5=[cda24c4a25eb92d275074d8b10436642]
class helpers::parsing_error--><g id="elem_helpers::parsing_error"><rect codeLine="149" fill="#E8C2F8" height="56.2656" id="helpers::parsing_error" rx="2.5" ry="2.5" style="stroke:#181818;stroke-width:0.5;" width="142" x="2944.5" y="407"/><ellipse cx="2959.5" cy="427.1328" fill="#ADD1B2" rx="11" ry="11" style="stroke:#181818;stroke-width:1.0;"/><path d="M2962.4688,432.7734 Q2961.8906,433.0703 2961.25,433.2188 Q2960.6094,433.3672 2959.9063,433.3672 Q2957.4063,433.3672 2956.0859,431.7188 Q2954.7656,430.0703 2954.7656,426.9453 Q2954.7656,423.8203 2956.0859,422.1641 Q2957.4063,420.5078 2959.9063,420.5078 Q2960.6094,420.5078 2961.2578,420.6641 Q2961.9063,420.8203 2962.4688,421.1172 L2962.4688,423.8359 Q2961.8438,423.2578 2961.25,422.9844 Q2960.6563,422.7109 2960.0313,422.7109 Q2958.6875,422.7109 2958,423.7813 Q2957.3125,424.8516 2957.3125,426.9453 Q2957.3125,429.0391 2958,430.1094 Q2958.6875,431.1797 2960.0313,431.1797 Q2960.6563,431.1797 2961.25,430.9063 Q2961.8438,430.6328 2962.4688,430.0547 L2962.4688,432.7734 Z " fill="#000000"/><text fill="#000000" font-family="sans-serif" font-size="12" font-style="italic" lengthAdjust="spacing" textLength="114" x="2971.5" y="423.1387">«masd::exception»</text><text fill="#000000" font-family="sans-serif" font-size="14" lengthAdjust="spacing" textLength="96" x="2980.5" y="438.9639">parsing_error</text><line style="stroke:#181818;stroke-width:0.5;" x1="2945.5" x2="3085.5" y1="447.2656" y2="447.2656"/><line style="stroke:#181818;stroke-width:0.5;" x1="2945.5" x2="3085.5" y1="455.2656" y2="455.2656"/></g><g id="elem_helpers::GMN36"><path d="M2825,73 L2825,98.1328 A0,0 0 0 0 2825,98.1328 L3011.5,98.1328 L3015.5,406.89 L3019.5,98.1328 L3206,98.1328 A0,0 0 0 0 3206,98.1328 L3206,83 L3196,73 L2825,73 A0,0 0 0 0 2825,73 " fill="#FEFFDD" style="stroke:#181818;stroke-width:0.5;"/><path d="M3196,73 L3196,83 L3206,83 L3196,73 " fill="#FEFFDD" style="stroke:#181818;stroke-width:0.5;"/><text fill="#000000" font-family="sans-serif" font-size="13" lengthAdjust="spacing" textLength="360" x="2831" y="90.0669">An error ocurred whilst parsing an org-mode document.</text></g><!--MD5=[8e51bc3e404e283503c29edeec16d10b]
class helpers::node--><g id="elem_helpers::node"><rect codeLine="156" fill="#ED8181" height="88.8594" id="helpers::node" rx="2.5" ry="2.5" style="stroke:#181818;stroke-width:0.5;" width="348" x="3497.5" y="41"/><ellipse cx="3607.25" cy="61.1328" fill="#ADD1B2" rx="11" ry="11" style="stroke:#181818;stroke-width:1.0;"/><path d="M3610.2188,66.7734 Q3609.6406,67.0703 3609,67.2188 Q3608.3594,67.3672 3607.6563,67.3672 Q3605.1563,67.3672 3603.8359,65.7188 Q3602.5156,64.0703 3602.5156,60.9453 Q3602.5156,57.8203 3603.8359,56.1641 Q3605.1563,54.5078 3607.6563,54.5078 Q3608.3594,54.5078 3609.0078,54.6641 Q3609.6563,54.8203 3610.2188,55.1172 L3610.2188,57.8359 Q3609.5938,57.2578 3609,56.9844 Q3608.4063,56.7109 3607.7813,56.7109 Q3606.4375,56.7109 3605.75,57.7813 Q3605.0625,58.8516 3605.0625,60.9453 Q3605.0625,63.0391 3605.75,64.1094 Q3606.4375,65.1797 3607.7813,65.1797 Q3608.4063,65.1797 3609,64.9063 Q3609.5938,64.6328 3610.2188,64.0547 L3610.2188,66.7734 Z " fill="#000000"/><text fill="#000000" font-family="sans-serif" font-size="12" font-style="italic" lengthAdjust="spacing" textLength="124" x="3625.75" y="57.1387">«dogen::untestable»</text><text fill="#000000" font-family="sans-serif" font-size="14" lengthAdjust="spacing" textLength="36" x="3669.75" y="72.9639">node</text><line style="stroke:#181818;stroke-width:0.5;" x1="3498.5" x2="3844.5" y1="81.2656" y2="81.2656"/><ellipse cx="3508.5" cy="92.2656" fill="none" rx="3" ry="3" style="stroke:#038048;stroke-width:1.0;"/><text fill="#000000" font-family="sans-serif" font-size="14" lengthAdjust="spacing" textLength="160" x="3517.5" y="98.2607">data entities::headline</text><ellipse cx="3508.5" cy="108.5625" fill="none" rx="3" ry="3" style="stroke:#038048;stroke-width:1.0;"/><text fill="#000000" font-family="sans-serif" font-size="14" lengthAdjust="spacing" textLength="322" x="3517.5" y="114.5576">children std::list&lt;boost::shared_ptr&lt;node&gt;&gt;</text><line style="stroke:#181818;stroke-width:0.5;" x1="3498.5" x2="3844.5" y1="121.8594" y2="121.8594"/></g><!--MD5=[aef46ec41b4e11f2e7af5d5b5bac8122]
class helpers::builder--><g id="elem_helpers::builder"><rect codeLine="161" fill="#FFFACD" height="72.5625" id="helpers::builder" rx="2.5" ry="2.5" style="stroke:#181818;stroke-width:0.5;" width="244" x="3229.5" y="398.5"/><ellipse cx="3254.4" cy="418.6328" fill="#ADD1B2" rx="11" ry="11" style="stroke:#181818;stroke-width:1.0;"/><path d="M3257.3688,424.2734 Q3256.7906,424.5703 3256.15,424.7188 Q3255.5094,424.8672 3254.8063,424.8672 Q3252.3063,424.8672 3250.9859,423.2188 Q3249.6656,421.5703 3249.6656,418.4453 Q3249.6656,415.3203 3250.9859,413.6641 Q3252.3063,412.0078 3254.8063,412.0078 Q3255.5094,412.0078 3256.1578,412.1641 Q3256.8063,412.3203 3257.3688,412.6172 L3257.3688,415.3359 Q3256.7438,414.7578 3256.15,414.4844 Q3255.5563,414.2109 3254.9313,414.2109 Q3253.5875,414.2109 3252.9,415.2813 Q3252.2125,416.3516 3252.2125,418.4453 Q3252.2125,420.5391 3252.9,421.6094 Q3253.5875,422.6797 3254.9313,422.6797 Q3255.5563,422.6797 3256.15,422.4063 Q3256.7438,422.1328 3257.3688,421.5547 L3257.3688,424.2734 Z " fill="#000000"/><text fill="#000000" font-family="sans-serif" font-size="12" font-style="italic" lengthAdjust="spacing" textLength="194" x="3268.6" y="414.6387">«dogen::handcrafted::typeable»</text><text fill="#000000" font-family="sans-serif" font-size="14" lengthAdjust="spacing" textLength="50" x="3340.6" y="430.4639">builder</text><line style="stroke:#181818;stroke-width:0.5;" x1="3230.5" x2="3472.5" y1="438.7656" y2="438.7656"/><ellipse cx="3240.5" cy="449.7656" fill="none" rx="3" ry="3" style="stroke:#038048;stroke-width:1.0;"/><text fill="#000000" font-family="sans-serif" font-size="14" lengthAdjust="spacing" textLength="218" x="3249.5" y="455.7607">root boost::shared_ptr&lt;node&gt;</text><line style="stroke:#181818;stroke-width:0.5;" x1="3230.5" x2="3472.5" y1="463.0625" y2="463.0625"/></g><!--MD5=[6fd13f622b1e010fae07eaa86c0895f5]
class helpers::building_error--><g id="elem_helpers::building_error"><rect codeLine="165" fill="#E8C2F8" height="56.2656" id="helpers::building_error" rx="2.5" ry="2.5" style="stroke:#181818;stroke-width:0.5;" width="142" x="2600.5" y="407"/><ellipse cx="2615.5" cy="427.1328" fill="#ADD1B2" rx="11" ry="11" style="stroke:#181818;stroke-width:1.0;"/><path d="M2618.4688,432.7734 Q2617.8906,433.0703 2617.25,433.2188 Q2616.6094,433.3672 2615.9063,433.3672 Q2613.4063,433.3672 2612.0859,431.7188 Q2610.7656,430.0703 2610.7656,426.9453 Q2610.7656,423.8203 2612.0859,422.1641 Q2613.4063,420.5078 2615.9063,420.5078 Q2616.6094,420.5078 2617.2578,420.6641 Q2617.9063,420.8203 2618.4688,421.1172 L2618.4688,423.8359 Q2617.8438,423.2578 2617.25,422.9844 Q2616.6563,422.7109 2616.0313,422.7109 Q2614.6875,422.7109 2614,423.7813 Q2613.3125,424.8516 2613.3125,426.9453 Q2613.3125,429.0391 2614,430.1094 Q2614.6875,431.1797 2616.0313,431.1797 Q2616.6563,431.1797 2617.25,430.9063 Q2617.8438,430.6328 2618.4688,430.0547 L2618.4688,432.7734 Z " fill="#000000"/><text fill="#000000" font-family="sans-serif" font-size="12" font-style="italic" lengthAdjust="spacing" textLength="114" x="2627.5" y="423.1387">«masd::exception»</text><text fill="#000000" font-family="sans-serif" font-size="14" lengthAdjust="spacing" textLength="100" x="2634.5" y="438.9639">building_error</text><line style="stroke:#181818;stroke-width:0.5;" x1="2601.5" x2="2741.5" y1="447.2656" y2="447.2656"/><line style="stroke:#181818;stroke-width:0.5;" x1="2601.5" x2="2741.5" y1="455.2656" y2="455.2656"/></g><g id="elem_helpers::GMN42"><path d="M2553.5,73 L2553.5,98.1328 A0,0 0 0 0 2553.5,98.1328 L2667.5,98.1328 L2671.5,406.89 L2675.5,98.1328 L2789.5,98.1328 A0,0 0 0 0 2789.5,98.1328 L2789.5,83 L2779.5,73 L2553.5,73 A0,0 0 0 0 2553.5,73 " fill="#FEFFDD" style="stroke:#181818;stroke-width:0.5;"/><path d="M2779.5,73 L2779.5,83 L2789.5,83 L2779.5,73 " fill="#FEFFDD" style="stroke:#181818;stroke-width:0.5;"/><text fill="#000000" font-family="sans-serif" font-size="13" lengthAdjust="spacing" textLength="215" x="2559.5" y="90.0669">An error occurred whilst building.</text></g><!--MD5=[194261232dfc7ab97825e524ed0c76bd]
class helpers::document_factory--><g id="elem_helpers::document_factory"><rect codeLine="172" fill="#FFFACD" height="56.2656" id="helpers::document_factory" rx="2.5" ry="2.5" style="stroke:#181818;stroke-width:0.5;" width="222" x="3508.5" y="407"/><ellipse cx="3523.5" cy="427.1328" fill="#ADD1B2" rx="11" ry="11" style="stroke:#181818;stroke-width:1.0;"/><path d="M3526.4688,432.7734 Q3525.8906,433.0703 3525.25,433.2188 Q3524.6094,433.3672 3523.9063,433.3672 Q3521.4063,433.3672 3520.0859,431.7188 Q3518.7656,430.0703 3518.7656,426.9453 Q3518.7656,423.8203 3520.0859,422.1641 Q3521.4063,420.5078 3523.9063,420.5078 Q3524.6094,420.5078 3525.2578,420.6641 Q3525.9063,420.8203 3526.4688,421.1172 L3526.4688,423.8359 Q3525.8438,423.2578 3525.25,422.9844 Q3524.6563,422.7109 3524.0313,422.7109 Q3522.6875,422.7109 3522,423.7813 Q3521.3125,424.8516 3521.3125,426.9453 Q3521.3125,429.0391 3522,430.1094 Q3522.6875,431.1797 3524.0313,431.1797 Q3524.6563,431.1797 3525.25,430.9063 Q3525.8438,430.6328 3526.4688,430.0547 L3526.4688,432.7734 Z " fill="#000000"/><text fill="#000000" font-family="sans-serif" font-size="12" font-style="italic" lengthAdjust="spacing" textLength="194" x="3535.5" y="423.1387">«dogen::handcrafted::typeable»</text><text fill="#000000" font-family="sans-serif" font-size="14" lengthAdjust="spacing" textLength="129" x="3568" y="438.9639">document_factory</text><line style="stroke:#181818;stroke-width:0.5;" x1="3509.5" x2="3729.5" y1="447.2656" y2="447.2656"/><line style="stroke:#181818;stroke-width:0.5;" x1="3509.5" x2="3729.5" y1="455.2656" y2="455.2656"/></g><g id="elem_N1"><path d="M6,20 L6,151.0625 L517,151.0625 L517,30 L507,20 L6,20 " fill="#FEFFDD" style="stroke:#181818;stroke-width:0.5;"/><path d="M507,20 L507,30 L517,30 L507,20 " fill="#FEFFDD" style="stroke:#181818;stroke-width:1.0;"/><text fill="#000000" font-family="sans-serif" font-size="13" lengthAdjust="spacing" textLength="490" x="12" y="37.0669">Provides support for encoding and decoding Emacs's org-mode documents.</text><text fill="#000000" font-family="sans-serif" font-size="13" lengthAdjust="spacing" textLength="4" x="12" y="52.1997"> </text><text fill="#000000" font-family="sans-serif" font-size="13" lengthAdjust="spacing" textLength="463" x="12" y="67.3325">The support is very basic and focuses only on the features of org mode</text><text fill="#000000" font-family="sans-serif" font-size="13" lengthAdjust="spacing" textLength="124" x="12" y="82.4653">required by Dogen.</text><text fill="#000000" font-family="sans-serif" font-size="13" lengthAdjust="spacing" textLength="4" x="12" y="97.5981"> </text><text fill="#000000" font-family="sans-serif" font-size="13" lengthAdjust="spacing" textLength="131" x="12" y="112.731">UML representation:</text><text fill="#000000" font-family="sans-serif" font-size="13" lengthAdjust="spacing" textLength="4" x="12" y="127.8638"> </text><text fill="#000000" font-family="sans-serif" font-size="13" lengthAdjust="spacing" textLength="309" x="12" y="142.9966">\image html dogen.org/modeling/dogen.org.svg</text></g><g id="elem_GMN20"><path d="M832.5,73 L832.5,98.1328 L1136.5,98.1328 L1136.5,83 L1126.5,73 L832.5,73 " fill="#FEFFDD" style="stroke:#181818;stroke-width:0.5;"/><path d="M1126.5,73 L1126.5,83 L1136.5,83 L1126.5,73 " fill="#FEFFDD" style="stroke:#181818;stroke-width:1.0;"/><text fill="#000000" font-family="sans-serif" font-size="13" lengthAdjust="spacing" textLength="283" x="838.5" y="90.0669">Represents entities from Emacs' org-mode.</text></g><!--MD5=[191260866125489e686a52f29270ba5f]
class registrar--><g id="elem_registrar"><rect codeLine="120" fill="#00FF00" height="56.2656" id="registrar" rx="2.5" ry="2.5" style="stroke:#181818;stroke-width:0.5;" width="245" x="552" y="57.5"/><ellipse cx="567" cy="77.6328" fill="#ADD1B2" rx="11" ry="11" style="stroke:#181818;stroke-width:1.0;"/><path d="M569.9688,83.2734 Q569.3906,83.5703 568.75,83.7188 Q568.1094,83.8672 567.4063,83.8672 Q564.9063,83.8672 563.5859,82.2188 Q562.2656,80.5703 562.2656,77.4453 Q562.2656,74.3203 563.5859,72.6641 Q564.9063,71.0078 567.4063,71.0078 Q568.1094,71.0078 568.7578,71.1641 Q569.4063,71.3203 569.9688,71.6172 L569.9688,74.3359 Q569.3438,73.7578 568.75,73.4844 Q568.1563,73.2109 567.5313,73.2109 Q566.1875,73.2109 565.5,74.2813 Q564.8125,75.3516 564.8125,77.4453 Q564.8125,79.5391 565.5,80.6094 Q566.1875,81.6797 567.5313,81.6797 Q568.1563,81.6797 568.75,81.4063 Q569.3438,81.1328 569.9688,80.5547 L569.9688,83.2734 Z " fill="#000000"/><text fill="#000000" font-family="sans-serif" font-size="12" font-style="italic" lengthAdjust="spacing" textLength="217" x="579" y="73.6387">«masd::serialization::type_registrar»</text><text fill="#000000" font-family="sans-serif" font-size="14" lengthAdjust="spacing" textLength="61" x="657" y="89.4639">registrar</text><line style="stroke:#181818;stroke-width:0.5;" x1="553" x2="796" y1="97.7656" y2="97.7656"/><line style="stroke:#181818;stroke-width:0.5;" x1="553" x2="796" y1="105.7656" y2="105.7656"/></g><!--MD5=[4520fda4e10d4d791ce48fe025810cd4]
class main--><g id="elem_main"><rect codeLine="123" fill="#DDA9F3" height="56.2656" id="main" rx="2.5" ry="2.5" style="stroke:#181818;stroke-width:0.5;" width="267" x="128" y="407"/><ellipse cx="143" cy="427.1328" fill="#ADD1B2" rx="11" ry="11" style="stroke:#181818;stroke-width:1.0;"/><path d="M145.9688,432.7734 Q145.3906,433.0703 144.75,433.2188 Q144.1094,433.3672 143.4063,433.3672 Q140.9063,433.3672 139.5859,431.7188 Q138.2656,430.0703 138.2656,426.9453 Q138.2656,423.8203 139.5859,422.1641 Q140.9063,420.5078 143.4063,420.5078 Q144.1094,420.5078 144.7578,420.6641 Q145.4063,420.8203 145.9688,421.1172 L145.9688,423.8359 Q145.3438,423.2578 144.75,422.9844 Q144.1563,422.7109 143.5313,422.7109 Q142.1875,422.7109 141.5,423.7813 Q140.8125,424.8516 140.8125,426.9453 Q140.8125,429.0391 141.5,430.1094 Q142.1875,431.1797 143.5313,431.1797 Q144.1563,431.1797 144.75,430.9063 Q145.3438,430.6328 145.9688,430.0547 L145.9688,432.7734 Z " fill="#000000"/><text fill="#000000" font-family="sans-serif" font-size="12" font-style="italic" lengthAdjust="spacing" textLength="239" x="155" y="423.1387">«masd::entry_point, dogen::untypable»</text><text fill="#000000" font-family="sans-serif" font-size="14" lengthAdjust="spacing" textLength="36" x="256.5" y="438.9639">main</text><line style="stroke:#181818;stroke-width:0.5;" x1="129" x2="394" y1="447.2656" y2="447.2656"/><line style="stroke:#181818;stroke-width:0.5;" x1="129" x2="394" y1="455.2656" y2="455.2656"/></g><!--MD5=[ba83386d426114557685538e96aa6f68]
class CMakeLists--><g id="elem_CMakeLists"><rect codeLine="126" fill="#99CB99" height="56.2656" id="CMakeLists" rx="2.5" ry="2.5" style="stroke:#181818;stroke-width:0.5;" width="360" x="430.5" y="407"/><ellipse cx="445.5" cy="427.1328" fill="#ADD1B2" rx="11" ry="11" style="stroke:#181818;stroke-width:1.0;"/><path d="M448.4688,432.7734 Q447.8906,433.0703 447.25,433.2188 Q446.6094,433.3672 445.9063,433.3672 Q443.4063,433.3672 442.0859,431.7188 Q440.7656,430.0703 440.7656,426.9453 Q440.7656,423.8203 442.0859,422.1641 Q443.4063,420.5078 445.9063,420.5078 Q446.6094,420.5078 447.2578,420.6641 Q447.9063,420.8203 448.4688,421.1172 L448.4688,423.8359 Q447.8438,423.2578 447.25,422.9844 Q446.6563,422.7109 446.0313,422.7109 Q444.6875,422.7109 444,423.7813 Q443.3125,424.8516 443.3125,426.9453 Q443.3125,429.0391 444,430.1094 Q444.6875,431.1797 446.0313,431.1797 Q446.6563,431.1797 447.25,430.9063 Q447.8438,430.6328 448.4688,430.0547 L448.4688,432.7734 Z " fill="#000000"/><text fill="#000000" font-family="sans-serif" font-size="12" font-style="italic" lengthAdjust="spacing" textLength="332" x="457.5" y="423.1387">«masd::build::cmakelists, dogen::handcrafted::cmake»</text><text fill="#000000" font-family="sans-serif" font-size="14" lengthAdjust="spacing" textLength="79" x="584" y="438.9639">CMakeLists</text><line style="stroke:#181818;stroke-width:0.5;" x1="431.5" x2="789.5" y1="447.2656" y2="447.2656"/><line style="stroke:#181818;stroke-width:0.5;" x1="431.5" x2="789.5" y1="455.2656" y2="455.2656"/></g><!--MD5=[da5697ddd3a2fbb8edc908db35685e0f]
link GMN20 to entities--><g id="link_GMN20_entities"><path d="M984.5,98.06 C984.5,105.5387 984.5,116.3298 984.5,129.4966 C984.5,136.08 984.5,143.2573 984.5,150.9115 C984.5,154.7385 984.5,158.6848 984.5,162.7357 C984.5,164.7611 984.5,166.8127 984.5,168.8886 C984.5,169.9265 984.5,170.9705 984.5,172.0204 C984.5,172.5453 984.5,173.0717 984.5,173.5996 " fill="none" id="GMN20-entities" style="stroke:#181818;stroke-width:1.0;stroke-dasharray:7.0,7.0;"/></g><!--MD5=[26860b4d9313c0d88107265bb34c89c1]
link N1 to registrar--></g></svg>