<?xml version="1.0" encoding="UTF-8" standalone="no"?><svg xmlns="http://www.w3.org/2000/svg" xmlns:xlink="http://www.w3.org/1999/xlink" contentStyleType="text/css" height="1416px" preserveAspectRatio="none" style="width:4054px;height:1416px;background:#FFFFFF;" version="1.1" viewBox="0 0 4054 1416" width="4054px" zoomAndPan="magnify"><defs/><g><path d="M1380,12 L1426,12 A3.75,3.75 0 0 1 1428.5,14.5 L1435.5,34.2969 L2621.8333,34.2969 A2.5,2.5 0 0 1 2624.3333,36.7969 L2624.3333,1069.1328 A2.5,2.5 0 0 1 2621.8333,1071.6328 L1380,1071.6328 A2.5,2.5 0 0 1 1377.5,1069.1328 L1377.5,14.5 A2.5,2.5 0 0 1 1380,12 " fill="none" style="stroke:#000000;stroke-width:1.0;"/><line style="stroke:#000000;stroke-width:1.0;" x1="1377.5" x2="1435.5" y1="34.2969" y2="34.2969"/><text fill="#000000" font-family="sans-serif" font-size="14" font-weight="bold" lengthAdjust="spacing" textLength="45" x="1381.5" y="26.9951">stitch</text><path d="M14.5,341.0703 L52.5,341.0703 A3.75,3.75 0 0 1 55,343.5703 L62,363.3672 L905,363.3672 A2.5,2.5 0 0 1 907.5,365.8672 L907.5,740.0625 A2.5,2.5 0 0 1 905,742.5625 L14.5,742.5625 A2.5,2.5 0 0 1 12,740.0625 L12,343.5703 A2.5,2.5 0 0 1 14.5,341.0703 " fill="none" style="stroke:#000000;stroke-width:1.0;"/><line style="stroke:#000000;stroke-width:1.0;" x1="12" x2="62" y1="363.3672" y2="363.3672"/><text fill="#000000" font-family="sans-serif" font-size="14" font-weight="bold" lengthAdjust="spacing" textLength="37" x="16" y="356.0654">wale</text><path d="M2646.8333,425.4844 L2707.8333,425.4844 A3.75,3.75 0 0 1 2710.3333,427.9844 L2717.3333,447.7813 L3506.8333,447.7813 A2.5,2.5 0 0 1 3509.3333,450.2813 L3509.3333,655.6484 A2.5,2.5 0 0 1 3506.8333,658.1484 L2646.8333,658.1484 A2.5,2.5 0 0 1 2644.3333,655.6484 L2644.3333,427.9844 A2.5,2.5 0 0 1 2646.8333,425.4844 " fill="none" style="stroke:#000000;stroke-width:1.0;"/><line style="stroke:#000000;stroke-width:1.0;" x1="2644.3333" x2="2717.3333" y1="447.7813" y2="447.7813"/><text fill="#000000" font-family="sans-serif" font-size="14" font-weight="bold" lengthAdjust="spacing" textLength="60" x="2648.3333" y="440.4795">helpers</text><!--MD5=[edb4442cf6f04c2980b84cfac303ada0]
class stitch::instantiator--><g id="elem_stitch::instantiator"><rect codeLine="35" fill="#FFFACD" height="56.2656" id="stitch::instantiator" rx="2.5" ry="2.5" style="stroke:#181818;stroke-width:0.5;" width="222" x="1767.5" y="302.3125"/><ellipse cx="1782.5" cy="322.4453" fill="#ADD1B2" rx="11" ry="11" style="stroke:#181818;stroke-width:1.0;"/><path d="M1785.4688,328.0859 Q1784.8906,328.3828 1784.25,328.5313 Q1783.6094,328.6797 1782.9063,328.6797 Q1780.4063,328.6797 1779.0859,327.0313 Q1777.7656,325.3828 1777.7656,322.2578 Q1777.7656,319.1328 1779.0859,317.4766 Q1780.4063,315.8203 1782.9063,315.8203 Q1783.6094,315.8203 1784.2578,315.9766 Q1784.9063,316.1328 1785.4688,316.4297 L1785.4688,319.1484 Q1784.8438,318.5703 1784.25,318.2969 Q1783.6563,318.0234 1783.0313,318.0234 Q1781.6875,318.0234 1781,319.0938 Q1780.3125,320.1641 1780.3125,322.2578 Q1780.3125,324.3516 1781,325.4219 Q1781.6875,326.4922 1783.0313,326.4922 Q1783.6563,326.4922 1784.25,326.2188 Q1784.8438,325.9453 1785.4688,325.3672 L1785.4688,328.0859 Z " fill="#000000"/><text fill="#000000" font-family="sans-serif" font-size="12" font-style="italic" lengthAdjust="spacing" textLength="194" x="1794.5" y="318.4512">«dogen::handcrafted::typeable»</text><text fill="#000000" font-family="sans-serif" font-size="14" lengthAdjust="spacing" textLength="81" x="1851" y="334.2764">instantiator</text><line style="stroke:#181818;stroke-width:0.5;" x1="1768.5" x2="1988.5" y1="342.5781" y2="342.5781"/><line style="stroke:#181818;stroke-width:0.5;" x1="1768.5" x2="1988.5" y1="350.5781" y2="350.5781"/></g><!--MD5=[cd8e9796900d8ba1eb07c7ee908e5f5f]
class stitch::formatter--><g id="elem_stitch::formatter"><rect codeLine="45" fill="#FFFACD" height="56.2656" id="stitch::formatter" rx="2.5" ry="2.5" style="stroke:#181818;stroke-width:0.5;" width="222" x="2334.8333" y="378.5781"/><ellipse cx="2349.8333" cy="398.7109" fill="#ADD1B2" rx="11" ry="11" style="stroke:#181818;stroke-width:1.0;"/><path d="M2352.8021,404.3516 Q2352.224,404.6484 2351.5833,404.7969 Q2350.9427,404.9453 2350.2396,404.9453 Q2347.7396,404.9453 2346.4193,403.2969 Q2345.099,401.6484 2345.099,398.5234 Q2345.099,395.3984 2346.4193,393.7422 Q2347.7396,392.0859 2350.2396,392.0859 Q2350.9427,392.0859 2351.5911,392.2422 Q2352.2396,392.3984 2352.8021,392.6953 L2352.8021,395.4141 Q2352.1771,394.8359 2351.5833,394.5625 Q2350.9896,394.2891 2350.3646,394.2891 Q2349.0208,394.2891 2348.3333,395.3594 Q2347.6458,396.4297 2347.6458,398.5234 Q2347.6458,400.6172 2348.3333,401.6875 Q2349.0208,402.7578 2350.3646,402.7578 Q2350.9896,402.7578 2351.5833,402.4844 Q2352.1771,402.2109 2352.8021,401.6328 L2352.8021,404.3516 Z " fill="#000000"/><text fill="#000000" font-family="sans-serif" font-size="12" font-style="italic" lengthAdjust="spacing" textLength="194" x="2361.8333" y="394.7168">«dogen::handcrafted::typeable»</text><text fill="#000000" font-family="sans-serif" font-size="14" lengthAdjust="spacing" textLength="68" x="2424.8333" y="410.542">formatter</text><line style="stroke:#181818;stroke-width:0.5;" x1="2335.8333" x2="2555.8333" y1="418.8438" y2="418.8438"/><line style="stroke:#181818;stroke-width:0.5;" x1="2335.8333" x2="2555.8333" y1="426.8438" y2="426.8438"/></g><!--MD5=[c47f1d475d193793092ee106b2a5fcdb]
class stitch::instantiation_error--><g id="elem_stitch::instantiation_error"><rect codeLine="42" fill="#E8C2F8" height="56.2656" id="stitch::instantiation_error" rx="2.5" ry="2.5" style="stroke:#181818;stroke-width:0.5;" width="163" x="1797" y="52"/><ellipse cx="1812" cy="72.1328" fill="#ADD1B2" rx="11" ry="11" style="stroke:#181818;stroke-width:1.0;"/><path d="M1814.9688,77.7734 Q1814.3906,78.0703 1813.75,78.2188 Q1813.1094,78.3672 1812.4063,78.3672 Q1809.9063,78.3672 1808.5859,76.7188 Q1807.2656,75.0703 1807.2656,71.9453 Q1807.2656,68.8203 1808.5859,67.1641 Q1809.9063,65.5078 1812.4063,65.5078 Q1813.1094,65.5078 1813.7578,65.6641 Q1814.4063,65.8203 1814.9688,66.1172 L1814.9688,68.8359 Q1814.3438,68.2578 1813.75,67.9844 Q1813.1563,67.7109 1812.5313,67.7109 Q1811.1875,67.7109 1810.5,68.7813 Q1809.8125,69.8516 1809.8125,71.9453 Q1809.8125,74.0391 1810.5,75.1094 Q1811.1875,76.1797 1812.5313,76.1797 Q1813.1563,76.1797 1813.75,75.9063 Q1814.3438,75.6328 1814.9688,75.0547 L1814.9688,77.7734 Z " fill="#000000"/><text fill="#000000" font-family="sans-serif" font-size="12" font-style="italic" lengthAdjust="spacing" textLength="114" x="1834.5" y="68.1387">«masd::exception»</text><text fill="#000000" font-family="sans-serif" font-size="14" lengthAdjust="spacing" textLength="131" x="1826" y="83.9639">instantiation_error</text><line style="stroke:#181818;stroke-width:0.5;" x1="1798" x2="1959" y1="92.2656" y2="92.2656"/><line style="stroke:#181818;stroke-width:0.5;" x1="1798" x2="1959" y1="100.2656" y2="100.2656"/></g><!--MD5=[acad6953ec1038ab0f34bc9d380c7772]
class stitch::parser--><g id="elem_stitch::parser"><rect codeLine="58" fill="#FFFACD" height="56.2656" id="stitch::parser" rx="2.5" ry="2.5" style="stroke:#181818;stroke-width:0.5;" width="222" x="1730.5" y="454.8438"/><ellipse cx="1745.5" cy="474.9766" fill="#ADD1B2" rx="11" ry="11" style="stroke:#181818;stroke-width:1.0;"/><path d="M1748.4688,480.6172 Q1747.8906,480.9141 1747.25,481.0625 Q1746.6094,481.2109 1745.9063,481.2109 Q1743.4063,481.2109 1742.0859,479.5625 Q1740.7656,477.9141 1740.7656,474.7891 Q1740.7656,471.6641 1742.0859,470.0078 Q1743.4063,468.3516 1745.9063,468.3516 Q1746.6094,468.3516 1747.2578,468.5078 Q1747.9063,468.6641 1748.4688,468.9609 L1748.4688,471.6797 Q1747.8438,471.1016 1747.25,470.8281 Q1746.6563,470.5547 1746.0313,470.5547 Q1744.6875,470.5547 1744,471.625 Q1743.3125,472.6953 1743.3125,474.7891 Q1743.3125,476.8828 1744,477.9531 Q1744.6875,479.0234 1746.0313,479.0234 Q1746.6563,479.0234 1747.25,478.75 Q1747.8438,478.4766 1748.4688,477.8984 L1748.4688,480.6172 Z " fill="#000000"/><text fill="#000000" font-family="sans-serif" font-size="12" font-style="italic" lengthAdjust="spacing" textLength="194" x="1757.5" y="470.9824">«dogen::handcrafted::typeable»</text><text fill="#000000" font-family="sans-serif" font-size="14" lengthAdjust="spacing" textLength="46" x="1831.5" y="486.8076">parser</text><line style="stroke:#181818;stroke-width:0.5;" x1="1731.5" x2="1951.5" y1="495.1094" y2="495.1094"/><line style="stroke:#181818;stroke-width:0.5;" x1="1731.5" x2="1951.5" y1="503.1094" y2="503.1094"/></g><!--MD5=[e194cfafe343b608f0b5abf872d52ff8]
class stitch::formatting_error--><g id="elem_stitch::formatting_error"><rect codeLine="51" fill="#E8C2F8" height="56.2656" id="stitch::formatting_error" rx="2.5" ry="2.5" style="stroke:#181818;stroke-width:0.5;" width="150" x="2407.8333" y="177.1563"/><ellipse cx="2422.8333" cy="197.2891" fill="#ADD1B2" rx="11" ry="11" style="stroke:#181818;stroke-width:1.0;"/><path d="M2425.8021,202.9297 Q2425.224,203.2266 2424.5833,203.375 Q2423.9427,203.5234 2423.2396,203.5234 Q2420.7396,203.5234 2419.4193,201.875 Q2418.099,200.2266 2418.099,197.1016 Q2418.099,193.9766 2419.4193,192.3203 Q2420.7396,190.6641 2423.2396,190.6641 Q2423.9427,190.6641 2424.5911,190.8203 Q2425.2396,190.9766 2425.8021,191.2734 L2425.8021,193.9922 Q2425.1771,193.4141 2424.5833,193.1406 Q2423.9896,192.8672 2423.3646,192.8672 Q2422.0208,192.8672 2421.3333,193.9375 Q2420.6458,195.0078 2420.6458,197.1016 Q2420.6458,199.1953 2421.3333,200.2656 Q2422.0208,201.3359 2423.3646,201.3359 Q2423.9896,201.3359 2424.5833,201.0625 Q2425.1771,200.7891 2425.8021,200.2109 L2425.8021,202.9297 Z " fill="#000000"/><text fill="#000000" font-family="sans-serif" font-size="12" font-style="italic" lengthAdjust="spacing" textLength="114" x="2438.8333" y="193.2949">«masd::exception»</text><text fill="#000000" font-family="sans-serif" font-size="14" lengthAdjust="spacing" textLength="118" x="2436.8333" y="209.1201">formatting_error</text><line style="stroke:#181818;stroke-width:0.5;" x1="2408.8333" x2="2556.8333" y1="217.4219" y2="217.4219"/><line style="stroke:#181818;stroke-width:0.5;" x1="2408.8333" x2="2556.8333" y1="225.4219" y2="225.4219"/></g><!--MD5=[79290bda54e415bd3e329928675d72d8]
class stitch::text_template--><g id="elem_stitch::text_template"><rect codeLine="99" fill="#F7E5FF" height="88.8594" id="stitch::text_template" rx="2.5" ry="2.5" style="stroke:#181818;stroke-width:0.5;" width="205" x="2179.8333" y="676.8359"/><ellipse cx="2212.8333" cy="696.9688" fill="#ADD1B2" rx="11" ry="11" style="stroke:#181818;stroke-width:1.0;"/><path d="M2215.8021,702.6094 Q2215.224,702.9063 2214.5833,703.0547 Q2213.9427,703.2031 2213.2396,703.2031 Q2210.7396,703.2031 2209.4193,701.5547 Q2208.099,699.9063 2208.099,696.7813 Q2208.099,693.6563 2209.4193,692 Q2210.7396,690.3438 2213.2396,690.3438 Q2213.9427,690.3438 2214.5911,690.5 Q2215.2396,690.6563 2215.8021,690.9531 L2215.8021,693.6719 Q2215.1771,693.0938 2214.5833,692.8203 Q2213.9896,692.5469 2213.3646,692.5469 Q2212.0208,692.5469 2211.3333,693.6172 Q2210.6458,694.6875 2210.6458,696.7813 Q2210.6458,698.875 2211.3333,699.9453 Q2212.0208,701.0156 2213.3646,701.0156 Q2213.9896,701.0156 2214.5833,700.7422 Q2215.1771,700.4688 2215.8021,699.8906 L2215.8021,702.6094 Z " fill="#000000"/><text fill="#000000" font-family="sans-serif" font-size="12" font-style="italic" lengthAdjust="spacing" textLength="137" x="2228.8333" y="692.9746">«ConfigurableViaKvps»</text><text fill="#000000" font-family="sans-serif" font-size="14" lengthAdjust="spacing" textLength="98" x="2248.3333" y="708.7998">text_template</text><line style="stroke:#181818;stroke-width:0.5;" x1="2180.8333" x2="2383.8333" y1="717.1016" y2="717.1016"/><ellipse cx="2190.8333" cy="730.75" fill="none" rx="3" ry="3" style="stroke:#038048;stroke-width:1.0;"/><text fill="#000000" font-family="sans-serif" font-size="14" lengthAdjust="spacing" textLength="150" x="2199.8333" y="734.0967">properties properties</text><ellipse cx="2190.8333" cy="747.0469" fill="none" rx="3" ry="3" style="stroke:#038048;stroke-width:1.0;"/><text fill="#000000" font-family="sans-serif" font-size="14" lengthAdjust="spacing" textLength="179" x="2199.8333" y="750.3936">body text_template_body</text><line style="stroke:#181818;stroke-width:0.5;" x1="2180.8333" x2="2383.8333" y1="757.6953" y2="757.6953"/></g><g id="elem_stitch::GMN27"><path d="M2356.3333,83.1328 L2356.3333,108.2656 L2609.3333,108.2656 L2609.3333,93.1328 L2599.3333,83.1328 L2356.3333,83.1328 " fill="#FEFFDD" style="stroke:#181818;stroke-width:0.5;"/><path d="M2599.3333,83.1328 L2599.3333,93.1328 L2609.3333,93.1328 L2599.3333,83.1328 " fill="#FEFFDD" style="stroke:#181818;stroke-width:1.0;"/><text fill="#000000" font-family="sans-serif" font-size="13" lengthAdjust="spacing" textLength="232" x="2362.3333" y="100.1997">An error occurred whilst formatting.</text></g><!--MD5=[ca5c199dc9cb2334a69b41571a6b318a]
class stitch::parsing_error--><g id="elem_stitch::parsing_error"><rect codeLine="64" fill="#E8C2F8" height="56.2656" id="stitch::parsing_error" rx="2.5" ry="2.5" style="stroke:#181818;stroke-width:0.5;" width="142" x="1966.8333" y="576.2422"/><ellipse cx="1981.8333" cy="596.375" fill="#ADD1B2" rx="11" ry="11" style="stroke:#181818;stroke-width:1.0;"/><path d="M1984.8021,602.0156 Q1984.224,602.3125 1983.5833,602.4609 Q1982.9427,602.6094 1982.2396,602.6094 Q1979.7396,602.6094 1978.4193,600.9609 Q1977.099,599.3125 1977.099,596.1875 Q1977.099,593.0625 1978.4193,591.4063 Q1979.7396,589.75 1982.2396,589.75 Q1982.9427,589.75 1983.5911,589.9063 Q1984.2396,590.0625 1984.8021,590.3594 L1984.8021,593.0781 Q1984.1771,592.5 1983.5833,592.2266 Q1982.9896,591.9531 1982.3646,591.9531 Q1981.0208,591.9531 1980.3333,593.0234 Q1979.6458,594.0938 1979.6458,596.1875 Q1979.6458,598.2813 1980.3333,599.3516 Q1981.0208,600.4219 1982.3646,600.4219 Q1982.9896,600.4219 1983.5833,600.1484 Q1984.1771,599.875 1984.8021,599.2969 L1984.8021,602.0156 Z " fill="#000000"/><text fill="#000000" font-family="sans-serif" font-size="12" font-style="italic" lengthAdjust="spacing" textLength="114" x="1993.8333" y="592.3809">«masd::exception»</text><text fill="#000000" font-family="sans-serif" font-size="14" lengthAdjust="spacing" textLength="96" x="2002.8333" y="608.2061">parsing_error</text><line style="stroke:#181818;stroke-width:0.5;" x1="1967.8333" x2="2107.8333" y1="616.5078" y2="616.5078"/><line style="stroke:#181818;stroke-width:0.5;" x1="1967.8333" x2="2107.8333" y1="624.5078" y2="624.5078"/></g><!--MD5=[b918d947c2f4e4a06248cb590094940c]
class stitch::text_template_body--><g id="elem_stitch::text_template_body"><rect codeLine="71" fill="#F7E5FF" height="80.5938" id="stitch::text_template_body" rx="2.5" ry="2.5" style="stroke:#181818;stroke-width:0.5;" width="469" x="1477.8333" y="576.2422"/><ellipse cx="1638.0833" cy="592.2422" fill="#ADD1B2" rx="11" ry="11" style="stroke:#181818;stroke-width:1.0;"/><path d="M1641.0521,597.8828 Q1640.474,598.1797 1639.8333,598.3281 Q1639.1927,598.4766 1638.4896,598.4766 Q1635.9896,598.4766 1634.6693,596.8281 Q1633.349,595.1797 1633.349,592.0547 Q1633.349,588.9297 1634.6693,587.2734 Q1635.9896,585.6172 1638.4896,585.6172 Q1639.1927,585.6172 1639.8411,585.7734 Q1640.4896,585.9297 1641.0521,586.2266 L1641.0521,588.9453 Q1640.4271,588.3672 1639.8333,588.0938 Q1639.2396,587.8203 1638.6146,587.8203 Q1637.2708,587.8203 1636.5833,588.8906 Q1635.8958,589.9609 1635.8958,592.0547 Q1635.8958,594.1484 1636.5833,595.2188 Q1637.2708,596.2891 1638.6146,596.2891 Q1639.2396,596.2891 1639.8333,596.0156 Q1640.4271,595.7422 1641.0521,595.1641 L1641.0521,597.8828 Z " fill="#000000"/><text fill="#000000" font-family="sans-serif" font-size="14" lengthAdjust="spacing" textLength="140" x="1658.5833" y="597.0889">text_template_body</text><line style="stroke:#181818;stroke-width:0.5;" x1="1478.8333" x2="1945.8333" y1="608.2422" y2="608.2422"/><ellipse cx="1488.8333" cy="621.8906" fill="none" rx="3" ry="3" style="stroke:#038048;stroke-width:1.0;"/><text fill="#000000" font-family="sans-serif" font-size="14" lengthAdjust="spacing" textLength="443" x="1497.8333" y="625.2373">tagged_values std::list&lt;identification::entities::tagged_value&gt;</text><ellipse cx="1488.8333" cy="638.1875" fill="none" rx="3" ry="3" style="stroke:#038048;stroke-width:1.0;"/><text fill="#000000" font-family="sans-serif" font-size="14" lengthAdjust="spacing" textLength="138" x="1497.8333" y="641.5342">lines std::list&lt;line&gt;</text><line style="stroke:#181818;stroke-width:0.5;" x1="1478.8333" x2="1945.8333" y1="648.8359" y2="648.8359"/></g><g id="elem_stitch::GMN34"><path d="M1945.5,531.1094 L1945.5,556.2422 L2177.5,556.2422 L2177.5,541.1094 L2167.5,531.1094 L1945.5,531.1094 " fill="#FEFFDD" style="stroke:#181818;stroke-width:0.5;"/><path d="M2167.5,531.1094 L2167.5,541.1094 L2177.5,541.1094 L2167.5,531.1094 " fill="#FEFFDD" style="stroke:#181818;stroke-width:1.0;"/><text fill="#000000" font-family="sans-serif" font-size="13" lengthAdjust="spacing" textLength="211" x="1951.5" y="548.1763">An error occurred whilst parsing.</text></g><!--MD5=[7725441a3625ab060a70eaee7364697b]
class stitch::line--><g id="elem_stitch::line"><rect codeLine="79" fill="#F7E5FF" height="64.2969" id="stitch::line" rx="2.5" ry="2.5" style="stroke:#181818;stroke-width:0.5;" width="188" x="1540.1667" y="689.1172"/><ellipse cx="1616.9167" cy="705.1172" fill="#ADD1B2" rx="11" ry="11" style="stroke:#181818;stroke-width:1.0;"/><path d="M1619.8854,710.7578 Q1619.3073,711.0547 1618.6667,711.2031 Q1618.026,711.3516 1617.3229,711.3516 Q1614.8229,711.3516 1613.5026,709.7031 Q1612.1823,708.0547 1612.1823,704.9297 Q1612.1823,701.8047 1613.5026,700.1484 Q1614.8229,698.4922 1617.3229,698.4922 Q1618.026,698.4922 1618.6745,698.6484 Q1619.3229,698.8047 1619.8854,699.1016 L1619.8854,701.8203 Q1619.2604,701.2422 1618.6667,700.9688 Q1618.0729,700.6953 1617.4479,700.6953 Q1616.1042,700.6953 1615.4167,701.7656 Q1614.7292,702.8359 1614.7292,704.9297 Q1614.7292,707.0234 1615.4167,708.0938 Q1616.1042,709.1641 1617.4479,709.1641 Q1618.0729,709.1641 1618.6667,708.8906 Q1619.2604,708.6172 1619.8854,708.0391 L1619.8854,710.7578 Z " fill="#000000"/><text fill="#000000" font-family="sans-serif" font-size="14" lengthAdjust="spacing" textLength="26" x="1637.4167" y="709.9639">line</text><line style="stroke:#181818;stroke-width:0.5;" x1="1541.1667" x2="1727.1667" y1="721.1172" y2="721.1172"/><ellipse cx="1551.1667" cy="734.7656" fill="none" rx="3" ry="3" style="stroke:#038048;stroke-width:1.0;"/><text fill="#000000" font-family="sans-serif" font-size="14" lengthAdjust="spacing" textLength="162" x="1560.1667" y="738.1123">blocks std::list&lt;block&gt;</text><line style="stroke:#181818;stroke-width:0.5;" x1="1541.1667" x2="1727.1667" y1="745.4141" y2="745.4141"/></g><!--MD5=[c6ff7fec6a8ef07f239f69df56783780]
class stitch::block--><g id="elem_stitch::block"><rect codeLine="85" fill="#F7E5FF" height="80.5938" id="stitch::block" rx="2.5" ry="2.5" style="stroke:#181818;stroke-width:0.5;" width="155" x="1556.6667" y="810.1406"/><ellipse cx="1610.9167" cy="826.1406" fill="#ADD1B2" rx="11" ry="11" style="stroke:#181818;stroke-width:1.0;"/><path d="M1613.8854,831.7813 Q1613.3073,832.0781 1612.6667,832.2266 Q1612.026,832.375 1611.3229,832.375 Q1608.8229,832.375 1607.5026,830.7266 Q1606.1823,829.0781 1606.1823,825.9531 Q1606.1823,822.8281 1607.5026,821.1719 Q1608.8229,819.5156 1611.3229,819.5156 Q1612.026,819.5156 1612.6745,819.6719 Q1613.3229,819.8281 1613.8854,820.125 L1613.8854,822.8438 Q1613.2604,822.2656 1612.6667,821.9922 Q1612.0729,821.7188 1611.4479,821.7188 Q1610.1042,821.7188 1609.4167,822.7891 Q1608.7292,823.8594 1608.7292,825.9531 Q1608.7292,828.0469 1609.4167,829.1172 Q1610.1042,830.1875 1611.4479,830.1875 Q1612.0729,830.1875 1612.6667,829.9141 Q1613.2604,829.6406 1613.8854,829.0625 L1613.8854,831.7813 Z " fill="#000000"/><text fill="#000000" font-family="sans-serif" font-size="14" lengthAdjust="spacing" textLength="38" x="1631.4167" y="830.9873">block</text><line style="stroke:#181818;stroke-width:0.5;" x1="1557.6667" x2="1710.6667" y1="842.1406" y2="842.1406"/><ellipse cx="1567.6667" cy="855.7891" fill="none" rx="3" ry="3" style="stroke:#038048;stroke-width:1.0;"/><text fill="#000000" font-family="sans-serif" font-size="14" lengthAdjust="spacing" textLength="118" x="1576.6667" y="859.1357">type block_types</text><ellipse cx="1567.6667" cy="872.0859" fill="none" rx="3" ry="3" style="stroke:#038048;stroke-width:1.0;"/><text fill="#000000" font-family="sans-serif" font-size="14" lengthAdjust="spacing" textLength="129" x="1576.6667" y="875.4326">content std::string</text><line style="stroke:#181818;stroke-width:0.5;" x1="1557.6667" x2="1710.6667" y1="882.7344" y2="882.7344"/></g><!--MD5=[262a6735abe294585b874b18f44f21e0]
class stitch::block_types--><g id="elem_stitch::block_types"><rect codeLine="92" fill="#F2DAFD" height="121.4531" id="stitch::block_types" rx="2.5" ry="2.5" style="stroke:#181818;stroke-width:0.5;" width="191" x="1538.6667" y="935.1797"/><ellipse cx="1567.6167" cy="955.3125" fill="#EB937F" rx="11" ry="11" style="stroke:#181818;stroke-width:1.0;"/><path d="M1571.726,961.3125 L1564.0073,961.3125 L1564.0073,948.9219 L1571.726,948.9219 L1571.726,951.0781 L1566.4604,951.0781 L1566.4604,953.75 L1571.226,953.75 L1571.226,955.9063 L1566.4604,955.9063 L1566.4604,959.1563 L1571.726,959.1563 L1571.726,961.3125 Z " fill="#000000"/><text fill="#000000" font-family="sans-serif" font-size="12" font-style="italic" lengthAdjust="spacing" textLength="132" x="1582.7167" y="951.3184">«masd::enumeration»</text><text fill="#000000" font-family="sans-serif" font-size="14" lengthAdjust="spacing" textLength="83" x="1607.2167" y="967.1436">block_types</text><line style="stroke:#181818;stroke-width:0.5;" x1="1539.6667" x2="1728.6667" y1="975.4453" y2="975.4453"/><ellipse cx="1549.6667" cy="989.0938" fill="none" rx="3" ry="3" style="stroke:#038048;stroke-width:1.0;"/><text fill="#000000" font-family="sans-serif" font-size="14" lengthAdjust="spacing" textLength="72" x="1558.6667" y="992.4404">text_block</text><ellipse cx="1549.6667" cy="1005.3906" fill="none" rx="3" ry="3" style="stroke:#038048;stroke-width:1.0;"/><text fill="#000000" font-family="sans-serif" font-size="14" lengthAdjust="spacing" textLength="165" x="1558.6667" y="1008.7373">standard_control_block</text><ellipse cx="1549.6667" cy="1021.6875" fill="none" rx="3" ry="3" style="stroke:#038048;stroke-width:1.0;"/><text fill="#000000" font-family="sans-serif" font-size="14" lengthAdjust="spacing" textLength="122" x="1558.6667" y="1025.0342">expression_block</text><ellipse cx="1549.6667" cy="1037.9844" fill="none" rx="3" ry="3" style="stroke:#038048;stroke-width:1.0;"/><text fill="#000000" font-family="sans-serif" font-size="14" lengthAdjust="spacing" textLength="103" x="1558.6667" y="1041.3311">variable_block</text><line style="stroke:#181818;stroke-width:0.5;" x1="1539.6667" x2="1728.6667" y1="1048.6328" y2="1048.6328"/></g><!--MD5=[e85cc89b36fb1eea871b5505e20b412d]
class stitch::properties--><g id="elem_stitch::properties"><rect codeLine="110" fill="#F7E5FF" height="129.4844" id="stitch::properties" rx="2.5" ry="2.5" style="stroke:#181818;stroke-width:0.5;" width="421" x="2071.8333" y="785.6953"/><ellipse cx="2241.5833" cy="801.6953" fill="#ADD1B2" rx="11" ry="11" style="stroke:#181818;stroke-width:1.0;"/><path d="M2244.5521,807.3359 Q2243.974,807.6328 2243.3333,807.7813 Q2242.6927,807.9297 2241.9896,807.9297 Q2239.4896,807.9297 2238.1693,806.2813 Q2236.849,804.6328 2236.849,801.5078 Q2236.849,798.3828 2238.1693,796.7266 Q2239.4896,795.0703 2241.9896,795.0703 Q2242.6927,795.0703 2243.3411,795.2266 Q2243.9896,795.3828 2244.5521,795.6797 L2244.5521,798.3984 Q2243.9271,797.8203 2243.3333,797.5469 Q2242.7396,797.2734 2242.1146,797.2734 Q2240.7708,797.2734 2240.0833,798.3438 Q2239.3958,799.4141 2239.3958,801.5078 Q2239.3958,803.6016 2240.0833,804.6719 Q2240.7708,805.7422 2242.1146,805.7422 Q2242.7396,805.7422 2243.3333,805.4688 Q2243.9271,805.1953 2244.5521,804.6172 L2244.5521,807.3359 Z " fill="#000000"/><text fill="#000000" font-family="sans-serif" font-size="14" lengthAdjust="spacing" textLength="73" x="2262.0833" y="806.542">properties</text><line style="stroke:#181818;stroke-width:0.5;" x1="2072.8333" x2="2491.8333" y1="817.6953" y2="817.6953"/><ellipse cx="2082.8333" cy="831.3438" fill="none" rx="3" ry="3" style="stroke:#038048;stroke-width:1.0;"/><text fill="#000000" font-family="sans-serif" font-size="14" lengthAdjust="spacing" textLength="238" x="2091.8333" y="834.6904">stream_variable_name std::string</text><ellipse cx="2082.8333" cy="847.6406" fill="none" rx="3" ry="3" style="stroke:#038048;stroke-width:1.0;"/><text fill="#000000" font-family="sans-serif" font-size="14" lengthAdjust="spacing" textLength="320" x="2091.8333" y="850.9873">inclusion_dependencies std::list&lt;std::string&gt;</text><ellipse cx="2082.8333" cy="863.9375" fill="none" rx="3" ry="3" style="stroke:#038048;stroke-width:1.0;"/><text fill="#000000" font-family="sans-serif" font-size="14" lengthAdjust="spacing" textLength="322" x="2091.8333" y="867.2842">containing_namespaces std::list&lt;std::string&gt;</text><ellipse cx="2082.8333" cy="880.2344" fill="none" rx="3" ry="3" style="stroke:#038048;stroke-width:1.0;"/><text fill="#000000" font-family="sans-serif" font-size="14" lengthAdjust="spacing" textLength="179" x="2091.8333" y="883.5811">wale_template std::string</text><ellipse cx="2082.8333" cy="896.5313" fill="none" rx="3" ry="3" style="stroke:#038048;stroke-width:1.0;"/><text fill="#000000" font-family="sans-serif" font-size="14" lengthAdjust="spacing" textLength="395" x="2091.8333" y="899.8779">wale_kvps std::unordered_map&lt;std::string, std::string&gt;</text><line style="stroke:#181818;stroke-width:0.5;" x1="2072.8333" x2="2491.8333" y1="907.1797" y2="907.1797"/></g><g id="elem_stitch::GMN46"><path d="M2128.8333,631.7031 L2128.8333,656.8359 L2435.8333,656.8359 L2435.8333,641.7031 L2425.8333,631.7031 L2128.8333,631.7031 " fill="#FEFFDD" style="stroke:#181818;stroke-width:0.5;"/><path d="M2425.8333,631.7031 L2425.8333,641.7031 L2435.8333,641.7031 L2425.8333,631.7031 " fill="#FEFFDD" style="stroke:#181818;stroke-width:1.0;"/><text fill="#000000" font-family="sans-serif" font-size="13" lengthAdjust="spacing" textLength="286" x="2134.8333" y="648.77">Domain representation of a stitch template.</text></g><!--MD5=[5c8f90d4154d3025d485e226ceaf4328]
class stitch::features--><g id="elem_stitch::features"><rect codeLine="118" fill="#BAD7D7" height="154.0469" id="stitch::features" rx="2.5" ry="2.5" style="stroke:#181818;stroke-width:0.5;" width="420" x="1392.5" y="128.2656"/><ellipse cx="1494.25" cy="148.3984" fill="#ADD1B2" rx="11" ry="11" style="stroke:#181818;stroke-width:1.0;"/><path d="M1497.2188,154.0391 Q1496.6406,154.3359 1496,154.4844 Q1495.3594,154.6328 1494.6563,154.6328 Q1492.1563,154.6328 1490.8359,152.9844 Q1489.5156,151.3359 1489.5156,148.2109 Q1489.5156,145.0859 1490.8359,143.4297 Q1492.1563,141.7734 1494.6563,141.7734 Q1495.3594,141.7734 1496.0078,141.9297 Q1496.6563,142.0859 1497.2188,142.3828 L1497.2188,145.1016 Q1496.5938,144.5234 1496,144.25 Q1495.4063,143.9766 1494.7813,143.9766 Q1493.4375,143.9766 1492.75,145.0469 Q1492.0625,146.1172 1492.0625,148.2109 Q1492.0625,150.3047 1492.75,151.375 Q1493.4375,152.4453 1494.7813,152.4453 Q1495.4063,152.4453 1496,152.1719 Q1496.5938,151.8984 1497.2188,151.3203 L1497.2188,154.0391 Z " fill="#000000"/><text fill="#000000" font-family="sans-serif" font-size="12" font-style="italic" lengthAdjust="spacing" textLength="212" x="1512.75" y="144.4043">«masd::variability::feature_bundle»</text><text fill="#000000" font-family="sans-serif" font-size="14" lengthAdjust="spacing" textLength="59" x="1589.25" y="160.2295">features</text><line style="stroke:#181818;stroke-width:0.5;" x1="1393.5" x2="1811.5" y1="168.5313" y2="168.5313"/><ellipse cx="1403.5" cy="182.1797" fill="none" rx="3" ry="3" style="stroke:#038048;stroke-width:1.0;"/><text fill="#000000" font-family="sans-serif" font-size="14" lengthAdjust="spacing" textLength="323" x="1412.5" y="185.5264">stream_variable_name masd::variability::text</text><ellipse cx="1403.5" cy="198.4766" fill="none" rx="3" ry="3" style="stroke:#038048;stroke-width:1.0;"/><text fill="#000000" font-family="sans-serif" font-size="14" lengthAdjust="spacing" textLength="338" x="1412.5" y="201.8232">relative_output_directory masd::variability::text</text><ellipse cx="1403.5" cy="214.7734" fill="none" rx="3" ry="3" style="stroke:#038048;stroke-width:1.0;"/><text fill="#000000" font-family="sans-serif" font-size="14" lengthAdjust="spacing" textLength="394" x="1412.5" y="218.1201">inclusion_dependency masd::variability::text_collection</text><ellipse cx="1403.5" cy="231.0703" fill="none" rx="3" ry="3" style="stroke:#038048;stroke-width:1.0;"/><text fill="#000000" font-family="sans-serif" font-size="14" lengthAdjust="spacing" textLength="332" x="1412.5" y="234.417">containing_namespaces masd::variability::text</text><ellipse cx="1403.5" cy="247.3672" fill="none" rx="3" ry="3" style="stroke:#038048;stroke-width:1.0;"/><text fill="#000000" font-family="sans-serif" font-size="14" lengthAdjust="spacing" textLength="295" x="1412.5" y="250.7139">wale.text_template masd::variability::text</text><ellipse cx="1403.5" cy="263.6641" fill="none" rx="3" ry="3" style="stroke:#038048;stroke-width:1.0;"/><text fill="#000000" font-family="sans-serif" font-size="14" lengthAdjust="spacing" textLength="301" x="1412.5" y="267.0107">wale.kvp masd::variability::key_value_pair</text><line style="stroke:#181818;stroke-width:0.5;" x1="1393.5" x2="1811.5" y1="274.3125" y2="274.3125"/></g><g id="elem_stitch::GMN50"><path d="M1505,83.1328 L1505,108.2656 L1700,108.2656 L1700,93.1328 L1690,83.1328 L1505,83.1328 " fill="#FEFFDD" style="stroke:#181818;stroke-width:0.5;"/><path d="M1690,83.1328 L1690,93.1328 L1700,93.1328 L1690,83.1328 " fill="#FEFFDD" style="stroke:#181818;stroke-width:1.0;"/><text fill="#000000" font-family="sans-serif" font-size="13" lengthAdjust="spacing" textLength="174" x="1511" y="100.1997">Stitch templating features.</text></g><!--MD5=[108cd4b706a0f8913daab7874db92a98]
class wale::instantiator--><g id="elem_wale::instantiator"><rect codeLine="134" fill="#FFFACD" height="56.2656" id="wale::instantiator" rx="2.5" ry="2.5" style="stroke:#181818;stroke-width:0.5;" width="222" x="524" y="502.4688"/><ellipse cx="539" cy="522.6016" fill="#ADD1B2" rx="11" ry="11" style="stroke:#181818;stroke-width:1.0;"/><path d="M541.9688,528.2422 Q541.3906,528.5391 540.75,528.6875 Q540.1094,528.8359 539.4063,528.8359 Q536.9063,528.8359 535.5859,527.1875 Q534.2656,525.5391 534.2656,522.4141 Q534.2656,519.2891 535.5859,517.6328 Q536.9063,515.9766 539.4063,515.9766 Q540.1094,515.9766 540.7578,516.1328 Q541.4063,516.2891 541.9688,516.5859 L541.9688,519.3047 Q541.3438,518.7266 540.75,518.4531 Q540.1563,518.1797 539.5313,518.1797 Q538.1875,518.1797 537.5,519.25 Q536.8125,520.3203 536.8125,522.4141 Q536.8125,524.5078 537.5,525.5781 Q538.1875,526.6484 539.5313,526.6484 Q540.1563,526.6484 540.75,526.375 Q541.3438,526.1016 541.9688,525.5234 L541.9688,528.2422 Z " fill="#000000"/><text fill="#000000" font-family="sans-serif" font-size="12" font-style="italic" lengthAdjust="spacing" textLength="194" x="551" y="518.6074">«dogen::handcrafted::typeable»</text><text fill="#000000" font-family="sans-serif" font-size="14" lengthAdjust="spacing" textLength="81" x="607.5" y="534.4326">instantiator</text><line style="stroke:#181818;stroke-width:0.5;" x1="525" x2="745" y1="542.7344" y2="542.7344"/><line style="stroke:#181818;stroke-width:0.5;" x1="525" x2="745" y1="550.7344" y2="550.7344"/></g><!--MD5=[e37ccb2ead059b85791f77a4d734e437]
class wale::key_extractor--><g id="elem_wale::key_extractor"><rect codeLine="140" fill="#FFFACD" height="56.2656" id="wale::key_extractor" rx="2.5" ry="2.5" style="stroke:#181818;stroke-width:0.5;" width="222" x="98" y="578.7344"/><ellipse cx="113" cy="598.8672" fill="#ADD1B2" rx="11" ry="11" style="stroke:#181818;stroke-width:1.0;"/><path d="M115.9688,604.5078 Q115.3906,604.8047 114.75,604.9531 Q114.1094,605.1016 113.4063,605.1016 Q110.9063,605.1016 109.5859,603.4531 Q108.2656,601.8047 108.2656,598.6797 Q108.2656,595.5547 109.5859,593.8984 Q110.9063,592.2422 113.4063,592.2422 Q114.1094,592.2422 114.7578,592.3984 Q115.4063,592.5547 115.9688,592.8516 L115.9688,595.5703 Q115.3438,594.9922 114.75,594.7188 Q114.1563,594.4453 113.5313,594.4453 Q112.1875,594.4453 111.5,595.5156 Q110.8125,596.5859 110.8125,598.6797 Q110.8125,600.7734 111.5,601.8438 Q112.1875,602.9141 113.5313,602.9141 Q114.1563,602.9141 114.75,602.6406 Q115.3438,602.3672 115.9688,601.7891 L115.9688,604.5078 Z " fill="#000000"/><text fill="#000000" font-family="sans-serif" font-size="12" font-style="italic" lengthAdjust="spacing" textLength="194" x="125" y="594.873">«dogen::handcrafted::typeable»</text><text fill="#000000" font-family="sans-serif" font-size="14" lengthAdjust="spacing" textLength="97" x="173.5" y="610.6982">key_extractor</text><line style="stroke:#181818;stroke-width:0.5;" x1="99" x2="319" y1="619" y2="619"/><line style="stroke:#181818;stroke-width:0.5;" x1="99" x2="319" y1="627" y2="627"/></g><!--MD5=[207619df346383346b32bf95c4517db8]
class wale::formatter--><g id="elem_wale::formatter"><rect codeLine="152" fill="#FFFACD" height="56.2656" id="wale::formatter" rx="2.5" ry="2.5" style="stroke:#181818;stroke-width:0.5;" width="222" x="598" y="578.7344"/><ellipse cx="613" cy="598.8672" fill="#ADD1B2" rx="11" ry="11" style="stroke:#181818;stroke-width:1.0;"/><path d="M615.9688,604.5078 Q615.3906,604.8047 614.75,604.9531 Q614.1094,605.1016 613.4063,605.1016 Q610.9063,605.1016 609.5859,603.4531 Q608.2656,601.8047 608.2656,598.6797 Q608.2656,595.5547 609.5859,593.8984 Q610.9063,592.2422 613.4063,592.2422 Q614.1094,592.2422 614.7578,592.3984 Q615.4063,592.5547 615.9688,592.8516 L615.9688,595.5703 Q615.3438,594.9922 614.75,594.7188 Q614.1563,594.4453 613.5313,594.4453 Q612.1875,594.4453 611.5,595.5156 Q610.8125,596.5859 610.8125,598.6797 Q610.8125,600.7734 611.5,601.8438 Q612.1875,602.9141 613.5313,602.9141 Q614.1563,602.9141 614.75,602.6406 Q615.3438,602.3672 615.9688,601.7891 L615.9688,604.5078 Z " fill="#000000"/><text fill="#000000" font-family="sans-serif" font-size="12" font-style="italic" lengthAdjust="spacing" textLength="194" x="625" y="594.873">«dogen::handcrafted::typeable»</text><text fill="#000000" font-family="sans-serif" font-size="14" lengthAdjust="spacing" textLength="68" x="688" y="610.6982">formatter</text><line style="stroke:#181818;stroke-width:0.5;" x1="599" x2="819" y1="619" y2="619"/><line style="stroke:#181818;stroke-width:0.5;" x1="599" x2="819" y1="627" y2="627"/></g><!--MD5=[195b3b9f47481677fde60c1a3d9c5c6a]
class wale::extraction_error--><g id="elem_wale::extraction_error"><rect codeLine="145" fill="#E8C2F8" height="56.2656" id="wale::extraction_error" rx="2.5" ry="2.5" style="stroke:#181818;stroke-width:0.5;" width="147" x="98.5" y="426.2031"/><ellipse cx="113.5" cy="446.3359" fill="#ADD1B2" rx="11" ry="11" style="stroke:#181818;stroke-width:1.0;"/><path d="M116.4688,451.9766 Q115.8906,452.2734 115.25,452.4219 Q114.6094,452.5703 113.9063,452.5703 Q111.4063,452.5703 110.0859,450.9219 Q108.7656,449.2734 108.7656,446.1484 Q108.7656,443.0234 110.0859,441.3672 Q111.4063,439.7109 113.9063,439.7109 Q114.6094,439.7109 115.2578,439.8672 Q115.9063,440.0234 116.4688,440.3203 L116.4688,443.0391 Q115.8438,442.4609 115.25,442.1875 Q114.6563,441.9141 114.0313,441.9141 Q112.6875,441.9141 112,442.9844 Q111.3125,444.0547 111.3125,446.1484 Q111.3125,448.2422 112,449.3125 Q112.6875,450.3828 114.0313,450.3828 Q114.6563,450.3828 115.25,450.1094 Q115.8438,449.8359 116.4688,449.2578 L116.4688,451.9766 Z " fill="#000000"/><text fill="#000000" font-family="sans-serif" font-size="12" font-style="italic" lengthAdjust="spacing" textLength="114" x="128" y="442.3418">«masd::exception»</text><text fill="#000000" font-family="sans-serif" font-size="14" lengthAdjust="spacing" textLength="115" x="127.5" y="458.167">extraction_error</text><line style="stroke:#181818;stroke-width:0.5;" x1="99.5" x2="244.5" y1="466.4688" y2="466.4688"/><line style="stroke:#181818;stroke-width:0.5;" x1="99.5" x2="244.5" y1="474.4688" y2="474.4688"/></g><g id="elem_wale::GMN62"><path d="M27,381.0703 L27,406.2031 L317,406.2031 L317,391.0703 L307,381.0703 L27,381.0703 " fill="#FEFFDD" style="stroke:#181818;stroke-width:0.5;"/><path d="M307,381.0703 L307,391.0703 L317,391.0703 L307,381.0703 " fill="#FEFFDD" style="stroke:#181818;stroke-width:1.0;"/><text fill="#000000" font-family="sans-serif" font-size="13" lengthAdjust="spacing" textLength="269" x="33" y="398.1372">An error occurred whilst extracting a key.</text></g><!--MD5=[5e4362892a93de52020ddc8b36b0c66b]
class wale::formatting_error--><g id="elem_wale::formatting_error"><rect codeLine="158" fill="#E8C2F8" height="56.2656" id="wale::formatting_error" rx="2.5" ry="2.5" style="stroke:#181818;stroke-width:0.5;" width="150" x="691" y="426.2031"/><ellipse cx="706" cy="446.3359" fill="#ADD1B2" rx="11" ry="11" style="stroke:#181818;stroke-width:1.0;"/><path d="M708.9688,451.9766 Q708.3906,452.2734 707.75,452.4219 Q707.1094,452.5703 706.4063,452.5703 Q703.9063,452.5703 702.5859,450.9219 Q701.2656,449.2734 701.2656,446.1484 Q701.2656,443.0234 702.5859,441.3672 Q703.9063,439.7109 706.4063,439.7109 Q707.1094,439.7109 707.7578,439.8672 Q708.4063,440.0234 708.9688,440.3203 L708.9688,443.0391 Q708.3438,442.4609 707.75,442.1875 Q707.1563,441.9141 706.5313,441.9141 Q705.1875,441.9141 704.5,442.9844 Q703.8125,444.0547 703.8125,446.1484 Q703.8125,448.2422 704.5,449.3125 Q705.1875,450.3828 706.5313,450.3828 Q707.1563,450.3828 707.75,450.1094 Q708.3438,449.8359 708.9688,449.2578 L708.9688,451.9766 Z " fill="#000000"/><text fill="#000000" font-family="sans-serif" font-size="12" font-style="italic" lengthAdjust="spacing" textLength="114" x="722" y="442.3418">«masd::exception»</text><text fill="#000000" font-family="sans-serif" font-size="14" lengthAdjust="spacing" textLength="118" x="720" y="458.167">formatting_error</text><line style="stroke:#181818;stroke-width:0.5;" x1="692" x2="840" y1="466.4688" y2="466.4688"/><line style="stroke:#181818;stroke-width:0.5;" x1="692" x2="840" y1="474.4688" y2="474.4688"/></g><!--MD5=[428832655a5011fec41c0679cb979de0]
class wale::text_template--><g id="elem_wale::text_template"><rect codeLine="165" fill="#F7E5FF" height="72.5625" id="wale::text_template" rx="2.5" ry="2.5" style="stroke:#181818;stroke-width:0.5;" width="165" x="404" y="655"/><ellipse cx="419" cy="675.1328" fill="#ADD1B2" rx="11" ry="11" style="stroke:#181818;stroke-width:1.0;"/><path d="M421.9688,680.7734 Q421.3906,681.0703 420.75,681.2188 Q420.1094,681.3672 419.4063,681.3672 Q416.9063,681.3672 415.5859,679.7188 Q414.2656,678.0703 414.2656,674.9453 Q414.2656,671.8203 415.5859,670.1641 Q416.9063,668.5078 419.4063,668.5078 Q420.1094,668.5078 420.7578,668.6641 Q421.4063,668.8203 421.9688,669.1172 L421.9688,671.8359 Q421.3438,671.2578 420.75,670.9844 Q420.1563,670.7109 419.5313,670.7109 Q418.1875,670.7109 417.5,671.7813 Q416.8125,672.8516 416.8125,674.9453 Q416.8125,677.0391 417.5,678.1094 Q418.1875,679.1797 419.5313,679.1797 Q420.1563,679.1797 420.75,678.9063 Q421.3438,678.6328 421.9688,678.0547 L421.9688,680.7734 Z " fill="#000000"/><text fill="#000000" font-family="sans-serif" font-size="12" font-style="italic" lengthAdjust="spacing" textLength="137" x="431" y="671.1387">«ConfigurableViaKvps»</text><text fill="#000000" font-family="sans-serif" font-size="14" lengthAdjust="spacing" textLength="98" x="450.5" y="686.9639">text_template</text><line style="stroke:#181818;stroke-width:0.5;" x1="405" x2="568" y1="695.2656" y2="695.2656"/><ellipse cx="415" cy="708.9141" fill="none" rx="3" ry="3" style="stroke:#038048;stroke-width:1.0;"/><text fill="#000000" font-family="sans-serif" font-size="14" lengthAdjust="spacing" textLength="129" x="424" y="712.2607">content std::string</text><line style="stroke:#181818;stroke-width:0.5;" x1="405" x2="568" y1="719.5625" y2="719.5625"/></g><g id="elem_wale::GMN70"><path d="M639.5,381.0703 L639.5,406.2031 L892.5,406.2031 L892.5,391.0703 L882.5,381.0703 L639.5,381.0703 " fill="#FEFFDD" style="stroke:#181818;stroke-width:0.5;"/><path d="M882.5,381.0703 L882.5,391.0703 L892.5,391.0703 L882.5,381.0703 " fill="#FEFFDD" style="stroke:#181818;stroke-width:1.0;"/><text fill="#000000" font-family="sans-serif" font-size="13" lengthAdjust="spacing" textLength="232" x="645.5" y="398.1372">An error occurred whilst formatting.</text></g><g id="elem_wale::GMN73"><path d="M340,609.8672 L340,635 L578,635 L578,619.8672 L568,609.8672 L340,609.8672 " fill="#FEFFDD" style="stroke:#181818;stroke-width:0.5;"/><path d="M568,609.8672 L568,619.8672 L578,619.8672 L568,609.8672 " fill="#FEFFDD" style="stroke:#181818;stroke-width:1.0;"/><text fill="#000000" font-family="sans-serif" font-size="13" lengthAdjust="spacing" textLength="217" x="346" y="626.9341">Represents a wale text template.</text></g><!--MD5=[866e4cc6642a3eaee8059e023a522058]
class helpers::kvp_validator--><g id="elem_helpers::kvp_validator"><rect codeLine="176" fill="#FFFACD" height="56.2656" id="helpers::kvp_validator" rx="2.5" ry="2.5" style="stroke:#181818;stroke-width:0.5;" width="222" x="2904.3333" y="465.4844"/><ellipse cx="2919.3333" cy="485.6172" fill="#ADD1B2" rx="11" ry="11" style="stroke:#181818;stroke-width:1.0;"/><path d="M2922.3021,491.2578 Q2921.724,491.5547 2921.0833,491.7031 Q2920.4427,491.8516 2919.7396,491.8516 Q2917.2396,491.8516 2915.9193,490.2031 Q2914.599,488.5547 2914.599,485.4297 Q2914.599,482.3047 2915.9193,480.6484 Q2917.2396,478.9922 2919.7396,478.9922 Q2920.4427,478.9922 2921.0911,479.1484 Q2921.7396,479.3047 2922.3021,479.6016 L2922.3021,482.3203 Q2921.6771,481.7422 2921.0833,481.4688 Q2920.4896,481.1953 2919.8646,481.1953 Q2918.5208,481.1953 2917.8333,482.2656 Q2917.1458,483.3359 2917.1458,485.4297 Q2917.1458,487.5234 2917.8333,488.5938 Q2918.5208,489.6641 2919.8646,489.6641 Q2920.4896,489.6641 2921.0833,489.3906 Q2921.6771,489.1172 2922.3021,488.5391 L2922.3021,491.2578 Z " fill="#000000"/><text fill="#000000" font-family="sans-serif" font-size="12" font-style="italic" lengthAdjust="spacing" textLength="194" x="2931.3333" y="481.623">«dogen::handcrafted::typeable»</text><text fill="#000000" font-family="sans-serif" font-size="14" lengthAdjust="spacing" textLength="95" x="2980.8333" y="497.4482">kvp_validator</text><line style="stroke:#181818;stroke-width:0.5;" x1="2905.3333" x2="3125.3333" y1="505.75" y2="505.75"/><line style="stroke:#181818;stroke-width:0.5;" x1="2905.3333" x2="3125.3333" y1="513.75" y2="513.75"/></g><!--MD5=[9049f6461a89c250560f1393b153587a]
class helpers::validation_error--><g id="elem_helpers::validation_error"><rect codeLine="181" fill="#E8C2F8" height="56.2656" id="helpers::validation_error" rx="2.5" ry="2.5" style="stroke:#181818;stroke-width:0.5;" width="145" x="2756" y="586.8828"/><ellipse cx="2771" cy="607.0156" fill="#ADD1B2" rx="11" ry="11" style="stroke:#181818;stroke-width:1.0;"/><path d="M2773.9687,612.6563 Q2773.3906,612.9531 2772.75,613.1016 Q2772.1094,613.25 2771.4062,613.25 Q2768.9062,613.25 2767.5859,611.6016 Q2766.2656,609.9531 2766.2656,606.8281 Q2766.2656,603.7031 2767.5859,602.0469 Q2768.9062,600.3906 2771.4062,600.3906 Q2772.1094,600.3906 2772.7578,600.5469 Q2773.4062,600.7031 2773.9687,601 L2773.9687,603.7188 Q2773.3437,603.1406 2772.75,602.8672 Q2772.1562,602.5938 2771.5312,602.5938 Q2770.1875,602.5938 2769.5,603.6641 Q2768.8125,604.7344 2768.8125,606.8281 Q2768.8125,608.9219 2769.5,609.9922 Q2770.1875,611.0625 2771.5312,611.0625 Q2772.1562,611.0625 2772.75,610.7891 Q2773.3437,610.5156 2773.9687,609.9375 L2773.9687,612.6563 Z " fill="#000000"/><text fill="#000000" font-family="sans-serif" font-size="12" font-style="italic" lengthAdjust="spacing" textLength="114" x="2784.5" y="603.0215">«masd::exception»</text><text fill="#000000" font-family="sans-serif" font-size="14" lengthAdjust="spacing" textLength="113" x="2785" y="618.8467">validation_error</text><line style="stroke:#181818;stroke-width:0.5;" x1="2757" x2="2900" y1="627.1484" y2="627.1484"/><line style="stroke:#181818;stroke-width:0.5;" x1="2757" x2="2900" y1="635.1484" y2="635.1484"/></g><g id="elem_helpers::GMN80"><path d="M2659.3333,541.75 L2659.3333,566.8828 L2949.3333,566.8828 L2949.3333,551.75 L2939.3333,541.75 L2659.3333,541.75 " fill="#FEFFDD" style="stroke:#181818;stroke-width:0.5;"/><path d="M2939.3333,541.75 L2939.3333,551.75 L2949.3333,551.75 L2939.3333,541.75 " fill="#FEFFDD" style="stroke:#181818;stroke-width:1.0;"/><text fill="#000000" font-family="sans-serif" font-size="13" lengthAdjust="spacing" textLength="269" x="2665.3333" y="558.8169">An error occurred with the supplied KVPs.</text></g><!--MD5=[4ad5fc8d962914e3f473ff3ca3ecd07e]
class helpers::kvp_resolver--><g id="elem_helpers::kvp_resolver"><rect codeLine="188" fill="#FFFACD" height="56.2656" id="helpers::kvp_resolver" rx="2.5" ry="2.5" style="stroke:#181818;stroke-width:0.5;" width="222" x="3272.3333" y="465.4844"/><ellipse cx="3287.3333" cy="485.6172" fill="#ADD1B2" rx="11" ry="11" style="stroke:#181818;stroke-width:1.0;"/><path d="M3290.3021,491.2578 Q3289.724,491.5547 3289.0833,491.7031 Q3288.4427,491.8516 3287.7396,491.8516 Q3285.2396,491.8516 3283.9193,490.2031 Q3282.599,488.5547 3282.599,485.4297 Q3282.599,482.3047 3283.9193,480.6484 Q3285.2396,478.9922 3287.7396,478.9922 Q3288.4427,478.9922 3289.0911,479.1484 Q3289.7396,479.3047 3290.3021,479.6016 L3290.3021,482.3203 Q3289.6771,481.7422 3289.0833,481.4688 Q3288.4896,481.1953 3287.8646,481.1953 Q3286.5208,481.1953 3285.8333,482.2656 Q3285.1458,483.3359 3285.1458,485.4297 Q3285.1458,487.5234 3285.8333,488.5938 Q3286.5208,489.6641 3287.8646,489.6641 Q3288.4896,489.6641 3289.0833,489.3906 Q3289.6771,489.1172 3290.3021,488.5391 L3290.3021,491.2578 Z " fill="#000000"/><text fill="#000000" font-family="sans-serif" font-size="12" font-style="italic" lengthAdjust="spacing" textLength="194" x="3299.3333" y="481.623">«dogen::handcrafted::typeable»</text><text fill="#000000" font-family="sans-serif" font-size="14" lengthAdjust="spacing" textLength="90" x="3351.3333" y="497.4482">kvp_resolver</text><line style="stroke:#181818;stroke-width:0.5;" x1="3273.3333" x2="3493.3333" y1="505.75" y2="505.75"/><line style="stroke:#181818;stroke-width:0.5;" x1="3273.3333" x2="3493.3333" y1="513.75" y2="513.75"/></g><!--MD5=[a5c36db5d1c2567d16f3982452055fdc]
class helpers::resolution_error--><g id="elem_helpers::resolution_error"><rect codeLine="193" fill="#E8C2F8" height="56.2656" id="helpers::resolution_error" rx="2.5" ry="2.5" style="stroke:#181818;stroke-width:0.5;" width="146" x="3151.1667" y="586.8828"/><ellipse cx="3166.1667" cy="607.0156" fill="#ADD1B2" rx="11" ry="11" style="stroke:#181818;stroke-width:1.0;"/><path d="M3169.1354,612.6563 Q3168.5573,612.9531 3167.9167,613.1016 Q3167.276,613.25 3166.5729,613.25 Q3164.0729,613.25 3162.7526,611.6016 Q3161.4323,609.9531 3161.4323,606.8281 Q3161.4323,603.7031 3162.7526,602.0469 Q3164.0729,600.3906 3166.5729,600.3906 Q3167.276,600.3906 3167.9245,600.5469 Q3168.5729,600.7031 3169.1354,601 L3169.1354,603.7188 Q3168.5104,603.1406 3167.9167,602.8672 Q3167.3229,602.5938 3166.6979,602.5938 Q3165.3542,602.5938 3164.6667,603.6641 Q3163.9792,604.7344 3163.9792,606.8281 Q3163.9792,608.9219 3164.6667,609.9922 Q3165.3542,611.0625 3166.6979,611.0625 Q3167.3229,611.0625 3167.9167,610.7891 Q3168.5104,610.5156 3169.1354,609.9375 L3169.1354,612.6563 Z " fill="#000000"/><text fill="#000000" font-family="sans-serif" font-size="12" font-style="italic" lengthAdjust="spacing" textLength="114" x="3180.1667" y="603.0215">«masd::exception»</text><text fill="#000000" font-family="sans-serif" font-size="14" lengthAdjust="spacing" textLength="114" x="3180.1667" y="618.8467">resolution_error</text><line style="stroke:#181818;stroke-width:0.5;" x1="3152.1667" x2="3296.1667" y1="627.1484" y2="627.1484"/><line style="stroke:#181818;stroke-width:0.5;" x1="3152.1667" x2="3296.1667" y1="635.1484" y2="635.1484"/></g><g id="elem_helpers::GMN86"><path d="M3036.3333,541.75 L3036.3333,566.8828 L3363.3333,566.8828 L3363.3333,551.75 L3353.3333,541.75 L3036.3333,541.75 " fill="#FEFFDD" style="stroke:#181818;stroke-width:0.5;"/><path d="M3353.3333,541.75 L3353.3333,551.75 L3363.3333,551.75 L3353.3333,541.75 " fill="#FEFFDD" style="stroke:#181818;stroke-width:1.0;"/><text fill="#000000" font-family="sans-serif" font-size="13" lengthAdjust="spacing" textLength="306" x="3042.3333" y="558.8169">An error occurred when trying to resolve a key.</text></g><g id="elem_N1"><path d="M927.5,498.9844 L927.5,584.6484 L1357.5,584.6484 L1357.5,508.9844 L1347.5,498.9844 L927.5,498.9844 " fill="#FEFFDD" style="stroke:#181818;stroke-width:0.5;"/><path d="M1347.5,498.9844 L1347.5,508.9844 L1357.5,508.9844 L1347.5,498.9844 " fill="#FEFFDD" style="stroke:#181818;stroke-width:1.0;"/><text fill="#000000" font-family="sans-serif" font-size="13" lengthAdjust="spacing" textLength="355" x="933.5" y="516.0513">Contains all the generic text templating infrastructure.</text><text fill="#000000" font-family="sans-serif" font-size="13" lengthAdjust="spacing" textLength="4" x="933.5" y="531.1841"> </text><text fill="#000000" font-family="sans-serif" font-size="13" lengthAdjust="spacing" textLength="131" x="933.5" y="546.3169">UML representation:</text><text fill="#000000" font-family="sans-serif" font-size="13" lengthAdjust="spacing" textLength="4" x="933.5" y="561.4497"> </text><text fill="#000000" font-family="sans-serif" font-size="13" lengthAdjust="spacing" textLength="409" x="933.5" y="576.5825">\image html dogen.templating/modeling/dogen.templating.svg</text></g><!--MD5=[de827ccd62899280f38c2ee8c0dd77f6]
class ConfigurableViaKvps--><g id="elem_ConfigurableViaKvps"><rect codeLine="10" fill="#E3B6F6" height="88.8594" id="ConfigurableViaKvps" rx="2.5" ry="2.5" style="stroke:#181818;stroke-width:0.5;" width="448" x="3564.3333" y="1091.6328"/><ellipse cx="3710.0833" cy="1111.7656" fill="#ADD1B2" rx="11" ry="11" style="stroke:#181818;stroke-width:1.0;"/><path d="M3713.0521,1117.4063 Q3712.474,1117.7031 3711.8333,1117.8516 Q3711.1927,1118 3710.4896,1118 Q3707.9896,1118 3706.6693,1116.3516 Q3705.349,1114.7031 3705.349,1111.5781 Q3705.349,1108.4531 3706.6693,1106.7969 Q3707.9896,1105.1406 3710.4896,1105.1406 Q3711.1927,1105.1406 3711.8411,1105.2969 Q3712.4896,1105.4531 3713.0521,1105.75 L3713.0521,1108.4688 Q3712.4271,1107.8906 3711.8333,1107.6172 Q3711.2396,1107.3438 3710.6146,1107.3438 Q3709.2708,1107.3438 3708.5833,1108.4141 Q3707.8958,1109.4844 3707.8958,1111.5781 Q3707.8958,1113.6719 3708.5833,1114.7422 Q3709.2708,1115.8125 3710.6146,1115.8125 Q3711.2396,1115.8125 3711.8333,1115.5391 Q3712.4271,1115.2656 3713.0521,1114.6875 L3713.0521,1117.4063 Z " fill="#000000"/><text fill="#000000" font-family="sans-serif" font-size="12" font-style="italic" lengthAdjust="spacing" textLength="152" x="3728.5833" y="1107.7715">«masd::object_template»</text><text fill="#000000" font-family="sans-serif" font-size="14" lengthAdjust="spacing" textLength="148" x="3730.5833" y="1123.5967">ConfigurableViaKvps</text><line style="stroke:#181818;stroke-width:0.5;" x1="3565.3333" x2="4011.3333" y1="1131.8984" y2="1131.8984"/><ellipse cx="3575.3333" cy="1145.5469" fill="none" rx="3" ry="3" style="stroke:#038048;stroke-width:1.0;"/><text fill="#000000" font-family="sans-serif" font-size="14" lengthAdjust="spacing" textLength="338" x="3584.3333" y="1148.8936">expected_keys std::unordered_set&lt;std::string&gt;</text><ellipse cx="3575.3333" cy="1161.8438" fill="none" rx="3" ry="3" style="stroke:#038048;stroke-width:1.0;"/><text fill="#000000" font-family="sans-serif" font-size="14" lengthAdjust="spacing" textLength="422" x="3584.3333" y="1165.1904">supplied_kvps std::unordered_map&lt;std::string, std::string&gt;</text><line style="stroke:#181818;stroke-width:0.5;" x1="3565.3333" x2="4011.3333" y1="1172.4922" y2="1172.4922"/></g><!--MD5=[ba83386d426114557685538e96aa6f68]
class CMakeLists--><g id="elem_CMakeLists"><rect codeLine="21" fill="#99CB99" height="56.2656" id="CMakeLists" rx="2.5" ry="2.5" style="stroke:#181818;stroke-width:0.5;" width="360" x="3608.3333" y="1200.4922"/><ellipse cx="3623.3333" cy="1220.625" fill="#ADD1B2" rx="11" ry="11" style="stroke:#181818;stroke-width:1.0;"/><path d="M3626.3021,1226.2656 Q3625.724,1226.5625 3625.0833,1226.7109 Q3624.4427,1226.8594 3623.7396,1226.8594 Q3621.2396,1226.8594 3619.9193,1225.2109 Q3618.599,1223.5625 3618.599,1220.4375 Q3618.599,1217.3125 3619.9193,1215.6563 Q3621.2396,1214 3623.7396,1214 Q3624.4427,1214 3625.0911,1214.1563 Q3625.7396,1214.3125 3626.3021,1214.6094 L3626.3021,1217.3281 Q3625.6771,1216.75 3625.0833,1216.4766 Q3624.4896,1216.2031 3623.8646,1216.2031 Q3622.5208,1216.2031 3621.8333,1217.2734 Q3621.1458,1218.3438 3621.1458,1220.4375 Q3621.1458,1222.5313 3621.8333,1223.6016 Q3622.5208,1224.6719 3623.8646,1224.6719 Q3624.4896,1224.6719 3625.0833,1224.3984 Q3625.6771,1224.125 3626.3021,1223.5469 L3626.3021,1226.2656 Z " fill="#000000"/><text fill="#000000" font-family="sans-serif" font-size="12" font-style="italic" lengthAdjust="spacing" textLength="332" x="3635.3333" y="1216.6309">«masd::build::cmakelists, dogen::handcrafted::cmake»</text><text fill="#000000" font-family="sans-serif" font-size="14" lengthAdjust="spacing" textLength="79" x="3761.8333" y="1232.4561">CMakeLists</text><line style="stroke:#181818;stroke-width:0.5;" x1="3609.3333" x2="3967.3333" y1="1240.7578" y2="1240.7578"/><line style="stroke:#181818;stroke-width:0.5;" x1="3609.3333" x2="3967.3333" y1="1248.7578" y2="1248.7578"/></g><g id="elem_GMN6"><path d="M3529.3333,1046.5 L3529.3333,1071.6328 L4047.3333,1071.6328 L4047.3333,1056.5 L4037.3333,1046.5 L3529.3333,1046.5 " fill="#FEFFDD" style="stroke:#181818;stroke-width:0.5;"/><path d="M4037.3333,1046.5 L4037.3333,1056.5 L4047.3333,1056.5 L4037.3333,1046.5 " fill="#FEFFDD" style="stroke:#181818;stroke-width:1.0;"/><text fill="#000000" font-family="sans-serif" font-size="13" lengthAdjust="spacing" textLength="497" x="3535.3333" y="1063.5669">Element has the ability to recieve configuration arguments as a set of KVPs.</text></g><!--MD5=[d54e5852ecfe164bbba509d3a9352ed8]
class initializer--><g id="elem_initializer"><rect codeLine="26" fill="#A9CDCD" height="56.2656" id="initializer" rx="2.5" ry="2.5" style="stroke:#181818;stroke-width:0.5;" width="202" x="3687.3333" y="1276.7578"/><ellipse cx="3702.3333" cy="1296.8906" fill="#ADD1B2" rx="11" ry="11" style="stroke:#181818;stroke-width:1.0;"/><path d="M3705.3021,1302.5313 Q3704.724,1302.8281 3704.0833,1302.9766 Q3703.4427,1303.125 3702.7396,1303.125 Q3700.2396,1303.125 3698.9193,1301.4766 Q3697.599,1299.8281 3697.599,1296.7031 Q3697.599,1293.5781 3698.9193,1291.9219 Q3700.2396,1290.2656 3702.7396,1290.2656 Q3703.4427,1290.2656 3704.0911,1290.4219 Q3704.7396,1290.5781 3705.3021,1290.875 L3705.3021,1293.5938 Q3704.6771,1293.0156 3704.0833,1292.7422 Q3703.4896,1292.4688 3702.8646,1292.4688 Q3701.5208,1292.4688 3700.8333,1293.5391 Q3700.1458,1294.6094 3700.1458,1296.7031 Q3700.1458,1298.7969 3700.8333,1299.8672 Q3701.5208,1300.9375 3702.8646,1300.9375 Q3703.4896,1300.9375 3704.0833,1300.6641 Q3704.6771,1300.3906 3705.3021,1299.8125 L3705.3021,1302.5313 Z " fill="#000000"/><text fill="#000000" font-family="sans-serif" font-size="12" font-style="italic" lengthAdjust="spacing" textLength="174" x="3714.3333" y="1292.8965">«masd::variability::initializer»</text><text fill="#000000" font-family="sans-serif" font-size="14" lengthAdjust="spacing" textLength="65" x="3768.8333" y="1308.7217">initializer</text><line style="stroke:#181818;stroke-width:0.5;" x1="3688.3333" x2="3888.3333" y1="1317.0234" y2="1317.0234"/><line style="stroke:#181818;stroke-width:0.5;" x1="3688.3333" x2="3888.3333" y1="1325.0234" y2="1325.0234"/></g><!--MD5=[4520fda4e10d4d791ce48fe025810cd4]
class main--><g id="elem_main"><rect codeLine="31" fill="#DDA9F3" height="56.2656" id="main" rx="2.5" ry="2.5" style="stroke:#181818;stroke-width:0.5;" width="267" x="3654.8333" y="1353.0234"/><ellipse cx="3669.8333" cy="1373.1563" fill="#ADD1B2" rx="11" ry="11" style="stroke:#181818;stroke-width:1.0;"/><path d="M3672.8021,1378.7969 Q3672.224,1379.0938 3671.5833,1379.2422 Q3670.9427,1379.3906 3670.2396,1379.3906 Q3667.7396,1379.3906 3666.4193,1377.7422 Q3665.099,1376.0938 3665.099,1372.9688 Q3665.099,1369.8438 3666.4193,1368.1875 Q3667.7396,1366.5313 3670.2396,1366.5313 Q3670.9427,1366.5313 3671.5911,1366.6875 Q3672.2396,1366.8438 3672.8021,1367.1406 L3672.8021,1369.8594 Q3672.1771,1369.2813 3671.5833,1369.0078 Q3670.9896,1368.7344 3670.3646,1368.7344 Q3669.0208,1368.7344 3668.3333,1369.8047 Q3667.6458,1370.875 3667.6458,1372.9688 Q3667.6458,1375.0625 3668.3333,1376.1328 Q3669.0208,1377.2031 3670.3646,1377.2031 Q3670.9896,1377.2031 3671.5833,1376.9297 Q3672.1771,1376.6563 3672.8021,1376.0781 L3672.8021,1378.7969 Z " fill="#000000"/><text fill="#000000" font-family="sans-serif" font-size="12" font-style="italic" lengthAdjust="spacing" textLength="239" x="3681.8333" y="1369.1621">«masd::entry_point, dogen::untypable»</text><text fill="#000000" font-family="sans-serif" font-size="14" lengthAdjust="spacing" textLength="36" x="3783.3333" y="1384.9873">main</text><line style="stroke:#181818;stroke-width:0.5;" x1="3655.8333" x2="3920.8333" y1="1393.2891" y2="1393.2891"/><line style="stroke:#181818;stroke-width:0.5;" x1="3655.8333" x2="3920.8333" y1="1401.2891" y2="1401.2891"/></g><line style="stroke:#181818;stroke-width:1.0;stroke-dasharray:7.0,7.0;" x1="3788.3333" x2="3788.3333" y1="1071.6328" y2="1091.6328"/><line style="stroke:#181818;stroke-width:1.0;" x1="1915.5" x2="1915.5" y1="358.5781" y2="368.5781"/><line style="stroke:#181818;stroke-width:1.0;" x1="1915.5" x2="2408.8333" y1="368.5781" y2="368.5781"/><line style="stroke:#181818;stroke-width:1.0;" x1="2408.8333" x2="2408.8333" y1="368.5781" y2="378.5781"/><polygon fill="none" points="1915.5,358.5781,1911.5,364.5781,1915.5,370.5781,1919.5,364.5781,1915.5,358.5781" style="stroke:#181818;stroke-width:1.0;"/><line style="stroke:#181818;stroke-width:1.0;" x1="1878.5" x2="1878.5" y1="108.2656" y2="302.3125"/><polygon fill="none" points="1878.5,302.3125,1882.5,296.3125,1878.5,290.3125,1874.5,296.3125,1878.5,302.3125" style="stroke:#181818;stroke-width:1.0;"/><text fill="#000000" font-family="sans-serif" font-size="13" lengthAdjust="spacing" textLength="44" x="1832.5" y="209.7896">throws</text><line style="stroke:#181818;stroke-width:1.0;" x1="1841.5" x2="1841.5" y1="358.5781" y2="454.8438"/><polygon fill="none" points="1841.5,358.5781,1837.5,364.5781,1841.5,370.5781,1845.5,364.5781,1841.5,358.5781" style="stroke:#181818;stroke-width:1.0;"/><text fill="#000000" font-family="sans-serif" font-size="13" lengthAdjust="spacing" textLength="140" x="1699.5" y="411.2114">generates body using</text><line style="stroke:#181818;stroke-width:1.0;" x1="2482.8333" x2="2482.8333" y1="233.4219" y2="378.5781"/><polygon fill="none" points="2482.8333,378.5781,2486.8333,372.5781,2482.8333,366.5781,2478.8333,372.5781,2482.8333,378.5781" style="stroke:#181818;stroke-width:1.0;"/><text fill="#000000" font-family="sans-serif" font-size="13" lengthAdjust="spacing" textLength="44" x="2485.8333" y="334.9458">throws</text><line style="stroke:#181818;stroke-width:1.0;" x1="2445.8333" x2="2445.8333" y1="434.8438" y2="666.8359"/><line style="stroke:#181818;stroke-width:1.0;" x1="2445.8333" x2="2333.5833" y1="666.8359" y2="666.8359"/><line style="stroke:#181818;stroke-width:1.0;" x1="2333.5833" x2="2333.5833" y1="666.8359" y2="676.8359"/><polygon fill="none" points="2445.8333,434.8438,2441.8333,440.8438,2445.8333,446.8438,2449.8333,440.8438,2445.8333,434.8438" style="stroke:#181818;stroke-width:1.0;"/><text fill="#000000" font-family="sans-serif" font-size="13" lengthAdjust="spacing" textLength="48" x="2448.8333" y="548.1763">creates</text><line style="stroke:#181818;stroke-width:1.0;stroke-dasharray:7.0,7.0;" x1="2482.8333" x2="2482.8333" y1="108.2656" y2="177.1563"/><line style="stroke:#181818;stroke-width:1.0;" x1="1878.5" x2="1878.5" y1="511.1094" y2="566.2422"/><line style="stroke:#181818;stroke-width:1.0;" x1="1878.5" x2="2014.1667" y1="566.2422" y2="566.2422"/><line style="stroke:#181818;stroke-width:1.0;" x1="2014.1667" x2="2014.1667" y1="566.2422" y2="576.2422"/><polygon fill="none" points="1878.5,511.1094,1874.5,517.1094,1878.5,523.1094,1882.5,517.1094,1878.5,511.1094" style="stroke:#181818;stroke-width:1.0;"/><text fill="#000000" font-family="sans-serif" font-size="13" lengthAdjust="spacing" textLength="44" x="1881.5" y="548.1763">throws</text><line style="stroke:#181818;stroke-width:1.0;" x1="1804.5" x2="1804.5" y1="511.1094" y2="521.1094"/><line style="stroke:#181818;stroke-width:1.0;" x1="1804.5" x2="1712.3333" y1="521.1094" y2="521.1094"/><line style="stroke:#181818;stroke-width:1.0;" x1="1712.3333" x2="1712.3333" y1="521.1094" y2="576.2422"/><polygon fill="none" points="1804.5,511.1094,1800.5,517.1094,1804.5,523.1094,1808.5,517.1094,1804.5,511.1094" style="stroke:#181818;stroke-width:1.0;"/><text fill="#000000" font-family="sans-serif" font-size="13" lengthAdjust="spacing" textLength="125" x="1585.3333" y="548.1763">parses a string into</text><line style="stroke:#181818;stroke-width:1.0;stroke-dasharray:7.0,7.0;" x1="2061.5" x2="2061.5" y1="556.2422" y2="576.2422"/><line style="stroke:#181818;stroke-width:1.0;" x1="1634.1667" x2="1634.1667" y1="656.8359" y2="689.1172"/><polygon fill="none" points="1634.1667,656.8359,1630.1667,662.8359,1634.1667,668.8359,1638.1667,662.8359,1634.1667,656.8359" style="stroke:#181818;stroke-width:1.0;"/><line style="stroke:#181818;stroke-width:1.0;" x1="1790.5" x2="1790.5" y1="656.8359" y2="666.8359"/><line style="stroke:#181818;stroke-width:1.0;" x1="1790.5" x2="2231.0833" y1="666.8359" y2="666.8359"/><line style="stroke:#181818;stroke-width:1.0;" x1="2231.0833" x2="2231.0833" y1="666.8359" y2="676.8359"/><polygon fill="none" points="1790.5,656.8359,1786.5,662.8359,1790.5,668.8359,1794.5,662.8359,1790.5,656.8359" style="stroke:#181818;stroke-width:1.0;"/><line style="stroke:#181818;stroke-width:1.0;" x1="1634.1667" x2="1634.1667" y1="753.4141" y2="810.1406"/><polygon fill="none" points="1634.1667,753.4141,1630.1667,759.4141,1634.1667,765.4141,1638.1667,759.4141,1634.1667,753.4141" style="stroke:#181818;stroke-width:1.0;"/><line style="stroke:#181818;stroke-width:1.0;" x1="1634.1667" x2="1634.1667" y1="890.7344" y2="935.1797"/><polygon fill="none" points="1634.1667,890.7344,1630.1667,896.7344,1634.1667,902.7344,1638.1667,896.7344,1634.1667,890.7344" style="stroke:#181818;stroke-width:1.0;"/><line style="stroke:#181818;stroke-width:1.0;" x1="2282.3333" x2="2282.3333" y1="765.6953" y2="785.6953"/><polygon fill="none" points="2282.3333,765.6953,2278.3333,771.6953,2282.3333,777.6953,2286.3333,771.6953,2282.3333,765.6953" style="stroke:#181818;stroke-width:1.0;"/><line style="stroke:#181818;stroke-width:1.0;stroke-dasharray:7.0,7.0;" x1="2282.3333" x2="2282.3333" y1="656.8359" y2="676.8359"/><line style="stroke:#181818;stroke-width:1.0;stroke-dasharray:7.0,7.0;" x1="1602.5" x2="1602.5" y1="108.2656" y2="128.2656"/><line style="stroke:#181818;stroke-width:1.0;" x1="598" x2="598" y1="558.7344" y2="568.7344"/><line style="stroke:#181818;stroke-width:1.0;" x1="598" x2="246" y1="568.7344" y2="568.7344"/><line style="stroke:#181818;stroke-width:1.0;" x1="246" x2="246" y1="568.7344" y2="578.7344"/><polygon fill="none" points="598,558.7344,594,564.7344,598,570.7344,602,564.7344,598,558.7344" style="stroke:#181818;stroke-width:1.0;"/><line style="stroke:#181818;stroke-width:1.0;" x1="672" x2="672" y1="558.7344" y2="578.7344"/><polygon fill="none" points="672,558.7344,668,564.7344,672,570.7344,676,564.7344,672,558.7344" style="stroke:#181818;stroke-width:1.0;"/><line style="stroke:#181818;stroke-width:1.0;" x1="172" x2="172" y1="482.4688" y2="578.7344"/><polygon fill="none" points="172,578.7344,176,572.7344,172,566.7344,168,572.7344,172,578.7344" style="stroke:#181818;stroke-width:1.0;"/><text fill="#000000" font-family="sans-serif" font-size="13" lengthAdjust="spacing" textLength="44" x="126" y="535.1021">throws</text><line style="stroke:#181818;stroke-width:1.0;stroke-dasharray:7.0,7.0;" x1="172" x2="172" y1="406.2031" y2="426.2031"/><line style="stroke:#181818;stroke-width:1.0;" x1="766" x2="766" y1="482.4688" y2="568.7344"/><line style="stroke:#181818;stroke-width:1.0;" x1="766" x2="746" y1="568.7344" y2="568.7344"/><line style="stroke:#181818;stroke-width:1.0;" x1="746" x2="746" y1="568.7344" y2="578.7344"/><polygon fill="none" points="746,578.7344,750,572.7344,746,566.7344,742,572.7344,746,578.7344" style="stroke:#181818;stroke-width:1.0;"/><text fill="#000000" font-family="sans-serif" font-size="13" lengthAdjust="spacing" textLength="44" x="769" y="535.1021">throws</text><line style="stroke:#181818;stroke-width:1.0;" x1="709" x2="709" y1="635" y2="645"/><line style="stroke:#181818;stroke-width:1.0;" x1="709" x2="514" y1="645" y2="645"/><line style="stroke:#181818;stroke-width:1.0;" x1="514" x2="514" y1="645" y2="655"/><polygon fill="none" points="709,635,705,641,709,647,713,641,709,635" style="stroke:#181818;stroke-width:1.0;"/><line style="stroke:#181818;stroke-width:1.0;stroke-dasharray:7.0,7.0;" x1="766" x2="766" y1="406.2031" y2="426.2031"/><line style="stroke:#181818;stroke-width:1.0;stroke-dasharray:7.0,7.0;" x1="459" x2="459" y1="635" y2="655"/><line style="stroke:#181818;stroke-width:1.0;" x1="3015.3333" x2="3015.3333" y1="521.75" y2="576.8828"/><line style="stroke:#181818;stroke-width:1.0;" x1="3015.3333" x2="2852.6667" y1="576.8828" y2="576.8828"/><line style="stroke:#181818;stroke-width:1.0;" x1="2852.6667" x2="2852.6667" y1="576.8828" y2="586.8828"/><polygon fill="none" points="3015.3333,521.75,3011.3333,527.75,3015.3333,533.75,3019.3333,527.75,3015.3333,521.75" style="stroke:#181818;stroke-width:1.0;"/><text fill="#000000" font-family="sans-serif" font-size="13" lengthAdjust="spacing" textLength="44" x="2969.3333" y="558.8169">throws</text><line style="stroke:#181818;stroke-width:1.0;stroke-dasharray:7.0,7.0;" x1="2804.3333" x2="2804.3333" y1="566.8828" y2="586.8828"/><line style="stroke:#181818;stroke-width:1.0;" x1="3383.3333" x2="3383.3333" y1="521.75" y2="576.8828"/><line style="stroke:#181818;stroke-width:1.0;" x1="3383.3333" x2="3248.5" y1="576.8828" y2="576.8828"/><line style="stroke:#181818;stroke-width:1.0;" x1="3248.5" x2="3248.5" y1="576.8828" y2="586.8828"/><polygon fill="none" points="3383.3333,521.75,3379.3333,527.75,3383.3333,533.75,3387.3333,527.75,3383.3333,521.75" style="stroke:#181818;stroke-width:1.0;"/><text fill="#000000" font-family="sans-serif" font-size="13" lengthAdjust="spacing" textLength="44" x="3386.3333" y="558.8169">throws</text><line style="stroke:#181818;stroke-width:1.0;stroke-dasharray:7.0,7.0;" x1="3199.8333" x2="3199.8333" y1="566.8828" y2="586.8828"/><!--MD5=[62c2d3edcf1a075db29b9d1737a9ec0c]
@startuml
!pragma layout elk
set namespaceSeparator ::
note as N1
Contains all the generic text templating infrastructure.

UML representation:

\image html dogen.templating/modeling/dogen.templating.svg
end note

class ConfigurableViaKvps <<masd::object_template>> #E3B6F6 {
    +{field} expected_keys std::unordered_set<std::string>
    +{field} supplied_kvps std::unordered_map<std::string, std::string>
}

ConfigurableViaKvps o-[hidden]- CMakeLists

note top of ConfigurableViaKvps
Element has the ability to recieve configuration arguments as a set of KVPs.
end note

class CMakeLists <<masd::build::cmakelists, dogen::handcrafted::cmake>> #99CB99 {
}

CMakeLists o-[hidden]- initializer

class initializer <<masd::variability::initializer>> #A9CDCD {
}

initializer o-[hidden]- main

class main <<masd::entry_point, dogen::untypable>> #DDA9F3 {
}

namespace stitch #F2F2F2 {
    class instantiator <<dogen::handcrafted::typeable>> #FFFACD {
    }

    instantiator o- - formatter
    instantiator o-u- instantiation_error: throws
    instantiator o- - parser: generates body using

    class instantiation_error <<masd::exception>> #E8C2F8 {
    }

    class formatter <<dogen::handcrafted::typeable>> #FFFACD {
    }

    formatter o-u- formatting_error: throws
    formatter o- - text_template: creates

    class formatting_error <<masd::exception>> #E8C2F8 {
    }

    note top of formatting_error
An error occurred whilst formatting.
    end note

    class parser <<dogen::handcrafted::typeable>> #FFFACD {
    }

    parser o- - parsing_error: throws
    parser o- - text_template_body: parses a string into

    class parsing_error <<masd::exception>> #E8C2F8 {
    }

    note top of parsing_error
An error occurred whilst parsing.
    end note

    class text_template_body #F7E5FF {
        +{field} tagged_values std::list<identification::entities::tagged_value>
        +{field} lines std::list<line>
    }

    text_template_body o- - line
    text_template_body o- - text_template

    class line #F7E5FF {
        +{field} blocks std::list<block>
    }

    line o- - block

    class block #F7E5FF {
        +{field} type block_types
        +{field} content std::string
    }

    block o- - block_types

    enum block_types <<masd::enumeration>> #F2DAFD {
        +{field} text_block
        +{field} standard_control_block
        +{field} expression_block
        +{field} variable_block
    }

    class text_template <<ConfigurableViaKvps>> #F7E5FF {
        +{field} properties properties
        +{field} body text_template_body
    }

    text_template o- - properties

    note top of text_template
Domain representation of a stitch template.
    end note

    class properties #F7E5FF {
        +{field} stream_variable_name std::string
        +{field} inclusion_dependencies std::list<std::string>
        +{field} containing_namespaces std::list<std::string>
        +{field} wale_template std::string
        +{field} wale_kvps std::unordered_map<std::string, std::string>
    }

    class features <<masd::variability::feature_bundle>> #BAD7D7 {
        +{field} stream_variable_name masd::variability::text
        +{field} relative_output_directory masd::variability::text
        +{field} inclusion_dependency masd::variability::text_collection
        +{field} containing_namespaces masd::variability::text
        +{field} wale.text_template masd::variability::text
        +{field} wale.kvp masd::variability::key_value_pair
    }

    note top of features
Stitch templating features.
    end note

}

namespace wale #F2F2F2 {
    class instantiator <<dogen::handcrafted::typeable>> #FFFACD {
    }

    instantiator o- - key_extractor
    instantiator o- - formatter

    class key_extractor <<dogen::handcrafted::typeable>> #FFFACD {
    }

    key_extractor o-u- extraction_error: throws

    class extraction_error <<masd::exception>> #E8C2F8 {
    }

    note top of extraction_error
An error occurred whilst extracting a key.
    end note

    class formatter <<dogen::handcrafted::typeable>> #FFFACD {
    }

    formatter o-u- formatting_error: throws
    formatter o- - text_template

    class formatting_error <<masd::exception>> #E8C2F8 {
    }

    note top of formatting_error
An error occurred whilst formatting.
    end note

    class text_template <<ConfigurableViaKvps>> #F7E5FF {
        +{field} content std::string
    }

    note top of text_template
Represents a wale text template.
    end note

}

namespace helpers #F2F2F2 {
    class kvp_validator <<dogen::handcrafted::typeable>> #FFFACD {
    }

    kvp_validator o- - validation_error: throws

    class validation_error <<masd::exception>> #E8C2F8 {
    }

    note top of validation_error
An error occurred with the supplied KVPs.
    end note

    class kvp_resolver <<dogen::handcrafted::typeable>> #FFFACD {
    }

    kvp_resolver o- - resolution_error: throws

    class resolution_error <<masd::exception>> #E8C2F8 {
    }

    note top of resolution_error
An error occurred when trying to resolve a key.
    end note

}

@enduml

PlantUML version 1.2022.12(Sun Oct 23 19:12:26 BST 2022)
(GPL source distribution)
Java Runtime: OpenJDK Runtime Environment
JVM: OpenJDK 64-Bit Server VM
Java Version: 1.8.0_212-8u212-b03-2~deb9u1-b03
Operating System: Linux
OS Version: 5.19.0-2-amd64
Default Encoding: UTF-8
Language: en
Country: GB
--></g></svg>