<?xml version="1.0" encoding="UTF-8" standalone="no"?><svg xmlns="http://www.w3.org/2000/svg" xmlns:xlink="http://www.w3.org/1999/xlink" contentStyleType="text/css" height="502px" preserveAspectRatio="none" style="width:5907px;height:502px;background:#FFFFFF;" version="1.1" viewBox="0 0 5907 502" width="5907px" zoomAndPan="magnify"><defs/><g><!--MD5=[8ea89aee62fc214414b3e95895d3adaa]
cluster wale--><g id="cluster_wale"><path d="M768.5,18.5 L806.5,18.5 A3.75,3.75 0 0 1 809,21 L816,40.7969 L2161.5,40.7969 A2.5,2.5 0 0 1 2164,43.2969 L2164,311.5 A2.5,2.5 0 0 1 2161.5,314 L768.5,314 A2.5,2.5 0 0 1 766,311.5 L766,21 A2.5,2.5 0 0 1 768.5,18.5 " fill="#F2F2F2" style="stroke:#000000;stroke-width:1.5;"/><line style="stroke:#000000;stroke-width:1.5;" x1="766" x2="816" y1="40.7969" y2="40.7969"/><text fill="#000000" font-family="sans-serif" font-size="14" font-weight="bold" lengthAdjust="spacing" textLength="37" x="770" y="33.4951">wale</text></g><!--MD5=[50836b8dcc01e4fa33a5b0e38af4f4d8]
cluster stitch--><g id="cluster_stitch"><path d="M2190.5,6 L2236.5,6 A3.75,3.75 0 0 1 2239,8.5 L2246,28.2969 L4146.5,28.2969 A2.5,2.5 0 0 1 4149,30.7969 L4149,493 A2.5,2.5 0 0 1 4146.5,495.5 L2190.5,495.5 A2.5,2.5 0 0 1 2188,493 L2188,8.5 A2.5,2.5 0 0 1 2190.5,6 " fill="#F2F2F2" style="stroke:#000000;stroke-width:1.5;"/><line style="stroke:#000000;stroke-width:1.5;" x1="2188" x2="2246" y1="28.2969" y2="28.2969"/><text fill="#000000" font-family="sans-serif" font-size="14" font-weight="bold" lengthAdjust="spacing" textLength="45" x="2192" y="20.9951">stitch</text></g><!--MD5=[9b2039c9cbc9b36eebe6e360cb295121]
cluster helpers--><g id="cluster_helpers"><path d="M4705.5,18.5 L4766.5,18.5 A3.75,3.75 0 0 1 4769,21 L4776,40.7969 L5897.5,40.7969 A2.5,2.5 0 0 1 5900,43.2969 L5900,303 A2.5,2.5 0 0 1 5897.5,305.5 L4705.5,305.5 A2.5,2.5 0 0 1 4703,303 L4703,21 A2.5,2.5 0 0 1 4705.5,18.5 " fill="#F2F2F2" style="stroke:#000000;stroke-width:1.5;"/><line style="stroke:#000000;stroke-width:1.5;" x1="4703" x2="4776" y1="40.7969" y2="40.7969"/><text fill="#000000" font-family="sans-serif" font-size="14" font-weight="bold" lengthAdjust="spacing" textLength="60" x="4707" y="33.4951">helpers</text></g><!--MD5=[428832655a5011fec41c0679cb979de0]
class wale::text_template--><g id="elem_wale::text_template"><rect codeLine="11" fill="#F7E5FF" height="72.5625" id="wale::text_template" rx="2.5" ry="2.5" style="stroke:#181818;stroke-width:0.5;" width="165" x="1432.5" y="225"/><ellipse cx="1447.5" cy="245.1328" fill="#ADD1B2" rx="11" ry="11" style="stroke:#181818;stroke-width:1.0;"/><path d="M1450.4688,250.7734 Q1449.8906,251.0703 1449.25,251.2188 Q1448.6094,251.3672 1447.9063,251.3672 Q1445.4063,251.3672 1444.0859,249.7188 Q1442.7656,248.0703 1442.7656,244.9453 Q1442.7656,241.8203 1444.0859,240.1641 Q1445.4063,238.5078 1447.9063,238.5078 Q1448.6094,238.5078 1449.2578,238.6641 Q1449.9063,238.8203 1450.4688,239.1172 L1450.4688,241.8359 Q1449.8438,241.2578 1449.25,240.9844 Q1448.6563,240.7109 1448.0313,240.7109 Q1446.6875,240.7109 1446,241.7813 Q1445.3125,242.8516 1445.3125,244.9453 Q1445.3125,247.0391 1446,248.1094 Q1446.6875,249.1797 1448.0313,249.1797 Q1448.6563,249.1797 1449.25,248.9063 Q1449.8438,248.6328 1450.4688,248.0547 L1450.4688,250.7734 Z " fill="#000000"/><text fill="#000000" font-family="sans-serif" font-size="12" font-style="italic" lengthAdjust="spacing" textLength="137" x="1459.5" y="241.1387">«ConfigurableViaKvps»</text><text fill="#000000" font-family="sans-serif" font-size="14" lengthAdjust="spacing" textLength="98" x="1479" y="256.9639">text_template</text><line style="stroke:#181818;stroke-width:0.5;" x1="1433.5" x2="1596.5" y1="265.2656" y2="265.2656"/><ellipse cx="1443.5" cy="278.9141" fill="none" rx="3" ry="3" style="stroke:#038048;stroke-width:1.0;"/><text fill="#000000" font-family="sans-serif" font-size="14" lengthAdjust="spacing" textLength="129" x="1452.5" y="282.2607">content std::string</text><line style="stroke:#181818;stroke-width:0.5;" x1="1433.5" x2="1596.5" y1="289.5625" y2="289.5625"/></g><g id="elem_wale::GMN5"><path d="M1396,69 L1396,94.1328 A0,0 0 0 0 1396,94.1328 L1511,94.1328 L1515,224.99 L1519,94.1328 L1634,94.1328 A0,0 0 0 0 1634,94.1328 L1634,79 L1624,69 L1396,69 A0,0 0 0 0 1396,69 " fill="#FEFFDD" style="stroke:#181818;stroke-width:0.5;"/><path d="M1624,69 L1624,79 L1634,79 L1624,69 " fill="#FEFFDD" style="stroke:#181818;stroke-width:0.5;"/><text fill="#000000" font-family="sans-serif" font-size="13" lengthAdjust="spacing" textLength="217" x="1402" y="86.0669">Represents a wale text template.</text></g><!--MD5=[e37ccb2ead059b85791f77a4d734e437]
class wale::key_extractor--><g id="elem_wale::key_extractor"><rect codeLine="19" fill="#FFFACD" height="56.2656" id="wale::key_extractor" rx="2.5" ry="2.5" style="stroke:#181818;stroke-width:0.5;" width="222" x="1669" y="53.5"/><ellipse cx="1684" cy="73.6328" fill="#ADD1B2" rx="11" ry="11" style="stroke:#181818;stroke-width:1.0;"/><path d="M1686.9688,79.2734 Q1686.3906,79.5703 1685.75,79.7188 Q1685.1094,79.8672 1684.4063,79.8672 Q1681.9063,79.8672 1680.5859,78.2188 Q1679.2656,76.5703 1679.2656,73.4453 Q1679.2656,70.3203 1680.5859,68.6641 Q1681.9063,67.0078 1684.4063,67.0078 Q1685.1094,67.0078 1685.7578,67.1641 Q1686.4063,67.3203 1686.9688,67.6172 L1686.9688,70.3359 Q1686.3438,69.7578 1685.75,69.4844 Q1685.1563,69.2109 1684.5313,69.2109 Q1683.1875,69.2109 1682.5,70.2813 Q1681.8125,71.3516 1681.8125,73.4453 Q1681.8125,75.5391 1682.5,76.6094 Q1683.1875,77.6797 1684.5313,77.6797 Q1685.1563,77.6797 1685.75,77.4063 Q1686.3438,77.1328 1686.9688,76.5547 L1686.9688,79.2734 Z " fill="#000000"/><text fill="#000000" font-family="sans-serif" font-size="12" font-style="italic" lengthAdjust="spacing" textLength="194" x="1696" y="69.6387">«dogen::handcrafted::typeable»</text><text fill="#000000" font-family="sans-serif" font-size="14" lengthAdjust="spacing" textLength="97" x="1744.5" y="85.4639">key_extractor</text><line style="stroke:#181818;stroke-width:0.5;" x1="1670" x2="1890" y1="93.7656" y2="93.7656"/><line style="stroke:#181818;stroke-width:0.5;" x1="1670" x2="1890" y1="101.7656" y2="101.7656"/></g><!--MD5=[108cd4b706a0f8913daab7874db92a98]
class wale::instantiator--><g id="elem_wale::instantiator"><rect codeLine="22" fill="#FFFACD" height="56.2656" id="wale::instantiator" rx="2.5" ry="2.5" style="stroke:#181818;stroke-width:0.5;" width="222" x="1926" y="53.5"/><ellipse cx="1941" cy="73.6328" fill="#ADD1B2" rx="11" ry="11" style="stroke:#181818;stroke-width:1.0;"/><path d="M1943.9688,79.2734 Q1943.3906,79.5703 1942.75,79.7188 Q1942.1094,79.8672 1941.4063,79.8672 Q1938.9063,79.8672 1937.5859,78.2188 Q1936.2656,76.5703 1936.2656,73.4453 Q1936.2656,70.3203 1937.5859,68.6641 Q1938.9063,67.0078 1941.4063,67.0078 Q1942.1094,67.0078 1942.7578,67.1641 Q1943.4063,67.3203 1943.9688,67.6172 L1943.9688,70.3359 Q1943.3438,69.7578 1942.75,69.4844 Q1942.1563,69.2109 1941.5313,69.2109 Q1940.1875,69.2109 1939.5,70.2813 Q1938.8125,71.3516 1938.8125,73.4453 Q1938.8125,75.5391 1939.5,76.6094 Q1940.1875,77.6797 1941.5313,77.6797 Q1942.1563,77.6797 1942.75,77.4063 Q1943.3438,77.1328 1943.9688,76.5547 L1943.9688,79.2734 Z " fill="#000000"/><text fill="#000000" font-family="sans-serif" font-size="12" font-style="italic" lengthAdjust="spacing" textLength="194" x="1953" y="69.6387">«dogen::handcrafted::typeable»</text><text fill="#000000" font-family="sans-serif" font-size="14" lengthAdjust="spacing" textLength="81" x="2009.5" y="85.4639">instantiator</text><line style="stroke:#181818;stroke-width:0.5;" x1="1927" x2="2147" y1="93.7656" y2="93.7656"/><line style="stroke:#181818;stroke-width:0.5;" x1="1927" x2="2147" y1="101.7656" y2="101.7656"/></g><!--MD5=[207619df346383346b32bf95c4517db8]
class wale::formatter--><g id="elem_wale::formatter"><rect codeLine="25" fill="#FFFACD" height="56.2656" id="wale::formatter" rx="2.5" ry="2.5" style="stroke:#181818;stroke-width:0.5;" width="222" x="1669" y="233.5"/><ellipse cx="1684" cy="253.6328" fill="#ADD1B2" rx="11" ry="11" style="stroke:#181818;stroke-width:1.0;"/><path d="M1686.9688,259.2734 Q1686.3906,259.5703 1685.75,259.7188 Q1685.1094,259.8672 1684.4063,259.8672 Q1681.9063,259.8672 1680.5859,258.2188 Q1679.2656,256.5703 1679.2656,253.4453 Q1679.2656,250.3203 1680.5859,248.6641 Q1681.9063,247.0078 1684.4063,247.0078 Q1685.1094,247.0078 1685.7578,247.1641 Q1686.4063,247.3203 1686.9688,247.6172 L1686.9688,250.3359 Q1686.3438,249.7578 1685.75,249.4844 Q1685.1563,249.2109 1684.5313,249.2109 Q1683.1875,249.2109 1682.5,250.2813 Q1681.8125,251.3516 1681.8125,253.4453 Q1681.8125,255.5391 1682.5,256.6094 Q1683.1875,257.6797 1684.5313,257.6797 Q1685.1563,257.6797 1685.75,257.4063 Q1686.3438,257.1328 1686.9688,256.5547 L1686.9688,259.2734 Z " fill="#000000"/><text fill="#000000" font-family="sans-serif" font-size="12" font-style="italic" lengthAdjust="spacing" textLength="194" x="1696" y="249.6387">«dogen::handcrafted::typeable»</text><text fill="#000000" font-family="sans-serif" font-size="14" lengthAdjust="spacing" textLength="68" x="1759" y="265.4639">formatter</text><line style="stroke:#181818;stroke-width:0.5;" x1="1670" x2="1890" y1="273.7656" y2="273.7656"/><line style="stroke:#181818;stroke-width:0.5;" x1="1670" x2="1890" y1="281.7656" y2="281.7656"/></g><!--MD5=[5e4362892a93de52020ddc8b36b0c66b]
class wale::formatting_error--><g id="elem_wale::formatting_error"><rect codeLine="28" fill="#E8C2F8" height="56.2656" id="wale::formatting_error" rx="2.5" ry="2.5" style="stroke:#181818;stroke-width:0.5;" width="150" x="1159" y="233.5"/><ellipse cx="1174" cy="253.6328" fill="#ADD1B2" rx="11" ry="11" style="stroke:#181818;stroke-width:1.0;"/><path d="M1176.9688,259.2734 Q1176.3906,259.5703 1175.75,259.7188 Q1175.1094,259.8672 1174.4063,259.8672 Q1171.9063,259.8672 1170.5859,258.2188 Q1169.2656,256.5703 1169.2656,253.4453 Q1169.2656,250.3203 1170.5859,248.6641 Q1171.9063,247.0078 1174.4063,247.0078 Q1175.1094,247.0078 1175.7578,247.1641 Q1176.4063,247.3203 1176.9688,247.6172 L1176.9688,250.3359 Q1176.3438,249.7578 1175.75,249.4844 Q1175.1563,249.2109 1174.5313,249.2109 Q1173.1875,249.2109 1172.5,250.2813 Q1171.8125,251.3516 1171.8125,253.4453 Q1171.8125,255.5391 1172.5,256.6094 Q1173.1875,257.6797 1174.5313,257.6797 Q1175.1563,257.6797 1175.75,257.4063 Q1176.3438,257.1328 1176.9688,256.5547 L1176.9688,259.2734 Z " fill="#000000"/><text fill="#000000" font-family="sans-serif" font-size="12" font-style="italic" lengthAdjust="spacing" textLength="114" x="1190" y="249.6387">«masd::exception»</text><text fill="#000000" font-family="sans-serif" font-size="14" lengthAdjust="spacing" textLength="118" x="1188" y="265.4639">formatting_error</text><line style="stroke:#181818;stroke-width:0.5;" x1="1160" x2="1308" y1="273.7656" y2="273.7656"/><line style="stroke:#181818;stroke-width:0.5;" x1="1160" x2="1308" y1="281.7656" y2="281.7656"/></g><g id="elem_wale::GMN12"><path d="M1107.5,69 L1107.5,94.1328 A0,0 0 0 0 1107.5,94.1328 L1230,94.1328 L1234,233.25 L1238,94.1328 L1360.5,94.1328 A0,0 0 0 0 1360.5,94.1328 L1360.5,79 L1350.5,69 L1107.5,69 A0,0 0 0 0 1107.5,69 " fill="#FEFFDD" style="stroke:#181818;stroke-width:0.5;"/><path d="M1350.5,69 L1350.5,79 L1360.5,79 L1350.5,69 " fill="#FEFFDD" style="stroke:#181818;stroke-width:0.5;"/><text fill="#000000" font-family="sans-serif" font-size="13" lengthAdjust="spacing" textLength="232" x="1113.5" y="86.0669">An error occurred whilst formatting.</text></g><!--MD5=[195b3b9f47481677fde60c1a3d9c5c6a]
class wale::extraction_error--><g id="elem_wale::extraction_error"><rect codeLine="35" fill="#E8C2F8" height="56.2656" id="wale::extraction_error" rx="2.5" ry="2.5" style="stroke:#181818;stroke-width:0.5;" width="147" x="853.5" y="233.5"/><ellipse cx="868.5" cy="253.6328" fill="#ADD1B2" rx="11" ry="11" style="stroke:#181818;stroke-width:1.0;"/><path d="M871.4688,259.2734 Q870.8906,259.5703 870.25,259.7188 Q869.6094,259.8672 868.9063,259.8672 Q866.4063,259.8672 865.0859,258.2188 Q863.7656,256.5703 863.7656,253.4453 Q863.7656,250.3203 865.0859,248.6641 Q866.4063,247.0078 868.9063,247.0078 Q869.6094,247.0078 870.2578,247.1641 Q870.9063,247.3203 871.4688,247.6172 L871.4688,250.3359 Q870.8438,249.7578 870.25,249.4844 Q869.6563,249.2109 869.0313,249.2109 Q867.6875,249.2109 867,250.2813 Q866.3125,251.3516 866.3125,253.4453 Q866.3125,255.5391 867,256.6094 Q867.6875,257.6797 869.0313,257.6797 Q869.6563,257.6797 870.25,257.4063 Q870.8438,257.1328 871.4688,256.5547 L871.4688,259.2734 Z " fill="#000000"/><text fill="#000000" font-family="sans-serif" font-size="12" font-style="italic" lengthAdjust="spacing" textLength="114" x="883" y="249.6387">«masd::exception»</text><text fill="#000000" font-family="sans-serif" font-size="14" lengthAdjust="spacing" textLength="115" x="882.5" y="265.4639">extraction_error</text><line style="stroke:#181818;stroke-width:0.5;" x1="854.5" x2="999.5" y1="273.7656" y2="273.7656"/><line style="stroke:#181818;stroke-width:0.5;" x1="854.5" x2="999.5" y1="281.7656" y2="281.7656"/></g><g id="elem_wale::GMN16"><path d="M782,69 L782,94.1328 A0,0 0 0 0 782,94.1328 L923,94.1328 L927,233.25 L931,94.1328 L1072,94.1328 A0,0 0 0 0 1072,94.1328 L1072,79 L1062,69 L782,69 A0,0 0 0 0 782,69 " fill="#FEFFDD" style="stroke:#181818;stroke-width:0.5;"/><path d="M1062,69 L1062,79 L1072,79 L1062,69 " fill="#FEFFDD" style="stroke:#181818;stroke-width:0.5;"/><text fill="#000000" font-family="sans-serif" font-size="13" lengthAdjust="spacing" textLength="269" x="788" y="86.0669">An error occurred whilst extracting a key.</text></g><!--MD5=[acad6953ec1038ab0f34bc9d380c7772]
class stitch::parser--><g id="elem_stitch::parser"><rect codeLine="45" fill="#FFFACD" height="56.2656" id="stitch::parser" rx="2.5" ry="2.5" style="stroke:#181818;stroke-width:0.5;" width="222" x="3408" y="53.5"/><ellipse cx="3423" cy="73.6328" fill="#ADD1B2" rx="11" ry="11" style="stroke:#181818;stroke-width:1.0;"/><path d="M3425.9688,79.2734 Q3425.3906,79.5703 3424.75,79.7188 Q3424.1094,79.8672 3423.4063,79.8672 Q3420.9063,79.8672 3419.5859,78.2188 Q3418.2656,76.5703 3418.2656,73.4453 Q3418.2656,70.3203 3419.5859,68.6641 Q3420.9063,67.0078 3423.4063,67.0078 Q3424.1094,67.0078 3424.7578,67.1641 Q3425.4063,67.3203 3425.9688,67.6172 L3425.9688,70.3359 Q3425.3438,69.7578 3424.75,69.4844 Q3424.1563,69.2109 3423.5313,69.2109 Q3422.1875,69.2109 3421.5,70.2813 Q3420.8125,71.3516 3420.8125,73.4453 Q3420.8125,75.5391 3421.5,76.6094 Q3422.1875,77.6797 3423.5313,77.6797 Q3424.1563,77.6797 3424.75,77.4063 Q3425.3438,77.1328 3425.9688,76.5547 L3425.9688,79.2734 Z " fill="#000000"/><text fill="#000000" font-family="sans-serif" font-size="12" font-style="italic" lengthAdjust="spacing" textLength="194" x="3435" y="69.6387">«dogen::handcrafted::typeable»</text><text fill="#000000" font-family="sans-serif" font-size="14" lengthAdjust="spacing" textLength="46" x="3509" y="85.4639">parser</text><line style="stroke:#181818;stroke-width:0.5;" x1="3409" x2="3629" y1="93.7656" y2="93.7656"/><line style="stroke:#181818;stroke-width:0.5;" x1="3409" x2="3629" y1="101.7656" y2="101.7656"/></g><!--MD5=[c6ff7fec6a8ef07f239f69df56783780]
class stitch::block--><g id="elem_stitch::block"><rect codeLine="48" fill="#F7E5FF" height="80.5938" id="stitch::block" rx="2.5" ry="2.5" style="stroke:#181818;stroke-width:0.5;" width="155" x="3665.5" y="41"/><ellipse cx="3719.75" cy="57" fill="#ADD1B2" rx="11" ry="11" style="stroke:#181818;stroke-width:1.0;"/><path d="M3722.7188,62.6406 Q3722.1406,62.9375 3721.5,63.0859 Q3720.8594,63.2344 3720.1563,63.2344 Q3717.6563,63.2344 3716.3359,61.5859 Q3715.0156,59.9375 3715.0156,56.8125 Q3715.0156,53.6875 3716.3359,52.0313 Q3717.6563,50.375 3720.1563,50.375 Q3720.8594,50.375 3721.5078,50.5313 Q3722.1563,50.6875 3722.7188,50.9844 L3722.7188,53.7031 Q3722.0938,53.125 3721.5,52.8516 Q3720.9063,52.5781 3720.2813,52.5781 Q3718.9375,52.5781 3718.25,53.6484 Q3717.5625,54.7188 3717.5625,56.8125 Q3717.5625,58.9063 3718.25,59.9766 Q3718.9375,61.0469 3720.2813,61.0469 Q3720.9063,61.0469 3721.5,60.7734 Q3722.0938,60.5 3722.7188,59.9219 L3722.7188,62.6406 Z " fill="#000000"/><text fill="#000000" font-family="sans-serif" font-size="14" lengthAdjust="spacing" textLength="38" x="3740.25" y="61.8467">block</text><line style="stroke:#181818;stroke-width:0.5;" x1="3666.5" x2="3819.5" y1="73" y2="73"/><ellipse cx="3676.5" cy="86.6484" fill="none" rx="3" ry="3" style="stroke:#038048;stroke-width:1.0;"/><text fill="#000000" font-family="sans-serif" font-size="14" lengthAdjust="spacing" textLength="118" x="3685.5" y="89.9951">type block_types</text><ellipse cx="3676.5" cy="102.9453" fill="none" rx="3" ry="3" style="stroke:#038048;stroke-width:1.0;"/><text fill="#000000" font-family="sans-serif" font-size="14" lengthAdjust="spacing" textLength="129" x="3685.5" y="106.292">content std::string</text><line style="stroke:#181818;stroke-width:0.5;" x1="3666.5" x2="3819.5" y1="113.5938" y2="113.5938"/></g><!--MD5=[79290bda54e415bd3e329928675d72d8]
class stitch::text_template--><g id="elem_stitch::text_template"><rect codeLine="53" fill="#F7E5FF" height="88.8594" id="stitch::text_template" rx="2.5" ry="2.5" style="stroke:#181818;stroke-width:0.5;" width="205" x="3021.5" y="217"/><ellipse cx="3054.5" cy="237.1328" fill="#ADD1B2" rx="11" ry="11" style="stroke:#181818;stroke-width:1.0;"/><path d="M3057.4688,242.7734 Q3056.8906,243.0703 3056.25,243.2188 Q3055.6094,243.3672 3054.9063,243.3672 Q3052.4063,243.3672 3051.0859,241.7188 Q3049.7656,240.0703 3049.7656,236.9453 Q3049.7656,233.8203 3051.0859,232.1641 Q3052.4063,230.5078 3054.9063,230.5078 Q3055.6094,230.5078 3056.2578,230.6641 Q3056.9063,230.8203 3057.4688,231.1172 L3057.4688,233.8359 Q3056.8438,233.2578 3056.25,232.9844 Q3055.6563,232.7109 3055.0313,232.7109 Q3053.6875,232.7109 3053,233.7813 Q3052.3125,234.8516 3052.3125,236.9453 Q3052.3125,239.0391 3053,240.1094 Q3053.6875,241.1797 3055.0313,241.1797 Q3055.6563,241.1797 3056.25,240.9063 Q3056.8438,240.6328 3057.4688,240.0547 L3057.4688,242.7734 Z " fill="#000000"/><text fill="#000000" font-family="sans-serif" font-size="12" font-style="italic" lengthAdjust="spacing" textLength="137" x="3070.5" y="233.1387">«ConfigurableViaKvps»</text><text fill="#000000" font-family="sans-serif" font-size="14" lengthAdjust="spacing" textLength="98" x="3090" y="248.9639">text_template</text><line style="stroke:#181818;stroke-width:0.5;" x1="3022.5" x2="3225.5" y1="257.2656" y2="257.2656"/><ellipse cx="3032.5" cy="270.9141" fill="none" rx="3" ry="3" style="stroke:#038048;stroke-width:1.0;"/><text fill="#000000" font-family="sans-serif" font-size="14" lengthAdjust="spacing" textLength="150" x="3041.5" y="274.2607">properties properties</text><ellipse cx="3032.5" cy="287.2109" fill="none" rx="3" ry="3" style="stroke:#038048;stroke-width:1.0;"/><text fill="#000000" font-family="sans-serif" font-size="14" lengthAdjust="spacing" textLength="179" x="3041.5" y="290.5576">body text_template_body</text><line style="stroke:#181818;stroke-width:0.5;" x1="3022.5" x2="3225.5" y1="297.8594" y2="297.8594"/></g><g id="elem_stitch::GMN23"><path d="M3066.5,69 L3066.5,94.1328 A0,0 0 0 0 3066.5,94.1328 L3209.7,94.1328 L3147.58,216.79 L3217.7,94.1328 L3373.5,94.1328 A0,0 0 0 0 3373.5,94.1328 L3373.5,79 L3363.5,69 L3066.5,69 A0,0 0 0 0 3066.5,69 " fill="#FEFFDD" style="stroke:#181818;stroke-width:0.5;"/><path d="M3363.5,69 L3363.5,79 L3373.5,79 L3363.5,69 " fill="#FEFFDD" style="stroke:#181818;stroke-width:0.5;"/><text fill="#000000" font-family="sans-serif" font-size="13" lengthAdjust="spacing" textLength="286" x="3072.5" y="86.0669">Domain representation of a stitch template.</text></g><!--MD5=[cd8e9796900d8ba1eb07c7ee908e5f5f]
class stitch::formatter--><g id="elem_stitch::formatter"><rect codeLine="62" fill="#FFFACD" height="56.2656" id="stitch::formatter" rx="2.5" ry="2.5" style="stroke:#181818;stroke-width:0.5;" width="222" x="3856" y="53.5"/><ellipse cx="3871" cy="73.6328" fill="#ADD1B2" rx="11" ry="11" style="stroke:#181818;stroke-width:1.0;"/><path d="M3873.9688,79.2734 Q3873.3906,79.5703 3872.75,79.7188 Q3872.1094,79.8672 3871.4063,79.8672 Q3868.9063,79.8672 3867.5859,78.2188 Q3866.2656,76.5703 3866.2656,73.4453 Q3866.2656,70.3203 3867.5859,68.6641 Q3868.9063,67.0078 3871.4063,67.0078 Q3872.1094,67.0078 3872.7578,67.1641 Q3873.4063,67.3203 3873.9688,67.6172 L3873.9688,70.3359 Q3873.3438,69.7578 3872.75,69.4844 Q3872.1563,69.2109 3871.5313,69.2109 Q3870.1875,69.2109 3869.5,70.2813 Q3868.8125,71.3516 3868.8125,73.4453 Q3868.8125,75.5391 3869.5,76.6094 Q3870.1875,77.6797 3871.5313,77.6797 Q3872.1563,77.6797 3872.75,77.4063 Q3873.3438,77.1328 3873.9688,76.5547 L3873.9688,79.2734 Z " fill="#000000"/><text fill="#000000" font-family="sans-serif" font-size="12" font-style="italic" lengthAdjust="spacing" textLength="194" x="3883" y="69.6387">«dogen::handcrafted::typeable»</text><text fill="#000000" font-family="sans-serif" font-size="14" lengthAdjust="spacing" textLength="68" x="3946" y="85.4639">formatter</text><line style="stroke:#181818;stroke-width:0.5;" x1="3857" x2="4077" y1="93.7656" y2="93.7656"/><line style="stroke:#181818;stroke-width:0.5;" x1="3857" x2="4077" y1="101.7656" y2="101.7656"/></g><!--MD5=[ca5c199dc9cb2334a69b41571a6b318a]
class stitch::parsing_error--><g id="elem_stitch::parsing_error"><rect codeLine="65" fill="#E8C2F8" height="56.2656" id="stitch::parsing_error" rx="2.5" ry="2.5" style="stroke:#181818;stroke-width:0.5;" width="142" x="2844" y="233.5"/><ellipse cx="2859" cy="253.6328" fill="#ADD1B2" rx="11" ry="11" style="stroke:#181818;stroke-width:1.0;"/><path d="M2861.9688,259.2734 Q2861.3906,259.5703 2860.75,259.7188 Q2860.1094,259.8672 2859.4063,259.8672 Q2856.9063,259.8672 2855.5859,258.2188 Q2854.2656,256.5703 2854.2656,253.4453 Q2854.2656,250.3203 2855.5859,248.6641 Q2856.9063,247.0078 2859.4063,247.0078 Q2860.1094,247.0078 2860.7578,247.1641 Q2861.4063,247.3203 2861.9688,247.6172 L2861.9688,250.3359 Q2861.3438,249.7578 2860.75,249.4844 Q2860.1563,249.2109 2859.5313,249.2109 Q2858.1875,249.2109 2857.5,250.2813 Q2856.8125,251.3516 2856.8125,253.4453 Q2856.8125,255.5391 2857.5,256.6094 Q2858.1875,257.6797 2859.5313,257.6797 Q2860.1563,257.6797 2860.75,257.4063 Q2861.3438,257.1328 2861.9688,256.5547 L2861.9688,259.2734 Z " fill="#000000"/><text fill="#000000" font-family="sans-serif" font-size="12" font-style="italic" lengthAdjust="spacing" textLength="114" x="2871" y="249.6387">«masd::exception»</text><text fill="#000000" font-family="sans-serif" font-size="14" lengthAdjust="spacing" textLength="96" x="2880" y="265.4639">parsing_error</text><line style="stroke:#181818;stroke-width:0.5;" x1="2845" x2="2985" y1="273.7656" y2="273.7656"/><line style="stroke:#181818;stroke-width:0.5;" x1="2845" x2="2985" y1="281.7656" y2="281.7656"/></g><g id="elem_stitch::GMN28"><path d="M2799,69 L2799,94.1328 A0,0 0 0 0 2799,94.1328 L2911,94.1328 L2915,233.25 L2919,94.1328 L3031,94.1328 A0,0 0 0 0 3031,94.1328 L3031,79 L3021,69 L2799,69 A0,0 0 0 0 2799,69 " fill="#FEFFDD" style="stroke:#181818;stroke-width:0.5;"/><path d="M3021,69 L3021,79 L3031,79 L3021,69 " fill="#FEFFDD" style="stroke:#181818;stroke-width:0.5;"/><text fill="#000000" font-family="sans-serif" font-size="13" lengthAdjust="spacing" textLength="211" x="2805" y="86.0669">An error occurred whilst parsing.</text></g><!--MD5=[e194cfafe343b608f0b5abf872d52ff8]
class stitch::formatting_error--><g id="elem_stitch::formatting_error"><rect codeLine="72" fill="#E8C2F8" height="56.2656" id="stitch::formatting_error" rx="2.5" ry="2.5" style="stroke:#181818;stroke-width:0.5;" width="150" x="2659" y="233.5"/><ellipse cx="2674" cy="253.6328" fill="#ADD1B2" rx="11" ry="11" style="stroke:#181818;stroke-width:1.0;"/><path d="M2676.9688,259.2734 Q2676.3906,259.5703 2675.75,259.7188 Q2675.1094,259.8672 2674.4063,259.8672 Q2671.9063,259.8672 2670.5859,258.2188 Q2669.2656,256.5703 2669.2656,253.4453 Q2669.2656,250.3203 2670.5859,248.6641 Q2671.9063,247.0078 2674.4063,247.0078 Q2675.1094,247.0078 2675.7578,247.1641 Q2676.4063,247.3203 2676.9688,247.6172 L2676.9688,250.3359 Q2676.3438,249.7578 2675.75,249.4844 Q2675.1563,249.2109 2674.5313,249.2109 Q2673.1875,249.2109 2672.5,250.2813 Q2671.8125,251.3516 2671.8125,253.4453 Q2671.8125,255.5391 2672.5,256.6094 Q2673.1875,257.6797 2674.5313,257.6797 Q2675.1563,257.6797 2675.75,257.4063 Q2676.3438,257.1328 2676.9688,256.5547 L2676.9688,259.2734 Z " fill="#000000"/><text fill="#000000" font-family="sans-serif" font-size="12" font-style="italic" lengthAdjust="spacing" textLength="114" x="2690" y="249.6387">«masd::exception»</text><text fill="#000000" font-family="sans-serif" font-size="14" lengthAdjust="spacing" textLength="118" x="2688" y="265.4639">formatting_error</text><line style="stroke:#181818;stroke-width:0.5;" x1="2660" x2="2808" y1="273.7656" y2="273.7656"/><line style="stroke:#181818;stroke-width:0.5;" x1="2660" x2="2808" y1="281.7656" y2="281.7656"/></g><g id="elem_stitch::GMN32"><path d="M2510.5,69 L2510.5,94.1328 A0,0 0 0 0 2510.5,94.1328 L2639.36,94.1328 L2719.15,233.25 L2647.36,94.1328 L2763.5,94.1328 A0,0 0 0 0 2763.5,94.1328 L2763.5,79 L2753.5,69 L2510.5,69 A0,0 0 0 0 2510.5,69 " fill="#FEFFDD" style="stroke:#181818;stroke-width:0.5;"/><path d="M2753.5,69 L2753.5,79 L2763.5,79 L2753.5,69 " fill="#FEFFDD" style="stroke:#181818;stroke-width:0.5;"/><text fill="#000000" font-family="sans-serif" font-size="13" lengthAdjust="spacing" textLength="232" x="2516.5" y="86.0669">An error occurred whilst formatting.</text></g><!--MD5=[e85cc89b36fb1eea871b5505e20b412d]
class stitch::properties--><g id="elem_stitch::properties"><rect codeLine="79" fill="#F7E5FF" height="129.4844" id="stitch::properties" rx="2.5" ry="2.5" style="stroke:#181818;stroke-width:0.5;" width="421" x="3261.5" y="197"/><ellipse cx="3431.25" cy="213" fill="#ADD1B2" rx="11" ry="11" style="stroke:#181818;stroke-width:1.0;"/><path d="M3434.2188,218.6406 Q3433.6406,218.9375 3433,219.0859 Q3432.3594,219.2344 3431.6563,219.2344 Q3429.1563,219.2344 3427.8359,217.5859 Q3426.5156,215.9375 3426.5156,212.8125 Q3426.5156,209.6875 3427.8359,208.0313 Q3429.1563,206.375 3431.6563,206.375 Q3432.3594,206.375 3433.0078,206.5313 Q3433.6563,206.6875 3434.2188,206.9844 L3434.2188,209.7031 Q3433.5938,209.125 3433,208.8516 Q3432.4063,208.5781 3431.7813,208.5781 Q3430.4375,208.5781 3429.75,209.6484 Q3429.0625,210.7188 3429.0625,212.8125 Q3429.0625,214.9063 3429.75,215.9766 Q3430.4375,217.0469 3431.7813,217.0469 Q3432.4063,217.0469 3433,216.7734 Q3433.5938,216.5 3434.2188,215.9219 L3434.2188,218.6406 Z " fill="#000000"/><text fill="#000000" font-family="sans-serif" font-size="14" lengthAdjust="spacing" textLength="73" x="3451.75" y="217.8467">properties</text><line style="stroke:#181818;stroke-width:0.5;" x1="3262.5" x2="3681.5" y1="229" y2="229"/><ellipse cx="3272.5" cy="242.6484" fill="none" rx="3" ry="3" style="stroke:#038048;stroke-width:1.0;"/><text fill="#000000" font-family="sans-serif" font-size="14" lengthAdjust="spacing" textLength="238" x="3281.5" y="245.9951">stream_variable_name std::string</text><ellipse cx="3272.5" cy="258.9453" fill="none" rx="3" ry="3" style="stroke:#038048;stroke-width:1.0;"/><text fill="#000000" font-family="sans-serif" font-size="14" lengthAdjust="spacing" textLength="320" x="3281.5" y="262.292">inclusion_dependencies std::list&lt;std::string&gt;</text><ellipse cx="3272.5" cy="275.2422" fill="none" rx="3" ry="3" style="stroke:#038048;stroke-width:1.0;"/><text fill="#000000" font-family="sans-serif" font-size="14" lengthAdjust="spacing" textLength="322" x="3281.5" y="278.5889">containing_namespaces std::list&lt;std::string&gt;</text><ellipse cx="3272.5" cy="291.5391" fill="none" rx="3" ry="3" style="stroke:#038048;stroke-width:1.0;"/><text fill="#000000" font-family="sans-serif" font-size="14" lengthAdjust="spacing" textLength="179" x="3281.5" y="294.8857">wale_template std::string</text><ellipse cx="3272.5" cy="307.8359" fill="none" rx="3" ry="3" style="stroke:#038048;stroke-width:1.0;"/><text fill="#000000" font-family="sans-serif" font-size="14" lengthAdjust="spacing" textLength="395" x="3281.5" y="311.1826">wale_kvps std::unordered_map&lt;std::string, std::string&gt;</text><line style="stroke:#181818;stroke-width:0.5;" x1="3262.5" x2="3681.5" y1="318.4844" y2="318.4844"/></g><!--MD5=[7725441a3625ab060a70eaee7364697b]
class stitch::line--><g id="elem_stitch::line"><rect codeLine="87" fill="#F7E5FF" height="64.2969" id="stitch::line" rx="2.5" ry="2.5" style="stroke:#181818;stroke-width:0.5;" width="188" x="3718" y="229.5"/><ellipse cx="3794.75" cy="245.5" fill="#ADD1B2" rx="11" ry="11" style="stroke:#181818;stroke-width:1.0;"/><path d="M3797.7188,251.1406 Q3797.1406,251.4375 3796.5,251.5859 Q3795.8594,251.7344 3795.1563,251.7344 Q3792.6563,251.7344 3791.3359,250.0859 Q3790.0156,248.4375 3790.0156,245.3125 Q3790.0156,242.1875 3791.3359,240.5313 Q3792.6563,238.875 3795.1563,238.875 Q3795.8594,238.875 3796.5078,239.0313 Q3797.1563,239.1875 3797.7188,239.4844 L3797.7188,242.2031 Q3797.0938,241.625 3796.5,241.3516 Q3795.9063,241.0781 3795.2813,241.0781 Q3793.9375,241.0781 3793.25,242.1484 Q3792.5625,243.2188 3792.5625,245.3125 Q3792.5625,247.4063 3793.25,248.4766 Q3793.9375,249.5469 3795.2813,249.5469 Q3795.9063,249.5469 3796.5,249.2734 Q3797.0938,249 3797.7188,248.4219 L3797.7188,251.1406 Z " fill="#000000"/><text fill="#000000" font-family="sans-serif" font-size="14" lengthAdjust="spacing" textLength="26" x="3815.25" y="250.3467">line</text><line style="stroke:#181818;stroke-width:0.5;" x1="3719" x2="3905" y1="261.5" y2="261.5"/><ellipse cx="3729" cy="275.1484" fill="none" rx="3" ry="3" style="stroke:#038048;stroke-width:1.0;"/><text fill="#000000" font-family="sans-serif" font-size="14" lengthAdjust="spacing" textLength="162" x="3738" y="278.4951">blocks std::list&lt;block&gt;</text><line style="stroke:#181818;stroke-width:0.5;" x1="3719" x2="3905" y1="285.7969" y2="285.7969"/></g><!--MD5=[262a6735abe294585b874b18f44f21e0]
class stitch::block_types--><g id="elem_stitch::block_types"><rect codeLine="91" fill="#F2DAFD" height="121.4531" id="stitch::block_types" rx="2.5" ry="2.5" style="stroke:#181818;stroke-width:0.5;" width="191" x="3941.5" y="201"/><ellipse cx="3970.45" cy="221.1328" fill="#EB937F" rx="11" ry="11" style="stroke:#181818;stroke-width:1.0;"/><path d="M3974.5594,227.1328 L3966.8406,227.1328 L3966.8406,214.7422 L3974.5594,214.7422 L3974.5594,216.8984 L3969.2938,216.8984 L3969.2938,219.5703 L3974.0594,219.5703 L3974.0594,221.7266 L3969.2938,221.7266 L3969.2938,224.9766 L3974.5594,224.9766 L3974.5594,227.1328 Z " fill="#000000"/><text fill="#000000" font-family="sans-serif" font-size="12" font-style="italic" lengthAdjust="spacing" textLength="132" x="3985.55" y="217.1387">«masd::enumeration»</text><text fill="#000000" font-family="sans-serif" font-size="14" lengthAdjust="spacing" textLength="83" x="4010.05" y="232.9639">block_types</text><line style="stroke:#181818;stroke-width:0.5;" x1="3942.5" x2="4131.5" y1="241.2656" y2="241.2656"/><ellipse cx="3952.5" cy="254.9141" fill="none" rx="3" ry="3" style="stroke:#038048;stroke-width:1.0;"/><text fill="#000000" font-family="sans-serif" font-size="14" lengthAdjust="spacing" textLength="72" x="3961.5" y="258.2607">text_block</text><ellipse cx="3952.5" cy="271.2109" fill="none" rx="3" ry="3" style="stroke:#038048;stroke-width:1.0;"/><text fill="#000000" font-family="sans-serif" font-size="14" lengthAdjust="spacing" textLength="165" x="3961.5" y="274.5576">standard_control_block</text><ellipse cx="3952.5" cy="287.5078" fill="none" rx="3" ry="3" style="stroke:#038048;stroke-width:1.0;"/><text fill="#000000" font-family="sans-serif" font-size="14" lengthAdjust="spacing" textLength="122" x="3961.5" y="290.8545">expression_block</text><ellipse cx="3952.5" cy="303.8047" fill="none" rx="3" ry="3" style="stroke:#038048;stroke-width:1.0;"/><text fill="#000000" font-family="sans-serif" font-size="14" lengthAdjust="spacing" textLength="103" x="3961.5" y="307.1514">variable_block</text><line style="stroke:#181818;stroke-width:0.5;" x1="3942.5" x2="4131.5" y1="314.4531" y2="314.4531"/></g><!--MD5=[edb4442cf6f04c2980b84cfac303ada0]
class stitch::instantiator--><g id="elem_stitch::instantiator"><rect codeLine="98" fill="#FFFACD" height="56.2656" id="stitch::instantiator" rx="2.5" ry="2.5" style="stroke:#181818;stroke-width:0.5;" width="222" x="3208" y="411"/><ellipse cx="3223" cy="431.1328" fill="#ADD1B2" rx="11" ry="11" style="stroke:#181818;stroke-width:1.0;"/><path d="M3225.9688,436.7734 Q3225.3906,437.0703 3224.75,437.2188 Q3224.1094,437.3672 3223.4063,437.3672 Q3220.9063,437.3672 3219.5859,435.7188 Q3218.2656,434.0703 3218.2656,430.9453 Q3218.2656,427.8203 3219.5859,426.1641 Q3220.9063,424.5078 3223.4063,424.5078 Q3224.1094,424.5078 3224.7578,424.6641 Q3225.4063,424.8203 3225.9688,425.1172 L3225.9688,427.8359 Q3225.3438,427.2578 3224.75,426.9844 Q3224.1563,426.7109 3223.5313,426.7109 Q3222.1875,426.7109 3221.5,427.7813 Q3220.8125,428.8516 3220.8125,430.9453 Q3220.8125,433.0391 3221.5,434.1094 Q3222.1875,435.1797 3223.5313,435.1797 Q3224.1563,435.1797 3224.75,434.9063 Q3225.3438,434.6328 3225.9688,434.0547 L3225.9688,436.7734 Z " fill="#000000"/><text fill="#000000" font-family="sans-serif" font-size="12" font-style="italic" lengthAdjust="spacing" textLength="194" x="3235" y="427.1387">«dogen::handcrafted::typeable»</text><text fill="#000000" font-family="sans-serif" font-size="14" lengthAdjust="spacing" textLength="81" x="3291.5" y="442.9639">instantiator</text><line style="stroke:#181818;stroke-width:0.5;" x1="3209" x2="3429" y1="451.2656" y2="451.2656"/><line style="stroke:#181818;stroke-width:0.5;" x1="3209" x2="3429" y1="459.2656" y2="459.2656"/></g><!--MD5=[b918d947c2f4e4a06248cb590094940c]
class stitch::text_template_body--><g id="elem_stitch::text_template_body"><rect codeLine="101" fill="#F7E5FF" height="80.5938" id="stitch::text_template_body" rx="2.5" ry="2.5" style="stroke:#181818;stroke-width:0.5;" width="469" x="3465.5" y="398.5"/><ellipse cx="3625.75" cy="414.5" fill="#ADD1B2" rx="11" ry="11" style="stroke:#181818;stroke-width:1.0;"/><path d="M3628.7188,420.1406 Q3628.1406,420.4375 3627.5,420.5859 Q3626.8594,420.7344 3626.1563,420.7344 Q3623.6563,420.7344 3622.3359,419.0859 Q3621.0156,417.4375 3621.0156,414.3125 Q3621.0156,411.1875 3622.3359,409.5313 Q3623.6563,407.875 3626.1563,407.875 Q3626.8594,407.875 3627.5078,408.0313 Q3628.1563,408.1875 3628.7188,408.4844 L3628.7188,411.2031 Q3628.0938,410.625 3627.5,410.3516 Q3626.9063,410.0781 3626.2813,410.0781 Q3624.9375,410.0781 3624.25,411.1484 Q3623.5625,412.2188 3623.5625,414.3125 Q3623.5625,416.4063 3624.25,417.4766 Q3624.9375,418.5469 3626.2813,418.5469 Q3626.9063,418.5469 3627.5,418.2734 Q3628.0938,418 3628.7188,417.4219 L3628.7188,420.1406 Z " fill="#000000"/><text fill="#000000" font-family="sans-serif" font-size="14" lengthAdjust="spacing" textLength="140" x="3646.25" y="419.3467">text_template_body</text><line style="stroke:#181818;stroke-width:0.5;" x1="3466.5" x2="3933.5" y1="430.5" y2="430.5"/><ellipse cx="3476.5" cy="444.1484" fill="none" rx="3" ry="3" style="stroke:#038048;stroke-width:1.0;"/><text fill="#000000" font-family="sans-serif" font-size="14" lengthAdjust="spacing" textLength="443" x="3485.5" y="447.4951">tagged_values std::list&lt;identification::entities::tagged_value&gt;</text><ellipse cx="3476.5" cy="460.4453" fill="none" rx="3" ry="3" style="stroke:#038048;stroke-width:1.0;"/><text fill="#000000" font-family="sans-serif" font-size="14" lengthAdjust="spacing" textLength="138" x="3485.5" y="463.792">lines std::list&lt;line&gt;</text><line style="stroke:#181818;stroke-width:0.5;" x1="3466.5" x2="3933.5" y1="471.0938" y2="471.0938"/></g><!--MD5=[c47f1d475d193793092ee106b2a5fcdb]
class stitch::instantiation_error--><g id="elem_stitch::instantiation_error"><rect codeLine="106" fill="#E8C2F8" height="56.2656" id="stitch::instantiation_error" rx="2.5" ry="2.5" style="stroke:#181818;stroke-width:0.5;" width="163" x="3969.5" y="411"/><ellipse cx="3984.5" cy="431.1328" fill="#ADD1B2" rx="11" ry="11" style="stroke:#181818;stroke-width:1.0;"/><path d="M3987.4688,436.7734 Q3986.8906,437.0703 3986.25,437.2188 Q3985.6094,437.3672 3984.9063,437.3672 Q3982.4063,437.3672 3981.0859,435.7188 Q3979.7656,434.0703 3979.7656,430.9453 Q3979.7656,427.8203 3981.0859,426.1641 Q3982.4063,424.5078 3984.9063,424.5078 Q3985.6094,424.5078 3986.2578,424.6641 Q3986.9063,424.8203 3987.4688,425.1172 L3987.4688,427.8359 Q3986.8438,427.2578 3986.25,426.9844 Q3985.6563,426.7109 3985.0313,426.7109 Q3983.6875,426.7109 3983,427.7813 Q3982.3125,428.8516 3982.3125,430.9453 Q3982.3125,433.0391 3983,434.1094 Q3983.6875,435.1797 3985.0313,435.1797 Q3985.6563,435.1797 3986.25,434.9063 Q3986.8438,434.6328 3987.4688,434.0547 L3987.4688,436.7734 Z " fill="#000000"/><text fill="#000000" font-family="sans-serif" font-size="12" font-style="italic" lengthAdjust="spacing" textLength="114" x="4007" y="427.1387">«masd::exception»</text><text fill="#000000" font-family="sans-serif" font-size="14" lengthAdjust="spacing" textLength="131" x="3998.5" y="442.9639">instantiation_error</text><line style="stroke:#181818;stroke-width:0.5;" x1="3970.5" x2="4131.5" y1="451.2656" y2="451.2656"/><line style="stroke:#181818;stroke-width:0.5;" x1="3970.5" x2="4131.5" y1="459.2656" y2="459.2656"/></g><!--MD5=[5c8f90d4154d3025d485e226ceaf4328]
class stitch::features--><g id="elem_stitch::features"><rect codeLine="109" fill="#BAD7D7" height="154.0469" id="stitch::features" rx="2.5" ry="2.5" style="stroke:#181818;stroke-width:0.5;" width="420" x="2204" y="184.5"/><ellipse cx="2305.75" cy="204.6328" fill="#ADD1B2" rx="11" ry="11" style="stroke:#181818;stroke-width:1.0;"/><path d="M2308.7188,210.2734 Q2308.1406,210.5703 2307.5,210.7188 Q2306.8594,210.8672 2306.1563,210.8672 Q2303.6563,210.8672 2302.3359,209.2188 Q2301.0156,207.5703 2301.0156,204.4453 Q2301.0156,201.3203 2302.3359,199.6641 Q2303.6563,198.0078 2306.1563,198.0078 Q2306.8594,198.0078 2307.5078,198.1641 Q2308.1563,198.3203 2308.7188,198.6172 L2308.7188,201.3359 Q2308.0938,200.7578 2307.5,200.4844 Q2306.9063,200.2109 2306.2813,200.2109 Q2304.9375,200.2109 2304.25,201.2813 Q2303.5625,202.3516 2303.5625,204.4453 Q2303.5625,206.5391 2304.25,207.6094 Q2304.9375,208.6797 2306.2813,208.6797 Q2306.9063,208.6797 2307.5,208.4063 Q2308.0938,208.1328 2308.7188,207.5547 L2308.7188,210.2734 Z " fill="#000000"/><text fill="#000000" font-family="sans-serif" font-size="12" font-style="italic" lengthAdjust="spacing" textLength="212" x="2324.25" y="200.6387">«masd::variability::feature_bundle»</text><text fill="#000000" font-family="sans-serif" font-size="14" lengthAdjust="spacing" textLength="59" x="2400.75" y="216.4639">features</text><line style="stroke:#181818;stroke-width:0.5;" x1="2205" x2="2623" y1="224.7656" y2="224.7656"/><ellipse cx="2215" cy="238.4141" fill="none" rx="3" ry="3" style="stroke:#038048;stroke-width:1.0;"/><text fill="#000000" font-family="sans-serif" font-size="14" lengthAdjust="spacing" textLength="323" x="2224" y="241.7607">stream_variable_name masd::variability::text</text><ellipse cx="2215" cy="254.7109" fill="none" rx="3" ry="3" style="stroke:#038048;stroke-width:1.0;"/><text fill="#000000" font-family="sans-serif" font-size="14" lengthAdjust="spacing" textLength="338" x="2224" y="258.0576">relative_output_directory masd::variability::text</text><ellipse cx="2215" cy="271.0078" fill="none" rx="3" ry="3" style="stroke:#038048;stroke-width:1.0;"/><text fill="#000000" font-family="sans-serif" font-size="14" lengthAdjust="spacing" textLength="394" x="2224" y="274.3545">inclusion_dependency masd::variability::text_collection</text><ellipse cx="2215" cy="287.3047" fill="none" rx="3" ry="3" style="stroke:#038048;stroke-width:1.0;"/><text fill="#000000" font-family="sans-serif" font-size="14" lengthAdjust="spacing" textLength="332" x="2224" y="290.6514">containing_namespaces masd::variability::text</text><ellipse cx="2215" cy="303.6016" fill="none" rx="3" ry="3" style="stroke:#038048;stroke-width:1.0;"/><text fill="#000000" font-family="sans-serif" font-size="14" lengthAdjust="spacing" textLength="295" x="2224" y="306.9482">wale.text_template masd::variability::text</text><ellipse cx="2215" cy="319.8984" fill="none" rx="3" ry="3" style="stroke:#038048;stroke-width:1.0;"/><text fill="#000000" font-family="sans-serif" font-size="14" lengthAdjust="spacing" textLength="301" x="2224" y="323.2451">wale.kvp masd::variability::key_value_pair</text><line style="stroke:#181818;stroke-width:0.5;" x1="2205" x2="2623" y1="330.5469" y2="330.5469"/></g><g id="elem_stitch::GMN42"><path d="M2280.5,69 L2280.5,94.1328 A0,0 0 0 0 2280.5,94.1328 L2376.36,94.1328 L2398.61,184.4 L2384.36,94.1328 L2475.5,94.1328 A0,0 0 0 0 2475.5,94.1328 L2475.5,79 L2465.5,69 L2280.5,69 A0,0 0 0 0 2280.5,69 " fill="#FEFFDD" style="stroke:#181818;stroke-width:0.5;"/><path d="M2465.5,69 L2465.5,79 L2475.5,79 L2465.5,69 " fill="#FEFFDD" style="stroke:#181818;stroke-width:0.5;"/><text fill="#000000" font-family="sans-serif" font-size="13" lengthAdjust="spacing" textLength="174" x="2286.5" y="86.0669">Stitch templating features.</text></g><!--MD5=[866e4cc6642a3eaee8059e023a522058]
class helpers::kvp_validator--><g id="elem_helpers::kvp_validator"><rect codeLine="134" fill="#FFFACD" height="56.2656" id="helpers::kvp_validator" rx="2.5" ry="2.5" style="stroke:#181818;stroke-width:0.5;" width="222" x="5662" y="53.5"/><ellipse cx="5677" cy="73.6328" fill="#ADD1B2" rx="11" ry="11" style="stroke:#181818;stroke-width:1.0;"/><path d="M5679.9688,79.2734 Q5679.3906,79.5703 5678.75,79.7188 Q5678.1094,79.8672 5677.4063,79.8672 Q5674.9063,79.8672 5673.5859,78.2188 Q5672.2656,76.5703 5672.2656,73.4453 Q5672.2656,70.3203 5673.5859,68.6641 Q5674.9063,67.0078 5677.4063,67.0078 Q5678.1094,67.0078 5678.7578,67.1641 Q5679.4063,67.3203 5679.9688,67.6172 L5679.9688,70.3359 Q5679.3438,69.7578 5678.75,69.4844 Q5678.1563,69.2109 5677.5313,69.2109 Q5676.1875,69.2109 5675.5,70.2813 Q5674.8125,71.3516 5674.8125,73.4453 Q5674.8125,75.5391 5675.5,76.6094 Q5676.1875,77.6797 5677.5313,77.6797 Q5678.1563,77.6797 5678.75,77.4063 Q5679.3438,77.1328 5679.9688,76.5547 L5679.9688,79.2734 Z " fill="#000000"/><text fill="#000000" font-family="sans-serif" font-size="12" font-style="italic" lengthAdjust="spacing" textLength="194" x="5689" y="69.6387">«dogen::handcrafted::typeable»</text><text fill="#000000" font-family="sans-serif" font-size="14" lengthAdjust="spacing" textLength="95" x="5738.5" y="85.4639">kvp_validator</text><line style="stroke:#181818;stroke-width:0.5;" x1="5663" x2="5883" y1="93.7656" y2="93.7656"/><line style="stroke:#181818;stroke-width:0.5;" x1="5663" x2="5883" y1="101.7656" y2="101.7656"/></g><!--MD5=[9049f6461a89c250560f1393b153587a]
class helpers::validation_error--><g id="elem_helpers::validation_error"><rect codeLine="137" fill="#E8C2F8" height="56.2656" id="helpers::validation_error" rx="2.5" ry="2.5" style="stroke:#181818;stroke-width:0.5;" width="145" x="5409.5" y="233.5"/><ellipse cx="5424.5" cy="253.6328" fill="#ADD1B2" rx="11" ry="11" style="stroke:#181818;stroke-width:1.0;"/><path d="M5427.4688,259.2734 Q5426.8906,259.5703 5426.25,259.7188 Q5425.6094,259.8672 5424.9063,259.8672 Q5422.4063,259.8672 5421.0859,258.2188 Q5419.7656,256.5703 5419.7656,253.4453 Q5419.7656,250.3203 5421.0859,248.6641 Q5422.4063,247.0078 5424.9063,247.0078 Q5425.6094,247.0078 5426.2578,247.1641 Q5426.9063,247.3203 5427.4688,247.6172 L5427.4688,250.3359 Q5426.8438,249.7578 5426.25,249.4844 Q5425.6563,249.2109 5425.0313,249.2109 Q5423.6875,249.2109 5423,250.2813 Q5422.3125,251.3516 5422.3125,253.4453 Q5422.3125,255.5391 5423,256.6094 Q5423.6875,257.6797 5425.0313,257.6797 Q5425.6563,257.6797 5426.25,257.4063 Q5426.8438,257.1328 5427.4688,256.5547 L5427.4688,259.2734 Z " fill="#000000"/><text fill="#000000" font-family="sans-serif" font-size="12" font-style="italic" lengthAdjust="spacing" textLength="114" x="5438" y="249.6387">«masd::exception»</text><text fill="#000000" font-family="sans-serif" font-size="14" lengthAdjust="spacing" textLength="113" x="5438.5" y="265.4639">validation_error</text><line style="stroke:#181818;stroke-width:0.5;" x1="5410.5" x2="5553.5" y1="273.7656" y2="273.7656"/><line style="stroke:#181818;stroke-width:0.5;" x1="5410.5" x2="5553.5" y1="281.7656" y2="281.7656"/></g><g id="elem_helpers::GMN52"><path d="M5337,69 L5337,94.1328 A0,0 0 0 0 5337,94.1328 L5478,94.1328 L5482,233.25 L5486,94.1328 L5627,94.1328 A0,0 0 0 0 5627,94.1328 L5627,79 L5617,69 L5337,69 A0,0 0 0 0 5337,69 " fill="#FEFFDD" style="stroke:#181818;stroke-width:0.5;"/><path d="M5617,69 L5617,79 L5627,79 L5617,69 " fill="#FEFFDD" style="stroke:#181818;stroke-width:0.5;"/><text fill="#000000" font-family="sans-serif" font-size="13" lengthAdjust="spacing" textLength="269" x="5343" y="86.0669">An error occurred with the supplied KVPs.</text></g><!--MD5=[4ad5fc8d962914e3f473ff3ca3ecd07e]
class helpers::kvp_resolver--><g id="elem_helpers::kvp_resolver"><rect codeLine="144" fill="#FFFACD" height="56.2656" id="helpers::kvp_resolver" rx="2.5" ry="2.5" style="stroke:#181818;stroke-width:0.5;" width="222" x="5080" y="53.5"/><ellipse cx="5095" cy="73.6328" fill="#ADD1B2" rx="11" ry="11" style="stroke:#181818;stroke-width:1.0;"/><path d="M5097.9688,79.2734 Q5097.3906,79.5703 5096.75,79.7188 Q5096.1094,79.8672 5095.4063,79.8672 Q5092.9063,79.8672 5091.5859,78.2188 Q5090.2656,76.5703 5090.2656,73.4453 Q5090.2656,70.3203 5091.5859,68.6641 Q5092.9063,67.0078 5095.4063,67.0078 Q5096.1094,67.0078 5096.7578,67.1641 Q5097.4063,67.3203 5097.9688,67.6172 L5097.9688,70.3359 Q5097.3438,69.7578 5096.75,69.4844 Q5096.1563,69.2109 5095.5313,69.2109 Q5094.1875,69.2109 5093.5,70.2813 Q5092.8125,71.3516 5092.8125,73.4453 Q5092.8125,75.5391 5093.5,76.6094 Q5094.1875,77.6797 5095.5313,77.6797 Q5096.1563,77.6797 5096.75,77.4063 Q5097.3438,77.1328 5097.9688,76.5547 L5097.9688,79.2734 Z " fill="#000000"/><text fill="#000000" font-family="sans-serif" font-size="12" font-style="italic" lengthAdjust="spacing" textLength="194" x="5107" y="69.6387">«dogen::handcrafted::typeable»</text><text fill="#000000" font-family="sans-serif" font-size="14" lengthAdjust="spacing" textLength="90" x="5159" y="85.4639">kvp_resolver</text><line style="stroke:#181818;stroke-width:0.5;" x1="5081" x2="5301" y1="93.7656" y2="93.7656"/><line style="stroke:#181818;stroke-width:0.5;" x1="5081" x2="5301" y1="101.7656" y2="101.7656"/></g><!--MD5=[a5c36db5d1c2567d16f3982452055fdc]
class helpers::resolution_error--><g id="elem_helpers::resolution_error"><rect codeLine="147" fill="#E8C2F8" height="56.2656" id="helpers::resolution_error" rx="2.5" ry="2.5" style="stroke:#181818;stroke-width:0.5;" width="146" x="4809" y="233.5"/><ellipse cx="4824" cy="253.6328" fill="#ADD1B2" rx="11" ry="11" style="stroke:#181818;stroke-width:1.0;"/><path d="M4826.9688,259.2734 Q4826.3906,259.5703 4825.75,259.7188 Q4825.1094,259.8672 4824.4063,259.8672 Q4821.9063,259.8672 4820.5859,258.2188 Q4819.2656,256.5703 4819.2656,253.4453 Q4819.2656,250.3203 4820.5859,248.6641 Q4821.9063,247.0078 4824.4063,247.0078 Q4825.1094,247.0078 4825.7578,247.1641 Q4826.4063,247.3203 4826.9688,247.6172 L4826.9688,250.3359 Q4826.3438,249.7578 4825.75,249.4844 Q4825.1563,249.2109 4824.5313,249.2109 Q4823.1875,249.2109 4822.5,250.2813 Q4821.8125,251.3516 4821.8125,253.4453 Q4821.8125,255.5391 4822.5,256.6094 Q4823.1875,257.6797 4824.5313,257.6797 Q4825.1563,257.6797 4825.75,257.4063 Q4826.3438,257.1328 4826.9688,256.5547 L4826.9688,259.2734 Z " fill="#000000"/><text fill="#000000" font-family="sans-serif" font-size="12" font-style="italic" lengthAdjust="spacing" textLength="114" x="4838" y="249.6387">«masd::exception»</text><text fill="#000000" font-family="sans-serif" font-size="14" lengthAdjust="spacing" textLength="114" x="4838" y="265.4639">resolution_error</text><line style="stroke:#181818;stroke-width:0.5;" x1="4810" x2="4954" y1="273.7656" y2="273.7656"/><line style="stroke:#181818;stroke-width:0.5;" x1="4810" x2="4954" y1="281.7656" y2="281.7656"/></g><g id="elem_helpers::GMN57"><path d="M4718.5,69 L4718.5,94.1328 A0,0 0 0 0 4718.5,94.1328 L4878,94.1328 L4882,233.25 L4886,94.1328 L5045.5,94.1328 A0,0 0 0 0 5045.5,94.1328 L5045.5,79 L5035.5,69 L4718.5,69 A0,0 0 0 0 4718.5,69 " fill="#FEFFDD" style="stroke:#181818;stroke-width:0.5;"/><path d="M5035.5,69 L5035.5,79 L5045.5,79 L5035.5,69 " fill="#FEFFDD" style="stroke:#181818;stroke-width:0.5;"/><text fill="#000000" font-family="sans-serif" font-size="13" lengthAdjust="spacing" textLength="306" x="4724.5" y="86.0669">An error occurred when trying to resolve a key.</text></g><g id="elem_N1"><path d="M6,38.5 L6,124.1641 L436,124.1641 L436,48.5 L426,38.5 L6,38.5 " fill="#FEFFDD" style="stroke:#181818;stroke-width:0.5;"/><path d="M426,38.5 L426,48.5 L436,48.5 L426,38.5 " fill="#FEFFDD" style="stroke:#181818;stroke-width:1.0;"/><text fill="#000000" font-family="sans-serif" font-size="13" lengthAdjust="spacing" textLength="355" x="12" y="55.5669">Contains all the generic text templating infrastructure.</text><text fill="#000000" font-family="sans-serif" font-size="13" lengthAdjust="spacing" textLength="4" x="12" y="70.6997"> </text><text fill="#000000" font-family="sans-serif" font-size="13" lengthAdjust="spacing" textLength="131" x="12" y="85.8325">UML representation:</text><text fill="#000000" font-family="sans-serif" font-size="13" lengthAdjust="spacing" textLength="4" x="12" y="100.9653"> </text><text fill="#000000" font-family="sans-serif" font-size="13" lengthAdjust="spacing" textLength="409" x="12" y="116.0981">\image html dogen.templating/modeling/dogen.templating.svg</text></g><!--MD5=[de827ccd62899280f38c2ee8c0dd77f6]
class ConfigurableViaKvps--><g id="elem_ConfigurableViaKvps"><rect codeLine="124" fill="#E3B6F6" height="88.8594" id="ConfigurableViaKvps" rx="2.5" ry="2.5" style="stroke:#181818;stroke-width:0.5;" width="448" x="4200" y="217"/><ellipse cx="4345.75" cy="237.1328" fill="#ADD1B2" rx="11" ry="11" style="stroke:#181818;stroke-width:1.0;"/><path d="M4348.7188,242.7734 Q4348.1406,243.0703 4347.5,243.2188 Q4346.8594,243.3672 4346.1563,243.3672 Q4343.6563,243.3672 4342.3359,241.7188 Q4341.0156,240.0703 4341.0156,236.9453 Q4341.0156,233.8203 4342.3359,232.1641 Q4343.6563,230.5078 4346.1563,230.5078 Q4346.8594,230.5078 4347.5078,230.6641 Q4348.1563,230.8203 4348.7188,231.1172 L4348.7188,233.8359 Q4348.0938,233.2578 4347.5,232.9844 Q4346.9063,232.7109 4346.2813,232.7109 Q4344.9375,232.7109 4344.25,233.7813 Q4343.5625,234.8516 4343.5625,236.9453 Q4343.5625,239.0391 4344.25,240.1094 Q4344.9375,241.1797 4346.2813,241.1797 Q4346.9063,241.1797 4347.5,240.9063 Q4348.0938,240.6328 4348.7188,240.0547 L4348.7188,242.7734 Z " fill="#000000"/><text fill="#000000" font-family="sans-serif" font-size="12" font-style="italic" lengthAdjust="spacing" textLength="152" x="4364.25" y="233.1387">«masd::object_template»</text><text fill="#000000" font-family="sans-serif" font-size="14" lengthAdjust="spacing" textLength="148" x="4366.25" y="248.9639">ConfigurableViaKvps</text><line style="stroke:#181818;stroke-width:0.5;" x1="4201" x2="4647" y1="257.2656" y2="257.2656"/><ellipse cx="4211" cy="270.9141" fill="none" rx="3" ry="3" style="stroke:#038048;stroke-width:1.0;"/><text fill="#000000" font-family="sans-serif" font-size="14" lengthAdjust="spacing" textLength="338" x="4220" y="274.2607">expected_keys std::unordered_set&lt;std::string&gt;</text><ellipse cx="4211" cy="287.2109" fill="none" rx="3" ry="3" style="stroke:#038048;stroke-width:1.0;"/><text fill="#000000" font-family="sans-serif" font-size="14" lengthAdjust="spacing" textLength="422" x="4220" y="290.5576">supplied_kvps std::unordered_map&lt;std::string, std::string&gt;</text><line style="stroke:#181818;stroke-width:0.5;" x1="4201" x2="4647" y1="297.8594" y2="297.8594"/></g><g id="elem_GMN46"><path d="M4165,69 L4165,94.1328 A0,0 0 0 0 4165,94.1328 L4420,94.1328 L4424,216.79 L4428,94.1328 L4683,94.1328 A0,0 0 0 0 4683,94.1328 L4683,79 L4673,69 L4165,69 A0,0 0 0 0 4165,69 " fill="#FEFFDD" style="stroke:#181818;stroke-width:0.5;"/><path d="M4673,69 L4673,79 L4683,79 L4673,69 " fill="#FEFFDD" style="stroke:#181818;stroke-width:0.5;"/><text fill="#000000" font-family="sans-serif" font-size="13" lengthAdjust="spacing" textLength="497" x="4171" y="86.0669">Element has the ability to recieve configuration arguments as a set of KVPs.</text></g><!--MD5=[d54e5852ecfe164bbba509d3a9352ed8]
class initializer--><g id="elem_initializer"><rect codeLine="156" fill="#A9CDCD" height="56.2656" id="initializer" rx="2.5" ry="2.5" style="stroke:#181818;stroke-width:0.5;" width="202" x="471" y="53.5"/><ellipse cx="486" cy="73.6328" fill="#ADD1B2" rx="11" ry="11" style="stroke:#181818;stroke-width:1.0;"/><path d="M488.9688,79.2734 Q488.3906,79.5703 487.75,79.7188 Q487.1094,79.8672 486.4063,79.8672 Q483.9063,79.8672 482.5859,78.2188 Q481.2656,76.5703 481.2656,73.4453 Q481.2656,70.3203 482.5859,68.6641 Q483.9063,67.0078 486.4063,67.0078 Q487.1094,67.0078 487.7578,67.1641 Q488.4063,67.3203 488.9688,67.6172 L488.9688,70.3359 Q488.3438,69.7578 487.75,69.4844 Q487.1563,69.2109 486.5313,69.2109 Q485.1875,69.2109 484.5,70.2813 Q483.8125,71.3516 483.8125,73.4453 Q483.8125,75.5391 484.5,76.6094 Q485.1875,77.6797 486.5313,77.6797 Q487.1563,77.6797 487.75,77.4063 Q488.3438,77.1328 488.9688,76.5547 L488.9688,79.2734 Z " fill="#000000"/><text fill="#000000" font-family="sans-serif" font-size="12" font-style="italic" lengthAdjust="spacing" textLength="174" x="498" y="69.6387">«masd::variability::initializer»</text><text fill="#000000" font-family="sans-serif" font-size="14" lengthAdjust="spacing" textLength="65" x="552.5" y="85.4639">initializer</text><line style="stroke:#181818;stroke-width:0.5;" x1="472" x2="672" y1="93.7656" y2="93.7656"/><line style="stroke:#181818;stroke-width:0.5;" x1="472" x2="672" y1="101.7656" y2="101.7656"/></g><!--MD5=[4520fda4e10d4d791ce48fe025810cd4]
class main--><g id="elem_main"><rect codeLine="159" fill="#DDA9F3" height="56.2656" id="main" rx="2.5" ry="2.5" style="stroke:#181818;stroke-width:0.5;" width="267" x="87.5" y="233.5"/><ellipse cx="102.5" cy="253.6328" fill="#ADD1B2" rx="11" ry="11" style="stroke:#181818;stroke-width:1.0;"/><path d="M105.4688,259.2734 Q104.8906,259.5703 104.25,259.7188 Q103.6094,259.8672 102.9063,259.8672 Q100.4063,259.8672 99.0859,258.2188 Q97.7656,256.5703 97.7656,253.4453 Q97.7656,250.3203 99.0859,248.6641 Q100.4063,247.0078 102.9063,247.0078 Q103.6094,247.0078 104.2578,247.1641 Q104.9063,247.3203 105.4688,247.6172 L105.4688,250.3359 Q104.8438,249.7578 104.25,249.4844 Q103.6563,249.2109 103.0313,249.2109 Q101.6875,249.2109 101,250.2813 Q100.3125,251.3516 100.3125,253.4453 Q100.3125,255.5391 101,256.6094 Q101.6875,257.6797 103.0313,257.6797 Q103.6563,257.6797 104.25,257.4063 Q104.8438,257.1328 105.4688,256.5547 L105.4688,259.2734 Z " fill="#000000"/><text fill="#000000" font-family="sans-serif" font-size="12" font-style="italic" lengthAdjust="spacing" textLength="239" x="114.5" y="249.6387">«masd::entry_point, dogen::untypable»</text><text fill="#000000" font-family="sans-serif" font-size="14" lengthAdjust="spacing" textLength="36" x="216" y="265.4639">main</text><line style="stroke:#181818;stroke-width:0.5;" x1="88.5" x2="353.5" y1="273.7656" y2="273.7656"/><line style="stroke:#181818;stroke-width:0.5;" x1="88.5" x2="353.5" y1="281.7656" y2="281.7656"/></g><!--MD5=[ba83386d426114557685538e96aa6f68]
class CMakeLists--><g id="elem_CMakeLists"><rect codeLine="162" fill="#99CB99" height="56.2656" id="CMakeLists" rx="2.5" ry="2.5" style="stroke:#181818;stroke-width:0.5;" width="360" x="390" y="233.5"/><ellipse cx="405" cy="253.6328" fill="#ADD1B2" rx="11" ry="11" style="stroke:#181818;stroke-width:1.0;"/><path d="M407.9688,259.2734 Q407.3906,259.5703 406.75,259.7188 Q406.1094,259.8672 405.4063,259.8672 Q402.9063,259.8672 401.5859,258.2188 Q400.2656,256.5703 400.2656,253.4453 Q400.2656,250.3203 401.5859,248.6641 Q402.9063,247.0078 405.4063,247.0078 Q406.1094,247.0078 406.7578,247.1641 Q407.4063,247.3203 407.9688,247.6172 L407.9688,250.3359 Q407.3438,249.7578 406.75,249.4844 Q406.1563,249.2109 405.5313,249.2109 Q404.1875,249.2109 403.5,250.2813 Q402.8125,251.3516 402.8125,253.4453 Q402.8125,255.5391 403.5,256.6094 Q404.1875,257.6797 405.5313,257.6797 Q406.1563,257.6797 406.75,257.4063 Q407.3438,257.1328 407.9688,256.5547 L407.9688,259.2734 Z " fill="#000000"/><text fill="#000000" font-family="sans-serif" font-size="12" font-style="italic" lengthAdjust="spacing" textLength="332" x="417" y="249.6387">«masd::build::cmakelists, dogen::handcrafted::cmake»</text><text fill="#000000" font-family="sans-serif" font-size="14" lengthAdjust="spacing" textLength="79" x="543.5" y="265.4639">CMakeLists</text><line style="stroke:#181818;stroke-width:0.5;" x1="391" x2="749" y1="273.7656" y2="273.7656"/><line style="stroke:#181818;stroke-width:0.5;" x1="391" x2="749" y1="281.7656" y2="281.7656"/></g><!--MD5=[14a51061d9256bb50a134adc9e349be2]
@startuml
set namespaceSeparator ::
note as N1
Contains all the generic text templating infrastructure.

UML representation:

\image html dogen.templating/modeling/dogen.templating.svg
end note

namespace wale #F2F2F2 {
    class text_template <<ConfigurableViaKvps>> #F7E5FF {
        +{field} content std::string
    }

    note top of text_template
Represents a wale text template.
    end note

    class key_extractor <<dogen::handcrafted::typeable>> #FFFACD {
    }

    class instantiator <<dogen::handcrafted::typeable>> #FFFACD {
    }

    class formatter <<dogen::handcrafted::typeable>> #FFFACD {
    }

    class formatting_error <<masd::exception>> #E8C2F8 {
    }

    note top of formatting_error
An error occurred whilst formatting.
    end note

    class extraction_error <<masd::exception>> #E8C2F8 {
    }

    note top of extraction_error
An error occurred whilst extracting a key.
    end note

}

namespace stitch #F2F2F2 {
    class parser <<dogen::handcrafted::typeable>> #FFFACD {
    }

    class block #F7E5FF {
        +{field} type block_types
        +{field} content std::string
    }

    class text_template <<ConfigurableViaKvps>> #F7E5FF {
        +{field} properties properties
        +{field} body text_template_body
    }

    note top of text_template
Domain representation of a stitch template.
    end note

    class formatter <<dogen::handcrafted::typeable>> #FFFACD {
    }

    class parsing_error <<masd::exception>> #E8C2F8 {
    }

    note top of parsing_error
An error occurred whilst parsing.
    end note

    class formatting_error <<masd::exception>> #E8C2F8 {
    }

    note top of formatting_error
An error occurred whilst formatting.
    end note

    class properties #F7E5FF {
        +{field} stream_variable_name std::string
        +{field} inclusion_dependencies std::list<std::string>
        +{field} containing_namespaces std::list<std::string>
        +{field} wale_template std::string
        +{field} wale_kvps std::unordered_map<std::string, std::string>
    }

    class line #F7E5FF {
        +{field} blocks std::list<block>
    }

    enum block_types <<masd::enumeration>> #F2DAFD {
        +{field} text_block
        +{field} standard_control_block
        +{field} expression_block
        +{field} variable_block
    }

    class instantiator <<dogen::handcrafted::typeable>> #FFFACD {
    }

    class text_template_body #F7E5FF {
        +{field} tagged_values std::list<identification::entities::tagged_value>
        +{field} lines std::list<line>
    }

    class instantiation_error <<masd::exception>> #E8C2F8 {
    }

    class features <<masd::variability::feature_bundle>> #BAD7D7 {
        +{field} stream_variable_name masd::variability::text
        +{field} relative_output_directory masd::variability::text
        +{field} inclusion_dependency masd::variability::text_collection
        +{field} containing_namespaces masd::variability::text
        +{field} wale.text_template masd::variability::text
        +{field} wale.kvp masd::variability::key_value_pair
    }

    note top of features
Stitch templating features.
    end note

}

class ConfigurableViaKvps <<masd::object_template>> #E3B6F6 {
    +{field} expected_keys std::unordered_set<std::string>
    +{field} supplied_kvps std::unordered_map<std::string, std::string>
}

note top of ConfigurableViaKvps
Element has the ability to recieve configuration arguments as a set of KVPs.
end note

namespace helpers #F2F2F2 {
    class kvp_validator <<dogen::handcrafted::typeable>> #FFFACD {
    }

    class validation_error <<masd::exception>> #E8C2F8 {
    }

    note top of validation_error
An error occurred with the supplied KVPs.
    end note

    class kvp_resolver <<dogen::handcrafted::typeable>> #FFFACD {
    }

    class resolution_error <<masd::exception>> #E8C2F8 {
    }

    note top of resolution_error
An error occurred when trying to resolve a key.
    end note

}

class initializer <<masd::variability::initializer>> #A9CDCD {
}

class main <<masd::entry_point, dogen::untypable>> #DDA9F3 {
}

class CMakeLists <<masd::build::cmakelists, dogen::handcrafted::cmake>> #99CB99 {
}

@enduml

PlantUML version 1.2022.9(Tue Sep 27 17:10:06 BST 2022)
(GPL source distribution)
Java Runtime: OpenJDK Runtime Environment
JVM: OpenJDK 64-Bit Server VM
Default Encoding: UTF-8
Language: en
Country: GB
--></g></svg>