<?xml version="1.0" encoding="UTF-8" standalone="no"?><svg xmlns="http://www.w3.org/2000/svg" xmlns:xlink="http://www.w3.org/1999/xlink" contentStyleType="text/css" height="791px" preserveAspectRatio="none" style="width:5355px;height:791px;background:#FFFFFF;" version="1.1" viewBox="0 0 5355 791" width="5355px" zoomAndPan="magnify"><defs/><g><path d="M14.5,203.75 L52.5,203.75 A3.75,3.75 0 0 1 55,206.25 L62,226.0469 L1256.5,226.0469 A2.5,2.5 0 0 1 1259,228.5469 L1259,405.0781 A2.5,2.5 0 0 1 1256.5,407.5781 L14.5,407.5781 A2.5,2.5 0 0 1 12,405.0781 L12,206.25 A2.5,2.5 0 0 1 14.5,203.75 " fill="none" style="stroke:#000000;stroke-width:1.0;"/><line style="stroke:#000000;stroke-width:1.0;" x1="12" x2="62" y1="226.0469" y2="226.0469"/><text fill="#000000" font-family="sans-serif" font-size="14" font-weight="bold" lengthAdjust="spacing" textLength="37" x="16" y="218.7451">wale</text><path d="M2990.5,12 L3036.5,12 A3.75,3.75 0 0 1 3039,14.5 L3046,34.2969 L4859.1667,34.2969 A2.5,2.5 0 0 1 4861.6667,36.7969 L4861.6667,596.8281 A2.5,2.5 0 0 1 4859.1667,599.3281 L2990.5,599.3281 A2.5,2.5 0 0 1 2988,596.8281 L2988,14.5 A2.5,2.5 0 0 1 2990.5,12 " fill="none" style="stroke:#000000;stroke-width:1.0;"/><line style="stroke:#000000;stroke-width:1.0;" x1="2988" x2="3046" y1="34.2969" y2="34.2969"/><text fill="#000000" font-family="sans-serif" font-size="14" font-weight="bold" lengthAdjust="spacing" textLength="45" x="2992" y="26.9951">stitch</text><path d="M1281.5,211.8984 L1342.5,211.8984 A3.75,3.75 0 0 1 1345,214.3984 L1352,234.1953 L2427.5,234.1953 A2.5,2.5 0 0 1 2430,236.6953 L2430,396.9297 A2.5,2.5 0 0 1 2427.5,399.4297 L1281.5,399.4297 A2.5,2.5 0 0 1 1279,396.9297 L1279,214.3984 A2.5,2.5 0 0 1 1281.5,211.8984 " fill="none" style="stroke:#000000;stroke-width:1.0;"/><line style="stroke:#000000;stroke-width:1.0;" x1="1279" x2="1352" y1="234.1953" y2="234.1953"/><text fill="#000000" font-family="sans-serif" font-size="14" font-weight="bold" lengthAdjust="spacing" textLength="60" x="1283" y="226.8936">helpers</text><!--MD5=[428832655a5011fec41c0679cb979de0]
class wale::text_template--><g id="elem_wale::text_template"><rect codeLine="11" fill="#F7E5FF" height="72.5625" id="wale::text_template" rx="2.5" ry="2.5" style="stroke:#181818;stroke-width:0.5;" width="165" x="63.5" y="320.0156"/><ellipse cx="78.5" cy="340.1484" fill="#ADD1B2" rx="11" ry="11" style="stroke:#181818;stroke-width:1.0;"/><path d="M81.4688,345.7891 Q80.8906,346.0859 80.25,346.2344 Q79.6094,346.3828 78.9063,346.3828 Q76.4063,346.3828 75.0859,344.7344 Q73.7656,343.0859 73.7656,339.9609 Q73.7656,336.8359 75.0859,335.1797 Q76.4063,333.5234 78.9063,333.5234 Q79.6094,333.5234 80.2578,333.6797 Q80.9063,333.8359 81.4688,334.1328 L81.4688,336.8516 Q80.8438,336.2734 80.25,336 Q79.6563,335.7266 79.0313,335.7266 Q77.6875,335.7266 77,336.7969 Q76.3125,337.8672 76.3125,339.9609 Q76.3125,342.0547 77,343.125 Q77.6875,344.1953 79.0313,344.1953 Q79.6563,344.1953 80.25,343.9219 Q80.8438,343.6484 81.4688,343.0703 L81.4688,345.7891 Z " fill="#000000"/><text fill="#000000" font-family="sans-serif" font-size="12" font-style="italic" lengthAdjust="spacing" textLength="137" x="90.5" y="336.1543">«ConfigurableViaKvps»</text><text fill="#000000" font-family="sans-serif" font-size="14" lengthAdjust="spacing" textLength="98" x="110" y="351.9795">text_template</text><line style="stroke:#181818;stroke-width:0.5;" x1="64.5" x2="227.5" y1="360.2813" y2="360.2813"/><ellipse cx="74.5" cy="373.9297" fill="none" rx="3" ry="3" style="stroke:#038048;stroke-width:1.0;"/><text fill="#000000" font-family="sans-serif" font-size="14" lengthAdjust="spacing" textLength="129" x="83.5" y="377.2764">content std::string</text><line style="stroke:#181818;stroke-width:0.5;" x1="64.5" x2="227.5" y1="384.5781" y2="384.5781"/></g><g id="elem_wale::GMN5"><path d="M27,274.8828 L27,300.0156 L265,300.0156 L265,284.8828 L255,274.8828 L27,274.8828 " fill="#FEFFDD" style="stroke:#181818;stroke-width:0.5;"/><path d="M255,274.8828 L255,284.8828 L265,284.8828 L255,274.8828 " fill="#FEFFDD" style="stroke:#181818;stroke-width:1.0;"/><text fill="#000000" font-family="sans-serif" font-size="13" lengthAdjust="spacing" textLength="217" x="33" y="291.9497">Represents a wale text template.</text></g><!--MD5=[e37ccb2ead059b85791f77a4d734e437]
class wale::key_extractor--><g id="elem_wale::key_extractor"><rect codeLine="19" fill="#FFFACD" height="56.2656" id="wale::key_extractor" rx="2.5" ry="2.5" style="stroke:#181818;stroke-width:0.5;" width="222" x="285.5" y="243.75"/><ellipse cx="300.5" cy="263.8828" fill="#ADD1B2" rx="11" ry="11" style="stroke:#181818;stroke-width:1.0;"/><path d="M303.4688,269.5234 Q302.8906,269.8203 302.25,269.9688 Q301.6094,270.1172 300.9063,270.1172 Q298.4063,270.1172 297.0859,268.4688 Q295.7656,266.8203 295.7656,263.6953 Q295.7656,260.5703 297.0859,258.9141 Q298.4063,257.2578 300.9063,257.2578 Q301.6094,257.2578 302.2578,257.4141 Q302.9063,257.5703 303.4688,257.8672 L303.4688,260.5859 Q302.8438,260.0078 302.25,259.7344 Q301.6563,259.4609 301.0313,259.4609 Q299.6875,259.4609 299,260.5313 Q298.3125,261.6016 298.3125,263.6953 Q298.3125,265.7891 299,266.8594 Q299.6875,267.9297 301.0313,267.9297 Q301.6563,267.9297 302.25,267.6563 Q302.8438,267.3828 303.4688,266.8047 L303.4688,269.5234 Z " fill="#000000"/><text fill="#000000" font-family="sans-serif" font-size="12" font-style="italic" lengthAdjust="spacing" textLength="194" x="312.5" y="259.8887">«dogen::handcrafted::typeable»</text><text fill="#000000" font-family="sans-serif" font-size="14" lengthAdjust="spacing" textLength="97" x="361" y="275.7139">key_extractor</text><line style="stroke:#181818;stroke-width:0.5;" x1="286.5" x2="506.5" y1="284.0156" y2="284.0156"/><line style="stroke:#181818;stroke-width:0.5;" x1="286.5" x2="506.5" y1="292.0156" y2="292.0156"/></g><!--MD5=[108cd4b706a0f8913daab7874db92a98]
class wale::instantiator--><g id="elem_wale::instantiator"><rect codeLine="22" fill="#FFFACD" height="56.2656" id="wale::instantiator" rx="2.5" ry="2.5" style="stroke:#181818;stroke-width:0.5;" width="222" x="248.5" y="320.0156"/><ellipse cx="263.5" cy="340.1484" fill="#ADD1B2" rx="11" ry="11" style="stroke:#181818;stroke-width:1.0;"/><path d="M266.4688,345.7891 Q265.8906,346.0859 265.25,346.2344 Q264.6094,346.3828 263.9063,346.3828 Q261.4063,346.3828 260.0859,344.7344 Q258.7656,343.0859 258.7656,339.9609 Q258.7656,336.8359 260.0859,335.1797 Q261.4063,333.5234 263.9063,333.5234 Q264.6094,333.5234 265.2578,333.6797 Q265.9063,333.8359 266.4688,334.1328 L266.4688,336.8516 Q265.8438,336.2734 265.25,336 Q264.6563,335.7266 264.0313,335.7266 Q262.6875,335.7266 262,336.7969 Q261.3125,337.8672 261.3125,339.9609 Q261.3125,342.0547 262,343.125 Q262.6875,344.1953 264.0313,344.1953 Q264.6563,344.1953 265.25,343.9219 Q265.8438,343.6484 266.4688,343.0703 L266.4688,345.7891 Z " fill="#000000"/><text fill="#000000" font-family="sans-serif" font-size="12" font-style="italic" lengthAdjust="spacing" textLength="194" x="275.5" y="336.1543">«dogen::handcrafted::typeable»</text><text fill="#000000" font-family="sans-serif" font-size="14" lengthAdjust="spacing" textLength="81" x="332" y="351.9795">instantiator</text><line style="stroke:#181818;stroke-width:0.5;" x1="249.5" x2="469.5" y1="360.2813" y2="360.2813"/><line style="stroke:#181818;stroke-width:0.5;" x1="249.5" x2="469.5" y1="368.2813" y2="368.2813"/></g><!--MD5=[207619df346383346b32bf95c4517db8]
class wale::formatter--><g id="elem_wale::formatter"><rect codeLine="25" fill="#FFFACD" height="56.2656" id="wale::formatter" rx="2.5" ry="2.5" style="stroke:#181818;stroke-width:0.5;" width="222" x="490.5" y="320.0156"/><ellipse cx="505.5" cy="340.1484" fill="#ADD1B2" rx="11" ry="11" style="stroke:#181818;stroke-width:1.0;"/><path d="M508.4688,345.7891 Q507.8906,346.0859 507.25,346.2344 Q506.6094,346.3828 505.9063,346.3828 Q503.4063,346.3828 502.0859,344.7344 Q500.7656,343.0859 500.7656,339.9609 Q500.7656,336.8359 502.0859,335.1797 Q503.4063,333.5234 505.9063,333.5234 Q506.6094,333.5234 507.2578,333.6797 Q507.9063,333.8359 508.4688,334.1328 L508.4688,336.8516 Q507.8438,336.2734 507.25,336 Q506.6563,335.7266 506.0313,335.7266 Q504.6875,335.7266 504,336.7969 Q503.3125,337.8672 503.3125,339.9609 Q503.3125,342.0547 504,343.125 Q504.6875,344.1953 506.0313,344.1953 Q506.6563,344.1953 507.25,343.9219 Q507.8438,343.6484 508.4688,343.0703 L508.4688,345.7891 Z " fill="#000000"/><text fill="#000000" font-family="sans-serif" font-size="12" font-style="italic" lengthAdjust="spacing" textLength="194" x="517.5" y="336.1543">«dogen::handcrafted::typeable»</text><text fill="#000000" font-family="sans-serif" font-size="14" lengthAdjust="spacing" textLength="68" x="580.5" y="351.9795">formatter</text><line style="stroke:#181818;stroke-width:0.5;" x1="491.5" x2="711.5" y1="360.2813" y2="360.2813"/><line style="stroke:#181818;stroke-width:0.5;" x1="491.5" x2="711.5" y1="368.2813" y2="368.2813"/></g><!--MD5=[5e4362892a93de52020ddc8b36b0c66b]
class wale::formatting_error--><g id="elem_wale::formatting_error"><rect codeLine="28" fill="#E8C2F8" height="56.2656" id="wale::formatting_error" rx="2.5" ry="2.5" style="stroke:#181818;stroke-width:0.5;" width="150" x="732.5" y="320.0156"/><ellipse cx="747.5" cy="340.1484" fill="#ADD1B2" rx="11" ry="11" style="stroke:#181818;stroke-width:1.0;"/><path d="M750.4688,345.7891 Q749.8906,346.0859 749.25,346.2344 Q748.6094,346.3828 747.9063,346.3828 Q745.4063,346.3828 744.0859,344.7344 Q742.7656,343.0859 742.7656,339.9609 Q742.7656,336.8359 744.0859,335.1797 Q745.4063,333.5234 747.9063,333.5234 Q748.6094,333.5234 749.2578,333.6797 Q749.9063,333.8359 750.4688,334.1328 L750.4688,336.8516 Q749.8438,336.2734 749.25,336 Q748.6563,335.7266 748.0313,335.7266 Q746.6875,335.7266 746,336.7969 Q745.3125,337.8672 745.3125,339.9609 Q745.3125,342.0547 746,343.125 Q746.6875,344.1953 748.0313,344.1953 Q748.6563,344.1953 749.25,343.9219 Q749.8438,343.6484 750.4688,343.0703 L750.4688,345.7891 Z " fill="#000000"/><text fill="#000000" font-family="sans-serif" font-size="12" font-style="italic" lengthAdjust="spacing" textLength="114" x="763.5" y="336.1543">«masd::exception»</text><text fill="#000000" font-family="sans-serif" font-size="14" lengthAdjust="spacing" textLength="118" x="761.5" y="351.9795">formatting_error</text><line style="stroke:#181818;stroke-width:0.5;" x1="733.5" x2="881.5" y1="360.2813" y2="360.2813"/><line style="stroke:#181818;stroke-width:0.5;" x1="733.5" x2="881.5" y1="368.2813" y2="368.2813"/></g><g id="elem_wale::GMN12"><path d="M681,274.8828 L681,300.0156 L934,300.0156 L934,284.8828 L924,274.8828 L681,274.8828 " fill="#FEFFDD" style="stroke:#181818;stroke-width:0.5;"/><path d="M924,274.8828 L924,284.8828 L934,284.8828 L924,274.8828 " fill="#FEFFDD" style="stroke:#181818;stroke-width:1.0;"/><text fill="#000000" font-family="sans-serif" font-size="13" lengthAdjust="spacing" textLength="232" x="687" y="291.9497">An error occurred whilst formatting.</text></g><!--MD5=[195b3b9f47481677fde60c1a3d9c5c6a]
class wale::extraction_error--><g id="elem_wale::extraction_error"><rect codeLine="35" fill="#E8C2F8" height="56.2656" id="wale::extraction_error" rx="2.5" ry="2.5" style="stroke:#181818;stroke-width:0.5;" width="147" x="1025.5" y="320.0156"/><ellipse cx="1040.5" cy="340.1484" fill="#ADD1B2" rx="11" ry="11" style="stroke:#181818;stroke-width:1.0;"/><path d="M1043.4688,345.7891 Q1042.8906,346.0859 1042.25,346.2344 Q1041.6094,346.3828 1040.9063,346.3828 Q1038.4063,346.3828 1037.0859,344.7344 Q1035.7656,343.0859 1035.7656,339.9609 Q1035.7656,336.8359 1037.0859,335.1797 Q1038.4063,333.5234 1040.9063,333.5234 Q1041.6094,333.5234 1042.2578,333.6797 Q1042.9063,333.8359 1043.4688,334.1328 L1043.4688,336.8516 Q1042.8438,336.2734 1042.25,336 Q1041.6563,335.7266 1041.0313,335.7266 Q1039.6875,335.7266 1039,336.7969 Q1038.3125,337.8672 1038.3125,339.9609 Q1038.3125,342.0547 1039,343.125 Q1039.6875,344.1953 1041.0313,344.1953 Q1041.6563,344.1953 1042.25,343.9219 Q1042.8438,343.6484 1043.4688,343.0703 L1043.4688,345.7891 Z " fill="#000000"/><text fill="#000000" font-family="sans-serif" font-size="12" font-style="italic" lengthAdjust="spacing" textLength="114" x="1055" y="336.1543">«masd::exception»</text><text fill="#000000" font-family="sans-serif" font-size="14" lengthAdjust="spacing" textLength="115" x="1054.5" y="351.9795">extraction_error</text><line style="stroke:#181818;stroke-width:0.5;" x1="1026.5" x2="1171.5" y1="360.2813" y2="360.2813"/><line style="stroke:#181818;stroke-width:0.5;" x1="1026.5" x2="1171.5" y1="368.2813" y2="368.2813"/></g><g id="elem_wale::GMN16"><path d="M954,274.8828 L954,300.0156 L1244,300.0156 L1244,284.8828 L1234,274.8828 L954,274.8828 " fill="#FEFFDD" style="stroke:#181818;stroke-width:0.5;"/><path d="M1234,274.8828 L1234,284.8828 L1244,284.8828 L1234,274.8828 " fill="#FEFFDD" style="stroke:#181818;stroke-width:1.0;"/><text fill="#000000" font-family="sans-serif" font-size="13" lengthAdjust="spacing" textLength="269" x="960" y="291.9497">An error occurred whilst extracting a key.</text></g><!--MD5=[acad6953ec1038ab0f34bc9d380c7772]
class stitch::parser--><g id="elem_stitch::parser"><rect codeLine="45" fill="#FFFACD" height="56.2656" id="stitch::parser" rx="2.5" ry="2.5" style="stroke:#181818;stroke-width:0.5;" width="222" x="4351.6667" y="52"/><ellipse cx="4366.6667" cy="72.1328" fill="#ADD1B2" rx="11" ry="11" style="stroke:#181818;stroke-width:1.0;"/><path d="M4369.6354,77.7734 Q4369.0573,78.0703 4368.4167,78.2188 Q4367.776,78.3672 4367.0729,78.3672 Q4364.5729,78.3672 4363.2526,76.7188 Q4361.9323,75.0703 4361.9323,71.9453 Q4361.9323,68.8203 4363.2526,67.1641 Q4364.5729,65.5078 4367.0729,65.5078 Q4367.776,65.5078 4368.4245,65.6641 Q4369.0729,65.8203 4369.6354,66.1172 L4369.6354,68.8359 Q4369.0104,68.2578 4368.4167,67.9844 Q4367.8229,67.7109 4367.1979,67.7109 Q4365.8542,67.7109 4365.1667,68.7813 Q4364.4792,69.8516 4364.4792,71.9453 Q4364.4792,74.0391 4365.1667,75.1094 Q4365.8542,76.1797 4367.1979,76.1797 Q4367.8229,76.1797 4368.4167,75.9063 Q4369.0104,75.6328 4369.6354,75.0547 L4369.6354,77.7734 Z " fill="#000000"/><text fill="#000000" font-family="sans-serif" font-size="12" font-style="italic" lengthAdjust="spacing" textLength="194" x="4378.6667" y="68.1387">«dogen::handcrafted::typeable»</text><text fill="#000000" font-family="sans-serif" font-size="14" lengthAdjust="spacing" textLength="46" x="4452.6667" y="83.9639">parser</text><line style="stroke:#181818;stroke-width:0.5;" x1="4352.6667" x2="4572.6667" y1="92.2656" y2="92.2656"/><line style="stroke:#181818;stroke-width:0.5;" x1="4352.6667" x2="4572.6667" y1="100.2656" y2="100.2656"/></g><!--MD5=[c6ff7fec6a8ef07f239f69df56783780]
class stitch::block--><g id="elem_stitch::block"><rect codeLine="48" fill="#F7E5FF" height="80.5938" id="stitch::block" rx="2.5" ry="2.5" style="stroke:#181818;stroke-width:0.5;" width="155" x="4422.1667" y="164.9922"/><ellipse cx="4476.4167" cy="180.9922" fill="#ADD1B2" rx="11" ry="11" style="stroke:#181818;stroke-width:1.0;"/><path d="M4479.3854,186.6328 Q4478.8073,186.9297 4478.1667,187.0781 Q4477.526,187.2266 4476.8229,187.2266 Q4474.3229,187.2266 4473.0026,185.5781 Q4471.6823,183.9297 4471.6823,180.8047 Q4471.6823,177.6797 4473.0026,176.0234 Q4474.3229,174.3672 4476.8229,174.3672 Q4477.526,174.3672 4478.1745,174.5234 Q4478.8229,174.6797 4479.3854,174.9766 L4479.3854,177.6953 Q4478.7604,177.1172 4478.1667,176.8438 Q4477.5729,176.5703 4476.9479,176.5703 Q4475.6042,176.5703 4474.9167,177.6406 Q4474.2292,178.7109 4474.2292,180.8047 Q4474.2292,182.8984 4474.9167,183.9688 Q4475.6042,185.0391 4476.9479,185.0391 Q4477.5729,185.0391 4478.1667,184.7656 Q4478.7604,184.4922 4479.3854,183.9141 L4479.3854,186.6328 Z " fill="#000000"/><text fill="#000000" font-family="sans-serif" font-size="14" lengthAdjust="spacing" textLength="38" x="4496.9167" y="185.8389">block</text><line style="stroke:#181818;stroke-width:0.5;" x1="4423.1667" x2="4576.1667" y1="196.9922" y2="196.9922"/><ellipse cx="4433.1667" cy="210.6406" fill="none" rx="3" ry="3" style="stroke:#038048;stroke-width:1.0;"/><text fill="#000000" font-family="sans-serif" font-size="14" lengthAdjust="spacing" textLength="118" x="4442.1667" y="213.9873">type block_types</text><ellipse cx="4433.1667" cy="226.9375" fill="none" rx="3" ry="3" style="stroke:#038048;stroke-width:1.0;"/><text fill="#000000" font-family="sans-serif" font-size="14" lengthAdjust="spacing" textLength="129" x="4442.1667" y="230.2842">content std::string</text><line style="stroke:#181818;stroke-width:0.5;" x1="4423.1667" x2="4576.1667" y1="237.5859" y2="237.5859"/></g><!--MD5=[79290bda54e415bd3e329928675d72d8]
class stitch::text_template--><g id="elem_stitch::text_template"><rect codeLine="53" fill="#F7E5FF" height="88.8594" id="stitch::text_template" rx="2.5" ry="2.5" style="stroke:#181818;stroke-width:0.5;" width="205" x="3054" y="128.2656"/><ellipse cx="3087" cy="148.3984" fill="#ADD1B2" rx="11" ry="11" style="stroke:#181818;stroke-width:1.0;"/><path d="M3089.9688,154.0391 Q3089.3906,154.3359 3088.75,154.4844 Q3088.1094,154.6328 3087.4063,154.6328 Q3084.9063,154.6328 3083.5859,152.9844 Q3082.2656,151.3359 3082.2656,148.2109 Q3082.2656,145.0859 3083.5859,143.4297 Q3084.9063,141.7734 3087.4063,141.7734 Q3088.1094,141.7734 3088.7578,141.9297 Q3089.4063,142.0859 3089.9688,142.3828 L3089.9688,145.1016 Q3089.3438,144.5234 3088.75,144.25 Q3088.1563,143.9766 3087.5313,143.9766 Q3086.1875,143.9766 3085.5,145.0469 Q3084.8125,146.1172 3084.8125,148.2109 Q3084.8125,150.3047 3085.5,151.375 Q3086.1875,152.4453 3087.5313,152.4453 Q3088.1563,152.4453 3088.75,152.1719 Q3089.3438,151.8984 3089.9688,151.3203 L3089.9688,154.0391 Z " fill="#000000"/><text fill="#000000" font-family="sans-serif" font-size="12" font-style="italic" lengthAdjust="spacing" textLength="137" x="3103" y="144.4043">«ConfigurableViaKvps»</text><text fill="#000000" font-family="sans-serif" font-size="14" lengthAdjust="spacing" textLength="98" x="3122.5" y="160.2295">text_template</text><line style="stroke:#181818;stroke-width:0.5;" x1="3055" x2="3258" y1="168.5313" y2="168.5313"/><ellipse cx="3065" cy="182.1797" fill="none" rx="3" ry="3" style="stroke:#038048;stroke-width:1.0;"/><text fill="#000000" font-family="sans-serif" font-size="14" lengthAdjust="spacing" textLength="150" x="3074" y="185.5264">properties properties</text><ellipse cx="3065" cy="198.4766" fill="none" rx="3" ry="3" style="stroke:#038048;stroke-width:1.0;"/><text fill="#000000" font-family="sans-serif" font-size="14" lengthAdjust="spacing" textLength="179" x="3074" y="201.8232">body text_template_body</text><line style="stroke:#181818;stroke-width:0.5;" x1="3055" x2="3258" y1="209.125" y2="209.125"/></g><g id="elem_stitch::GMN23"><path d="M3003,83.1328 L3003,108.2656 L3310,108.2656 L3310,93.1328 L3300,83.1328 L3003,83.1328 " fill="#FEFFDD" style="stroke:#181818;stroke-width:0.5;"/><path d="M3300,83.1328 L3300,93.1328 L3310,93.1328 L3300,83.1328 " fill="#FEFFDD" style="stroke:#181818;stroke-width:1.0;"/><text fill="#000000" font-family="sans-serif" font-size="13" lengthAdjust="spacing" textLength="286" x="3009" y="100.1997">Domain representation of a stitch template.</text></g><!--MD5=[cd8e9796900d8ba1eb07c7ee908e5f5f]
class stitch::formatter--><g id="elem_stitch::formatter"><rect codeLine="62" fill="#FFFACD" height="56.2656" id="stitch::formatter" rx="2.5" ry="2.5" style="stroke:#181818;stroke-width:0.5;" width="222" x="4388.6667" y="302.3125"/><ellipse cx="4403.6667" cy="322.4453" fill="#ADD1B2" rx="11" ry="11" style="stroke:#181818;stroke-width:1.0;"/><path d="M4406.6354,328.0859 Q4406.0573,328.3828 4405.4167,328.5313 Q4404.776,328.6797 4404.0729,328.6797 Q4401.5729,328.6797 4400.2526,327.0313 Q4398.9323,325.3828 4398.9323,322.2578 Q4398.9323,319.1328 4400.2526,317.4766 Q4401.5729,315.8203 4404.0729,315.8203 Q4404.776,315.8203 4405.4245,315.9766 Q4406.0729,316.1328 4406.6354,316.4297 L4406.6354,319.1484 Q4406.0104,318.5703 4405.4167,318.2969 Q4404.8229,318.0234 4404.1979,318.0234 Q4402.8542,318.0234 4402.1667,319.0938 Q4401.4792,320.1641 4401.4792,322.2578 Q4401.4792,324.3516 4402.1667,325.4219 Q4402.8542,326.4922 4404.1979,326.4922 Q4404.8229,326.4922 4405.4167,326.2188 Q4406.0104,325.9453 4406.6354,325.3672 L4406.6354,328.0859 Z " fill="#000000"/><text fill="#000000" font-family="sans-serif" font-size="12" font-style="italic" lengthAdjust="spacing" textLength="194" x="4415.6667" y="318.4512">«dogen::handcrafted::typeable»</text><text fill="#000000" font-family="sans-serif" font-size="14" lengthAdjust="spacing" textLength="68" x="4478.6667" y="334.2764">formatter</text><line style="stroke:#181818;stroke-width:0.5;" x1="4389.6667" x2="4609.6667" y1="342.5781" y2="342.5781"/><line style="stroke:#181818;stroke-width:0.5;" x1="4389.6667" x2="4609.6667" y1="350.5781" y2="350.5781"/></g><!--MD5=[ca5c199dc9cb2334a69b41571a6b318a]
class stitch::parsing_error--><g id="elem_stitch::parsing_error"><rect codeLine="65" fill="#E8C2F8" height="56.2656" id="stitch::parsing_error" rx="2.5" ry="2.5" style="stroke:#181818;stroke-width:0.5;" width="142" x="3375" y="128.2656"/><ellipse cx="3390" cy="148.3984" fill="#ADD1B2" rx="11" ry="11" style="stroke:#181818;stroke-width:1.0;"/><path d="M3392.9688,154.0391 Q3392.3906,154.3359 3391.75,154.4844 Q3391.1094,154.6328 3390.4063,154.6328 Q3387.9063,154.6328 3386.5859,152.9844 Q3385.2656,151.3359 3385.2656,148.2109 Q3385.2656,145.0859 3386.5859,143.4297 Q3387.9063,141.7734 3390.4063,141.7734 Q3391.1094,141.7734 3391.7578,141.9297 Q3392.4063,142.0859 3392.9688,142.3828 L3392.9688,145.1016 Q3392.3438,144.5234 3391.75,144.25 Q3391.1563,143.9766 3390.5313,143.9766 Q3389.1875,143.9766 3388.5,145.0469 Q3387.8125,146.1172 3387.8125,148.2109 Q3387.8125,150.3047 3388.5,151.375 Q3389.1875,152.4453 3390.5313,152.4453 Q3391.1563,152.4453 3391.75,152.1719 Q3392.3438,151.8984 3392.9688,151.3203 L3392.9688,154.0391 Z " fill="#000000"/><text fill="#000000" font-family="sans-serif" font-size="12" font-style="italic" lengthAdjust="spacing" textLength="114" x="3402" y="144.4043">«masd::exception»</text><text fill="#000000" font-family="sans-serif" font-size="14" lengthAdjust="spacing" textLength="96" x="3411" y="160.2295">parsing_error</text><line style="stroke:#181818;stroke-width:0.5;" x1="3376" x2="3516" y1="168.5313" y2="168.5313"/><line style="stroke:#181818;stroke-width:0.5;" x1="3376" x2="3516" y1="176.5313" y2="176.5313"/></g><g id="elem_stitch::GMN28"><path d="M3330,83.1328 L3330,108.2656 L3562,108.2656 L3562,93.1328 L3552,83.1328 L3330,83.1328 " fill="#FEFFDD" style="stroke:#181818;stroke-width:0.5;"/><path d="M3552,83.1328 L3552,93.1328 L3562,93.1328 L3552,83.1328 " fill="#FEFFDD" style="stroke:#181818;stroke-width:1.0;"/><text fill="#000000" font-family="sans-serif" font-size="13" lengthAdjust="spacing" textLength="211" x="3336" y="100.1997">An error occurred whilst parsing.</text></g><!--MD5=[e194cfafe343b608f0b5abf872d52ff8]
class stitch::formatting_error--><g id="elem_stitch::formatting_error"><rect codeLine="72" fill="#E8C2F8" height="56.2656" id="stitch::formatting_error" rx="2.5" ry="2.5" style="stroke:#181818;stroke-width:0.5;" width="150" x="4645.1667" y="128.2656"/><ellipse cx="4660.1667" cy="148.3984" fill="#ADD1B2" rx="11" ry="11" style="stroke:#181818;stroke-width:1.0;"/><path d="M4663.1354,154.0391 Q4662.5573,154.3359 4661.9167,154.4844 Q4661.276,154.6328 4660.5729,154.6328 Q4658.0729,154.6328 4656.7526,152.9844 Q4655.4323,151.3359 4655.4323,148.2109 Q4655.4323,145.0859 4656.7526,143.4297 Q4658.0729,141.7734 4660.5729,141.7734 Q4661.276,141.7734 4661.9245,141.9297 Q4662.5729,142.0859 4663.1354,142.3828 L4663.1354,145.1016 Q4662.5104,144.5234 4661.9167,144.25 Q4661.3229,143.9766 4660.6979,143.9766 Q4659.3542,143.9766 4658.6667,145.0469 Q4657.9792,146.1172 4657.9792,148.2109 Q4657.9792,150.3047 4658.6667,151.375 Q4659.3542,152.4453 4660.6979,152.4453 Q4661.3229,152.4453 4661.9167,152.1719 Q4662.5104,151.8984 4663.1354,151.3203 L4663.1354,154.0391 Z " fill="#000000"/><text fill="#000000" font-family="sans-serif" font-size="12" font-style="italic" lengthAdjust="spacing" textLength="114" x="4676.1667" y="144.4043">«masd::exception»</text><text fill="#000000" font-family="sans-serif" font-size="14" lengthAdjust="spacing" textLength="118" x="4674.1667" y="160.2295">formatting_error</text><line style="stroke:#181818;stroke-width:0.5;" x1="4646.1667" x2="4794.1667" y1="168.5313" y2="168.5313"/><line style="stroke:#181818;stroke-width:0.5;" x1="4646.1667" x2="4794.1667" y1="176.5313" y2="176.5313"/></g><g id="elem_stitch::GMN32"><path d="M4593.6667,83.1328 L4593.6667,108.2656 L4846.6667,108.2656 L4846.6667,93.1328 L4836.6667,83.1328 L4593.6667,83.1328 " fill="#FEFFDD" style="stroke:#181818;stroke-width:0.5;"/><path d="M4836.6667,83.1328 L4836.6667,93.1328 L4846.6667,93.1328 L4836.6667,83.1328 " fill="#FEFFDD" style="stroke:#181818;stroke-width:1.0;"/><text fill="#000000" font-family="sans-serif" font-size="13" lengthAdjust="spacing" textLength="232" x="4599.6667" y="100.1997">An error occurred whilst formatting.</text></g><!--MD5=[e85cc89b36fb1eea871b5505e20b412d]
class stitch::properties--><g id="elem_stitch::properties"><rect codeLine="79" fill="#F7E5FF" height="129.4844" id="stitch::properties" rx="2.5" ry="2.5" style="stroke:#181818;stroke-width:0.5;" width="421" x="3977" y="144.6406"/><ellipse cx="4146.75" cy="160.6406" fill="#ADD1B2" rx="11" ry="11" style="stroke:#181818;stroke-width:1.0;"/><path d="M4149.7188,166.2813 Q4149.1406,166.5781 4148.5,166.7266 Q4147.8594,166.875 4147.1563,166.875 Q4144.6563,166.875 4143.3359,165.2266 Q4142.0156,163.5781 4142.0156,160.4531 Q4142.0156,157.3281 4143.3359,155.6719 Q4144.6563,154.0156 4147.1563,154.0156 Q4147.8594,154.0156 4148.5078,154.1719 Q4149.1563,154.3281 4149.7188,154.625 L4149.7188,157.3438 Q4149.0938,156.7656 4148.5,156.4922 Q4147.9063,156.2188 4147.2813,156.2188 Q4145.9375,156.2188 4145.25,157.2891 Q4144.5625,158.3594 4144.5625,160.4531 Q4144.5625,162.5469 4145.25,163.6172 Q4145.9375,164.6875 4147.2813,164.6875 Q4147.9063,164.6875 4148.5,164.4141 Q4149.0938,164.1406 4149.7188,163.5625 L4149.7188,166.2813 Z " fill="#000000"/><text fill="#000000" font-family="sans-serif" font-size="14" lengthAdjust="spacing" textLength="73" x="4167.25" y="165.4873">properties</text><line style="stroke:#181818;stroke-width:0.5;" x1="3978" x2="4397" y1="176.6406" y2="176.6406"/><ellipse cx="3988" cy="190.2891" fill="none" rx="3" ry="3" style="stroke:#038048;stroke-width:1.0;"/><text fill="#000000" font-family="sans-serif" font-size="14" lengthAdjust="spacing" textLength="238" x="3997" y="193.6357">stream_variable_name std::string</text><ellipse cx="3988" cy="206.5859" fill="none" rx="3" ry="3" style="stroke:#038048;stroke-width:1.0;"/><text fill="#000000" font-family="sans-serif" font-size="14" lengthAdjust="spacing" textLength="320" x="3997" y="209.9326">inclusion_dependencies std::list&lt;std::string&gt;</text><ellipse cx="3988" cy="222.8828" fill="none" rx="3" ry="3" style="stroke:#038048;stroke-width:1.0;"/><text fill="#000000" font-family="sans-serif" font-size="14" lengthAdjust="spacing" textLength="322" x="3997" y="226.2295">containing_namespaces std::list&lt;std::string&gt;</text><ellipse cx="3988" cy="239.1797" fill="none" rx="3" ry="3" style="stroke:#038048;stroke-width:1.0;"/><text fill="#000000" font-family="sans-serif" font-size="14" lengthAdjust="spacing" textLength="179" x="3997" y="242.5264">wale_template std::string</text><ellipse cx="3988" cy="255.4766" fill="none" rx="3" ry="3" style="stroke:#038048;stroke-width:1.0;"/><text fill="#000000" font-family="sans-serif" font-size="14" lengthAdjust="spacing" textLength="395" x="3997" y="258.8232">wale_kvps std::unordered_map&lt;std::string, std::string&gt;</text><line style="stroke:#181818;stroke-width:0.5;" x1="3978" x2="4397" y1="266.125" y2="266.125"/></g><!--MD5=[7725441a3625ab060a70eaee7364697b]
class stitch::line--><g id="elem_stitch::line"><rect codeLine="87" fill="#F7E5FF" height="64.2969" id="stitch::line" rx="2.5" ry="2.5" style="stroke:#181818;stroke-width:0.5;" width="188" x="3813.6667" y="302.3125"/><ellipse cx="3890.4167" cy="318.3125" fill="#ADD1B2" rx="11" ry="11" style="stroke:#181818;stroke-width:1.0;"/><path d="M3893.3854,323.9531 Q3892.8073,324.25 3892.1667,324.3984 Q3891.526,324.5469 3890.8229,324.5469 Q3888.3229,324.5469 3887.0026,322.8984 Q3885.6823,321.25 3885.6823,318.125 Q3885.6823,315 3887.0026,313.3438 Q3888.3229,311.6875 3890.8229,311.6875 Q3891.526,311.6875 3892.1745,311.8438 Q3892.8229,312 3893.3854,312.2969 L3893.3854,315.0156 Q3892.7604,314.4375 3892.1667,314.1641 Q3891.5729,313.8906 3890.9479,313.8906 Q3889.6042,313.8906 3888.9167,314.9609 Q3888.2292,316.0313 3888.2292,318.125 Q3888.2292,320.2188 3888.9167,321.2891 Q3889.6042,322.3594 3890.9479,322.3594 Q3891.5729,322.3594 3892.1667,322.0859 Q3892.7604,321.8125 3893.3854,321.2344 L3893.3854,323.9531 Z " fill="#000000"/><text fill="#000000" font-family="sans-serif" font-size="14" lengthAdjust="spacing" textLength="26" x="3910.9167" y="323.1592">line</text><line style="stroke:#181818;stroke-width:0.5;" x1="3814.6667" x2="4000.6667" y1="334.3125" y2="334.3125"/><ellipse cx="3824.6667" cy="347.9609" fill="none" rx="3" ry="3" style="stroke:#038048;stroke-width:1.0;"/><text fill="#000000" font-family="sans-serif" font-size="14" lengthAdjust="spacing" textLength="162" x="3833.6667" y="351.3076">blocks std::list&lt;block&gt;</text><line style="stroke:#181818;stroke-width:0.5;" x1="3814.6667" x2="4000.6667" y1="358.6094" y2="358.6094"/></g><!--MD5=[262a6735abe294585b874b18f44f21e0]
class stitch::block_types--><g id="elem_stitch::block_types"><rect codeLine="91" fill="#F2DAFD" height="121.4531" id="stitch::block_types" rx="2.5" ry="2.5" style="stroke:#181818;stroke-width:0.5;" width="191" x="3812.1667" y="386.6094"/><ellipse cx="3841.1167" cy="406.7422" fill="#EB937F" rx="11" ry="11" style="stroke:#181818;stroke-width:1.0;"/><path d="M3845.226,412.7422 L3837.5073,412.7422 L3837.5073,400.3516 L3845.226,400.3516 L3845.226,402.5078 L3839.9604,402.5078 L3839.9604,405.1797 L3844.726,405.1797 L3844.726,407.3359 L3839.9604,407.3359 L3839.9604,410.5859 L3845.226,410.5859 L3845.226,412.7422 Z " fill="#000000"/><text fill="#000000" font-family="sans-serif" font-size="12" font-style="italic" lengthAdjust="spacing" textLength="132" x="3856.2167" y="402.748">«masd::enumeration»</text><text fill="#000000" font-family="sans-serif" font-size="14" lengthAdjust="spacing" textLength="83" x="3880.7167" y="418.5732">block_types</text><line style="stroke:#181818;stroke-width:0.5;" x1="3813.1667" x2="4002.1667" y1="426.875" y2="426.875"/><ellipse cx="3823.1667" cy="440.5234" fill="none" rx="3" ry="3" style="stroke:#038048;stroke-width:1.0;"/><text fill="#000000" font-family="sans-serif" font-size="14" lengthAdjust="spacing" textLength="72" x="3832.1667" y="443.8701">text_block</text><ellipse cx="3823.1667" cy="456.8203" fill="none" rx="3" ry="3" style="stroke:#038048;stroke-width:1.0;"/><text fill="#000000" font-family="sans-serif" font-size="14" lengthAdjust="spacing" textLength="165" x="3832.1667" y="460.167">standard_control_block</text><ellipse cx="3823.1667" cy="473.1172" fill="none" rx="3" ry="3" style="stroke:#038048;stroke-width:1.0;"/><text fill="#000000" font-family="sans-serif" font-size="14" lengthAdjust="spacing" textLength="122" x="3832.1667" y="476.4639">expression_block</text><ellipse cx="3823.1667" cy="489.4141" fill="none" rx="3" ry="3" style="stroke:#038048;stroke-width:1.0;"/><text fill="#000000" font-family="sans-serif" font-size="14" lengthAdjust="spacing" textLength="103" x="3832.1667" y="492.7607">variable_block</text><line style="stroke:#181818;stroke-width:0.5;" x1="3813.1667" x2="4002.1667" y1="500.0625" y2="500.0625"/></g><!--MD5=[edb4442cf6f04c2980b84cfac303ada0]
class stitch::instantiator--><g id="elem_stitch::instantiator"><rect codeLine="98" fill="#FFFACD" height="56.2656" id="stitch::instantiator" rx="2.5" ry="2.5" style="stroke:#181818;stroke-width:0.5;" width="222" x="4146.6667" y="306.3281"/><ellipse cx="4161.6667" cy="326.4609" fill="#ADD1B2" rx="11" ry="11" style="stroke:#181818;stroke-width:1.0;"/><path d="M4164.6354,332.1016 Q4164.0573,332.3984 4163.4167,332.5469 Q4162.776,332.6953 4162.0729,332.6953 Q4159.5729,332.6953 4158.2526,331.0469 Q4156.9323,329.3984 4156.9323,326.2734 Q4156.9323,323.1484 4158.2526,321.4922 Q4159.5729,319.8359 4162.0729,319.8359 Q4162.776,319.8359 4163.4245,319.9922 Q4164.0729,320.1484 4164.6354,320.4453 L4164.6354,323.1641 Q4164.0104,322.5859 4163.4167,322.3125 Q4162.8229,322.0391 4162.1979,322.0391 Q4160.8542,322.0391 4160.1667,323.1094 Q4159.4792,324.1797 4159.4792,326.2734 Q4159.4792,328.3672 4160.1667,329.4375 Q4160.8542,330.5078 4162.1979,330.5078 Q4162.8229,330.5078 4163.4167,330.2344 Q4164.0104,329.9609 4164.6354,329.3828 L4164.6354,332.1016 Z " fill="#000000"/><text fill="#000000" font-family="sans-serif" font-size="12" font-style="italic" lengthAdjust="spacing" textLength="194" x="4173.6667" y="322.4668">«dogen::handcrafted::typeable»</text><text fill="#000000" font-family="sans-serif" font-size="14" lengthAdjust="spacing" textLength="81" x="4230.1667" y="338.292">instantiator</text><line style="stroke:#181818;stroke-width:0.5;" x1="4147.6667" x2="4367.6667" y1="346.5938" y2="346.5938"/><line style="stroke:#181818;stroke-width:0.5;" x1="4147.6667" x2="4367.6667" y1="354.5938" y2="354.5938"/></g><!--MD5=[b918d947c2f4e4a06248cb590094940c]
class stitch::text_template_body--><g id="elem_stitch::text_template_body"><rect codeLine="101" fill="#F7E5FF" height="80.5938" id="stitch::text_template_body" rx="2.5" ry="2.5" style="stroke:#181818;stroke-width:0.5;" width="469" x="4023.1667" y="407.0391"/><ellipse cx="4183.4167" cy="423.0391" fill="#ADD1B2" rx="11" ry="11" style="stroke:#181818;stroke-width:1.0;"/><path d="M4186.3854,428.6797 Q4185.8073,428.9766 4185.1667,429.125 Q4184.526,429.2734 4183.8229,429.2734 Q4181.3229,429.2734 4180.0026,427.625 Q4178.6823,425.9766 4178.6823,422.8516 Q4178.6823,419.7266 4180.0026,418.0703 Q4181.3229,416.4141 4183.8229,416.4141 Q4184.526,416.4141 4185.1745,416.5703 Q4185.8229,416.7266 4186.3854,417.0234 L4186.3854,419.7422 Q4185.7604,419.1641 4185.1667,418.8906 Q4184.5729,418.6172 4183.9479,418.6172 Q4182.6042,418.6172 4181.9167,419.6875 Q4181.2292,420.7578 4181.2292,422.8516 Q4181.2292,424.9453 4181.9167,426.0156 Q4182.6042,427.0859 4183.9479,427.0859 Q4184.5729,427.0859 4185.1667,426.8125 Q4185.7604,426.5391 4186.3854,425.9609 L4186.3854,428.6797 Z " fill="#000000"/><text fill="#000000" font-family="sans-serif" font-size="14" lengthAdjust="spacing" textLength="140" x="4203.9167" y="427.8857">text_template_body</text><line style="stroke:#181818;stroke-width:0.5;" x1="4024.1667" x2="4491.1667" y1="439.0391" y2="439.0391"/><ellipse cx="4034.1667" cy="452.6875" fill="none" rx="3" ry="3" style="stroke:#038048;stroke-width:1.0;"/><text fill="#000000" font-family="sans-serif" font-size="14" lengthAdjust="spacing" textLength="443" x="4043.1667" y="456.0342">tagged_values std::list&lt;identification::entities::tagged_value&gt;</text><ellipse cx="4034.1667" cy="468.9844" fill="none" rx="3" ry="3" style="stroke:#038048;stroke-width:1.0;"/><text fill="#000000" font-family="sans-serif" font-size="14" lengthAdjust="spacing" textLength="138" x="4043.1667" y="472.3311">lines std::list&lt;line&gt;</text><line style="stroke:#181818;stroke-width:0.5;" x1="4024.1667" x2="4491.1667" y1="479.6328" y2="479.6328"/></g><!--MD5=[c47f1d475d193793092ee106b2a5fcdb]
class stitch::instantiation_error--><g id="elem_stitch::instantiation_error"><rect codeLine="106" fill="#E8C2F8" height="56.2656" id="stitch::instantiation_error" rx="2.5" ry="2.5" style="stroke:#181818;stroke-width:0.5;" width="163" x="4176.1667" y="528.0625"/><ellipse cx="4191.1667" cy="548.1953" fill="#ADD1B2" rx="11" ry="11" style="stroke:#181818;stroke-width:1.0;"/><path d="M4194.1354,553.8359 Q4193.5573,554.1328 4192.9167,554.2813 Q4192.276,554.4297 4191.5729,554.4297 Q4189.0729,554.4297 4187.7526,552.7813 Q4186.4323,551.1328 4186.4323,548.0078 Q4186.4323,544.8828 4187.7526,543.2266 Q4189.0729,541.5703 4191.5729,541.5703 Q4192.276,541.5703 4192.9245,541.7266 Q4193.5729,541.8828 4194.1354,542.1797 L4194.1354,544.8984 Q4193.5104,544.3203 4192.9167,544.0469 Q4192.3229,543.7734 4191.6979,543.7734 Q4190.3542,543.7734 4189.6667,544.8438 Q4188.9792,545.9141 4188.9792,548.0078 Q4188.9792,550.1016 4189.6667,551.1719 Q4190.3542,552.2422 4191.6979,552.2422 Q4192.3229,552.2422 4192.9167,551.9688 Q4193.5104,551.6953 4194.1354,551.1172 L4194.1354,553.8359 Z " fill="#000000"/><text fill="#000000" font-family="sans-serif" font-size="12" font-style="italic" lengthAdjust="spacing" textLength="114" x="4213.6667" y="544.2012">«masd::exception»</text><text fill="#000000" font-family="sans-serif" font-size="14" lengthAdjust="spacing" textLength="131" x="4205.1667" y="560.0264">instantiation_error</text><line style="stroke:#181818;stroke-width:0.5;" x1="4177.1667" x2="4338.1667" y1="568.3281" y2="568.3281"/><line style="stroke:#181818;stroke-width:0.5;" x1="4177.1667" x2="4338.1667" y1="576.3281" y2="576.3281"/></g><!--MD5=[5c8f90d4154d3025d485e226ceaf4328]
class stitch::features--><g id="elem_stitch::features"><rect codeLine="109" fill="#BAD7D7" height="154.0469" id="stitch::features" rx="2.5" ry="2.5" style="stroke:#181818;stroke-width:0.5;" width="420" x="3537" y="128.2656"/><ellipse cx="3638.75" cy="148.3984" fill="#ADD1B2" rx="11" ry="11" style="stroke:#181818;stroke-width:1.0;"/><path d="M3641.7188,154.0391 Q3641.1406,154.3359 3640.5,154.4844 Q3639.8594,154.6328 3639.1563,154.6328 Q3636.6563,154.6328 3635.3359,152.9844 Q3634.0156,151.3359 3634.0156,148.2109 Q3634.0156,145.0859 3635.3359,143.4297 Q3636.6563,141.7734 3639.1563,141.7734 Q3639.8594,141.7734 3640.5078,141.9297 Q3641.1563,142.0859 3641.7188,142.3828 L3641.7188,145.1016 Q3641.0938,144.5234 3640.5,144.25 Q3639.9063,143.9766 3639.2813,143.9766 Q3637.9375,143.9766 3637.25,145.0469 Q3636.5625,146.1172 3636.5625,148.2109 Q3636.5625,150.3047 3637.25,151.375 Q3637.9375,152.4453 3639.2813,152.4453 Q3639.9063,152.4453 3640.5,152.1719 Q3641.0938,151.8984 3641.7188,151.3203 L3641.7188,154.0391 Z " fill="#000000"/><text fill="#000000" font-family="sans-serif" font-size="12" font-style="italic" lengthAdjust="spacing" textLength="212" x="3657.25" y="144.4043">«masd::variability::feature_bundle»</text><text fill="#000000" font-family="sans-serif" font-size="14" lengthAdjust="spacing" textLength="59" x="3733.75" y="160.2295">features</text><line style="stroke:#181818;stroke-width:0.5;" x1="3538" x2="3956" y1="168.5313" y2="168.5313"/><ellipse cx="3548" cy="182.1797" fill="none" rx="3" ry="3" style="stroke:#038048;stroke-width:1.0;"/><text fill="#000000" font-family="sans-serif" font-size="14" lengthAdjust="spacing" textLength="323" x="3557" y="185.5264">stream_variable_name masd::variability::text</text><ellipse cx="3548" cy="198.4766" fill="none" rx="3" ry="3" style="stroke:#038048;stroke-width:1.0;"/><text fill="#000000" font-family="sans-serif" font-size="14" lengthAdjust="spacing" textLength="338" x="3557" y="201.8232">relative_output_directory masd::variability::text</text><ellipse cx="3548" cy="214.7734" fill="none" rx="3" ry="3" style="stroke:#038048;stroke-width:1.0;"/><text fill="#000000" font-family="sans-serif" font-size="14" lengthAdjust="spacing" textLength="394" x="3557" y="218.1201">inclusion_dependency masd::variability::text_collection</text><ellipse cx="3548" cy="231.0703" fill="none" rx="3" ry="3" style="stroke:#038048;stroke-width:1.0;"/><text fill="#000000" font-family="sans-serif" font-size="14" lengthAdjust="spacing" textLength="332" x="3557" y="234.417">containing_namespaces masd::variability::text</text><ellipse cx="3548" cy="247.3672" fill="none" rx="3" ry="3" style="stroke:#038048;stroke-width:1.0;"/><text fill="#000000" font-family="sans-serif" font-size="14" lengthAdjust="spacing" textLength="295" x="3557" y="250.7139">wale.text_template masd::variability::text</text><ellipse cx="3548" cy="263.6641" fill="none" rx="3" ry="3" style="stroke:#038048;stroke-width:1.0;"/><text fill="#000000" font-family="sans-serif" font-size="14" lengthAdjust="spacing" textLength="301" x="3557" y="267.0107">wale.kvp masd::variability::key_value_pair</text><line style="stroke:#181818;stroke-width:0.5;" x1="3538" x2="3956" y1="274.3125" y2="274.3125"/></g><g id="elem_stitch::GMN42"><path d="M3649.5,83.1328 L3649.5,108.2656 L3844.5,108.2656 L3844.5,93.1328 L3834.5,83.1328 L3649.5,83.1328 " fill="#FEFFDD" style="stroke:#181818;stroke-width:0.5;"/><path d="M3834.5,83.1328 L3834.5,93.1328 L3844.5,93.1328 L3834.5,83.1328 " fill="#FEFFDD" style="stroke:#181818;stroke-width:1.0;"/><text fill="#000000" font-family="sans-serif" font-size="13" lengthAdjust="spacing" textLength="174" x="3655.5" y="100.1997">Stitch templating features.</text></g><!--MD5=[866e4cc6642a3eaee8059e023a522058]
class helpers::kvp_validator--><g id="elem_helpers::kvp_validator"><rect codeLine="134" fill="#FFFACD" height="56.2656" id="helpers::kvp_validator" rx="2.5" ry="2.5" style="stroke:#181818;stroke-width:0.5;" width="222" x="1604" y="251.8984"/><ellipse cx="1619" cy="272.0313" fill="#ADD1B2" rx="11" ry="11" style="stroke:#181818;stroke-width:1.0;"/><path d="M1621.9688,277.6719 Q1621.3906,277.9688 1620.75,278.1172 Q1620.1094,278.2656 1619.4063,278.2656 Q1616.9063,278.2656 1615.5859,276.6172 Q1614.2656,274.9688 1614.2656,271.8438 Q1614.2656,268.7188 1615.5859,267.0625 Q1616.9063,265.4063 1619.4063,265.4063 Q1620.1094,265.4063 1620.7578,265.5625 Q1621.4063,265.7188 1621.9688,266.0156 L1621.9688,268.7344 Q1621.3438,268.1563 1620.75,267.8828 Q1620.1563,267.6094 1619.5313,267.6094 Q1618.1875,267.6094 1617.5,268.6797 Q1616.8125,269.75 1616.8125,271.8438 Q1616.8125,273.9375 1617.5,275.0078 Q1618.1875,276.0781 1619.5313,276.0781 Q1620.1563,276.0781 1620.75,275.8047 Q1621.3438,275.5313 1621.9688,274.9531 L1621.9688,277.6719 Z " fill="#000000"/><text fill="#000000" font-family="sans-serif" font-size="12" font-style="italic" lengthAdjust="spacing" textLength="194" x="1631" y="268.0371">«dogen::handcrafted::typeable»</text><text fill="#000000" font-family="sans-serif" font-size="14" lengthAdjust="spacing" textLength="95" x="1680.5" y="283.8623">kvp_validator</text><line style="stroke:#181818;stroke-width:0.5;" x1="1605" x2="1825" y1="292.1641" y2="292.1641"/><line style="stroke:#181818;stroke-width:0.5;" x1="1605" x2="1825" y1="300.1641" y2="300.1641"/></g><!--MD5=[9049f6461a89c250560f1393b153587a]
class helpers::validation_error--><g id="elem_helpers::validation_error"><rect codeLine="137" fill="#E8C2F8" height="56.2656" id="helpers::validation_error" rx="2.5" ry="2.5" style="stroke:#181818;stroke-width:0.5;" width="145" x="1366.5" y="328.1641"/><ellipse cx="1381.5" cy="348.2969" fill="#ADD1B2" rx="11" ry="11" style="stroke:#181818;stroke-width:1.0;"/><path d="M1384.4688,353.9375 Q1383.8906,354.2344 1383.25,354.3828 Q1382.6094,354.5313 1381.9063,354.5313 Q1379.4063,354.5313 1378.0859,352.8828 Q1376.7656,351.2344 1376.7656,348.1094 Q1376.7656,344.9844 1378.0859,343.3281 Q1379.4063,341.6719 1381.9063,341.6719 Q1382.6094,341.6719 1383.2578,341.8281 Q1383.9063,341.9844 1384.4688,342.2813 L1384.4688,345 Q1383.8438,344.4219 1383.25,344.1484 Q1382.6563,343.875 1382.0313,343.875 Q1380.6875,343.875 1380,344.9453 Q1379.3125,346.0156 1379.3125,348.1094 Q1379.3125,350.2031 1380,351.2734 Q1380.6875,352.3438 1382.0313,352.3438 Q1382.6563,352.3438 1383.25,352.0703 Q1383.8438,351.7969 1384.4688,351.2188 L1384.4688,353.9375 Z " fill="#000000"/><text fill="#000000" font-family="sans-serif" font-size="12" font-style="italic" lengthAdjust="spacing" textLength="114" x="1395" y="344.3027">«masd::exception»</text><text fill="#000000" font-family="sans-serif" font-size="14" lengthAdjust="spacing" textLength="113" x="1395.5" y="360.1279">validation_error</text><line style="stroke:#181818;stroke-width:0.5;" x1="1367.5" x2="1510.5" y1="368.4297" y2="368.4297"/><line style="stroke:#181818;stroke-width:0.5;" x1="1367.5" x2="1510.5" y1="376.4297" y2="376.4297"/></g><g id="elem_helpers::GMN52"><path d="M1294,283.0313 L1294,308.1641 L1584,308.1641 L1584,293.0313 L1574,283.0313 L1294,283.0313 " fill="#FEFFDD" style="stroke:#181818;stroke-width:0.5;"/><path d="M1574,283.0313 L1574,293.0313 L1584,293.0313 L1574,283.0313 " fill="#FEFFDD" style="stroke:#181818;stroke-width:1.0;"/><text fill="#000000" font-family="sans-serif" font-size="13" lengthAdjust="spacing" textLength="269" x="1300" y="300.0981">An error occurred with the supplied KVPs.</text></g><!--MD5=[4ad5fc8d962914e3f473ff3ca3ecd07e]
class helpers::kvp_resolver--><g id="elem_helpers::kvp_resolver"><rect codeLine="144" fill="#FFFACD" height="56.2656" id="helpers::kvp_resolver" rx="2.5" ry="2.5" style="stroke:#181818;stroke-width:0.5;" width="222" x="2193" y="251.8984"/><ellipse cx="2208" cy="272.0313" fill="#ADD1B2" rx="11" ry="11" style="stroke:#181818;stroke-width:1.0;"/><path d="M2210.9688,277.6719 Q2210.3906,277.9688 2209.75,278.1172 Q2209.1094,278.2656 2208.4063,278.2656 Q2205.9063,278.2656 2204.5859,276.6172 Q2203.2656,274.9688 2203.2656,271.8438 Q2203.2656,268.7188 2204.5859,267.0625 Q2205.9063,265.4063 2208.4063,265.4063 Q2209.1094,265.4063 2209.7578,265.5625 Q2210.4063,265.7188 2210.9688,266.0156 L2210.9688,268.7344 Q2210.3438,268.1563 2209.75,267.8828 Q2209.1563,267.6094 2208.5313,267.6094 Q2207.1875,267.6094 2206.5,268.6797 Q2205.8125,269.75 2205.8125,271.8438 Q2205.8125,273.9375 2206.5,275.0078 Q2207.1875,276.0781 2208.5313,276.0781 Q2209.1563,276.0781 2209.75,275.8047 Q2210.3438,275.5313 2210.9688,274.9531 L2210.9688,277.6719 Z " fill="#000000"/><text fill="#000000" font-family="sans-serif" font-size="12" font-style="italic" lengthAdjust="spacing" textLength="194" x="2220" y="268.0371">«dogen::handcrafted::typeable»</text><text fill="#000000" font-family="sans-serif" font-size="14" lengthAdjust="spacing" textLength="90" x="2272" y="283.8623">kvp_resolver</text><line style="stroke:#181818;stroke-width:0.5;" x1="2194" x2="2414" y1="292.1641" y2="292.1641"/><line style="stroke:#181818;stroke-width:0.5;" x1="2194" x2="2414" y1="300.1641" y2="300.1641"/></g><!--MD5=[a5c36db5d1c2567d16f3982452055fdc]
class helpers::resolution_error--><g id="elem_helpers::resolution_error"><rect codeLine="147" fill="#E8C2F8" height="56.2656" id="helpers::resolution_error" rx="2.5" ry="2.5" style="stroke:#181818;stroke-width:0.5;" width="146" x="1936.5" y="328.1641"/><ellipse cx="1951.5" cy="348.2969" fill="#ADD1B2" rx="11" ry="11" style="stroke:#181818;stroke-width:1.0;"/><path d="M1954.4688,353.9375 Q1953.8906,354.2344 1953.25,354.3828 Q1952.6094,354.5313 1951.9063,354.5313 Q1949.4063,354.5313 1948.0859,352.8828 Q1946.7656,351.2344 1946.7656,348.1094 Q1946.7656,344.9844 1948.0859,343.3281 Q1949.4063,341.6719 1951.9063,341.6719 Q1952.6094,341.6719 1953.2578,341.8281 Q1953.9063,341.9844 1954.4688,342.2813 L1954.4688,345 Q1953.8438,344.4219 1953.25,344.1484 Q1952.6563,343.875 1952.0313,343.875 Q1950.6875,343.875 1950,344.9453 Q1949.3125,346.0156 1949.3125,348.1094 Q1949.3125,350.2031 1950,351.2734 Q1950.6875,352.3438 1952.0313,352.3438 Q1952.6563,352.3438 1953.25,352.0703 Q1953.8438,351.7969 1954.4688,351.2188 L1954.4688,353.9375 Z " fill="#000000"/><text fill="#000000" font-family="sans-serif" font-size="12" font-style="italic" lengthAdjust="spacing" textLength="114" x="1965.5" y="344.3027">«masd::exception»</text><text fill="#000000" font-family="sans-serif" font-size="14" lengthAdjust="spacing" textLength="114" x="1965.5" y="360.1279">resolution_error</text><line style="stroke:#181818;stroke-width:0.5;" x1="1937.5" x2="2081.5" y1="368.4297" y2="368.4297"/><line style="stroke:#181818;stroke-width:0.5;" x1="1937.5" x2="2081.5" y1="376.4297" y2="376.4297"/></g><g id="elem_helpers::GMN57"><path d="M1846,283.0313 L1846,308.1641 L2173,308.1641 L2173,293.0313 L2163,283.0313 L1846,283.0313 " fill="#FEFFDD" style="stroke:#181818;stroke-width:0.5;"/><path d="M2163,283.0313 L2163,293.0313 L2173,293.0313 L2163,283.0313 " fill="#FEFFDD" style="stroke:#181818;stroke-width:1.0;"/><text fill="#000000" font-family="sans-serif" font-size="13" lengthAdjust="spacing" textLength="306" x="1852" y="300.0981">An error occurred when trying to resolve a key.</text></g><g id="elem_N1"><path d="M4881.6667,513.6641 L4881.6667,599.3281 L5311.6667,599.3281 L5311.6667,523.6641 L5301.6667,513.6641 L4881.6667,513.6641 " fill="#FEFFDD" style="stroke:#181818;stroke-width:0.5;"/><path d="M5301.6667,513.6641 L5301.6667,523.6641 L5311.6667,523.6641 L5301.6667,513.6641 " fill="#FEFFDD" style="stroke:#181818;stroke-width:1.0;"/><text fill="#000000" font-family="sans-serif" font-size="13" lengthAdjust="spacing" textLength="355" x="4887.6667" y="530.731">Contains all the generic text templating infrastructure.</text><text fill="#000000" font-family="sans-serif" font-size="13" lengthAdjust="spacing" textLength="4" x="4887.6667" y="545.8638"> </text><text fill="#000000" font-family="sans-serif" font-size="13" lengthAdjust="spacing" textLength="131" x="4887.6667" y="560.9966">UML representation:</text><text fill="#000000" font-family="sans-serif" font-size="13" lengthAdjust="spacing" textLength="4" x="4887.6667" y="576.1294"> </text><text fill="#000000" font-family="sans-serif" font-size="13" lengthAdjust="spacing" textLength="409" x="4887.6667" y="591.2622">\image html dogen.templating/modeling/dogen.templating.svg</text></g><!--MD5=[de827ccd62899280f38c2ee8c0dd77f6]
class ConfigurableViaKvps--><g id="elem_ConfigurableViaKvps"><rect codeLine="124" fill="#E3B6F6" height="88.8594" id="ConfigurableViaKvps" rx="2.5" ry="2.5" style="stroke:#181818;stroke-width:0.5;" width="448" x="2485" y="619.3281"/><ellipse cx="2630.75" cy="639.4609" fill="#ADD1B2" rx="11" ry="11" style="stroke:#181818;stroke-width:1.0;"/><path d="M2633.7188,645.1016 Q2633.1406,645.3984 2632.5,645.5469 Q2631.8594,645.6953 2631.1563,645.6953 Q2628.6563,645.6953 2627.3359,644.0469 Q2626.0156,642.3984 2626.0156,639.2734 Q2626.0156,636.1484 2627.3359,634.4922 Q2628.6563,632.8359 2631.1563,632.8359 Q2631.8594,632.8359 2632.5078,632.9922 Q2633.1563,633.1484 2633.7188,633.4453 L2633.7188,636.1641 Q2633.0938,635.5859 2632.5,635.3125 Q2631.9063,635.0391 2631.2813,635.0391 Q2629.9375,635.0391 2629.25,636.1094 Q2628.5625,637.1797 2628.5625,639.2734 Q2628.5625,641.3672 2629.25,642.4375 Q2629.9375,643.5078 2631.2813,643.5078 Q2631.9063,643.5078 2632.5,643.2344 Q2633.0938,642.9609 2633.7188,642.3828 L2633.7188,645.1016 Z " fill="#000000"/><text fill="#000000" font-family="sans-serif" font-size="12" font-style="italic" lengthAdjust="spacing" textLength="152" x="2649.25" y="635.4668">«masd::object_template»</text><text fill="#000000" font-family="sans-serif" font-size="14" lengthAdjust="spacing" textLength="148" x="2651.25" y="651.292">ConfigurableViaKvps</text><line style="stroke:#181818;stroke-width:0.5;" x1="2486" x2="2932" y1="659.5938" y2="659.5938"/><ellipse cx="2496" cy="673.2422" fill="none" rx="3" ry="3" style="stroke:#038048;stroke-width:1.0;"/><text fill="#000000" font-family="sans-serif" font-size="14" lengthAdjust="spacing" textLength="338" x="2505" y="676.5889">expected_keys std::unordered_set&lt;std::string&gt;</text><ellipse cx="2496" cy="689.5391" fill="none" rx="3" ry="3" style="stroke:#038048;stroke-width:1.0;"/><text fill="#000000" font-family="sans-serif" font-size="14" lengthAdjust="spacing" textLength="422" x="2505" y="692.8857">supplied_kvps std::unordered_map&lt;std::string, std::string&gt;</text><line style="stroke:#181818;stroke-width:0.5;" x1="2486" x2="2932" y1="700.1875" y2="700.1875"/></g><g id="elem_GMN46"><path d="M2450,574.1953 L2450,599.3281 L2968,599.3281 L2968,584.1953 L2958,574.1953 L2450,574.1953 " fill="#FEFFDD" style="stroke:#181818;stroke-width:0.5;"/><path d="M2958,574.1953 L2958,584.1953 L2968,584.1953 L2958,574.1953 " fill="#FEFFDD" style="stroke:#181818;stroke-width:1.0;"/><text fill="#000000" font-family="sans-serif" font-size="13" lengthAdjust="spacing" textLength="497" x="2456" y="591.2622">Element has the ability to recieve configuration arguments as a set of KVPs.</text></g><!--MD5=[d54e5852ecfe164bbba509d3a9352ed8]
class initializer--><g id="elem_initializer"><rect codeLine="156" fill="#A9CDCD" height="56.2656" id="initializer" rx="2.5" ry="2.5" style="stroke:#181818;stroke-width:0.5;" width="202" x="4812.8333" y="619.3281"/><ellipse cx="4827.8333" cy="639.4609" fill="#ADD1B2" rx="11" ry="11" style="stroke:#181818;stroke-width:1.0;"/><path d="M4830.8021,645.1016 Q4830.224,645.3984 4829.5833,645.5469 Q4828.9427,645.6953 4828.2396,645.6953 Q4825.7396,645.6953 4824.4193,644.0469 Q4823.099,642.3984 4823.099,639.2734 Q4823.099,636.1484 4824.4193,634.4922 Q4825.7396,632.8359 4828.2396,632.8359 Q4828.9427,632.8359 4829.5911,632.9922 Q4830.2396,633.1484 4830.8021,633.4453 L4830.8021,636.1641 Q4830.1771,635.5859 4829.5833,635.3125 Q4828.9896,635.0391 4828.3646,635.0391 Q4827.0208,635.0391 4826.3333,636.1094 Q4825.6458,637.1797 4825.6458,639.2734 Q4825.6458,641.3672 4826.3333,642.4375 Q4827.0208,643.5078 4828.3646,643.5078 Q4828.9896,643.5078 4829.5833,643.2344 Q4830.1771,642.9609 4830.8021,642.3828 L4830.8021,645.1016 Z " fill="#000000"/><text fill="#000000" font-family="sans-serif" font-size="12" font-style="italic" lengthAdjust="spacing" textLength="174" x="4839.8333" y="635.4668">«masd::variability::initializer»</text><text fill="#000000" font-family="sans-serif" font-size="14" lengthAdjust="spacing" textLength="65" x="4894.3333" y="651.292">initializer</text><line style="stroke:#181818;stroke-width:0.5;" x1="4813.8333" x2="5013.8333" y1="659.5938" y2="659.5938"/><line style="stroke:#181818;stroke-width:0.5;" x1="4813.8333" x2="5013.8333" y1="667.5938" y2="667.5938"/></g><!--MD5=[4520fda4e10d4d791ce48fe025810cd4]
class main--><g id="elem_main"><rect codeLine="159" fill="#DDA9F3" height="56.2656" id="main" rx="2.5" ry="2.5" style="stroke:#181818;stroke-width:0.5;" width="267" x="5034.8333" y="635.625"/><ellipse cx="5049.8333" cy="655.7578" fill="#ADD1B2" rx="11" ry="11" style="stroke:#181818;stroke-width:1.0;"/><path d="M5052.8021,661.3984 Q5052.224,661.6953 5051.5833,661.8438 Q5050.9427,661.9922 5050.2396,661.9922 Q5047.7396,661.9922 5046.4193,660.3438 Q5045.099,658.6953 5045.099,655.5703 Q5045.099,652.4453 5046.4193,650.7891 Q5047.7396,649.1328 5050.2396,649.1328 Q5050.9427,649.1328 5051.5911,649.2891 Q5052.2396,649.4453 5052.8021,649.7422 L5052.8021,652.4609 Q5052.1771,651.8828 5051.5833,651.6094 Q5050.9896,651.3359 5050.3646,651.3359 Q5049.0208,651.3359 5048.3333,652.4063 Q5047.6458,653.4766 5047.6458,655.5703 Q5047.6458,657.6641 5048.3333,658.7344 Q5049.0208,659.8047 5050.3646,659.8047 Q5050.9896,659.8047 5051.5833,659.5313 Q5052.1771,659.2578 5052.8021,658.6797 L5052.8021,661.3984 Z " fill="#000000"/><text fill="#000000" font-family="sans-serif" font-size="12" font-style="italic" lengthAdjust="spacing" textLength="239" x="5061.8333" y="651.7637">«masd::entry_point, dogen::untypable»</text><text fill="#000000" font-family="sans-serif" font-size="14" lengthAdjust="spacing" textLength="36" x="5163.3333" y="667.5889">main</text><line style="stroke:#181818;stroke-width:0.5;" x1="5035.8333" x2="5300.8333" y1="675.8906" y2="675.8906"/><line style="stroke:#181818;stroke-width:0.5;" x1="5035.8333" x2="5300.8333" y1="683.8906" y2="683.8906"/></g><!--MD5=[ba83386d426114557685538e96aa6f68]
class CMakeLists--><g id="elem_CMakeLists"><rect codeLine="162" fill="#99CB99" height="56.2656" id="CMakeLists" rx="2.5" ry="2.5" style="stroke:#181818;stroke-width:0.5;" width="360" x="4988.3333" y="728.1875"/><ellipse cx="5003.3333" cy="748.3203" fill="#ADD1B2" rx="11" ry="11" style="stroke:#181818;stroke-width:1.0;"/><path d="M5006.3021,753.9609 Q5005.724,754.2578 5005.0833,754.4063 Q5004.4427,754.5547 5003.7396,754.5547 Q5001.2396,754.5547 4999.9193,752.9063 Q4998.599,751.2578 4998.599,748.1328 Q4998.599,745.0078 4999.9193,743.3516 Q5001.2396,741.6953 5003.7396,741.6953 Q5004.4427,741.6953 5005.0911,741.8516 Q5005.7396,742.0078 5006.3021,742.3047 L5006.3021,745.0234 Q5005.6771,744.4453 5005.0833,744.1719 Q5004.4896,743.8984 5003.8646,743.8984 Q5002.5208,743.8984 5001.8333,744.9688 Q5001.1458,746.0391 5001.1458,748.1328 Q5001.1458,750.2266 5001.8333,751.2969 Q5002.5208,752.3672 5003.8646,752.3672 Q5004.4896,752.3672 5005.0833,752.0938 Q5005.6771,751.8203 5006.3021,751.2422 L5006.3021,753.9609 Z " fill="#000000"/><text fill="#000000" font-family="sans-serif" font-size="12" font-style="italic" lengthAdjust="spacing" textLength="332" x="5015.3333" y="744.3262">«masd::build::cmakelists, dogen::handcrafted::cmake»</text><text fill="#000000" font-family="sans-serif" font-size="14" lengthAdjust="spacing" textLength="79" x="5141.8333" y="760.1514">CMakeLists</text><line style="stroke:#181818;stroke-width:0.5;" x1="4989.3333" x2="5347.3333" y1="768.4531" y2="768.4531"/><line style="stroke:#181818;stroke-width:0.5;" x1="4989.3333" x2="5347.3333" y1="776.4531" y2="776.4531"/></g><line style="stroke:#181818;stroke-width:1.0;stroke-dasharray:7.0,7.0;" x1="146" x2="146" y1="300.0156" y2="320.0156"/><line style="stroke:#181818;stroke-width:1.0;stroke-dasharray:7.0,7.0;" x1="807.5" x2="807.5" y1="300.0156" y2="320.0156"/><line style="stroke:#181818;stroke-width:1.0;stroke-dasharray:7.0,7.0;" x1="1099" x2="1099" y1="300.0156" y2="320.0156"/><line style="stroke:#181818;stroke-width:1.0;stroke-dasharray:7.0,7.0;" x1="3156.5" x2="3156.5" y1="108.2656" y2="128.2656"/><line style="stroke:#181818;stroke-width:1.0;stroke-dasharray:7.0,7.0;" x1="3446" x2="3446" y1="108.2656" y2="128.2656"/><line style="stroke:#181818;stroke-width:1.0;stroke-dasharray:7.0,7.0;" x1="4720.1667" x2="4720.1667" y1="108.2656" y2="128.2656"/><line style="stroke:#181818;stroke-width:1.0;stroke-dasharray:7.0,7.0;" x1="3747" x2="3747" y1="108.2656" y2="128.2656"/><line style="stroke:#181818;stroke-width:1.0;stroke-dasharray:7.0,7.0;" x1="2709" x2="2709" y1="599.3281" y2="619.3281"/><line style="stroke:#181818;stroke-width:1.0;stroke-dasharray:7.0,7.0;" x1="1439" x2="1439" y1="308.1641" y2="328.1641"/><line style="stroke:#181818;stroke-width:1.0;stroke-dasharray:7.0,7.0;" x1="2009.5" x2="2009.5" y1="308.1641" y2="328.1641"/><!--MD5=[4c3dcc21197e7ea2306a4a570eadcac2]
@startuml
!pragma layout elk
set namespaceSeparator ::
note as N1
Contains all the generic text templating infrastructure.

UML representation:

\image html dogen.templating/modeling/dogen.templating.svg
end note

namespace wale #F2F2F2 {
    class text_template <<ConfigurableViaKvps>> #F7E5FF {
        +{field} content std::string
    }

    note top of text_template
Represents a wale text template.
    end note

    class key_extractor <<dogen::handcrafted::typeable>> #FFFACD {
    }

    class instantiator <<dogen::handcrafted::typeable>> #FFFACD {
    }

    class formatter <<dogen::handcrafted::typeable>> #FFFACD {
    }

    class formatting_error <<masd::exception>> #E8C2F8 {
    }

    note top of formatting_error
An error occurred whilst formatting.
    end note

    class extraction_error <<masd::exception>> #E8C2F8 {
    }

    note top of extraction_error
An error occurred whilst extracting a key.
    end note

}

namespace stitch #F2F2F2 {
    class parser <<dogen::handcrafted::typeable>> #FFFACD {
    }

    class block #F7E5FF {
        +{field} type block_types
        +{field} content std::string
    }

    class text_template <<ConfigurableViaKvps>> #F7E5FF {
        +{field} properties properties
        +{field} body text_template_body
    }

    note top of text_template
Domain representation of a stitch template.
    end note

    class formatter <<dogen::handcrafted::typeable>> #FFFACD {
    }

    class parsing_error <<masd::exception>> #E8C2F8 {
    }

    note top of parsing_error
An error occurred whilst parsing.
    end note

    class formatting_error <<masd::exception>> #E8C2F8 {
    }

    note top of formatting_error
An error occurred whilst formatting.
    end note

    class properties #F7E5FF {
        +{field} stream_variable_name std::string
        +{field} inclusion_dependencies std::list<std::string>
        +{field} containing_namespaces std::list<std::string>
        +{field} wale_template std::string
        +{field} wale_kvps std::unordered_map<std::string, std::string>
    }

    class line #F7E5FF {
        +{field} blocks std::list<block>
    }

    enum block_types <<masd::enumeration>> #F2DAFD {
        +{field} text_block
        +{field} standard_control_block
        +{field} expression_block
        +{field} variable_block
    }

    class instantiator <<dogen::handcrafted::typeable>> #FFFACD {
    }

    class text_template_body #F7E5FF {
        +{field} tagged_values std::list<identification::entities::tagged_value>
        +{field} lines std::list<line>
    }

    class instantiation_error <<masd::exception>> #E8C2F8 {
    }

    class features <<masd::variability::feature_bundle>> #BAD7D7 {
        +{field} stream_variable_name masd::variability::text
        +{field} relative_output_directory masd::variability::text
        +{field} inclusion_dependency masd::variability::text_collection
        +{field} containing_namespaces masd::variability::text
        +{field} wale.text_template masd::variability::text
        +{field} wale.kvp masd::variability::key_value_pair
    }

    note top of features
Stitch templating features.
    end note

}

class ConfigurableViaKvps <<masd::object_template>> #E3B6F6 {
    +{field} expected_keys std::unordered_set<std::string>
    +{field} supplied_kvps std::unordered_map<std::string, std::string>
}

note top of ConfigurableViaKvps
Element has the ability to recieve configuration arguments as a set of KVPs.
end note

namespace helpers #F2F2F2 {
    class kvp_validator <<dogen::handcrafted::typeable>> #FFFACD {
    }

    class validation_error <<masd::exception>> #E8C2F8 {
    }

    note top of validation_error
An error occurred with the supplied KVPs.
    end note

    class kvp_resolver <<dogen::handcrafted::typeable>> #FFFACD {
    }

    class resolution_error <<masd::exception>> #E8C2F8 {
    }

    note top of resolution_error
An error occurred when trying to resolve a key.
    end note

}

class initializer <<masd::variability::initializer>> #A9CDCD {
}

class main <<masd::entry_point, dogen::untypable>> #DDA9F3 {
}

class CMakeLists <<masd::build::cmakelists, dogen::handcrafted::cmake>> #99CB99 {
}

@enduml

PlantUML version 1.2022.9(Tue Sep 27 17:10:06 BST 2022)
(GPL source distribution)
Java Runtime: OpenJDK Runtime Environment
JVM: OpenJDK 64-Bit Server VM
Default Encoding: UTF-8
Language: en
Country: GB
--></g></svg>