<?xml version="1.0" encoding="UTF-8" standalone="no"?>
<!-- Created with Inkscape (http://www.inkscape.org/) -->

<svg
   xmlns:dc="http://purl.org/dc/elements/1.1/"
   xmlns:cc="http://creativecommons.org/ns#"
   xmlns:rdf="http://www.w3.org/1999/02/22-rdf-syntax-ns#"
   xmlns:svg="http://www.w3.org/2000/svg"
   xmlns="http://www.w3.org/2000/svg"
   xmlns:xlink="http://www.w3.org/1999/xlink"
   xmlns:sodipodi="http://sodipodi.sourceforge.net/DTD/sodipodi-0.dtd"
   xmlns:inkscape="http://www.inkscape.org/namespaces/inkscape"
   width="297mm"
   height="210mm"
   viewBox="0 0 1052.3622 744.09448"
   id="svg5678"
   version="1.1"
   inkscape:version="0.91 r13725"
   sodipodi:docname="logo_with_message.svg"
   inkscape:export-filename="/home/marco/Development/DomainDrivenConsulting/dogen/images/logo_with_message.png"
   inkscape:export-xdpi="90"
   inkscape:export-ydpi="90">
  <defs
     id="defs5680">
    <filter
       inkscape:collect="always"
       id="filter5564"
       x="-0.16105904"
       width="1.322118"
       y="-26.413637"
       height="53.827274">
      <feGaussianBlur
         inkscape:collect="always"
         stdDeviation="1.9455515"
         id="feGaussianBlur5566" />
    </filter>
    <linearGradient
       inkscape:collect="always"
       xlink:href="#aigrd1-4-0"
       id="linearGradient5713-2"
       gradientUnits="userSpaceOnUse"
       gradientTransform="matrix(0.16496232,0,0,0.16496232,-87.78891,5.7977983)"
       x1="99.777298"
       y1="15.4238"
       x2="153.0005"
       y2="248.6311" />
    <linearGradient
       id="aigrd1-4-0"
       gradientUnits="userSpaceOnUse"
       x1="99.777298"
       y1="15.4238"
       x2="153.0005"
       y2="248.6311">
      <stop
         offset="0"
         style="stop-color:#184375"
         id="stop53300-3-5" />
      <stop
         offset="1"
         style="stop-color:#C8BDDC"
         id="stop53302-3-5" />
    </linearGradient>
    <filter
       style="color-interpolation-filters:sRGB"
       id="filter5704-7"
       inkscape:label="Desaturate"
       x="0"
       y="0"
       width="1"
       height="1"
       inkscape:menu="Color"
       inkscape:menu-tooltip="Render in shades of gray by reducing saturation to zero">
      <feColorMatrix
         id="feColorMatrix5706-9"
         type="saturate"
         values="0" />
    </filter>
    <filter
       style="color-interpolation-filters:sRGB"
       id="filter5700-7"
       inkscape:label="Desaturate"
       x="0"
       y="0"
       width="1"
       height="1"
       inkscape:menu="Color"
       inkscape:menu-tooltip="Render in shades of gray by reducing saturation to zero">
      <feColorMatrix
         id="feColorMatrix5702-5"
         type="saturate"
         values="0" />
    </filter>
    <filter
       style="color-interpolation-filters:sRGB"
       id="filter5696-9"
       inkscape:label="Desaturate"
       x="0"
       y="0"
       width="1"
       height="1"
       inkscape:menu="Color"
       inkscape:menu-tooltip="Render in shades of gray by reducing saturation to zero">
      <feColorMatrix
         id="feColorMatrix5698-7"
         type="saturate"
         values="0" />
    </filter>
    <filter
       inkscape:collect="always"
       style="color-interpolation-filters:sRGB"
       id="filter4756"
       x="-0.039853816"
       width="1.0797076"
       y="-0.73350005"
       height="2.4670001">
      <feGaussianBlur
         inkscape:collect="always"
         stdDeviation="10.816107"
         id="feGaussianBlur4758" />
    </filter>
  </defs>
  <sodipodi:namedview
     id="base"
     pagecolor="#ffffff"
     bordercolor="#666666"
     borderopacity="1.0"
     inkscape:pageopacity="0.0"
     inkscape:pageshadow="2"
     inkscape:zoom="1.1867718"
     inkscape:cx="368.31163"
     inkscape:cy="337.88379"
     inkscape:document-units="px"
     inkscape:current-layer="layer1"
     showgrid="false"
     inkscape:window-width="1920"
     inkscape:window-height="1047"
     inkscape:window-x="1680"
     inkscape:window-y="0"
     inkscape:window-maximized="1" />
  <metadata
     id="metadata5683">
    <rdf:RDF>
      <cc:Work
         rdf:about="">
        <dc:format>image/svg+xml</dc:format>
        <dc:type
           rdf:resource="http://purl.org/dc/dcmitype/StillImage" />
        <dc:title />
      </cc:Work>
    </rdf:RDF>
  </metadata>
  <g
     inkscape:label="Layer 1"
     inkscape:groupmode="layer"
     id="layer1"
     transform="translate(0,-308.26772)">
    <path
       style="opacity:1;fill:#00000c;fill-opacity:1"
       id="path5583"
       d="m 297.85565,569.77142 c -0.78958,5.13058 -1.03992,10.32468 -1.22574,15.50624 -0.1278,4.23668 -0.1442,8.47554 -0.1448,12.71382 -0.045,4.69656 -0.68664,9.3688 -1.03284,14.05268 -0.402,4.91546 0.28022,9.83036 0.57922,14.73332 0.15,4.3812 0.5049,8.75456 1.38558,13.053 0.97536,4.4605 1.60014,9.00018 2.29912,13.51498 0.35858,3.87442 1.18512,7.67012 1.84198,11.4978 0.82696,3.23686 1.42316,6.52078 2.12426,9.78606 0.8964,3.52512 2.04918,6.9709 3.13524,10.43928 1.27714,3.721 2.94998,7.27828 4.586,10.8488 1.57448,3.20608 0.02,-0.0314 -0.0316,-0.006 -6.21736,3.1282 -11.91092,7.20382 -17.86638,10.80574 0,0 19.04514,-9.5797 19.04514,-9.5797 l 0,0 c -10.54764,7.1162 -16.11924,18.86288 -19.54698,9.15992 -1.62626,-3.65904 -3.30542,-7.2935 -4.66582,-11.0645 -1.19834,-3.50736 -2.2698,-7.04286 -3.2579,-10.61508 -0.73422,-3.29402 -1.33814,-6.60906 -2.21206,-9.87108 -0.58538,-3.86158 -1.4581,-7.67338 -1.73144,-11.57898 -0.66648,-4.47122 -1.35106,-8.95348 -2.31502,-13.36802 -0.95886,-4.3888 -1.3195,-8.88578 -1.44184,-13.37062 -0.32426,-4.98474 -0.98384,-9.98218 -0.7159,-14.97848 0.31298,-4.63072 0.91942,-9.2484 1.02492,-13.88638 0.014,-4.27594 0.027,-8.5532 0.1956,-12.82652 0.21522,-5.19926 0.51434,-10.39544 0.9682,-15.57978 0,0 19.003,-9.3867 19.003,-9.3867 z"
       inkscape:connector-curvature="0" />
    <path
       style="opacity:1;fill:#00000c;fill-opacity:1"
       id="path5587"
       d="m 391.84733,632.7273 c -2.69866,3.77262 -4.41224,8.0465 -5.6442,12.48566 -0.7656,4.13586 -1.47066,8.29864 -1.98684,12.47614 -0.48854,3.43848 -0.5471,6.82098 0.1456,10.2224 0.7313,3.38492 2.05024,6.55894 3.90212,9.47306 1.9793,2.93062 4.62576,5.29492 7.27528,7.60152 2.8804,2.32922 6.26042,4.01392 9.75174,5.21854 3.60208,1.20642 7.2429,0.32078 10.83216,-0.43802 0.64376,-0.2116 1.28674,-0.42562 1.93128,-0.63482 0.62208,-0.20192 1.27138,-0.33178 1.86854,-0.5985 0.5894,-0.26324 2.23078,-1.30006 1.66926,-0.98164 -28.96252,16.42324 -19.40956,11.40596 -13.25386,7.26518 3.19242,-2.22002 6.08234,-4.83534 8.80804,-7.59878 2.29944,-2.29218 4.3687,-4.80308 6.11806,-7.5382 1.4404,-2.98224 1.83106,-6.36124 2.5201,-9.57474 1.01328,-3.85022 1.61788,-7.6711 1.26884,-11.64134 -0.6347,-5.13978 -2.20546,-10.10388 -4.17854,-14.87374 -1.62502,-3.04004 -3.28298,-6.01054 -5.55118,-8.61508 -2.42924,-2.5258 -4.8167,-5.1181 -7.50884,-7.36712 -2.36062,-2.21706 -5.37048,-3.29996 -8.3681,-4.34718 -3.2214,-0.5115 -6.20802,0.63184 -9.19676,1.65112 -1.1644,0.89608 -2.6233,1.2576 -3.89536,1.92788 -1.12006,0.59018 -1.63554,1.00336 -2.91382,1.18648 -1.30212,-0.42336 -0.68932,-0.0872 -1.80328,-1.0701 0,0 17.88924,-11.59182 17.88924,-11.59182 l 0,0 c 0.4424,-0.1546 0.184,-0.0518 0.76256,-0.3383 2.19368,-1.0793 4.34272,-2.28754 6.67086,-3.06736 3.2877,-0.9934 6.69096,-1.67342 10.04398,-0.525 3.16674,1.24036 6.24878,2.59956 8.73418,5.0072 2.70234,2.39694 5.24182,4.9787 7.71686,7.60834 2.38756,2.80248 4.06988,6.0125 5.74458,9.2805 2.03782,4.93594 3.66164,10.07816 4.46732,15.36794 0.62678,4.1833 0.27372,8.16492 -0.8842,12.24662 -0.77498,3.34292 -1.2033,6.7753 -2.16628,10.06612 -1.42758,3.03662 -3.70012,5.68532 -6.03634,8.06336 -2.5576,2.97594 -5.516,5.5866 -8.59992,8.00856 -8.7823,6.365 -17.988,12.9989 -28.66446,15.39458 -3.8956,0.68918 -7.80576,1.07978 -11.56668,-0.4747 -3.6207,-1.4931 -7.12458,-3.32762 -10.1367,-5.86024 -2.80022,-2.44108 -5.51164,-5.01816 -7.59636,-8.11876 -1.97856,-3.11638 -3.43388,-6.48714 -4.26272,-10.09656 -0.90856,-3.61116 -0.96868,-7.20116 -0.42576,-10.89056 0.48,-4.27728 1.279,-8.49536 1.8774,-12.75342 1.15124,-4.57192 2.7437,-9.00136 5.20202,-13.04948 0,0 19.44022,-8.50574 19.44022,-8.50574 z"
       inkscape:connector-curvature="0" />
    <path
       style="opacity:1;fill:#00000c;fill-opacity:1"
       id="path5593"
       d="m 453.36195,587.00907 c -1.6037,3.70604 -3.403,7.29522 -4.45196,11.20666 -0.82488,3.48164 -0.928,7.06458 -0.9872,10.62446 -0.0238,3.06264 0.006,6.12538 0.0216,9.188 -0.0486,2.61466 0.33114,5.20168 0.77462,7.77008 0.57088,3.9687 0.49868,8.00402 0.56084,12.00536 -0.1354,3.80282 0.1828,7.54148 0.67446,11.30194 0.4626,3.37064 0.67754,6.76568 0.79732,10.16346 -6.8e-4,2.92054 0.68092,5.77878 1.05368,8.66456 0.33944,2.87478 0.39814,5.77122 0.43752,8.66244 0.0614,2.98162 0.0928,5.9412 -0.33886,8.89586 -0.54184,3.22826 -0.71192,6.49564 -1.3142,9.7131 -0.65856,2.47466 -0.92764,5.0389 -1.54172,7.51908 -0.68504,2.23636 -0.8686,4.56474 -0.99324,6.88646 -0.38024,2.83408 -0.86842,5.68834 -1.70258,8.42776 -0.82894,2.74828 -2.34798,5.13742 -3.98526,7.45668 -1.6001,2.19378 -3.60794,3.97824 -5.81752,5.53054 -8.83868,5.6052 -17.54548,11.88864 -27.30188,15.70292 -2.7201,1.657 -5.90788,1.82684 -8.87372,2.70834 -3.19898,1.06642 -6.36366,2.13436 -9.691,2.77194 -4.7233,1.17052 -9.429,2.47424 -14.23962,3.23064 -4.41928,0.59884 -8.8535,0.81622 -13.2581,1.5076 -5.31896,0.81964 -10.70932,0.71948 -16.0738,0.76536 -6.59736,0.102 -13.16656,0.26266 -19.73958,-0.34914 -4.64454,-0.51256 -9.3093,-0.74714 -13.97806,-0.87118 -5.62348,0.1972 -10.9495,-1.57236 -16.206,-3.3256 -3.55452,-0.9582 -6.8437,-2.55942 -9.88268,-4.61006 -2.86502,-2.38344 -3.22082,-4.4537 -1.8825,-7.84948 1.37388,-3.11606 3.44164,-5.66 6.04078,-7.81814 8.0848,-6.31918 17.23412,-11.30204 26.65598,-15.33148 3.28712,-1.38974 6.79068,-1.78778 10.31358,-2.00356 4.2947,-0.159 8.59546,-0.1118 12.89232,-0.0768 4.74576,0.57486 9.57068,0.64822 14.28192,1.462 1.95852,0.1804 3.9195,1.0721 5.886,0.78284 0,0 -17.25202,12.4423 -17.25202,12.4423 l 0,0 c -1.95546,-0.37426 -3.90266,-0.79188 -5.87192,-1.09226 -4.6493,-0.59856 -9.33624,-1.01282 -14.01542,-1.26618 -4.30388,0.0288 -8.61578,-0.018 -12.91036,0.30816 -3.4181,0.36094 -6.76592,1.06568 -9.88658,2.56662 -1.58836,0.72936 -1.50698,0.66546 -2.98944,1.4431 -0.47392,0.2486 -1.87472,1.03278 -1.41328,0.76172 29.99488,-17.61998 19.80146,-12.21418 13.94962,-7.85136 -2.6105,1.91216 -5.05978,3.88146 -6.39266,6.94258 -1.50028,2.36286 -2.11404,3.25428 0.43472,5.13166 2.93486,1.8455 6.03736,3.34162 9.3898,4.2874 5.16754,1.71908 10.41726,3.00148 15.9147,2.78232 4.67946,0.1568 9.34574,0.49826 14.00078,1.00676 6.4689,0.5491 12.9609,0.34972 19.44674,0.2888 5.40516,-0.1336 10.8222,-0.29326 16.16932,-1.16986 4.36948,-0.59046 8.7904,-0.69808 13.13372,-1.5017 4.77162,-0.9706 9.49388,-2.17342 14.22132,-3.33764 3.28986,-0.87056 6.47312,-2.05104 9.76666,-2.90112 3.00062,-0.6531 5.89878,-1.53598 8.63586,-2.96574 7.13884,-3.54356 2.34598,-1.20376 -15.0929,8.87376 -0.52166,0.30144 1.02708,-0.63062 1.55056,-0.92892 1.5534,-0.88512 3.08296,-1.78702 4.59706,-2.741 2.10138,-1.5443 4.31004,-2.87968 6.0171,-4.89208 1.65228,-2.1624 3.3821,-4.31844 4.28564,-6.92002 1.06546,-2.53134 1.2108,-5.20132 1.94062,-7.83236 0.0754,-2.44012 0.1488,-4.905 0.73772,-7.28662 0.72206,-2.44718 1.02402,-4.95852 1.68608,-7.42976 0.67582,-3.18564 0.94164,-6.39514 1.3692,-9.6236 0.43206,-2.85824 0.61202,-5.68154 0.4603,-8.58152 -0.0234,-2.82098 -0.0512,-5.64676 -0.32826,-8.4567 -0.33578,-2.95658 -1.06492,-5.87078 -1.12766,-8.84578 -0.0748,-3.33578 -0.2146,-6.67406 -0.65836,-9.98458 -0.53766,-3.85606 -0.93628,-7.66852 -0.69572,-11.57692 -0.0464,-3.87538 -0.0616,-7.7737 -0.59288,-11.61922 -0.45224,-2.68716 -0.9016,-5.37174 -0.89824,-8.10016 -0.008,-3.08186 -0.026,-6.16382 5e-4,-9.24564 0.0544,-3.69954 0.0904,-7.42518 0.81558,-11.06786 0.9011,-4.04538 2.5824,-7.68548 4.20034,-11.4739 0,0 19.27056,-8.85538 19.27056,-8.85538 z"
       inkscape:connector-curvature="0" />
    <path
       style="opacity:1;fill:#00000c;fill-opacity:1"
       id="path5597"
       d="m 543.66961,611.25927 c -0.26278,5.97776 0.016,11.96454 -0.22094,17.94124 -0.34024,3.93578 -0.77792,7.86038 -1.03768,11.80284 0.016,3.72146 -0.50242,7.39064 -0.98786,11.06944 -0.49594,3.25666 -0.4182,6.55752 -0.69474,9.83032 -0.43578,2.59552 -0.41662,5.21936 -0.73222,7.8329 -0.45116,3.125 -0.3877,6.28994 -0.66958,9.42732 -0.4248,2.01324 -0.32658,4.04946 -0.70046,6.06846 -0.45246,2.10042 -0.43648,4.25306 -0.61852,6.3817 0.80784,7.86938 0.52332,2.3999 -19.38712,9.5526 -0.50412,0.1812 -0.21664,-1.0492 -0.32496,-1.5738 0,0 18.7307,-9.95658 18.7307,-9.95658 l 0,0 c 1.0003,8.16958 -25.02168,5.69484 -18.2571,11.1237 1.0896,-1.71096 0.1066,-4.28764 0.74032,-6.20378 0.1332,-0.79494 0.46918,-1.68408 0.52542,-2.48138 0.0842,-1.195 -0.26602,-2.40836 0.27282,-3.56556 0.64828,-3.06532 0.24296,-6.27154 0.686,-9.37572 0.31726,-2.6392 0.4083,-5.25844 0.73218,-7.87182 0.63756,-3.22742 0.1862,-6.58224 0.7325,-9.83522 0.47556,-3.63794 1.2229,-7.24554 1.07358,-10.93506 0.1818,-3.98118 0.69656,-7.92906 1.15624,-11.8857 0.544,-5.88806 0.176,-11.83142 0.1208,-17.73596 0,0 18.86058,-9.60994 18.86058,-9.60994 z"
       inkscape:connector-curvature="0" />
    <path
       style="opacity:1;fill:#00000c;fill-opacity:1"
       id="path5599"
       d="m 522.72923,654.70511 c 3.88826,-3.12092 7.645,-6.341 11.8591,-9.02442 3.86728,-2.31344 7.66586,-4.73366 11.42648,-7.21524 7.16776,-4.66302 14.83906,-8.61658 22.17488,-12.92074 5.60926,-3.29114 -11.2672,6.4988 -16.91894,9.7165 -0.1132,0.0644 0.87162,-0.5632 2.1256,-1.36356 7.20802,-5.9775 14.89108,-9.43972 23.50162,-14.43968 -57.82846,33.11566 45.20376,-25.83602 -12.01398,7.04078 1.88156,-1.3037 3.69234,-2.6882 5.58932,-3.97314 7.14978,-5.68114 15.79484,-9.54436 23.48358,-14.1469 5.60544,-3.35546 -11.32784,6.51154 -16.99176,9.7673 5.584,-2.87744 21.90376,-18.53994 21.49834,-6.99476 -0.78354,3.99014 -2.39794,7.7962 -3.60742,11.68804 -1.24748,3.86728 -2.47016,7.75352 -3.90918,11.55502 -1.84848,4.46184 -2.41666,9.2693 -2.79326,14.0416 -0.55976,5.7993 0.72286,11.52684 1.85376,17.17896 0.91196,2.97562 1.18252,6.35688 2.99298,8.99368 0.22534,0.3282 1.55146,1.69036 1.83324,1.98462 2.63308,1.73178 5.3199,3.323 7.68622,5.42908 2.1926,1.57352 3.73196,3.9135 6.01988,5.34406 8.61976,6.99644 -11.2731,9.6585 -17.31222,12.59232 0,0 18.03804,-11.22724 18.03804,-11.22724 l 0,0 c -26.06058,15.85688 -12.64426,14.67152 -18.6424,10.03248 -2.16226,-1.6919 -3.88376,-3.86552 -6.0415,-5.5707 -2.48588,-2.08474 -5.4262,-3.47556 -7.86468,-5.60328 -3.34182,-3.77922 -4.0631,-7.25082 -5.1294,-12.12916 -1.14794,-5.7988 -2.63628,-11.66862 -2.2371,-17.62292 0.35964,-4.9254 0.83496,-9.89412 2.4446,-14.5959 1.60644,-3.70912 2.67868,-7.64166 4.04616,-11.44106 1.2073,-3.70248 2.2663,-7.4509 3.63722,-11.09826 0.0756,-1.08524 0.0902,-1.49538 0.1718,-1.48126 1.3666,0.23646 0.0722,1.0893 -0.1472,1.2195 5.7356,-3.33774 11.4712,-6.67548 17.20678,-10.01322 -39.48358,23.09948 -12.85884,7.49752 -2.35798,1.44636 0.39624,-0.22832 -0.7597,0.51 -1.15184,0.74528 -1.04382,0.62634 -2.05018,1.25828 -3.0266,1.99278 -1.68854,1.59342 -3.7775,2.6108 -5.52552,4.0981 -6.35012,3.72496 -12.69702,7.4554 -19.05034,11.17486 -1.7231,1.00876 -0.2581,0.1384 -2.07056,1.0657 -0.36088,0.1846 -1.41412,0.7934 -1.06374,0.58952 0.70096,-0.40786 48.3562,-28.0567 -2.09754,1.23266 30.75494,-18.00224 18.9691,-11.89018 12.74022,-6.73886 -1.26546,1.14596 -0.5838,0.64572 -2.09566,1.52844 -6.43292,3.75592 -12.92852,7.40638 -19.2995,11.2664 -5.52104,3.34508 11.15602,-6.49844 16.74928,-9.72128 0.93062,-0.53622 -3.6687,2.2855 -2.76912,1.6474 -3.76556,2.59246 -7.64716,4.99264 -11.55548,7.36518 -4.2423,2.48994 -8.16612,5.37166 -11.70794,8.80424 0,0 -19.69824,7.78072 -19.69824,7.78072 z"
       inkscape:connector-curvature="0" />
    <path
       style="opacity:1;fill:#00000c;fill-opacity:1"
       id="path5605"
       d="m 256.61204,723.15297 c 8.79084,-4.15096 18.11054,-6.85474 27.39187,-9.65562 14.10712,-4.28282 28.44624,-7.86776 42.95112,-10.5301 5.79636,-1.0639 11.59444,-2.19492 17.45658,-2.79906 15.28812,-1.57552 28.68598,-1.18028 44.07638,-1.20252 34.04094,0.30542 67.63646,6.13504 101.09108,11.8146 36.84774,6.25562 9.30894,1.69744 43.37124,7.27276 20.05402,3.064 40.14626,6.15216 60.40776,7.44462 2.22504,0.0548 4.34198,0.67738 6.55806,0.66298 0,0 -17.29016,12.32618 -17.29016,12.32618 l 0,0 c -2.02042,-0.38134 -4.03222,-0.81422 -6.08642,-0.98864 -19.56902,-2.13272 -38.92968,-5.76302 -58.31376,-9.12732 -47.60358,-8.6649 -95.29356,-18.75706 -143.89366,-19.10464 -18.04734,0.23484 -26.91358,-0.1502 -44.64102,1.9703 -5.90046,0.7058 -11.74008,1.86518 -17.57388,2.99668 -14.80376,2.87124 -29.43052,6.68872 -43.76069,11.37664 -9.62568,3.13528 -19.23936,6.30278 -28.38334,10.69308 0,0 16.63884,-13.14994 16.63884,-13.14994 z"
       inkscape:connector-curvature="0" />
    <path
       style="opacity:1;fill:#00000c;fill-opacity:1"
       id="path5607"
       d="m 630.82537,585.36753 c 0.018,5.92388 1.1558,11.75854 1.84726,17.62462 0.3624,5.80256 1.75952,11.44908 2.71656,17.1644 0.76344,5.83756 1.77634,11.65618 3.12064,17.38784 1.27528,5.04226 2.74198,10.02462 4.46344,14.93106 1.02102,2.8557 2.12862,5.66356 3.10082,8.53872 1.10294,2.33032 1.17924,5.8959 2.71488,7.93538 0,0 -18.39204,10.71022 -18.39204,10.71022 l 0,0 c -1.4532,-2.55142 -1.72854,-5.69324 -2.87828,-8.39418 -1.02272,-2.86114 -1.98308,-5.74732 -2.9925,-8.61254 -1.66402,-5.00374 -3.13798,-10.0583 -4.3868,-15.184 -1.47144,-5.7392 -2.48346,-11.62552 -3.28438,-17.49352 -0.88812,-5.7641 -2.33766,-11.44418 -2.70288,-17.27972 -0.65418,-5.91426 -1.66444,-11.77908 -2.21312,-17.70518 0,0 18.8864,-9.6231 18.8864,-9.6231 z"
       inkscape:connector-curvature="0" />
    <path
       style="opacity:1;fill:#00000c;fill-opacity:1"
       id="path5609"
       d="m 652.56894,676.24417 c 0.79732,1.43546 0.89924,4.34968 2.55426,5.09888 0,0 -18.07164,11.2187 -18.07164,11.2187 l 0,0 c -1.4864,-1.71402 -2.0791,-3.8679 -2.97372,-5.93242 0,0 18.4911,-10.38516 18.4911,-10.38516 z"
       inkscape:connector-curvature="0" />
    <text
       xml:space="preserve"
       style="font-style:italic;font-weight:normal;font-size:80px;line-height:125%;font-family:Sans;-inkscape-font-specification:'Sans Italic';letter-spacing:0px;word-spacing:0px;fill:#000000;fill-opacity:1;stroke:none"
       x="450.58829"
       y="415.90805"
       id="text3037"
       sodipodi:linespacing="125%"><tspan
         y="415.90805"
         x="450.58829"
         sodipodi:role="line"
         id="tspan3039" /></text>
    <path
       style="opacity:0.55144037;fill:none;stroke:#000000;stroke-width:8.37314224;stroke-linecap:butt;stroke-linejoin:miter;stroke-miterlimit:4;stroke-dasharray:none;stroke-opacity:1;filter:url(#filter5564)"
       d="m -51.088464,49.944544 28.991378,-0.176777"
       id="path5530"
       inkscape:connector-curvature="0"
       transform="matrix(2.5406586,0,0,2.2456224,839.62788,564.43976)" />
    <rect
       style="opacity:0.91300408;fill:#460032;fill-opacity:1;stroke:#ffffff;stroke-width:0;stroke-miterlimit:4;stroke-dasharray:none;stroke-opacity:1"
       id="rect3990"
       width="112.16481"
       height="104.20985"
       x="691.72955"
       y="597.04895"
       ry="22.008696" />
    <path
       style="opacity:0.34567901;fill:#ecd2ec;fill-opacity:1;stroke:#81225f;stroke-width:0;stroke-miterlimit:4;stroke-dasharray:none;stroke-opacity:1"
       d="m 733.86449,664.44698 c -13.03542,-0.71754 -24.23271,-2.97864 -31.85997,-6.43359 -3.68862,-1.67085 -6.56388,-4.01688 -7.81491,-6.37653 l -0.58899,-1.11093 0.0492,-17.68755 c 0.0549,-19.65576 0.1731,-14.19351 0.82095,-19.0191 0.89028,-6.63108 9.46746,-14.64846 17.55552,-14.56566 l 3.59265,0.0369 31.37748,-0.36225 c 22.51248,-0.2598 34.89921,0.114 36.06021,0.2661 2.95893,0.2031 8.06358,1.77579 10.65879,4.22172 2.95014,2.78049 5.83458,6.12123 6.73473,9.52095 0.56955,2.15109 0.99213,15.68406 0.87843,28.13097 l -0.0894,9.77577 -0.78579,1.14405 c -3.75453,5.46645 -16.56387,9.70413 -35.2875,11.67411 -9.74565,1.02537 -21.55593,1.32165 -31.30161,0.78522 z"
       id="path5492"
       inkscape:connector-curvature="0"
       sodipodi:nodetypes="csscssscscssscssc" />
    <g
       id="g5708"
       transform="matrix(1.8161795,0,0,1.8161794,790.78391,603.71564)">
      <path
         id="path3243"
         d="m -24.466194,7.4403573 c -0.388944,0.026616 -0.766989,0.086854 -1.149028,0.1305717 l -0.02614,0 -0.914003,4.987833 c -1.489745,0.339268 -2.891298,0.915038 -4.152173,1.69743 l -4.099945,-2.950917 c -1.108324,0.860469 -2.116888,1.864014 -3.003146,2.950917 l 2.846459,4.152174 c -0.864265,1.32077 -1.514185,2.82889 -1.88023,4.413319 -6.2e-5,0.0075 -5.1e-5,0.02481 0,0.02612 l -4.961718,0.783428 c -0.09071,0.740922 -0.130572,1.50664 -0.130572,2.271945 0,0.626158 0.01729,1.243951 0.07834,1.854115 l 4.961719,0.887887 c 0.35288,1.723037 1.023228,3.332196 1.958573,4.752804 l -2.950918,4.047718 c 0.845124,1.049183 1.820808,2.004422 2.872575,2.846459 l 4.178289,-2.872573 c 1.460255,0.931522 3.090331,1.58472 4.857262,1.906345 l 0.783428,4.935603 c 0.556705,0.05068 1.127598,0.05223 1.69743,0.05223 0.80448,-1e-6 1.572907,-0.03049 2.350285,-0.130572 l 0.940117,-5.040061 c 1.677637,-0.417495 3.253609,-1.141751 4.622233,-2.115259 l 4.021601,2.924803 c 1.042924,-0.8873 1.9966204,-1.907186 2.8203514,-3.003146 l -2.9248024,-4.230518 c 0.792075,-1.367963 1.340922,-2.877287 1.619086,-4.491661 l 4.9356024,-0.783429 c 0.04332,-0.515055 0.0522,-1.014561 0.0522,-1.540744 0,-0.914389 -0.106276,-1.810941 -0.235025,-2.689774 l -5.0139474,-0.914001 c -0.392923,-1.450889 -1.037623,-2.804553 -1.85412,-4.021604 l 2.9509174,-4.047717 C -10.13018,13.11146 -11.173581,12.078107 -12.323094,11.200818 l -4.256633,2.924802 c -1.223394,-0.723543 -2.539944,-1.278709 -3.969371,-1.592973 l -0.783428,-4.961718 c -0.713066,-0.08388 -1.432,-0.1305717 -2.167489,-0.1305717 -0.198784,0 -0.403362,-0.00625 -0.600633,0 -0.09616,0.00304 -0.191336,-0.00559 -0.287255,0 -0.02597,0.00148 -0.05244,-0.00181 -0.07834,0 z m 0.678977,12.6915537 c 0.0954,-0.0048 0.190653,0 0.287254,0 3.091208,0 5.61458,2.523372 5.61458,5.614576 0,3.091204 -2.523372,5.588462 -5.61458,5.588462 -3.091199,10e-7 -5.588465,-2.497258 -5.588465,-5.588462 9e-6,-2.994603 2.343693,-5.464499 5.301211,-5.614576 z"
         style="color:#000000;display:inline;overflow:visible;visibility:visible;fill:url(#linearGradient5713-2);fill-opacity:1;fill-rule:nonzero;stroke:#3f4561;stroke-width:0.82199627;stroke-linecap:round;stroke-linejoin:round;stroke-miterlimit:4;stroke-dasharray:none;stroke-dashoffset:0;stroke-opacity:1;marker:none;filter:url(#filter5704-7)"
         inkscape:r_cx="true"
         inkscape:r_cy="true"
         inkscape:connector-curvature="0" />
      <circle
         r="12.727922"
         cy="23.781593"
         cx="23.511301"
         transform="matrix(0.50684126,0,0,0.50684126,-35.413132,13.681122)"
         id="path3283"
         style="color:#000000;display:inline;overflow:visible;visibility:visible;opacity:0.64772728;fill:none;stroke:#ffffff;stroke-width:1.62180054;stroke-linecap:butt;stroke-linejoin:miter;stroke-miterlimit:4;stroke-dasharray:none;stroke-dashoffset:0;stroke-opacity:1;marker:none;filter:url(#filter5700-7)"
         inkscape:r_cx="true"
         inkscape:r_cy="true" />
      <path
         sodipodi:nodetypes="ccccccccccccccccccccccccccccccccc"
         style="color:#000000;display:inline;overflow:visible;visibility:visible;opacity:0.34659089;fill:none;stroke:#ffffff;stroke-width:0.82199562;stroke-linecap:butt;stroke-linejoin:miter;stroke-miterlimit:4;stroke-dasharray:none;stroke-dashoffset:0;stroke-opacity:1;marker:none;filter:url(#filter5696-9)"
         d="m -25.044641,8.4275732 -0.733871,4.8292748 c -1.396382,0.318006 -3.964964,1.290599 -5.146818,2.023957 l -3.904221,-2.914095 c -1.038864,0.806542 -1.110107,0.861238 -1.940822,1.880022 l 2.822896,4.186607 c -0.810099,1.237995 -1.783129,3.44416 -2.132492,5.020706 0,0 -4.946601,0.833854 -4.946601,0.833854 -0.08503,0.694487 -0.04417,2.180898 0.01306,2.752822 l 4.725013,0.851191 c 0.330766,1.615051 1.568556,4.214714 2.44528,5.54629 l -2.987958,3.947684 c 0.792157,0.983429 0.950698,1.073421 1.936548,1.862686 l 3.99542,-2.927159 c 1.36874,0.873142 4.085561,1.935288 5.741752,2.236756 l 0.655731,4.768476 c 0.521812,0.04749 1.963363,0.180737 2.692022,0.08693 l 0.733861,-4.963936 c 1.572496,-0.39133 4.289572,-1.506658 5.57242,-2.419154 l 3.991145,2.883694 c 0.977568,-0.831689 0.986322,-0.957008 1.7584234,-1.984283 l -2.9575594,-4.203944 c 0.742444,-1.282232 1.702428,-3.789895 1.963166,-5.303093 L -5.9059146,26.6194 c 0.04061,-0.482775 0.04258,-1.829078 -0.07817,-2.652833 l -4.9335314,-0.851191 c -0.368295,-1.359959 -1.632213,-3.810585 -2.397541,-4.95136 l 3.135677,-3.947684 c -0.857358,-1.048511 -1.176136,-1.192375 -2.253601,-2.014683 l -4.130087,2.957558 c -1.146726,-0.678198 -3.433397,-1.712053 -4.773234,-2.006621 L -22.06599,8.4275732 c -0.668381,-0.078624 -2.596719,-0.043705 -2.978684,0 z"
         id="path3285"
         inkscape:r_cx="true"
         inkscape:r_cy="true"
         inkscape:connector-curvature="0" />
    </g>
    <text
       xml:space="preserve"
       style="font-style:normal;font-variant:normal;font-weight:normal;font-stretch:normal;font-size:40px;line-height:125%;font-family:'Courier 10 Pitch';-inkscape-font-specification:'Courier 10 Pitch';letter-spacing:0px;word-spacing:0px;fill:#000000;fill-opacity:1;stroke:none;stroke-width:1px;stroke-linecap:butt;stroke-linejoin:miter;stroke-opacity:1"
       x="110.00001"
       y="806.64789"
       id="text5802"
       sodipodi:linespacing="125%"><tspan
         sodipodi:role="line"
         id="tspan5804"
         x="110.00001"
         y="806.64789">Let me code-generate that for you.</tspan></text>
    <path
       style="opacity:1;fill:#00000c;fill-opacity:1"
       id="path5587-5"
       d="m 319.22709,638.13248 c -2.69866,3.77262 -4.41224,8.0465 -5.6442,12.48566 -0.7656,4.13586 -1.47066,8.29864 -1.98684,12.47614 -0.48854,3.43848 -0.5471,6.82098 0.1456,10.2224 0.7313,3.38492 2.05024,6.55894 3.90212,9.47306 1.9793,2.93062 4.62576,5.29492 7.27528,7.60152 2.8804,2.32922 6.26042,4.01392 9.75174,5.21854 3.60208,1.20642 7.2429,0.32078 10.83216,-0.43802 0.64376,-0.2116 1.28674,-0.42562 1.93128,-0.63482 0.62208,-0.20192 1.27138,-0.33178 1.86854,-0.5985 0.5894,-0.26324 2.23078,-1.30006 1.66926,-0.98164 -28.96252,16.42324 -19.40956,11.40596 -13.25386,7.26518 3.19242,-2.22002 6.08234,-4.83534 8.80804,-7.59878 2.29944,-2.29218 4.3687,-4.80308 6.11806,-7.5382 1.4404,-2.98224 1.83106,-6.36124 2.5201,-9.57474 1.01328,-3.85022 1.61788,-7.6711 1.26884,-11.64134 -0.6347,-5.13978 -2.20546,-10.10388 -4.17854,-14.87374 -1.62502,-3.04004 -3.28298,-6.01054 -5.55118,-8.61508 -2.42924,-2.5258 -4.8167,-5.1181 -7.50884,-7.36712 -2.36062,-2.21706 -5.37048,-3.29996 -8.3681,-4.34718 -3.2214,-0.5115 -6.20802,0.63184 -9.19676,1.65112 -1.1644,0.89608 -2.6233,1.2576 -3.89536,1.92788 -1.12006,0.59018 -1.63554,1.00336 -2.91382,1.18648 -1.30212,-0.42336 -0.68932,-0.0872 -1.80328,-1.0701 0,0 17.88924,-11.59182 17.88924,-11.59182 l 0,0 c 0.4424,-0.1546 0.184,-0.0518 0.76256,-0.3383 2.19368,-1.0793 4.34272,-2.28754 6.67086,-3.06736 3.2877,-0.9934 6.69096,-1.67342 10.04398,-0.525 3.16674,1.24036 6.24878,2.59956 8.73418,5.0072 2.70234,2.39694 5.24182,4.9787 7.71686,7.60834 2.38756,2.80248 4.06988,6.0125 5.74458,9.2805 2.03782,4.93594 3.66164,10.07816 4.46732,15.36794 0.62678,4.1833 0.27372,8.16492 -0.8842,12.24662 -0.77498,3.34292 -1.2033,6.7753 -2.16628,10.06612 -1.42758,3.03662 -3.70012,5.68532 -6.03634,8.06336 -2.5576,2.97594 -5.516,5.5866 -8.59992,8.00856 -8.7823,6.365 -17.988,12.9989 -28.66446,15.39458 -3.8956,0.68918 -7.80576,1.07978 -11.56668,-0.4747 -3.6207,-1.4931 -7.12458,-3.32762 -10.1367,-5.86024 -2.80022,-2.44108 -5.51164,-5.01816 -7.59636,-8.11876 -1.97856,-3.11638 -3.43388,-6.48714 -4.26272,-10.09656 -0.90856,-3.61116 -0.96868,-7.20116 -0.42576,-10.89056 0.48,-4.27728 1.279,-8.49536 1.8774,-12.75342 1.15124,-4.57192 2.7437,-9.00136 5.20202,-13.04948 0,0 19.44022,-8.50574 19.44022,-8.50574 z"
       inkscape:connector-curvature="0" />
    <path
       style="opacity:1;fill:#00000c;fill-opacity:1"
       id="path5587-8"
       d="m 246.36996,652.41819 c -2.69866,3.77262 -4.41224,8.0465 -5.6442,12.48566 -0.7656,4.13586 -1.47066,8.29864 -1.98684,12.47614 -0.48854,3.43848 -0.5471,6.82098 0.1456,10.2224 0.7313,3.38492 2.05024,6.55894 3.90212,9.47306 1.9793,2.93062 4.62576,5.29492 7.27528,7.60152 2.8804,2.32922 6.26042,4.01392 9.75174,5.21854 3.60208,1.20642 7.2429,0.32078 10.83216,-0.43802 0.64376,-0.2116 1.28674,-0.42562 1.93128,-0.63482 0.62208,-0.20192 1.27138,-0.33178 1.86854,-0.5985 0.5894,-0.26324 2.23078,-1.30006 1.66926,-0.98164 -28.96252,16.42324 -19.40956,11.40596 -13.25386,7.26518 3.19242,-2.22002 6.08234,-4.83534 8.80804,-7.59878 2.29944,-2.29218 4.3687,-4.80308 6.11806,-7.5382 1.4404,-2.98224 1.83106,-6.36124 2.5201,-9.57474 1.01328,-3.85022 1.61788,-7.6711 1.26884,-11.64134 -0.6347,-5.13978 -2.20546,-10.10388 -4.17854,-14.87374 -1.62502,-3.04004 -3.28298,-6.01054 -5.55118,-8.61508 -2.42924,-2.5258 -4.8167,-5.1181 -7.50884,-7.36712 -2.36062,-2.21706 -5.37048,-3.29996 -8.3681,-4.34718 -3.2214,-0.5115 -6.20802,0.63184 -9.19676,1.65112 -1.1644,0.89608 -2.6233,1.2576 -3.89536,1.92788 -1.12006,0.59018 -1.63554,1.00336 -2.91382,1.18648 -1.30212,-0.42336 -0.68932,-0.0872 -1.80328,-1.0701 0,0 17.88924,-11.59182 17.88924,-11.59182 l 0,0 c 0.4424,-0.1546 0.184,-0.0518 0.76256,-0.3383 2.19368,-1.0793 4.34272,-2.28754 6.67086,-3.06736 3.2877,-0.9934 6.69096,-1.67342 10.04398,-0.525 3.16674,1.24036 6.24878,2.59956 8.73418,5.0072 2.70234,2.39694 5.24182,4.9787 7.71686,7.60834 2.38756,2.80248 4.06988,6.0125 5.74458,9.2805 2.03782,4.93594 3.66164,10.07816 4.46732,15.36794 0.62678,4.1833 0.27372,8.16492 -0.8842,12.24662 -0.77498,3.34292 -1.2033,6.7753 -2.16628,10.06612 -1.42758,3.03662 -3.70012,5.68532 -6.03634,8.06336 -2.5576,2.97594 -5.516,5.5866 -8.59992,8.00856 -8.7823,6.365 -17.988,12.9989 -28.66446,15.39458 -3.8956,0.68918 -7.80576,1.07978 -11.56668,-0.4747 -3.6207,-1.4931 -7.12458,-3.32762 -10.1367,-5.86024 -2.80022,-2.44108 -5.51164,-5.01816 -7.59636,-8.11876 -1.97856,-3.11638 -3.43388,-6.48714 -4.26272,-10.09656 -0.90856,-3.61116 -0.96868,-7.20116 -0.42576,-10.89056 0.48,-4.27728 1.279,-8.49536 1.8774,-12.75342 1.15124,-4.57192 2.7437,-9.00136 5.20202,-13.04948 0,0 19.44022,-8.50574 19.44022,-8.50574 z"
       inkscape:connector-curvature="0" />
    <path
       style="opacity:1;fill:#00000c;fill-opacity:1"
       id="path5587-4"
       d="m 469.2271,628.13248 c -2.69866,3.77262 -4.41224,8.0465 -5.6442,12.48566 -0.7656,4.13586 -1.47066,8.29864 -1.98684,12.47614 -0.48854,3.43848 -0.5471,6.82098 0.1456,10.2224 0.7313,3.38492 2.05024,6.55894 3.90212,9.47306 1.9793,2.93062 4.62576,5.29492 7.27528,7.60152 2.8804,2.32922 6.26042,4.01392 9.75174,5.21854 3.60208,1.20642 7.2429,0.32078 10.83216,-0.43802 0.64376,-0.2116 1.28674,-0.42562 1.93128,-0.63482 0.62208,-0.20192 1.27138,-0.33178 1.86854,-0.5985 0.5894,-0.26324 2.23078,-1.30006 1.66926,-0.98164 -28.96252,16.42324 -19.40956,11.40596 -13.25386,7.26518 3.19242,-2.22002 6.08234,-4.83534 8.80804,-7.59878 2.29944,-2.29218 4.3687,-4.80308 6.11806,-7.5382 1.4404,-2.98224 1.83106,-6.36124 2.5201,-9.57474 1.01328,-3.85022 1.61788,-7.6711 1.26884,-11.64134 -0.6347,-5.13978 -2.20546,-10.10388 -4.17854,-14.87374 -1.62502,-3.04004 -3.28298,-6.01054 -5.55118,-8.61508 -2.42924,-2.5258 -4.8167,-5.1181 -7.50884,-7.36712 -2.36062,-2.21706 -5.37048,-3.29996 -8.3681,-4.34718 -3.2214,-0.5115 -6.20802,0.63184 -9.19676,1.65112 -1.1644,0.89608 -2.6233,1.2576 -3.89536,1.92788 -1.12006,0.59018 -1.63554,1.00336 -2.91382,1.18648 -1.30212,-0.42336 -0.68932,-0.0872 -1.80328,-1.0701 0,0 17.88924,-11.59182 17.88924,-11.59182 l 0,0 c 0.4424,-0.1546 0.184,-0.0518 0.76256,-0.3383 2.19368,-1.0793 4.34272,-2.28754 6.67086,-3.06736 3.2877,-0.9934 6.69096,-1.67342 10.04398,-0.525 3.16674,1.24036 6.24878,2.59956 8.73418,5.0072 2.70234,2.39694 5.24182,4.9787 7.71686,7.60834 2.38756,2.80248 4.06988,6.0125 5.74458,9.2805 2.03782,4.93594 3.66164,10.07816 4.46732,15.36794 0.62678,4.1833 0.27372,8.16492 -0.8842,12.24662 -0.77498,3.34292 -1.2033,6.7753 -2.16628,10.06612 -1.42758,3.03662 -3.70012,5.68532 -6.03634,8.06336 -2.5576,2.97594 -5.516,5.5866 -8.59992,8.00856 -8.7823,6.365 -17.988,12.9989 -28.66446,15.39458 -3.8956,0.68918 -7.80576,1.07978 -11.56668,-0.4747 -3.6207,-1.4931 -7.12458,-3.32762 -10.1367,-5.86024 -2.80022,-2.44108 -5.51164,-5.01816 -7.59636,-8.11876 -1.97856,-3.11638 -3.43388,-6.48714 -4.26272,-10.09656 -0.90856,-3.61116 -0.96868,-7.20116 -0.42576,-10.89056 0.48,-4.27728 1.279,-8.49536 1.8774,-12.75342 1.15124,-4.57192 2.7437,-9.00136 5.20202,-13.04948 0,0 19.44022,-8.50574 19.44022,-8.50574 z"
       inkscape:connector-curvature="0" />
    <path
       style="opacity:1;fill:#00000c;fill-opacity:1"
       id="path5867"
       d="m 462.94628,683.8136 c 2.97474,3.70789 6.42516,6.99071 9.91122,10.21 3.01307,2.81254 6.27629,5.32329 10.15351,6.77434 3.14085,1.14484 6.4665,1.60249 9.66006,2.52225 2.75838,0.71654 5.63219,1.45829 8.48487,1.03823 3.14414,-0.15601 5.97144,-1.30604 8.9397,-2.18781 1.63786,-0.65848 3.17029,-1.39707 4.68319,-2.29077 0.42351,-0.25017 1.71778,-0.95924 1.29145,-0.71391 -17.52776,10.08626 -22.24618,13.71361 -16.12733,9.08737 1.38767,-1.45208 2.24366,-3.65839 1.63526,-5.6397 -1.3513,-1.19324 -3.14629,-1.85301 -4.90704,-2.22048 -1.44549,-0.62677 -0.72887,-0.33861 -2.14813,-0.8688 0,0 17.62096,-11.85796 17.62096,-11.85796 l 0,0 c 1.36999,0.51894 0.69255,0.2826 2.03083,0.71327 2.30449,0.76873 4.60116,1.86615 5.99733,3.93654 1.00505,2.58716 0.56566,5.30366 -0.63721,7.77736 -4.71474,6.46699 -17.30944,11.54546 -26.12828,14.9929 -3.03823,0.99779 -6.12073,1.69989 -9.33401,1.80326 -3.00782,-0.13046 -5.94759,-0.72691 -8.83681,-1.56877 -3.30541,-0.76561 -6.59761,-1.57865 -9.77052,-2.80591 -3.93948,-1.80305 -7.3745,-4.47336 -10.53537,-7.4201 -3.51461,-3.31438 -6.84406,-6.80561 -10.11138,-10.36319 0,0 18.1277,-10.91812 18.1277,-10.91812 z"
       inkscape:connector-curvature="0" />
    <rect
       style="fill:#00000c;fill-opacity:0.14814818;filter:url(#filter4756)"
       id="rect3922"
       width="651.3468"
       height="35.390121"
       x="182.00635"
       y="718.6839"
       rx="44.835701"
       ry="35.390099"
       transform="matrix(0.91399432,0,0,0.81433278,42.399409,132.08699)" />
  </g>
</svg>
