<?xml version="1.0" encoding="UTF-8" standalone="no"?><svg xmlns="http://www.w3.org/2000/svg" xmlns:xlink="http://www.w3.org/1999/xlink" contentStyleType="text/css" height="359px" preserveAspectRatio="none" style="width:1181px;height:359px;background:#FFFFFF;" version="1.1" viewBox="0 0 1181 359" width="1181px" zoomAndPan="magnify"><defs/><g><path d="M467.5,12 L533.5,12 A3.75,3.75 0 0 1 536,14.5 L543,34.2969 L1171.5,34.2969 A2.5,2.5 0 0 1 1174,36.7969 L1174,197.0313 A2.5,2.5 0 0 1 1171.5,199.5313 L467.5,199.5313 A2.5,2.5 0 0 1 465,197.0313 L465,14.5 A2.5,2.5 0 0 1 467.5,12 " fill="none" style="stroke:#000000;stroke-width:1.0;"/><line style="stroke:#000000;stroke-width:1.0;" x1="465" x2="543" y1="34.2969" y2="34.2969"/><text fill="#000000" font-family="sans-serif" font-size="14" font-weight="bold" lengthAdjust="spacing" textLength="65" x="469" y="26.9951">package</text><!--MD5=[667bb85423f6131a2a7040401d71380a]
class package::palette_test_one_one--><g id="elem_package::palette_test_one_one"><rect codeLine="26" fill="#FFFACD" height="56.2656" id="package::palette_test_one_one" rx="2.5" ry="2.5" style="stroke:#181818;stroke-width:0.5;" width="222" x="557.5" y="52"/><ellipse cx="572.5" cy="72.1328" fill="#ADD1B2" rx="11" ry="11" style="stroke:#181818;stroke-width:1.0;"/><path d="M575.4688,77.7734 Q574.8906,78.0703 574.25,78.2188 Q573.6094,78.3672 572.9063,78.3672 Q570.4063,78.3672 569.0859,76.7188 Q567.7656,75.0703 567.7656,71.9453 Q567.7656,68.8203 569.0859,67.1641 Q570.4063,65.5078 572.9063,65.5078 Q573.6094,65.5078 574.2578,65.6641 Q574.9063,65.8203 575.4688,66.1172 L575.4688,68.8359 Q574.8438,68.2578 574.25,67.9844 Q573.6563,67.7109 573.0313,67.7109 Q571.6875,67.7109 571,68.7813 Q570.3125,69.8516 570.3125,71.9453 Q570.3125,74.0391 571,75.1094 Q571.6875,76.1797 573.0313,76.1797 Q573.6563,76.1797 574.25,75.9063 Q574.8438,75.6328 575.4688,75.0547 L575.4688,77.7734 Z " fill="#000000"/><text fill="#000000" font-family="sans-serif" font-size="12" font-style="italic" lengthAdjust="spacing" textLength="194" x="584.5" y="68.1387">«dogen::handcrafted::typeable»</text><text fill="#000000" font-family="sans-serif" font-size="14" lengthAdjust="spacing" textLength="151" x="606" y="83.9639">palette_test_one_one</text><line style="stroke:#181818;stroke-width:0.5;" x1="558.5" x2="778.5" y1="92.2656" y2="92.2656"/><line style="stroke:#181818;stroke-width:0.5;" x1="558.5" x2="778.5" y1="100.2656" y2="100.2656"/></g><!--MD5=[3019720e81615251359c75174bdd01ba]
class package::palette_test_one_two--><g id="elem_package::palette_test_one_two"><rect codeLine="29" fill="#FFFACD" height="56.2656" id="package::palette_test_one_two" rx="2.5" ry="2.5" style="stroke:#181818;stroke-width:0.5;" width="303" x="480" y="128.2656"/><ellipse cx="495" cy="148.3984" fill="#ADD1B2" rx="11" ry="11" style="stroke:#181818;stroke-width:1.0;"/><path d="M497.9688,154.0391 Q497.3906,154.3359 496.75,154.4844 Q496.1094,154.6328 495.4063,154.6328 Q492.9063,154.6328 491.5859,152.9844 Q490.2656,151.3359 490.2656,148.2109 Q490.2656,145.0859 491.5859,143.4297 Q492.9063,141.7734 495.4063,141.7734 Q496.1094,141.7734 496.7578,141.9297 Q497.4063,142.0859 497.9688,142.3828 L497.9688,145.1016 Q497.3438,144.5234 496.75,144.25 Q496.1563,143.9766 495.5313,143.9766 Q494.1875,143.9766 493.5,145.0469 Q492.8125,146.1172 492.8125,148.2109 Q492.8125,150.3047 493.5,151.375 Q494.1875,152.4453 495.5313,152.4453 Q496.1563,152.4453 496.75,152.1719 Q497.3438,151.8984 497.9688,151.3203 L497.9688,154.0391 Z " fill="#000000"/><text fill="#000000" font-family="sans-serif" font-size="12" font-style="italic" lengthAdjust="spacing" textLength="275" x="507" y="144.4043">«dogen::handcrafted::typeable::header_only»</text><text fill="#000000" font-family="sans-serif" font-size="14" lengthAdjust="spacing" textLength="149" x="570" y="160.2295">palette_test_one_two</text><line style="stroke:#181818;stroke-width:0.5;" x1="481" x2="782" y1="168.5313" y2="168.5313"/><line style="stroke:#181818;stroke-width:0.5;" x1="481" x2="782" y1="176.5313" y2="176.5313"/></g><!--MD5=[c5b093286b685eddf0065c8cab15ff02]
class package::palette_test_one_three--><g id="elem_package::palette_test_one_three"><rect codeLine="32" fill="#FFFACD" height="56.2656" id="package::palette_test_one_three" rx="2.5" ry="2.5" style="stroke:#181818;stroke-width:0.5;" width="356" x="803" y="128.2656"/><ellipse cx="818" cy="148.3984" fill="#ADD1B2" rx="11" ry="11" style="stroke:#181818;stroke-width:1.0;"/><path d="M820.9688,154.0391 Q820.3906,154.3359 819.75,154.4844 Q819.1094,154.6328 818.4063,154.6328 Q815.9063,154.6328 814.5859,152.9844 Q813.2656,151.3359 813.2656,148.2109 Q813.2656,145.0859 814.5859,143.4297 Q815.9063,141.7734 818.4063,141.7734 Q819.1094,141.7734 819.7578,141.9297 Q820.4063,142.0859 820.9688,142.3828 L820.9688,145.1016 Q820.3438,144.5234 819.75,144.25 Q819.1563,143.9766 818.5313,143.9766 Q817.1875,143.9766 816.5,145.0469 Q815.8125,146.1172 815.8125,148.2109 Q815.8125,150.3047 816.5,151.375 Q817.1875,152.4453 818.5313,152.4453 Q819.1563,152.4453 819.75,152.1719 Q820.3438,151.8984 820.9688,151.3203 L820.9688,154.0391 Z " fill="#000000"/><text fill="#000000" font-family="sans-serif" font-size="12" font-style="italic" lengthAdjust="spacing" textLength="328" x="830" y="144.4043">«dogen::handcrafted::typeable::implementation_only»</text><text fill="#000000" font-family="sans-serif" font-size="14" lengthAdjust="spacing" textLength="162" x="913" y="160.2295">palette_test_one_three</text><line style="stroke:#181818;stroke-width:0.5;" x1="804" x2="1158" y1="168.5313" y2="168.5313"/><line style="stroke:#181818;stroke-width:0.5;" x1="804" x2="1158" y1="176.5313" y2="176.5313"/></g><g id="elem_N1"><path d="M12,23.0703 L12,199.5313 L445,199.5313 L445,33.0703 L435,23.0703 L12,23.0703 " fill="#FEFFDD" style="stroke:#181818;stroke-width:0.5;"/><path d="M435,23.0703 L435,33.0703 L445,33.0703 L435,23.0703 " fill="#FEFFDD" style="stroke:#181818;stroke-width:1.0;"/><text fill="#000000" font-family="sans-serif" font-size="13" lengthAdjust="spacing" textLength="412" x="18" y="40.1372">Exercises all dogen-defined stereotypes that have an impact in</text><text fill="#000000" font-family="sans-serif" font-size="13" lengthAdjust="spacing" textLength="359" x="18" y="55.27">colour, so we can see how the entire palette looks like.</text><text fill="#000000" font-family="sans-serif" font-size="13" lengthAdjust="spacing" textLength="4" x="18" y="70.4028"> </text><text fill="#000000" font-family="sans-serif" font-size="13" lengthAdjust="spacing" textLength="376" x="18" y="85.5356">This model does not need to be code generated, though it</text><text fill="#000000" font-family="sans-serif" font-size="13" lengthAdjust="spacing" textLength="395" x="18" y="100.6685">should remain a valid Dogen model. It must be updated with</text><text fill="#000000" font-family="sans-serif" font-size="13" lengthAdjust="spacing" textLength="385" x="18" y="115.8013">any changes to the colour scheme. To make a change, first</text><text fill="#000000" font-family="sans-serif" font-size="13" lengthAdjust="spacing" textLength="351" x="18" y="130.9341">update the colour.py script then run it in this model. If</text><text fill="#000000" font-family="sans-serif" font-size="13" lengthAdjust="spacing" textLength="369" x="18" y="146.0669">it looks good, then run it against all other dogen models.</text><text fill="#000000" font-family="sans-serif" font-size="13" lengthAdjust="spacing" textLength="4" x="18" y="161.1997"> </text><text fill="#000000" font-family="sans-serif" font-size="13" lengthAdjust="spacing" textLength="378" x="18" y="176.3325">We should try to keep all elements in one screen as much</text><text fill="#000000" font-family="sans-serif" font-size="13" lengthAdjust="spacing" textLength="370" x="18" y="191.4653">as possible, so we can evaluate how they work together.</text></g><!--MD5=[7e3c1018496cffda7f2678773baa6a69]
class palette_test_one_one--><g id="elem_palette_test_one_one"><rect codeLine="16" fill="#FFFACD" height="56.2656" id="palette_test_one_one" rx="2.5" ry="2.5" style="stroke:#181818;stroke-width:0.5;" width="222" x="45.3333" y="219.5313"/><ellipse cx="60.3333" cy="239.6641" fill="#ADD1B2" rx="11" ry="11" style="stroke:#181818;stroke-width:1.0;"/><path d="M63.3021,245.3047 Q62.724,245.6016 62.0833,245.75 Q61.4427,245.8984 60.7396,245.8984 Q58.2396,245.8984 56.9193,244.25 Q55.599,242.6016 55.599,239.4766 Q55.599,236.3516 56.9193,234.6953 Q58.2396,233.0391 60.7396,233.0391 Q61.4427,233.0391 62.0911,233.1953 Q62.7396,233.3516 63.3021,233.6484 L63.3021,236.3672 Q62.6771,235.7891 62.0833,235.5156 Q61.4896,235.2422 60.8646,235.2422 Q59.5208,235.2422 58.8333,236.3125 Q58.1458,237.3828 58.1458,239.4766 Q58.1458,241.5703 58.8333,242.6406 Q59.5208,243.7109 60.8646,243.7109 Q61.4896,243.7109 62.0833,243.4375 Q62.6771,243.1641 63.3021,242.5859 L63.3021,245.3047 Z " fill="#000000"/><text fill="#000000" font-family="sans-serif" font-size="12" font-style="italic" lengthAdjust="spacing" textLength="194" x="72.3333" y="235.6699">«dogen::handcrafted::typeable»</text><text fill="#000000" font-family="sans-serif" font-size="14" lengthAdjust="spacing" textLength="151" x="93.8333" y="251.4951">palette_test_one_one</text><line style="stroke:#181818;stroke-width:0.5;" x1="46.3333" x2="266.3333" y1="259.7969" y2="259.7969"/><line style="stroke:#181818;stroke-width:0.5;" x1="46.3333" x2="266.3333" y1="267.7969" y2="267.7969"/></g><!--MD5=[25aa9f5cbca62f8b427d5a7b096f5dd2]
class palette_test_one_two--><g id="elem_palette_test_one_two"><rect codeLine="19" fill="#FFFACD" height="56.2656" id="palette_test_one_two" rx="2.5" ry="2.5" style="stroke:#181818;stroke-width:0.5;" width="303" x="287.3333" y="219.5313"/><ellipse cx="302.3333" cy="239.6641" fill="#ADD1B2" rx="11" ry="11" style="stroke:#181818;stroke-width:1.0;"/><path d="M305.3021,245.3047 Q304.724,245.6016 304.0833,245.75 Q303.4427,245.8984 302.7396,245.8984 Q300.2396,245.8984 298.9193,244.25 Q297.599,242.6016 297.599,239.4766 Q297.599,236.3516 298.9193,234.6953 Q300.2396,233.0391 302.7396,233.0391 Q303.4427,233.0391 304.0911,233.1953 Q304.7396,233.3516 305.3021,233.6484 L305.3021,236.3672 Q304.6771,235.7891 304.0833,235.5156 Q303.4896,235.2422 302.8646,235.2422 Q301.5208,235.2422 300.8333,236.3125 Q300.1458,237.3828 300.1458,239.4766 Q300.1458,241.5703 300.8333,242.6406 Q301.5208,243.7109 302.8646,243.7109 Q303.4896,243.7109 304.0833,243.4375 Q304.6771,243.1641 305.3021,242.5859 L305.3021,245.3047 Z " fill="#000000"/><text fill="#000000" font-family="sans-serif" font-size="12" font-style="italic" lengthAdjust="spacing" textLength="275" x="314.3333" y="235.6699">«dogen::handcrafted::typeable::header_only»</text><text fill="#000000" font-family="sans-serif" font-size="14" lengthAdjust="spacing" textLength="149" x="377.3333" y="251.4951">palette_test_one_two</text><line style="stroke:#181818;stroke-width:0.5;" x1="288.3333" x2="589.3333" y1="259.7969" y2="259.7969"/><line style="stroke:#181818;stroke-width:0.5;" x1="288.3333" x2="589.3333" y1="267.7969" y2="267.7969"/></g><!--MD5=[1e3cc3502b41b36b32e8d46fcda95b56]
class palette_test_one_three--><g id="elem_palette_test_one_three"><rect codeLine="22" fill="#FFFACD" height="56.2656" id="palette_test_one_three" rx="2.5" ry="2.5" style="stroke:#181818;stroke-width:0.5;" width="356" x="260.8333" y="295.7969"/><ellipse cx="275.8333" cy="315.9297" fill="#ADD1B2" rx="11" ry="11" style="stroke:#181818;stroke-width:1.0;"/><path d="M278.8021,321.5703 Q278.224,321.8672 277.5833,322.0156 Q276.9427,322.1641 276.2396,322.1641 Q273.7396,322.1641 272.4193,320.5156 Q271.099,318.8672 271.099,315.7422 Q271.099,312.6172 272.4193,310.9609 Q273.7396,309.3047 276.2396,309.3047 Q276.9427,309.3047 277.5911,309.4609 Q278.2396,309.6172 278.8021,309.9141 L278.8021,312.6328 Q278.1771,312.0547 277.5833,311.7813 Q276.9896,311.5078 276.3646,311.5078 Q275.0208,311.5078 274.3333,312.5781 Q273.6458,313.6484 273.6458,315.7422 Q273.6458,317.8359 274.3333,318.9063 Q275.0208,319.9766 276.3646,319.9766 Q276.9896,319.9766 277.5833,319.7031 Q278.1771,319.4297 278.8021,318.8516 L278.8021,321.5703 Z " fill="#000000"/><text fill="#000000" font-family="sans-serif" font-size="12" font-style="italic" lengthAdjust="spacing" textLength="328" x="287.8333" y="311.9355">«dogen::handcrafted::typeable::implementation_only»</text><text fill="#000000" font-family="sans-serif" font-size="14" lengthAdjust="spacing" textLength="162" x="370.8333" y="327.7607">palette_test_one_three</text><line style="stroke:#181818;stroke-width:0.5;" x1="261.8333" x2="615.8333" y1="336.0625" y2="336.0625"/><line style="stroke:#181818;stroke-width:0.5;" x1="261.8333" x2="615.8333" y1="344.0625" y2="344.0625"/></g><!--MD5=[2173f56e1702fe5f8d307b83a47213b5]
@startuml
!pragma layout elk
set namespaceSeparator ::
note as N1
Exercises all dogen-defined stereotypes that have an impact in
colour, so we can see how the entire palette looks like.

This model does not need to be code generated, though it
should remain a valid Dogen model. It must be updated with
any changes to the colour scheme. To make a change, first
update the colour.py script then run it in this model. If
it looks good, then run it against all other dogen models.

We should try to keep all elements in one screen as much
as possible, so we can evaluate how they work together.
end note

class palette_test_one_one <<dogen::handcrafted::typeable>> #FFFACD {
}

class palette_test_one_two <<dogen::handcrafted::typeable::header_only>> #FFFACD {
}

class palette_test_one_three <<dogen::handcrafted::typeable::implementation_only>> #FFFACD {
}

namespace package #F2F2F2 {
    class palette_test_one_one <<dogen::handcrafted::typeable>> #FFFACD {
    }

    class palette_test_one_two <<dogen::handcrafted::typeable::header_only>> #FFFACD {
    }

    class palette_test_one_three <<dogen::handcrafted::typeable::implementation_only>> #FFFACD {
    }

}

@enduml

PlantUML version 1.2022.12(Sun Oct 23 19:12:26 BST 2022)
(GPL source distribution)
Java Runtime: OpenJDK Runtime Environment
JVM: OpenJDK 64-Bit Server VM
Java Version: 1.8.0_212-8u212-b03-2~deb9u1-b03
Operating System: Linux
OS Version: 5.19.0-2-amd64
Default Encoding: UTF-8
Language: en
Country: GB
--></g></svg>