<?xml version="1.0" encoding="UTF-8" standalone="no"?><svg xmlns="http://www.w3.org/2000/svg" xmlns:xlink="http://www.w3.org/1999/xlink" contentStyleType="text/css" height="188px" preserveAspectRatio="none" style="width:707px;height:188px;background:#FFFFFF;" version="1.1" viewBox="0 0 707 188" width="707px" zoomAndPan="magnify"><defs/><g><g id="elem_N1"><path d="M12,12 L12,97.6641 L530,97.6641 L530,22 L520,12 L12,12 " fill="#FEFFDD" style="stroke:#181818;stroke-width:0.5;"/><path d="M520,12 L520,22 L530,22 L520,12 " fill="#FEFFDD" style="stroke:#181818;stroke-width:1.0;"/><text fill="#000000" font-family="sans-serif" font-size="13" lengthAdjust="spacing" textLength="129" x="18" y="29.0669">Welcome to Dogen!</text><text fill="#000000" font-family="sans-serif" font-size="13" lengthAdjust="spacing" textLength="4" x="18" y="44.1997"> </text><text fill="#000000" font-family="sans-serif" font-size="13" lengthAdjust="spacing" textLength="497" x="18" y="59.3325">This is one of the simplest models you can generate, a single class with one</text><text fill="#000000" font-family="sans-serif" font-size="13" lengthAdjust="spacing" textLength="485" x="18" y="74.4653">property. You can see the use of comments at the class level and property</text><text fill="#000000" font-family="sans-serif" font-size="13" lengthAdjust="spacing" textLength="36" x="18" y="89.5981">level.</text></g><!--MD5=[1257bd976559fabdc48417809c39bc0d]
class one_property--><g id="elem_one_property"><rect codeLine="10" fill="#F7E5FF" height="64.2969" id="one_property" rx="2.5" ry="2.5" style="stroke:#181818;stroke-width:0.5;" width="162" x="538" y="117.6641"/><ellipse cx="568.75" cy="133.6641" fill="#ADD1B2" rx="11" ry="11" style="stroke:#181818;stroke-width:1.0;"/><path d="M571.7188,139.3047 Q571.1406,139.6016 570.5,139.75 Q569.8594,139.8984 569.1563,139.8984 Q566.6563,139.8984 565.3359,138.25 Q564.0156,136.6016 564.0156,133.4766 Q564.0156,130.3516 565.3359,128.6953 Q566.6563,127.0391 569.1563,127.0391 Q569.8594,127.0391 570.5078,127.1953 Q571.1563,127.3516 571.7188,127.6484 L571.7188,130.3672 Q571.0938,129.7891 570.5,129.5156 Q569.9063,129.2422 569.2813,129.2422 Q567.9375,129.2422 567.25,130.3125 Q566.5625,131.3828 566.5625,133.4766 Q566.5625,135.5703 567.25,136.6406 Q567.9375,137.7109 569.2813,137.7109 Q569.9063,137.7109 570.5,137.4375 Q571.0938,137.1641 571.7188,136.5859 L571.7188,139.3047 Z " fill="#000000"/><text fill="#000000" font-family="sans-serif" font-size="14" lengthAdjust="spacing" textLength="95" x="586.25" y="138.5107">one_property</text><line style="stroke:#181818;stroke-width:0.5;" x1="539" x2="699" y1="149.6641" y2="149.6641"/><ellipse cx="549" cy="163.3125" fill="none" rx="3" ry="3" style="stroke:#038048;stroke-width:1.0;"/><text fill="#000000" font-family="sans-serif" font-size="14" lengthAdjust="spacing" textLength="136" x="558" y="166.6592">property std::string</text><line style="stroke:#181818;stroke-width:0.5;" x1="539" x2="699" y1="173.9609" y2="173.9609"/></g><g id="elem_GMN4"><path d="M550,72.5313 L550,97.6641 L688,97.6641 L688,82.5313 L678,72.5313 L550,72.5313 " fill="#FEFFDD" style="stroke:#181818;stroke-width:0.5;"/><path d="M678,72.5313 L678,82.5313 L688,82.5313 L678,72.5313 " fill="#FEFFDD" style="stroke:#181818;stroke-width:1.0;"/><text fill="#000000" font-family="sans-serif" font-size="13" lengthAdjust="spacing" textLength="117" x="556" y="89.5981">Hello World class.</text></g><line style="stroke:#181818;stroke-width:1.0;stroke-dasharray:7.0,7.0;" x1="619" x2="619" y1="97.6641" y2="117.6641"/><!--MD5=[54d8f9d7c78bdfcada6161bb94a3ed02]
@startuml
!pragma layout elk
set namespaceSeparator ::
note as N1
Welcome to Dogen!

This is one of the simplest models you can generate, a single class with one
property. You can see the use of comments at the class level and property
level.
end note

class one_property #F7E5FF {
    +{field} property std::string
}

note top of one_property
Hello World class.
end note

@enduml

PlantUML version 1.2022.12(Sun Oct 23 19:12:26 BST 2022)
(GPL source distribution)
Java Runtime: OpenJDK Runtime Environment
JVM: OpenJDK 64-Bit Server VM
Java Version: 1.8.0_212-8u212-b03-2~deb9u1-b03
Operating System: Linux
OS Version: 6.0.0-6-amd64
Default Encoding: UTF-8
Language: en
Country: GB
--></g></svg>